%TF.GenerationSoftware,KiCad,Pcbnew,8.0.5*%
%TF.CreationDate,2025-01-04T18:37:31+03:00*%
%TF.ProjectId,Love_LEDs,4c6f7665-5f4c-4454-9473-2e6b69636164,rev?*%
%TF.SameCoordinates,Original*%
%TF.FileFunction,Legend,Top*%
%TF.FilePolarity,Positive*%
%FSLAX46Y46*%
G04 Gerber Fmt 4.6, Leading zero omitted, Abs format (unit mm)*
G04 Created by KiCad (PCBNEW 8.0.5) date 2025-01-04 18:37:31*
%MOMM*%
%LPD*%
G01*
G04 APERTURE LIST*
%ADD10C,0.200000*%
%ADD11C,0.120000*%
G04 APERTURE END LIST*
D10*
X130203006Y-94908028D02*
X130345863Y-94950885D01*
X130345863Y-94950885D02*
X130393482Y-94993742D01*
X130393482Y-94993742D02*
X130441101Y-95079457D01*
X130441101Y-95079457D02*
X130441101Y-95208028D01*
X130441101Y-95208028D02*
X130393482Y-95293742D01*
X130393482Y-95293742D02*
X130345863Y-95336600D01*
X130345863Y-95336600D02*
X130250625Y-95379457D01*
X130250625Y-95379457D02*
X129869673Y-95379457D01*
X129869673Y-95379457D02*
X129869673Y-94479457D01*
X129869673Y-94479457D02*
X130203006Y-94479457D01*
X130203006Y-94479457D02*
X130298244Y-94522314D01*
X130298244Y-94522314D02*
X130345863Y-94565171D01*
X130345863Y-94565171D02*
X130393482Y-94650885D01*
X130393482Y-94650885D02*
X130393482Y-94736600D01*
X130393482Y-94736600D02*
X130345863Y-94822314D01*
X130345863Y-94822314D02*
X130298244Y-94865171D01*
X130298244Y-94865171D02*
X130203006Y-94908028D01*
X130203006Y-94908028D02*
X129869673Y-94908028D01*
X130774435Y-94779457D02*
X131012530Y-95379457D01*
X131250625Y-94779457D02*
X131012530Y-95379457D01*
X131012530Y-95379457D02*
X130917292Y-95593742D01*
X130917292Y-95593742D02*
X130869673Y-95636600D01*
X130869673Y-95636600D02*
X130774435Y-95679457D01*
X132869673Y-95379457D02*
X132393483Y-95379457D01*
X132393483Y-95379457D02*
X132393483Y-94479457D01*
X133631578Y-94779457D02*
X133631578Y-95379457D01*
X133203007Y-94779457D02*
X133203007Y-95250885D01*
X133203007Y-95250885D02*
X133250626Y-95336600D01*
X133250626Y-95336600D02*
X133345864Y-95379457D01*
X133345864Y-95379457D02*
X133488721Y-95379457D01*
X133488721Y-95379457D02*
X133583959Y-95336600D01*
X133583959Y-95336600D02*
X133631578Y-95293742D01*
X134107769Y-94779457D02*
X134107769Y-95379457D01*
X134107769Y-94865171D02*
X134155388Y-94822314D01*
X134155388Y-94822314D02*
X134250626Y-94779457D01*
X134250626Y-94779457D02*
X134393483Y-94779457D01*
X134393483Y-94779457D02*
X134488721Y-94822314D01*
X134488721Y-94822314D02*
X134536340Y-94908028D01*
X134536340Y-94908028D02*
X134536340Y-95379457D01*
X135441102Y-94779457D02*
X135441102Y-95508028D01*
X135441102Y-95508028D02*
X135393483Y-95593742D01*
X135393483Y-95593742D02*
X135345864Y-95636600D01*
X135345864Y-95636600D02*
X135250626Y-95679457D01*
X135250626Y-95679457D02*
X135107769Y-95679457D01*
X135107769Y-95679457D02*
X135012531Y-95636600D01*
X135441102Y-95336600D02*
X135345864Y-95379457D01*
X135345864Y-95379457D02*
X135155388Y-95379457D01*
X135155388Y-95379457D02*
X135060150Y-95336600D01*
X135060150Y-95336600D02*
X135012531Y-95293742D01*
X135012531Y-95293742D02*
X134964912Y-95208028D01*
X134964912Y-95208028D02*
X134964912Y-94950885D01*
X134964912Y-94950885D02*
X135012531Y-94865171D01*
X135012531Y-94865171D02*
X135060150Y-94822314D01*
X135060150Y-94822314D02*
X135155388Y-94779457D01*
X135155388Y-94779457D02*
X135345864Y-94779457D01*
X135345864Y-94779457D02*
X135441102Y-94822314D01*
X135917293Y-95379457D02*
X135917293Y-94479457D01*
X136345864Y-95379457D02*
X136345864Y-94908028D01*
X136345864Y-94908028D02*
X136298245Y-94822314D01*
X136298245Y-94822314D02*
X136203007Y-94779457D01*
X136203007Y-94779457D02*
X136060150Y-94779457D01*
X136060150Y-94779457D02*
X135964912Y-94822314D01*
X135964912Y-94822314D02*
X135917293Y-94865171D01*
X137203007Y-95336600D02*
X137107769Y-95379457D01*
X137107769Y-95379457D02*
X136917293Y-95379457D01*
X136917293Y-95379457D02*
X136822055Y-95336600D01*
X136822055Y-95336600D02*
X136774436Y-95250885D01*
X136774436Y-95250885D02*
X136774436Y-94908028D01*
X136774436Y-94908028D02*
X136822055Y-94822314D01*
X136822055Y-94822314D02*
X136917293Y-94779457D01*
X136917293Y-94779457D02*
X137107769Y-94779457D01*
X137107769Y-94779457D02*
X137203007Y-94822314D01*
X137203007Y-94822314D02*
X137250626Y-94908028D01*
X137250626Y-94908028D02*
X137250626Y-94993742D01*
X137250626Y-94993742D02*
X136774436Y-95079457D01*
X138393484Y-95336600D02*
X138536341Y-95379457D01*
X138536341Y-95379457D02*
X138774436Y-95379457D01*
X138774436Y-95379457D02*
X138869674Y-95336600D01*
X138869674Y-95336600D02*
X138917293Y-95293742D01*
X138917293Y-95293742D02*
X138964912Y-95208028D01*
X138964912Y-95208028D02*
X138964912Y-95122314D01*
X138964912Y-95122314D02*
X138917293Y-95036600D01*
X138917293Y-95036600D02*
X138869674Y-94993742D01*
X138869674Y-94993742D02*
X138774436Y-94950885D01*
X138774436Y-94950885D02*
X138583960Y-94908028D01*
X138583960Y-94908028D02*
X138488722Y-94865171D01*
X138488722Y-94865171D02*
X138441103Y-94822314D01*
X138441103Y-94822314D02*
X138393484Y-94736600D01*
X138393484Y-94736600D02*
X138393484Y-94650885D01*
X138393484Y-94650885D02*
X138441103Y-94565171D01*
X138441103Y-94565171D02*
X138488722Y-94522314D01*
X138488722Y-94522314D02*
X138583960Y-94479457D01*
X138583960Y-94479457D02*
X138822055Y-94479457D01*
X138822055Y-94479457D02*
X138964912Y-94522314D01*
X139393484Y-95293742D02*
X139441103Y-95336600D01*
X139441103Y-95336600D02*
X139393484Y-95379457D01*
X139393484Y-95379457D02*
X139345865Y-95336600D01*
X139345865Y-95336600D02*
X139393484Y-95293742D01*
X139393484Y-95293742D02*
X139393484Y-95379457D01*
D11*
%TO.C,R24*%
X151920000Y-85580000D02*
X151920000Y-89420000D01*
X150080000Y-85580000D02*
X150080000Y-89420000D01*
%TO.C,R23*%
X143580000Y-90080000D02*
X147420000Y-90080000D01*
X143580000Y-91920000D02*
X147420000Y-91920000D01*
%TO.C,R22*%
X157420000Y-80080000D02*
X157420000Y-83920000D01*
X155580000Y-80080000D02*
X155580000Y-83920000D01*
%TO.C,R21*%
X162920000Y-77080000D02*
X162920000Y-80920000D01*
X161080000Y-77080000D02*
X161080000Y-80920000D01*
%TO.C,R20*%
X166920000Y-79080000D02*
X166920000Y-82920000D01*
X165080000Y-79080000D02*
X165080000Y-82920000D01*
%TO.C,R19*%
X170080000Y-85920000D02*
X170080000Y-82080000D01*
X171920000Y-85920000D02*
X171920000Y-82080000D01*
%TO.C,R18*%
X147380000Y-94420000D02*
X143540000Y-94420000D01*
X147380000Y-92580000D02*
X143540000Y-92580000D01*
%TO.C,R17*%
X167080000Y-89080000D02*
X170920000Y-89080000D01*
X167080000Y-90920000D02*
X170920000Y-90920000D01*
%TO.C,R16*%
X164580000Y-94080000D02*
X168420000Y-94080000D01*
X164580000Y-95920000D02*
X168420000Y-95920000D01*
%TO.C,R15*%
X161080000Y-100080000D02*
X164920000Y-100080000D01*
X161080000Y-101920000D02*
X164920000Y-101920000D01*
%TO.C,R14*%
X155080000Y-105580000D02*
X158920000Y-105580000D01*
X155080000Y-107420000D02*
X158920000Y-107420000D01*
%TO.C,R13*%
X149080000Y-110580000D02*
X152920000Y-110580000D01*
X149080000Y-112420000D02*
X152920000Y-112420000D01*
%TO.C,R12*%
X143580000Y-101580000D02*
X147420000Y-101580000D01*
X143580000Y-103420000D02*
X147420000Y-103420000D01*
%TO.C,R11*%
X144080000Y-117920000D02*
X144080000Y-114080000D01*
X145920000Y-117920000D02*
X145920000Y-114080000D01*
%TO.C,R10*%
X143580000Y-104080000D02*
X147420000Y-104080000D01*
X143580000Y-105920000D02*
X147420000Y-105920000D01*
%TO.C,R9*%
X136080000Y-110080000D02*
X139920000Y-110080000D01*
X136080000Y-111920000D02*
X139920000Y-111920000D01*
%TO.C,R8*%
X130080000Y-104580000D02*
X133920000Y-104580000D01*
X130080000Y-106420000D02*
X133920000Y-106420000D01*
%TO.C,R7*%
X124080000Y-98080000D02*
X127920000Y-98080000D01*
X124080000Y-99920000D02*
X127920000Y-99920000D01*
%TO.C,R6*%
X121080000Y-92080000D02*
X124920000Y-92080000D01*
X121080000Y-93920000D02*
X124920000Y-93920000D01*
%TO.C,R5*%
X119540000Y-86080000D02*
X123380000Y-86080000D01*
X119540000Y-87920000D02*
X123380000Y-87920000D01*
%TO.C,R4*%
X123920000Y-79080000D02*
X123920000Y-82920000D01*
X122080000Y-79080000D02*
X122080000Y-82920000D01*
%TO.C,R3*%
X128920000Y-78120000D02*
X128920000Y-81960000D01*
X127080000Y-78120000D02*
X127080000Y-81960000D01*
%TO.C,R2*%
X133920000Y-79580000D02*
X133920000Y-83420000D01*
X132080000Y-79580000D02*
X132080000Y-83420000D01*
%TO.C,R1*%
X137080000Y-83080000D02*
X137080000Y-86920000D01*
X138920000Y-83080000D02*
X138920000Y-86920000D01*
%TO.C,D24*%
X149435000Y-78764000D02*
X149435000Y-78920000D01*
X149435000Y-81080000D02*
X149435000Y-81236000D01*
X149435000Y-78764484D02*
G75*
G02*
X152667335Y-78921392I1560000J-1235516D01*
G01*
X149954039Y-78920000D02*
G75*
G02*
X152036130Y-78920163I1040961J-1080000D01*
G01*
X152036130Y-81079837D02*
G75*
G02*
X149954039Y-81080000I-1041130J1079837D01*
G01*
X152667335Y-81078608D02*
G75*
G02*
X149435000Y-81235516I-1672335J1078608D01*
G01*
%TO.C,D23*%
X143670000Y-84764000D02*
X143670000Y-84920000D01*
X143670000Y-87080000D02*
X143670000Y-87236000D01*
X143670000Y-84764484D02*
G75*
G02*
X146902335Y-84921392I1560000J-1235516D01*
G01*
X144189039Y-84920000D02*
G75*
G02*
X146271130Y-84920163I1040961J-1080000D01*
G01*
X146271130Y-87079837D02*
G75*
G02*
X144189039Y-87080000I-1041130J1079837D01*
G01*
X146902335Y-87078608D02*
G75*
G02*
X143670000Y-87235516I-1672335J1078608D01*
G01*
%TO.C,D22*%
X155170000Y-72764000D02*
X155170000Y-72920000D01*
X155170000Y-75080000D02*
X155170000Y-75236000D01*
X155170000Y-72764484D02*
G75*
G02*
X158402335Y-72921392I1560000J-1235516D01*
G01*
X155689039Y-72920000D02*
G75*
G02*
X157771130Y-72920163I1040961J-1080000D01*
G01*
X157771130Y-75079837D02*
G75*
G02*
X155689039Y-75080000I-1041130J1079837D01*
G01*
X158402335Y-75078608D02*
G75*
G02*
X155170000Y-75235516I-1672335J1078608D01*
G01*
%TO.C,D21*%
X162435000Y-70264000D02*
X162435000Y-70420000D01*
X162435000Y-72580000D02*
X162435000Y-72736000D01*
X162435000Y-70264484D02*
G75*
G02*
X165667335Y-70421392I1560000J-1235516D01*
G01*
X162954039Y-70420000D02*
G75*
G02*
X165036130Y-70420163I1040961J-1080000D01*
G01*
X165036130Y-72579837D02*
G75*
G02*
X162954039Y-72580000I-1041130J1079837D01*
G01*
X165667335Y-72578608D02*
G75*
G02*
X162435000Y-72735516I-1672335J1078608D01*
G01*
%TO.C,D20*%
X168435000Y-73764000D02*
X168435000Y-73920000D01*
X168435000Y-76080000D02*
X168435000Y-76236000D01*
X168435000Y-73764484D02*
G75*
G02*
X171667335Y-73921392I1560000J-1235516D01*
G01*
X168954039Y-73920000D02*
G75*
G02*
X171036130Y-73920163I1040961J-1080000D01*
G01*
X171036130Y-76079837D02*
G75*
G02*
X168954039Y-76080000I-1041130J1079837D01*
G01*
X171667335Y-76078608D02*
G75*
G02*
X168435000Y-76235516I-1672335J1078608D01*
G01*
%TO.C,D19*%
X173935000Y-78764000D02*
X173935000Y-78920000D01*
X173935000Y-81080000D02*
X173935000Y-81236000D01*
X173935000Y-78764484D02*
G75*
G02*
X177167335Y-78921392I1560000J-1235516D01*
G01*
X174454039Y-78920000D02*
G75*
G02*
X176536130Y-78920163I1040961J-1080000D01*
G01*
X176536130Y-81079837D02*
G75*
G02*
X174454039Y-81080000I-1041130J1079837D01*
G01*
X177167335Y-81078608D02*
G75*
G02*
X173935000Y-81235516I-1672335J1078608D01*
G01*
%TO.C,D18*%
X175935000Y-85264000D02*
X175935000Y-85420000D01*
X175935000Y-87580000D02*
X175935000Y-87736000D01*
X175935000Y-85264484D02*
G75*
G02*
X179167335Y-85421392I1560000J-1235516D01*
G01*
X176454039Y-85420000D02*
G75*
G02*
X178536130Y-85420163I1040961J-1080000D01*
G01*
X178536130Y-87579837D02*
G75*
G02*
X176454039Y-87580000I-1041130J1079837D01*
G01*
X179167335Y-87578608D02*
G75*
G02*
X175935000Y-87735516I-1672335J1078608D01*
G01*
%TO.C,D17*%
X173435000Y-92264000D02*
X173435000Y-92420000D01*
X173435000Y-94580000D02*
X173435000Y-94736000D01*
X173435000Y-92264484D02*
G75*
G02*
X176667335Y-92421392I1560000J-1235516D01*
G01*
X173954039Y-92420000D02*
G75*
G02*
X176036130Y-92420163I1040961J-1080000D01*
G01*
X176036130Y-94579837D02*
G75*
G02*
X173954039Y-94580000I-1041130J1079837D01*
G01*
X176667335Y-94578608D02*
G75*
G02*
X173435000Y-94735516I-1672335J1078608D01*
G01*
%TO.C,D16*%
X168935000Y-98764000D02*
X168935000Y-98920000D01*
X168935000Y-101080000D02*
X168935000Y-101236000D01*
X168935000Y-98764484D02*
G75*
G02*
X172167335Y-98921392I1560000J-1235516D01*
G01*
X169454039Y-98920000D02*
G75*
G02*
X171536130Y-98920163I1040961J-1080000D01*
G01*
X171536130Y-101079837D02*
G75*
G02*
X169454039Y-101080000I-1041130J1079837D01*
G01*
X172167335Y-101078608D02*
G75*
G02*
X168935000Y-101235516I-1672335J1078608D01*
G01*
%TO.C,D15*%
X162435000Y-104764000D02*
X162435000Y-104920000D01*
X162435000Y-107080000D02*
X162435000Y-107236000D01*
X162435000Y-104764484D02*
G75*
G02*
X165667335Y-104921392I1560000J-1235516D01*
G01*
X162954039Y-104920000D02*
G75*
G02*
X165036130Y-104920163I1040961J-1080000D01*
G01*
X165036130Y-107079837D02*
G75*
G02*
X162954039Y-107080000I-1041130J1079837D01*
G01*
X165667335Y-107078608D02*
G75*
G02*
X162435000Y-107235516I-1672335J1078608D01*
G01*
%TO.C,D14*%
X156435000Y-110264000D02*
X156435000Y-110420000D01*
X156435000Y-112580000D02*
X156435000Y-112736000D01*
X156435000Y-110264484D02*
G75*
G02*
X159667335Y-110421392I1560000J-1235516D01*
G01*
X156954039Y-110420000D02*
G75*
G02*
X159036130Y-110420163I1040961J-1080000D01*
G01*
X159036130Y-112579837D02*
G75*
G02*
X156954039Y-112580000I-1041130J1079837D01*
G01*
X159667335Y-112578608D02*
G75*
G02*
X156435000Y-112735516I-1672335J1078608D01*
G01*
%TO.C,D13*%
X150935000Y-116264000D02*
X150935000Y-116420000D01*
X150935000Y-118580000D02*
X150935000Y-118736000D01*
X150935000Y-116264484D02*
G75*
G02*
X154167335Y-116421392I1560000J-1235516D01*
G01*
X151454039Y-116420000D02*
G75*
G02*
X153536130Y-116420163I1040961J-1080000D01*
G01*
X153536130Y-118579837D02*
G75*
G02*
X151454039Y-118580000I-1041130J1079837D01*
G01*
X154167335Y-118578608D02*
G75*
G02*
X150935000Y-118735516I-1672335J1078608D01*
G01*
%TO.C,D12*%
X143935000Y-96764000D02*
X143935000Y-96920000D01*
X143935000Y-99080000D02*
X143935000Y-99236000D01*
X143935000Y-96764484D02*
G75*
G02*
X147167335Y-96921392I1560000J-1235516D01*
G01*
X144454039Y-96920000D02*
G75*
G02*
X146536130Y-96920163I1040961J-1080000D01*
G01*
X146536130Y-99079837D02*
G75*
G02*
X144454039Y-99080000I-1041130J1079837D01*
G01*
X147167335Y-99078608D02*
G75*
G02*
X143935000Y-99235516I-1672335J1078608D01*
G01*
%TO.C,D11*%
X143935000Y-122264000D02*
X143935000Y-122420000D01*
X143935000Y-124580000D02*
X143935000Y-124736000D01*
X143935000Y-122264484D02*
G75*
G02*
X147167335Y-122421392I1560000J-1235516D01*
G01*
X144454039Y-122420000D02*
G75*
G02*
X146536130Y-122420163I1040961J-1080000D01*
G01*
X146536130Y-124579837D02*
G75*
G02*
X144454039Y-124580000I-1041130J1079837D01*
G01*
X147167335Y-124578608D02*
G75*
G02*
X143935000Y-124735516I-1672335J1078608D01*
G01*
%TO.C,D10*%
X140065000Y-118236000D02*
X140065000Y-118080000D01*
X140065000Y-115920000D02*
X140065000Y-115764000D01*
X140065000Y-118235516D02*
G75*
G02*
X136832665Y-118078608I-1560000J1235516D01*
G01*
X139545961Y-118080000D02*
G75*
G02*
X137463870Y-118079837I-1040961J1080000D01*
G01*
X137463870Y-115920163D02*
G75*
G02*
X139545961Y-115920000I1041130J-1079837D01*
G01*
X136832665Y-115921392D02*
G75*
G02*
X140065000Y-115764484I1672335J-1078608D01*
G01*
%TO.C,D9*%
X132565000Y-110736000D02*
X132565000Y-110580000D01*
X132565000Y-108420000D02*
X132565000Y-108264000D01*
X132565000Y-110735516D02*
G75*
G02*
X129332665Y-110578608I-1560000J1235516D01*
G01*
X132045961Y-110580000D02*
G75*
G02*
X129963870Y-110579837I-1040961J1080000D01*
G01*
X129963870Y-108420163D02*
G75*
G02*
X132045961Y-108420000I1041130J-1079837D01*
G01*
X129332665Y-108421392D02*
G75*
G02*
X132565000Y-108264484I1672335J-1078608D01*
G01*
%TO.C,D8*%
X126565000Y-104736000D02*
X126565000Y-104580000D01*
X126565000Y-102420000D02*
X126565000Y-102264000D01*
X126565000Y-104735516D02*
G75*
G02*
X123332665Y-104578608I-1560000J1235516D01*
G01*
X126045961Y-104580000D02*
G75*
G02*
X123963870Y-104579837I-1040961J1080000D01*
G01*
X123963870Y-102420163D02*
G75*
G02*
X126045961Y-102420000I1041130J-1079837D01*
G01*
X123332665Y-102421392D02*
G75*
G02*
X126565000Y-102264484I1672335J-1078608D01*
G01*
%TO.C,D7*%
X121065000Y-99736000D02*
X121065000Y-99580000D01*
X121065000Y-97420000D02*
X121065000Y-97264000D01*
X121065000Y-99735516D02*
G75*
G02*
X117832665Y-99578608I-1560000J1235516D01*
G01*
X120545961Y-99580000D02*
G75*
G02*
X118463870Y-99579837I-1040961J1080000D01*
G01*
X118463870Y-97420163D02*
G75*
G02*
X120545961Y-97420000I1041130J-1079837D01*
G01*
X117832665Y-97421392D02*
G75*
G02*
X121065000Y-97264484I1672335J-1078608D01*
G01*
%TO.C,D6*%
X117565000Y-93736000D02*
X117565000Y-93580000D01*
X117565000Y-91420000D02*
X117565000Y-91264000D01*
X117565000Y-93735516D02*
G75*
G02*
X114332665Y-93578608I-1560000J1235516D01*
G01*
X117045961Y-93580000D02*
G75*
G02*
X114963870Y-93579837I-1040961J1080000D01*
G01*
X114963870Y-91420163D02*
G75*
G02*
X117045961Y-91420000I1041130J-1079837D01*
G01*
X114332665Y-91421392D02*
G75*
G02*
X117565000Y-91264484I1672335J-1078608D01*
G01*
%TO.C,D5*%
X115565000Y-87236000D02*
X115565000Y-87080000D01*
X115565000Y-84920000D02*
X115565000Y-84764000D01*
X115565000Y-87235516D02*
G75*
G02*
X112332665Y-87078608I-1560000J1235516D01*
G01*
X115045961Y-87080000D02*
G75*
G02*
X112963870Y-87079837I-1040961J1080000D01*
G01*
X112963870Y-84920163D02*
G75*
G02*
X115045961Y-84920000I1041130J-1079837D01*
G01*
X112332665Y-84921392D02*
G75*
G02*
X115565000Y-84764484I1672335J-1078608D01*
G01*
%TO.C,D4*%
X118565000Y-80236000D02*
X118565000Y-80080000D01*
X118565000Y-77920000D02*
X118565000Y-77764000D01*
X118565000Y-80235516D02*
G75*
G02*
X115332665Y-80078608I-1560000J1235516D01*
G01*
X118045961Y-80080000D02*
G75*
G02*
X115963870Y-80079837I-1040961J1080000D01*
G01*
X115963870Y-77920163D02*
G75*
G02*
X118045961Y-77920000I1041130J-1079837D01*
G01*
X115332665Y-77921392D02*
G75*
G02*
X118565000Y-77764484I1672335J-1078608D01*
G01*
%TO.C,D3*%
X125565000Y-74236000D02*
X125565000Y-74080000D01*
X125565000Y-71920000D02*
X125565000Y-71764000D01*
X125565000Y-74235516D02*
G75*
G02*
X122332665Y-74078608I-1560000J1235516D01*
G01*
X125045961Y-74080000D02*
G75*
G02*
X122963870Y-74079837I-1040961J1080000D01*
G01*
X122963870Y-71920163D02*
G75*
G02*
X125045961Y-71920000I1041130J-1079837D01*
G01*
X122332665Y-71921392D02*
G75*
G02*
X125565000Y-71764484I1672335J-1078608D01*
G01*
%TO.C,D2*%
X130435000Y-71264000D02*
X130435000Y-71420000D01*
X130435000Y-73580000D02*
X130435000Y-73736000D01*
X130435000Y-71264484D02*
G75*
G02*
X133667335Y-71421392I1560000J-1235516D01*
G01*
X130954039Y-71420000D02*
G75*
G02*
X133036130Y-71420163I1040961J-1080000D01*
G01*
X133036130Y-73579837D02*
G75*
G02*
X130954039Y-73580000I-1041130J1079837D01*
G01*
X133667335Y-73578608D02*
G75*
G02*
X130435000Y-73735516I-1672335J1078608D01*
G01*
%TO.C,D1*%
X137170000Y-76264000D02*
X137170000Y-76420000D01*
X137170000Y-78580000D02*
X137170000Y-78736000D01*
X137170000Y-76264484D02*
G75*
G02*
X140402335Y-76421392I1560000J-1235516D01*
G01*
X137689039Y-76420000D02*
G75*
G02*
X139771130Y-76420163I1040961J-1080000D01*
G01*
X139771130Y-78579837D02*
G75*
G02*
X137689039Y-78580000I-1041130J1079837D01*
G01*
X140402335Y-78578608D02*
G75*
G02*
X137170000Y-78735516I-1672335J1078608D01*
G01*
%TD*%
M02*
