%TF.GenerationSoftware,KiCad,Pcbnew,8.0.5*%
%TF.CreationDate,2025-01-04T18:37:31+03:00*%
%TF.ProjectId,Love_LEDs,4c6f7665-5f4c-4454-9473-2e6b69636164,rev?*%
%TF.SameCoordinates,Original*%
%TF.FileFunction,Legend,Bot*%
%TF.FilePolarity,Positive*%
%FSLAX46Y46*%
G04 Gerber Fmt 4.6, Leading zero omitted, Abs format (unit mm)*
G04 Created by KiCad (PCBNEW 8.0.5) date 2025-01-04 18:37:31*
%MOMM*%
%LPD*%
G01*
G04 APERTURE LIST*
%ADD10C,0.150000*%
%ADD11C,0.120000*%
G04 APERTURE END LIST*
D10*
X151477319Y-96166666D02*
X152191604Y-96166666D01*
X152191604Y-96166666D02*
X152334461Y-96119047D01*
X152334461Y-96119047D02*
X152429700Y-96023809D01*
X152429700Y-96023809D02*
X152477319Y-95880952D01*
X152477319Y-95880952D02*
X152477319Y-95785714D01*
X152477319Y-97166666D02*
X152477319Y-96595238D01*
X152477319Y-96880952D02*
X151477319Y-96880952D01*
X151477319Y-96880952D02*
X151620176Y-96785714D01*
X151620176Y-96785714D02*
X151715414Y-96690476D01*
X151715414Y-96690476D02*
X151763033Y-96595238D01*
D11*
%TO.C,J1*%
X165332500Y-88770000D02*
X153112500Y-88770000D01*
X162032500Y-104230000D02*
X162032500Y-88770000D01*
X162032500Y-88770000D02*
X163832500Y-88770000D01*
X165332500Y-104230000D02*
X165332500Y-88770000D01*
X165332500Y-93690000D02*
X165332500Y-91690000D01*
X165332500Y-91690000D02*
X163832500Y-91940000D01*
X152312500Y-92990000D02*
X152312500Y-92390000D01*
X152312500Y-92390000D02*
X152912500Y-92690000D01*
X152912500Y-92690000D02*
X152312500Y-92990000D01*
X163832500Y-91940000D02*
X163832500Y-93440000D01*
X163832500Y-93440000D02*
X165332500Y-93690000D01*
X165332500Y-101310000D02*
X165332500Y-99310000D01*
X165332500Y-99310000D02*
X163832500Y-99560000D01*
X163832500Y-99560000D02*
X163832500Y-101060000D01*
X163832500Y-101060000D02*
X165332500Y-101310000D01*
X153112500Y-88770000D02*
X153112500Y-104230000D01*
X163832500Y-104230000D02*
X162032500Y-104230000D01*
X163832500Y-88770000D02*
X163832500Y-104230000D01*
X153112500Y-104230000D02*
X165332500Y-104230000D01*
%TD*%
M02*
