%TF.GenerationSoftware,KiCad,Pcbnew,8.0.5*%
%TF.CreationDate,2025-01-04T18:37:31+03:00*%
%TF.ProjectId,Love_LEDs,4c6f7665-5f4c-4454-9473-2e6b69636164,rev?*%
%TF.SameCoordinates,Original*%
%TF.FileFunction,Soldermask,Top*%
%TF.FilePolarity,Negative*%
%FSLAX46Y46*%
G04 Gerber Fmt 4.6, Leading zero omitted, Abs format (unit mm)*
G04 Created by KiCad (PCBNEW 8.0.5) date 2025-01-04 18:37:31*
%MOMM*%
%LPD*%
G01*
G04 APERTURE LIST*
G04 Aperture macros list*
%AMRoundRect*
0 Rectangle with rounded corners*
0 $1 Rounding radius*
0 $2 $3 $4 $5 $6 $7 $8 $9 X,Y pos of 4 corners*
0 Add a 4 corners polygon primitive as box body*
4,1,4,$2,$3,$4,$5,$6,$7,$8,$9,$2,$3,0*
0 Add four circle primitives for the rounded corners*
1,1,$1+$1,$2,$3*
1,1,$1+$1,$4,$5*
1,1,$1+$1,$6,$7*
1,1,$1+$1,$8,$9*
0 Add four rect primitives between the rounded corners*
20,1,$1+$1,$2,$3,$4,$5,0*
20,1,$1+$1,$4,$5,$6,$7,0*
20,1,$1+$1,$6,$7,$8,$9,0*
20,1,$1+$1,$8,$9,$2,$3,0*%
G04 Aperture macros list end*
%ADD10C,1.400000*%
%ADD11O,1.400000X1.400000*%
%ADD12R,1.800000X1.800000*%
%ADD13C,1.800000*%
%ADD14RoundRect,0.250001X-1.549999X0.799999X-1.549999X-0.799999X1.549999X-0.799999X1.549999X0.799999X0*%
%ADD15O,3.600000X2.100000*%
G04 APERTURE END LIST*
D10*
%TO.C,R24*%
X151000000Y-84960000D03*
D11*
X151000000Y-90040000D03*
%TD*%
D10*
%TO.C,R23*%
X142960000Y-91000000D03*
D11*
X148040000Y-91000000D03*
%TD*%
D10*
%TO.C,R22*%
X156500000Y-79460000D03*
D11*
X156500000Y-84540000D03*
%TD*%
D10*
%TO.C,R21*%
X162000000Y-76460000D03*
D11*
X162000000Y-81540000D03*
%TD*%
D10*
%TO.C,R20*%
X166000000Y-78460000D03*
D11*
X166000000Y-83540000D03*
%TD*%
D10*
%TO.C,R19*%
X171000000Y-86540000D03*
D11*
X171000000Y-81460000D03*
%TD*%
D10*
%TO.C,R18*%
X148000000Y-93500000D03*
D11*
X142920000Y-93500000D03*
%TD*%
D10*
%TO.C,R17*%
X166460000Y-90000000D03*
D11*
X171540000Y-90000000D03*
%TD*%
D10*
%TO.C,R16*%
X163960000Y-95000000D03*
D11*
X169040000Y-95000000D03*
%TD*%
D10*
%TO.C,R15*%
X160460000Y-101000000D03*
D11*
X165540000Y-101000000D03*
%TD*%
D10*
%TO.C,R14*%
X154460000Y-106500000D03*
D11*
X159540000Y-106500000D03*
%TD*%
D10*
%TO.C,R13*%
X148460000Y-111500000D03*
D11*
X153540000Y-111500000D03*
%TD*%
D10*
%TO.C,R12*%
X142960000Y-102500000D03*
D11*
X148040000Y-102500000D03*
%TD*%
D10*
%TO.C,R11*%
X145000000Y-118540000D03*
D11*
X145000000Y-113460000D03*
%TD*%
D10*
%TO.C,R10*%
X142960000Y-105000000D03*
D11*
X148040000Y-105000000D03*
%TD*%
D10*
%TO.C,R9*%
X135460000Y-111000000D03*
D11*
X140540000Y-111000000D03*
%TD*%
D10*
%TO.C,R8*%
X129460000Y-105500000D03*
D11*
X134540000Y-105500000D03*
%TD*%
D10*
%TO.C,R7*%
X123460000Y-99000000D03*
D11*
X128540000Y-99000000D03*
%TD*%
D10*
%TO.C,R6*%
X120460000Y-93000000D03*
D11*
X125540000Y-93000000D03*
%TD*%
D10*
%TO.C,R5*%
X118920000Y-87000000D03*
D11*
X124000000Y-87000000D03*
%TD*%
D10*
%TO.C,R4*%
X123000000Y-78460000D03*
D11*
X123000000Y-83540000D03*
%TD*%
D10*
%TO.C,R3*%
X128000000Y-77500000D03*
D11*
X128000000Y-82580000D03*
%TD*%
D10*
%TO.C,R2*%
X133000000Y-78960000D03*
D11*
X133000000Y-84040000D03*
%TD*%
%TO.C,R1*%
X138000000Y-87540000D03*
D10*
X138000000Y-82460000D03*
%TD*%
D12*
%TO.C,D24*%
X149725000Y-80000000D03*
D13*
X152265000Y-80000000D03*
%TD*%
D12*
%TO.C,D23*%
X143960000Y-86000000D03*
D13*
X146500000Y-86000000D03*
%TD*%
D12*
%TO.C,D22*%
X155460000Y-74000000D03*
D13*
X158000000Y-74000000D03*
%TD*%
D12*
%TO.C,D21*%
X162725000Y-71500000D03*
D13*
X165265000Y-71500000D03*
%TD*%
D12*
%TO.C,D20*%
X168725000Y-75000000D03*
D13*
X171265000Y-75000000D03*
%TD*%
D12*
%TO.C,D19*%
X174225000Y-80000000D03*
D13*
X176765000Y-80000000D03*
%TD*%
D12*
%TO.C,D18*%
X176225000Y-86500000D03*
D13*
X178765000Y-86500000D03*
%TD*%
D12*
%TO.C,D17*%
X173725000Y-93500000D03*
D13*
X176265000Y-93500000D03*
%TD*%
D12*
%TO.C,D16*%
X169225000Y-100000000D03*
D13*
X171765000Y-100000000D03*
%TD*%
D12*
%TO.C,D15*%
X162725000Y-106000000D03*
D13*
X165265000Y-106000000D03*
%TD*%
D12*
%TO.C,D14*%
X156725000Y-111500000D03*
D13*
X159265000Y-111500000D03*
%TD*%
D12*
%TO.C,D13*%
X151225000Y-117500000D03*
D13*
X153765000Y-117500000D03*
%TD*%
D12*
%TO.C,D12*%
X144225000Y-98000000D03*
D13*
X146765000Y-98000000D03*
%TD*%
D12*
%TO.C,D11*%
X144225000Y-123500000D03*
D13*
X146765000Y-123500000D03*
%TD*%
D12*
%TO.C,D10*%
X139775000Y-117000000D03*
D13*
X137235000Y-117000000D03*
%TD*%
D12*
%TO.C,D9*%
X132275000Y-109500000D03*
D13*
X129735000Y-109500000D03*
%TD*%
D12*
%TO.C,D8*%
X126275000Y-103500000D03*
D13*
X123735000Y-103500000D03*
%TD*%
D12*
%TO.C,D7*%
X120775000Y-98500000D03*
D13*
X118235000Y-98500000D03*
%TD*%
D12*
%TO.C,D6*%
X117275000Y-92500000D03*
D13*
X114735000Y-92500000D03*
%TD*%
D12*
%TO.C,D5*%
X115275000Y-86000000D03*
D13*
X112735000Y-86000000D03*
%TD*%
D12*
%TO.C,D4*%
X118275000Y-79000000D03*
D13*
X115735000Y-79000000D03*
%TD*%
D12*
%TO.C,D3*%
X125275000Y-73000000D03*
D13*
X122735000Y-73000000D03*
%TD*%
D12*
%TO.C,D2*%
X130725000Y-72500000D03*
D13*
X133265000Y-72500000D03*
%TD*%
D12*
%TO.C,D1*%
X137460000Y-77500000D03*
D13*
X140000000Y-77500000D03*
%TD*%
D14*
%TO.C,J1*%
X155222500Y-92690000D03*
D15*
X155222500Y-100310000D03*
%TD*%
M02*
