%TF.GenerationSoftware,KiCad,Pcbnew,8.0.5*%
%TF.CreationDate,2025-01-04T18:37:31+03:00*%
%TF.ProjectId,Love_LEDs,4c6f7665-5f4c-4454-9473-2e6b69636164,rev?*%
%TF.SameCoordinates,Original*%
%TF.FileFunction,Copper,L2,Bot*%
%TF.FilePolarity,Positive*%
%FSLAX46Y46*%
G04 Gerber Fmt 4.6, Leading zero omitted, Abs format (unit mm)*
G04 Created by KiCad (PCBNEW 8.0.5) date 2025-01-04 18:37:31*
%MOMM*%
%LPD*%
G01*
G04 APERTURE LIST*
G04 Aperture macros list*
%AMRoundRect*
0 Rectangle with rounded corners*
0 $1 Rounding radius*
0 $2 $3 $4 $5 $6 $7 $8 $9 X,Y pos of 4 corners*
0 Add a 4 corners polygon primitive as box body*
4,1,4,$2,$3,$4,$5,$6,$7,$8,$9,$2,$3,0*
0 Add four circle primitives for the rounded corners*
1,1,$1+$1,$2,$3*
1,1,$1+$1,$4,$5*
1,1,$1+$1,$6,$7*
1,1,$1+$1,$8,$9*
0 Add four rect primitives between the rounded corners*
20,1,$1+$1,$2,$3,$4,$5,0*
20,1,$1+$1,$4,$5,$6,$7,0*
20,1,$1+$1,$6,$7,$8,$9,0*
20,1,$1+$1,$8,$9,$2,$3,0*%
G04 Aperture macros list end*
%TA.AperFunction,ComponentPad*%
%ADD10C,1.400000*%
%TD*%
%TA.AperFunction,ComponentPad*%
%ADD11O,1.400000X1.400000*%
%TD*%
%TA.AperFunction,ComponentPad*%
%ADD12R,1.800000X1.800000*%
%TD*%
%TA.AperFunction,ComponentPad*%
%ADD13C,1.800000*%
%TD*%
%TA.AperFunction,ComponentPad*%
%ADD14RoundRect,0.250001X-1.549999X0.799999X-1.549999X-0.799999X1.549999X-0.799999X1.549999X0.799999X0*%
%TD*%
%TA.AperFunction,ComponentPad*%
%ADD15O,3.600000X2.100000*%
%TD*%
%TA.AperFunction,Conductor*%
%ADD16C,0.300000*%
%TD*%
G04 APERTURE END LIST*
D10*
%TO.P,R24,1*%
%TO.N,Net-(D24-K)*%
X151000000Y-84960000D03*
D11*
%TO.P,R24,2*%
%TO.N,GND*%
X151000000Y-90040000D03*
%TD*%
D10*
%TO.P,R23,1*%
%TO.N,Net-(D23-K)*%
X142960000Y-91000000D03*
D11*
%TO.P,R23,2*%
%TO.N,GND*%
X148040000Y-91000000D03*
%TD*%
D10*
%TO.P,R22,1*%
%TO.N,Net-(D22-K)*%
X156500000Y-79460000D03*
D11*
%TO.P,R22,2*%
%TO.N,GND*%
X156500000Y-84540000D03*
%TD*%
D10*
%TO.P,R21,1*%
%TO.N,Net-(D21-K)*%
X162000000Y-76460000D03*
D11*
%TO.P,R21,2*%
%TO.N,GND*%
X162000000Y-81540000D03*
%TD*%
D10*
%TO.P,R20,1*%
%TO.N,Net-(D20-K)*%
X166000000Y-78460000D03*
D11*
%TO.P,R20,2*%
%TO.N,GND*%
X166000000Y-83540000D03*
%TD*%
D10*
%TO.P,R19,1*%
%TO.N,Net-(D19-K)*%
X171000000Y-86540000D03*
D11*
%TO.P,R19,2*%
%TO.N,GND*%
X171000000Y-81460000D03*
%TD*%
D10*
%TO.P,R18,1*%
%TO.N,Net-(D18-K)*%
X148000000Y-93500000D03*
D11*
%TO.P,R18,2*%
%TO.N,GND*%
X142920000Y-93500000D03*
%TD*%
D10*
%TO.P,R17,1*%
%TO.N,Net-(D17-K)*%
X166460000Y-90000000D03*
D11*
%TO.P,R17,2*%
%TO.N,GND*%
X171540000Y-90000000D03*
%TD*%
D10*
%TO.P,R16,1*%
%TO.N,Net-(D16-K)*%
X163960000Y-95000000D03*
D11*
%TO.P,R16,2*%
%TO.N,GND*%
X169040000Y-95000000D03*
%TD*%
D10*
%TO.P,R15,1*%
%TO.N,Net-(D15-K)*%
X160460000Y-101000000D03*
D11*
%TO.P,R15,2*%
%TO.N,GND*%
X165540000Y-101000000D03*
%TD*%
D10*
%TO.P,R14,1*%
%TO.N,Net-(D14-K)*%
X154460000Y-106500000D03*
D11*
%TO.P,R14,2*%
%TO.N,GND*%
X159540000Y-106500000D03*
%TD*%
D10*
%TO.P,R13,1*%
%TO.N,Net-(D13-K)*%
X148460000Y-111500000D03*
D11*
%TO.P,R13,2*%
%TO.N,GND*%
X153540000Y-111500000D03*
%TD*%
D10*
%TO.P,R12,1*%
%TO.N,Net-(D12-K)*%
X142960000Y-102500000D03*
D11*
%TO.P,R12,2*%
%TO.N,GND*%
X148040000Y-102500000D03*
%TD*%
D10*
%TO.P,R11,1*%
%TO.N,Net-(D11-K)*%
X145000000Y-118540000D03*
D11*
%TO.P,R11,2*%
%TO.N,GND*%
X145000000Y-113460000D03*
%TD*%
D10*
%TO.P,R10,1*%
%TO.N,Net-(D10-K)*%
X142960000Y-105000000D03*
D11*
%TO.P,R10,2*%
%TO.N,GND*%
X148040000Y-105000000D03*
%TD*%
D10*
%TO.P,R9,1*%
%TO.N,Net-(D9-K)*%
X135460000Y-111000000D03*
D11*
%TO.P,R9,2*%
%TO.N,GND*%
X140540000Y-111000000D03*
%TD*%
D10*
%TO.P,R8,1*%
%TO.N,Net-(D8-K)*%
X129460000Y-105500000D03*
D11*
%TO.P,R8,2*%
%TO.N,GND*%
X134540000Y-105500000D03*
%TD*%
D10*
%TO.P,R7,1*%
%TO.N,Net-(D7-K)*%
X123460000Y-99000000D03*
D11*
%TO.P,R7,2*%
%TO.N,GND*%
X128540000Y-99000000D03*
%TD*%
D10*
%TO.P,R6,1*%
%TO.N,Net-(D6-K)*%
X120460000Y-93000000D03*
D11*
%TO.P,R6,2*%
%TO.N,GND*%
X125540000Y-93000000D03*
%TD*%
D10*
%TO.P,R5,1*%
%TO.N,Net-(D5-K)*%
X118920000Y-87000000D03*
D11*
%TO.P,R5,2*%
%TO.N,GND*%
X124000000Y-87000000D03*
%TD*%
D10*
%TO.P,R4,1*%
%TO.N,Net-(D4-K)*%
X123000000Y-78460000D03*
D11*
%TO.P,R4,2*%
%TO.N,GND*%
X123000000Y-83540000D03*
%TD*%
D10*
%TO.P,R3,1*%
%TO.N,Net-(D3-K)*%
X128000000Y-77500000D03*
D11*
%TO.P,R3,2*%
%TO.N,GND*%
X128000000Y-82580000D03*
%TD*%
D10*
%TO.P,R2,1*%
%TO.N,Net-(D2-K)*%
X133000000Y-78960000D03*
D11*
%TO.P,R2,2*%
%TO.N,GND*%
X133000000Y-84040000D03*
%TD*%
%TO.P,R1,2*%
%TO.N,GND*%
X138000000Y-87540000D03*
D10*
%TO.P,R1,1*%
%TO.N,Net-(D1-K)*%
X138000000Y-82460000D03*
%TD*%
D12*
%TO.P,D24,1,K*%
%TO.N,Net-(D24-K)*%
X149725000Y-80000000D03*
D13*
%TO.P,D24,2,A*%
%TO.N,VCC*%
X152265000Y-80000000D03*
%TD*%
D12*
%TO.P,D23,1,K*%
%TO.N,Net-(D23-K)*%
X143960000Y-86000000D03*
D13*
%TO.P,D23,2,A*%
%TO.N,VCC*%
X146500000Y-86000000D03*
%TD*%
D12*
%TO.P,D22,1,K*%
%TO.N,Net-(D22-K)*%
X155460000Y-74000000D03*
D13*
%TO.P,D22,2,A*%
%TO.N,VCC*%
X158000000Y-74000000D03*
%TD*%
D12*
%TO.P,D21,1,K*%
%TO.N,Net-(D21-K)*%
X162725000Y-71500000D03*
D13*
%TO.P,D21,2,A*%
%TO.N,VCC*%
X165265000Y-71500000D03*
%TD*%
D12*
%TO.P,D20,1,K*%
%TO.N,Net-(D20-K)*%
X168725000Y-75000000D03*
D13*
%TO.P,D20,2,A*%
%TO.N,VCC*%
X171265000Y-75000000D03*
%TD*%
D12*
%TO.P,D19,1,K*%
%TO.N,Net-(D19-K)*%
X174225000Y-80000000D03*
D13*
%TO.P,D19,2,A*%
%TO.N,VCC*%
X176765000Y-80000000D03*
%TD*%
D12*
%TO.P,D18,1,K*%
%TO.N,Net-(D18-K)*%
X176225000Y-86500000D03*
D13*
%TO.P,D18,2,A*%
%TO.N,VCC*%
X178765000Y-86500000D03*
%TD*%
D12*
%TO.P,D17,1,K*%
%TO.N,Net-(D17-K)*%
X173725000Y-93500000D03*
D13*
%TO.P,D17,2,A*%
%TO.N,VCC*%
X176265000Y-93500000D03*
%TD*%
D12*
%TO.P,D16,1,K*%
%TO.N,Net-(D16-K)*%
X169225000Y-100000000D03*
D13*
%TO.P,D16,2,A*%
%TO.N,VCC*%
X171765000Y-100000000D03*
%TD*%
D12*
%TO.P,D15,1,K*%
%TO.N,Net-(D15-K)*%
X162725000Y-106000000D03*
D13*
%TO.P,D15,2,A*%
%TO.N,VCC*%
X165265000Y-106000000D03*
%TD*%
D12*
%TO.P,D14,1,K*%
%TO.N,Net-(D14-K)*%
X156725000Y-111500000D03*
D13*
%TO.P,D14,2,A*%
%TO.N,VCC*%
X159265000Y-111500000D03*
%TD*%
D12*
%TO.P,D13,1,K*%
%TO.N,Net-(D13-K)*%
X151225000Y-117500000D03*
D13*
%TO.P,D13,2,A*%
%TO.N,VCC*%
X153765000Y-117500000D03*
%TD*%
D12*
%TO.P,D12,1,K*%
%TO.N,Net-(D12-K)*%
X144225000Y-98000000D03*
D13*
%TO.P,D12,2,A*%
%TO.N,VCC*%
X146765000Y-98000000D03*
%TD*%
D12*
%TO.P,D11,1,K*%
%TO.N,Net-(D11-K)*%
X144225000Y-123500000D03*
D13*
%TO.P,D11,2,A*%
%TO.N,VCC*%
X146765000Y-123500000D03*
%TD*%
D12*
%TO.P,D10,1,K*%
%TO.N,Net-(D10-K)*%
X139775000Y-117000000D03*
D13*
%TO.P,D10,2,A*%
%TO.N,VCC*%
X137235000Y-117000000D03*
%TD*%
D12*
%TO.P,D9,1,K*%
%TO.N,Net-(D9-K)*%
X132275000Y-109500000D03*
D13*
%TO.P,D9,2,A*%
%TO.N,VCC*%
X129735000Y-109500000D03*
%TD*%
D12*
%TO.P,D8,1,K*%
%TO.N,Net-(D8-K)*%
X126275000Y-103500000D03*
D13*
%TO.P,D8,2,A*%
%TO.N,VCC*%
X123735000Y-103500000D03*
%TD*%
D12*
%TO.P,D7,1,K*%
%TO.N,Net-(D7-K)*%
X120775000Y-98500000D03*
D13*
%TO.P,D7,2,A*%
%TO.N,VCC*%
X118235000Y-98500000D03*
%TD*%
D12*
%TO.P,D6,1,K*%
%TO.N,Net-(D6-K)*%
X117275000Y-92500000D03*
D13*
%TO.P,D6,2,A*%
%TO.N,VCC*%
X114735000Y-92500000D03*
%TD*%
D12*
%TO.P,D5,1,K*%
%TO.N,Net-(D5-K)*%
X115275000Y-86000000D03*
D13*
%TO.P,D5,2,A*%
%TO.N,VCC*%
X112735000Y-86000000D03*
%TD*%
D12*
%TO.P,D4,1,K*%
%TO.N,Net-(D4-K)*%
X118275000Y-79000000D03*
D13*
%TO.P,D4,2,A*%
%TO.N,VCC*%
X115735000Y-79000000D03*
%TD*%
D12*
%TO.P,D3,1,K*%
%TO.N,Net-(D3-K)*%
X125275000Y-73000000D03*
D13*
%TO.P,D3,2,A*%
%TO.N,VCC*%
X122735000Y-73000000D03*
%TD*%
D12*
%TO.P,D2,1,K*%
%TO.N,Net-(D2-K)*%
X130725000Y-72500000D03*
D13*
%TO.P,D2,2,A*%
%TO.N,VCC*%
X133265000Y-72500000D03*
%TD*%
D12*
%TO.P,D1,1,K*%
%TO.N,Net-(D1-K)*%
X137460000Y-77500000D03*
D13*
%TO.P,D1,2,A*%
%TO.N,VCC*%
X140000000Y-77500000D03*
%TD*%
D14*
%TO.P,J1,1,Pin_1*%
%TO.N,VCC*%
X155222500Y-92690000D03*
D15*
%TO.P,J1,2,Pin_2*%
%TO.N,GND*%
X155222500Y-100310000D03*
%TD*%
D16*
%TO.N,Net-(D12-K)*%
X142960000Y-99265000D02*
X144225000Y-98000000D01*
X142960000Y-102500000D02*
X142960000Y-99265000D01*
%TO.N,Net-(D18-K)*%
X157500000Y-95500000D02*
X149000000Y-95500000D01*
X174975000Y-87750000D02*
X165250000Y-87750000D01*
X165250000Y-87750000D02*
X157500000Y-95500000D01*
X176225000Y-86500000D02*
X174975000Y-87750000D01*
X149000000Y-95500000D02*
X148000000Y-94500000D01*
X148000000Y-94500000D02*
X148000000Y-93500000D01*
%TO.N,Net-(D23-K)*%
X143960000Y-90000000D02*
X142960000Y-91000000D01*
X143960000Y-86000000D02*
X143960000Y-90000000D01*
%TO.N,Net-(D24-K)*%
X149725000Y-83685000D02*
X151000000Y-84960000D01*
X149725000Y-80000000D02*
X149725000Y-83685000D01*
%TO.N,Net-(D22-K)*%
X155460000Y-74000000D02*
X155460000Y-78420000D01*
X155460000Y-78420000D02*
X156500000Y-79460000D01*
%TO.N,Net-(D21-K)*%
X162725000Y-75735000D02*
X162000000Y-76460000D01*
X162725000Y-71500000D02*
X162725000Y-75735000D01*
%TO.N,Net-(D20-K)*%
X168725000Y-75000000D02*
X168725000Y-75735000D01*
X168725000Y-75735000D02*
X166000000Y-78460000D01*
%TO.N,Net-(D19-K)*%
X174225000Y-83315000D02*
X171000000Y-86540000D01*
X174225000Y-80000000D02*
X174225000Y-83315000D01*
%TO.N,Net-(D17-K)*%
X168000000Y-91500000D02*
X167960000Y-91500000D01*
X168500000Y-92000000D02*
X168000000Y-91500000D01*
X167960000Y-91500000D02*
X166460000Y-90000000D01*
X170500000Y-92000000D02*
X168500000Y-92000000D01*
X172000000Y-93500000D02*
X170500000Y-92000000D01*
X173725000Y-93500000D02*
X172000000Y-93500000D01*
%TO.N,Net-(D16-K)*%
X168960000Y-100000000D02*
X163960000Y-95000000D01*
X169225000Y-100000000D02*
X168960000Y-100000000D01*
%TO.N,Net-(D15-K)*%
X162725000Y-103265000D02*
X160460000Y-101000000D01*
X162725000Y-106000000D02*
X162725000Y-103265000D01*
%TO.N,Net-(D14-K)*%
X156725000Y-110225000D02*
X154460000Y-107960000D01*
X154460000Y-107960000D02*
X154460000Y-106500000D01*
X156725000Y-111500000D02*
X156725000Y-110225000D01*
%TO.N,Net-(D13-K)*%
X148460000Y-115960000D02*
X148460000Y-111500000D01*
X148500000Y-116000000D02*
X148460000Y-115960000D01*
X149500000Y-117500000D02*
X148500000Y-116500000D01*
X148500000Y-116500000D02*
X148500000Y-116000000D01*
X151225000Y-117500000D02*
X149500000Y-117500000D01*
%TO.N,Net-(D10-K)*%
X142960000Y-113815000D02*
X142960000Y-105000000D01*
X139775000Y-117000000D02*
X142960000Y-113815000D01*
%TO.N,Net-(D11-K)*%
X144225000Y-119315000D02*
X145000000Y-118540000D01*
X144225000Y-123500000D02*
X144225000Y-119315000D01*
%TO.N,Net-(D9-K)*%
X132275000Y-109500000D02*
X133960000Y-109500000D01*
X133960000Y-109500000D02*
X135460000Y-111000000D01*
%TO.N,Net-(D8-K)*%
X127460000Y-103500000D02*
X129460000Y-105500000D01*
X126275000Y-103500000D02*
X127460000Y-103500000D01*
%TO.N,Net-(D7-K)*%
X122960000Y-98500000D02*
X123460000Y-99000000D01*
X120775000Y-98500000D02*
X122960000Y-98500000D01*
%TO.N,Net-(D6-K)*%
X119960000Y-92500000D02*
X120460000Y-93000000D01*
X117275000Y-92500000D02*
X119960000Y-92500000D01*
%TO.N,Net-(D5-K)*%
X117920000Y-86000000D02*
X118920000Y-87000000D01*
X115275000Y-86000000D02*
X117920000Y-86000000D01*
%TO.N,Net-(D4-K)*%
X121540000Y-77000000D02*
X123000000Y-78460000D01*
X119000000Y-77000000D02*
X121540000Y-77000000D01*
X118275000Y-77725000D02*
X119000000Y-77000000D01*
X118275000Y-79000000D02*
X118275000Y-77725000D01*
%TO.N,Net-(D3-K)*%
X125275000Y-74775000D02*
X128000000Y-77500000D01*
X125275000Y-73000000D02*
X125275000Y-74775000D01*
%TO.N,Net-(D1-K)*%
X137460000Y-81920000D02*
X138000000Y-82460000D01*
X137460000Y-77500000D02*
X137460000Y-81920000D01*
%TO.N,Net-(D2-K)*%
X130725000Y-76685000D02*
X133000000Y-78960000D01*
X130725000Y-72500000D02*
X130725000Y-76685000D01*
%TD*%
%TA.AperFunction,Conductor*%
%TO.N,GND*%
G36*
X163973106Y-69130639D02*
G01*
X166526961Y-69474346D01*
X166544791Y-69478098D01*
X169024576Y-70193633D01*
X169041434Y-70199854D01*
X171398055Y-71269616D01*
X171413896Y-71278248D01*
X173598362Y-72684055D01*
X173613043Y-72695124D01*
X173951938Y-72992517D01*
X175576968Y-74418540D01*
X175590205Y-74432079D01*
X177286837Y-76455899D01*
X177297914Y-76471388D01*
X178802750Y-78959389D01*
X178811716Y-78977353D01*
X179637602Y-81033912D01*
X179784817Y-81400498D01*
X179843162Y-81545783D01*
X179849362Y-81566107D01*
X180412272Y-84203146D01*
X180414923Y-84224553D01*
X180512443Y-86922319D01*
X180511427Y-86943256D01*
X180143084Y-89693993D01*
X180138959Y-89713139D01*
X179301510Y-92506916D01*
X179295207Y-92523517D01*
X177984492Y-95347455D01*
X177976947Y-95361324D01*
X176187715Y-98202764D01*
X176180445Y-98213100D01*
X174145838Y-100813547D01*
X174139106Y-100821446D01*
X171564029Y-103598692D01*
X171558600Y-103604193D01*
X168150054Y-106849138D01*
X168146627Y-106852281D01*
X163665128Y-110809175D01*
X163658917Y-110814012D01*
X163608867Y-110858846D01*
X163608205Y-110859435D01*
X163557882Y-110903868D01*
X163552352Y-110909474D01*
X156401990Y-117314968D01*
X156381730Y-117329717D01*
X156379633Y-117330940D01*
X156379626Y-117330945D01*
X156346267Y-117364595D01*
X156340948Y-117369652D01*
X156305643Y-117401280D01*
X156304314Y-117403316D01*
X156288556Y-117422811D01*
X151174430Y-122581639D01*
X151156756Y-122596426D01*
X151150512Y-122600730D01*
X151123103Y-122632913D01*
X151116767Y-122639807D01*
X151086986Y-122669850D01*
X151086985Y-122669851D01*
X151083228Y-122676425D01*
X151069976Y-122695291D01*
X149250387Y-124831726D01*
X149233779Y-124847886D01*
X149228130Y-124852436D01*
X149228125Y-124852442D01*
X149202979Y-124886860D01*
X149197258Y-124894108D01*
X149169636Y-124926540D01*
X149166525Y-124933086D01*
X149154661Y-124952998D01*
X147758096Y-126864617D01*
X147745238Y-126879561D01*
X147733816Y-126890875D01*
X147733812Y-126890880D01*
X147716751Y-126920106D01*
X147709793Y-126930733D01*
X147689837Y-126958051D01*
X147684037Y-126973041D01*
X147675482Y-126990806D01*
X146668090Y-128716589D01*
X146659671Y-128729177D01*
X146642909Y-128751200D01*
X146642906Y-128751204D01*
X146634472Y-128771790D01*
X146626824Y-128787282D01*
X146615610Y-128806494D01*
X146608315Y-128833206D01*
X146603441Y-128847541D01*
X145976834Y-130377149D01*
X145971108Y-130389227D01*
X145968193Y-130394604D01*
X145947170Y-130449474D01*
X145946126Y-130452110D01*
X145923868Y-130506446D01*
X145922314Y-130512339D01*
X145918210Y-130525067D01*
X145882459Y-130618379D01*
X145840095Y-130673937D01*
X145774416Y-130697773D01*
X145706278Y-130682316D01*
X145657313Y-130632474D01*
X145648628Y-130611995D01*
X145466867Y-130047084D01*
X145464167Y-130037351D01*
X145454956Y-129997977D01*
X145450503Y-129989663D01*
X145441777Y-129969105D01*
X145438890Y-129960132D01*
X145438889Y-129960128D01*
X145416956Y-129926141D01*
X145411835Y-129917447D01*
X144838937Y-128847541D01*
X144325543Y-127888759D01*
X144316852Y-127868309D01*
X144313873Y-127859076D01*
X144311698Y-127855712D01*
X144292055Y-127825329D01*
X144286879Y-127816552D01*
X144267914Y-127781134D01*
X144261279Y-127774060D01*
X144247589Y-127756555D01*
X144065298Y-127474603D01*
X142779503Y-125485853D01*
X142769043Y-125465903D01*
X142765631Y-125457649D01*
X142740733Y-125425157D01*
X142735028Y-125417061D01*
X142712809Y-125382695D01*
X142712808Y-125382694D01*
X142706175Y-125376697D01*
X142690911Y-125360139D01*
X142298379Y-124847886D01*
X141108587Y-123295209D01*
X141096526Y-123276078D01*
X141092575Y-123268322D01*
X141092572Y-123268319D01*
X141065026Y-123237723D01*
X141058755Y-123230177D01*
X141033723Y-123197511D01*
X141026820Y-123192206D01*
X141010223Y-123176853D01*
X140447769Y-122552135D01*
X142824500Y-122552135D01*
X142824500Y-124447870D01*
X142824501Y-124447876D01*
X142830908Y-124507483D01*
X142881202Y-124642328D01*
X142881206Y-124642335D01*
X142967452Y-124757544D01*
X142967455Y-124757547D01*
X143082664Y-124843793D01*
X143082671Y-124843797D01*
X143217517Y-124894091D01*
X143217516Y-124894091D01*
X143224444Y-124894835D01*
X143277127Y-124900500D01*
X145172872Y-124900499D01*
X145232483Y-124894091D01*
X145367331Y-124843796D01*
X145482546Y-124757546D01*
X145568796Y-124642331D01*
X145597455Y-124565493D01*
X145639326Y-124509559D01*
X145704790Y-124485141D01*
X145773063Y-124499992D01*
X145804866Y-124524843D01*
X145812302Y-124532920D01*
X145813215Y-124533912D01*
X145813222Y-124533918D01*
X145996365Y-124676464D01*
X145996371Y-124676468D01*
X145996374Y-124676470D01*
X146200497Y-124786936D01*
X146314487Y-124826068D01*
X146420015Y-124862297D01*
X146420017Y-124862297D01*
X146420019Y-124862298D01*
X146648951Y-124900500D01*
X146648952Y-124900500D01*
X146881048Y-124900500D01*
X146881049Y-124900500D01*
X147109981Y-124862298D01*
X147329503Y-124786936D01*
X147533626Y-124676470D01*
X147716784Y-124533913D01*
X147873979Y-124363153D01*
X148000924Y-124168849D01*
X148094157Y-123956300D01*
X148151134Y-123731305D01*
X148170300Y-123500000D01*
X148170300Y-123499993D01*
X148151135Y-123268702D01*
X148151133Y-123268691D01*
X148094157Y-123043699D01*
X148000924Y-122831151D01*
X147873983Y-122636852D01*
X147873980Y-122636849D01*
X147873979Y-122636847D01*
X147716784Y-122466087D01*
X147716779Y-122466083D01*
X147716777Y-122466081D01*
X147533634Y-122323535D01*
X147533628Y-122323531D01*
X147329504Y-122213064D01*
X147329495Y-122213061D01*
X147109984Y-122137702D01*
X146919450Y-122105908D01*
X146881049Y-122099500D01*
X146648951Y-122099500D01*
X146610550Y-122105908D01*
X146420015Y-122137702D01*
X146200504Y-122213061D01*
X146200495Y-122213064D01*
X145996371Y-122323531D01*
X145996365Y-122323535D01*
X145813222Y-122466081D01*
X145813218Y-122466085D01*
X145804866Y-122475158D01*
X145744979Y-122511148D01*
X145675141Y-122509047D01*
X145617525Y-122469522D01*
X145597455Y-122434507D01*
X145568797Y-122357671D01*
X145568793Y-122357664D01*
X145482547Y-122242455D01*
X145482544Y-122242452D01*
X145367335Y-122156206D01*
X145367328Y-122156202D01*
X145232482Y-122105908D01*
X145232483Y-122105908D01*
X145172883Y-122099501D01*
X145172881Y-122099500D01*
X145172873Y-122099500D01*
X145172865Y-122099500D01*
X144999500Y-122099500D01*
X144932461Y-122079815D01*
X144886706Y-122027011D01*
X144875500Y-121975500D01*
X144875500Y-119864500D01*
X144895185Y-119797461D01*
X144947989Y-119751706D01*
X144999500Y-119740500D01*
X145111241Y-119740500D01*
X145111243Y-119740500D01*
X145329940Y-119699618D01*
X145537401Y-119619247D01*
X145726562Y-119502124D01*
X145890981Y-119352236D01*
X146025058Y-119174689D01*
X146124229Y-118975528D01*
X146185115Y-118761536D01*
X146205643Y-118540000D01*
X146205079Y-118533918D01*
X146185115Y-118318464D01*
X146185114Y-118318462D01*
X146183104Y-118311399D01*
X146124229Y-118104472D01*
X146124224Y-118104461D01*
X146025061Y-117905316D01*
X146025056Y-117905308D01*
X145890979Y-117727761D01*
X145726562Y-117577876D01*
X145726560Y-117577874D01*
X145537404Y-117460754D01*
X145537398Y-117460752D01*
X145329940Y-117380382D01*
X145111243Y-117339500D01*
X144888757Y-117339500D01*
X144670060Y-117380382D01*
X144538864Y-117431207D01*
X144462601Y-117460752D01*
X144462595Y-117460754D01*
X144273439Y-117577874D01*
X144273437Y-117577876D01*
X144109020Y-117727761D01*
X143974943Y-117905308D01*
X143974938Y-117905316D01*
X143875775Y-118104461D01*
X143875769Y-118104476D01*
X143814885Y-118318462D01*
X143814884Y-118318464D01*
X143794357Y-118539999D01*
X143794357Y-118540000D01*
X143813214Y-118743506D01*
X143799799Y-118812076D01*
X143777426Y-118842627D01*
X143719723Y-118900331D01*
X143648534Y-119006874D01*
X143599499Y-119125255D01*
X143599497Y-119125261D01*
X143574500Y-119250928D01*
X143574500Y-121975500D01*
X143554815Y-122042539D01*
X143502011Y-122088294D01*
X143450501Y-122099500D01*
X143277130Y-122099500D01*
X143277123Y-122099501D01*
X143217516Y-122105908D01*
X143082671Y-122156202D01*
X143082664Y-122156206D01*
X142967455Y-122242452D01*
X142967452Y-122242455D01*
X142881206Y-122357664D01*
X142881202Y-122357671D01*
X142830908Y-122492517D01*
X142824501Y-122552116D01*
X142824500Y-122552135D01*
X140447769Y-122552135D01*
X139102038Y-121057432D01*
X139087218Y-121037174D01*
X139086017Y-121035126D01*
X139052251Y-121001809D01*
X139047190Y-120996512D01*
X139015451Y-120961260D01*
X139013454Y-120959963D01*
X138993905Y-120944239D01*
X136883927Y-118862297D01*
X136659836Y-118641184D01*
X136643403Y-118621170D01*
X136643223Y-118620897D01*
X136606243Y-118588061D01*
X136601482Y-118583605D01*
X136566273Y-118548864D01*
X136566272Y-118548863D01*
X136565974Y-118548694D01*
X136544929Y-118533621D01*
X136448356Y-118447873D01*
X136440044Y-118440493D01*
X136402984Y-118381263D01*
X136403829Y-118311399D01*
X136442312Y-118253082D01*
X136506214Y-118224828D01*
X136575247Y-118235607D01*
X136581385Y-118238711D01*
X136670497Y-118286936D01*
X136756428Y-118316436D01*
X136890015Y-118362297D01*
X136890017Y-118362297D01*
X136890019Y-118362298D01*
X137118951Y-118400500D01*
X137118952Y-118400500D01*
X137351048Y-118400500D01*
X137351049Y-118400500D01*
X137579981Y-118362298D01*
X137799503Y-118286936D01*
X138003626Y-118176470D01*
X138036993Y-118150500D01*
X138096132Y-118104470D01*
X138186784Y-118033913D01*
X138195130Y-118024846D01*
X138255010Y-117988854D01*
X138324849Y-117990949D01*
X138382468Y-118030469D01*
X138402544Y-118065491D01*
X138431203Y-118142330D01*
X138431206Y-118142335D01*
X138517452Y-118257544D01*
X138517455Y-118257547D01*
X138632664Y-118343793D01*
X138632671Y-118343797D01*
X138767517Y-118394091D01*
X138767516Y-118394091D01*
X138774444Y-118394835D01*
X138827127Y-118400500D01*
X140722872Y-118400499D01*
X140782483Y-118394091D01*
X140917331Y-118343796D01*
X141032546Y-118257546D01*
X141118796Y-118142331D01*
X141169091Y-118007483D01*
X141175500Y-117947873D01*
X141175499Y-116570806D01*
X141195184Y-116503768D01*
X141211813Y-116483131D01*
X143465276Y-114229669D01*
X143536465Y-114123127D01*
X143585501Y-114004744D01*
X143610500Y-113879069D01*
X143610500Y-113850297D01*
X143630185Y-113783258D01*
X143682989Y-113737503D01*
X143752147Y-113727559D01*
X143815703Y-113756584D01*
X143853477Y-113815362D01*
X143853767Y-113816364D01*
X143876239Y-113895349D01*
X143975368Y-114094425D01*
X144109391Y-114271900D01*
X144273738Y-114421721D01*
X144462820Y-114538797D01*
X144462822Y-114538798D01*
X144670195Y-114619135D01*
X144750000Y-114634052D01*
X145250000Y-114634052D01*
X145329804Y-114619135D01*
X145537177Y-114538798D01*
X145537179Y-114538797D01*
X145726261Y-114421721D01*
X145890608Y-114271900D01*
X146024631Y-114094425D01*
X146123760Y-113895349D01*
X146176495Y-113710000D01*
X145250000Y-113710000D01*
X145250000Y-114634052D01*
X144750000Y-114634052D01*
X144750000Y-113704975D01*
X144785095Y-113740070D01*
X144864905Y-113786148D01*
X144953922Y-113810000D01*
X145046078Y-113810000D01*
X145135095Y-113786148D01*
X145214905Y-113740070D01*
X145280070Y-113674905D01*
X145326148Y-113595095D01*
X145350000Y-113506078D01*
X145350000Y-113413922D01*
X145326148Y-113324905D01*
X145280070Y-113245095D01*
X145244975Y-113210000D01*
X145250000Y-113210000D01*
X146176495Y-113210000D01*
X146123760Y-113024650D01*
X146024631Y-112825574D01*
X145890608Y-112648099D01*
X145726261Y-112498278D01*
X145537179Y-112381202D01*
X145537177Y-112381201D01*
X145329799Y-112300864D01*
X145250000Y-112285946D01*
X145250000Y-113210000D01*
X145244975Y-113210000D01*
X145214905Y-113179930D01*
X145135095Y-113133852D01*
X145046078Y-113110000D01*
X144953922Y-113110000D01*
X144864905Y-113133852D01*
X144785095Y-113179930D01*
X144750000Y-113215025D01*
X144750000Y-112285946D01*
X144670200Y-112300864D01*
X144462822Y-112381201D01*
X144462820Y-112381202D01*
X144273738Y-112498278D01*
X144109391Y-112648099D01*
X143975368Y-112825574D01*
X143876240Y-113024649D01*
X143853767Y-113103636D01*
X143816488Y-113162729D01*
X143753178Y-113192287D01*
X143683938Y-113182925D01*
X143630752Y-113137616D01*
X143610504Y-113070744D01*
X143610500Y-113069702D01*
X143610500Y-111499999D01*
X147254357Y-111499999D01*
X147254357Y-111500000D01*
X147274884Y-111721535D01*
X147274885Y-111721537D01*
X147335769Y-111935523D01*
X147335775Y-111935538D01*
X147434938Y-112134683D01*
X147434943Y-112134691D01*
X147569020Y-112312238D01*
X147733433Y-112462120D01*
X147733435Y-112462122D01*
X147733438Y-112462124D01*
X147750775Y-112472859D01*
X147797412Y-112524884D01*
X147809500Y-112578286D01*
X147809500Y-116024070D01*
X147831933Y-116136841D01*
X147831933Y-116136850D01*
X147831935Y-116136850D01*
X147834499Y-116149744D01*
X147840062Y-116163174D01*
X147849500Y-116210623D01*
X147849500Y-116564070D01*
X147861720Y-116625500D01*
X147861720Y-116625502D01*
X147874497Y-116689736D01*
X147874499Y-116689744D01*
X147923534Y-116808125D01*
X147994726Y-116914673D01*
X149085325Y-118005272D01*
X149085332Y-118005278D01*
X149191863Y-118076459D01*
X149191867Y-118076461D01*
X149191874Y-118076466D01*
X149259488Y-118104472D01*
X149310256Y-118125501D01*
X149310260Y-118125501D01*
X149310261Y-118125502D01*
X149435928Y-118150500D01*
X149435931Y-118150500D01*
X149700501Y-118150500D01*
X149767540Y-118170185D01*
X149813295Y-118222989D01*
X149824501Y-118274500D01*
X149824501Y-118447876D01*
X149830908Y-118507483D01*
X149881202Y-118642328D01*
X149881206Y-118642335D01*
X149967452Y-118757544D01*
X149967455Y-118757547D01*
X150082664Y-118843793D01*
X150082671Y-118843797D01*
X150217517Y-118894091D01*
X150217516Y-118894091D01*
X150224444Y-118894835D01*
X150277127Y-118900500D01*
X152172872Y-118900499D01*
X152232483Y-118894091D01*
X152367331Y-118843796D01*
X152482546Y-118757546D01*
X152568796Y-118642331D01*
X152568798Y-118642326D01*
X152597455Y-118565493D01*
X152639326Y-118509559D01*
X152704790Y-118485141D01*
X152773063Y-118499992D01*
X152804866Y-118524843D01*
X152812302Y-118532920D01*
X152813215Y-118533912D01*
X152813222Y-118533918D01*
X152996365Y-118676464D01*
X152996371Y-118676468D01*
X152996374Y-118676470D01*
X153200497Y-118786936D01*
X153314487Y-118826068D01*
X153420015Y-118862297D01*
X153420017Y-118862297D01*
X153420019Y-118862298D01*
X153648951Y-118900500D01*
X153648952Y-118900500D01*
X153881048Y-118900500D01*
X153881049Y-118900500D01*
X154109981Y-118862298D01*
X154329503Y-118786936D01*
X154533626Y-118676470D01*
X154716784Y-118533913D01*
X154873979Y-118363153D01*
X155000924Y-118168849D01*
X155094157Y-117956300D01*
X155151134Y-117731305D01*
X155151135Y-117731297D01*
X155170300Y-117500006D01*
X155170300Y-117499993D01*
X155151135Y-117268702D01*
X155151133Y-117268691D01*
X155094157Y-117043699D01*
X155000924Y-116831151D01*
X154873983Y-116636852D01*
X154873980Y-116636849D01*
X154873979Y-116636847D01*
X154716784Y-116466087D01*
X154716779Y-116466083D01*
X154716777Y-116466081D01*
X154533634Y-116323535D01*
X154533628Y-116323531D01*
X154329504Y-116213064D01*
X154329495Y-116213061D01*
X154109984Y-116137702D01*
X153919450Y-116105908D01*
X153881049Y-116099500D01*
X153648951Y-116099500D01*
X153610550Y-116105908D01*
X153420015Y-116137702D01*
X153200504Y-116213061D01*
X153200495Y-116213064D01*
X152996371Y-116323531D01*
X152996365Y-116323535D01*
X152813222Y-116466081D01*
X152813218Y-116466085D01*
X152804866Y-116475158D01*
X152744979Y-116511148D01*
X152675141Y-116509047D01*
X152617525Y-116469522D01*
X152597455Y-116434507D01*
X152568797Y-116357671D01*
X152568793Y-116357664D01*
X152482547Y-116242455D01*
X152482544Y-116242452D01*
X152367335Y-116156206D01*
X152367328Y-116156202D01*
X152232482Y-116105908D01*
X152232483Y-116105908D01*
X152172883Y-116099501D01*
X152172881Y-116099500D01*
X152172873Y-116099500D01*
X152172864Y-116099500D01*
X150277129Y-116099500D01*
X150277123Y-116099501D01*
X150217516Y-116105908D01*
X150082671Y-116156202D01*
X150082664Y-116156206D01*
X149967455Y-116242452D01*
X149967452Y-116242455D01*
X149881206Y-116357664D01*
X149881202Y-116357671D01*
X149830908Y-116492517D01*
X149824501Y-116552116D01*
X149824500Y-116552135D01*
X149824500Y-116605192D01*
X149804815Y-116672231D01*
X149752011Y-116717986D01*
X149682853Y-116727930D01*
X149619297Y-116698905D01*
X149612819Y-116692873D01*
X149186819Y-116266873D01*
X149153334Y-116205550D01*
X149150500Y-116179192D01*
X149150500Y-115935928D01*
X149125502Y-115810261D01*
X149125501Y-115810260D01*
X149125501Y-115810256D01*
X149119937Y-115796825D01*
X149110500Y-115749375D01*
X149110500Y-112578286D01*
X149130185Y-112511247D01*
X149169223Y-112472859D01*
X149186562Y-112462124D01*
X149350981Y-112312236D01*
X149485058Y-112134689D01*
X149584229Y-111935528D01*
X149637016Y-111750000D01*
X152363505Y-111750000D01*
X152416239Y-111935349D01*
X152515368Y-112134425D01*
X152649391Y-112311900D01*
X152813738Y-112461721D01*
X153002820Y-112578797D01*
X153002822Y-112578798D01*
X153210195Y-112659135D01*
X153290000Y-112674052D01*
X153790000Y-112674052D01*
X153869804Y-112659135D01*
X154077177Y-112578798D01*
X154077179Y-112578797D01*
X154266261Y-112461721D01*
X154430608Y-112311900D01*
X154564631Y-112134425D01*
X154663760Y-111935349D01*
X154716495Y-111750000D01*
X153790000Y-111750000D01*
X153790000Y-112674052D01*
X153290000Y-112674052D01*
X153290000Y-111750000D01*
X152363505Y-111750000D01*
X149637016Y-111750000D01*
X149645115Y-111721536D01*
X149665643Y-111500000D01*
X149661373Y-111453922D01*
X153190000Y-111453922D01*
X153190000Y-111546078D01*
X153213852Y-111635095D01*
X153259930Y-111714905D01*
X153325095Y-111780070D01*
X153404905Y-111826148D01*
X153493922Y-111850000D01*
X153586078Y-111850000D01*
X153675095Y-111826148D01*
X153754905Y-111780070D01*
X153820070Y-111714905D01*
X153866148Y-111635095D01*
X153890000Y-111546078D01*
X153890000Y-111453922D01*
X153866148Y-111364905D01*
X153820070Y-111285095D01*
X153784975Y-111250000D01*
X153790000Y-111250000D01*
X154716495Y-111250000D01*
X154663760Y-111064650D01*
X154564631Y-110865574D01*
X154430608Y-110688099D01*
X154266261Y-110538278D01*
X154077179Y-110421202D01*
X154077177Y-110421201D01*
X153869799Y-110340864D01*
X153790000Y-110325946D01*
X153790000Y-111250000D01*
X153784975Y-111250000D01*
X153754905Y-111219930D01*
X153675095Y-111173852D01*
X153586078Y-111150000D01*
X153493922Y-111150000D01*
X153404905Y-111173852D01*
X153325095Y-111219930D01*
X153259930Y-111285095D01*
X153213852Y-111364905D01*
X153190000Y-111453922D01*
X149661373Y-111453922D01*
X149645115Y-111278464D01*
X149637016Y-111250000D01*
X152363505Y-111250000D01*
X153290000Y-111250000D01*
X153290000Y-110325946D01*
X153210200Y-110340864D01*
X153002822Y-110421201D01*
X153002820Y-110421202D01*
X152813738Y-110538278D01*
X152649391Y-110688099D01*
X152515368Y-110865574D01*
X152416239Y-111064650D01*
X152363505Y-111250000D01*
X149637016Y-111250000D01*
X149584229Y-111064472D01*
X149573886Y-111043700D01*
X149485061Y-110865316D01*
X149485056Y-110865308D01*
X149350979Y-110687761D01*
X149186562Y-110537876D01*
X149186560Y-110537874D01*
X148997404Y-110420754D01*
X148997398Y-110420752D01*
X148789940Y-110340382D01*
X148571243Y-110299500D01*
X148348757Y-110299500D01*
X148130060Y-110340382D01*
X147998864Y-110391207D01*
X147922601Y-110420752D01*
X147922595Y-110420754D01*
X147733439Y-110537874D01*
X147733437Y-110537876D01*
X147569020Y-110687761D01*
X147434943Y-110865308D01*
X147434938Y-110865316D01*
X147335775Y-111064461D01*
X147335769Y-111064476D01*
X147274885Y-111278462D01*
X147274884Y-111278464D01*
X147254357Y-111499999D01*
X143610500Y-111499999D01*
X143610500Y-106499999D01*
X153254357Y-106499999D01*
X153254357Y-106500000D01*
X153274884Y-106721535D01*
X153274885Y-106721537D01*
X153335769Y-106935523D01*
X153335775Y-106935538D01*
X153434938Y-107134683D01*
X153434943Y-107134691D01*
X153569020Y-107312238D01*
X153733433Y-107462120D01*
X153733435Y-107462122D01*
X153733438Y-107462124D01*
X153750775Y-107472859D01*
X153797412Y-107524884D01*
X153809500Y-107578286D01*
X153809500Y-108024070D01*
X153832103Y-108137696D01*
X153832103Y-108137705D01*
X153832105Y-108137705D01*
X153834499Y-108149745D01*
X153883533Y-108268125D01*
X153920554Y-108323531D01*
X153943365Y-108357671D01*
X153954726Y-108374673D01*
X153954727Y-108374674D01*
X155569315Y-109989261D01*
X155602800Y-110050584D01*
X155597816Y-110120276D01*
X155555946Y-110176208D01*
X155467452Y-110242455D01*
X155381206Y-110357664D01*
X155381202Y-110357671D01*
X155330908Y-110492517D01*
X155324501Y-110552116D01*
X155324500Y-110552135D01*
X155324500Y-112447870D01*
X155324501Y-112447876D01*
X155330908Y-112507483D01*
X155381202Y-112642328D01*
X155381206Y-112642335D01*
X155467452Y-112757544D01*
X155467455Y-112757547D01*
X155582664Y-112843793D01*
X155582671Y-112843797D01*
X155717517Y-112894091D01*
X155717516Y-112894091D01*
X155724444Y-112894835D01*
X155777127Y-112900500D01*
X157672872Y-112900499D01*
X157732483Y-112894091D01*
X157867331Y-112843796D01*
X157982546Y-112757546D01*
X158068796Y-112642331D01*
X158068798Y-112642326D01*
X158097455Y-112565493D01*
X158139326Y-112509559D01*
X158204790Y-112485141D01*
X158273063Y-112499992D01*
X158304866Y-112524843D01*
X158312302Y-112532920D01*
X158313215Y-112533912D01*
X158313222Y-112533918D01*
X158496365Y-112676464D01*
X158496371Y-112676468D01*
X158496374Y-112676470D01*
X158700497Y-112786936D01*
X158813046Y-112825574D01*
X158920015Y-112862297D01*
X158920017Y-112862297D01*
X158920019Y-112862298D01*
X159148951Y-112900500D01*
X159148952Y-112900500D01*
X159381048Y-112900500D01*
X159381049Y-112900500D01*
X159609981Y-112862298D01*
X159829503Y-112786936D01*
X160033626Y-112676470D01*
X160216784Y-112533913D01*
X160373979Y-112363153D01*
X160500924Y-112168849D01*
X160594157Y-111956300D01*
X160651134Y-111731305D01*
X160651135Y-111731297D01*
X160670300Y-111500006D01*
X160670300Y-111499993D01*
X160651135Y-111268702D01*
X160651133Y-111268691D01*
X160594157Y-111043699D01*
X160500924Y-110831151D01*
X160373983Y-110636852D01*
X160373980Y-110636849D01*
X160373979Y-110636847D01*
X160216784Y-110466087D01*
X160216779Y-110466083D01*
X160216777Y-110466081D01*
X160033634Y-110323535D01*
X160033628Y-110323531D01*
X159829504Y-110213064D01*
X159829495Y-110213061D01*
X159609984Y-110137702D01*
X159419450Y-110105908D01*
X159381049Y-110099500D01*
X159148951Y-110099500D01*
X159110550Y-110105908D01*
X158920015Y-110137702D01*
X158700504Y-110213061D01*
X158700495Y-110213064D01*
X158496371Y-110323531D01*
X158496365Y-110323535D01*
X158313222Y-110466081D01*
X158313218Y-110466085D01*
X158304866Y-110475158D01*
X158244979Y-110511148D01*
X158175141Y-110509047D01*
X158117525Y-110469522D01*
X158097455Y-110434507D01*
X158068797Y-110357671D01*
X158068793Y-110357664D01*
X157982547Y-110242455D01*
X157982544Y-110242452D01*
X157867335Y-110156206D01*
X157867328Y-110156202D01*
X157732482Y-110105908D01*
X157732483Y-110105908D01*
X157672883Y-110099501D01*
X157672881Y-110099500D01*
X157672873Y-110099500D01*
X157672865Y-110099500D01*
X157459966Y-110099500D01*
X157392927Y-110079815D01*
X157347172Y-110027011D01*
X157345405Y-110022953D01*
X157303258Y-109921202D01*
X157301465Y-109916873D01*
X157299992Y-109914669D01*
X157230277Y-109810331D01*
X157230275Y-109810329D01*
X157230273Y-109810326D01*
X155146819Y-107726872D01*
X155113334Y-107665549D01*
X155110500Y-107639191D01*
X155110500Y-107578286D01*
X155130185Y-107511247D01*
X155169223Y-107472859D01*
X155186562Y-107462124D01*
X155350981Y-107312236D01*
X155485058Y-107134689D01*
X155584229Y-106935528D01*
X155637016Y-106750000D01*
X158363505Y-106750000D01*
X158416239Y-106935349D01*
X158515368Y-107134425D01*
X158649391Y-107311900D01*
X158813738Y-107461721D01*
X159002820Y-107578797D01*
X159002822Y-107578798D01*
X159210195Y-107659135D01*
X159290000Y-107674052D01*
X159790000Y-107674052D01*
X159869804Y-107659135D01*
X160077177Y-107578798D01*
X160077179Y-107578797D01*
X160266261Y-107461721D01*
X160430608Y-107311900D01*
X160564631Y-107134425D01*
X160663760Y-106935349D01*
X160716495Y-106750000D01*
X159790000Y-106750000D01*
X159790000Y-107674052D01*
X159290000Y-107674052D01*
X159290000Y-106750000D01*
X158363505Y-106750000D01*
X155637016Y-106750000D01*
X155645115Y-106721536D01*
X155665643Y-106500000D01*
X155661373Y-106453922D01*
X159190000Y-106453922D01*
X159190000Y-106546078D01*
X159213852Y-106635095D01*
X159259930Y-106714905D01*
X159325095Y-106780070D01*
X159404905Y-106826148D01*
X159493922Y-106850000D01*
X159586078Y-106850000D01*
X159675095Y-106826148D01*
X159754905Y-106780070D01*
X159820070Y-106714905D01*
X159866148Y-106635095D01*
X159890000Y-106546078D01*
X159890000Y-106453922D01*
X159866148Y-106364905D01*
X159820070Y-106285095D01*
X159784975Y-106250000D01*
X159790000Y-106250000D01*
X160716495Y-106250000D01*
X160663760Y-106064650D01*
X160564631Y-105865574D01*
X160430608Y-105688099D01*
X160266261Y-105538278D01*
X160077179Y-105421202D01*
X160077177Y-105421201D01*
X159869799Y-105340864D01*
X159790000Y-105325946D01*
X159790000Y-106250000D01*
X159784975Y-106250000D01*
X159754905Y-106219930D01*
X159675095Y-106173852D01*
X159586078Y-106150000D01*
X159493922Y-106150000D01*
X159404905Y-106173852D01*
X159325095Y-106219930D01*
X159259930Y-106285095D01*
X159213852Y-106364905D01*
X159190000Y-106453922D01*
X155661373Y-106453922D01*
X155645115Y-106278464D01*
X155637016Y-106250000D01*
X158363505Y-106250000D01*
X159290000Y-106250000D01*
X159290000Y-105325946D01*
X159210200Y-105340864D01*
X159002822Y-105421201D01*
X159002820Y-105421202D01*
X158813738Y-105538278D01*
X158649391Y-105688099D01*
X158515368Y-105865574D01*
X158416239Y-106064650D01*
X158363505Y-106250000D01*
X155637016Y-106250000D01*
X155584229Y-106064472D01*
X155584224Y-106064461D01*
X155485061Y-105865316D01*
X155485056Y-105865308D01*
X155350979Y-105687761D01*
X155186562Y-105537876D01*
X155186560Y-105537874D01*
X154997404Y-105420754D01*
X154997398Y-105420752D01*
X154789940Y-105340382D01*
X154571243Y-105299500D01*
X154348757Y-105299500D01*
X154130060Y-105340382D01*
X154066759Y-105364905D01*
X153922601Y-105420752D01*
X153922595Y-105420754D01*
X153733439Y-105537874D01*
X153733437Y-105537876D01*
X153569020Y-105687761D01*
X153434943Y-105865308D01*
X153434938Y-105865316D01*
X153335775Y-106064461D01*
X153335769Y-106064476D01*
X153274885Y-106278462D01*
X153274884Y-106278464D01*
X153254357Y-106499999D01*
X143610500Y-106499999D01*
X143610500Y-106078286D01*
X143630185Y-106011247D01*
X143669223Y-105972859D01*
X143686562Y-105962124D01*
X143850981Y-105812236D01*
X143985058Y-105634689D01*
X144084229Y-105435528D01*
X144137016Y-105250000D01*
X146863505Y-105250000D01*
X146916239Y-105435349D01*
X147015368Y-105634425D01*
X147149391Y-105811900D01*
X147313738Y-105961721D01*
X147502820Y-106078797D01*
X147502822Y-106078798D01*
X147710195Y-106159135D01*
X147790000Y-106174052D01*
X148290000Y-106174052D01*
X148369804Y-106159135D01*
X148577177Y-106078798D01*
X148577179Y-106078797D01*
X148766261Y-105961721D01*
X148930608Y-105811900D01*
X149064631Y-105634425D01*
X149163760Y-105435349D01*
X149216495Y-105250000D01*
X148290000Y-105250000D01*
X148290000Y-106174052D01*
X147790000Y-106174052D01*
X147790000Y-105250000D01*
X146863505Y-105250000D01*
X144137016Y-105250000D01*
X144145115Y-105221536D01*
X144165643Y-105000000D01*
X144152454Y-104857671D01*
X144145115Y-104778464D01*
X144145114Y-104778462D01*
X144139163Y-104757547D01*
X144084229Y-104564472D01*
X144069015Y-104533918D01*
X143985061Y-104365316D01*
X143985056Y-104365308D01*
X143850979Y-104187761D01*
X143686562Y-104037876D01*
X143686560Y-104037874D01*
X143497404Y-103920754D01*
X143497395Y-103920750D01*
X143425560Y-103892921D01*
X143355101Y-103865625D01*
X143299701Y-103823054D01*
X143276110Y-103757288D01*
X143291821Y-103689207D01*
X143341844Y-103640428D01*
X143355093Y-103634377D01*
X143497401Y-103579247D01*
X143686562Y-103462124D01*
X143850981Y-103312236D01*
X143985058Y-103134689D01*
X144084229Y-102935528D01*
X144137016Y-102750000D01*
X146863505Y-102750000D01*
X146916239Y-102935349D01*
X147015368Y-103134425D01*
X147149391Y-103311900D01*
X147313738Y-103461721D01*
X147502820Y-103578797D01*
X147502822Y-103578798D01*
X147646277Y-103634373D01*
X147701679Y-103676946D01*
X147725269Y-103742713D01*
X147709558Y-103810794D01*
X147659534Y-103859572D01*
X147646277Y-103865627D01*
X147502822Y-103921201D01*
X147502820Y-103921202D01*
X147313738Y-104038278D01*
X147149391Y-104188099D01*
X147015368Y-104365574D01*
X146916239Y-104564650D01*
X146863505Y-104750000D01*
X147795025Y-104750000D01*
X147759930Y-104785095D01*
X147713852Y-104864905D01*
X147690000Y-104953922D01*
X147690000Y-105046078D01*
X147713852Y-105135095D01*
X147759930Y-105214905D01*
X147825095Y-105280070D01*
X147904905Y-105326148D01*
X147993922Y-105350000D01*
X148086078Y-105350000D01*
X148175095Y-105326148D01*
X148254905Y-105280070D01*
X148320070Y-105214905D01*
X148366148Y-105135095D01*
X148390000Y-105046078D01*
X148390000Y-104953922D01*
X148366148Y-104864905D01*
X148320070Y-104785095D01*
X148284975Y-104750000D01*
X149216495Y-104750000D01*
X149163760Y-104564650D01*
X149064631Y-104365574D01*
X148930608Y-104188099D01*
X148766261Y-104038278D01*
X148577179Y-103921202D01*
X148577177Y-103921201D01*
X148433722Y-103865627D01*
X148378321Y-103823054D01*
X148354730Y-103757287D01*
X148370441Y-103689207D01*
X148420465Y-103640428D01*
X148433722Y-103634373D01*
X148577177Y-103578798D01*
X148577179Y-103578797D01*
X148766261Y-103461721D01*
X148930608Y-103311900D01*
X149064631Y-103134425D01*
X149163760Y-102935349D01*
X149216495Y-102750000D01*
X148284975Y-102750000D01*
X148320070Y-102714905D01*
X148366148Y-102635095D01*
X148390000Y-102546078D01*
X148390000Y-102453922D01*
X148366148Y-102364905D01*
X148320070Y-102285095D01*
X148284975Y-102250000D01*
X148290000Y-102250000D01*
X149216495Y-102250000D01*
X149163760Y-102064650D01*
X149064631Y-101865574D01*
X148930608Y-101688099D01*
X148766261Y-101538278D01*
X148577179Y-101421202D01*
X148577177Y-101421201D01*
X148369799Y-101340864D01*
X148290000Y-101325946D01*
X148290000Y-102250000D01*
X148284975Y-102250000D01*
X148254905Y-102219930D01*
X148175095Y-102173852D01*
X148086078Y-102150000D01*
X147993922Y-102150000D01*
X147904905Y-102173852D01*
X147825095Y-102219930D01*
X147759930Y-102285095D01*
X147713852Y-102364905D01*
X147690000Y-102453922D01*
X147690000Y-102546078D01*
X147713852Y-102635095D01*
X147759930Y-102714905D01*
X147795025Y-102750000D01*
X146863505Y-102750000D01*
X144137016Y-102750000D01*
X144145115Y-102721536D01*
X144165643Y-102500000D01*
X144152454Y-102357671D01*
X144145115Y-102278464D01*
X144145114Y-102278462D01*
X144137016Y-102250000D01*
X146863505Y-102250000D01*
X147790000Y-102250000D01*
X147790000Y-101325946D01*
X147710200Y-101340864D01*
X147502822Y-101421201D01*
X147502820Y-101421202D01*
X147313738Y-101538278D01*
X147149391Y-101688099D01*
X147015368Y-101865574D01*
X146916239Y-102064650D01*
X146863505Y-102250000D01*
X144137016Y-102250000D01*
X144134869Y-102242455D01*
X144084229Y-102064472D01*
X144033266Y-101962125D01*
X143985061Y-101865316D01*
X143985056Y-101865308D01*
X143850979Y-101687761D01*
X143686562Y-101537876D01*
X143686558Y-101537872D01*
X143669220Y-101527137D01*
X143622586Y-101475109D01*
X143610500Y-101421712D01*
X143610500Y-100060000D01*
X152942775Y-100060000D01*
X154568379Y-100060000D01*
X154549401Y-100105818D01*
X154522500Y-100241056D01*
X154522500Y-100378944D01*
X154549401Y-100514182D01*
X154568379Y-100560000D01*
X152942775Y-100560000D01*
X152960665Y-100672959D01*
X153036060Y-100904998D01*
X153146821Y-101122377D01*
X153290228Y-101319759D01*
X153462740Y-101492271D01*
X153660122Y-101635678D01*
X153877501Y-101746439D01*
X154109540Y-101821834D01*
X154350507Y-101860000D01*
X154972500Y-101860000D01*
X154972500Y-100964120D01*
X155018318Y-100983099D01*
X155153556Y-101010000D01*
X155291444Y-101010000D01*
X155426682Y-100983099D01*
X155472500Y-100964120D01*
X155472500Y-101860000D01*
X156094493Y-101860000D01*
X156335459Y-101821834D01*
X156567498Y-101746439D01*
X156784877Y-101635678D01*
X156982259Y-101492271D01*
X157154771Y-101319759D01*
X157298178Y-101122377D01*
X157360533Y-100999999D01*
X159254357Y-100999999D01*
X159254357Y-101000000D01*
X159274884Y-101221535D01*
X159274885Y-101221537D01*
X159335769Y-101435523D01*
X159335775Y-101435538D01*
X159434938Y-101634683D01*
X159434943Y-101634691D01*
X159569020Y-101812238D01*
X159733437Y-101962123D01*
X159733439Y-101962125D01*
X159922595Y-102079245D01*
X159922596Y-102079245D01*
X159922599Y-102079247D01*
X160130060Y-102159618D01*
X160348757Y-102200500D01*
X160348759Y-102200500D01*
X160571242Y-102200500D01*
X160571243Y-102200500D01*
X160612032Y-102192875D01*
X160649639Y-102185845D01*
X160719154Y-102192875D01*
X160760106Y-102220052D01*
X162038181Y-103498127D01*
X162071666Y-103559450D01*
X162074500Y-103585808D01*
X162074500Y-104475500D01*
X162054815Y-104542539D01*
X162002011Y-104588294D01*
X161950501Y-104599500D01*
X161777130Y-104599500D01*
X161777123Y-104599501D01*
X161717516Y-104605908D01*
X161582671Y-104656202D01*
X161582664Y-104656206D01*
X161467455Y-104742452D01*
X161467452Y-104742455D01*
X161381206Y-104857664D01*
X161381202Y-104857671D01*
X161330908Y-104992517D01*
X161324501Y-105052116D01*
X161324500Y-105052135D01*
X161324500Y-106947870D01*
X161324501Y-106947876D01*
X161330908Y-107007483D01*
X161381202Y-107142328D01*
X161381206Y-107142335D01*
X161467452Y-107257544D01*
X161467455Y-107257547D01*
X161582664Y-107343793D01*
X161582671Y-107343797D01*
X161717517Y-107394091D01*
X161717516Y-107394091D01*
X161724444Y-107394835D01*
X161777127Y-107400500D01*
X163672872Y-107400499D01*
X163732483Y-107394091D01*
X163867331Y-107343796D01*
X163982546Y-107257546D01*
X164068796Y-107142331D01*
X164097455Y-107065493D01*
X164139326Y-107009559D01*
X164204790Y-106985141D01*
X164273063Y-106999992D01*
X164304866Y-107024843D01*
X164312302Y-107032920D01*
X164313215Y-107033912D01*
X164313222Y-107033918D01*
X164496365Y-107176464D01*
X164496371Y-107176468D01*
X164496374Y-107176470D01*
X164700497Y-107286936D01*
X164814487Y-107326068D01*
X164920015Y-107362297D01*
X164920017Y-107362297D01*
X164920019Y-107362298D01*
X165148951Y-107400500D01*
X165148952Y-107400500D01*
X165381048Y-107400500D01*
X165381049Y-107400500D01*
X165609981Y-107362298D01*
X165829503Y-107286936D01*
X166033626Y-107176470D01*
X166216784Y-107033913D01*
X166373979Y-106863153D01*
X166500924Y-106668849D01*
X166594157Y-106456300D01*
X166651134Y-106231305D01*
X166657871Y-106150000D01*
X166670300Y-106000006D01*
X166670300Y-105999993D01*
X166651135Y-105768702D01*
X166651133Y-105768691D01*
X166594157Y-105543699D01*
X166500924Y-105331151D01*
X166373983Y-105136852D01*
X166373980Y-105136849D01*
X166373979Y-105136847D01*
X166216784Y-104966087D01*
X166216779Y-104966083D01*
X166216777Y-104966081D01*
X166033634Y-104823535D01*
X166033628Y-104823531D01*
X165829504Y-104713064D01*
X165829495Y-104713061D01*
X165609984Y-104637702D01*
X165419450Y-104605908D01*
X165381049Y-104599500D01*
X165148951Y-104599500D01*
X165110550Y-104605908D01*
X164920015Y-104637702D01*
X164700504Y-104713061D01*
X164700495Y-104713064D01*
X164496371Y-104823531D01*
X164496365Y-104823535D01*
X164313222Y-104966081D01*
X164313218Y-104966085D01*
X164304866Y-104975158D01*
X164244979Y-105011148D01*
X164175141Y-105009047D01*
X164117525Y-104969522D01*
X164097455Y-104934507D01*
X164068797Y-104857671D01*
X164068793Y-104857664D01*
X163982547Y-104742455D01*
X163982544Y-104742452D01*
X163867335Y-104656206D01*
X163867328Y-104656202D01*
X163732482Y-104605908D01*
X163732483Y-104605908D01*
X163672883Y-104599501D01*
X163672881Y-104599500D01*
X163672873Y-104599500D01*
X163672865Y-104599500D01*
X163499500Y-104599500D01*
X163432461Y-104579815D01*
X163386706Y-104527011D01*
X163375500Y-104475500D01*
X163375500Y-103200928D01*
X163350502Y-103075261D01*
X163350501Y-103075260D01*
X163350501Y-103075256D01*
X163301465Y-102956873D01*
X163287203Y-102935528D01*
X163287083Y-102935349D01*
X163230275Y-102850328D01*
X163230272Y-102850325D01*
X161682575Y-101302629D01*
X161653837Y-101250000D01*
X164363505Y-101250000D01*
X164416239Y-101435349D01*
X164515368Y-101634425D01*
X164649391Y-101811900D01*
X164813738Y-101961721D01*
X165002820Y-102078797D01*
X165002822Y-102078798D01*
X165210195Y-102159135D01*
X165290000Y-102174052D01*
X165790000Y-102174052D01*
X165869804Y-102159135D01*
X166077177Y-102078798D01*
X166077179Y-102078797D01*
X166266261Y-101961721D01*
X166430608Y-101811900D01*
X166564631Y-101634425D01*
X166663760Y-101435349D01*
X166716495Y-101250000D01*
X165790000Y-101250000D01*
X165790000Y-102174052D01*
X165290000Y-102174052D01*
X165290000Y-101250000D01*
X164363505Y-101250000D01*
X161653837Y-101250000D01*
X161649090Y-101241306D01*
X161646785Y-101203510D01*
X161665643Y-101000000D01*
X161661373Y-100953922D01*
X165190000Y-100953922D01*
X165190000Y-101046078D01*
X165213852Y-101135095D01*
X165259930Y-101214905D01*
X165325095Y-101280070D01*
X165404905Y-101326148D01*
X165493922Y-101350000D01*
X165586078Y-101350000D01*
X165675095Y-101326148D01*
X165754905Y-101280070D01*
X165820070Y-101214905D01*
X165866148Y-101135095D01*
X165890000Y-101046078D01*
X165890000Y-100953922D01*
X165866148Y-100864905D01*
X165820070Y-100785095D01*
X165784975Y-100750000D01*
X165790000Y-100750000D01*
X166716495Y-100750000D01*
X166663760Y-100564650D01*
X166564631Y-100365574D01*
X166430608Y-100188099D01*
X166266261Y-100038278D01*
X166077179Y-99921202D01*
X166077177Y-99921201D01*
X165869799Y-99840864D01*
X165790000Y-99825946D01*
X165790000Y-100750000D01*
X165784975Y-100750000D01*
X165754905Y-100719930D01*
X165675095Y-100673852D01*
X165586078Y-100650000D01*
X165493922Y-100650000D01*
X165404905Y-100673852D01*
X165325095Y-100719930D01*
X165259930Y-100785095D01*
X165213852Y-100864905D01*
X165190000Y-100953922D01*
X161661373Y-100953922D01*
X161645115Y-100778464D01*
X161637016Y-100750000D01*
X164363505Y-100750000D01*
X165290000Y-100750000D01*
X165290000Y-99825946D01*
X165210200Y-99840864D01*
X165002822Y-99921201D01*
X165002820Y-99921202D01*
X164813738Y-100038278D01*
X164649391Y-100188099D01*
X164515368Y-100365574D01*
X164416239Y-100564650D01*
X164363505Y-100750000D01*
X161637016Y-100750000D01*
X161584229Y-100564472D01*
X161584224Y-100564461D01*
X161485061Y-100365316D01*
X161485056Y-100365308D01*
X161350979Y-100187761D01*
X161186562Y-100037876D01*
X161186560Y-100037874D01*
X160997404Y-99920754D01*
X160997398Y-99920752D01*
X160789940Y-99840382D01*
X160571243Y-99799500D01*
X160348757Y-99799500D01*
X160130060Y-99840382D01*
X159998864Y-99891207D01*
X159922601Y-99920752D01*
X159922595Y-99920754D01*
X159733439Y-100037874D01*
X159733437Y-100037876D01*
X159569020Y-100187761D01*
X159434943Y-100365308D01*
X159434938Y-100365316D01*
X159335775Y-100564461D01*
X159335769Y-100564476D01*
X159274885Y-100778462D01*
X159274884Y-100778464D01*
X159254357Y-100999999D01*
X157360533Y-100999999D01*
X157408939Y-100904998D01*
X157484334Y-100672959D01*
X157502225Y-100560000D01*
X155876621Y-100560000D01*
X155895599Y-100514182D01*
X155922500Y-100378944D01*
X155922500Y-100241056D01*
X155895599Y-100105818D01*
X155876621Y-100060000D01*
X157502225Y-100060000D01*
X157484334Y-99947040D01*
X157408939Y-99715001D01*
X157298178Y-99497622D01*
X157154771Y-99300240D01*
X156982259Y-99127728D01*
X156784877Y-98984321D01*
X156567498Y-98873560D01*
X156335459Y-98798165D01*
X156094493Y-98760000D01*
X155472500Y-98760000D01*
X155472500Y-99655879D01*
X155426682Y-99636901D01*
X155291444Y-99610000D01*
X155153556Y-99610000D01*
X155018318Y-99636901D01*
X154972500Y-99655879D01*
X154972500Y-98760000D01*
X154350507Y-98760000D01*
X154109540Y-98798165D01*
X153877501Y-98873560D01*
X153660122Y-98984321D01*
X153462740Y-99127728D01*
X153290228Y-99300240D01*
X153146821Y-99497622D01*
X153036060Y-99715001D01*
X152960665Y-99947040D01*
X152942775Y-100060000D01*
X143610500Y-100060000D01*
X143610500Y-99585807D01*
X143630185Y-99518768D01*
X143646819Y-99498126D01*
X143708127Y-99436818D01*
X143769450Y-99403333D01*
X143795808Y-99400499D01*
X145172871Y-99400499D01*
X145172872Y-99400499D01*
X145232483Y-99394091D01*
X145367331Y-99343796D01*
X145482546Y-99257546D01*
X145568796Y-99142331D01*
X145570840Y-99136852D01*
X145597455Y-99065493D01*
X145639326Y-99009559D01*
X145704790Y-98985141D01*
X145773063Y-98999992D01*
X145804866Y-99024843D01*
X145812302Y-99032920D01*
X145813215Y-99033912D01*
X145813222Y-99033918D01*
X145996365Y-99176464D01*
X145996371Y-99176468D01*
X145996374Y-99176470D01*
X146200497Y-99286936D01*
X146286425Y-99316435D01*
X146420015Y-99362297D01*
X146420017Y-99362297D01*
X146420019Y-99362298D01*
X146648951Y-99400500D01*
X146648952Y-99400500D01*
X146881048Y-99400500D01*
X146881049Y-99400500D01*
X147109981Y-99362298D01*
X147329503Y-99286936D01*
X147533626Y-99176470D01*
X147566993Y-99150500D01*
X147663666Y-99075256D01*
X147716784Y-99033913D01*
X147873979Y-98863153D01*
X148000924Y-98668849D01*
X148094157Y-98456300D01*
X148151134Y-98231305D01*
X148151135Y-98231297D01*
X148170300Y-98000006D01*
X148170300Y-97999993D01*
X148151135Y-97768702D01*
X148151133Y-97768691D01*
X148094157Y-97543699D01*
X148000924Y-97331151D01*
X147873983Y-97136852D01*
X147873980Y-97136849D01*
X147873979Y-97136847D01*
X147716784Y-96966087D01*
X147716779Y-96966083D01*
X147716777Y-96966081D01*
X147533634Y-96823535D01*
X147533628Y-96823531D01*
X147329504Y-96713064D01*
X147329495Y-96713061D01*
X147109984Y-96637702D01*
X146919450Y-96605908D01*
X146881049Y-96599500D01*
X146648951Y-96599500D01*
X146610550Y-96605908D01*
X146420015Y-96637702D01*
X146200504Y-96713061D01*
X146200495Y-96713064D01*
X145996371Y-96823531D01*
X145996365Y-96823535D01*
X145813222Y-96966081D01*
X145813218Y-96966085D01*
X145804866Y-96975158D01*
X145744979Y-97011148D01*
X145675141Y-97009047D01*
X145617525Y-96969522D01*
X145597455Y-96934507D01*
X145568797Y-96857671D01*
X145568793Y-96857664D01*
X145482547Y-96742455D01*
X145482544Y-96742452D01*
X145367335Y-96656206D01*
X145367328Y-96656202D01*
X145232482Y-96605908D01*
X145232483Y-96605908D01*
X145172883Y-96599501D01*
X145172881Y-96599500D01*
X145172873Y-96599500D01*
X145172864Y-96599500D01*
X143277129Y-96599500D01*
X143277123Y-96599501D01*
X143217516Y-96605908D01*
X143082671Y-96656202D01*
X143082664Y-96656206D01*
X142967455Y-96742452D01*
X142967452Y-96742455D01*
X142881206Y-96857664D01*
X142881202Y-96857671D01*
X142830908Y-96992517D01*
X142824501Y-97052116D01*
X142824500Y-97052135D01*
X142824500Y-98429191D01*
X142804815Y-98496230D01*
X142788181Y-98516872D01*
X142454724Y-98850329D01*
X142446160Y-98863147D01*
X142398480Y-98934507D01*
X142397529Y-98935930D01*
X142397527Y-98935933D01*
X142383536Y-98956870D01*
X142383533Y-98956875D01*
X142334499Y-99075255D01*
X142334497Y-99075261D01*
X142309500Y-99200928D01*
X142309500Y-101421712D01*
X142289815Y-101488751D01*
X142250780Y-101527137D01*
X142233441Y-101537872D01*
X142233437Y-101537876D01*
X142069020Y-101687761D01*
X141934943Y-101865308D01*
X141934938Y-101865316D01*
X141835775Y-102064461D01*
X141835769Y-102064476D01*
X141774885Y-102278462D01*
X141774884Y-102278464D01*
X141754357Y-102499999D01*
X141754357Y-102500000D01*
X141774884Y-102721535D01*
X141774885Y-102721537D01*
X141835769Y-102935523D01*
X141835775Y-102935538D01*
X141934938Y-103134683D01*
X141934943Y-103134691D01*
X142069020Y-103312238D01*
X142233437Y-103462123D01*
X142233439Y-103462125D01*
X142422595Y-103579245D01*
X142422596Y-103579245D01*
X142422599Y-103579247D01*
X142564898Y-103634374D01*
X142620298Y-103676946D01*
X142643889Y-103742713D01*
X142628178Y-103810793D01*
X142578154Y-103859572D01*
X142564906Y-103865622D01*
X142458693Y-103906769D01*
X142422601Y-103920752D01*
X142422595Y-103920754D01*
X142233439Y-104037874D01*
X142233437Y-104037876D01*
X142069020Y-104187761D01*
X141934943Y-104365308D01*
X141934938Y-104365316D01*
X141835775Y-104564461D01*
X141835769Y-104564476D01*
X141774885Y-104778462D01*
X141774884Y-104778464D01*
X141754357Y-104999999D01*
X141754357Y-105000000D01*
X141774884Y-105221535D01*
X141774885Y-105221537D01*
X141835769Y-105435523D01*
X141835775Y-105435538D01*
X141934938Y-105634683D01*
X141934943Y-105634691D01*
X142069020Y-105812238D01*
X142233433Y-105962120D01*
X142233435Y-105962122D01*
X142233438Y-105962124D01*
X142250775Y-105972859D01*
X142297412Y-106024884D01*
X142309500Y-106078286D01*
X142309500Y-113494192D01*
X142289815Y-113561231D01*
X142273181Y-113581873D01*
X140291872Y-115563181D01*
X140230549Y-115596666D01*
X140204191Y-115599500D01*
X138827129Y-115599500D01*
X138827123Y-115599501D01*
X138767516Y-115605908D01*
X138632671Y-115656202D01*
X138632664Y-115656206D01*
X138517455Y-115742452D01*
X138517452Y-115742455D01*
X138431206Y-115857664D01*
X138431203Y-115857670D01*
X138402544Y-115934508D01*
X138360672Y-115990441D01*
X138295208Y-116014858D01*
X138226935Y-116000006D01*
X138195135Y-115975158D01*
X138186784Y-115966087D01*
X138186778Y-115966082D01*
X138186777Y-115966081D01*
X138003634Y-115823535D01*
X138003628Y-115823531D01*
X137799504Y-115713064D01*
X137799495Y-115713061D01*
X137579984Y-115637702D01*
X137389450Y-115605908D01*
X137351049Y-115599500D01*
X137118951Y-115599500D01*
X137080550Y-115605908D01*
X136890015Y-115637702D01*
X136670504Y-115713061D01*
X136670495Y-115713064D01*
X136466371Y-115823531D01*
X136466365Y-115823535D01*
X136283222Y-115966081D01*
X136283219Y-115966084D01*
X136283216Y-115966086D01*
X136283216Y-115966087D01*
X136126021Y-116136847D01*
X136126019Y-116136849D01*
X136126019Y-116136850D01*
X135999075Y-116331151D01*
X135905842Y-116543699D01*
X135848866Y-116768691D01*
X135848864Y-116768702D01*
X135829700Y-116999993D01*
X135829700Y-117000006D01*
X135848864Y-117231297D01*
X135848866Y-117231308D01*
X135905842Y-117456300D01*
X135999075Y-117668848D01*
X136083541Y-117798133D01*
X136103728Y-117865022D01*
X136084548Y-117932208D01*
X136032090Y-117978358D01*
X135963008Y-117988821D01*
X135899236Y-117960275D01*
X135897402Y-117958678D01*
X127928215Y-110882792D01*
X127927930Y-110882538D01*
X126380468Y-109499993D01*
X128329700Y-109499993D01*
X128329700Y-109500006D01*
X128348864Y-109731297D01*
X128348866Y-109731308D01*
X128405842Y-109956300D01*
X128499075Y-110168848D01*
X128626016Y-110363147D01*
X128626019Y-110363151D01*
X128626021Y-110363153D01*
X128783216Y-110533913D01*
X128783219Y-110533915D01*
X128783222Y-110533918D01*
X128966365Y-110676464D01*
X128966371Y-110676468D01*
X128966374Y-110676470D01*
X129170497Y-110786936D01*
X129235277Y-110809175D01*
X129390015Y-110862297D01*
X129390017Y-110862297D01*
X129390019Y-110862298D01*
X129618951Y-110900500D01*
X129618952Y-110900500D01*
X129851048Y-110900500D01*
X129851049Y-110900500D01*
X130079981Y-110862298D01*
X130299503Y-110786936D01*
X130503626Y-110676470D01*
X130686784Y-110533913D01*
X130695130Y-110524846D01*
X130755010Y-110488854D01*
X130824849Y-110490949D01*
X130882468Y-110530469D01*
X130902544Y-110565491D01*
X130931203Y-110642330D01*
X130931206Y-110642335D01*
X131017452Y-110757544D01*
X131017455Y-110757547D01*
X131132664Y-110843793D01*
X131132671Y-110843797D01*
X131267517Y-110894091D01*
X131267516Y-110894091D01*
X131274444Y-110894835D01*
X131327127Y-110900500D01*
X133222872Y-110900499D01*
X133282483Y-110894091D01*
X133417331Y-110843796D01*
X133532546Y-110757546D01*
X133618796Y-110642331D01*
X133669091Y-110507483D01*
X133675500Y-110447873D01*
X133675500Y-110434808D01*
X133695185Y-110367769D01*
X133747989Y-110322014D01*
X133817147Y-110312070D01*
X133880703Y-110341095D01*
X133887181Y-110347127D01*
X134237424Y-110697370D01*
X134270909Y-110758693D01*
X134273214Y-110796492D01*
X134254357Y-110999998D01*
X134254357Y-111000000D01*
X134274884Y-111221535D01*
X134274885Y-111221537D01*
X134335769Y-111435523D01*
X134335775Y-111435538D01*
X134434938Y-111634683D01*
X134434943Y-111634691D01*
X134569020Y-111812238D01*
X134733437Y-111962123D01*
X134733439Y-111962125D01*
X134922595Y-112079245D01*
X134922596Y-112079245D01*
X134922599Y-112079247D01*
X135130060Y-112159618D01*
X135348757Y-112200500D01*
X135348759Y-112200500D01*
X135571241Y-112200500D01*
X135571243Y-112200500D01*
X135789940Y-112159618D01*
X135997401Y-112079247D01*
X136186562Y-111962124D01*
X136350981Y-111812236D01*
X136485058Y-111634689D01*
X136584229Y-111435528D01*
X136637016Y-111250000D01*
X139363505Y-111250000D01*
X139416239Y-111435349D01*
X139515368Y-111634425D01*
X139649391Y-111811900D01*
X139813738Y-111961721D01*
X140002820Y-112078797D01*
X140002822Y-112078798D01*
X140210195Y-112159135D01*
X140290000Y-112174052D01*
X140790000Y-112174052D01*
X140869804Y-112159135D01*
X141077177Y-112078798D01*
X141077179Y-112078797D01*
X141266261Y-111961721D01*
X141430608Y-111811900D01*
X141564631Y-111634425D01*
X141663760Y-111435349D01*
X141716495Y-111250000D01*
X140790000Y-111250000D01*
X140790000Y-112174052D01*
X140290000Y-112174052D01*
X140290000Y-111250000D01*
X139363505Y-111250000D01*
X136637016Y-111250000D01*
X136645115Y-111221536D01*
X136665643Y-111000000D01*
X136661373Y-110953922D01*
X140190000Y-110953922D01*
X140190000Y-111046078D01*
X140213852Y-111135095D01*
X140259930Y-111214905D01*
X140325095Y-111280070D01*
X140404905Y-111326148D01*
X140493922Y-111350000D01*
X140586078Y-111350000D01*
X140675095Y-111326148D01*
X140754905Y-111280070D01*
X140820070Y-111214905D01*
X140866148Y-111135095D01*
X140890000Y-111046078D01*
X140890000Y-110953922D01*
X140866148Y-110864905D01*
X140820070Y-110785095D01*
X140784975Y-110750000D01*
X140790000Y-110750000D01*
X141716495Y-110750000D01*
X141663760Y-110564650D01*
X141564631Y-110365574D01*
X141430608Y-110188099D01*
X141266261Y-110038278D01*
X141077179Y-109921202D01*
X141077177Y-109921201D01*
X140869799Y-109840864D01*
X140790000Y-109825946D01*
X140790000Y-110750000D01*
X140784975Y-110750000D01*
X140754905Y-110719930D01*
X140675095Y-110673852D01*
X140586078Y-110650000D01*
X140493922Y-110650000D01*
X140404905Y-110673852D01*
X140325095Y-110719930D01*
X140259930Y-110785095D01*
X140213852Y-110864905D01*
X140190000Y-110953922D01*
X136661373Y-110953922D01*
X136656519Y-110901540D01*
X136645115Y-110778464D01*
X136645114Y-110778462D01*
X136639489Y-110758693D01*
X136637016Y-110750000D01*
X139363505Y-110750000D01*
X140290000Y-110750000D01*
X140290000Y-109825946D01*
X140210200Y-109840864D01*
X140002822Y-109921201D01*
X140002820Y-109921202D01*
X139813738Y-110038278D01*
X139649391Y-110188099D01*
X139515368Y-110365574D01*
X139416239Y-110564650D01*
X139363505Y-110750000D01*
X136637016Y-110750000D01*
X136584229Y-110564472D01*
X136578086Y-110552135D01*
X136485061Y-110365316D01*
X136485056Y-110365308D01*
X136350979Y-110187761D01*
X136186562Y-110037876D01*
X136186560Y-110037874D01*
X135997404Y-109920754D01*
X135997398Y-109920752D01*
X135987393Y-109916876D01*
X135789940Y-109840382D01*
X135571243Y-109799500D01*
X135348757Y-109799500D01*
X135313246Y-109806137D01*
X135270358Y-109814155D01*
X135200843Y-109807123D01*
X135159893Y-109779947D01*
X134374674Y-108994727D01*
X134374673Y-108994726D01*
X134374669Y-108994723D01*
X134268127Y-108923535D01*
X134149744Y-108874499D01*
X134149738Y-108874497D01*
X134024071Y-108849500D01*
X134024069Y-108849500D01*
X133799499Y-108849500D01*
X133732460Y-108829815D01*
X133686705Y-108777011D01*
X133675499Y-108725500D01*
X133675499Y-108552129D01*
X133675498Y-108552123D01*
X133671492Y-108514858D01*
X133669091Y-108492517D01*
X133659233Y-108466087D01*
X133618797Y-108357671D01*
X133618793Y-108357664D01*
X133532547Y-108242455D01*
X133532544Y-108242452D01*
X133417335Y-108156206D01*
X133417328Y-108156202D01*
X133282482Y-108105908D01*
X133282483Y-108105908D01*
X133222883Y-108099501D01*
X133222881Y-108099500D01*
X133222873Y-108099500D01*
X133222864Y-108099500D01*
X131327129Y-108099500D01*
X131327123Y-108099501D01*
X131267516Y-108105908D01*
X131132671Y-108156202D01*
X131132664Y-108156206D01*
X131017455Y-108242452D01*
X131017452Y-108242455D01*
X130931206Y-108357664D01*
X130931203Y-108357670D01*
X130902544Y-108434508D01*
X130860672Y-108490441D01*
X130795208Y-108514858D01*
X130726935Y-108500006D01*
X130695135Y-108475158D01*
X130686784Y-108466087D01*
X130686778Y-108466082D01*
X130686777Y-108466081D01*
X130503634Y-108323535D01*
X130503628Y-108323531D01*
X130299504Y-108213064D01*
X130299495Y-108213061D01*
X130079984Y-108137702D01*
X129889450Y-108105908D01*
X129851049Y-108099500D01*
X129618951Y-108099500D01*
X129580550Y-108105908D01*
X129390015Y-108137702D01*
X129170504Y-108213061D01*
X129170495Y-108213064D01*
X128966371Y-108323531D01*
X128966365Y-108323535D01*
X128783222Y-108466081D01*
X128783219Y-108466084D01*
X128783216Y-108466086D01*
X128783216Y-108466087D01*
X128738319Y-108514858D01*
X128626016Y-108636852D01*
X128499075Y-108831151D01*
X128405842Y-109043699D01*
X128348866Y-109268691D01*
X128348864Y-109268702D01*
X128329700Y-109499993D01*
X126380468Y-109499993D01*
X122775462Y-106279181D01*
X122772228Y-106276187D01*
X119878774Y-103499993D01*
X122329700Y-103499993D01*
X122329700Y-103500006D01*
X122348864Y-103731297D01*
X122348866Y-103731308D01*
X122405842Y-103956300D01*
X122499075Y-104168848D01*
X122626016Y-104363147D01*
X122626019Y-104363151D01*
X122626021Y-104363153D01*
X122783216Y-104533913D01*
X122783219Y-104533915D01*
X122783222Y-104533918D01*
X122966365Y-104676464D01*
X122966371Y-104676468D01*
X122966374Y-104676470D01*
X123170497Y-104786936D01*
X123277092Y-104823530D01*
X123390015Y-104862297D01*
X123390017Y-104862297D01*
X123390019Y-104862298D01*
X123618951Y-104900500D01*
X123618952Y-104900500D01*
X123851048Y-104900500D01*
X123851049Y-104900500D01*
X124079981Y-104862298D01*
X124299503Y-104786936D01*
X124503626Y-104676470D01*
X124529667Y-104656202D01*
X124647516Y-104564476D01*
X124686784Y-104533913D01*
X124695130Y-104524846D01*
X124755010Y-104488854D01*
X124824849Y-104490949D01*
X124882468Y-104530469D01*
X124902544Y-104565491D01*
X124931203Y-104642330D01*
X124931206Y-104642335D01*
X125017452Y-104757544D01*
X125017455Y-104757547D01*
X125132664Y-104843793D01*
X125132671Y-104843797D01*
X125267517Y-104894091D01*
X125267516Y-104894091D01*
X125274444Y-104894835D01*
X125327127Y-104900500D01*
X127222872Y-104900499D01*
X127282483Y-104894091D01*
X127417331Y-104843796D01*
X127532546Y-104757546D01*
X127560261Y-104720522D01*
X127616194Y-104678653D01*
X127685886Y-104673669D01*
X127747208Y-104707154D01*
X128237424Y-105197370D01*
X128270909Y-105258693D01*
X128273214Y-105296492D01*
X128254357Y-105499998D01*
X128254357Y-105500000D01*
X128274884Y-105721535D01*
X128274885Y-105721537D01*
X128335769Y-105935523D01*
X128335775Y-105935538D01*
X128434938Y-106134683D01*
X128434943Y-106134691D01*
X128569020Y-106312238D01*
X128733437Y-106462123D01*
X128733439Y-106462125D01*
X128922595Y-106579245D01*
X128922596Y-106579245D01*
X128922599Y-106579247D01*
X129130060Y-106659618D01*
X129348757Y-106700500D01*
X129348759Y-106700500D01*
X129571241Y-106700500D01*
X129571243Y-106700500D01*
X129789940Y-106659618D01*
X129997401Y-106579247D01*
X130186562Y-106462124D01*
X130350981Y-106312236D01*
X130485058Y-106134689D01*
X130584229Y-105935528D01*
X130637016Y-105750000D01*
X133363505Y-105750000D01*
X133416239Y-105935349D01*
X133515368Y-106134425D01*
X133649391Y-106311900D01*
X133813738Y-106461721D01*
X134002820Y-106578797D01*
X134002822Y-106578798D01*
X134210195Y-106659135D01*
X134290000Y-106674052D01*
X134790000Y-106674052D01*
X134869804Y-106659135D01*
X135077177Y-106578798D01*
X135077179Y-106578797D01*
X135266261Y-106461721D01*
X135430608Y-106311900D01*
X135564631Y-106134425D01*
X135663760Y-105935349D01*
X135716495Y-105750000D01*
X134790000Y-105750000D01*
X134790000Y-106674052D01*
X134290000Y-106674052D01*
X134290000Y-105750000D01*
X133363505Y-105750000D01*
X130637016Y-105750000D01*
X130645115Y-105721536D01*
X130665643Y-105500000D01*
X130661373Y-105453922D01*
X134190000Y-105453922D01*
X134190000Y-105546078D01*
X134213852Y-105635095D01*
X134259930Y-105714905D01*
X134325095Y-105780070D01*
X134404905Y-105826148D01*
X134493922Y-105850000D01*
X134586078Y-105850000D01*
X134675095Y-105826148D01*
X134754905Y-105780070D01*
X134820070Y-105714905D01*
X134866148Y-105635095D01*
X134890000Y-105546078D01*
X134890000Y-105453922D01*
X134866148Y-105364905D01*
X134820070Y-105285095D01*
X134784975Y-105250000D01*
X134790000Y-105250000D01*
X135716495Y-105250000D01*
X135663760Y-105064650D01*
X135564631Y-104865574D01*
X135430608Y-104688099D01*
X135266261Y-104538278D01*
X135077179Y-104421202D01*
X135077177Y-104421201D01*
X134869799Y-104340864D01*
X134790000Y-104325946D01*
X134790000Y-105250000D01*
X134784975Y-105250000D01*
X134754905Y-105219930D01*
X134675095Y-105173852D01*
X134586078Y-105150000D01*
X134493922Y-105150000D01*
X134404905Y-105173852D01*
X134325095Y-105219930D01*
X134259930Y-105285095D01*
X134213852Y-105364905D01*
X134190000Y-105453922D01*
X130661373Y-105453922D01*
X130645115Y-105278464D01*
X130637016Y-105250000D01*
X133363505Y-105250000D01*
X134290000Y-105250000D01*
X134290000Y-104325946D01*
X134210200Y-104340864D01*
X134002822Y-104421201D01*
X134002820Y-104421202D01*
X133813738Y-104538278D01*
X133649391Y-104688099D01*
X133515368Y-104865574D01*
X133416239Y-105064650D01*
X133363505Y-105250000D01*
X130637016Y-105250000D01*
X130584229Y-105064472D01*
X130578086Y-105052135D01*
X130485061Y-104865316D01*
X130485056Y-104865308D01*
X130350979Y-104687761D01*
X130186562Y-104537876D01*
X130186560Y-104537874D01*
X129997404Y-104420754D01*
X129997398Y-104420752D01*
X129789940Y-104340382D01*
X129571243Y-104299500D01*
X129348757Y-104299500D01*
X129319297Y-104305007D01*
X129270357Y-104314155D01*
X129200842Y-104307123D01*
X129159892Y-104279947D01*
X127874674Y-102994727D01*
X127874673Y-102994726D01*
X127874669Y-102994723D01*
X127768127Y-102923535D01*
X127768125Y-102923534D01*
X127768122Y-102923532D01*
X127752042Y-102916871D01*
X127697640Y-102873029D01*
X127675578Y-102806734D01*
X127675499Y-102802312D01*
X127675499Y-102552129D01*
X127675498Y-102552123D01*
X127674848Y-102546078D01*
X127669091Y-102492517D01*
X127659233Y-102466087D01*
X127618797Y-102357671D01*
X127618793Y-102357664D01*
X127532547Y-102242455D01*
X127532544Y-102242452D01*
X127417335Y-102156206D01*
X127417328Y-102156202D01*
X127282482Y-102105908D01*
X127282483Y-102105908D01*
X127222883Y-102099501D01*
X127222881Y-102099500D01*
X127222873Y-102099500D01*
X127222864Y-102099500D01*
X125327129Y-102099500D01*
X125327123Y-102099501D01*
X125267516Y-102105908D01*
X125132671Y-102156202D01*
X125132664Y-102156206D01*
X125017455Y-102242452D01*
X125017452Y-102242455D01*
X124931206Y-102357664D01*
X124931203Y-102357670D01*
X124902544Y-102434508D01*
X124860672Y-102490441D01*
X124795208Y-102514858D01*
X124726935Y-102500006D01*
X124695135Y-102475158D01*
X124686784Y-102466087D01*
X124686778Y-102466082D01*
X124686777Y-102466081D01*
X124503634Y-102323535D01*
X124503628Y-102323531D01*
X124299504Y-102213064D01*
X124299495Y-102213061D01*
X124079984Y-102137702D01*
X123889450Y-102105908D01*
X123851049Y-102099500D01*
X123618951Y-102099500D01*
X123580550Y-102105908D01*
X123390015Y-102137702D01*
X123170504Y-102213061D01*
X123170495Y-102213064D01*
X122966371Y-102323531D01*
X122966365Y-102323535D01*
X122783222Y-102466081D01*
X122783219Y-102466084D01*
X122783216Y-102466086D01*
X122783216Y-102466087D01*
X122738319Y-102514858D01*
X122626016Y-102636852D01*
X122499075Y-102831151D01*
X122405842Y-103043699D01*
X122348866Y-103268691D01*
X122348864Y-103268702D01*
X122329700Y-103499993D01*
X119878774Y-103499993D01*
X119295657Y-102940507D01*
X119287573Y-102931979D01*
X119130750Y-102750000D01*
X118657212Y-102200499D01*
X116469497Y-99661845D01*
X116461758Y-99651882D01*
X115657538Y-98499993D01*
X116829700Y-98499993D01*
X116829700Y-98500006D01*
X116848864Y-98731297D01*
X116848866Y-98731308D01*
X116905842Y-98956300D01*
X116999075Y-99168848D01*
X117126016Y-99363147D01*
X117126019Y-99363151D01*
X117126021Y-99363153D01*
X117283216Y-99533913D01*
X117283219Y-99533915D01*
X117283222Y-99533918D01*
X117466365Y-99676464D01*
X117466371Y-99676468D01*
X117466374Y-99676470D01*
X117670497Y-99786936D01*
X117784129Y-99825946D01*
X117890015Y-99862297D01*
X117890017Y-99862297D01*
X117890019Y-99862298D01*
X118118951Y-99900500D01*
X118118952Y-99900500D01*
X118351048Y-99900500D01*
X118351049Y-99900500D01*
X118579981Y-99862298D01*
X118799503Y-99786936D01*
X119003626Y-99676470D01*
X119028566Y-99657059D01*
X119146212Y-99565491D01*
X119186784Y-99533913D01*
X119195130Y-99524846D01*
X119255010Y-99488854D01*
X119324849Y-99490949D01*
X119382468Y-99530469D01*
X119402544Y-99565491D01*
X119431203Y-99642330D01*
X119431206Y-99642335D01*
X119517452Y-99757544D01*
X119517455Y-99757547D01*
X119632664Y-99843793D01*
X119632671Y-99843797D01*
X119767517Y-99894091D01*
X119767516Y-99894091D01*
X119774444Y-99894835D01*
X119827127Y-99900500D01*
X121722872Y-99900499D01*
X121782483Y-99894091D01*
X121917331Y-99843796D01*
X122032546Y-99757546D01*
X122118796Y-99642331D01*
X122155978Y-99542639D01*
X122197848Y-99486706D01*
X122263312Y-99462288D01*
X122331585Y-99477139D01*
X122380991Y-99526544D01*
X122383160Y-99530699D01*
X122434941Y-99634687D01*
X122434943Y-99634691D01*
X122569020Y-99812238D01*
X122733437Y-99962123D01*
X122733439Y-99962125D01*
X122922595Y-100079245D01*
X122922596Y-100079245D01*
X122922599Y-100079247D01*
X123130060Y-100159618D01*
X123348757Y-100200500D01*
X123348759Y-100200500D01*
X123571241Y-100200500D01*
X123571243Y-100200500D01*
X123789940Y-100159618D01*
X123997401Y-100079247D01*
X124186562Y-99962124D01*
X124350981Y-99812236D01*
X124485058Y-99634689D01*
X124584229Y-99435528D01*
X124637016Y-99250000D01*
X127363505Y-99250000D01*
X127416239Y-99435349D01*
X127515368Y-99634425D01*
X127649391Y-99811900D01*
X127813738Y-99961721D01*
X128002820Y-100078797D01*
X128002822Y-100078798D01*
X128210195Y-100159135D01*
X128290000Y-100174052D01*
X128790000Y-100174052D01*
X128869804Y-100159135D01*
X129077177Y-100078798D01*
X129077179Y-100078797D01*
X129266261Y-99961721D01*
X129430608Y-99811900D01*
X129564631Y-99634425D01*
X129663760Y-99435349D01*
X129716495Y-99250000D01*
X128790000Y-99250000D01*
X128790000Y-100174052D01*
X128290000Y-100174052D01*
X128290000Y-99250000D01*
X127363505Y-99250000D01*
X124637016Y-99250000D01*
X124645115Y-99221536D01*
X124665643Y-99000000D01*
X124661646Y-98956870D01*
X124661373Y-98953922D01*
X128190000Y-98953922D01*
X128190000Y-99046078D01*
X128213852Y-99135095D01*
X128259930Y-99214905D01*
X128325095Y-99280070D01*
X128404905Y-99326148D01*
X128493922Y-99350000D01*
X128586078Y-99350000D01*
X128675095Y-99326148D01*
X128754905Y-99280070D01*
X128820070Y-99214905D01*
X128866148Y-99135095D01*
X128890000Y-99046078D01*
X128890000Y-98953922D01*
X128866148Y-98864905D01*
X128820070Y-98785095D01*
X128784975Y-98750000D01*
X128790000Y-98750000D01*
X129716495Y-98750000D01*
X129663760Y-98564650D01*
X129564631Y-98365574D01*
X129430608Y-98188099D01*
X129266261Y-98038278D01*
X129077179Y-97921202D01*
X129077177Y-97921201D01*
X128869799Y-97840864D01*
X128790000Y-97825946D01*
X128790000Y-98750000D01*
X128784975Y-98750000D01*
X128754905Y-98719930D01*
X128675095Y-98673852D01*
X128586078Y-98650000D01*
X128493922Y-98650000D01*
X128404905Y-98673852D01*
X128325095Y-98719930D01*
X128259930Y-98785095D01*
X128213852Y-98864905D01*
X128190000Y-98953922D01*
X124661373Y-98953922D01*
X124645115Y-98778464D01*
X124645114Y-98778462D01*
X124639861Y-98760000D01*
X124637016Y-98750000D01*
X127363505Y-98750000D01*
X128290000Y-98750000D01*
X128290000Y-97825946D01*
X128210200Y-97840864D01*
X128002822Y-97921201D01*
X128002820Y-97921202D01*
X127813738Y-98038278D01*
X127649391Y-98188099D01*
X127515368Y-98365574D01*
X127416239Y-98564650D01*
X127363505Y-98750000D01*
X124637016Y-98750000D01*
X124584229Y-98564472D01*
X124584224Y-98564461D01*
X124485061Y-98365316D01*
X124485056Y-98365308D01*
X124350979Y-98187761D01*
X124186562Y-98037876D01*
X124186560Y-98037874D01*
X123997404Y-97920754D01*
X123997398Y-97920752D01*
X123789940Y-97840382D01*
X123571243Y-97799500D01*
X123348757Y-97799500D01*
X123207285Y-97825946D01*
X123130054Y-97840383D01*
X123112170Y-97847312D01*
X123043185Y-97853302D01*
X123024071Y-97849500D01*
X123024069Y-97849500D01*
X122299499Y-97849500D01*
X122232460Y-97829815D01*
X122186705Y-97777011D01*
X122175499Y-97725500D01*
X122175499Y-97552129D01*
X122175498Y-97552123D01*
X122171492Y-97514858D01*
X122169091Y-97492517D01*
X122159233Y-97466087D01*
X122118797Y-97357671D01*
X122118793Y-97357664D01*
X122032547Y-97242455D01*
X122032544Y-97242452D01*
X121917335Y-97156206D01*
X121917328Y-97156202D01*
X121782482Y-97105908D01*
X121782483Y-97105908D01*
X121722883Y-97099501D01*
X121722881Y-97099500D01*
X121722873Y-97099500D01*
X121722864Y-97099500D01*
X119827129Y-97099500D01*
X119827123Y-97099501D01*
X119767516Y-97105908D01*
X119632671Y-97156202D01*
X119632664Y-97156206D01*
X119517455Y-97242452D01*
X119517452Y-97242455D01*
X119431206Y-97357664D01*
X119431203Y-97357670D01*
X119402544Y-97434508D01*
X119360672Y-97490441D01*
X119295208Y-97514858D01*
X119226935Y-97500006D01*
X119195135Y-97475158D01*
X119186784Y-97466087D01*
X119186778Y-97466082D01*
X119186777Y-97466081D01*
X119003634Y-97323535D01*
X119003628Y-97323531D01*
X118799504Y-97213064D01*
X118799495Y-97213061D01*
X118579984Y-97137702D01*
X118389450Y-97105908D01*
X118351049Y-97099500D01*
X118118951Y-97099500D01*
X118080550Y-97105908D01*
X117890015Y-97137702D01*
X117670504Y-97213061D01*
X117670495Y-97213064D01*
X117466371Y-97323531D01*
X117466365Y-97323535D01*
X117283222Y-97466081D01*
X117283219Y-97466084D01*
X117283216Y-97466086D01*
X117283216Y-97466087D01*
X117238319Y-97514858D01*
X117126016Y-97636852D01*
X116999075Y-97831151D01*
X116905842Y-98043699D01*
X116848866Y-98268691D01*
X116848864Y-98268702D01*
X116829700Y-98499993D01*
X115657538Y-98499993D01*
X114759037Y-97213064D01*
X114236207Y-96464212D01*
X114228158Y-96450995D01*
X114106575Y-96220052D01*
X113383541Y-94846666D01*
X112591719Y-93342620D01*
X112584321Y-93325581D01*
X112297244Y-92499993D01*
X113329700Y-92499993D01*
X113329700Y-92500006D01*
X113348864Y-92731297D01*
X113348866Y-92731308D01*
X113405842Y-92956300D01*
X113499075Y-93168848D01*
X113626016Y-93363147D01*
X113626019Y-93363151D01*
X113626021Y-93363153D01*
X113783216Y-93533913D01*
X113783219Y-93533915D01*
X113783222Y-93533918D01*
X113966365Y-93676464D01*
X113966371Y-93676468D01*
X113966374Y-93676470D01*
X114170497Y-93786936D01*
X114284129Y-93825946D01*
X114390015Y-93862297D01*
X114390017Y-93862297D01*
X114390019Y-93862298D01*
X114618951Y-93900500D01*
X114618952Y-93900500D01*
X114851048Y-93900500D01*
X114851049Y-93900500D01*
X115079981Y-93862298D01*
X115299503Y-93786936D01*
X115503626Y-93676470D01*
X115509136Y-93672182D01*
X115678953Y-93540008D01*
X115686784Y-93533913D01*
X115695130Y-93524846D01*
X115755010Y-93488854D01*
X115824849Y-93490949D01*
X115882468Y-93530469D01*
X115902544Y-93565491D01*
X115931203Y-93642330D01*
X115931206Y-93642335D01*
X116017452Y-93757544D01*
X116017455Y-93757547D01*
X116132664Y-93843793D01*
X116132671Y-93843797D01*
X116267517Y-93894091D01*
X116267516Y-93894091D01*
X116274444Y-93894835D01*
X116327127Y-93900500D01*
X118222872Y-93900499D01*
X118282483Y-93894091D01*
X118417331Y-93843796D01*
X118532546Y-93757546D01*
X118618796Y-93642331D01*
X118669091Y-93507483D01*
X118675500Y-93447873D01*
X118675500Y-93274500D01*
X118695185Y-93207461D01*
X118747989Y-93161706D01*
X118799500Y-93150500D01*
X119161033Y-93150500D01*
X119228072Y-93170185D01*
X119273827Y-93222989D01*
X119280299Y-93240565D01*
X119335770Y-93435525D01*
X119335775Y-93435538D01*
X119434938Y-93634683D01*
X119434943Y-93634691D01*
X119569020Y-93812238D01*
X119733437Y-93962123D01*
X119733439Y-93962125D01*
X119922595Y-94079245D01*
X119922596Y-94079245D01*
X119922599Y-94079247D01*
X120130060Y-94159618D01*
X120348757Y-94200500D01*
X120348759Y-94200500D01*
X120571241Y-94200500D01*
X120571243Y-94200500D01*
X120789940Y-94159618D01*
X120997401Y-94079247D01*
X121186562Y-93962124D01*
X121350981Y-93812236D01*
X121485058Y-93634689D01*
X121584229Y-93435528D01*
X121637016Y-93250000D01*
X124363505Y-93250000D01*
X124416239Y-93435349D01*
X124515368Y-93634425D01*
X124649391Y-93811900D01*
X124813738Y-93961721D01*
X125002820Y-94078797D01*
X125002822Y-94078798D01*
X125210195Y-94159135D01*
X125290000Y-94174052D01*
X125790000Y-94174052D01*
X125869804Y-94159135D01*
X126077177Y-94078798D01*
X126077179Y-94078797D01*
X126266261Y-93961721D01*
X126430608Y-93811900D01*
X126477353Y-93750000D01*
X141743505Y-93750000D01*
X141796239Y-93935349D01*
X141895368Y-94134425D01*
X142029391Y-94311900D01*
X142193738Y-94461721D01*
X142382820Y-94578797D01*
X142382822Y-94578798D01*
X142590195Y-94659135D01*
X142670000Y-94674052D01*
X143170000Y-94674052D01*
X143249804Y-94659135D01*
X143457177Y-94578798D01*
X143457179Y-94578797D01*
X143646261Y-94461721D01*
X143810608Y-94311900D01*
X143944631Y-94134425D01*
X144043760Y-93935349D01*
X144096495Y-93750000D01*
X143170000Y-93750000D01*
X143170000Y-94674052D01*
X142670000Y-94674052D01*
X142670000Y-93750000D01*
X141743505Y-93750000D01*
X126477353Y-93750000D01*
X126564631Y-93634425D01*
X126663760Y-93435349D01*
X126716495Y-93250000D01*
X141743505Y-93250000D01*
X142675025Y-93250000D01*
X142639930Y-93285095D01*
X142593852Y-93364905D01*
X142570000Y-93453922D01*
X142570000Y-93546078D01*
X142593852Y-93635095D01*
X142639930Y-93714905D01*
X142705095Y-93780070D01*
X142784905Y-93826148D01*
X142873922Y-93850000D01*
X142966078Y-93850000D01*
X143055095Y-93826148D01*
X143134905Y-93780070D01*
X143200070Y-93714905D01*
X143246148Y-93635095D01*
X143270000Y-93546078D01*
X143270000Y-93499999D01*
X146794357Y-93499999D01*
X146794357Y-93500000D01*
X146814884Y-93721535D01*
X146814885Y-93721537D01*
X146875769Y-93935523D01*
X146875775Y-93935538D01*
X146974938Y-94134683D01*
X146974943Y-94134691D01*
X147109020Y-94312238D01*
X147273433Y-94462120D01*
X147273435Y-94462121D01*
X147273438Y-94462124D01*
X147291629Y-94473387D01*
X147338265Y-94525414D01*
X147347418Y-94558270D01*
X147348311Y-94558093D01*
X147371858Y-94676464D01*
X147371858Y-94676473D01*
X147371860Y-94676473D01*
X147374499Y-94689745D01*
X147423533Y-94808125D01*
X147451179Y-94849500D01*
X147485254Y-94900498D01*
X147494726Y-94914673D01*
X148585325Y-96005272D01*
X148585331Y-96005277D01*
X148691874Y-96076466D01*
X148761221Y-96105189D01*
X148810256Y-96125501D01*
X148810259Y-96125501D01*
X148810260Y-96125502D01*
X148935928Y-96150500D01*
X148935931Y-96150500D01*
X157564071Y-96150500D01*
X157648615Y-96133682D01*
X157689744Y-96125501D01*
X157808127Y-96076465D01*
X157808777Y-96076031D01*
X157914669Y-96005277D01*
X158919947Y-94999999D01*
X162754357Y-94999999D01*
X162754357Y-95000000D01*
X162774884Y-95221535D01*
X162774885Y-95221537D01*
X162835769Y-95435523D01*
X162835775Y-95435538D01*
X162934938Y-95634683D01*
X162934943Y-95634691D01*
X163069020Y-95812238D01*
X163233437Y-95962123D01*
X163233439Y-95962125D01*
X163422595Y-96079245D01*
X163422596Y-96079245D01*
X163422599Y-96079247D01*
X163630060Y-96159618D01*
X163848757Y-96200500D01*
X163848759Y-96200500D01*
X164071242Y-96200500D01*
X164071243Y-96200500D01*
X164112032Y-96192875D01*
X164149639Y-96185845D01*
X164219154Y-96192875D01*
X164260106Y-96220052D01*
X167788181Y-99748127D01*
X167821666Y-99809450D01*
X167824500Y-99835808D01*
X167824500Y-100947870D01*
X167824501Y-100947876D01*
X167830908Y-101007483D01*
X167881202Y-101142328D01*
X167881206Y-101142335D01*
X167967452Y-101257544D01*
X167967455Y-101257547D01*
X168082664Y-101343793D01*
X168082671Y-101343797D01*
X168217517Y-101394091D01*
X168217516Y-101394091D01*
X168224444Y-101394835D01*
X168277127Y-101400500D01*
X170172872Y-101400499D01*
X170232483Y-101394091D01*
X170367331Y-101343796D01*
X170482546Y-101257546D01*
X170568796Y-101142331D01*
X170571495Y-101135095D01*
X170597455Y-101065493D01*
X170639326Y-101009559D01*
X170704790Y-100985141D01*
X170773063Y-100999992D01*
X170804866Y-101024843D01*
X170812302Y-101032920D01*
X170813215Y-101033912D01*
X170813222Y-101033918D01*
X170996365Y-101176464D01*
X170996371Y-101176468D01*
X170996374Y-101176470D01*
X171200497Y-101286936D01*
X171296107Y-101319759D01*
X171420015Y-101362297D01*
X171420017Y-101362297D01*
X171420019Y-101362298D01*
X171648951Y-101400500D01*
X171648952Y-101400500D01*
X171881048Y-101400500D01*
X171881049Y-101400500D01*
X172109981Y-101362298D01*
X172329503Y-101286936D01*
X172533626Y-101176470D01*
X172716784Y-101033913D01*
X172873979Y-100863153D01*
X173000924Y-100668849D01*
X173094157Y-100456300D01*
X173151134Y-100231305D01*
X173163771Y-100078797D01*
X173170300Y-100000006D01*
X173170300Y-99999993D01*
X173151135Y-99768702D01*
X173151133Y-99768691D01*
X173094157Y-99543699D01*
X173000924Y-99331151D01*
X172873983Y-99136852D01*
X172873980Y-99136849D01*
X172873979Y-99136847D01*
X172716784Y-98966087D01*
X172716779Y-98966083D01*
X172716777Y-98966081D01*
X172533634Y-98823535D01*
X172533628Y-98823531D01*
X172329504Y-98713064D01*
X172329495Y-98713061D01*
X172109984Y-98637702D01*
X171919450Y-98605908D01*
X171881049Y-98599500D01*
X171648951Y-98599500D01*
X171610550Y-98605908D01*
X171420015Y-98637702D01*
X171200504Y-98713061D01*
X171200495Y-98713064D01*
X170996371Y-98823531D01*
X170996365Y-98823535D01*
X170813222Y-98966081D01*
X170813218Y-98966085D01*
X170804866Y-98975158D01*
X170744979Y-99011148D01*
X170675141Y-99009047D01*
X170617525Y-98969522D01*
X170597455Y-98934507D01*
X170568797Y-98857671D01*
X170568793Y-98857664D01*
X170482547Y-98742455D01*
X170482544Y-98742452D01*
X170367335Y-98656206D01*
X170367328Y-98656202D01*
X170232482Y-98605908D01*
X170232483Y-98605908D01*
X170172883Y-98599501D01*
X170172881Y-98599500D01*
X170172873Y-98599500D01*
X170172865Y-98599500D01*
X168530808Y-98599500D01*
X168463769Y-98579815D01*
X168443127Y-98563181D01*
X165182575Y-95302629D01*
X165153837Y-95250000D01*
X167863505Y-95250000D01*
X167916239Y-95435349D01*
X168015368Y-95634425D01*
X168149391Y-95811900D01*
X168313738Y-95961721D01*
X168502820Y-96078797D01*
X168502822Y-96078798D01*
X168710195Y-96159135D01*
X168790000Y-96174052D01*
X169290000Y-96174052D01*
X169369804Y-96159135D01*
X169577177Y-96078798D01*
X169577179Y-96078797D01*
X169766261Y-95961721D01*
X169930608Y-95811900D01*
X170064631Y-95634425D01*
X170163760Y-95435349D01*
X170216495Y-95250000D01*
X169290000Y-95250000D01*
X169290000Y-96174052D01*
X168790000Y-96174052D01*
X168790000Y-95250000D01*
X167863505Y-95250000D01*
X165153837Y-95250000D01*
X165149090Y-95241306D01*
X165146785Y-95203510D01*
X165165643Y-95000000D01*
X165161373Y-94953922D01*
X168690000Y-94953922D01*
X168690000Y-95046078D01*
X168713852Y-95135095D01*
X168759930Y-95214905D01*
X168825095Y-95280070D01*
X168904905Y-95326148D01*
X168993922Y-95350000D01*
X169086078Y-95350000D01*
X169175095Y-95326148D01*
X169254905Y-95280070D01*
X169320070Y-95214905D01*
X169366148Y-95135095D01*
X169390000Y-95046078D01*
X169390000Y-94953922D01*
X169366148Y-94864905D01*
X169320070Y-94785095D01*
X169284975Y-94750000D01*
X169290000Y-94750000D01*
X170216495Y-94750000D01*
X170163760Y-94564650D01*
X170064631Y-94365574D01*
X169930608Y-94188099D01*
X169766261Y-94038278D01*
X169577179Y-93921202D01*
X169577177Y-93921201D01*
X169369799Y-93840864D01*
X169290000Y-93825946D01*
X169290000Y-94750000D01*
X169284975Y-94750000D01*
X169254905Y-94719930D01*
X169175095Y-94673852D01*
X169086078Y-94650000D01*
X168993922Y-94650000D01*
X168904905Y-94673852D01*
X168825095Y-94719930D01*
X168759930Y-94785095D01*
X168713852Y-94864905D01*
X168690000Y-94953922D01*
X165161373Y-94953922D01*
X165145115Y-94778464D01*
X165137016Y-94750000D01*
X167863505Y-94750000D01*
X168790000Y-94750000D01*
X168790000Y-93825946D01*
X168710200Y-93840864D01*
X168502822Y-93921201D01*
X168502820Y-93921202D01*
X168313738Y-94038278D01*
X168149391Y-94188099D01*
X168015368Y-94365574D01*
X167916239Y-94564650D01*
X167863505Y-94750000D01*
X165137016Y-94750000D01*
X165084229Y-94564472D01*
X165084224Y-94564461D01*
X164985061Y-94365316D01*
X164985056Y-94365308D01*
X164850979Y-94187761D01*
X164686562Y-94037876D01*
X164686560Y-94037874D01*
X164497404Y-93920754D01*
X164497398Y-93920752D01*
X164289940Y-93840382D01*
X164071243Y-93799500D01*
X163848757Y-93799500D01*
X163630060Y-93840382D01*
X163498864Y-93891207D01*
X163422601Y-93920752D01*
X163422595Y-93920754D01*
X163233439Y-94037874D01*
X163233437Y-94037876D01*
X163069020Y-94187761D01*
X162934943Y-94365308D01*
X162934938Y-94365316D01*
X162835775Y-94564461D01*
X162835769Y-94564476D01*
X162774885Y-94778462D01*
X162774884Y-94778464D01*
X162754357Y-94999999D01*
X158919947Y-94999999D01*
X163919947Y-89999999D01*
X165254357Y-89999999D01*
X165254357Y-90000000D01*
X165274884Y-90221535D01*
X165274885Y-90221537D01*
X165335769Y-90435523D01*
X165335775Y-90435538D01*
X165434938Y-90634683D01*
X165434943Y-90634691D01*
X165569020Y-90812238D01*
X165733437Y-90962123D01*
X165733439Y-90962125D01*
X165922595Y-91079245D01*
X165922596Y-91079245D01*
X165922599Y-91079247D01*
X166130060Y-91159618D01*
X166348757Y-91200500D01*
X166348759Y-91200500D01*
X166571242Y-91200500D01*
X166571243Y-91200500D01*
X166612032Y-91192875D01*
X166649639Y-91185845D01*
X166719154Y-91192875D01*
X166760106Y-91220052D01*
X167545324Y-92005271D01*
X167545327Y-92005274D01*
X167545330Y-92005276D01*
X167628430Y-92060801D01*
X167651873Y-92076465D01*
X167651876Y-92076466D01*
X167655722Y-92079036D01*
X167674511Y-92094457D01*
X168085325Y-92505272D01*
X168085332Y-92505278D01*
X168155450Y-92552129D01*
X168155451Y-92552129D01*
X168191866Y-92576461D01*
X168191872Y-92576464D01*
X168191873Y-92576465D01*
X168310256Y-92625501D01*
X168310260Y-92625501D01*
X168310261Y-92625502D01*
X168435928Y-92650500D01*
X168435931Y-92650500D01*
X170179192Y-92650500D01*
X170246231Y-92670185D01*
X170266873Y-92686819D01*
X171585324Y-94005271D01*
X171585331Y-94005277D01*
X171691871Y-94076464D01*
X171691870Y-94076464D01*
X171706952Y-94082711D01*
X171810256Y-94125501D01*
X171810260Y-94125501D01*
X171810261Y-94125502D01*
X171935928Y-94150500D01*
X171935931Y-94150500D01*
X172200501Y-94150500D01*
X172267540Y-94170185D01*
X172313295Y-94222989D01*
X172324501Y-94274500D01*
X172324501Y-94447876D01*
X172330908Y-94507483D01*
X172381202Y-94642328D01*
X172381206Y-94642335D01*
X172467452Y-94757544D01*
X172467455Y-94757547D01*
X172582664Y-94843793D01*
X172582671Y-94843797D01*
X172717517Y-94894091D01*
X172717516Y-94894091D01*
X172724444Y-94894835D01*
X172777127Y-94900500D01*
X174672872Y-94900499D01*
X174732483Y-94894091D01*
X174867331Y-94843796D01*
X174982546Y-94757546D01*
X175068796Y-94642331D01*
X175068798Y-94642326D01*
X175097455Y-94565493D01*
X175139326Y-94509559D01*
X175204790Y-94485141D01*
X175273063Y-94499992D01*
X175304866Y-94524843D01*
X175312302Y-94532920D01*
X175313215Y-94533912D01*
X175313222Y-94533918D01*
X175496365Y-94676464D01*
X175496371Y-94676468D01*
X175496374Y-94676470D01*
X175700497Y-94786936D01*
X175776946Y-94813181D01*
X175920015Y-94862297D01*
X175920017Y-94862297D01*
X175920019Y-94862298D01*
X176148951Y-94900500D01*
X176148952Y-94900500D01*
X176381048Y-94900500D01*
X176381049Y-94900500D01*
X176609981Y-94862298D01*
X176829503Y-94786936D01*
X177033626Y-94676470D01*
X177216784Y-94533913D01*
X177373979Y-94363153D01*
X177500924Y-94168849D01*
X177594157Y-93956300D01*
X177651134Y-93731305D01*
X177651135Y-93731297D01*
X177670300Y-93500006D01*
X177670300Y-93499993D01*
X177651135Y-93268702D01*
X177651133Y-93268691D01*
X177594157Y-93043699D01*
X177500924Y-92831151D01*
X177373983Y-92636852D01*
X177373980Y-92636849D01*
X177373979Y-92636847D01*
X177216784Y-92466087D01*
X177216779Y-92466083D01*
X177216777Y-92466081D01*
X177033634Y-92323535D01*
X177033628Y-92323531D01*
X176829504Y-92213064D01*
X176829495Y-92213061D01*
X176609984Y-92137702D01*
X176419450Y-92105908D01*
X176381049Y-92099500D01*
X176148951Y-92099500D01*
X176110550Y-92105908D01*
X175920015Y-92137702D01*
X175700504Y-92213061D01*
X175700495Y-92213064D01*
X175496371Y-92323531D01*
X175496365Y-92323535D01*
X175313222Y-92466081D01*
X175313218Y-92466085D01*
X175304866Y-92475158D01*
X175244979Y-92511148D01*
X175175141Y-92509047D01*
X175117525Y-92469522D01*
X175097455Y-92434507D01*
X175068797Y-92357671D01*
X175068793Y-92357664D01*
X174982547Y-92242455D01*
X174982544Y-92242452D01*
X174867335Y-92156206D01*
X174867328Y-92156202D01*
X174732482Y-92105908D01*
X174732483Y-92105908D01*
X174672883Y-92099501D01*
X174672881Y-92099500D01*
X174672873Y-92099500D01*
X174672864Y-92099500D01*
X172777129Y-92099500D01*
X172777123Y-92099501D01*
X172717516Y-92105908D01*
X172582671Y-92156202D01*
X172582664Y-92156206D01*
X172467455Y-92242452D01*
X172467452Y-92242455D01*
X172381206Y-92357664D01*
X172381202Y-92357671D01*
X172330908Y-92492517D01*
X172324501Y-92552116D01*
X172324500Y-92552129D01*
X172324500Y-92605191D01*
X172304815Y-92672230D01*
X172252011Y-92717985D01*
X172182853Y-92727929D01*
X172119297Y-92698904D01*
X172112819Y-92692872D01*
X170914673Y-91494726D01*
X170911367Y-91492517D01*
X170808127Y-91423535D01*
X170802847Y-91421348D01*
X170689744Y-91374499D01*
X170689738Y-91374497D01*
X170564071Y-91349500D01*
X170564069Y-91349500D01*
X168820808Y-91349500D01*
X168753769Y-91329815D01*
X168733127Y-91313181D01*
X168414674Y-90994727D01*
X168414673Y-90994726D01*
X168414669Y-90994723D01*
X168308127Y-90923535D01*
X168308125Y-90923534D01*
X168304280Y-90920965D01*
X168285489Y-90905543D01*
X167682575Y-90302629D01*
X167653837Y-90250000D01*
X170363505Y-90250000D01*
X170416239Y-90435349D01*
X170515368Y-90634425D01*
X170649391Y-90811900D01*
X170813738Y-90961721D01*
X171002820Y-91078797D01*
X171002822Y-91078798D01*
X171210195Y-91159135D01*
X171290000Y-91174052D01*
X171790000Y-91174052D01*
X171869804Y-91159135D01*
X172077177Y-91078798D01*
X172077179Y-91078797D01*
X172266261Y-90961721D01*
X172430608Y-90811900D01*
X172564631Y-90634425D01*
X172663760Y-90435349D01*
X172716495Y-90250000D01*
X171790000Y-90250000D01*
X171790000Y-91174052D01*
X171290000Y-91174052D01*
X171290000Y-90250000D01*
X170363505Y-90250000D01*
X167653837Y-90250000D01*
X167649090Y-90241306D01*
X167646785Y-90203510D01*
X167665643Y-90000000D01*
X167661373Y-89953922D01*
X171190000Y-89953922D01*
X171190000Y-90046078D01*
X171213852Y-90135095D01*
X171259930Y-90214905D01*
X171325095Y-90280070D01*
X171404905Y-90326148D01*
X171493922Y-90350000D01*
X171586078Y-90350000D01*
X171675095Y-90326148D01*
X171754905Y-90280070D01*
X171820070Y-90214905D01*
X171866148Y-90135095D01*
X171890000Y-90046078D01*
X171890000Y-89953922D01*
X171866148Y-89864905D01*
X171820070Y-89785095D01*
X171784975Y-89750000D01*
X171790000Y-89750000D01*
X172716495Y-89750000D01*
X172663760Y-89564650D01*
X172564631Y-89365574D01*
X172430608Y-89188099D01*
X172266261Y-89038278D01*
X172077179Y-88921202D01*
X172077177Y-88921201D01*
X171869799Y-88840864D01*
X171790000Y-88825946D01*
X171790000Y-89750000D01*
X171784975Y-89750000D01*
X171754905Y-89719930D01*
X171675095Y-89673852D01*
X171586078Y-89650000D01*
X171493922Y-89650000D01*
X171404905Y-89673852D01*
X171325095Y-89719930D01*
X171259930Y-89785095D01*
X171213852Y-89864905D01*
X171190000Y-89953922D01*
X167661373Y-89953922D01*
X167645115Y-89778464D01*
X167637016Y-89750000D01*
X170363505Y-89750000D01*
X171290000Y-89750000D01*
X171290000Y-88825946D01*
X171210200Y-88840864D01*
X171002822Y-88921201D01*
X171002820Y-88921202D01*
X170813738Y-89038278D01*
X170649391Y-89188099D01*
X170515368Y-89365574D01*
X170416239Y-89564650D01*
X170363505Y-89750000D01*
X167637016Y-89750000D01*
X167584229Y-89564472D01*
X167485189Y-89365574D01*
X167485061Y-89365316D01*
X167485056Y-89365308D01*
X167350979Y-89187761D01*
X167186562Y-89037876D01*
X167186560Y-89037874D01*
X166997404Y-88920754D01*
X166997398Y-88920752D01*
X166789940Y-88840382D01*
X166571243Y-88799500D01*
X166348757Y-88799500D01*
X166130060Y-88840382D01*
X166064072Y-88865946D01*
X165922601Y-88920752D01*
X165922595Y-88920754D01*
X165733439Y-89037874D01*
X165733437Y-89037876D01*
X165569020Y-89187761D01*
X165434943Y-89365308D01*
X165434938Y-89365316D01*
X165335775Y-89564461D01*
X165335769Y-89564476D01*
X165274885Y-89778462D01*
X165274884Y-89778464D01*
X165254357Y-89999999D01*
X163919947Y-89999999D01*
X165483127Y-88436819D01*
X165544450Y-88403334D01*
X165570808Y-88400500D01*
X175039071Y-88400500D01*
X175123615Y-88383682D01*
X175164744Y-88375501D01*
X175283127Y-88326465D01*
X175389669Y-88255277D01*
X175708128Y-87936816D01*
X175769450Y-87903333D01*
X175795808Y-87900499D01*
X177172871Y-87900499D01*
X177172872Y-87900499D01*
X177232483Y-87894091D01*
X177367331Y-87843796D01*
X177482546Y-87757546D01*
X177568796Y-87642331D01*
X177597455Y-87565493D01*
X177639326Y-87509559D01*
X177704790Y-87485141D01*
X177773063Y-87499992D01*
X177804866Y-87524843D01*
X177812302Y-87532920D01*
X177813215Y-87533912D01*
X177813222Y-87533918D01*
X177996365Y-87676464D01*
X177996371Y-87676468D01*
X177996374Y-87676470D01*
X178200497Y-87786936D01*
X178297013Y-87820070D01*
X178420015Y-87862297D01*
X178420017Y-87862297D01*
X178420019Y-87862298D01*
X178648951Y-87900500D01*
X178648952Y-87900500D01*
X178881048Y-87900500D01*
X178881049Y-87900500D01*
X179109981Y-87862298D01*
X179329503Y-87786936D01*
X179533626Y-87676470D01*
X179716784Y-87533913D01*
X179873979Y-87363153D01*
X180000924Y-87168849D01*
X180094157Y-86956300D01*
X180151134Y-86731305D01*
X180155895Y-86673852D01*
X180170300Y-86500006D01*
X180170300Y-86499993D01*
X180151135Y-86268702D01*
X180151133Y-86268691D01*
X180094157Y-86043699D01*
X180000924Y-85831151D01*
X179873983Y-85636852D01*
X179873980Y-85636849D01*
X179873979Y-85636847D01*
X179716784Y-85466087D01*
X179716779Y-85466083D01*
X179716777Y-85466081D01*
X179533634Y-85323535D01*
X179533628Y-85323531D01*
X179329504Y-85213064D01*
X179329495Y-85213061D01*
X179109984Y-85137702D01*
X178919450Y-85105908D01*
X178881049Y-85099500D01*
X178648951Y-85099500D01*
X178610550Y-85105908D01*
X178420015Y-85137702D01*
X178200504Y-85213061D01*
X178200495Y-85213064D01*
X177996371Y-85323531D01*
X177996365Y-85323535D01*
X177813222Y-85466081D01*
X177813218Y-85466085D01*
X177804866Y-85475158D01*
X177744979Y-85511148D01*
X177675141Y-85509047D01*
X177617525Y-85469522D01*
X177597455Y-85434507D01*
X177568797Y-85357671D01*
X177568793Y-85357664D01*
X177482547Y-85242455D01*
X177482544Y-85242452D01*
X177367335Y-85156206D01*
X177367328Y-85156202D01*
X177232482Y-85105908D01*
X177232483Y-85105908D01*
X177172883Y-85099501D01*
X177172881Y-85099500D01*
X177172873Y-85099500D01*
X177172864Y-85099500D01*
X175277129Y-85099500D01*
X175277123Y-85099501D01*
X175217516Y-85105908D01*
X175082671Y-85156202D01*
X175082664Y-85156206D01*
X174967455Y-85242452D01*
X174967452Y-85242455D01*
X174881206Y-85357664D01*
X174881202Y-85357671D01*
X174830908Y-85492517D01*
X174824501Y-85552116D01*
X174824500Y-85552135D01*
X174824500Y-86929190D01*
X174804815Y-86996229D01*
X174788182Y-87016870D01*
X174741873Y-87063180D01*
X174680550Y-87096666D01*
X174654191Y-87099500D01*
X172253158Y-87099500D01*
X172186119Y-87079815D01*
X172140364Y-87027011D01*
X172130420Y-86957853D01*
X172133892Y-86941566D01*
X172141184Y-86915936D01*
X172185115Y-86761536D01*
X172205643Y-86540000D01*
X172186785Y-86336489D01*
X172200200Y-86267922D01*
X172222572Y-86237372D01*
X174730277Y-83729669D01*
X174801465Y-83623127D01*
X174850501Y-83504743D01*
X174861018Y-83451873D01*
X174875500Y-83379071D01*
X174875500Y-81524499D01*
X174895185Y-81457460D01*
X174947989Y-81411705D01*
X174999500Y-81400499D01*
X175172871Y-81400499D01*
X175172872Y-81400499D01*
X175232483Y-81394091D01*
X175367331Y-81343796D01*
X175482546Y-81257546D01*
X175568796Y-81142331D01*
X175568798Y-81142326D01*
X175597455Y-81065493D01*
X175639326Y-81009559D01*
X175704790Y-80985141D01*
X175773063Y-80999992D01*
X175804866Y-81024843D01*
X175812302Y-81032920D01*
X175813215Y-81033912D01*
X175813222Y-81033918D01*
X175996365Y-81176464D01*
X175996371Y-81176468D01*
X175996374Y-81176470D01*
X176200497Y-81286936D01*
X176311097Y-81324905D01*
X176420015Y-81362297D01*
X176420017Y-81362297D01*
X176420019Y-81362298D01*
X176648951Y-81400500D01*
X176648952Y-81400500D01*
X176881048Y-81400500D01*
X176881049Y-81400500D01*
X177109981Y-81362298D01*
X177329503Y-81286936D01*
X177533626Y-81176470D01*
X177716784Y-81033913D01*
X177873979Y-80863153D01*
X178000924Y-80668849D01*
X178094157Y-80456300D01*
X178151134Y-80231305D01*
X178151703Y-80224441D01*
X178170300Y-80000006D01*
X178170300Y-79999993D01*
X178151135Y-79768702D01*
X178151133Y-79768691D01*
X178094157Y-79543699D01*
X178000924Y-79331151D01*
X177873983Y-79136852D01*
X177873980Y-79136849D01*
X177873979Y-79136847D01*
X177716784Y-78966087D01*
X177716779Y-78966083D01*
X177716777Y-78966081D01*
X177533634Y-78823535D01*
X177533628Y-78823531D01*
X177329504Y-78713064D01*
X177329495Y-78713061D01*
X177109984Y-78637702D01*
X176919450Y-78605908D01*
X176881049Y-78599500D01*
X176648951Y-78599500D01*
X176610550Y-78605908D01*
X176420015Y-78637702D01*
X176200504Y-78713061D01*
X176200495Y-78713064D01*
X175996371Y-78823531D01*
X175996365Y-78823535D01*
X175813222Y-78966081D01*
X175813218Y-78966085D01*
X175804866Y-78975158D01*
X175744979Y-79011148D01*
X175675141Y-79009047D01*
X175617525Y-78969522D01*
X175597455Y-78934507D01*
X175568797Y-78857671D01*
X175568793Y-78857664D01*
X175482547Y-78742455D01*
X175482544Y-78742452D01*
X175367335Y-78656206D01*
X175367328Y-78656202D01*
X175232482Y-78605908D01*
X175232483Y-78605908D01*
X175172883Y-78599501D01*
X175172881Y-78599500D01*
X175172873Y-78599500D01*
X175172864Y-78599500D01*
X173277129Y-78599500D01*
X173277123Y-78599501D01*
X173217516Y-78605908D01*
X173082671Y-78656202D01*
X173082664Y-78656206D01*
X172967455Y-78742452D01*
X172967452Y-78742455D01*
X172881206Y-78857664D01*
X172881202Y-78857671D01*
X172830908Y-78992517D01*
X172824501Y-79052116D01*
X172824500Y-79052135D01*
X172824500Y-80947870D01*
X172824501Y-80947876D01*
X172830908Y-81007483D01*
X172881202Y-81142328D01*
X172881206Y-81142335D01*
X172967452Y-81257544D01*
X172967455Y-81257547D01*
X173082664Y-81343793D01*
X173082671Y-81343797D01*
X173127618Y-81360561D01*
X173217517Y-81394091D01*
X173277127Y-81400500D01*
X173450500Y-81400499D01*
X173517539Y-81420183D01*
X173563294Y-81472987D01*
X173574500Y-81524499D01*
X173574500Y-82994191D01*
X173554815Y-83061230D01*
X173538181Y-83081872D01*
X171300105Y-85319947D01*
X171238782Y-85353432D01*
X171189640Y-85354154D01*
X171111243Y-85339500D01*
X170888757Y-85339500D01*
X170670060Y-85380382D01*
X170558672Y-85423534D01*
X170462601Y-85460752D01*
X170462595Y-85460754D01*
X170273439Y-85577874D01*
X170273437Y-85577876D01*
X170109020Y-85727761D01*
X169974943Y-85905308D01*
X169974938Y-85905316D01*
X169875775Y-86104461D01*
X169875769Y-86104476D01*
X169814885Y-86318462D01*
X169814884Y-86318464D01*
X169794357Y-86539999D01*
X169794357Y-86540000D01*
X169814884Y-86761535D01*
X169814885Y-86761537D01*
X169866108Y-86941566D01*
X169865522Y-87011433D01*
X169827255Y-87069892D01*
X169763458Y-87098382D01*
X169746842Y-87099500D01*
X165185929Y-87099500D01*
X165060261Y-87124497D01*
X165060255Y-87124499D01*
X164941874Y-87173534D01*
X164835326Y-87244726D01*
X164835325Y-87244727D01*
X157266873Y-94813181D01*
X157205550Y-94846666D01*
X157179192Y-94849500D01*
X149320808Y-94849500D01*
X149253769Y-94829815D01*
X149233127Y-94813181D01*
X148898956Y-94479010D01*
X148865471Y-94417687D01*
X148870455Y-94347995D01*
X148887683Y-94316602D01*
X148890977Y-94312238D01*
X148890981Y-94312236D01*
X149025058Y-94134689D01*
X149124229Y-93935528D01*
X149185115Y-93721536D01*
X149205643Y-93500000D01*
X149185115Y-93278464D01*
X149124229Y-93064472D01*
X149113886Y-93043700D01*
X149025061Y-92865316D01*
X149025056Y-92865308D01*
X148890979Y-92687761D01*
X148726562Y-92537876D01*
X148726560Y-92537874D01*
X148537404Y-92420754D01*
X148537398Y-92420751D01*
X148446791Y-92385650D01*
X148414411Y-92373106D01*
X148359011Y-92330534D01*
X148335420Y-92264767D01*
X148351131Y-92196687D01*
X148401155Y-92147908D01*
X148414413Y-92141853D01*
X148577174Y-92078799D01*
X148577179Y-92078797D01*
X148766261Y-91961721D01*
X148899801Y-91839984D01*
X152922000Y-91839984D01*
X152922000Y-93540015D01*
X152932500Y-93642795D01*
X152932501Y-93642797D01*
X152943659Y-93676470D01*
X152987686Y-93809335D01*
X152987687Y-93809337D01*
X153079786Y-93958651D01*
X153079789Y-93958655D01*
X153203844Y-94082710D01*
X153203848Y-94082713D01*
X153353162Y-94174812D01*
X153353164Y-94174813D01*
X153353166Y-94174814D01*
X153519703Y-94229999D01*
X153622492Y-94240500D01*
X153622497Y-94240500D01*
X156822503Y-94240500D01*
X156822508Y-94240500D01*
X156925297Y-94229999D01*
X157091834Y-94174814D01*
X157241155Y-94082711D01*
X157365211Y-93958655D01*
X157457314Y-93809334D01*
X157512499Y-93642797D01*
X157523000Y-93540008D01*
X157523000Y-91839992D01*
X157512499Y-91737203D01*
X157457314Y-91570666D01*
X157445880Y-91552129D01*
X157365213Y-91421348D01*
X157365210Y-91421344D01*
X157241155Y-91297289D01*
X157241151Y-91297286D01*
X157091837Y-91205187D01*
X157091835Y-91205186D01*
X156997220Y-91173834D01*
X156925297Y-91150001D01*
X156925295Y-91150000D01*
X156822515Y-91139500D01*
X156822508Y-91139500D01*
X153622492Y-91139500D01*
X153622484Y-91139500D01*
X153519704Y-91150000D01*
X153519703Y-91150001D01*
X153353164Y-91205186D01*
X153353162Y-91205187D01*
X153203848Y-91297286D01*
X153203844Y-91297289D01*
X153079789Y-91421344D01*
X153079786Y-91421348D01*
X152987687Y-91570662D01*
X152987686Y-91570664D01*
X152932501Y-91737203D01*
X152932500Y-91737204D01*
X152922000Y-91839984D01*
X148899801Y-91839984D01*
X148930608Y-91811900D01*
X149064631Y-91634425D01*
X149163760Y-91435349D01*
X149216495Y-91250000D01*
X148284975Y-91250000D01*
X148320070Y-91214905D01*
X148366148Y-91135095D01*
X148390000Y-91046078D01*
X148390000Y-90953922D01*
X148366148Y-90864905D01*
X148320070Y-90785095D01*
X148284975Y-90750000D01*
X148290000Y-90750000D01*
X149216495Y-90750000D01*
X149163760Y-90564650D01*
X149064631Y-90365574D01*
X149007560Y-90290000D01*
X149823505Y-90290000D01*
X149876239Y-90475349D01*
X149975368Y-90674425D01*
X150109391Y-90851900D01*
X150273738Y-91001721D01*
X150462820Y-91118797D01*
X150462822Y-91118798D01*
X150670195Y-91199135D01*
X150750000Y-91214052D01*
X151250000Y-91214052D01*
X151329804Y-91199135D01*
X151537177Y-91118798D01*
X151537179Y-91118797D01*
X151726261Y-91001721D01*
X151890608Y-90851900D01*
X152024631Y-90674425D01*
X152123760Y-90475349D01*
X152176495Y-90290000D01*
X151250000Y-90290000D01*
X151250000Y-91214052D01*
X150750000Y-91214052D01*
X150750000Y-90290000D01*
X149823505Y-90290000D01*
X149007560Y-90290000D01*
X148930608Y-90188099D01*
X148766261Y-90038278D01*
X148694624Y-89993922D01*
X150650000Y-89993922D01*
X150650000Y-90086078D01*
X150673852Y-90175095D01*
X150719930Y-90254905D01*
X150785095Y-90320070D01*
X150864905Y-90366148D01*
X150953922Y-90390000D01*
X151046078Y-90390000D01*
X151135095Y-90366148D01*
X151214905Y-90320070D01*
X151280070Y-90254905D01*
X151326148Y-90175095D01*
X151350000Y-90086078D01*
X151350000Y-89993922D01*
X151326148Y-89904905D01*
X151280070Y-89825095D01*
X151244975Y-89790000D01*
X151250000Y-89790000D01*
X152176495Y-89790000D01*
X152123760Y-89604650D01*
X152024631Y-89405574D01*
X151890608Y-89228099D01*
X151726261Y-89078278D01*
X151537179Y-88961202D01*
X151537177Y-88961201D01*
X151329799Y-88880864D01*
X151250000Y-88865946D01*
X151250000Y-89790000D01*
X151244975Y-89790000D01*
X151214905Y-89759930D01*
X151135095Y-89713852D01*
X151046078Y-89690000D01*
X150953922Y-89690000D01*
X150864905Y-89713852D01*
X150785095Y-89759930D01*
X150719930Y-89825095D01*
X150673852Y-89904905D01*
X150650000Y-89993922D01*
X148694624Y-89993922D01*
X148577179Y-89921202D01*
X148577177Y-89921201D01*
X148369799Y-89840864D01*
X148290000Y-89825946D01*
X148290000Y-90750000D01*
X148284975Y-90750000D01*
X148254905Y-90719930D01*
X148175095Y-90673852D01*
X148086078Y-90650000D01*
X147993922Y-90650000D01*
X147904905Y-90673852D01*
X147825095Y-90719930D01*
X147759930Y-90785095D01*
X147713852Y-90864905D01*
X147690000Y-90953922D01*
X147690000Y-91046078D01*
X147713852Y-91135095D01*
X147759930Y-91214905D01*
X147795025Y-91250000D01*
X146863505Y-91250000D01*
X146916239Y-91435349D01*
X147015368Y-91634425D01*
X147149391Y-91811900D01*
X147313738Y-91961721D01*
X147502820Y-92078797D01*
X147502822Y-92078798D01*
X147625587Y-92126357D01*
X147680988Y-92168930D01*
X147704579Y-92234697D01*
X147688868Y-92302777D01*
X147638844Y-92351556D01*
X147625587Y-92357611D01*
X147462601Y-92420751D01*
X147462595Y-92420754D01*
X147273439Y-92537874D01*
X147273437Y-92537876D01*
X147109020Y-92687761D01*
X146974943Y-92865308D01*
X146974938Y-92865316D01*
X146875775Y-93064461D01*
X146875769Y-93064476D01*
X146814885Y-93278462D01*
X146814884Y-93278464D01*
X146794357Y-93499999D01*
X143270000Y-93499999D01*
X143270000Y-93453922D01*
X143246148Y-93364905D01*
X143200070Y-93285095D01*
X143164975Y-93250000D01*
X144096495Y-93250000D01*
X144043760Y-93064650D01*
X143944631Y-92865574D01*
X143810608Y-92688099D01*
X143646261Y-92538278D01*
X143457179Y-92421202D01*
X143457177Y-92421201D01*
X143334412Y-92373642D01*
X143279010Y-92331069D01*
X143255420Y-92265302D01*
X143271131Y-92197221D01*
X143321155Y-92148443D01*
X143334398Y-92142394D01*
X143497401Y-92079247D01*
X143686562Y-91962124D01*
X143850981Y-91812236D01*
X143985058Y-91634689D01*
X144084229Y-91435528D01*
X144145115Y-91221536D01*
X144165643Y-91000000D01*
X144146785Y-90796489D01*
X144155880Y-90750000D01*
X146863505Y-90750000D01*
X147790000Y-90750000D01*
X147790000Y-89825946D01*
X147710200Y-89840864D01*
X147502822Y-89921201D01*
X147502820Y-89921202D01*
X147313738Y-90038278D01*
X147149391Y-90188099D01*
X147015368Y-90365574D01*
X146916239Y-90564650D01*
X146863505Y-90750000D01*
X144155880Y-90750000D01*
X144160200Y-90727922D01*
X144182569Y-90697376D01*
X144465277Y-90414669D01*
X144536466Y-90308126D01*
X144585501Y-90189743D01*
X144610500Y-90064069D01*
X144610500Y-89935931D01*
X144610500Y-89790000D01*
X149823505Y-89790000D01*
X150750000Y-89790000D01*
X150750000Y-88865946D01*
X150670200Y-88880864D01*
X150462822Y-88961201D01*
X150462820Y-88961202D01*
X150273738Y-89078278D01*
X150109391Y-89228099D01*
X149975368Y-89405574D01*
X149876239Y-89604650D01*
X149823505Y-89790000D01*
X144610500Y-89790000D01*
X144610500Y-87524499D01*
X144630185Y-87457460D01*
X144682989Y-87411705D01*
X144734500Y-87400499D01*
X144907871Y-87400499D01*
X144907872Y-87400499D01*
X144967483Y-87394091D01*
X145102331Y-87343796D01*
X145217546Y-87257546D01*
X145303796Y-87142331D01*
X145332455Y-87065493D01*
X145374326Y-87009559D01*
X145439790Y-86985141D01*
X145508063Y-86999992D01*
X145539866Y-87024843D01*
X145545046Y-87030469D01*
X145548215Y-87033912D01*
X145548222Y-87033918D01*
X145731365Y-87176464D01*
X145731371Y-87176468D01*
X145731374Y-87176470D01*
X145935497Y-87286936D01*
X146021428Y-87316436D01*
X146155015Y-87362297D01*
X146155017Y-87362297D01*
X146155019Y-87362298D01*
X146383951Y-87400500D01*
X146383952Y-87400500D01*
X146616048Y-87400500D01*
X146616049Y-87400500D01*
X146844981Y-87362298D01*
X147064503Y-87286936D01*
X147268626Y-87176470D01*
X147451784Y-87033913D01*
X147608979Y-86863153D01*
X147735924Y-86668849D01*
X147829157Y-86456300D01*
X147886134Y-86231305D01*
X147892001Y-86160500D01*
X147905300Y-86000006D01*
X147905300Y-85999993D01*
X147886135Y-85768702D01*
X147886133Y-85768691D01*
X147829157Y-85543699D01*
X147735924Y-85331151D01*
X147608983Y-85136852D01*
X147608980Y-85136849D01*
X147608979Y-85136847D01*
X147451784Y-84966087D01*
X147451779Y-84966083D01*
X147451777Y-84966081D01*
X147268634Y-84823535D01*
X147268628Y-84823531D01*
X147064504Y-84713064D01*
X147064495Y-84713061D01*
X146844984Y-84637702D01*
X146654450Y-84605908D01*
X146616049Y-84599500D01*
X146383951Y-84599500D01*
X146345550Y-84605908D01*
X146155015Y-84637702D01*
X145935504Y-84713061D01*
X145935495Y-84713064D01*
X145731371Y-84823531D01*
X145731365Y-84823535D01*
X145548222Y-84966081D01*
X145548218Y-84966085D01*
X145548216Y-84966086D01*
X145548216Y-84966087D01*
X145539870Y-84975154D01*
X145539866Y-84975158D01*
X145479979Y-85011148D01*
X145410141Y-85009047D01*
X145352525Y-84969522D01*
X145332455Y-84934507D01*
X145303797Y-84857671D01*
X145303793Y-84857664D01*
X145217547Y-84742455D01*
X145217544Y-84742452D01*
X145102335Y-84656206D01*
X145102328Y-84656202D01*
X144967482Y-84605908D01*
X144967483Y-84605908D01*
X144907883Y-84599501D01*
X144907881Y-84599500D01*
X144907873Y-84599500D01*
X144907864Y-84599500D01*
X143012129Y-84599500D01*
X143012123Y-84599501D01*
X142952516Y-84605908D01*
X142817671Y-84656202D01*
X142817664Y-84656206D01*
X142702455Y-84742452D01*
X142702452Y-84742455D01*
X142616206Y-84857664D01*
X142616202Y-84857671D01*
X142565908Y-84992517D01*
X142559501Y-85052116D01*
X142559501Y-85052123D01*
X142559500Y-85052135D01*
X142559500Y-86947870D01*
X142559501Y-86947876D01*
X142565908Y-87007483D01*
X142616202Y-87142328D01*
X142616206Y-87142335D01*
X142702452Y-87257544D01*
X142702455Y-87257547D01*
X142817664Y-87343793D01*
X142817671Y-87343797D01*
X142862618Y-87360561D01*
X142952517Y-87394091D01*
X143012127Y-87400500D01*
X143185500Y-87400499D01*
X143252539Y-87420183D01*
X143298294Y-87472987D01*
X143309500Y-87524499D01*
X143309500Y-89679190D01*
X143289815Y-89746229D01*
X143273181Y-89766871D01*
X143260105Y-89779947D01*
X143198782Y-89813432D01*
X143149640Y-89814154D01*
X143071243Y-89799500D01*
X142848757Y-89799500D01*
X142630060Y-89840382D01*
X142566759Y-89864905D01*
X142422601Y-89920752D01*
X142422595Y-89920754D01*
X142233439Y-90037874D01*
X142233437Y-90037876D01*
X142069020Y-90187761D01*
X141934943Y-90365308D01*
X141934938Y-90365316D01*
X141835775Y-90564461D01*
X141835769Y-90564476D01*
X141774885Y-90778462D01*
X141774884Y-90778464D01*
X141754357Y-90999999D01*
X141754357Y-91000000D01*
X141774884Y-91221535D01*
X141774885Y-91221537D01*
X141835769Y-91435523D01*
X141835775Y-91435538D01*
X141934938Y-91634683D01*
X141934943Y-91634691D01*
X142069020Y-91812238D01*
X142233437Y-91962123D01*
X142233439Y-91962125D01*
X142422595Y-92079245D01*
X142422597Y-92079246D01*
X142422599Y-92079247D01*
X142545587Y-92126893D01*
X142600988Y-92169465D01*
X142624579Y-92235231D01*
X142608868Y-92303312D01*
X142558845Y-92352091D01*
X142545587Y-92358145D01*
X142382831Y-92421197D01*
X142382820Y-92421202D01*
X142193738Y-92538278D01*
X142029391Y-92688099D01*
X141895368Y-92865574D01*
X141796239Y-93064650D01*
X141743505Y-93250000D01*
X126716495Y-93250000D01*
X125790000Y-93250000D01*
X125790000Y-94174052D01*
X125290000Y-94174052D01*
X125290000Y-93250000D01*
X124363505Y-93250000D01*
X121637016Y-93250000D01*
X121645115Y-93221536D01*
X121665643Y-93000000D01*
X121661373Y-92953922D01*
X125190000Y-92953922D01*
X125190000Y-93046078D01*
X125213852Y-93135095D01*
X125259930Y-93214905D01*
X125325095Y-93280070D01*
X125404905Y-93326148D01*
X125493922Y-93350000D01*
X125586078Y-93350000D01*
X125675095Y-93326148D01*
X125754905Y-93280070D01*
X125820070Y-93214905D01*
X125866148Y-93135095D01*
X125890000Y-93046078D01*
X125890000Y-92953922D01*
X125866148Y-92864905D01*
X125820070Y-92785095D01*
X125784975Y-92750000D01*
X125790000Y-92750000D01*
X126716495Y-92750000D01*
X126663760Y-92564650D01*
X126564631Y-92365574D01*
X126430608Y-92188099D01*
X126266261Y-92038278D01*
X126077179Y-91921202D01*
X126077177Y-91921201D01*
X125869799Y-91840864D01*
X125790000Y-91825946D01*
X125790000Y-92750000D01*
X125784975Y-92750000D01*
X125754905Y-92719930D01*
X125675095Y-92673852D01*
X125586078Y-92650000D01*
X125493922Y-92650000D01*
X125404905Y-92673852D01*
X125325095Y-92719930D01*
X125259930Y-92785095D01*
X125213852Y-92864905D01*
X125190000Y-92953922D01*
X121661373Y-92953922D01*
X121645115Y-92778464D01*
X121637016Y-92750000D01*
X124363505Y-92750000D01*
X125290000Y-92750000D01*
X125290000Y-91825946D01*
X125210200Y-91840864D01*
X125002822Y-91921201D01*
X125002820Y-91921202D01*
X124813738Y-92038278D01*
X124649391Y-92188099D01*
X124515368Y-92365574D01*
X124416239Y-92564650D01*
X124363505Y-92750000D01*
X121637016Y-92750000D01*
X121584229Y-92564472D01*
X121578083Y-92552129D01*
X121485061Y-92365316D01*
X121485056Y-92365308D01*
X121350979Y-92187761D01*
X121186562Y-92037876D01*
X121186560Y-92037874D01*
X120997404Y-91920754D01*
X120997398Y-91920752D01*
X120789940Y-91840382D01*
X120571243Y-91799500D01*
X120348757Y-91799500D01*
X120207285Y-91825946D01*
X120130054Y-91840383D01*
X120112170Y-91847312D01*
X120043185Y-91853302D01*
X120024071Y-91849500D01*
X120024069Y-91849500D01*
X118799499Y-91849500D01*
X118732460Y-91829815D01*
X118686705Y-91777011D01*
X118675499Y-91725500D01*
X118675499Y-91552129D01*
X118675498Y-91552123D01*
X118671492Y-91514858D01*
X118669896Y-91500006D01*
X118669091Y-91492516D01*
X118618797Y-91357671D01*
X118618793Y-91357664D01*
X118532547Y-91242455D01*
X118532544Y-91242452D01*
X118417335Y-91156206D01*
X118417328Y-91156202D01*
X118282482Y-91105908D01*
X118282483Y-91105908D01*
X118222883Y-91099501D01*
X118222881Y-91099500D01*
X118222873Y-91099500D01*
X118222864Y-91099500D01*
X116327129Y-91099500D01*
X116327123Y-91099501D01*
X116267516Y-91105908D01*
X116132671Y-91156202D01*
X116132664Y-91156206D01*
X116017455Y-91242452D01*
X116017452Y-91242455D01*
X115931206Y-91357664D01*
X115931203Y-91357670D01*
X115902544Y-91434508D01*
X115860672Y-91490441D01*
X115795208Y-91514858D01*
X115726935Y-91500006D01*
X115695135Y-91475158D01*
X115686784Y-91466087D01*
X115686778Y-91466082D01*
X115686777Y-91466081D01*
X115503634Y-91323535D01*
X115503628Y-91323531D01*
X115299504Y-91213064D01*
X115299495Y-91213061D01*
X115079984Y-91137702D01*
X114889450Y-91105908D01*
X114851049Y-91099500D01*
X114618951Y-91099500D01*
X114580550Y-91105908D01*
X114390015Y-91137702D01*
X114170504Y-91213061D01*
X114170495Y-91213064D01*
X113966371Y-91323531D01*
X113966365Y-91323535D01*
X113783222Y-91466081D01*
X113783219Y-91466084D01*
X113783216Y-91466086D01*
X113783216Y-91466087D01*
X113738319Y-91514858D01*
X113626016Y-91636852D01*
X113499075Y-91831151D01*
X113405842Y-92043699D01*
X113348866Y-92268691D01*
X113348864Y-92268702D01*
X113329700Y-92499993D01*
X112297244Y-92499993D01*
X112188791Y-92188099D01*
X111528163Y-90288235D01*
X111522908Y-90267506D01*
X111036455Y-87288113D01*
X111034876Y-87264997D01*
X111066996Y-85999993D01*
X111329700Y-85999993D01*
X111329700Y-86000006D01*
X111348864Y-86231297D01*
X111348866Y-86231308D01*
X111405842Y-86456300D01*
X111499075Y-86668848D01*
X111626016Y-86863147D01*
X111626019Y-86863151D01*
X111626021Y-86863153D01*
X111783216Y-87033913D01*
X111783219Y-87033915D01*
X111783222Y-87033918D01*
X111966365Y-87176464D01*
X111966371Y-87176468D01*
X111966374Y-87176470D01*
X112170497Y-87286936D01*
X112256428Y-87316436D01*
X112390015Y-87362297D01*
X112390017Y-87362297D01*
X112390019Y-87362298D01*
X112618951Y-87400500D01*
X112618952Y-87400500D01*
X112851048Y-87400500D01*
X112851049Y-87400500D01*
X113079981Y-87362298D01*
X113299503Y-87286936D01*
X113503626Y-87176470D01*
X113686784Y-87033913D01*
X113695130Y-87024846D01*
X113755010Y-86988854D01*
X113824849Y-86990949D01*
X113882468Y-87030469D01*
X113902544Y-87065491D01*
X113931203Y-87142330D01*
X113931206Y-87142335D01*
X114017452Y-87257544D01*
X114017455Y-87257547D01*
X114132664Y-87343793D01*
X114132671Y-87343797D01*
X114267517Y-87394091D01*
X114267516Y-87394091D01*
X114274444Y-87394835D01*
X114327127Y-87400500D01*
X116222872Y-87400499D01*
X116282483Y-87394091D01*
X116417331Y-87343796D01*
X116532546Y-87257546D01*
X116618796Y-87142331D01*
X116669091Y-87007483D01*
X116675500Y-86947873D01*
X116675500Y-86774500D01*
X116695185Y-86707461D01*
X116747989Y-86661706D01*
X116799500Y-86650500D01*
X117599192Y-86650500D01*
X117666231Y-86670185D01*
X117686873Y-86686819D01*
X117697424Y-86697370D01*
X117730909Y-86758693D01*
X117733214Y-86796492D01*
X117714357Y-86999998D01*
X117714357Y-87000000D01*
X117734884Y-87221535D01*
X117734885Y-87221537D01*
X117795769Y-87435523D01*
X117795775Y-87435538D01*
X117894938Y-87634683D01*
X117894943Y-87634691D01*
X118029020Y-87812238D01*
X118193437Y-87962123D01*
X118193439Y-87962125D01*
X118382595Y-88079245D01*
X118382596Y-88079245D01*
X118382599Y-88079247D01*
X118590060Y-88159618D01*
X118808757Y-88200500D01*
X118808759Y-88200500D01*
X119031241Y-88200500D01*
X119031243Y-88200500D01*
X119249940Y-88159618D01*
X119457401Y-88079247D01*
X119646562Y-87962124D01*
X119810981Y-87812236D01*
X119945058Y-87634689D01*
X120044229Y-87435528D01*
X120097016Y-87250000D01*
X122823505Y-87250000D01*
X122876239Y-87435349D01*
X122975368Y-87634425D01*
X123109391Y-87811900D01*
X123273738Y-87961721D01*
X123462820Y-88078797D01*
X123462822Y-88078798D01*
X123670195Y-88159135D01*
X123750000Y-88174052D01*
X124250000Y-88174052D01*
X124329804Y-88159135D01*
X124537177Y-88078798D01*
X124537179Y-88078797D01*
X124726261Y-87961721D01*
X124890608Y-87811900D01*
X124907146Y-87790000D01*
X136823505Y-87790000D01*
X136876239Y-87975349D01*
X136975368Y-88174425D01*
X137109391Y-88351900D01*
X137273738Y-88501721D01*
X137462820Y-88618797D01*
X137462822Y-88618798D01*
X137670195Y-88699135D01*
X137750000Y-88714052D01*
X138250000Y-88714052D01*
X138329804Y-88699135D01*
X138537177Y-88618798D01*
X138537179Y-88618797D01*
X138726261Y-88501721D01*
X138890608Y-88351900D01*
X139024631Y-88174425D01*
X139123760Y-87975349D01*
X139176495Y-87790000D01*
X138250000Y-87790000D01*
X138250000Y-88714052D01*
X137750000Y-88714052D01*
X137750000Y-87790000D01*
X136823505Y-87790000D01*
X124907146Y-87790000D01*
X125024631Y-87634425D01*
X125094594Y-87493922D01*
X137650000Y-87493922D01*
X137650000Y-87586078D01*
X137673852Y-87675095D01*
X137719930Y-87754905D01*
X137785095Y-87820070D01*
X137864905Y-87866148D01*
X137953922Y-87890000D01*
X138046078Y-87890000D01*
X138135095Y-87866148D01*
X138214905Y-87820070D01*
X138280070Y-87754905D01*
X138326148Y-87675095D01*
X138350000Y-87586078D01*
X138350000Y-87493922D01*
X138326148Y-87404905D01*
X138280070Y-87325095D01*
X138244975Y-87290000D01*
X138250000Y-87290000D01*
X139176495Y-87290000D01*
X139123760Y-87104650D01*
X139024631Y-86905574D01*
X138890608Y-86728099D01*
X138726261Y-86578278D01*
X138537179Y-86461202D01*
X138537177Y-86461201D01*
X138329799Y-86380864D01*
X138250000Y-86365946D01*
X138250000Y-87290000D01*
X138244975Y-87290000D01*
X138214905Y-87259930D01*
X138135095Y-87213852D01*
X138046078Y-87190000D01*
X137953922Y-87190000D01*
X137864905Y-87213852D01*
X137785095Y-87259930D01*
X137719930Y-87325095D01*
X137673852Y-87404905D01*
X137650000Y-87493922D01*
X125094594Y-87493922D01*
X125123760Y-87435349D01*
X125165114Y-87290000D01*
X136823505Y-87290000D01*
X137750000Y-87290000D01*
X137750000Y-86365946D01*
X137670200Y-86380864D01*
X137462822Y-86461201D01*
X137462820Y-86461202D01*
X137273738Y-86578278D01*
X137109391Y-86728099D01*
X136975368Y-86905574D01*
X136876239Y-87104650D01*
X136823505Y-87290000D01*
X125165114Y-87290000D01*
X125176495Y-87250000D01*
X124250000Y-87250000D01*
X124250000Y-88174052D01*
X123750000Y-88174052D01*
X123750000Y-87250000D01*
X122823505Y-87250000D01*
X120097016Y-87250000D01*
X120105115Y-87221536D01*
X120125643Y-87000000D01*
X120121373Y-86953922D01*
X123650000Y-86953922D01*
X123650000Y-87046078D01*
X123673852Y-87135095D01*
X123719930Y-87214905D01*
X123785095Y-87280070D01*
X123864905Y-87326148D01*
X123953922Y-87350000D01*
X124046078Y-87350000D01*
X124135095Y-87326148D01*
X124214905Y-87280070D01*
X124280070Y-87214905D01*
X124326148Y-87135095D01*
X124350000Y-87046078D01*
X124350000Y-86953922D01*
X124326148Y-86864905D01*
X124280070Y-86785095D01*
X124244975Y-86750000D01*
X124250000Y-86750000D01*
X125176495Y-86750000D01*
X125123760Y-86564650D01*
X125024631Y-86365574D01*
X124890608Y-86188099D01*
X124726261Y-86038278D01*
X124537179Y-85921202D01*
X124537177Y-85921201D01*
X124329799Y-85840864D01*
X124250000Y-85825946D01*
X124250000Y-86750000D01*
X124244975Y-86750000D01*
X124214905Y-86719930D01*
X124135095Y-86673852D01*
X124046078Y-86650000D01*
X123953922Y-86650000D01*
X123864905Y-86673852D01*
X123785095Y-86719930D01*
X123719930Y-86785095D01*
X123673852Y-86864905D01*
X123650000Y-86953922D01*
X120121373Y-86953922D01*
X120117853Y-86915936D01*
X120105115Y-86778464D01*
X120105114Y-86778462D01*
X120100298Y-86761537D01*
X120097015Y-86750000D01*
X122823505Y-86750000D01*
X123750000Y-86750000D01*
X123750000Y-85825946D01*
X123670200Y-85840864D01*
X123462822Y-85921201D01*
X123462820Y-85921202D01*
X123273738Y-86038278D01*
X123109391Y-86188099D01*
X122975368Y-86365574D01*
X122876239Y-86564650D01*
X122823505Y-86750000D01*
X120097015Y-86750000D01*
X120044229Y-86564472D01*
X120044224Y-86564461D01*
X119945061Y-86365316D01*
X119945056Y-86365308D01*
X119810979Y-86187761D01*
X119646562Y-86037876D01*
X119646560Y-86037874D01*
X119457404Y-85920754D01*
X119457398Y-85920752D01*
X119249940Y-85840382D01*
X119031243Y-85799500D01*
X118808757Y-85799500D01*
X118773246Y-85806137D01*
X118730358Y-85814155D01*
X118660843Y-85807123D01*
X118619893Y-85779947D01*
X118334674Y-85494727D01*
X118334673Y-85494726D01*
X118296952Y-85469522D01*
X118228127Y-85423535D01*
X118160536Y-85395538D01*
X118109744Y-85374499D01*
X118109738Y-85374497D01*
X117984071Y-85349500D01*
X117984069Y-85349500D01*
X116799499Y-85349500D01*
X116732460Y-85329815D01*
X116686705Y-85277011D01*
X116675499Y-85225500D01*
X116675499Y-85052129D01*
X116675498Y-85052123D01*
X116675497Y-85052116D01*
X116669091Y-84992517D01*
X116660514Y-84969522D01*
X116618797Y-84857671D01*
X116618793Y-84857664D01*
X116532547Y-84742455D01*
X116532544Y-84742452D01*
X116417335Y-84656206D01*
X116417328Y-84656202D01*
X116282482Y-84605908D01*
X116282483Y-84605908D01*
X116222883Y-84599501D01*
X116222881Y-84599500D01*
X116222873Y-84599500D01*
X116222864Y-84599500D01*
X114327129Y-84599500D01*
X114327123Y-84599501D01*
X114267516Y-84605908D01*
X114132671Y-84656202D01*
X114132664Y-84656206D01*
X114017455Y-84742452D01*
X114017452Y-84742455D01*
X113931206Y-84857664D01*
X113931203Y-84857670D01*
X113902544Y-84934508D01*
X113860672Y-84990441D01*
X113795208Y-85014858D01*
X113726935Y-85000006D01*
X113695135Y-84975158D01*
X113686784Y-84966087D01*
X113686778Y-84966082D01*
X113686777Y-84966081D01*
X113503634Y-84823535D01*
X113503628Y-84823531D01*
X113299504Y-84713064D01*
X113299495Y-84713061D01*
X113079984Y-84637702D01*
X112889450Y-84605908D01*
X112851049Y-84599500D01*
X112618951Y-84599500D01*
X112580550Y-84605908D01*
X112390015Y-84637702D01*
X112170504Y-84713061D01*
X112170495Y-84713064D01*
X111966371Y-84823531D01*
X111966365Y-84823535D01*
X111783222Y-84966081D01*
X111783219Y-84966084D01*
X111783216Y-84966086D01*
X111783216Y-84966087D01*
X111750413Y-85001721D01*
X111626016Y-85136852D01*
X111499075Y-85331151D01*
X111405842Y-85543699D01*
X111348866Y-85768691D01*
X111348864Y-85768702D01*
X111329700Y-85999993D01*
X111066996Y-85999993D01*
X111109542Y-84324344D01*
X111112312Y-84301251D01*
X111223056Y-83790000D01*
X121823505Y-83790000D01*
X121876239Y-83975349D01*
X121975368Y-84174425D01*
X122109391Y-84351900D01*
X122273738Y-84501721D01*
X122462820Y-84618797D01*
X122462822Y-84618798D01*
X122670195Y-84699135D01*
X122750000Y-84714052D01*
X123250000Y-84714052D01*
X123329804Y-84699135D01*
X123537177Y-84618798D01*
X123537179Y-84618797D01*
X123726261Y-84501721D01*
X123890608Y-84351900D01*
X123937353Y-84290000D01*
X131823505Y-84290000D01*
X131876239Y-84475349D01*
X131975368Y-84674425D01*
X132109391Y-84851900D01*
X132273738Y-85001721D01*
X132462820Y-85118797D01*
X132462822Y-85118798D01*
X132670195Y-85199135D01*
X132750000Y-85214052D01*
X133250000Y-85214052D01*
X133329804Y-85199135D01*
X133537177Y-85118798D01*
X133537179Y-85118797D01*
X133726261Y-85001721D01*
X133890608Y-84851900D01*
X134024631Y-84674425D01*
X134123760Y-84475349D01*
X134176495Y-84290000D01*
X133250000Y-84290000D01*
X133250000Y-85214052D01*
X132750000Y-85214052D01*
X132750000Y-84290000D01*
X131823505Y-84290000D01*
X123937353Y-84290000D01*
X124024631Y-84174425D01*
X124114512Y-83993922D01*
X132650000Y-83993922D01*
X132650000Y-84086078D01*
X132673852Y-84175095D01*
X132719930Y-84254905D01*
X132785095Y-84320070D01*
X132864905Y-84366148D01*
X132953922Y-84390000D01*
X133046078Y-84390000D01*
X133135095Y-84366148D01*
X133214905Y-84320070D01*
X133280070Y-84254905D01*
X133326148Y-84175095D01*
X133350000Y-84086078D01*
X133350000Y-83993922D01*
X133326148Y-83904905D01*
X133280070Y-83825095D01*
X133244975Y-83790000D01*
X133250000Y-83790000D01*
X134176495Y-83790000D01*
X134123760Y-83604650D01*
X134024631Y-83405574D01*
X133890608Y-83228099D01*
X133726261Y-83078278D01*
X133537179Y-82961202D01*
X133537177Y-82961201D01*
X133329799Y-82880864D01*
X133250000Y-82865946D01*
X133250000Y-83790000D01*
X133244975Y-83790000D01*
X133214905Y-83759930D01*
X133135095Y-83713852D01*
X133046078Y-83690000D01*
X132953922Y-83690000D01*
X132864905Y-83713852D01*
X132785095Y-83759930D01*
X132719930Y-83825095D01*
X132673852Y-83904905D01*
X132650000Y-83993922D01*
X124114512Y-83993922D01*
X124123760Y-83975349D01*
X124176495Y-83790000D01*
X131823505Y-83790000D01*
X132750000Y-83790000D01*
X132750000Y-82865946D01*
X132670200Y-82880864D01*
X132462822Y-82961201D01*
X132462820Y-82961202D01*
X132273738Y-83078278D01*
X132109391Y-83228099D01*
X131975368Y-83405574D01*
X131876239Y-83604650D01*
X131823505Y-83790000D01*
X124176495Y-83790000D01*
X123250000Y-83790000D01*
X123250000Y-84714052D01*
X122750000Y-84714052D01*
X122750000Y-83790000D01*
X121823505Y-83790000D01*
X111223056Y-83790000D01*
X111287190Y-83493922D01*
X122650000Y-83493922D01*
X122650000Y-83586078D01*
X122673852Y-83675095D01*
X122719930Y-83754905D01*
X122785095Y-83820070D01*
X122864905Y-83866148D01*
X122953922Y-83890000D01*
X123046078Y-83890000D01*
X123135095Y-83866148D01*
X123214905Y-83820070D01*
X123280070Y-83754905D01*
X123326148Y-83675095D01*
X123350000Y-83586078D01*
X123350000Y-83493922D01*
X123326148Y-83404905D01*
X123280070Y-83325095D01*
X123244975Y-83290000D01*
X123250000Y-83290000D01*
X124176495Y-83290000D01*
X124123760Y-83104650D01*
X124024631Y-82905574D01*
X123967560Y-82830000D01*
X126823505Y-82830000D01*
X126876239Y-83015349D01*
X126975368Y-83214425D01*
X127109391Y-83391900D01*
X127273738Y-83541721D01*
X127462820Y-83658797D01*
X127462822Y-83658798D01*
X127670195Y-83739135D01*
X127750000Y-83754052D01*
X128250000Y-83754052D01*
X128329804Y-83739135D01*
X128537177Y-83658798D01*
X128537179Y-83658797D01*
X128726261Y-83541721D01*
X128890608Y-83391900D01*
X129024631Y-83214425D01*
X129123760Y-83015349D01*
X129176495Y-82830000D01*
X128250000Y-82830000D01*
X128250000Y-83754052D01*
X127750000Y-83754052D01*
X127750000Y-82830000D01*
X126823505Y-82830000D01*
X123967560Y-82830000D01*
X123890608Y-82728099D01*
X123726261Y-82578278D01*
X123654624Y-82533922D01*
X127650000Y-82533922D01*
X127650000Y-82626078D01*
X127673852Y-82715095D01*
X127719930Y-82794905D01*
X127785095Y-82860070D01*
X127864905Y-82906148D01*
X127953922Y-82930000D01*
X128046078Y-82930000D01*
X128135095Y-82906148D01*
X128214905Y-82860070D01*
X128280070Y-82794905D01*
X128326148Y-82715095D01*
X128350000Y-82626078D01*
X128350000Y-82533922D01*
X128326148Y-82444905D01*
X128280070Y-82365095D01*
X128244975Y-82330000D01*
X128250000Y-82330000D01*
X129176495Y-82330000D01*
X129123760Y-82144650D01*
X129024631Y-81945574D01*
X128890608Y-81768099D01*
X128726261Y-81618278D01*
X128537179Y-81501202D01*
X128537177Y-81501201D01*
X128329799Y-81420864D01*
X128250000Y-81405946D01*
X128250000Y-82330000D01*
X128244975Y-82330000D01*
X128214905Y-82299930D01*
X128135095Y-82253852D01*
X128046078Y-82230000D01*
X127953922Y-82230000D01*
X127864905Y-82253852D01*
X127785095Y-82299930D01*
X127719930Y-82365095D01*
X127673852Y-82444905D01*
X127650000Y-82533922D01*
X123654624Y-82533922D01*
X123537179Y-82461202D01*
X123537177Y-82461201D01*
X123329799Y-82380864D01*
X123250000Y-82365946D01*
X123250000Y-83290000D01*
X123244975Y-83290000D01*
X123214905Y-83259930D01*
X123135095Y-83213852D01*
X123046078Y-83190000D01*
X122953922Y-83190000D01*
X122864905Y-83213852D01*
X122785095Y-83259930D01*
X122719930Y-83325095D01*
X122673852Y-83404905D01*
X122650000Y-83493922D01*
X111287190Y-83493922D01*
X111331362Y-83290000D01*
X121823505Y-83290000D01*
X122750000Y-83290000D01*
X122750000Y-82365946D01*
X122670200Y-82380864D01*
X122462822Y-82461201D01*
X122462820Y-82461202D01*
X122273738Y-82578278D01*
X122109391Y-82728099D01*
X121975368Y-82905574D01*
X121876239Y-83104650D01*
X121823505Y-83290000D01*
X111331362Y-83290000D01*
X111539311Y-82330000D01*
X126823505Y-82330000D01*
X127750000Y-82330000D01*
X127750000Y-81405946D01*
X127670200Y-81420864D01*
X127462822Y-81501201D01*
X127462820Y-81501202D01*
X127273738Y-81618278D01*
X127109391Y-81768099D01*
X126975368Y-81945574D01*
X126876239Y-82144650D01*
X126823505Y-82330000D01*
X111539311Y-82330000D01*
X111745740Y-81377016D01*
X111752140Y-81356372D01*
X112715030Y-78999993D01*
X114329700Y-78999993D01*
X114329700Y-79000006D01*
X114348864Y-79231297D01*
X114348866Y-79231308D01*
X114405842Y-79456300D01*
X114499075Y-79668848D01*
X114626016Y-79863147D01*
X114626019Y-79863151D01*
X114626021Y-79863153D01*
X114783216Y-80033913D01*
X114783219Y-80033915D01*
X114783222Y-80033918D01*
X114966365Y-80176464D01*
X114966371Y-80176468D01*
X114966374Y-80176470D01*
X115067700Y-80231305D01*
X115168667Y-80285946D01*
X115170497Y-80286936D01*
X115269920Y-80321068D01*
X115390015Y-80362297D01*
X115390017Y-80362297D01*
X115390019Y-80362298D01*
X115618951Y-80400500D01*
X115618952Y-80400500D01*
X115851048Y-80400500D01*
X115851049Y-80400500D01*
X116079981Y-80362298D01*
X116299503Y-80286936D01*
X116503626Y-80176470D01*
X116524145Y-80160500D01*
X116608696Y-80094691D01*
X116686784Y-80033913D01*
X116695130Y-80024846D01*
X116755010Y-79988854D01*
X116824849Y-79990949D01*
X116882468Y-80030469D01*
X116902544Y-80065491D01*
X116931203Y-80142330D01*
X116931206Y-80142335D01*
X117017452Y-80257544D01*
X117017455Y-80257547D01*
X117132664Y-80343793D01*
X117132671Y-80343797D01*
X117267517Y-80394091D01*
X117267516Y-80394091D01*
X117274444Y-80394835D01*
X117327127Y-80400500D01*
X119222872Y-80400499D01*
X119282483Y-80394091D01*
X119417331Y-80343796D01*
X119532546Y-80257546D01*
X119618796Y-80142331D01*
X119669091Y-80007483D01*
X119675500Y-79947873D01*
X119675499Y-78052128D01*
X119669091Y-77992517D01*
X119659233Y-77966087D01*
X119618797Y-77857671D01*
X119618793Y-77857665D01*
X119612165Y-77848810D01*
X119587748Y-77783346D01*
X119602600Y-77715073D01*
X119652005Y-77665668D01*
X119711432Y-77650500D01*
X121219192Y-77650500D01*
X121286231Y-77670185D01*
X121306873Y-77686819D01*
X121777424Y-78157370D01*
X121810909Y-78218693D01*
X121813214Y-78256492D01*
X121794357Y-78459998D01*
X121794357Y-78460000D01*
X121814884Y-78681535D01*
X121814885Y-78681537D01*
X121875769Y-78895523D01*
X121875775Y-78895538D01*
X121974938Y-79094683D01*
X121974943Y-79094691D01*
X122109020Y-79272238D01*
X122273437Y-79422123D01*
X122273439Y-79422125D01*
X122462595Y-79539245D01*
X122462596Y-79539245D01*
X122462599Y-79539247D01*
X122670060Y-79619618D01*
X122888757Y-79660500D01*
X122888759Y-79660500D01*
X123111241Y-79660500D01*
X123111243Y-79660500D01*
X123329940Y-79619618D01*
X123537401Y-79539247D01*
X123726562Y-79422124D01*
X123890981Y-79272236D01*
X124025058Y-79094689D01*
X124124229Y-78895528D01*
X124185115Y-78681536D01*
X124205643Y-78460000D01*
X124202715Y-78428406D01*
X124185115Y-78238464D01*
X124185114Y-78238462D01*
X124179489Y-78218693D01*
X124124229Y-78024472D01*
X124119442Y-78014858D01*
X124025061Y-77825316D01*
X124025056Y-77825308D01*
X123890979Y-77647761D01*
X123726562Y-77497876D01*
X123726560Y-77497874D01*
X123537404Y-77380754D01*
X123537398Y-77380752D01*
X123329940Y-77300382D01*
X123111243Y-77259500D01*
X122888757Y-77259500D01*
X122853246Y-77266137D01*
X122810358Y-77274155D01*
X122740843Y-77267123D01*
X122699893Y-77239947D01*
X121954674Y-76494727D01*
X121954673Y-76494726D01*
X121925387Y-76475158D01*
X121848127Y-76423535D01*
X121841408Y-76420752D01*
X121729744Y-76374499D01*
X121729738Y-76374497D01*
X121604071Y-76349500D01*
X121604069Y-76349500D01*
X118935931Y-76349500D01*
X118935929Y-76349500D01*
X118810261Y-76374497D01*
X118810255Y-76374499D01*
X118691874Y-76423534D01*
X118585326Y-76494726D01*
X117769726Y-77310326D01*
X117700016Y-77414657D01*
X117700009Y-77414668D01*
X117698533Y-77416876D01*
X117654595Y-77522953D01*
X117610754Y-77577356D01*
X117544460Y-77599421D01*
X117540035Y-77599500D01*
X117327130Y-77599500D01*
X117327123Y-77599501D01*
X117267516Y-77605908D01*
X117132671Y-77656202D01*
X117132664Y-77656206D01*
X117017455Y-77742452D01*
X117017452Y-77742455D01*
X116931206Y-77857664D01*
X116931203Y-77857670D01*
X116902544Y-77934508D01*
X116860672Y-77990441D01*
X116795208Y-78014858D01*
X116726935Y-78000006D01*
X116695135Y-77975158D01*
X116686784Y-77966087D01*
X116686778Y-77966082D01*
X116686777Y-77966081D01*
X116503634Y-77823535D01*
X116503628Y-77823531D01*
X116299504Y-77713064D01*
X116299495Y-77713061D01*
X116079984Y-77637702D01*
X115889450Y-77605908D01*
X115851049Y-77599500D01*
X115618951Y-77599500D01*
X115580550Y-77605908D01*
X115390015Y-77637702D01*
X115170504Y-77713061D01*
X115170495Y-77713064D01*
X114966371Y-77823531D01*
X114966365Y-77823535D01*
X114783222Y-77966081D01*
X114783219Y-77966084D01*
X114783216Y-77966086D01*
X114783216Y-77966087D01*
X114738319Y-78014858D01*
X114626016Y-78136852D01*
X114499075Y-78331151D01*
X114405842Y-78543699D01*
X114348866Y-78768691D01*
X114348864Y-78768702D01*
X114329700Y-78999993D01*
X112715030Y-78999993D01*
X112948600Y-78428401D01*
X112956860Y-78411839D01*
X112958667Y-78408807D01*
X113789052Y-77015183D01*
X113797555Y-77002710D01*
X114864738Y-75625701D01*
X114873141Y-75615950D01*
X116137421Y-74294707D01*
X116145842Y-74286696D01*
X117567826Y-73055478D01*
X117576525Y-73048603D01*
X117644046Y-72999993D01*
X121329700Y-72999993D01*
X121329700Y-73000006D01*
X121348864Y-73231297D01*
X121348866Y-73231308D01*
X121405842Y-73456300D01*
X121499075Y-73668848D01*
X121626016Y-73863147D01*
X121626019Y-73863151D01*
X121626021Y-73863153D01*
X121783216Y-74033913D01*
X121783219Y-74033915D01*
X121783222Y-74033918D01*
X121966365Y-74176464D01*
X121966371Y-74176468D01*
X121966374Y-74176470D01*
X122067700Y-74231305D01*
X122170053Y-74286696D01*
X122170497Y-74286936D01*
X122282393Y-74325350D01*
X122390015Y-74362297D01*
X122390017Y-74362297D01*
X122390019Y-74362298D01*
X122618951Y-74400500D01*
X122618952Y-74400500D01*
X122851048Y-74400500D01*
X122851049Y-74400500D01*
X123079981Y-74362298D01*
X123299503Y-74286936D01*
X123503626Y-74176470D01*
X123686784Y-74033913D01*
X123695130Y-74024846D01*
X123755010Y-73988854D01*
X123824849Y-73990949D01*
X123882468Y-74030469D01*
X123902544Y-74065491D01*
X123931203Y-74142330D01*
X123931206Y-74142335D01*
X124017452Y-74257544D01*
X124017455Y-74257547D01*
X124132664Y-74343793D01*
X124132671Y-74343797D01*
X124159869Y-74353941D01*
X124267517Y-74394091D01*
X124327127Y-74400500D01*
X124500500Y-74400499D01*
X124567539Y-74420183D01*
X124613294Y-74472987D01*
X124624500Y-74524499D01*
X124624500Y-74839071D01*
X124646665Y-74950496D01*
X124646665Y-74950497D01*
X124649497Y-74964736D01*
X124649501Y-74964749D01*
X124698532Y-75083123D01*
X124769726Y-75189673D01*
X124769727Y-75189674D01*
X126777424Y-77197370D01*
X126810909Y-77258693D01*
X126813214Y-77296492D01*
X126794357Y-77499998D01*
X126794357Y-77500000D01*
X126814884Y-77721535D01*
X126814885Y-77721537D01*
X126875769Y-77935523D01*
X126875775Y-77935538D01*
X126974938Y-78134683D01*
X126974943Y-78134691D01*
X127109020Y-78312238D01*
X127273437Y-78462123D01*
X127273439Y-78462125D01*
X127462595Y-78579245D01*
X127462596Y-78579245D01*
X127462599Y-78579247D01*
X127670060Y-78659618D01*
X127888757Y-78700500D01*
X127888759Y-78700500D01*
X128111241Y-78700500D01*
X128111243Y-78700500D01*
X128329940Y-78659618D01*
X128537401Y-78579247D01*
X128726562Y-78462124D01*
X128876633Y-78325316D01*
X128890979Y-78312238D01*
X128899933Y-78300382D01*
X129025058Y-78134689D01*
X129124229Y-77935528D01*
X129185115Y-77721536D01*
X129205643Y-77500000D01*
X129185115Y-77278464D01*
X129124229Y-77064472D01*
X129113886Y-77043700D01*
X129025061Y-76865316D01*
X129025056Y-76865308D01*
X128890979Y-76687761D01*
X128726562Y-76537876D01*
X128726560Y-76537874D01*
X128537404Y-76420754D01*
X128537398Y-76420752D01*
X128329940Y-76340382D01*
X128111243Y-76299500D01*
X127888757Y-76299500D01*
X127853246Y-76306137D01*
X127810358Y-76314155D01*
X127740843Y-76307123D01*
X127699893Y-76279947D01*
X126032126Y-74612180D01*
X125998641Y-74550857D01*
X126003625Y-74481165D01*
X126045497Y-74425232D01*
X126110961Y-74400815D01*
X126119807Y-74400499D01*
X126222871Y-74400499D01*
X126222872Y-74400499D01*
X126282483Y-74394091D01*
X126417331Y-74343796D01*
X126532546Y-74257546D01*
X126618796Y-74142331D01*
X126669091Y-74007483D01*
X126675500Y-73947873D01*
X126675499Y-72052128D01*
X126669091Y-71992517D01*
X126659233Y-71966087D01*
X126618797Y-71857671D01*
X126618793Y-71857664D01*
X126532547Y-71742455D01*
X126532544Y-71742452D01*
X126417335Y-71656206D01*
X126417328Y-71656202D01*
X126282482Y-71605908D01*
X126282483Y-71605908D01*
X126222883Y-71599501D01*
X126222881Y-71599500D01*
X126222873Y-71599500D01*
X126222864Y-71599500D01*
X124327129Y-71599500D01*
X124327123Y-71599501D01*
X124267516Y-71605908D01*
X124132671Y-71656202D01*
X124132664Y-71656206D01*
X124017455Y-71742452D01*
X124017452Y-71742455D01*
X123931206Y-71857664D01*
X123931203Y-71857670D01*
X123902544Y-71934508D01*
X123860672Y-71990441D01*
X123795208Y-72014858D01*
X123726935Y-72000006D01*
X123695135Y-71975158D01*
X123686784Y-71966087D01*
X123686778Y-71966082D01*
X123686777Y-71966081D01*
X123503634Y-71823535D01*
X123503628Y-71823531D01*
X123299504Y-71713064D01*
X123299495Y-71713061D01*
X123079984Y-71637702D01*
X122889450Y-71605908D01*
X122851049Y-71599500D01*
X122618951Y-71599500D01*
X122580550Y-71605908D01*
X122390015Y-71637702D01*
X122170504Y-71713061D01*
X122170495Y-71713064D01*
X121966371Y-71823531D01*
X121966365Y-71823535D01*
X121783222Y-71966081D01*
X121783219Y-71966084D01*
X121783216Y-71966086D01*
X121783216Y-71966087D01*
X121744462Y-72008185D01*
X121626016Y-72136852D01*
X121499075Y-72331151D01*
X121405842Y-72543699D01*
X121348866Y-72768691D01*
X121348864Y-72768702D01*
X121329700Y-72999993D01*
X117644046Y-72999993D01*
X119116114Y-71940211D01*
X119125519Y-71934070D01*
X119772796Y-71552135D01*
X129324500Y-71552135D01*
X129324500Y-73447870D01*
X129324501Y-73447876D01*
X129330908Y-73507483D01*
X129381202Y-73642328D01*
X129381206Y-73642335D01*
X129467452Y-73757544D01*
X129467455Y-73757547D01*
X129582664Y-73843793D01*
X129582671Y-73843797D01*
X129619851Y-73857664D01*
X129717517Y-73894091D01*
X129777127Y-73900500D01*
X129950500Y-73900499D01*
X130017539Y-73920183D01*
X130063294Y-73972987D01*
X130074500Y-74024499D01*
X130074500Y-76749071D01*
X130094477Y-76849497D01*
X130094477Y-76849498D01*
X130099497Y-76874737D01*
X130099500Y-76874747D01*
X130148532Y-76993123D01*
X130148535Y-76993127D01*
X130199898Y-77069999D01*
X130219726Y-77099673D01*
X130219727Y-77099674D01*
X131777424Y-78657370D01*
X131810909Y-78718693D01*
X131813214Y-78756492D01*
X131794357Y-78959998D01*
X131794357Y-78960000D01*
X131814884Y-79181535D01*
X131814885Y-79181537D01*
X131875769Y-79395523D01*
X131875775Y-79395538D01*
X131974938Y-79594683D01*
X131974943Y-79594691D01*
X132109020Y-79772238D01*
X132273437Y-79922123D01*
X132273439Y-79922125D01*
X132462595Y-80039245D01*
X132462596Y-80039245D01*
X132462599Y-80039247D01*
X132670060Y-80119618D01*
X132888757Y-80160500D01*
X132888759Y-80160500D01*
X133111241Y-80160500D01*
X133111243Y-80160500D01*
X133329940Y-80119618D01*
X133537401Y-80039247D01*
X133726562Y-79922124D01*
X133890981Y-79772236D01*
X134025058Y-79594689D01*
X134124229Y-79395528D01*
X134185115Y-79181536D01*
X134205643Y-78960000D01*
X134201953Y-78920183D01*
X134185115Y-78738464D01*
X134185114Y-78738462D01*
X134182173Y-78728127D01*
X134124229Y-78524472D01*
X134124224Y-78524461D01*
X134025061Y-78325316D01*
X134025056Y-78325308D01*
X133890979Y-78147761D01*
X133726562Y-77997876D01*
X133726560Y-77997874D01*
X133537404Y-77880754D01*
X133537398Y-77880752D01*
X133329940Y-77800382D01*
X133111243Y-77759500D01*
X132888757Y-77759500D01*
X132853246Y-77766137D01*
X132810358Y-77774155D01*
X132740843Y-77767123D01*
X132699893Y-77739947D01*
X131512081Y-76552135D01*
X136059500Y-76552135D01*
X136059500Y-78447870D01*
X136059501Y-78447876D01*
X136065908Y-78507483D01*
X136116202Y-78642328D01*
X136116206Y-78642335D01*
X136202452Y-78757544D01*
X136202455Y-78757547D01*
X136317664Y-78843793D01*
X136317671Y-78843797D01*
X136354851Y-78857664D01*
X136452517Y-78894091D01*
X136512127Y-78900500D01*
X136685500Y-78900499D01*
X136752539Y-78920183D01*
X136798294Y-78972987D01*
X136809500Y-79024499D01*
X136809500Y-81984070D01*
X136819740Y-82035546D01*
X136819741Y-82035549D01*
X136835660Y-82115583D01*
X136833309Y-82173704D01*
X136814885Y-82238462D01*
X136814884Y-82238465D01*
X136794357Y-82459999D01*
X136794357Y-82460000D01*
X136814884Y-82681535D01*
X136814885Y-82681537D01*
X136875769Y-82895523D01*
X136875775Y-82895538D01*
X136974938Y-83094683D01*
X136974943Y-83094691D01*
X137109020Y-83272238D01*
X137273437Y-83422123D01*
X137273439Y-83422125D01*
X137462595Y-83539245D01*
X137462596Y-83539245D01*
X137462599Y-83539247D01*
X137670060Y-83619618D01*
X137888757Y-83660500D01*
X137888759Y-83660500D01*
X138111241Y-83660500D01*
X138111243Y-83660500D01*
X138329940Y-83619618D01*
X138537401Y-83539247D01*
X138726562Y-83422124D01*
X138890981Y-83272236D01*
X139025058Y-83094689D01*
X139124229Y-82895528D01*
X139185115Y-82681536D01*
X139205643Y-82460000D01*
X139185115Y-82238464D01*
X139124229Y-82024472D01*
X139124224Y-82024461D01*
X139025061Y-81825316D01*
X139025056Y-81825308D01*
X138890979Y-81647761D01*
X138726562Y-81497876D01*
X138726560Y-81497874D01*
X138537404Y-81380754D01*
X138537398Y-81380752D01*
X138329940Y-81300382D01*
X138211713Y-81278281D01*
X138149434Y-81246613D01*
X138114161Y-81186301D01*
X138110500Y-81156393D01*
X138110500Y-79024499D01*
X138130185Y-78957460D01*
X138182989Y-78911705D01*
X138234500Y-78900499D01*
X138407871Y-78900499D01*
X138407872Y-78900499D01*
X138467483Y-78894091D01*
X138602331Y-78843796D01*
X138717546Y-78757546D01*
X138803796Y-78642331D01*
X138832455Y-78565493D01*
X138874326Y-78509559D01*
X138939790Y-78485141D01*
X139008063Y-78499992D01*
X139039866Y-78524843D01*
X139047302Y-78532920D01*
X139048215Y-78533912D01*
X139048222Y-78533918D01*
X139231365Y-78676464D01*
X139231371Y-78676468D01*
X139231374Y-78676470D01*
X139435497Y-78786936D01*
X139542092Y-78823530D01*
X139655015Y-78862297D01*
X139655017Y-78862297D01*
X139655019Y-78862298D01*
X139883951Y-78900500D01*
X139883952Y-78900500D01*
X140116048Y-78900500D01*
X140116049Y-78900500D01*
X140344981Y-78862298D01*
X140564503Y-78786936D01*
X140768626Y-78676470D01*
X140794667Y-78656202D01*
X140866231Y-78600501D01*
X140951784Y-78533913D01*
X141108979Y-78363153D01*
X141235924Y-78168849D01*
X141329157Y-77956300D01*
X141386134Y-77731305D01*
X141386135Y-77731297D01*
X141405300Y-77500006D01*
X141405300Y-77499993D01*
X141386135Y-77268702D01*
X141386133Y-77268691D01*
X141329157Y-77043699D01*
X141235924Y-76831151D01*
X141108983Y-76636852D01*
X141108980Y-76636849D01*
X141108979Y-76636847D01*
X140951784Y-76466087D01*
X140951779Y-76466083D01*
X140951777Y-76466081D01*
X140768634Y-76323535D01*
X140768628Y-76323531D01*
X140564504Y-76213064D01*
X140564495Y-76213061D01*
X140344984Y-76137702D01*
X140154450Y-76105908D01*
X140116049Y-76099500D01*
X139883951Y-76099500D01*
X139845550Y-76105908D01*
X139655015Y-76137702D01*
X139435504Y-76213061D01*
X139435495Y-76213064D01*
X139231371Y-76323531D01*
X139231365Y-76323535D01*
X139048222Y-76466081D01*
X139048218Y-76466085D01*
X139048216Y-76466086D01*
X139048216Y-76466087D01*
X139043009Y-76471744D01*
X139039866Y-76475158D01*
X138979979Y-76511148D01*
X138910141Y-76509047D01*
X138852525Y-76469522D01*
X138832455Y-76434507D01*
X138803797Y-76357671D01*
X138803793Y-76357664D01*
X138717547Y-76242455D01*
X138717544Y-76242452D01*
X138602335Y-76156206D01*
X138602328Y-76156202D01*
X138467482Y-76105908D01*
X138467483Y-76105908D01*
X138407883Y-76099501D01*
X138407881Y-76099500D01*
X138407873Y-76099500D01*
X138407864Y-76099500D01*
X136512129Y-76099500D01*
X136512123Y-76099501D01*
X136452516Y-76105908D01*
X136317671Y-76156202D01*
X136317664Y-76156206D01*
X136202455Y-76242452D01*
X136202452Y-76242455D01*
X136116206Y-76357664D01*
X136116202Y-76357671D01*
X136065908Y-76492517D01*
X136059501Y-76552116D01*
X136059500Y-76552135D01*
X131512081Y-76552135D01*
X131411819Y-76451873D01*
X131378334Y-76390550D01*
X131375500Y-76364192D01*
X131375500Y-74024499D01*
X131395185Y-73957460D01*
X131447989Y-73911705D01*
X131499500Y-73900499D01*
X131672871Y-73900499D01*
X131672872Y-73900499D01*
X131732483Y-73894091D01*
X131867331Y-73843796D01*
X131982546Y-73757546D01*
X132068796Y-73642331D01*
X132070523Y-73637702D01*
X132097455Y-73565493D01*
X132139326Y-73509559D01*
X132204790Y-73485141D01*
X132273063Y-73499992D01*
X132304866Y-73524843D01*
X132312302Y-73532920D01*
X132313215Y-73533912D01*
X132313222Y-73533918D01*
X132496365Y-73676464D01*
X132496371Y-73676468D01*
X132496374Y-73676470D01*
X132700497Y-73786936D01*
X132786425Y-73816435D01*
X132920015Y-73862297D01*
X132920017Y-73862297D01*
X132920019Y-73862298D01*
X133148951Y-73900500D01*
X133148952Y-73900500D01*
X133381048Y-73900500D01*
X133381049Y-73900500D01*
X133609981Y-73862298D01*
X133829503Y-73786936D01*
X134033626Y-73676470D01*
X134059667Y-73656202D01*
X134165944Y-73573483D01*
X134216784Y-73533913D01*
X134373979Y-73363153D01*
X134500924Y-73168849D01*
X134594157Y-72956300D01*
X134651134Y-72731305D01*
X134651135Y-72731297D01*
X134670300Y-72500006D01*
X134670300Y-72499992D01*
X134651135Y-72268702D01*
X134651133Y-72268691D01*
X134594157Y-72043699D01*
X134500924Y-71831151D01*
X134373983Y-71636852D01*
X134373980Y-71636849D01*
X134373979Y-71636847D01*
X134216784Y-71466087D01*
X134216779Y-71466083D01*
X134216777Y-71466081D01*
X134033634Y-71323535D01*
X134033628Y-71323531D01*
X133829504Y-71213064D01*
X133829495Y-71213061D01*
X133609984Y-71137702D01*
X133419450Y-71105908D01*
X133381049Y-71099500D01*
X133148951Y-71099500D01*
X133110550Y-71105908D01*
X132920015Y-71137702D01*
X132700504Y-71213061D01*
X132700495Y-71213064D01*
X132496371Y-71323531D01*
X132496365Y-71323535D01*
X132313222Y-71466081D01*
X132313218Y-71466085D01*
X132304866Y-71475158D01*
X132244979Y-71511148D01*
X132175141Y-71509047D01*
X132117525Y-71469522D01*
X132097455Y-71434507D01*
X132068797Y-71357671D01*
X132068793Y-71357664D01*
X131982547Y-71242455D01*
X131982544Y-71242452D01*
X131867335Y-71156206D01*
X131867328Y-71156202D01*
X131732482Y-71105908D01*
X131732483Y-71105908D01*
X131672883Y-71099501D01*
X131672881Y-71099500D01*
X131672873Y-71099500D01*
X131672864Y-71099500D01*
X129777129Y-71099500D01*
X129777123Y-71099501D01*
X129717516Y-71105908D01*
X129582671Y-71156202D01*
X129582664Y-71156206D01*
X129467455Y-71242452D01*
X129467452Y-71242455D01*
X129381206Y-71357664D01*
X129381202Y-71357671D01*
X129330908Y-71492517D01*
X129324501Y-71552116D01*
X129324500Y-71552135D01*
X119772796Y-71552135D01*
X120741941Y-70980277D01*
X120752621Y-70974658D01*
X122404253Y-70206257D01*
X122416978Y-70201172D01*
X124065491Y-69646088D01*
X124079452Y-69642280D01*
X125572308Y-69327270D01*
X125584656Y-69325309D01*
X127141454Y-69158098D01*
X127158280Y-69157442D01*
X130415420Y-69252238D01*
X130436700Y-69254708D01*
X133618947Y-69906704D01*
X133635347Y-69911258D01*
X135099500Y-70428472D01*
X135111261Y-70433319D01*
X135951290Y-70831151D01*
X136477464Y-71080343D01*
X136489250Y-71086725D01*
X136801330Y-71278251D01*
X137752372Y-71861914D01*
X137762076Y-71868522D01*
X138908289Y-72731297D01*
X138985220Y-72789204D01*
X138997075Y-72799358D01*
X139257135Y-73052135D01*
X141287902Y-75026034D01*
X141300955Y-75040927D01*
X141975705Y-75947872D01*
X143191556Y-77582124D01*
X143200287Y-77595602D01*
X143930698Y-78901295D01*
X143936181Y-78912355D01*
X144496448Y-80199862D01*
X144503682Y-80222864D01*
X144504223Y-80224443D01*
X144526541Y-80269410D01*
X144529169Y-80275057D01*
X144549190Y-80321065D01*
X144550062Y-80322515D01*
X144562988Y-80342839D01*
X145305883Y-81839560D01*
X145312332Y-81855128D01*
X145319782Y-81877260D01*
X145334490Y-81899396D01*
X145342278Y-81912885D01*
X145354091Y-81936685D01*
X145354097Y-81936692D01*
X145369534Y-81954205D01*
X145379793Y-81967574D01*
X145390753Y-81984069D01*
X145392714Y-81987019D01*
X145410175Y-82002411D01*
X145412643Y-82004587D01*
X145423662Y-82015606D01*
X145431468Y-82024461D01*
X145441240Y-82035546D01*
X145460690Y-82048469D01*
X145474062Y-82058730D01*
X145491571Y-82074165D01*
X145503866Y-82080267D01*
X145515368Y-82085977D01*
X145528858Y-82093765D01*
X145551002Y-82108479D01*
X145554761Y-82109744D01*
X145573134Y-82115928D01*
X145588711Y-82122380D01*
X145609614Y-82132756D01*
X145622598Y-82135373D01*
X145635664Y-82138008D01*
X145650716Y-82142041D01*
X145675897Y-82150517D01*
X145675899Y-82150517D01*
X145675902Y-82150518D01*
X145694401Y-82151682D01*
X145699193Y-82151984D01*
X145715910Y-82154184D01*
X145738799Y-82158799D01*
X145765332Y-82157128D01*
X145780892Y-82157128D01*
X145807425Y-82158799D01*
X145830315Y-82154183D01*
X145847030Y-82151984D01*
X145850440Y-82151769D01*
X145870322Y-82150518D01*
X145895508Y-82142040D01*
X145910561Y-82138007D01*
X145936606Y-82132757D01*
X145936606Y-82132756D01*
X145936610Y-82132756D01*
X145957516Y-82122378D01*
X145973098Y-82115924D01*
X145991460Y-82109744D01*
X145995222Y-82108478D01*
X146017362Y-82093765D01*
X146030837Y-82085986D01*
X146054654Y-82074166D01*
X146072176Y-82058718D01*
X146085541Y-82048462D01*
X146104984Y-82035545D01*
X146122549Y-82015617D01*
X146133566Y-82004600D01*
X146153511Y-81987020D01*
X146166438Y-81967562D01*
X146176692Y-81954198D01*
X146192130Y-81936688D01*
X146203944Y-81912883D01*
X146211725Y-81899407D01*
X146226443Y-81877258D01*
X146233893Y-81855123D01*
X146240342Y-81839553D01*
X146247411Y-81825311D01*
X146981548Y-80346237D01*
X146989872Y-80333323D01*
X146989607Y-80333159D01*
X146993874Y-80326250D01*
X146993875Y-80326247D01*
X146993878Y-80326244D01*
X147016011Y-80277002D01*
X147018003Y-80272789D01*
X147042002Y-80224441D01*
X147042003Y-80224435D01*
X147044635Y-80216750D01*
X147044930Y-80216851D01*
X147049629Y-80202217D01*
X147061203Y-80176470D01*
X147566602Y-79052135D01*
X148324500Y-79052135D01*
X148324500Y-80947870D01*
X148324501Y-80947876D01*
X148330908Y-81007483D01*
X148381202Y-81142328D01*
X148381206Y-81142335D01*
X148467452Y-81257544D01*
X148467455Y-81257547D01*
X148582664Y-81343793D01*
X148582671Y-81343797D01*
X148627618Y-81360561D01*
X148717517Y-81394091D01*
X148777127Y-81400500D01*
X148950500Y-81400499D01*
X149017539Y-81420183D01*
X149063294Y-81472987D01*
X149074500Y-81524499D01*
X149074500Y-83749069D01*
X149090679Y-83830403D01*
X149097744Y-83865925D01*
X149099499Y-83874745D01*
X149101988Y-83880753D01*
X149148535Y-83993127D01*
X149219723Y-84099669D01*
X149219726Y-84099673D01*
X149219727Y-84099674D01*
X149777424Y-84657370D01*
X149810909Y-84718693D01*
X149813214Y-84756492D01*
X149794357Y-84959998D01*
X149794357Y-84960000D01*
X149814884Y-85181535D01*
X149814885Y-85181537D01*
X149875769Y-85395523D01*
X149875775Y-85395538D01*
X149974938Y-85594683D01*
X149974943Y-85594691D01*
X150109020Y-85772238D01*
X150273437Y-85922123D01*
X150273439Y-85922125D01*
X150462595Y-86039245D01*
X150462596Y-86039245D01*
X150462599Y-86039247D01*
X150670060Y-86119618D01*
X150888757Y-86160500D01*
X150888759Y-86160500D01*
X151111241Y-86160500D01*
X151111243Y-86160500D01*
X151329940Y-86119618D01*
X151537401Y-86039247D01*
X151726562Y-85922124D01*
X151866282Y-85794751D01*
X151890979Y-85772238D01*
X151893650Y-85768702D01*
X152025058Y-85594689D01*
X152124229Y-85395528D01*
X152185115Y-85181536D01*
X152205643Y-84960000D01*
X152196946Y-84866148D01*
X152189890Y-84790000D01*
X155323505Y-84790000D01*
X155376239Y-84975349D01*
X155475368Y-85174425D01*
X155609391Y-85351900D01*
X155773738Y-85501721D01*
X155962820Y-85618797D01*
X155962822Y-85618798D01*
X156170195Y-85699135D01*
X156250000Y-85714052D01*
X156750000Y-85714052D01*
X156829804Y-85699135D01*
X157037177Y-85618798D01*
X157037179Y-85618797D01*
X157226261Y-85501721D01*
X157390608Y-85351900D01*
X157524631Y-85174425D01*
X157623760Y-84975349D01*
X157676495Y-84790000D01*
X156750000Y-84790000D01*
X156750000Y-85714052D01*
X156250000Y-85714052D01*
X156250000Y-84790000D01*
X155323505Y-84790000D01*
X152189890Y-84790000D01*
X152185115Y-84738464D01*
X152185114Y-84738462D01*
X152179489Y-84718693D01*
X152124229Y-84524472D01*
X152124224Y-84524461D01*
X152109017Y-84493922D01*
X156150000Y-84493922D01*
X156150000Y-84586078D01*
X156173852Y-84675095D01*
X156219930Y-84754905D01*
X156285095Y-84820070D01*
X156364905Y-84866148D01*
X156453922Y-84890000D01*
X156546078Y-84890000D01*
X156635095Y-84866148D01*
X156714905Y-84820070D01*
X156780070Y-84754905D01*
X156826148Y-84675095D01*
X156850000Y-84586078D01*
X156850000Y-84493922D01*
X156826148Y-84404905D01*
X156780070Y-84325095D01*
X156744975Y-84290000D01*
X156750000Y-84290000D01*
X157676495Y-84290000D01*
X157623760Y-84104650D01*
X157524631Y-83905574D01*
X157437354Y-83790000D01*
X164823505Y-83790000D01*
X164876239Y-83975349D01*
X164975368Y-84174425D01*
X165109391Y-84351900D01*
X165273738Y-84501721D01*
X165462820Y-84618797D01*
X165462822Y-84618798D01*
X165670195Y-84699135D01*
X165750000Y-84714052D01*
X166250000Y-84714052D01*
X166329804Y-84699135D01*
X166537177Y-84618798D01*
X166537179Y-84618797D01*
X166726261Y-84501721D01*
X166890608Y-84351900D01*
X167024631Y-84174425D01*
X167123760Y-83975349D01*
X167176495Y-83790000D01*
X166250000Y-83790000D01*
X166250000Y-84714052D01*
X165750000Y-84714052D01*
X165750000Y-83790000D01*
X164823505Y-83790000D01*
X157437354Y-83790000D01*
X157390608Y-83728099D01*
X157226261Y-83578278D01*
X157090023Y-83493922D01*
X165650000Y-83493922D01*
X165650000Y-83586078D01*
X165673852Y-83675095D01*
X165719930Y-83754905D01*
X165785095Y-83820070D01*
X165864905Y-83866148D01*
X165953922Y-83890000D01*
X166046078Y-83890000D01*
X166135095Y-83866148D01*
X166214905Y-83820070D01*
X166280070Y-83754905D01*
X166326148Y-83675095D01*
X166350000Y-83586078D01*
X166350000Y-83493922D01*
X166326148Y-83404905D01*
X166280070Y-83325095D01*
X166244975Y-83290000D01*
X166250000Y-83290000D01*
X167176495Y-83290000D01*
X167123760Y-83104650D01*
X167024631Y-82905574D01*
X166890608Y-82728099D01*
X166726261Y-82578278D01*
X166537179Y-82461202D01*
X166537177Y-82461201D01*
X166329799Y-82380864D01*
X166250000Y-82365946D01*
X166250000Y-83290000D01*
X166244975Y-83290000D01*
X166214905Y-83259930D01*
X166135095Y-83213852D01*
X166046078Y-83190000D01*
X165953922Y-83190000D01*
X165864905Y-83213852D01*
X165785095Y-83259930D01*
X165719930Y-83325095D01*
X165673852Y-83404905D01*
X165650000Y-83493922D01*
X157090023Y-83493922D01*
X157037179Y-83461202D01*
X157037177Y-83461201D01*
X156829799Y-83380864D01*
X156750000Y-83365946D01*
X156750000Y-84290000D01*
X156744975Y-84290000D01*
X156714905Y-84259930D01*
X156635095Y-84213852D01*
X156546078Y-84190000D01*
X156453922Y-84190000D01*
X156364905Y-84213852D01*
X156285095Y-84259930D01*
X156219930Y-84325095D01*
X156173852Y-84404905D01*
X156150000Y-84493922D01*
X152109017Y-84493922D01*
X152025061Y-84325316D01*
X152025056Y-84325308D01*
X151998393Y-84290000D01*
X155323505Y-84290000D01*
X156250000Y-84290000D01*
X156250000Y-83365946D01*
X156170200Y-83380864D01*
X155962822Y-83461201D01*
X155962820Y-83461202D01*
X155773738Y-83578278D01*
X155609391Y-83728099D01*
X155475368Y-83905574D01*
X155376239Y-84104650D01*
X155323505Y-84290000D01*
X151998393Y-84290000D01*
X151890979Y-84147761D01*
X151726562Y-83997876D01*
X151726560Y-83997874D01*
X151537404Y-83880754D01*
X151537398Y-83880752D01*
X151329940Y-83800382D01*
X151111243Y-83759500D01*
X150888757Y-83759500D01*
X150853246Y-83766137D01*
X150810358Y-83774155D01*
X150740843Y-83767123D01*
X150699893Y-83739947D01*
X150411819Y-83451873D01*
X150378334Y-83390550D01*
X150375500Y-83364192D01*
X150375500Y-83290000D01*
X164823505Y-83290000D01*
X165750000Y-83290000D01*
X165750000Y-82365946D01*
X165670200Y-82380864D01*
X165462822Y-82461201D01*
X165462820Y-82461202D01*
X165273738Y-82578278D01*
X165109391Y-82728099D01*
X164975368Y-82905574D01*
X164876239Y-83104650D01*
X164823505Y-83290000D01*
X150375500Y-83290000D01*
X150375500Y-81790000D01*
X160823505Y-81790000D01*
X160876239Y-81975349D01*
X160975368Y-82174425D01*
X161109391Y-82351900D01*
X161273738Y-82501721D01*
X161462820Y-82618797D01*
X161462822Y-82618798D01*
X161670195Y-82699135D01*
X161750000Y-82714052D01*
X162250000Y-82714052D01*
X162329804Y-82699135D01*
X162537177Y-82618798D01*
X162537179Y-82618797D01*
X162726261Y-82501721D01*
X162890608Y-82351900D01*
X163024631Y-82174425D01*
X163123760Y-81975349D01*
X163176495Y-81790000D01*
X162250000Y-81790000D01*
X162250000Y-82714052D01*
X161750000Y-82714052D01*
X161750000Y-81790000D01*
X160823505Y-81790000D01*
X150375500Y-81790000D01*
X150375500Y-81524499D01*
X150384478Y-81493922D01*
X161650000Y-81493922D01*
X161650000Y-81586078D01*
X161673852Y-81675095D01*
X161719930Y-81754905D01*
X161785095Y-81820070D01*
X161864905Y-81866148D01*
X161953922Y-81890000D01*
X162046078Y-81890000D01*
X162135095Y-81866148D01*
X162214905Y-81820070D01*
X162280070Y-81754905D01*
X162305996Y-81710000D01*
X169823505Y-81710000D01*
X169876239Y-81895349D01*
X169975368Y-82094425D01*
X170109391Y-82271900D01*
X170273738Y-82421721D01*
X170462820Y-82538797D01*
X170462822Y-82538798D01*
X170670195Y-82619135D01*
X170750000Y-82634052D01*
X171250000Y-82634052D01*
X171329804Y-82619135D01*
X171537177Y-82538798D01*
X171537179Y-82538797D01*
X171726261Y-82421721D01*
X171890608Y-82271900D01*
X172024631Y-82094425D01*
X172123760Y-81895349D01*
X172176495Y-81710000D01*
X171250000Y-81710000D01*
X171250000Y-82634052D01*
X170750000Y-82634052D01*
X170750000Y-81710000D01*
X169823505Y-81710000D01*
X162305996Y-81710000D01*
X162326148Y-81675095D01*
X162350000Y-81586078D01*
X162350000Y-81493922D01*
X162328564Y-81413922D01*
X170650000Y-81413922D01*
X170650000Y-81506078D01*
X170673852Y-81595095D01*
X170719930Y-81674905D01*
X170785095Y-81740070D01*
X170864905Y-81786148D01*
X170953922Y-81810000D01*
X171046078Y-81810000D01*
X171135095Y-81786148D01*
X171214905Y-81740070D01*
X171280070Y-81674905D01*
X171326148Y-81595095D01*
X171350000Y-81506078D01*
X171350000Y-81413922D01*
X171326148Y-81324905D01*
X171280070Y-81245095D01*
X171244975Y-81210000D01*
X171250000Y-81210000D01*
X172176495Y-81210000D01*
X172123760Y-81024650D01*
X172024631Y-80825574D01*
X171890608Y-80648099D01*
X171726261Y-80498278D01*
X171537179Y-80381202D01*
X171537177Y-80381201D01*
X171329799Y-80300864D01*
X171250000Y-80285946D01*
X171250000Y-81210000D01*
X171244975Y-81210000D01*
X171214905Y-81179930D01*
X171135095Y-81133852D01*
X171046078Y-81110000D01*
X170953922Y-81110000D01*
X170864905Y-81133852D01*
X170785095Y-81179930D01*
X170719930Y-81245095D01*
X170673852Y-81324905D01*
X170650000Y-81413922D01*
X162328564Y-81413922D01*
X162326148Y-81404905D01*
X162280070Y-81325095D01*
X162244975Y-81290000D01*
X162250000Y-81290000D01*
X163176495Y-81290000D01*
X163153734Y-81210000D01*
X169823505Y-81210000D01*
X170750000Y-81210000D01*
X170750000Y-80285946D01*
X170670200Y-80300864D01*
X170462822Y-80381201D01*
X170462820Y-80381202D01*
X170273738Y-80498278D01*
X170109391Y-80648099D01*
X169975368Y-80825574D01*
X169876239Y-81024650D01*
X169823505Y-81210000D01*
X163153734Y-81210000D01*
X163123760Y-81104650D01*
X163024631Y-80905574D01*
X162890608Y-80728099D01*
X162726261Y-80578278D01*
X162537179Y-80461202D01*
X162537177Y-80461201D01*
X162329799Y-80380864D01*
X162250000Y-80365946D01*
X162250000Y-81290000D01*
X162244975Y-81290000D01*
X162214905Y-81259930D01*
X162135095Y-81213852D01*
X162046078Y-81190000D01*
X161953922Y-81190000D01*
X161864905Y-81213852D01*
X161785095Y-81259930D01*
X161719930Y-81325095D01*
X161673852Y-81404905D01*
X161650000Y-81493922D01*
X150384478Y-81493922D01*
X150395185Y-81457460D01*
X150447989Y-81411705D01*
X150499500Y-81400499D01*
X150672871Y-81400499D01*
X150672872Y-81400499D01*
X150732483Y-81394091D01*
X150867331Y-81343796D01*
X150982546Y-81257546D01*
X151068796Y-81142331D01*
X151068798Y-81142326D01*
X151097455Y-81065493D01*
X151139326Y-81009559D01*
X151204790Y-80985141D01*
X151273063Y-80999992D01*
X151304866Y-81024843D01*
X151312302Y-81032920D01*
X151313215Y-81033912D01*
X151313222Y-81033918D01*
X151496365Y-81176464D01*
X151496371Y-81176468D01*
X151496374Y-81176470D01*
X151700497Y-81286936D01*
X151811097Y-81324905D01*
X151920015Y-81362297D01*
X151920017Y-81362297D01*
X151920019Y-81362298D01*
X152148951Y-81400500D01*
X152148952Y-81400500D01*
X152381048Y-81400500D01*
X152381049Y-81400500D01*
X152609981Y-81362298D01*
X152820578Y-81290000D01*
X160823505Y-81290000D01*
X161750000Y-81290000D01*
X161750000Y-80365946D01*
X161670200Y-80380864D01*
X161462822Y-80461201D01*
X161462820Y-80461202D01*
X161273738Y-80578278D01*
X161109391Y-80728099D01*
X160975368Y-80905574D01*
X160876239Y-81104650D01*
X160823505Y-81290000D01*
X152820578Y-81290000D01*
X152829503Y-81286936D01*
X153033626Y-81176470D01*
X153216784Y-81033913D01*
X153373979Y-80863153D01*
X153500924Y-80668849D01*
X153594157Y-80456300D01*
X153651134Y-80231305D01*
X153651703Y-80224441D01*
X153670300Y-80000006D01*
X153670300Y-79999993D01*
X153651135Y-79768702D01*
X153651133Y-79768691D01*
X153594157Y-79543699D01*
X153500924Y-79331151D01*
X153373983Y-79136852D01*
X153373980Y-79136849D01*
X153373979Y-79136847D01*
X153216784Y-78966087D01*
X153216779Y-78966083D01*
X153216777Y-78966081D01*
X153033634Y-78823535D01*
X153033628Y-78823531D01*
X152829504Y-78713064D01*
X152829495Y-78713061D01*
X152609984Y-78637702D01*
X152419450Y-78605908D01*
X152381049Y-78599500D01*
X152148951Y-78599500D01*
X152110550Y-78605908D01*
X151920015Y-78637702D01*
X151700504Y-78713061D01*
X151700495Y-78713064D01*
X151496371Y-78823531D01*
X151496365Y-78823535D01*
X151313222Y-78966081D01*
X151313218Y-78966085D01*
X151304866Y-78975158D01*
X151244979Y-79011148D01*
X151175141Y-79009047D01*
X151117525Y-78969522D01*
X151097455Y-78934507D01*
X151068797Y-78857671D01*
X151068793Y-78857664D01*
X150982547Y-78742455D01*
X150982544Y-78742452D01*
X150867335Y-78656206D01*
X150867328Y-78656202D01*
X150732482Y-78605908D01*
X150732483Y-78605908D01*
X150672883Y-78599501D01*
X150672881Y-78599500D01*
X150672873Y-78599500D01*
X150672864Y-78599500D01*
X148777129Y-78599500D01*
X148777123Y-78599501D01*
X148717516Y-78605908D01*
X148582671Y-78656202D01*
X148582664Y-78656206D01*
X148467455Y-78742452D01*
X148467452Y-78742455D01*
X148381206Y-78857664D01*
X148381202Y-78857671D01*
X148330908Y-78992517D01*
X148324501Y-79052116D01*
X148324500Y-79052135D01*
X147566602Y-79052135D01*
X147852551Y-78415999D01*
X147859906Y-78402078D01*
X147872967Y-78380754D01*
X148916578Y-76676866D01*
X148924947Y-76664859D01*
X150196206Y-75053375D01*
X150205474Y-75042903D01*
X151661960Y-73573472D01*
X151672167Y-73564258D01*
X152307256Y-73052135D01*
X154059500Y-73052135D01*
X154059500Y-74947870D01*
X154059501Y-74947876D01*
X154065908Y-75007483D01*
X154116202Y-75142328D01*
X154116206Y-75142335D01*
X154202452Y-75257544D01*
X154202455Y-75257547D01*
X154317664Y-75343793D01*
X154317671Y-75343797D01*
X154362618Y-75360561D01*
X154452517Y-75394091D01*
X154512127Y-75400500D01*
X154685500Y-75400499D01*
X154752539Y-75420183D01*
X154798294Y-75472987D01*
X154809500Y-75524499D01*
X154809500Y-78484070D01*
X154832659Y-78600490D01*
X154832660Y-78600501D01*
X154832661Y-78600501D01*
X154834498Y-78609742D01*
X154834500Y-78609747D01*
X154883533Y-78728125D01*
X154910641Y-78768695D01*
X154948470Y-78825311D01*
X154954726Y-78834673D01*
X154954727Y-78834674D01*
X155277424Y-79157370D01*
X155310909Y-79218693D01*
X155313214Y-79256492D01*
X155294357Y-79459998D01*
X155294357Y-79460000D01*
X155314884Y-79681535D01*
X155314885Y-79681537D01*
X155375769Y-79895523D01*
X155375775Y-79895538D01*
X155474938Y-80094683D01*
X155474943Y-80094691D01*
X155609020Y-80272238D01*
X155773437Y-80422123D01*
X155773439Y-80422125D01*
X155962595Y-80539245D01*
X155962596Y-80539245D01*
X155962599Y-80539247D01*
X156170060Y-80619618D01*
X156388757Y-80660500D01*
X156388759Y-80660500D01*
X156611241Y-80660500D01*
X156611243Y-80660500D01*
X156829940Y-80619618D01*
X157037401Y-80539247D01*
X157226562Y-80422124D01*
X157388081Y-80274880D01*
X157390979Y-80272238D01*
X157391013Y-80272194D01*
X157525058Y-80094689D01*
X157624229Y-79895528D01*
X157685115Y-79681536D01*
X157705643Y-79460000D01*
X157685115Y-79238464D01*
X157624229Y-79024472D01*
X157624224Y-79024461D01*
X157525061Y-78825316D01*
X157525056Y-78825308D01*
X157390979Y-78647761D01*
X157226562Y-78497876D01*
X157226560Y-78497874D01*
X157165390Y-78459999D01*
X164794357Y-78459999D01*
X164794357Y-78460000D01*
X164814884Y-78681535D01*
X164814885Y-78681537D01*
X164875769Y-78895523D01*
X164875775Y-78895538D01*
X164974938Y-79094683D01*
X164974943Y-79094691D01*
X165109020Y-79272238D01*
X165273437Y-79422123D01*
X165273439Y-79422125D01*
X165462595Y-79539245D01*
X165462596Y-79539245D01*
X165462599Y-79539247D01*
X165670060Y-79619618D01*
X165888757Y-79660500D01*
X165888759Y-79660500D01*
X166111241Y-79660500D01*
X166111243Y-79660500D01*
X166329940Y-79619618D01*
X166537401Y-79539247D01*
X166726562Y-79422124D01*
X166890981Y-79272236D01*
X167025058Y-79094689D01*
X167124229Y-78895528D01*
X167185115Y-78681536D01*
X167205643Y-78460000D01*
X167186785Y-78256489D01*
X167200200Y-78187922D01*
X167222572Y-78157372D01*
X168943127Y-76436818D01*
X169004450Y-76403333D01*
X169030808Y-76400499D01*
X169672871Y-76400499D01*
X169672872Y-76400499D01*
X169732483Y-76394091D01*
X169867331Y-76343796D01*
X169982546Y-76257546D01*
X170068796Y-76142331D01*
X170084771Y-76099500D01*
X170097455Y-76065493D01*
X170139326Y-76009559D01*
X170204790Y-75985141D01*
X170273063Y-75999992D01*
X170304866Y-76024843D01*
X170312302Y-76032920D01*
X170313215Y-76033912D01*
X170313222Y-76033918D01*
X170496365Y-76176464D01*
X170496371Y-76176468D01*
X170496374Y-76176470D01*
X170700497Y-76286936D01*
X170807092Y-76323530D01*
X170920015Y-76362297D01*
X170920017Y-76362297D01*
X170920019Y-76362298D01*
X171148951Y-76400500D01*
X171148952Y-76400500D01*
X171381048Y-76400500D01*
X171381049Y-76400500D01*
X171609981Y-76362298D01*
X171829503Y-76286936D01*
X172033626Y-76176470D01*
X172059667Y-76156202D01*
X172175164Y-76066307D01*
X172216784Y-76033913D01*
X172373979Y-75863153D01*
X172500924Y-75668849D01*
X172594157Y-75456300D01*
X172651134Y-75231305D01*
X172655678Y-75176468D01*
X172670300Y-75000006D01*
X172670300Y-74999992D01*
X172651135Y-74768702D01*
X172651133Y-74768691D01*
X172594157Y-74543699D01*
X172500924Y-74331151D01*
X172373983Y-74136852D01*
X172373980Y-74136849D01*
X172373979Y-74136847D01*
X172216784Y-73966087D01*
X172216779Y-73966083D01*
X172216777Y-73966081D01*
X172033634Y-73823535D01*
X172033628Y-73823531D01*
X171829504Y-73713064D01*
X171829495Y-73713061D01*
X171609984Y-73637702D01*
X171419450Y-73605908D01*
X171381049Y-73599500D01*
X171148951Y-73599500D01*
X171110550Y-73605908D01*
X170920015Y-73637702D01*
X170700504Y-73713061D01*
X170700495Y-73713064D01*
X170496371Y-73823531D01*
X170496365Y-73823535D01*
X170313222Y-73966081D01*
X170313218Y-73966085D01*
X170304866Y-73975158D01*
X170244979Y-74011148D01*
X170175141Y-74009047D01*
X170117525Y-73969522D01*
X170097455Y-73934507D01*
X170068797Y-73857671D01*
X170068793Y-73857664D01*
X169982547Y-73742455D01*
X169982544Y-73742452D01*
X169867335Y-73656206D01*
X169867328Y-73656202D01*
X169732482Y-73605908D01*
X169732483Y-73605908D01*
X169672883Y-73599501D01*
X169672881Y-73599500D01*
X169672873Y-73599500D01*
X169672864Y-73599500D01*
X167777129Y-73599500D01*
X167777123Y-73599501D01*
X167717516Y-73605908D01*
X167582671Y-73656202D01*
X167582664Y-73656206D01*
X167467455Y-73742452D01*
X167467452Y-73742455D01*
X167381206Y-73857664D01*
X167381202Y-73857671D01*
X167330908Y-73992517D01*
X167324501Y-74052116D01*
X167324500Y-74052135D01*
X167324500Y-75947870D01*
X167324501Y-75947876D01*
X167330908Y-76007481D01*
X167330909Y-76007483D01*
X167357843Y-76079697D01*
X167362827Y-76149387D01*
X167329342Y-76210710D01*
X166300105Y-77239947D01*
X166238782Y-77273432D01*
X166189640Y-77274154D01*
X166111243Y-77259500D01*
X165888757Y-77259500D01*
X165670060Y-77300382D01*
X165538864Y-77351207D01*
X165462601Y-77380752D01*
X165462595Y-77380754D01*
X165273439Y-77497874D01*
X165273437Y-77497876D01*
X165109020Y-77647761D01*
X164974943Y-77825308D01*
X164974938Y-77825316D01*
X164875775Y-78024461D01*
X164875769Y-78024476D01*
X164814885Y-78238462D01*
X164814884Y-78238464D01*
X164794357Y-78459999D01*
X157165390Y-78459999D01*
X157037404Y-78380754D01*
X157037398Y-78380752D01*
X156829940Y-78300382D01*
X156611243Y-78259500D01*
X156388757Y-78259500D01*
X156353246Y-78266137D01*
X156310358Y-78274155D01*
X156240843Y-78267123D01*
X156199893Y-78239947D01*
X156146819Y-78186873D01*
X156113334Y-78125550D01*
X156110500Y-78099192D01*
X156110500Y-76459999D01*
X160794357Y-76459999D01*
X160794357Y-76460000D01*
X160814884Y-76681535D01*
X160814885Y-76681537D01*
X160875769Y-76895523D01*
X160875775Y-76895538D01*
X160974938Y-77094683D01*
X160974943Y-77094691D01*
X161109020Y-77272238D01*
X161273437Y-77422123D01*
X161273439Y-77422125D01*
X161462595Y-77539245D01*
X161462596Y-77539245D01*
X161462599Y-77539247D01*
X161670060Y-77619618D01*
X161888757Y-77660500D01*
X161888759Y-77660500D01*
X162111241Y-77660500D01*
X162111243Y-77660500D01*
X162329940Y-77619618D01*
X162537401Y-77539247D01*
X162726562Y-77422124D01*
X162884149Y-77278464D01*
X162890979Y-77272238D01*
X162893650Y-77268702D01*
X163025058Y-77094689D01*
X163124229Y-76895528D01*
X163185115Y-76681536D01*
X163205643Y-76460000D01*
X163186785Y-76256490D01*
X163200200Y-76187923D01*
X163222572Y-76157372D01*
X163230277Y-76149669D01*
X163301465Y-76043127D01*
X163350501Y-75924744D01*
X163351875Y-75917838D01*
X163355391Y-75900166D01*
X163375500Y-75799071D01*
X163375500Y-73024499D01*
X163395185Y-72957460D01*
X163447989Y-72911705D01*
X163499500Y-72900499D01*
X163672871Y-72900499D01*
X163672872Y-72900499D01*
X163732483Y-72894091D01*
X163867331Y-72843796D01*
X163982546Y-72757546D01*
X164068796Y-72642331D01*
X164097455Y-72565493D01*
X164139326Y-72509559D01*
X164204790Y-72485141D01*
X164273063Y-72499992D01*
X164304866Y-72524843D01*
X164312302Y-72532920D01*
X164313215Y-72533912D01*
X164313222Y-72533918D01*
X164496365Y-72676464D01*
X164496371Y-72676468D01*
X164496374Y-72676470D01*
X164700497Y-72786936D01*
X164807092Y-72823530D01*
X164920015Y-72862297D01*
X164920017Y-72862297D01*
X164920019Y-72862298D01*
X165148951Y-72900500D01*
X165148952Y-72900500D01*
X165381048Y-72900500D01*
X165381049Y-72900500D01*
X165609981Y-72862298D01*
X165829503Y-72786936D01*
X166033626Y-72676470D01*
X166059667Y-72656202D01*
X166132517Y-72599500D01*
X166216784Y-72533913D01*
X166373979Y-72363153D01*
X166500924Y-72168849D01*
X166594157Y-71956300D01*
X166651134Y-71731305D01*
X166651135Y-71731297D01*
X166670300Y-71500006D01*
X166670300Y-71499993D01*
X166651135Y-71268702D01*
X166651133Y-71268691D01*
X166594157Y-71043699D01*
X166500924Y-70831151D01*
X166373983Y-70636852D01*
X166373980Y-70636849D01*
X166373979Y-70636847D01*
X166216784Y-70466087D01*
X166216779Y-70466083D01*
X166216777Y-70466081D01*
X166033634Y-70323535D01*
X166033628Y-70323531D01*
X165829504Y-70213064D01*
X165829495Y-70213061D01*
X165609984Y-70137702D01*
X165419450Y-70105908D01*
X165381049Y-70099500D01*
X165148951Y-70099500D01*
X165110550Y-70105908D01*
X164920015Y-70137702D01*
X164700504Y-70213061D01*
X164700495Y-70213064D01*
X164496371Y-70323531D01*
X164496365Y-70323535D01*
X164313222Y-70466081D01*
X164313218Y-70466085D01*
X164304866Y-70475158D01*
X164244979Y-70511148D01*
X164175141Y-70509047D01*
X164117525Y-70469522D01*
X164097455Y-70434507D01*
X164068797Y-70357671D01*
X164068793Y-70357664D01*
X163982547Y-70242455D01*
X163982544Y-70242452D01*
X163867335Y-70156206D01*
X163867328Y-70156202D01*
X163732482Y-70105908D01*
X163732483Y-70105908D01*
X163672883Y-70099501D01*
X163672881Y-70099500D01*
X163672873Y-70099500D01*
X163672864Y-70099500D01*
X161777129Y-70099500D01*
X161777123Y-70099501D01*
X161717516Y-70105908D01*
X161582671Y-70156202D01*
X161582664Y-70156206D01*
X161467455Y-70242452D01*
X161467452Y-70242455D01*
X161381206Y-70357664D01*
X161381202Y-70357671D01*
X161330908Y-70492517D01*
X161324501Y-70552116D01*
X161324500Y-70552135D01*
X161324500Y-72447870D01*
X161324501Y-72447876D01*
X161330908Y-72507483D01*
X161381202Y-72642328D01*
X161381206Y-72642335D01*
X161467452Y-72757544D01*
X161467455Y-72757547D01*
X161582664Y-72843793D01*
X161582671Y-72843797D01*
X161619851Y-72857664D01*
X161717517Y-72894091D01*
X161777127Y-72900500D01*
X161950500Y-72900499D01*
X162017539Y-72920183D01*
X162063294Y-72972987D01*
X162074500Y-73024499D01*
X162074500Y-75135500D01*
X162054815Y-75202539D01*
X162002011Y-75248294D01*
X161950500Y-75259500D01*
X161888757Y-75259500D01*
X161670060Y-75300382D01*
X161558004Y-75343793D01*
X161462601Y-75380752D01*
X161462595Y-75380754D01*
X161273439Y-75497874D01*
X161273437Y-75497876D01*
X161109020Y-75647761D01*
X160974943Y-75825308D01*
X160974938Y-75825316D01*
X160875775Y-76024461D01*
X160875769Y-76024476D01*
X160814885Y-76238462D01*
X160814884Y-76238464D01*
X160794357Y-76459999D01*
X156110500Y-76459999D01*
X156110500Y-75524499D01*
X156130185Y-75457460D01*
X156182989Y-75411705D01*
X156234500Y-75400499D01*
X156407871Y-75400499D01*
X156407872Y-75400499D01*
X156467483Y-75394091D01*
X156602331Y-75343796D01*
X156717546Y-75257546D01*
X156803796Y-75142331D01*
X156832455Y-75065493D01*
X156874326Y-75009559D01*
X156939790Y-74985141D01*
X157008063Y-74999992D01*
X157039866Y-75024843D01*
X157047302Y-75032920D01*
X157048215Y-75033912D01*
X157048222Y-75033918D01*
X157231365Y-75176464D01*
X157231371Y-75176468D01*
X157231374Y-75176470D01*
X157435497Y-75286936D01*
X157549487Y-75326068D01*
X157655015Y-75362297D01*
X157655017Y-75362297D01*
X157655019Y-75362298D01*
X157883951Y-75400500D01*
X157883952Y-75400500D01*
X158116048Y-75400500D01*
X158116049Y-75400500D01*
X158344981Y-75362298D01*
X158564503Y-75286936D01*
X158768626Y-75176470D01*
X158821265Y-75135500D01*
X158830129Y-75128600D01*
X158951784Y-75033913D01*
X159108979Y-74863153D01*
X159235924Y-74668849D01*
X159329157Y-74456300D01*
X159386134Y-74231305D01*
X159390678Y-74176468D01*
X159405300Y-74000006D01*
X159405300Y-73999993D01*
X159386135Y-73768702D01*
X159386133Y-73768691D01*
X159329157Y-73543699D01*
X159235924Y-73331151D01*
X159108983Y-73136852D01*
X159108980Y-73136849D01*
X159108979Y-73136847D01*
X158951784Y-72966087D01*
X158951779Y-72966083D01*
X158951777Y-72966081D01*
X158768634Y-72823535D01*
X158768628Y-72823531D01*
X158564504Y-72713064D01*
X158564495Y-72713061D01*
X158344984Y-72637702D01*
X158154450Y-72605908D01*
X158116049Y-72599500D01*
X157883951Y-72599500D01*
X157845550Y-72605908D01*
X157655015Y-72637702D01*
X157435504Y-72713061D01*
X157435495Y-72713064D01*
X157231371Y-72823531D01*
X157231365Y-72823535D01*
X157048222Y-72966081D01*
X157048218Y-72966085D01*
X157039866Y-72975158D01*
X156979979Y-73011148D01*
X156910141Y-73009047D01*
X156852525Y-72969522D01*
X156832455Y-72934507D01*
X156803797Y-72857671D01*
X156803793Y-72857664D01*
X156717547Y-72742455D01*
X156717544Y-72742452D01*
X156602335Y-72656206D01*
X156602328Y-72656202D01*
X156467482Y-72605908D01*
X156467483Y-72605908D01*
X156407883Y-72599501D01*
X156407881Y-72599500D01*
X156407873Y-72599500D01*
X156407864Y-72599500D01*
X154512129Y-72599500D01*
X154512123Y-72599501D01*
X154452516Y-72605908D01*
X154317671Y-72656202D01*
X154317664Y-72656206D01*
X154202455Y-72742452D01*
X154202452Y-72742455D01*
X154116206Y-72857664D01*
X154116202Y-72857671D01*
X154065908Y-72992517D01*
X154059501Y-73052116D01*
X154059500Y-73052135D01*
X152307256Y-73052135D01*
X153283775Y-72264689D01*
X153295118Y-72256553D01*
X155031139Y-71154039D01*
X155043876Y-71146966D01*
X156873205Y-70267872D01*
X156887707Y-70261999D01*
X156938543Y-70245057D01*
X158776407Y-69632555D01*
X158794078Y-69628079D01*
X161355841Y-69176548D01*
X161375185Y-69174686D01*
X163954407Y-69129551D01*
X163973106Y-69130639D01*
G37*
%TD.AperFunction*%
%TD*%
M02*
