%TF.GenerationSoftware,KiCad,Pcbnew,8.0.5*%
%TF.CreationDate,2025-01-04T18:37:31+03:00*%
%TF.ProjectId,Love_LEDs,4c6f7665-5f4c-4454-9473-2e6b69636164,rev?*%
%TF.SameCoordinates,Original*%
%TF.FileFunction,Profile,NP*%
%FSLAX46Y46*%
G04 Gerber Fmt 4.6, Leading zero omitted, Abs format (unit mm)*
G04 Created by KiCad (PCBNEW 8.0.5) date 2025-01-04 18:37:31*
%MOMM*%
%LPD*%
G01*
G04 APERTURE LIST*
%TA.AperFunction,Profile*%
%ADD10C,0.200000*%
%TD*%
G04 APERTURE END LIST*
D10*
X125499847Y-68831041D02*
X123940387Y-69160103D01*
X127130311Y-68655917D02*
X125499847Y-68831041D01*
X130484110Y-68753526D02*
X127130311Y-68655917D01*
X133761512Y-69425017D02*
X130484110Y-68753526D01*
X135296477Y-69967245D02*
X133761512Y-69425017D01*
X136722240Y-70642476D02*
X135296477Y-69967245D01*
X138039403Y-71450829D02*
X136722240Y-70642476D01*
X139317677Y-72413008D02*
X138039403Y-71450829D01*
X141672641Y-74702025D02*
X139317677Y-72413008D01*
X143617302Y-77315884D02*
X141672641Y-74702025D01*
X144382697Y-78684116D02*
X143617302Y-77315884D01*
X144981831Y-80060943D02*
X144382697Y-78684116D01*
X145773112Y-81655147D02*
X144981831Y-80060943D01*
X146564393Y-80060943D02*
X145773112Y-81655147D01*
X147412343Y-78174556D02*
X146564393Y-80060943D01*
X148509093Y-76383911D02*
X147412343Y-78174556D01*
X149825133Y-74715660D02*
X148509093Y-76383911D01*
X151330953Y-73196457D02*
X149825133Y-74715660D01*
X152997045Y-71852953D02*
X151330953Y-73196457D01*
X154793899Y-70711803D02*
X152997045Y-71852953D01*
X156692006Y-69799657D02*
X154793899Y-70711803D01*
X158661856Y-69143170D02*
X156692006Y-69799657D01*
X163992966Y-68628301D02*
X161317326Y-68675123D01*
X166639328Y-68984457D02*
X163992966Y-68628301D01*
X171646426Y-70832708D02*
X169206964Y-69725342D01*
X173908265Y-72288307D02*
X171646426Y-70832708D01*
X175943035Y-74073891D02*
X173908265Y-72288307D01*
X177701285Y-76171213D02*
X175943035Y-74073891D01*
X179257261Y-78743766D02*
X177701285Y-76171213D01*
X180327623Y-81409101D02*
X179257261Y-78743766D01*
X180913128Y-84151984D02*
X180327623Y-81409101D01*
X181014532Y-86957180D02*
X180913128Y-84151984D01*
X180632591Y-89809455D02*
X181014532Y-86957180D01*
X179768062Y-92693576D02*
X180632591Y-89809455D01*
X178421702Y-95594308D02*
X179768062Y-92693576D01*
X176594268Y-98496416D02*
X178421702Y-95594308D01*
X174523907Y-101142560D02*
X176594268Y-98496416D01*
X171917798Y-103953274D02*
X174523907Y-101142560D01*
X168486652Y-107219734D02*
X171917798Y-103953274D01*
X163941179Y-111233113D02*
X168486652Y-107219734D01*
X156688681Y-117730104D02*
X163941179Y-111233113D01*
X151488821Y-122975417D02*
X156688681Y-117730104D01*
X149593395Y-125200896D02*
X151488821Y-122975417D01*
X148132844Y-127200099D02*
X149593395Y-125200896D01*
X147081075Y-129001905D02*
X148132844Y-127200099D01*
X146411993Y-130635197D02*
X147081075Y-129001905D01*
X146062974Y-131546169D02*
X146411993Y-130635197D01*
X145743655Y-132034403D02*
X146062974Y-131546169D01*
X145510590Y-132048371D02*
X145743655Y-132034403D01*
X145420334Y-131536545D02*
X145510590Y-132048371D01*
X144982625Y-130176150D02*
X145420334Y-131536545D01*
X143857792Y-128075484D02*
X144982625Y-130176150D01*
X142328279Y-125709771D02*
X143857792Y-128075484D01*
X140676528Y-123554237D02*
X142328279Y-125709771D01*
X138687582Y-121345114D02*
X140676528Y-123554237D01*
X127595167Y-111256396D02*
X136261644Y-118951410D01*
X122433716Y-106645014D02*
X127595167Y-111256396D01*
X118927765Y-103281144D02*
X122433716Y-106645014D01*
X116069590Y-99964479D02*
X118927765Y-103281144D01*
X113803482Y-96718718D02*
X116069590Y-99964479D01*
X112126991Y-93534266D02*
X113803482Y-96718718D01*
X111037664Y-90401528D02*
X112126991Y-93534266D01*
X110533050Y-87310908D02*
X111037664Y-90401528D01*
X110610698Y-84252811D02*
X110533050Y-87310908D01*
X111268156Y-81217642D02*
X110610698Y-84252811D01*
X113378600Y-76726254D02*
X112502972Y-78195806D01*
X114489051Y-75293413D02*
X113378600Y-76726254D01*
X115796063Y-73927512D02*
X114489051Y-75293413D01*
X117261374Y-72658779D02*
X115796063Y-73927512D01*
X118846723Y-71517443D02*
X117261374Y-72658779D01*
X120513849Y-70533732D02*
X118846723Y-71517443D01*
X122224491Y-69737876D02*
X120513849Y-70533732D01*
X123940387Y-69160103D02*
X122224491Y-69737876D01*
X136261644Y-118951410D02*
X138687582Y-121345114D01*
X169206964Y-69725342D02*
X166639328Y-68984457D01*
X112502972Y-78195806D02*
X111268156Y-81217642D01*
X161317326Y-68675123D02*
X158661856Y-69143170D01*
M02*
