M48
; DRILL file {KiCad 8.0.5} date 2025-01-04T18:37:34+0300
; FORMAT={-:-/ absolute / metric / decimal}
; #@! TF.CreationDate,2025-01-04T18:37:34+03:00
; #@! TF.GenerationSoftware,Kicad,Pcbnew,8.0.5
; #@! TF.FileFunction,Plated,1,2,PTH
FMAT,2
METRIC
; #@! TA.AperFunction,Plated,PTH,ComponentDrill
T1C0.700
; #@! TA.AperFunction,Plated,PTH,ComponentDrill
T2C0.900
; #@! TA.AperFunction,Plated,PTH,ComponentDrill
T3C1.400
%
G90
G05
T1
X118.92Y-87.0
X120.46Y-93.0
X123.0Y-78.46
X123.0Y-83.54
X123.46Y-99.0
X124.0Y-87.0
X125.54Y-93.0
X128.0Y-77.5
X128.0Y-82.58
X128.54Y-99.0
X129.46Y-105.5
X133.0Y-78.96
X133.0Y-84.04
X134.54Y-105.5
X135.46Y-111.0
X138.0Y-82.46
X138.0Y-87.54
X140.54Y-111.0
X142.92Y-93.5
X142.96Y-91.0
X142.96Y-102.5
X142.96Y-105.0
X145.0Y-113.46
X145.0Y-118.54
X148.0Y-93.5
X148.04Y-91.0
X148.04Y-102.5
X148.04Y-105.0
X148.46Y-111.5
X151.0Y-84.96
X151.0Y-90.04
X153.54Y-111.5
X154.46Y-106.5
X156.5Y-79.46
X156.5Y-84.54
X159.54Y-106.5
X160.46Y-101.0
X162.0Y-76.46
X162.0Y-81.54
X163.96Y-95.0
X165.54Y-101.0
X166.0Y-78.46
X166.0Y-83.54
X166.46Y-90.0
X169.04Y-95.0
X171.0Y-81.46
X171.0Y-86.54
X171.54Y-90.0
T2
X112.735Y-86.0
X114.735Y-92.5
X115.275Y-86.0
X115.735Y-79.0
X117.275Y-92.5
X118.235Y-98.5
X118.275Y-79.0
X120.775Y-98.5
X122.735Y-73.0
X123.735Y-103.5
X125.275Y-73.0
X126.275Y-103.5
X129.735Y-109.5
X130.725Y-72.5
X132.275Y-109.5
X133.265Y-72.5
X137.235Y-117.0
X137.46Y-77.5
X139.775Y-117.0
X140.0Y-77.5
X143.96Y-86.0
X144.225Y-98.0
X144.225Y-123.5
X146.5Y-86.0
X146.765Y-98.0
X146.765Y-123.5
X149.725Y-80.0
X151.225Y-117.5
X152.265Y-80.0
X153.765Y-117.5
X155.46Y-74.0
X156.725Y-111.5
X158.0Y-74.0
X159.265Y-111.5
X162.725Y-71.5
X162.725Y-106.0
X165.265Y-71.5
X165.265Y-106.0
X168.725Y-75.0
X169.225Y-100.0
X171.265Y-75.0
X171.765Y-100.0
X173.725Y-93.5
X174.225Y-80.0
X176.225Y-86.5
X176.265Y-93.5
X176.765Y-80.0
X178.765Y-86.5
T3
X155.222Y-92.69
X155.222Y-100.31
M30
