%TF.GenerationSoftware,KiCad,Pcbnew,8.0.5*%
%TF.CreationDate,2025-01-04T18:37:31+03:00*%
%TF.ProjectId,Love_LEDs,4c6f7665-5f4c-4454-9473-2e6b69636164,rev?*%
%TF.SameCoordinates,Original*%
%TF.FileFunction,Copper,L1,Top*%
%TF.FilePolarity,Positive*%
%FSLAX46Y46*%
G04 Gerber Fmt 4.6, Leading zero omitted, Abs format (unit mm)*
G04 Created by KiCad (PCBNEW 8.0.5) date 2025-01-04 18:37:31*
%MOMM*%
%LPD*%
G01*
G04 APERTURE LIST*
G04 Aperture macros list*
%AMRoundRect*
0 Rectangle with rounded corners*
0 $1 Rounding radius*
0 $2 $3 $4 $5 $6 $7 $8 $9 X,Y pos of 4 corners*
0 Add a 4 corners polygon primitive as box body*
4,1,4,$2,$3,$4,$5,$6,$7,$8,$9,$2,$3,0*
0 Add four circle primitives for the rounded corners*
1,1,$1+$1,$2,$3*
1,1,$1+$1,$4,$5*
1,1,$1+$1,$6,$7*
1,1,$1+$1,$8,$9*
0 Add four rect primitives between the rounded corners*
20,1,$1+$1,$2,$3,$4,$5,0*
20,1,$1+$1,$4,$5,$6,$7,0*
20,1,$1+$1,$6,$7,$8,$9,0*
20,1,$1+$1,$8,$9,$2,$3,0*%
G04 Aperture macros list end*
%TA.AperFunction,ComponentPad*%
%ADD10C,1.400000*%
%TD*%
%TA.AperFunction,ComponentPad*%
%ADD11O,1.400000X1.400000*%
%TD*%
%TA.AperFunction,ComponentPad*%
%ADD12R,1.800000X1.800000*%
%TD*%
%TA.AperFunction,ComponentPad*%
%ADD13C,1.800000*%
%TD*%
%TA.AperFunction,ComponentPad*%
%ADD14RoundRect,0.250001X-1.549999X0.799999X-1.549999X-0.799999X1.549999X-0.799999X1.549999X0.799999X0*%
%TD*%
%TA.AperFunction,ComponentPad*%
%ADD15O,3.600000X2.100000*%
%TD*%
G04 APERTURE END LIST*
D10*
%TO.P,R24,1*%
%TO.N,Net-(D24-K)*%
X151000000Y-84960000D03*
D11*
%TO.P,R24,2*%
%TO.N,GND*%
X151000000Y-90040000D03*
%TD*%
D10*
%TO.P,R23,1*%
%TO.N,Net-(D23-K)*%
X142960000Y-91000000D03*
D11*
%TO.P,R23,2*%
%TO.N,GND*%
X148040000Y-91000000D03*
%TD*%
D10*
%TO.P,R22,1*%
%TO.N,Net-(D22-K)*%
X156500000Y-79460000D03*
D11*
%TO.P,R22,2*%
%TO.N,GND*%
X156500000Y-84540000D03*
%TD*%
D10*
%TO.P,R21,1*%
%TO.N,Net-(D21-K)*%
X162000000Y-76460000D03*
D11*
%TO.P,R21,2*%
%TO.N,GND*%
X162000000Y-81540000D03*
%TD*%
D10*
%TO.P,R20,1*%
%TO.N,Net-(D20-K)*%
X166000000Y-78460000D03*
D11*
%TO.P,R20,2*%
%TO.N,GND*%
X166000000Y-83540000D03*
%TD*%
D10*
%TO.P,R19,1*%
%TO.N,Net-(D19-K)*%
X171000000Y-86540000D03*
D11*
%TO.P,R19,2*%
%TO.N,GND*%
X171000000Y-81460000D03*
%TD*%
D10*
%TO.P,R18,1*%
%TO.N,Net-(D18-K)*%
X148000000Y-93500000D03*
D11*
%TO.P,R18,2*%
%TO.N,GND*%
X142920000Y-93500000D03*
%TD*%
D10*
%TO.P,R17,1*%
%TO.N,Net-(D17-K)*%
X166460000Y-90000000D03*
D11*
%TO.P,R17,2*%
%TO.N,GND*%
X171540000Y-90000000D03*
%TD*%
D10*
%TO.P,R16,1*%
%TO.N,Net-(D16-K)*%
X163960000Y-95000000D03*
D11*
%TO.P,R16,2*%
%TO.N,GND*%
X169040000Y-95000000D03*
%TD*%
D10*
%TO.P,R15,1*%
%TO.N,Net-(D15-K)*%
X160460000Y-101000000D03*
D11*
%TO.P,R15,2*%
%TO.N,GND*%
X165540000Y-101000000D03*
%TD*%
D10*
%TO.P,R14,1*%
%TO.N,Net-(D14-K)*%
X154460000Y-106500000D03*
D11*
%TO.P,R14,2*%
%TO.N,GND*%
X159540000Y-106500000D03*
%TD*%
D10*
%TO.P,R13,1*%
%TO.N,Net-(D13-K)*%
X148460000Y-111500000D03*
D11*
%TO.P,R13,2*%
%TO.N,GND*%
X153540000Y-111500000D03*
%TD*%
D10*
%TO.P,R12,1*%
%TO.N,Net-(D12-K)*%
X142960000Y-102500000D03*
D11*
%TO.P,R12,2*%
%TO.N,GND*%
X148040000Y-102500000D03*
%TD*%
D10*
%TO.P,R11,1*%
%TO.N,Net-(D11-K)*%
X145000000Y-118540000D03*
D11*
%TO.P,R11,2*%
%TO.N,GND*%
X145000000Y-113460000D03*
%TD*%
D10*
%TO.P,R10,1*%
%TO.N,Net-(D10-K)*%
X142960000Y-105000000D03*
D11*
%TO.P,R10,2*%
%TO.N,GND*%
X148040000Y-105000000D03*
%TD*%
D10*
%TO.P,R9,1*%
%TO.N,Net-(D9-K)*%
X135460000Y-111000000D03*
D11*
%TO.P,R9,2*%
%TO.N,GND*%
X140540000Y-111000000D03*
%TD*%
D10*
%TO.P,R8,1*%
%TO.N,Net-(D8-K)*%
X129460000Y-105500000D03*
D11*
%TO.P,R8,2*%
%TO.N,GND*%
X134540000Y-105500000D03*
%TD*%
D10*
%TO.P,R7,1*%
%TO.N,Net-(D7-K)*%
X123460000Y-99000000D03*
D11*
%TO.P,R7,2*%
%TO.N,GND*%
X128540000Y-99000000D03*
%TD*%
D10*
%TO.P,R6,1*%
%TO.N,Net-(D6-K)*%
X120460000Y-93000000D03*
D11*
%TO.P,R6,2*%
%TO.N,GND*%
X125540000Y-93000000D03*
%TD*%
D10*
%TO.P,R5,1*%
%TO.N,Net-(D5-K)*%
X118920000Y-87000000D03*
D11*
%TO.P,R5,2*%
%TO.N,GND*%
X124000000Y-87000000D03*
%TD*%
D10*
%TO.P,R4,1*%
%TO.N,Net-(D4-K)*%
X123000000Y-78460000D03*
D11*
%TO.P,R4,2*%
%TO.N,GND*%
X123000000Y-83540000D03*
%TD*%
D10*
%TO.P,R3,1*%
%TO.N,Net-(D3-K)*%
X128000000Y-77500000D03*
D11*
%TO.P,R3,2*%
%TO.N,GND*%
X128000000Y-82580000D03*
%TD*%
D10*
%TO.P,R2,1*%
%TO.N,Net-(D2-K)*%
X133000000Y-78960000D03*
D11*
%TO.P,R2,2*%
%TO.N,GND*%
X133000000Y-84040000D03*
%TD*%
%TO.P,R1,2*%
%TO.N,GND*%
X138000000Y-87540000D03*
D10*
%TO.P,R1,1*%
%TO.N,Net-(D1-K)*%
X138000000Y-82460000D03*
%TD*%
D12*
%TO.P,D24,1,K*%
%TO.N,Net-(D24-K)*%
X149725000Y-80000000D03*
D13*
%TO.P,D24,2,A*%
%TO.N,VCC*%
X152265000Y-80000000D03*
%TD*%
D12*
%TO.P,D23,1,K*%
%TO.N,Net-(D23-K)*%
X143960000Y-86000000D03*
D13*
%TO.P,D23,2,A*%
%TO.N,VCC*%
X146500000Y-86000000D03*
%TD*%
D12*
%TO.P,D22,1,K*%
%TO.N,Net-(D22-K)*%
X155460000Y-74000000D03*
D13*
%TO.P,D22,2,A*%
%TO.N,VCC*%
X158000000Y-74000000D03*
%TD*%
D12*
%TO.P,D21,1,K*%
%TO.N,Net-(D21-K)*%
X162725000Y-71500000D03*
D13*
%TO.P,D21,2,A*%
%TO.N,VCC*%
X165265000Y-71500000D03*
%TD*%
D12*
%TO.P,D20,1,K*%
%TO.N,Net-(D20-K)*%
X168725000Y-75000000D03*
D13*
%TO.P,D20,2,A*%
%TO.N,VCC*%
X171265000Y-75000000D03*
%TD*%
D12*
%TO.P,D19,1,K*%
%TO.N,Net-(D19-K)*%
X174225000Y-80000000D03*
D13*
%TO.P,D19,2,A*%
%TO.N,VCC*%
X176765000Y-80000000D03*
%TD*%
D12*
%TO.P,D18,1,K*%
%TO.N,Net-(D18-K)*%
X176225000Y-86500000D03*
D13*
%TO.P,D18,2,A*%
%TO.N,VCC*%
X178765000Y-86500000D03*
%TD*%
D12*
%TO.P,D17,1,K*%
%TO.N,Net-(D17-K)*%
X173725000Y-93500000D03*
D13*
%TO.P,D17,2,A*%
%TO.N,VCC*%
X176265000Y-93500000D03*
%TD*%
D12*
%TO.P,D16,1,K*%
%TO.N,Net-(D16-K)*%
X169225000Y-100000000D03*
D13*
%TO.P,D16,2,A*%
%TO.N,VCC*%
X171765000Y-100000000D03*
%TD*%
D12*
%TO.P,D15,1,K*%
%TO.N,Net-(D15-K)*%
X162725000Y-106000000D03*
D13*
%TO.P,D15,2,A*%
%TO.N,VCC*%
X165265000Y-106000000D03*
%TD*%
D12*
%TO.P,D14,1,K*%
%TO.N,Net-(D14-K)*%
X156725000Y-111500000D03*
D13*
%TO.P,D14,2,A*%
%TO.N,VCC*%
X159265000Y-111500000D03*
%TD*%
D12*
%TO.P,D13,1,K*%
%TO.N,Net-(D13-K)*%
X151225000Y-117500000D03*
D13*
%TO.P,D13,2,A*%
%TO.N,VCC*%
X153765000Y-117500000D03*
%TD*%
D12*
%TO.P,D12,1,K*%
%TO.N,Net-(D12-K)*%
X144225000Y-98000000D03*
D13*
%TO.P,D12,2,A*%
%TO.N,VCC*%
X146765000Y-98000000D03*
%TD*%
D12*
%TO.P,D11,1,K*%
%TO.N,Net-(D11-K)*%
X144225000Y-123500000D03*
D13*
%TO.P,D11,2,A*%
%TO.N,VCC*%
X146765000Y-123500000D03*
%TD*%
D12*
%TO.P,D10,1,K*%
%TO.N,Net-(D10-K)*%
X139775000Y-117000000D03*
D13*
%TO.P,D10,2,A*%
%TO.N,VCC*%
X137235000Y-117000000D03*
%TD*%
D12*
%TO.P,D9,1,K*%
%TO.N,Net-(D9-K)*%
X132275000Y-109500000D03*
D13*
%TO.P,D9,2,A*%
%TO.N,VCC*%
X129735000Y-109500000D03*
%TD*%
D12*
%TO.P,D8,1,K*%
%TO.N,Net-(D8-K)*%
X126275000Y-103500000D03*
D13*
%TO.P,D8,2,A*%
%TO.N,VCC*%
X123735000Y-103500000D03*
%TD*%
D12*
%TO.P,D7,1,K*%
%TO.N,Net-(D7-K)*%
X120775000Y-98500000D03*
D13*
%TO.P,D7,2,A*%
%TO.N,VCC*%
X118235000Y-98500000D03*
%TD*%
D12*
%TO.P,D6,1,K*%
%TO.N,Net-(D6-K)*%
X117275000Y-92500000D03*
D13*
%TO.P,D6,2,A*%
%TO.N,VCC*%
X114735000Y-92500000D03*
%TD*%
D12*
%TO.P,D5,1,K*%
%TO.N,Net-(D5-K)*%
X115275000Y-86000000D03*
D13*
%TO.P,D5,2,A*%
%TO.N,VCC*%
X112735000Y-86000000D03*
%TD*%
D12*
%TO.P,D4,1,K*%
%TO.N,Net-(D4-K)*%
X118275000Y-79000000D03*
D13*
%TO.P,D4,2,A*%
%TO.N,VCC*%
X115735000Y-79000000D03*
%TD*%
D12*
%TO.P,D3,1,K*%
%TO.N,Net-(D3-K)*%
X125275000Y-73000000D03*
D13*
%TO.P,D3,2,A*%
%TO.N,VCC*%
X122735000Y-73000000D03*
%TD*%
D12*
%TO.P,D2,1,K*%
%TO.N,Net-(D2-K)*%
X130725000Y-72500000D03*
D13*
%TO.P,D2,2,A*%
%TO.N,VCC*%
X133265000Y-72500000D03*
%TD*%
D12*
%TO.P,D1,1,K*%
%TO.N,Net-(D1-K)*%
X137460000Y-77500000D03*
D13*
%TO.P,D1,2,A*%
%TO.N,VCC*%
X140000000Y-77500000D03*
%TD*%
D14*
%TO.P,J1,1,Pin_1*%
%TO.N,VCC*%
X155222500Y-92690000D03*
D15*
%TO.P,J1,2,Pin_2*%
%TO.N,GND*%
X155222500Y-100310000D03*
%TD*%
%TA.AperFunction,Conductor*%
%TO.N,VCC*%
G36*
X163973106Y-69130639D02*
G01*
X166526961Y-69474346D01*
X166544791Y-69478098D01*
X169024576Y-70193633D01*
X169041434Y-70199854D01*
X171398055Y-71269616D01*
X171413896Y-71278248D01*
X173582262Y-72673694D01*
X173598362Y-72684055D01*
X173613043Y-72695124D01*
X173847080Y-72900500D01*
X175576968Y-74418540D01*
X175590205Y-74432079D01*
X177286837Y-76455899D01*
X177297914Y-76471388D01*
X178802750Y-78959389D01*
X178811716Y-78977353D01*
X179407429Y-80460752D01*
X179825078Y-81500753D01*
X179843162Y-81545783D01*
X179849362Y-81566107D01*
X180412272Y-84203146D01*
X180414923Y-84224553D01*
X180512443Y-86922319D01*
X180511427Y-86943256D01*
X180143084Y-89693993D01*
X180138959Y-89713139D01*
X179301510Y-92506916D01*
X179295207Y-92523517D01*
X177984492Y-95347455D01*
X177976947Y-95361324D01*
X176187715Y-98202764D01*
X176180445Y-98213100D01*
X174145838Y-100813547D01*
X174139106Y-100821446D01*
X171564029Y-103598692D01*
X171558600Y-103604193D01*
X168150054Y-106849138D01*
X168146627Y-106852281D01*
X163665128Y-110809175D01*
X163658917Y-110814012D01*
X163608867Y-110858846D01*
X163608205Y-110859435D01*
X163557882Y-110903868D01*
X163552352Y-110909474D01*
X156401990Y-117314968D01*
X156381730Y-117329717D01*
X156379633Y-117330940D01*
X156379626Y-117330945D01*
X156346267Y-117364595D01*
X156340948Y-117369652D01*
X156305643Y-117401280D01*
X156304314Y-117403316D01*
X156288556Y-117422811D01*
X151174430Y-122581639D01*
X151156756Y-122596426D01*
X151150512Y-122600730D01*
X151123103Y-122632913D01*
X151116767Y-122639807D01*
X151086986Y-122669850D01*
X151086985Y-122669851D01*
X151083228Y-122676425D01*
X151069976Y-122695291D01*
X149250387Y-124831726D01*
X149233779Y-124847886D01*
X149228130Y-124852436D01*
X149228125Y-124852442D01*
X149202979Y-124886860D01*
X149197258Y-124894108D01*
X149169636Y-124926540D01*
X149166525Y-124933086D01*
X149154661Y-124952998D01*
X147758096Y-126864617D01*
X147745238Y-126879561D01*
X147733816Y-126890875D01*
X147733812Y-126890880D01*
X147716751Y-126920106D01*
X147709793Y-126930733D01*
X147689837Y-126958051D01*
X147684037Y-126973041D01*
X147675482Y-126990806D01*
X146668090Y-128716589D01*
X146659671Y-128729177D01*
X146642909Y-128751200D01*
X146642906Y-128751204D01*
X146634472Y-128771790D01*
X146626824Y-128787282D01*
X146615610Y-128806494D01*
X146608315Y-128833206D01*
X146603441Y-128847541D01*
X145976834Y-130377149D01*
X145971108Y-130389227D01*
X145968193Y-130394604D01*
X145947170Y-130449474D01*
X145946126Y-130452110D01*
X145923868Y-130506446D01*
X145922314Y-130512339D01*
X145918210Y-130525067D01*
X145882459Y-130618379D01*
X145840095Y-130673937D01*
X145774416Y-130697773D01*
X145706278Y-130682316D01*
X145657313Y-130632474D01*
X145648628Y-130611995D01*
X145466867Y-130047084D01*
X145464167Y-130037351D01*
X145454956Y-129997977D01*
X145450503Y-129989663D01*
X145441777Y-129969105D01*
X145438890Y-129960132D01*
X145438889Y-129960128D01*
X145416956Y-129926141D01*
X145411835Y-129917447D01*
X144838937Y-128847541D01*
X144325543Y-127888759D01*
X144316852Y-127868309D01*
X144313873Y-127859076D01*
X144311698Y-127855712D01*
X144292055Y-127825329D01*
X144286879Y-127816552D01*
X144267914Y-127781134D01*
X144261279Y-127774060D01*
X144247589Y-127756555D01*
X144065298Y-127474603D01*
X142779503Y-125485853D01*
X142769043Y-125465903D01*
X142765631Y-125457649D01*
X142740733Y-125425157D01*
X142735028Y-125417061D01*
X142712809Y-125382695D01*
X142712808Y-125382694D01*
X142706175Y-125376697D01*
X142690911Y-125360139D01*
X142298379Y-124847886D01*
X141108587Y-123295209D01*
X141096526Y-123276078D01*
X141092575Y-123268322D01*
X141092572Y-123268319D01*
X141065026Y-123237723D01*
X141058755Y-123230177D01*
X141033723Y-123197511D01*
X141026820Y-123192206D01*
X141010223Y-123176853D01*
X140447769Y-122552135D01*
X142824500Y-122552135D01*
X142824500Y-124447870D01*
X142824501Y-124447876D01*
X142830908Y-124507483D01*
X142881202Y-124642328D01*
X142881206Y-124642335D01*
X142967452Y-124757544D01*
X142967455Y-124757547D01*
X143082664Y-124843793D01*
X143082671Y-124843797D01*
X143217517Y-124894091D01*
X143217516Y-124894091D01*
X143224444Y-124894835D01*
X143277127Y-124900500D01*
X145172872Y-124900499D01*
X145232483Y-124894091D01*
X145367331Y-124843796D01*
X145482546Y-124757546D01*
X145568796Y-124642331D01*
X145619091Y-124507483D01*
X145625500Y-124447873D01*
X145625499Y-124337304D01*
X145645183Y-124270268D01*
X145661818Y-124249626D01*
X146322861Y-123588584D01*
X146345667Y-123673694D01*
X146404910Y-123776306D01*
X146488694Y-123860090D01*
X146591306Y-123919333D01*
X146676414Y-123942138D01*
X145966201Y-124652351D01*
X145996649Y-124676050D01*
X146200697Y-124786476D01*
X146200706Y-124786479D01*
X146420139Y-124861811D01*
X146648993Y-124900000D01*
X146881007Y-124900000D01*
X147109860Y-124861811D01*
X147329293Y-124786479D01*
X147329301Y-124786476D01*
X147533355Y-124676047D01*
X147563797Y-124652351D01*
X147563798Y-124652350D01*
X146853585Y-123942137D01*
X146938694Y-123919333D01*
X147041306Y-123860090D01*
X147125090Y-123776306D01*
X147184333Y-123673694D01*
X147207138Y-123588585D01*
X147916186Y-124297633D01*
X148000482Y-124168611D01*
X148093682Y-123956135D01*
X148150638Y-123731218D01*
X148169798Y-123500005D01*
X148169798Y-123499994D01*
X148150638Y-123268781D01*
X148093682Y-123043864D01*
X148000484Y-122831393D01*
X147916186Y-122702365D01*
X147207137Y-123411414D01*
X147184333Y-123326306D01*
X147125090Y-123223694D01*
X147041306Y-123139910D01*
X146938694Y-123080667D01*
X146853584Y-123057861D01*
X147563797Y-122347647D01*
X147563797Y-122347645D01*
X147533360Y-122323955D01*
X147533354Y-122323951D01*
X147329302Y-122213523D01*
X147329293Y-122213520D01*
X147109860Y-122138188D01*
X146881007Y-122100000D01*
X146648993Y-122100000D01*
X146420139Y-122138188D01*
X146200706Y-122213520D01*
X146200697Y-122213523D01*
X145996650Y-122323949D01*
X145966200Y-122347647D01*
X146676415Y-123057861D01*
X146591306Y-123080667D01*
X146488694Y-123139910D01*
X146404910Y-123223694D01*
X146345667Y-123326306D01*
X146322861Y-123411415D01*
X145661818Y-122750372D01*
X145628333Y-122689049D01*
X145625499Y-122662691D01*
X145625499Y-122552129D01*
X145625498Y-122552123D01*
X145625497Y-122552116D01*
X145619091Y-122492517D01*
X145568796Y-122357669D01*
X145568795Y-122357668D01*
X145568793Y-122357664D01*
X145482547Y-122242455D01*
X145482544Y-122242452D01*
X145367335Y-122156206D01*
X145367328Y-122156202D01*
X145232482Y-122105908D01*
X145232483Y-122105908D01*
X145172883Y-122099501D01*
X145172881Y-122099500D01*
X145172873Y-122099500D01*
X145172864Y-122099500D01*
X143277129Y-122099500D01*
X143277123Y-122099501D01*
X143217516Y-122105908D01*
X143082671Y-122156202D01*
X143082664Y-122156206D01*
X142967455Y-122242452D01*
X142967452Y-122242455D01*
X142881206Y-122357664D01*
X142881202Y-122357671D01*
X142830908Y-122492517D01*
X142824501Y-122552116D01*
X142824501Y-122552123D01*
X142824500Y-122552135D01*
X140447769Y-122552135D01*
X139102038Y-121057432D01*
X139087218Y-121037174D01*
X139086017Y-121035126D01*
X139052251Y-121001809D01*
X139047190Y-120996512D01*
X139015451Y-120961260D01*
X139013454Y-120959963D01*
X138993905Y-120944239D01*
X136883434Y-118861811D01*
X136659836Y-118641184D01*
X136643403Y-118621170D01*
X136643223Y-118620897D01*
X136606243Y-118588061D01*
X136601482Y-118583605D01*
X136566273Y-118548864D01*
X136566272Y-118548863D01*
X136565974Y-118548694D01*
X136553834Y-118539999D01*
X143794357Y-118539999D01*
X143794357Y-118540000D01*
X143814884Y-118761535D01*
X143814885Y-118761537D01*
X143875769Y-118975523D01*
X143875775Y-118975538D01*
X143974938Y-119174683D01*
X143974943Y-119174691D01*
X144109020Y-119352238D01*
X144273437Y-119502123D01*
X144273439Y-119502125D01*
X144462595Y-119619245D01*
X144462596Y-119619245D01*
X144462599Y-119619247D01*
X144670060Y-119699618D01*
X144888757Y-119740500D01*
X144888759Y-119740500D01*
X145111241Y-119740500D01*
X145111243Y-119740500D01*
X145329940Y-119699618D01*
X145537401Y-119619247D01*
X145726562Y-119502124D01*
X145890981Y-119352236D01*
X146025058Y-119174689D01*
X146124229Y-118975528D01*
X146185115Y-118761536D01*
X146205643Y-118540000D01*
X146185115Y-118318464D01*
X146124229Y-118104472D01*
X146124224Y-118104461D01*
X146025061Y-117905316D01*
X146025056Y-117905308D01*
X145890979Y-117727761D01*
X145726562Y-117577876D01*
X145726560Y-117577874D01*
X145537404Y-117460754D01*
X145537398Y-117460752D01*
X145329940Y-117380382D01*
X145111243Y-117339500D01*
X144888757Y-117339500D01*
X144670060Y-117380382D01*
X144538864Y-117431207D01*
X144462601Y-117460752D01*
X144462595Y-117460754D01*
X144273439Y-117577874D01*
X144273437Y-117577876D01*
X144109020Y-117727761D01*
X143974943Y-117905308D01*
X143974938Y-117905316D01*
X143875775Y-118104461D01*
X143875769Y-118104476D01*
X143814885Y-118318462D01*
X143814884Y-118318464D01*
X143794357Y-118539999D01*
X136553834Y-118539999D01*
X136544929Y-118533621D01*
X136438406Y-118439038D01*
X136401345Y-118379807D01*
X136402190Y-118309942D01*
X136440673Y-118251626D01*
X136504575Y-118223372D01*
X136573608Y-118234151D01*
X136579754Y-118237260D01*
X136670688Y-118286472D01*
X136670706Y-118286479D01*
X136890139Y-118361811D01*
X137118993Y-118400000D01*
X137351007Y-118400000D01*
X137579860Y-118361811D01*
X137799293Y-118286479D01*
X137799301Y-118286476D01*
X138003355Y-118176047D01*
X138033797Y-118152351D01*
X138033798Y-118152351D01*
X137323585Y-117442138D01*
X137408694Y-117419333D01*
X137511306Y-117360090D01*
X137595090Y-117276306D01*
X137654333Y-117173694D01*
X137677138Y-117088584D01*
X138338181Y-117749627D01*
X138371666Y-117810950D01*
X138374500Y-117837307D01*
X138374500Y-117947869D01*
X138374501Y-117947876D01*
X138380908Y-118007483D01*
X138431202Y-118142328D01*
X138431206Y-118142335D01*
X138517452Y-118257544D01*
X138517455Y-118257547D01*
X138632664Y-118343793D01*
X138632671Y-118343797D01*
X138767517Y-118394091D01*
X138767516Y-118394091D01*
X138774444Y-118394835D01*
X138827127Y-118400500D01*
X140722872Y-118400499D01*
X140782483Y-118394091D01*
X140917331Y-118343796D01*
X141032546Y-118257546D01*
X141118796Y-118142331D01*
X141169091Y-118007483D01*
X141175500Y-117947873D01*
X141175499Y-116552135D01*
X149824500Y-116552135D01*
X149824500Y-118447870D01*
X149824501Y-118447876D01*
X149830908Y-118507483D01*
X149881202Y-118642328D01*
X149881206Y-118642335D01*
X149967452Y-118757544D01*
X149967455Y-118757547D01*
X150082664Y-118843793D01*
X150082671Y-118843797D01*
X150217517Y-118894091D01*
X150217516Y-118894091D01*
X150224444Y-118894835D01*
X150277127Y-118900500D01*
X152172872Y-118900499D01*
X152232483Y-118894091D01*
X152367331Y-118843796D01*
X152482546Y-118757546D01*
X152568796Y-118642331D01*
X152619091Y-118507483D01*
X152625500Y-118447873D01*
X152625499Y-118337304D01*
X152645183Y-118270268D01*
X152661818Y-118249626D01*
X153322861Y-117588584D01*
X153345667Y-117673694D01*
X153404910Y-117776306D01*
X153488694Y-117860090D01*
X153591306Y-117919333D01*
X153676414Y-117942138D01*
X152966201Y-118652351D01*
X152996649Y-118676050D01*
X153200697Y-118786476D01*
X153200706Y-118786479D01*
X153420139Y-118861811D01*
X153648993Y-118900000D01*
X153881007Y-118900000D01*
X154109860Y-118861811D01*
X154329293Y-118786479D01*
X154329301Y-118786476D01*
X154533355Y-118676047D01*
X154563797Y-118652351D01*
X154563798Y-118652350D01*
X153853585Y-117942137D01*
X153938694Y-117919333D01*
X154041306Y-117860090D01*
X154125090Y-117776306D01*
X154184333Y-117673694D01*
X154207138Y-117588585D01*
X154916186Y-118297633D01*
X155000482Y-118168611D01*
X155093682Y-117956135D01*
X155150638Y-117731218D01*
X155169798Y-117500005D01*
X155169798Y-117499994D01*
X155150638Y-117268781D01*
X155093682Y-117043864D01*
X155000484Y-116831393D01*
X154916186Y-116702365D01*
X154207137Y-117411414D01*
X154184333Y-117326306D01*
X154125090Y-117223694D01*
X154041306Y-117139910D01*
X153938694Y-117080667D01*
X153853584Y-117057861D01*
X154563797Y-116347647D01*
X154563797Y-116347645D01*
X154533360Y-116323955D01*
X154533354Y-116323951D01*
X154329302Y-116213523D01*
X154329293Y-116213520D01*
X154109860Y-116138188D01*
X153881007Y-116100000D01*
X153648993Y-116100000D01*
X153420139Y-116138188D01*
X153200706Y-116213520D01*
X153200697Y-116213523D01*
X152996650Y-116323949D01*
X152966200Y-116347647D01*
X153676415Y-117057861D01*
X153591306Y-117080667D01*
X153488694Y-117139910D01*
X153404910Y-117223694D01*
X153345667Y-117326306D01*
X153322861Y-117411415D01*
X152661818Y-116750372D01*
X152628333Y-116689049D01*
X152625499Y-116662691D01*
X152625499Y-116552129D01*
X152625498Y-116552123D01*
X152625497Y-116552116D01*
X152619091Y-116492517D01*
X152568796Y-116357669D01*
X152568795Y-116357668D01*
X152568793Y-116357664D01*
X152482547Y-116242455D01*
X152482544Y-116242452D01*
X152367335Y-116156206D01*
X152367328Y-116156202D01*
X152232482Y-116105908D01*
X152232483Y-116105908D01*
X152172883Y-116099501D01*
X152172881Y-116099500D01*
X152172873Y-116099500D01*
X152172864Y-116099500D01*
X150277129Y-116099500D01*
X150277123Y-116099501D01*
X150217516Y-116105908D01*
X150082671Y-116156202D01*
X150082664Y-116156206D01*
X149967455Y-116242452D01*
X149967452Y-116242455D01*
X149881206Y-116357664D01*
X149881202Y-116357671D01*
X149830908Y-116492517D01*
X149824501Y-116552116D01*
X149824501Y-116552123D01*
X149824500Y-116552135D01*
X141175499Y-116552135D01*
X141175499Y-116052128D01*
X141169091Y-115992517D01*
X141118796Y-115857669D01*
X141118795Y-115857668D01*
X141118793Y-115857664D01*
X141032547Y-115742455D01*
X141032544Y-115742452D01*
X140917335Y-115656206D01*
X140917328Y-115656202D01*
X140782482Y-115605908D01*
X140782483Y-115605908D01*
X140722883Y-115599501D01*
X140722881Y-115599500D01*
X140722873Y-115599500D01*
X140722864Y-115599500D01*
X138827129Y-115599500D01*
X138827123Y-115599501D01*
X138767516Y-115605908D01*
X138632671Y-115656202D01*
X138632664Y-115656206D01*
X138517455Y-115742452D01*
X138517452Y-115742455D01*
X138431206Y-115857664D01*
X138431202Y-115857671D01*
X138380908Y-115992517D01*
X138374501Y-116052116D01*
X138374501Y-116052123D01*
X138374500Y-116052135D01*
X138374500Y-116162691D01*
X138354815Y-116229730D01*
X138338181Y-116250372D01*
X137677138Y-116911414D01*
X137654333Y-116826306D01*
X137595090Y-116723694D01*
X137511306Y-116639910D01*
X137408694Y-116580667D01*
X137323584Y-116557861D01*
X138033797Y-115847647D01*
X138033797Y-115847645D01*
X138003360Y-115823955D01*
X138003354Y-115823951D01*
X137799302Y-115713523D01*
X137799293Y-115713520D01*
X137579860Y-115638188D01*
X137351007Y-115600000D01*
X137118993Y-115600000D01*
X136890139Y-115638188D01*
X136670706Y-115713520D01*
X136670697Y-115713523D01*
X136466650Y-115823949D01*
X136436200Y-115847647D01*
X137146415Y-116557861D01*
X137061306Y-116580667D01*
X136958694Y-116639910D01*
X136874910Y-116723694D01*
X136815667Y-116826306D01*
X136792861Y-116911415D01*
X136083811Y-116202365D01*
X135999516Y-116331390D01*
X135906317Y-116543864D01*
X135849361Y-116768781D01*
X135830202Y-116999994D01*
X135830202Y-117000005D01*
X135849361Y-117231218D01*
X135906317Y-117456135D01*
X135999516Y-117668609D01*
X136084963Y-117799396D01*
X136105151Y-117866285D01*
X136085970Y-117933471D01*
X136033511Y-117979621D01*
X135964430Y-117990084D01*
X135900658Y-117961537D01*
X135898824Y-117959941D01*
X135885232Y-117947873D01*
X131914373Y-114422124D01*
X130830784Y-113459999D01*
X143794357Y-113459999D01*
X143794357Y-113460000D01*
X143814884Y-113681535D01*
X143814885Y-113681537D01*
X143875769Y-113895523D01*
X143875775Y-113895538D01*
X143974938Y-114094683D01*
X143974943Y-114094691D01*
X144109020Y-114272238D01*
X144273437Y-114422123D01*
X144273439Y-114422125D01*
X144462595Y-114539245D01*
X144462596Y-114539245D01*
X144462599Y-114539247D01*
X144670060Y-114619618D01*
X144888757Y-114660500D01*
X144888759Y-114660500D01*
X145111241Y-114660500D01*
X145111243Y-114660500D01*
X145329940Y-114619618D01*
X145537401Y-114539247D01*
X145726562Y-114422124D01*
X145890981Y-114272236D01*
X146025058Y-114094689D01*
X146124229Y-113895528D01*
X146185115Y-113681536D01*
X146205643Y-113460000D01*
X146185115Y-113238464D01*
X146124229Y-113024472D01*
X146062498Y-112900500D01*
X146025061Y-112825316D01*
X146025056Y-112825308D01*
X145890979Y-112647761D01*
X145726562Y-112497876D01*
X145726560Y-112497874D01*
X145537404Y-112380754D01*
X145537398Y-112380752D01*
X145329940Y-112300382D01*
X145111243Y-112259500D01*
X144888757Y-112259500D01*
X144670060Y-112300382D01*
X144574743Y-112337308D01*
X144462601Y-112380752D01*
X144462595Y-112380754D01*
X144273439Y-112497874D01*
X144273437Y-112497876D01*
X144109020Y-112647761D01*
X143974943Y-112825308D01*
X143974938Y-112825316D01*
X143875775Y-113024461D01*
X143875769Y-113024476D01*
X143814885Y-113238462D01*
X143814884Y-113238464D01*
X143794357Y-113459999D01*
X130830784Y-113459999D01*
X128060219Y-110999999D01*
X134254357Y-110999999D01*
X134254357Y-111000000D01*
X134274884Y-111221535D01*
X134274885Y-111221537D01*
X134335769Y-111435523D01*
X134335775Y-111435538D01*
X134434938Y-111634683D01*
X134434943Y-111634691D01*
X134569020Y-111812238D01*
X134733437Y-111962123D01*
X134733439Y-111962125D01*
X134922595Y-112079245D01*
X134922596Y-112079245D01*
X134922599Y-112079247D01*
X135130060Y-112159618D01*
X135348757Y-112200500D01*
X135348759Y-112200500D01*
X135571241Y-112200500D01*
X135571243Y-112200500D01*
X135789940Y-112159618D01*
X135997401Y-112079247D01*
X136186562Y-111962124D01*
X136350981Y-111812236D01*
X136485058Y-111634689D01*
X136584229Y-111435528D01*
X136645115Y-111221536D01*
X136665643Y-111000000D01*
X136665643Y-110999999D01*
X139334357Y-110999999D01*
X139334357Y-111000000D01*
X139354884Y-111221535D01*
X139354885Y-111221537D01*
X139415769Y-111435523D01*
X139415775Y-111435538D01*
X139514938Y-111634683D01*
X139514943Y-111634691D01*
X139649020Y-111812238D01*
X139813437Y-111962123D01*
X139813439Y-111962125D01*
X140002595Y-112079245D01*
X140002596Y-112079245D01*
X140002599Y-112079247D01*
X140210060Y-112159618D01*
X140428757Y-112200500D01*
X140428759Y-112200500D01*
X140651241Y-112200500D01*
X140651243Y-112200500D01*
X140869940Y-112159618D01*
X141077401Y-112079247D01*
X141266562Y-111962124D01*
X141430981Y-111812236D01*
X141565058Y-111634689D01*
X141632126Y-111499999D01*
X147254357Y-111499999D01*
X147254357Y-111500000D01*
X147274884Y-111721535D01*
X147274885Y-111721537D01*
X147335769Y-111935523D01*
X147335775Y-111935538D01*
X147434938Y-112134683D01*
X147434943Y-112134691D01*
X147569020Y-112312238D01*
X147733437Y-112462123D01*
X147733439Y-112462125D01*
X147922595Y-112579245D01*
X147922596Y-112579245D01*
X147922599Y-112579247D01*
X148130060Y-112659618D01*
X148348757Y-112700500D01*
X148348759Y-112700500D01*
X148571241Y-112700500D01*
X148571243Y-112700500D01*
X148789940Y-112659618D01*
X148997401Y-112579247D01*
X149186562Y-112462124D01*
X149350981Y-112312236D01*
X149485058Y-112134689D01*
X149584229Y-111935528D01*
X149645115Y-111721536D01*
X149665643Y-111500000D01*
X149665643Y-111499999D01*
X152334357Y-111499999D01*
X152334357Y-111500000D01*
X152354884Y-111721535D01*
X152354885Y-111721537D01*
X152415769Y-111935523D01*
X152415775Y-111935538D01*
X152514938Y-112134683D01*
X152514943Y-112134691D01*
X152649020Y-112312238D01*
X152813437Y-112462123D01*
X152813439Y-112462125D01*
X153002595Y-112579245D01*
X153002596Y-112579245D01*
X153002599Y-112579247D01*
X153210060Y-112659618D01*
X153428757Y-112700500D01*
X153428759Y-112700500D01*
X153651241Y-112700500D01*
X153651243Y-112700500D01*
X153869940Y-112659618D01*
X154077401Y-112579247D01*
X154266562Y-112462124D01*
X154430981Y-112312236D01*
X154565058Y-112134689D01*
X154664229Y-111935528D01*
X154725115Y-111721536D01*
X154745643Y-111500000D01*
X154745642Y-111499994D01*
X154725115Y-111278464D01*
X154725114Y-111278462D01*
X154709531Y-111223694D01*
X154664229Y-111064472D01*
X154657023Y-111050000D01*
X154565061Y-110865316D01*
X154565056Y-110865308D01*
X154430979Y-110687761D01*
X154282203Y-110552135D01*
X155324500Y-110552135D01*
X155324500Y-112447870D01*
X155324501Y-112447876D01*
X155330908Y-112507483D01*
X155381202Y-112642328D01*
X155381206Y-112642335D01*
X155467452Y-112757544D01*
X155467455Y-112757547D01*
X155582664Y-112843793D01*
X155582671Y-112843797D01*
X155717517Y-112894091D01*
X155717516Y-112894091D01*
X155724444Y-112894835D01*
X155777127Y-112900500D01*
X157672872Y-112900499D01*
X157732483Y-112894091D01*
X157867331Y-112843796D01*
X157982546Y-112757546D01*
X158068796Y-112642331D01*
X158119091Y-112507483D01*
X158125500Y-112447873D01*
X158125499Y-112337304D01*
X158145183Y-112270268D01*
X158161818Y-112249626D01*
X158822861Y-111588584D01*
X158845667Y-111673694D01*
X158904910Y-111776306D01*
X158988694Y-111860090D01*
X159091306Y-111919333D01*
X159176414Y-111942138D01*
X158466201Y-112652351D01*
X158496649Y-112676050D01*
X158700697Y-112786476D01*
X158700706Y-112786479D01*
X158920139Y-112861811D01*
X159148993Y-112900000D01*
X159381007Y-112900000D01*
X159609860Y-112861811D01*
X159829293Y-112786479D01*
X159829301Y-112786476D01*
X160033355Y-112676047D01*
X160063797Y-112652351D01*
X160063798Y-112652350D01*
X159353585Y-111942137D01*
X159438694Y-111919333D01*
X159541306Y-111860090D01*
X159625090Y-111776306D01*
X159684333Y-111673694D01*
X159707138Y-111588585D01*
X160416186Y-112297633D01*
X160500482Y-112168611D01*
X160593682Y-111956135D01*
X160650638Y-111731218D01*
X160669798Y-111500005D01*
X160669798Y-111499994D01*
X160650638Y-111268781D01*
X160593682Y-111043864D01*
X160500484Y-110831393D01*
X160416186Y-110702365D01*
X159707137Y-111411414D01*
X159684333Y-111326306D01*
X159625090Y-111223694D01*
X159541306Y-111139910D01*
X159438694Y-111080667D01*
X159353584Y-111057861D01*
X160063797Y-110347647D01*
X160063797Y-110347645D01*
X160033360Y-110323955D01*
X160033354Y-110323951D01*
X159829302Y-110213523D01*
X159829293Y-110213520D01*
X159609860Y-110138188D01*
X159381007Y-110100000D01*
X159148993Y-110100000D01*
X158920139Y-110138188D01*
X158700706Y-110213520D01*
X158700697Y-110213523D01*
X158496650Y-110323949D01*
X158466200Y-110347647D01*
X159176415Y-111057861D01*
X159091306Y-111080667D01*
X158988694Y-111139910D01*
X158904910Y-111223694D01*
X158845667Y-111326306D01*
X158822861Y-111411415D01*
X158161818Y-110750372D01*
X158128333Y-110689049D01*
X158125499Y-110662691D01*
X158125499Y-110552129D01*
X158125498Y-110552123D01*
X158125497Y-110552116D01*
X158119091Y-110492517D01*
X158102438Y-110447869D01*
X158068797Y-110357671D01*
X158068793Y-110357664D01*
X157982547Y-110242455D01*
X157982544Y-110242452D01*
X157867335Y-110156206D01*
X157867328Y-110156202D01*
X157732482Y-110105908D01*
X157732483Y-110105908D01*
X157672883Y-110099501D01*
X157672881Y-110099500D01*
X157672873Y-110099500D01*
X157672864Y-110099500D01*
X155777129Y-110099500D01*
X155777123Y-110099501D01*
X155717516Y-110105908D01*
X155582671Y-110156202D01*
X155582664Y-110156206D01*
X155467455Y-110242452D01*
X155467452Y-110242455D01*
X155381206Y-110357664D01*
X155381202Y-110357671D01*
X155330908Y-110492517D01*
X155326032Y-110537874D01*
X155324501Y-110552123D01*
X155324500Y-110552135D01*
X154282203Y-110552135D01*
X154266562Y-110537876D01*
X154266560Y-110537874D01*
X154077404Y-110420754D01*
X154077398Y-110420752D01*
X153869940Y-110340382D01*
X153651243Y-110299500D01*
X153428757Y-110299500D01*
X153210060Y-110340382D01*
X153078864Y-110391207D01*
X153002601Y-110420752D01*
X153002595Y-110420754D01*
X152813439Y-110537874D01*
X152813437Y-110537876D01*
X152649020Y-110687761D01*
X152514943Y-110865308D01*
X152514938Y-110865316D01*
X152415775Y-111064461D01*
X152415769Y-111064476D01*
X152354885Y-111278462D01*
X152354884Y-111278464D01*
X152334357Y-111499999D01*
X149665643Y-111499999D01*
X149665642Y-111499994D01*
X149645115Y-111278464D01*
X149645114Y-111278462D01*
X149629531Y-111223694D01*
X149584229Y-111064472D01*
X149577023Y-111050000D01*
X149485061Y-110865316D01*
X149485056Y-110865308D01*
X149350979Y-110687761D01*
X149186562Y-110537876D01*
X149186560Y-110537874D01*
X148997404Y-110420754D01*
X148997398Y-110420752D01*
X148789940Y-110340382D01*
X148571243Y-110299500D01*
X148348757Y-110299500D01*
X148130060Y-110340382D01*
X147998864Y-110391207D01*
X147922601Y-110420752D01*
X147922595Y-110420754D01*
X147733439Y-110537874D01*
X147733437Y-110537876D01*
X147569020Y-110687761D01*
X147434943Y-110865308D01*
X147434938Y-110865316D01*
X147335775Y-111064461D01*
X147335769Y-111064476D01*
X147274885Y-111278462D01*
X147274884Y-111278464D01*
X147254357Y-111499999D01*
X141632126Y-111499999D01*
X141664229Y-111435528D01*
X141725115Y-111221536D01*
X141745643Y-111000000D01*
X141736519Y-110901540D01*
X141725115Y-110778464D01*
X141725114Y-110778462D01*
X141719163Y-110757547D01*
X141664229Y-110564472D01*
X141658083Y-110552129D01*
X141565061Y-110365316D01*
X141565056Y-110365308D01*
X141430979Y-110187761D01*
X141266562Y-110037876D01*
X141266560Y-110037874D01*
X141077404Y-109920754D01*
X141077398Y-109920752D01*
X140869940Y-109840382D01*
X140651243Y-109799500D01*
X140428757Y-109799500D01*
X140210060Y-109840382D01*
X140078864Y-109891207D01*
X140002601Y-109920752D01*
X140002595Y-109920754D01*
X139813439Y-110037874D01*
X139813437Y-110037876D01*
X139649020Y-110187761D01*
X139514943Y-110365308D01*
X139514938Y-110365316D01*
X139415775Y-110564461D01*
X139415769Y-110564476D01*
X139354885Y-110778462D01*
X139354884Y-110778464D01*
X139334357Y-110999999D01*
X136665643Y-110999999D01*
X136656519Y-110901540D01*
X136645115Y-110778464D01*
X136645114Y-110778462D01*
X136639163Y-110757547D01*
X136584229Y-110564472D01*
X136578083Y-110552129D01*
X136485061Y-110365316D01*
X136485056Y-110365308D01*
X136350979Y-110187761D01*
X136186562Y-110037876D01*
X136186560Y-110037874D01*
X135997404Y-109920754D01*
X135997398Y-109920752D01*
X135789940Y-109840382D01*
X135571243Y-109799500D01*
X135348757Y-109799500D01*
X135130060Y-109840382D01*
X134998864Y-109891207D01*
X134922601Y-109920752D01*
X134922595Y-109920754D01*
X134733439Y-110037874D01*
X134733437Y-110037876D01*
X134569020Y-110187761D01*
X134434943Y-110365308D01*
X134434938Y-110365316D01*
X134335775Y-110564461D01*
X134335769Y-110564476D01*
X134274885Y-110778462D01*
X134274884Y-110778464D01*
X134254357Y-110999999D01*
X128060219Y-110999999D01*
X127928215Y-110882792D01*
X127927930Y-110882538D01*
X126380469Y-109499994D01*
X128330202Y-109499994D01*
X128330202Y-109500005D01*
X128349361Y-109731218D01*
X128406317Y-109956135D01*
X128499515Y-110168606D01*
X128583812Y-110297633D01*
X129292861Y-109588584D01*
X129315667Y-109673694D01*
X129374910Y-109776306D01*
X129458694Y-109860090D01*
X129561306Y-109919333D01*
X129646414Y-109942138D01*
X128936201Y-110652351D01*
X128966649Y-110676050D01*
X129170697Y-110786476D01*
X129170706Y-110786479D01*
X129390139Y-110861811D01*
X129618993Y-110900000D01*
X129851007Y-110900000D01*
X130079860Y-110861811D01*
X130299293Y-110786479D01*
X130299301Y-110786476D01*
X130503355Y-110676047D01*
X130533797Y-110652351D01*
X130533798Y-110652350D01*
X129823585Y-109942137D01*
X129908694Y-109919333D01*
X130011306Y-109860090D01*
X130095090Y-109776306D01*
X130154333Y-109673694D01*
X130177138Y-109588584D01*
X130838181Y-110249627D01*
X130871666Y-110310950D01*
X130874500Y-110337307D01*
X130874500Y-110447869D01*
X130874501Y-110447876D01*
X130880908Y-110507483D01*
X130931202Y-110642328D01*
X130931206Y-110642335D01*
X131017452Y-110757544D01*
X131017455Y-110757547D01*
X131132664Y-110843793D01*
X131132671Y-110843797D01*
X131267517Y-110894091D01*
X131267516Y-110894091D01*
X131274444Y-110894835D01*
X131327127Y-110900500D01*
X133222872Y-110900499D01*
X133282483Y-110894091D01*
X133417331Y-110843796D01*
X133532546Y-110757546D01*
X133618796Y-110642331D01*
X133669091Y-110507483D01*
X133675500Y-110447873D01*
X133675499Y-108552128D01*
X133669091Y-108492517D01*
X133618796Y-108357669D01*
X133618795Y-108357668D01*
X133618793Y-108357664D01*
X133532547Y-108242455D01*
X133532544Y-108242452D01*
X133417335Y-108156206D01*
X133417328Y-108156202D01*
X133282482Y-108105908D01*
X133282483Y-108105908D01*
X133222883Y-108099501D01*
X133222881Y-108099500D01*
X133222873Y-108099500D01*
X133222864Y-108099500D01*
X131327129Y-108099500D01*
X131327123Y-108099501D01*
X131267516Y-108105908D01*
X131132671Y-108156202D01*
X131132664Y-108156206D01*
X131017455Y-108242452D01*
X131017452Y-108242455D01*
X130931206Y-108357664D01*
X130931202Y-108357671D01*
X130880908Y-108492517D01*
X130874501Y-108552116D01*
X130874501Y-108552123D01*
X130874500Y-108552135D01*
X130874500Y-108662691D01*
X130854815Y-108729730D01*
X130838181Y-108750372D01*
X130177138Y-109411414D01*
X130154333Y-109326306D01*
X130095090Y-109223694D01*
X130011306Y-109139910D01*
X129908694Y-109080667D01*
X129823584Y-109057861D01*
X130533797Y-108347647D01*
X130533797Y-108347645D01*
X130503360Y-108323955D01*
X130503354Y-108323951D01*
X130299302Y-108213523D01*
X130299293Y-108213520D01*
X130079860Y-108138188D01*
X129851007Y-108100000D01*
X129618993Y-108100000D01*
X129390139Y-108138188D01*
X129170706Y-108213520D01*
X129170697Y-108213523D01*
X128966650Y-108323949D01*
X128936200Y-108347647D01*
X129646415Y-109057861D01*
X129561306Y-109080667D01*
X129458694Y-109139910D01*
X129374910Y-109223694D01*
X129315667Y-109326306D01*
X129292861Y-109411415D01*
X128583811Y-108702365D01*
X128499516Y-108831390D01*
X128406317Y-109043864D01*
X128349361Y-109268781D01*
X128330202Y-109499994D01*
X126380469Y-109499994D01*
X122775462Y-106279181D01*
X122772228Y-106276187D01*
X121963256Y-105499999D01*
X128254357Y-105499999D01*
X128254357Y-105500000D01*
X128274884Y-105721535D01*
X128274885Y-105721537D01*
X128335769Y-105935523D01*
X128335775Y-105935538D01*
X128434938Y-106134683D01*
X128434943Y-106134691D01*
X128569020Y-106312238D01*
X128733437Y-106462123D01*
X128733439Y-106462125D01*
X128922595Y-106579245D01*
X128922596Y-106579245D01*
X128922599Y-106579247D01*
X129130060Y-106659618D01*
X129348757Y-106700500D01*
X129348759Y-106700500D01*
X129571241Y-106700500D01*
X129571243Y-106700500D01*
X129789940Y-106659618D01*
X129997401Y-106579247D01*
X130186562Y-106462124D01*
X130350981Y-106312236D01*
X130485058Y-106134689D01*
X130584229Y-105935528D01*
X130645115Y-105721536D01*
X130665643Y-105500000D01*
X130665643Y-105499999D01*
X133334357Y-105499999D01*
X133334357Y-105500000D01*
X133354884Y-105721535D01*
X133354885Y-105721537D01*
X133415769Y-105935523D01*
X133415775Y-105935538D01*
X133514938Y-106134683D01*
X133514943Y-106134691D01*
X133649020Y-106312238D01*
X133813437Y-106462123D01*
X133813439Y-106462125D01*
X134002595Y-106579245D01*
X134002596Y-106579245D01*
X134002599Y-106579247D01*
X134210060Y-106659618D01*
X134428757Y-106700500D01*
X134428759Y-106700500D01*
X134651241Y-106700500D01*
X134651243Y-106700500D01*
X134869940Y-106659618D01*
X135077401Y-106579247D01*
X135205391Y-106499999D01*
X153254357Y-106499999D01*
X153254357Y-106500000D01*
X153274884Y-106721535D01*
X153274885Y-106721537D01*
X153335769Y-106935523D01*
X153335775Y-106935538D01*
X153434938Y-107134683D01*
X153434943Y-107134691D01*
X153569020Y-107312238D01*
X153733437Y-107462123D01*
X153733439Y-107462125D01*
X153922595Y-107579245D01*
X153922596Y-107579245D01*
X153922599Y-107579247D01*
X154130060Y-107659618D01*
X154348757Y-107700500D01*
X154348759Y-107700500D01*
X154571241Y-107700500D01*
X154571243Y-107700500D01*
X154789940Y-107659618D01*
X154997401Y-107579247D01*
X155186562Y-107462124D01*
X155350981Y-107312236D01*
X155485058Y-107134689D01*
X155584229Y-106935528D01*
X155645115Y-106721536D01*
X155665643Y-106500000D01*
X155665643Y-106499999D01*
X158334357Y-106499999D01*
X158334357Y-106500000D01*
X158354884Y-106721535D01*
X158354885Y-106721537D01*
X158415769Y-106935523D01*
X158415775Y-106935538D01*
X158514938Y-107134683D01*
X158514943Y-107134691D01*
X158649020Y-107312238D01*
X158813437Y-107462123D01*
X158813439Y-107462125D01*
X159002595Y-107579245D01*
X159002596Y-107579245D01*
X159002599Y-107579247D01*
X159210060Y-107659618D01*
X159428757Y-107700500D01*
X159428759Y-107700500D01*
X159651241Y-107700500D01*
X159651243Y-107700500D01*
X159869940Y-107659618D01*
X160077401Y-107579247D01*
X160266562Y-107462124D01*
X160430981Y-107312236D01*
X160565058Y-107134689D01*
X160664229Y-106935528D01*
X160725115Y-106721536D01*
X160745643Y-106500000D01*
X160725115Y-106278464D01*
X160664229Y-106064472D01*
X160661626Y-106059244D01*
X160565061Y-105865316D01*
X160565056Y-105865308D01*
X160430979Y-105687761D01*
X160266562Y-105537876D01*
X160266560Y-105537874D01*
X160077404Y-105420754D01*
X160077398Y-105420752D01*
X159869940Y-105340382D01*
X159651243Y-105299500D01*
X159428757Y-105299500D01*
X159210060Y-105340382D01*
X159078864Y-105391207D01*
X159002601Y-105420752D01*
X159002595Y-105420754D01*
X158813439Y-105537874D01*
X158813437Y-105537876D01*
X158649020Y-105687761D01*
X158514943Y-105865308D01*
X158514938Y-105865316D01*
X158415775Y-106064461D01*
X158415769Y-106064476D01*
X158354885Y-106278462D01*
X158354884Y-106278464D01*
X158334357Y-106499999D01*
X155665643Y-106499999D01*
X155645115Y-106278464D01*
X155584229Y-106064472D01*
X155581626Y-106059244D01*
X155485061Y-105865316D01*
X155485056Y-105865308D01*
X155350979Y-105687761D01*
X155186562Y-105537876D01*
X155186560Y-105537874D01*
X154997404Y-105420754D01*
X154997398Y-105420752D01*
X154789940Y-105340382D01*
X154571243Y-105299500D01*
X154348757Y-105299500D01*
X154130060Y-105340382D01*
X153998864Y-105391207D01*
X153922601Y-105420752D01*
X153922595Y-105420754D01*
X153733439Y-105537874D01*
X153733437Y-105537876D01*
X153569020Y-105687761D01*
X153434943Y-105865308D01*
X153434938Y-105865316D01*
X153335775Y-106064461D01*
X153335769Y-106064476D01*
X153274885Y-106278462D01*
X153274884Y-106278464D01*
X153254357Y-106499999D01*
X135205391Y-106499999D01*
X135266562Y-106462124D01*
X135430981Y-106312236D01*
X135565058Y-106134689D01*
X135664229Y-105935528D01*
X135725115Y-105721536D01*
X135745643Y-105500000D01*
X135725115Y-105278464D01*
X135664229Y-105064472D01*
X135658083Y-105052129D01*
X135565061Y-104865316D01*
X135565056Y-104865308D01*
X135430979Y-104687761D01*
X135266562Y-104537876D01*
X135266560Y-104537874D01*
X135077404Y-104420754D01*
X135077398Y-104420752D01*
X134869940Y-104340382D01*
X134651243Y-104299500D01*
X134428757Y-104299500D01*
X134210060Y-104340382D01*
X134078864Y-104391207D01*
X134002601Y-104420752D01*
X134002595Y-104420754D01*
X133813439Y-104537874D01*
X133813437Y-104537876D01*
X133649020Y-104687761D01*
X133514943Y-104865308D01*
X133514938Y-104865316D01*
X133415775Y-105064461D01*
X133415769Y-105064476D01*
X133354885Y-105278462D01*
X133354884Y-105278464D01*
X133334357Y-105499999D01*
X130665643Y-105499999D01*
X130645115Y-105278464D01*
X130584229Y-105064472D01*
X130578083Y-105052129D01*
X130485061Y-104865316D01*
X130485056Y-104865308D01*
X130350979Y-104687761D01*
X130186562Y-104537876D01*
X130186560Y-104537874D01*
X129997404Y-104420754D01*
X129997398Y-104420752D01*
X129789940Y-104340382D01*
X129571243Y-104299500D01*
X129348757Y-104299500D01*
X129130060Y-104340382D01*
X128998864Y-104391207D01*
X128922601Y-104420752D01*
X128922595Y-104420754D01*
X128733439Y-104537874D01*
X128733437Y-104537876D01*
X128569020Y-104687761D01*
X128434943Y-104865308D01*
X128434938Y-104865316D01*
X128335775Y-105064461D01*
X128335769Y-105064476D01*
X128274885Y-105278462D01*
X128274884Y-105278464D01*
X128254357Y-105499999D01*
X121963256Y-105499999D01*
X119878775Y-103499994D01*
X122330202Y-103499994D01*
X122330202Y-103500005D01*
X122349361Y-103731218D01*
X122406317Y-103956135D01*
X122499515Y-104168606D01*
X122583812Y-104297633D01*
X123292861Y-103588584D01*
X123315667Y-103673694D01*
X123374910Y-103776306D01*
X123458694Y-103860090D01*
X123561306Y-103919333D01*
X123646414Y-103942138D01*
X122936201Y-104652351D01*
X122966649Y-104676050D01*
X123170697Y-104786476D01*
X123170706Y-104786479D01*
X123390139Y-104861811D01*
X123618993Y-104900000D01*
X123851007Y-104900000D01*
X124079860Y-104861811D01*
X124299293Y-104786479D01*
X124299301Y-104786476D01*
X124503355Y-104676047D01*
X124533797Y-104652351D01*
X124533798Y-104652350D01*
X123823585Y-103942137D01*
X123908694Y-103919333D01*
X124011306Y-103860090D01*
X124095090Y-103776306D01*
X124154333Y-103673694D01*
X124177138Y-103588584D01*
X124838181Y-104249627D01*
X124871666Y-104310950D01*
X124874500Y-104337307D01*
X124874500Y-104447869D01*
X124874501Y-104447876D01*
X124880908Y-104507483D01*
X124931202Y-104642328D01*
X124931206Y-104642335D01*
X125017452Y-104757544D01*
X125017455Y-104757547D01*
X125132664Y-104843793D01*
X125132671Y-104843797D01*
X125267517Y-104894091D01*
X125267516Y-104894091D01*
X125274444Y-104894835D01*
X125327127Y-104900500D01*
X127222872Y-104900499D01*
X127282483Y-104894091D01*
X127417331Y-104843796D01*
X127532546Y-104757546D01*
X127618796Y-104642331D01*
X127669091Y-104507483D01*
X127675500Y-104447873D01*
X127675499Y-102552128D01*
X127669895Y-102499999D01*
X141754357Y-102499999D01*
X141754357Y-102500000D01*
X141774884Y-102721535D01*
X141774885Y-102721537D01*
X141835769Y-102935523D01*
X141835775Y-102935538D01*
X141934938Y-103134683D01*
X141934943Y-103134691D01*
X142069020Y-103312238D01*
X142233437Y-103462123D01*
X142233439Y-103462125D01*
X142422595Y-103579245D01*
X142422596Y-103579245D01*
X142422599Y-103579247D01*
X142564898Y-103634374D01*
X142620298Y-103676946D01*
X142643889Y-103742713D01*
X142628178Y-103810793D01*
X142578154Y-103859572D01*
X142564906Y-103865622D01*
X142458693Y-103906769D01*
X142422601Y-103920752D01*
X142422595Y-103920754D01*
X142233439Y-104037874D01*
X142233437Y-104037876D01*
X142069020Y-104187761D01*
X141934943Y-104365308D01*
X141934938Y-104365316D01*
X141835775Y-104564461D01*
X141835769Y-104564476D01*
X141774885Y-104778462D01*
X141774884Y-104778464D01*
X141754357Y-104999999D01*
X141754357Y-105000000D01*
X141774884Y-105221535D01*
X141774885Y-105221537D01*
X141835769Y-105435523D01*
X141835775Y-105435538D01*
X141934938Y-105634683D01*
X141934943Y-105634691D01*
X142069020Y-105812238D01*
X142233437Y-105962123D01*
X142233439Y-105962125D01*
X142422595Y-106079245D01*
X142422596Y-106079245D01*
X142422599Y-106079247D01*
X142630060Y-106159618D01*
X142848757Y-106200500D01*
X142848759Y-106200500D01*
X143071241Y-106200500D01*
X143071243Y-106200500D01*
X143289940Y-106159618D01*
X143497401Y-106079247D01*
X143686562Y-105962124D01*
X143850981Y-105812236D01*
X143985058Y-105634689D01*
X144084229Y-105435528D01*
X144145115Y-105221536D01*
X144165643Y-105000000D01*
X144152454Y-104857671D01*
X144145115Y-104778464D01*
X144145114Y-104778462D01*
X144139163Y-104757547D01*
X144084229Y-104564472D01*
X144055852Y-104507483D01*
X143985061Y-104365316D01*
X143985056Y-104365308D01*
X143850979Y-104187761D01*
X143686562Y-104037876D01*
X143686560Y-104037874D01*
X143497404Y-103920754D01*
X143497395Y-103920750D01*
X143425560Y-103892921D01*
X143355101Y-103865625D01*
X143299701Y-103823054D01*
X143276110Y-103757288D01*
X143291821Y-103689207D01*
X143341844Y-103640428D01*
X143355093Y-103634377D01*
X143497401Y-103579247D01*
X143686562Y-103462124D01*
X143850981Y-103312236D01*
X143985058Y-103134689D01*
X144084229Y-102935528D01*
X144145115Y-102721536D01*
X144165643Y-102500000D01*
X144165643Y-102499999D01*
X146834357Y-102499999D01*
X146834357Y-102500000D01*
X146854884Y-102721535D01*
X146854885Y-102721537D01*
X146915769Y-102935523D01*
X146915775Y-102935538D01*
X147014938Y-103134683D01*
X147014943Y-103134691D01*
X147149020Y-103312238D01*
X147313437Y-103462123D01*
X147313439Y-103462125D01*
X147502595Y-103579245D01*
X147502596Y-103579245D01*
X147502599Y-103579247D01*
X147644898Y-103634374D01*
X147700298Y-103676946D01*
X147723889Y-103742713D01*
X147708178Y-103810793D01*
X147658154Y-103859572D01*
X147644906Y-103865622D01*
X147538693Y-103906769D01*
X147502601Y-103920752D01*
X147502595Y-103920754D01*
X147313439Y-104037874D01*
X147313437Y-104037876D01*
X147149020Y-104187761D01*
X147014943Y-104365308D01*
X147014938Y-104365316D01*
X146915775Y-104564461D01*
X146915769Y-104564476D01*
X146854885Y-104778462D01*
X146854884Y-104778464D01*
X146834357Y-104999999D01*
X146834357Y-105000000D01*
X146854884Y-105221535D01*
X146854885Y-105221537D01*
X146915769Y-105435523D01*
X146915775Y-105435538D01*
X147014938Y-105634683D01*
X147014943Y-105634691D01*
X147149020Y-105812238D01*
X147313437Y-105962123D01*
X147313439Y-105962125D01*
X147502595Y-106079245D01*
X147502596Y-106079245D01*
X147502599Y-106079247D01*
X147710060Y-106159618D01*
X147928757Y-106200500D01*
X147928759Y-106200500D01*
X148151241Y-106200500D01*
X148151243Y-106200500D01*
X148369940Y-106159618D01*
X148577401Y-106079247D01*
X148766562Y-105962124D01*
X148930981Y-105812236D01*
X149065058Y-105634689D01*
X149164229Y-105435528D01*
X149225115Y-105221536D01*
X149240812Y-105052135D01*
X161324500Y-105052135D01*
X161324500Y-106947870D01*
X161324501Y-106947876D01*
X161330908Y-107007483D01*
X161381202Y-107142328D01*
X161381206Y-107142335D01*
X161467452Y-107257544D01*
X161467455Y-107257547D01*
X161582664Y-107343793D01*
X161582671Y-107343797D01*
X161717517Y-107394091D01*
X161717516Y-107394091D01*
X161724444Y-107394835D01*
X161777127Y-107400500D01*
X163672872Y-107400499D01*
X163732483Y-107394091D01*
X163867331Y-107343796D01*
X163982546Y-107257546D01*
X164068796Y-107142331D01*
X164119091Y-107007483D01*
X164125500Y-106947873D01*
X164125499Y-106837304D01*
X164145183Y-106770268D01*
X164161818Y-106749626D01*
X164822861Y-106088584D01*
X164845667Y-106173694D01*
X164904910Y-106276306D01*
X164988694Y-106360090D01*
X165091306Y-106419333D01*
X165176414Y-106442138D01*
X164466201Y-107152351D01*
X164496649Y-107176050D01*
X164700697Y-107286476D01*
X164700706Y-107286479D01*
X164920139Y-107361811D01*
X165148993Y-107400000D01*
X165381007Y-107400000D01*
X165609860Y-107361811D01*
X165829293Y-107286479D01*
X165829301Y-107286476D01*
X166033355Y-107176047D01*
X166063797Y-107152351D01*
X166063798Y-107152350D01*
X165353585Y-106442137D01*
X165438694Y-106419333D01*
X165541306Y-106360090D01*
X165625090Y-106276306D01*
X165684333Y-106173694D01*
X165707138Y-106088585D01*
X166416186Y-106797633D01*
X166500482Y-106668611D01*
X166593682Y-106456135D01*
X166650638Y-106231218D01*
X166669798Y-106000005D01*
X166669798Y-105999994D01*
X166650638Y-105768781D01*
X166593682Y-105543864D01*
X166500484Y-105331393D01*
X166416186Y-105202365D01*
X165707137Y-105911414D01*
X165684333Y-105826306D01*
X165625090Y-105723694D01*
X165541306Y-105639910D01*
X165438694Y-105580667D01*
X165353584Y-105557861D01*
X166063797Y-104847647D01*
X166063797Y-104847645D01*
X166033360Y-104823955D01*
X166033354Y-104823951D01*
X165829302Y-104713523D01*
X165829293Y-104713520D01*
X165609860Y-104638188D01*
X165381007Y-104600000D01*
X165148993Y-104600000D01*
X164920139Y-104638188D01*
X164700706Y-104713520D01*
X164700697Y-104713523D01*
X164496650Y-104823949D01*
X164466200Y-104847647D01*
X165176415Y-105557861D01*
X165091306Y-105580667D01*
X164988694Y-105639910D01*
X164904910Y-105723694D01*
X164845667Y-105826306D01*
X164822861Y-105911415D01*
X164161818Y-105250372D01*
X164128333Y-105189049D01*
X164125499Y-105162691D01*
X164125499Y-105052129D01*
X164125498Y-105052123D01*
X164125497Y-105052116D01*
X164119091Y-104992517D01*
X164084584Y-104900000D01*
X164068797Y-104857671D01*
X164068793Y-104857664D01*
X163982547Y-104742455D01*
X163982544Y-104742452D01*
X163867335Y-104656206D01*
X163867328Y-104656202D01*
X163732482Y-104605908D01*
X163732483Y-104605908D01*
X163672883Y-104599501D01*
X163672881Y-104599500D01*
X163672873Y-104599500D01*
X163672864Y-104599500D01*
X161777129Y-104599500D01*
X161777123Y-104599501D01*
X161717516Y-104605908D01*
X161582671Y-104656202D01*
X161582664Y-104656206D01*
X161467455Y-104742452D01*
X161467452Y-104742455D01*
X161381206Y-104857664D01*
X161381202Y-104857671D01*
X161330908Y-104992517D01*
X161330104Y-105000000D01*
X161324501Y-105052123D01*
X161324500Y-105052135D01*
X149240812Y-105052135D01*
X149245643Y-105000000D01*
X149232454Y-104857671D01*
X149225115Y-104778464D01*
X149225114Y-104778462D01*
X149219163Y-104757547D01*
X149164229Y-104564472D01*
X149135852Y-104507483D01*
X149065061Y-104365316D01*
X149065056Y-104365308D01*
X148930979Y-104187761D01*
X148766562Y-104037876D01*
X148766560Y-104037874D01*
X148577404Y-103920754D01*
X148577395Y-103920750D01*
X148505560Y-103892921D01*
X148435101Y-103865625D01*
X148379701Y-103823054D01*
X148356110Y-103757288D01*
X148371821Y-103689207D01*
X148421844Y-103640428D01*
X148435093Y-103634377D01*
X148577401Y-103579247D01*
X148766562Y-103462124D01*
X148930981Y-103312236D01*
X149065058Y-103134689D01*
X149164229Y-102935528D01*
X149225115Y-102721536D01*
X149245643Y-102500000D01*
X149232454Y-102357671D01*
X149225115Y-102278464D01*
X149225114Y-102278462D01*
X149214869Y-102242455D01*
X149164229Y-102064472D01*
X149113266Y-101962125D01*
X149065061Y-101865316D01*
X149065056Y-101865308D01*
X148930979Y-101687761D01*
X148766562Y-101537876D01*
X148766560Y-101537874D01*
X148577404Y-101420754D01*
X148577398Y-101420752D01*
X148564569Y-101415782D01*
X148369940Y-101340382D01*
X148151243Y-101299500D01*
X147928757Y-101299500D01*
X147710060Y-101340382D01*
X147578864Y-101391207D01*
X147502601Y-101420752D01*
X147502595Y-101420754D01*
X147313439Y-101537874D01*
X147313437Y-101537876D01*
X147149020Y-101687761D01*
X147014943Y-101865308D01*
X147014938Y-101865316D01*
X146915775Y-102064461D01*
X146915769Y-102064476D01*
X146854885Y-102278462D01*
X146854884Y-102278464D01*
X146834357Y-102499999D01*
X144165643Y-102499999D01*
X144152454Y-102357671D01*
X144145115Y-102278464D01*
X144145114Y-102278462D01*
X144134869Y-102242455D01*
X144084229Y-102064472D01*
X144033266Y-101962125D01*
X143985061Y-101865316D01*
X143985056Y-101865308D01*
X143850979Y-101687761D01*
X143686562Y-101537876D01*
X143686560Y-101537874D01*
X143497404Y-101420754D01*
X143497398Y-101420752D01*
X143484569Y-101415782D01*
X143289940Y-101340382D01*
X143071243Y-101299500D01*
X142848757Y-101299500D01*
X142630060Y-101340382D01*
X142498864Y-101391207D01*
X142422601Y-101420752D01*
X142422595Y-101420754D01*
X142233439Y-101537874D01*
X142233437Y-101537876D01*
X142069020Y-101687761D01*
X141934943Y-101865308D01*
X141934938Y-101865316D01*
X141835775Y-102064461D01*
X141835769Y-102064476D01*
X141774885Y-102278462D01*
X141774884Y-102278464D01*
X141754357Y-102499999D01*
X127669895Y-102499999D01*
X127669091Y-102492517D01*
X127618796Y-102357669D01*
X127618795Y-102357668D01*
X127618793Y-102357664D01*
X127532547Y-102242455D01*
X127532544Y-102242452D01*
X127417335Y-102156206D01*
X127417328Y-102156202D01*
X127282482Y-102105908D01*
X127282483Y-102105908D01*
X127222883Y-102099501D01*
X127222881Y-102099500D01*
X127222873Y-102099500D01*
X127222864Y-102099500D01*
X125327129Y-102099500D01*
X125327123Y-102099501D01*
X125267516Y-102105908D01*
X125132671Y-102156202D01*
X125132664Y-102156206D01*
X125017455Y-102242452D01*
X125017452Y-102242455D01*
X124931206Y-102357664D01*
X124931202Y-102357671D01*
X124880908Y-102492517D01*
X124880104Y-102500000D01*
X124874501Y-102552123D01*
X124874500Y-102552135D01*
X124874500Y-102662691D01*
X124854815Y-102729730D01*
X124838181Y-102750372D01*
X124177138Y-103411414D01*
X124154333Y-103326306D01*
X124095090Y-103223694D01*
X124011306Y-103139910D01*
X123908694Y-103080667D01*
X123823584Y-103057861D01*
X124533797Y-102347647D01*
X124533797Y-102347645D01*
X124503360Y-102323955D01*
X124503354Y-102323951D01*
X124299302Y-102213523D01*
X124299293Y-102213520D01*
X124079860Y-102138188D01*
X123851007Y-102100000D01*
X123618993Y-102100000D01*
X123390139Y-102138188D01*
X123170706Y-102213520D01*
X123170697Y-102213523D01*
X122966650Y-102323949D01*
X122936200Y-102347647D01*
X123646415Y-103057861D01*
X123561306Y-103080667D01*
X123458694Y-103139910D01*
X123374910Y-103223694D01*
X123315667Y-103326306D01*
X123292861Y-103411415D01*
X122583811Y-102702365D01*
X122499516Y-102831390D01*
X122406317Y-103043864D01*
X122349361Y-103268781D01*
X122330202Y-103499994D01*
X119878775Y-103499994D01*
X119295657Y-102940507D01*
X119287573Y-102931979D01*
X119106220Y-102721535D01*
X118570175Y-102099501D01*
X116469497Y-99661845D01*
X116461758Y-99651882D01*
X115657539Y-98499994D01*
X116830202Y-98499994D01*
X116830202Y-98500005D01*
X116849361Y-98731218D01*
X116906317Y-98956135D01*
X116999515Y-99168606D01*
X117083812Y-99297633D01*
X117792861Y-98588584D01*
X117815667Y-98673694D01*
X117874910Y-98776306D01*
X117958694Y-98860090D01*
X118061306Y-98919333D01*
X118146414Y-98942138D01*
X117436201Y-99652351D01*
X117466649Y-99676050D01*
X117670697Y-99786476D01*
X117670706Y-99786479D01*
X117890139Y-99861811D01*
X118118993Y-99900000D01*
X118351007Y-99900000D01*
X118579860Y-99861811D01*
X118799293Y-99786479D01*
X118799301Y-99786476D01*
X119003355Y-99676047D01*
X119033797Y-99652351D01*
X119033798Y-99652350D01*
X118323585Y-98942137D01*
X118408694Y-98919333D01*
X118511306Y-98860090D01*
X118595090Y-98776306D01*
X118654333Y-98673694D01*
X118677138Y-98588584D01*
X119338181Y-99249627D01*
X119371666Y-99310950D01*
X119374500Y-99337307D01*
X119374500Y-99447869D01*
X119374501Y-99447876D01*
X119380908Y-99507483D01*
X119431202Y-99642328D01*
X119431206Y-99642335D01*
X119517452Y-99757544D01*
X119517455Y-99757547D01*
X119632664Y-99843793D01*
X119632671Y-99843797D01*
X119767517Y-99894091D01*
X119767516Y-99894091D01*
X119774444Y-99894835D01*
X119827127Y-99900500D01*
X121722872Y-99900499D01*
X121782483Y-99894091D01*
X121917331Y-99843796D01*
X122032546Y-99757546D01*
X122118796Y-99642331D01*
X122155978Y-99542639D01*
X122197848Y-99486706D01*
X122263312Y-99462288D01*
X122331585Y-99477139D01*
X122380991Y-99526544D01*
X122383160Y-99530699D01*
X122434941Y-99634687D01*
X122434943Y-99634691D01*
X122569020Y-99812238D01*
X122733437Y-99962123D01*
X122733439Y-99962125D01*
X122922595Y-100079245D01*
X122922596Y-100079245D01*
X122922599Y-100079247D01*
X123130060Y-100159618D01*
X123348757Y-100200500D01*
X123348759Y-100200500D01*
X123571241Y-100200500D01*
X123571243Y-100200500D01*
X123789940Y-100159618D01*
X123997401Y-100079247D01*
X124186562Y-99962124D01*
X124350981Y-99812236D01*
X124485058Y-99634689D01*
X124584229Y-99435528D01*
X124645115Y-99221536D01*
X124665643Y-99000000D01*
X124665643Y-98999999D01*
X127334357Y-98999999D01*
X127334357Y-99000000D01*
X127354884Y-99221535D01*
X127354885Y-99221537D01*
X127415769Y-99435523D01*
X127415775Y-99435538D01*
X127514938Y-99634683D01*
X127514943Y-99634691D01*
X127649020Y-99812238D01*
X127813437Y-99962123D01*
X127813439Y-99962125D01*
X128002595Y-100079245D01*
X128002596Y-100079245D01*
X128002599Y-100079247D01*
X128210060Y-100159618D01*
X128428757Y-100200500D01*
X128428759Y-100200500D01*
X128651241Y-100200500D01*
X128651243Y-100200500D01*
X128718256Y-100187973D01*
X152922000Y-100187973D01*
X152922000Y-100432026D01*
X152959471Y-100668611D01*
X152960179Y-100673076D01*
X153035596Y-100905185D01*
X153057341Y-100947863D01*
X153146396Y-101122642D01*
X153289839Y-101320076D01*
X153289843Y-101320081D01*
X153462418Y-101492656D01*
X153462423Y-101492660D01*
X153634636Y-101617779D01*
X153659861Y-101636106D01*
X153877315Y-101746904D01*
X154109424Y-101822321D01*
X154350473Y-101860500D01*
X154350474Y-101860500D01*
X156094526Y-101860500D01*
X156094527Y-101860500D01*
X156335576Y-101822321D01*
X156567685Y-101746904D01*
X156785139Y-101636106D01*
X156982583Y-101492655D01*
X157155155Y-101320083D01*
X157298606Y-101122639D01*
X157361094Y-100999999D01*
X159254357Y-100999999D01*
X159254357Y-101000000D01*
X159274884Y-101221535D01*
X159274885Y-101221537D01*
X159335769Y-101435523D01*
X159335775Y-101435538D01*
X159434938Y-101634683D01*
X159434943Y-101634691D01*
X159569020Y-101812238D01*
X159733437Y-101962123D01*
X159733439Y-101962125D01*
X159922595Y-102079245D01*
X159922596Y-102079245D01*
X159922599Y-102079247D01*
X160130060Y-102159618D01*
X160348757Y-102200500D01*
X160348759Y-102200500D01*
X160571241Y-102200500D01*
X160571243Y-102200500D01*
X160789940Y-102159618D01*
X160997401Y-102079247D01*
X161186562Y-101962124D01*
X161350981Y-101812236D01*
X161485058Y-101634689D01*
X161584229Y-101435528D01*
X161645115Y-101221536D01*
X161665643Y-101000000D01*
X161665643Y-100999999D01*
X164334357Y-100999999D01*
X164334357Y-101000000D01*
X164354884Y-101221535D01*
X164354885Y-101221537D01*
X164415769Y-101435523D01*
X164415775Y-101435538D01*
X164514938Y-101634683D01*
X164514943Y-101634691D01*
X164649020Y-101812238D01*
X164813437Y-101962123D01*
X164813439Y-101962125D01*
X165002595Y-102079245D01*
X165002596Y-102079245D01*
X165002599Y-102079247D01*
X165210060Y-102159618D01*
X165428757Y-102200500D01*
X165428759Y-102200500D01*
X165651241Y-102200500D01*
X165651243Y-102200500D01*
X165869940Y-102159618D01*
X166077401Y-102079247D01*
X166266562Y-101962124D01*
X166430981Y-101812236D01*
X166565058Y-101634689D01*
X166664229Y-101435528D01*
X166725115Y-101221536D01*
X166745643Y-101000000D01*
X166725115Y-100778464D01*
X166664229Y-100564472D01*
X166664224Y-100564461D01*
X166565061Y-100365316D01*
X166565056Y-100365308D01*
X166430979Y-100187761D01*
X166266562Y-100037876D01*
X166266560Y-100037874D01*
X166077404Y-99920754D01*
X166077398Y-99920752D01*
X165869940Y-99840382D01*
X165651243Y-99799500D01*
X165428757Y-99799500D01*
X165210060Y-99840382D01*
X165078864Y-99891207D01*
X165002601Y-99920752D01*
X165002595Y-99920754D01*
X164813439Y-100037874D01*
X164813437Y-100037876D01*
X164649020Y-100187761D01*
X164514943Y-100365308D01*
X164514938Y-100365316D01*
X164415775Y-100564461D01*
X164415769Y-100564476D01*
X164354885Y-100778462D01*
X164354884Y-100778464D01*
X164334357Y-100999999D01*
X161665643Y-100999999D01*
X161645115Y-100778464D01*
X161584229Y-100564472D01*
X161584224Y-100564461D01*
X161485061Y-100365316D01*
X161485056Y-100365308D01*
X161350979Y-100187761D01*
X161186562Y-100037876D01*
X161186560Y-100037874D01*
X160997404Y-99920754D01*
X160997398Y-99920752D01*
X160789940Y-99840382D01*
X160571243Y-99799500D01*
X160348757Y-99799500D01*
X160130060Y-99840382D01*
X159998864Y-99891207D01*
X159922601Y-99920752D01*
X159922595Y-99920754D01*
X159733439Y-100037874D01*
X159733437Y-100037876D01*
X159569020Y-100187761D01*
X159434943Y-100365308D01*
X159434938Y-100365316D01*
X159335775Y-100564461D01*
X159335769Y-100564476D01*
X159274885Y-100778462D01*
X159274884Y-100778464D01*
X159254357Y-100999999D01*
X157361094Y-100999999D01*
X157409404Y-100905185D01*
X157484821Y-100673076D01*
X157523000Y-100432027D01*
X157523000Y-100187973D01*
X157484821Y-99946924D01*
X157409404Y-99714815D01*
X157298606Y-99497361D01*
X157228231Y-99400498D01*
X157155160Y-99299923D01*
X157155156Y-99299918D01*
X156982581Y-99127343D01*
X156982576Y-99127339D01*
X156879066Y-99052135D01*
X167824500Y-99052135D01*
X167824500Y-100947870D01*
X167824501Y-100947876D01*
X167830908Y-101007483D01*
X167881202Y-101142328D01*
X167881206Y-101142335D01*
X167967452Y-101257544D01*
X167967455Y-101257547D01*
X168082664Y-101343793D01*
X168082671Y-101343797D01*
X168217517Y-101394091D01*
X168217516Y-101394091D01*
X168224444Y-101394835D01*
X168277127Y-101400500D01*
X170172872Y-101400499D01*
X170232483Y-101394091D01*
X170367331Y-101343796D01*
X170482546Y-101257546D01*
X170568796Y-101142331D01*
X170619091Y-101007483D01*
X170625500Y-100947873D01*
X170625499Y-100837304D01*
X170645183Y-100770268D01*
X170661818Y-100749626D01*
X171322861Y-100088582D01*
X171345667Y-100173694D01*
X171404910Y-100276306D01*
X171488694Y-100360090D01*
X171591306Y-100419333D01*
X171676414Y-100442138D01*
X170966201Y-101152351D01*
X170996649Y-101176050D01*
X171200697Y-101286476D01*
X171200706Y-101286479D01*
X171420139Y-101361811D01*
X171648993Y-101400000D01*
X171881007Y-101400000D01*
X172109860Y-101361811D01*
X172329293Y-101286479D01*
X172329301Y-101286476D01*
X172533355Y-101176047D01*
X172563797Y-101152351D01*
X172563798Y-101152350D01*
X171853585Y-100442137D01*
X171938694Y-100419333D01*
X172041306Y-100360090D01*
X172125090Y-100276306D01*
X172184333Y-100173694D01*
X172207138Y-100088585D01*
X172916186Y-100797633D01*
X173000482Y-100668611D01*
X173093682Y-100456135D01*
X173150638Y-100231218D01*
X173169798Y-100000005D01*
X173169798Y-99999994D01*
X173150638Y-99768781D01*
X173093682Y-99543864D01*
X173000484Y-99331393D01*
X172916186Y-99202365D01*
X172207137Y-99911414D01*
X172184333Y-99826306D01*
X172125090Y-99723694D01*
X172041306Y-99639910D01*
X171938694Y-99580667D01*
X171853584Y-99557861D01*
X172563797Y-98847647D01*
X172563797Y-98847645D01*
X172533360Y-98823955D01*
X172533354Y-98823951D01*
X172329302Y-98713523D01*
X172329293Y-98713520D01*
X172109860Y-98638188D01*
X171881007Y-98600000D01*
X171648993Y-98600000D01*
X171420139Y-98638188D01*
X171200706Y-98713520D01*
X171200697Y-98713523D01*
X170996650Y-98823949D01*
X170966200Y-98847647D01*
X171676415Y-99557861D01*
X171591306Y-99580667D01*
X171488694Y-99639910D01*
X171404910Y-99723694D01*
X171345667Y-99826306D01*
X171322861Y-99911415D01*
X170661818Y-99250372D01*
X170628333Y-99189049D01*
X170625499Y-99162691D01*
X170625499Y-99052129D01*
X170625498Y-99052123D01*
X170625497Y-99052116D01*
X170619091Y-98992517D01*
X170605521Y-98956135D01*
X170568797Y-98857671D01*
X170568793Y-98857664D01*
X170482547Y-98742455D01*
X170482544Y-98742452D01*
X170367335Y-98656206D01*
X170367328Y-98656202D01*
X170232482Y-98605908D01*
X170232483Y-98605908D01*
X170172883Y-98599501D01*
X170172881Y-98599500D01*
X170172873Y-98599500D01*
X170172864Y-98599500D01*
X168277129Y-98599500D01*
X168277123Y-98599501D01*
X168217516Y-98605908D01*
X168082671Y-98656202D01*
X168082664Y-98656206D01*
X167967455Y-98742452D01*
X167967452Y-98742455D01*
X167881206Y-98857664D01*
X167881202Y-98857671D01*
X167830908Y-98992517D01*
X167824501Y-99052116D01*
X167824501Y-99052123D01*
X167824500Y-99052135D01*
X156879066Y-99052135D01*
X156785142Y-98983896D01*
X156785141Y-98983895D01*
X156785139Y-98983894D01*
X156567685Y-98873096D01*
X156335576Y-98797679D01*
X156335574Y-98797678D01*
X156335572Y-98797678D01*
X156162512Y-98770268D01*
X156094527Y-98759500D01*
X154350473Y-98759500D01*
X154294593Y-98768350D01*
X154109427Y-98797678D01*
X153877312Y-98873097D01*
X153659857Y-98983896D01*
X153462423Y-99127339D01*
X153462418Y-99127343D01*
X153289843Y-99299918D01*
X153289839Y-99299923D01*
X153146396Y-99497357D01*
X153035597Y-99714812D01*
X153035596Y-99714814D01*
X153035596Y-99714815D01*
X153018061Y-99768781D01*
X152960178Y-99946927D01*
X152922000Y-100187973D01*
X128718256Y-100187973D01*
X128869940Y-100159618D01*
X129077401Y-100079247D01*
X129266562Y-99962124D01*
X129430981Y-99812236D01*
X129565058Y-99634689D01*
X129664229Y-99435528D01*
X129725115Y-99221536D01*
X129745643Y-99000000D01*
X129732454Y-98857671D01*
X129725115Y-98778464D01*
X129725114Y-98778462D01*
X129716909Y-98749626D01*
X129664229Y-98564472D01*
X129661626Y-98559244D01*
X129565061Y-98365316D01*
X129565056Y-98365308D01*
X129430979Y-98187761D01*
X129266562Y-98037876D01*
X129266560Y-98037874D01*
X129077404Y-97920754D01*
X129077398Y-97920752D01*
X128869940Y-97840382D01*
X128651243Y-97799500D01*
X128428757Y-97799500D01*
X128210060Y-97840382D01*
X128078864Y-97891207D01*
X128002601Y-97920752D01*
X128002595Y-97920754D01*
X127813439Y-98037874D01*
X127813437Y-98037876D01*
X127649020Y-98187761D01*
X127514943Y-98365308D01*
X127514938Y-98365316D01*
X127415775Y-98564461D01*
X127415769Y-98564476D01*
X127354885Y-98778462D01*
X127354884Y-98778464D01*
X127334357Y-98999999D01*
X124665643Y-98999999D01*
X124652454Y-98857671D01*
X124645115Y-98778464D01*
X124645114Y-98778462D01*
X124636909Y-98749626D01*
X124584229Y-98564472D01*
X124581626Y-98559244D01*
X124485061Y-98365316D01*
X124485056Y-98365308D01*
X124350979Y-98187761D01*
X124186562Y-98037876D01*
X124186560Y-98037874D01*
X123997404Y-97920754D01*
X123997398Y-97920752D01*
X123789940Y-97840382D01*
X123571243Y-97799500D01*
X123348757Y-97799500D01*
X123130060Y-97840382D01*
X122998864Y-97891207D01*
X122922601Y-97920752D01*
X122922595Y-97920754D01*
X122733439Y-98037874D01*
X122733437Y-98037876D01*
X122569020Y-98187761D01*
X122434943Y-98365308D01*
X122434941Y-98365312D01*
X122410499Y-98414398D01*
X122362995Y-98465634D01*
X122295332Y-98483055D01*
X122228992Y-98461129D01*
X122185037Y-98406817D01*
X122175499Y-98359125D01*
X122175499Y-97552129D01*
X122175498Y-97552123D01*
X122175497Y-97552116D01*
X122169091Y-97492517D01*
X122118796Y-97357669D01*
X122118795Y-97357668D01*
X122118793Y-97357664D01*
X122032547Y-97242455D01*
X122032544Y-97242452D01*
X121917335Y-97156206D01*
X121917328Y-97156202D01*
X121782482Y-97105908D01*
X121782483Y-97105908D01*
X121722883Y-97099501D01*
X121722881Y-97099500D01*
X121722873Y-97099500D01*
X121722864Y-97099500D01*
X119827129Y-97099500D01*
X119827123Y-97099501D01*
X119767516Y-97105908D01*
X119632671Y-97156202D01*
X119632664Y-97156206D01*
X119517455Y-97242452D01*
X119517452Y-97242455D01*
X119431206Y-97357664D01*
X119431202Y-97357671D01*
X119380908Y-97492517D01*
X119374501Y-97552116D01*
X119374501Y-97552123D01*
X119374500Y-97552135D01*
X119374500Y-97662691D01*
X119354815Y-97729730D01*
X119338181Y-97750372D01*
X118677138Y-98411414D01*
X118654333Y-98326306D01*
X118595090Y-98223694D01*
X118511306Y-98139910D01*
X118408694Y-98080667D01*
X118323584Y-98057861D01*
X119033797Y-97347647D01*
X119033797Y-97347645D01*
X119003360Y-97323955D01*
X119003354Y-97323951D01*
X118799302Y-97213523D01*
X118799293Y-97213520D01*
X118579860Y-97138188D01*
X118351007Y-97100000D01*
X118118993Y-97100000D01*
X117890139Y-97138188D01*
X117670706Y-97213520D01*
X117670697Y-97213523D01*
X117466650Y-97323949D01*
X117436200Y-97347647D01*
X118146415Y-98057861D01*
X118061306Y-98080667D01*
X117958694Y-98139910D01*
X117874910Y-98223694D01*
X117815667Y-98326306D01*
X117792861Y-98411415D01*
X117083811Y-97702365D01*
X116999516Y-97831390D01*
X116906317Y-98043864D01*
X116849361Y-98268781D01*
X116830202Y-98499994D01*
X115657539Y-98499994D01*
X114646680Y-97052135D01*
X142824500Y-97052135D01*
X142824500Y-98947870D01*
X142824501Y-98947876D01*
X142830908Y-99007483D01*
X142881202Y-99142328D01*
X142881206Y-99142335D01*
X142967452Y-99257544D01*
X142967455Y-99257547D01*
X143082664Y-99343793D01*
X143082671Y-99343797D01*
X143217517Y-99394091D01*
X143217516Y-99394091D01*
X143224444Y-99394835D01*
X143277127Y-99400500D01*
X145172872Y-99400499D01*
X145232483Y-99394091D01*
X145367331Y-99343796D01*
X145482546Y-99257546D01*
X145568796Y-99142331D01*
X145619091Y-99007483D01*
X145625500Y-98947873D01*
X145625499Y-98837304D01*
X145645183Y-98770268D01*
X145661818Y-98749626D01*
X146322861Y-98088584D01*
X146345667Y-98173694D01*
X146404910Y-98276306D01*
X146488694Y-98360090D01*
X146591306Y-98419333D01*
X146676414Y-98442138D01*
X145966201Y-99152351D01*
X145996649Y-99176050D01*
X146200697Y-99286476D01*
X146200706Y-99286479D01*
X146420139Y-99361811D01*
X146648993Y-99400000D01*
X146881007Y-99400000D01*
X147109860Y-99361811D01*
X147329293Y-99286479D01*
X147329301Y-99286476D01*
X147533355Y-99176047D01*
X147563797Y-99152351D01*
X147563798Y-99152350D01*
X146853585Y-98442137D01*
X146938694Y-98419333D01*
X147041306Y-98360090D01*
X147125090Y-98276306D01*
X147184333Y-98173694D01*
X147207138Y-98088585D01*
X147916186Y-98797633D01*
X148000482Y-98668611D01*
X148093682Y-98456135D01*
X148150638Y-98231218D01*
X148169798Y-98000005D01*
X148169798Y-97999994D01*
X148150638Y-97768781D01*
X148093682Y-97543864D01*
X148000484Y-97331393D01*
X147916186Y-97202365D01*
X147207137Y-97911414D01*
X147184333Y-97826306D01*
X147125090Y-97723694D01*
X147041306Y-97639910D01*
X146938694Y-97580667D01*
X146853584Y-97557861D01*
X147563797Y-96847647D01*
X147563797Y-96847645D01*
X147533360Y-96823955D01*
X147533354Y-96823951D01*
X147329302Y-96713523D01*
X147329293Y-96713520D01*
X147109860Y-96638188D01*
X146881007Y-96600000D01*
X146648993Y-96600000D01*
X146420139Y-96638188D01*
X146200706Y-96713520D01*
X146200697Y-96713523D01*
X145996650Y-96823949D01*
X145966200Y-96847647D01*
X146676415Y-97557861D01*
X146591306Y-97580667D01*
X146488694Y-97639910D01*
X146404910Y-97723694D01*
X146345667Y-97826306D01*
X146322861Y-97911415D01*
X145661818Y-97250372D01*
X145628333Y-97189049D01*
X145625499Y-97162691D01*
X145625499Y-97052129D01*
X145625498Y-97052123D01*
X145625497Y-97052116D01*
X145619091Y-96992517D01*
X145568796Y-96857669D01*
X145568795Y-96857668D01*
X145568793Y-96857664D01*
X145482547Y-96742455D01*
X145482544Y-96742452D01*
X145367335Y-96656206D01*
X145367328Y-96656202D01*
X145232482Y-96605908D01*
X145232483Y-96605908D01*
X145172883Y-96599501D01*
X145172881Y-96599500D01*
X145172873Y-96599500D01*
X145172864Y-96599500D01*
X143277129Y-96599500D01*
X143277123Y-96599501D01*
X143217516Y-96605908D01*
X143082671Y-96656202D01*
X143082664Y-96656206D01*
X142967455Y-96742452D01*
X142967452Y-96742455D01*
X142881206Y-96857664D01*
X142881202Y-96857671D01*
X142830908Y-96992517D01*
X142826517Y-97033365D01*
X142824501Y-97052123D01*
X142824500Y-97052135D01*
X114646680Y-97052135D01*
X114605056Y-96992517D01*
X114236207Y-96464212D01*
X114228158Y-96450995D01*
X114074759Y-96159618D01*
X113464265Y-94999999D01*
X162754357Y-94999999D01*
X162754357Y-95000000D01*
X162774884Y-95221535D01*
X162774885Y-95221537D01*
X162835769Y-95435523D01*
X162835775Y-95435538D01*
X162934938Y-95634683D01*
X162934943Y-95634691D01*
X163069020Y-95812238D01*
X163233437Y-95962123D01*
X163233439Y-95962125D01*
X163422595Y-96079245D01*
X163422596Y-96079245D01*
X163422599Y-96079247D01*
X163630060Y-96159618D01*
X163848757Y-96200500D01*
X163848759Y-96200500D01*
X164071241Y-96200500D01*
X164071243Y-96200500D01*
X164289940Y-96159618D01*
X164497401Y-96079247D01*
X164686562Y-95962124D01*
X164850981Y-95812236D01*
X164985058Y-95634689D01*
X165084229Y-95435528D01*
X165145115Y-95221536D01*
X165165643Y-95000000D01*
X165165643Y-94999999D01*
X167834357Y-94999999D01*
X167834357Y-95000000D01*
X167854884Y-95221535D01*
X167854885Y-95221537D01*
X167915769Y-95435523D01*
X167915775Y-95435538D01*
X168014938Y-95634683D01*
X168014943Y-95634691D01*
X168149020Y-95812238D01*
X168313437Y-95962123D01*
X168313439Y-95962125D01*
X168502595Y-96079245D01*
X168502596Y-96079245D01*
X168502599Y-96079247D01*
X168710060Y-96159618D01*
X168928757Y-96200500D01*
X168928759Y-96200500D01*
X169151241Y-96200500D01*
X169151243Y-96200500D01*
X169369940Y-96159618D01*
X169577401Y-96079247D01*
X169766562Y-95962124D01*
X169930981Y-95812236D01*
X170065058Y-95634689D01*
X170164229Y-95435528D01*
X170225115Y-95221536D01*
X170245643Y-95000000D01*
X170225115Y-94778464D01*
X170164229Y-94564472D01*
X170164224Y-94564461D01*
X170065061Y-94365316D01*
X170065056Y-94365308D01*
X169930979Y-94187761D01*
X169766562Y-94037876D01*
X169766560Y-94037874D01*
X169577404Y-93920754D01*
X169577398Y-93920752D01*
X169369940Y-93840382D01*
X169151243Y-93799500D01*
X168928757Y-93799500D01*
X168710060Y-93840382D01*
X168578864Y-93891207D01*
X168502601Y-93920752D01*
X168502595Y-93920754D01*
X168313439Y-94037874D01*
X168313437Y-94037876D01*
X168149020Y-94187761D01*
X168014943Y-94365308D01*
X168014938Y-94365316D01*
X167915775Y-94564461D01*
X167915769Y-94564476D01*
X167854885Y-94778462D01*
X167854884Y-94778464D01*
X167834357Y-94999999D01*
X165165643Y-94999999D01*
X165145115Y-94778464D01*
X165084229Y-94564472D01*
X165084224Y-94564461D01*
X164985061Y-94365316D01*
X164985056Y-94365308D01*
X164850979Y-94187761D01*
X164686562Y-94037876D01*
X164686560Y-94037874D01*
X164497404Y-93920754D01*
X164497398Y-93920752D01*
X164289940Y-93840382D01*
X164071243Y-93799500D01*
X163848757Y-93799500D01*
X163630060Y-93840382D01*
X163498864Y-93891207D01*
X163422601Y-93920752D01*
X163422595Y-93920754D01*
X163233439Y-94037874D01*
X163233437Y-94037876D01*
X163069020Y-94187761D01*
X162934943Y-94365308D01*
X162934938Y-94365316D01*
X162835775Y-94564461D01*
X162835769Y-94564476D01*
X162774885Y-94778462D01*
X162774884Y-94778464D01*
X162754357Y-94999999D01*
X113464265Y-94999999D01*
X113391514Y-94861811D01*
X112591719Y-93342620D01*
X112584321Y-93325581D01*
X112297244Y-92499994D01*
X113330202Y-92499994D01*
X113330202Y-92500005D01*
X113349361Y-92731218D01*
X113406317Y-92956135D01*
X113499515Y-93168606D01*
X113583812Y-93297633D01*
X114292861Y-92588584D01*
X114315667Y-92673694D01*
X114374910Y-92776306D01*
X114458694Y-92860090D01*
X114561306Y-92919333D01*
X114646414Y-92942138D01*
X113936201Y-93652351D01*
X113966649Y-93676050D01*
X114170697Y-93786476D01*
X114170706Y-93786479D01*
X114390139Y-93861811D01*
X114618993Y-93900000D01*
X114851007Y-93900000D01*
X115079860Y-93861811D01*
X115299293Y-93786479D01*
X115299301Y-93786476D01*
X115503355Y-93676047D01*
X115533797Y-93652351D01*
X115533798Y-93652350D01*
X114823585Y-92942137D01*
X114908694Y-92919333D01*
X115011306Y-92860090D01*
X115095090Y-92776306D01*
X115154333Y-92673694D01*
X115177138Y-92588584D01*
X115838181Y-93249627D01*
X115871666Y-93310950D01*
X115874500Y-93337307D01*
X115874500Y-93447869D01*
X115874501Y-93447876D01*
X115880908Y-93507483D01*
X115931202Y-93642328D01*
X115931206Y-93642335D01*
X116017452Y-93757544D01*
X116017455Y-93757547D01*
X116132664Y-93843793D01*
X116132671Y-93843797D01*
X116267517Y-93894091D01*
X116267516Y-93894091D01*
X116274444Y-93894835D01*
X116327127Y-93900500D01*
X118222872Y-93900499D01*
X118282483Y-93894091D01*
X118417331Y-93843796D01*
X118532546Y-93757546D01*
X118618796Y-93642331D01*
X118669091Y-93507483D01*
X118675500Y-93447873D01*
X118675500Y-92999999D01*
X119254357Y-92999999D01*
X119254357Y-93000000D01*
X119274884Y-93221535D01*
X119274885Y-93221537D01*
X119335769Y-93435523D01*
X119335775Y-93435538D01*
X119434938Y-93634683D01*
X119434943Y-93634691D01*
X119569020Y-93812238D01*
X119733437Y-93962123D01*
X119733439Y-93962125D01*
X119922595Y-94079245D01*
X119922596Y-94079245D01*
X119922599Y-94079247D01*
X120130060Y-94159618D01*
X120348757Y-94200500D01*
X120348759Y-94200500D01*
X120571241Y-94200500D01*
X120571243Y-94200500D01*
X120789940Y-94159618D01*
X120997401Y-94079247D01*
X121186562Y-93962124D01*
X121350981Y-93812236D01*
X121485058Y-93634689D01*
X121584229Y-93435528D01*
X121645115Y-93221536D01*
X121665643Y-93000000D01*
X121665643Y-92999999D01*
X124334357Y-92999999D01*
X124334357Y-93000000D01*
X124354884Y-93221535D01*
X124354885Y-93221537D01*
X124415769Y-93435523D01*
X124415775Y-93435538D01*
X124514938Y-93634683D01*
X124514943Y-93634691D01*
X124649020Y-93812238D01*
X124813437Y-93962123D01*
X124813439Y-93962125D01*
X125002595Y-94079245D01*
X125002596Y-94079245D01*
X125002599Y-94079247D01*
X125210060Y-94159618D01*
X125428757Y-94200500D01*
X125428759Y-94200500D01*
X125651241Y-94200500D01*
X125651243Y-94200500D01*
X125869940Y-94159618D01*
X126077401Y-94079247D01*
X126266562Y-93962124D01*
X126430981Y-93812236D01*
X126565058Y-93634689D01*
X126632126Y-93499999D01*
X141714357Y-93499999D01*
X141714357Y-93500000D01*
X141734884Y-93721535D01*
X141734885Y-93721537D01*
X141795769Y-93935523D01*
X141795775Y-93935538D01*
X141894938Y-94134683D01*
X141894943Y-94134691D01*
X142029020Y-94312238D01*
X142193437Y-94462123D01*
X142193439Y-94462125D01*
X142382595Y-94579245D01*
X142382596Y-94579245D01*
X142382599Y-94579247D01*
X142590060Y-94659618D01*
X142808757Y-94700500D01*
X142808759Y-94700500D01*
X143031241Y-94700500D01*
X143031243Y-94700500D01*
X143249940Y-94659618D01*
X143457401Y-94579247D01*
X143646562Y-94462124D01*
X143810981Y-94312236D01*
X143945058Y-94134689D01*
X144044229Y-93935528D01*
X144105115Y-93721536D01*
X144125643Y-93500000D01*
X144125643Y-93499999D01*
X146794357Y-93499999D01*
X146794357Y-93500000D01*
X146814884Y-93721535D01*
X146814885Y-93721537D01*
X146875769Y-93935523D01*
X146875775Y-93935538D01*
X146974938Y-94134683D01*
X146974943Y-94134691D01*
X147109020Y-94312238D01*
X147273437Y-94462123D01*
X147273439Y-94462125D01*
X147462595Y-94579245D01*
X147462596Y-94579245D01*
X147462599Y-94579247D01*
X147670060Y-94659618D01*
X147888757Y-94700500D01*
X147888759Y-94700500D01*
X148111241Y-94700500D01*
X148111243Y-94700500D01*
X148329940Y-94659618D01*
X148537401Y-94579247D01*
X148726562Y-94462124D01*
X148890981Y-94312236D01*
X149025058Y-94134689D01*
X149124229Y-93935528D01*
X149185115Y-93721536D01*
X149205643Y-93500000D01*
X149205642Y-93499994D01*
X149185115Y-93278464D01*
X149185114Y-93278462D01*
X149169531Y-93223694D01*
X149124229Y-93064472D01*
X149117023Y-93050000D01*
X149025061Y-92865316D01*
X149025056Y-92865308D01*
X148890979Y-92687761D01*
X148726562Y-92537876D01*
X148726560Y-92537874D01*
X148537404Y-92420754D01*
X148537398Y-92420751D01*
X148415102Y-92373374D01*
X148359700Y-92330801D01*
X148336110Y-92265034D01*
X148351821Y-92196954D01*
X148401845Y-92148175D01*
X148415078Y-92142131D01*
X148577401Y-92079247D01*
X148766562Y-91962124D01*
X148900510Y-91840014D01*
X152922500Y-91840014D01*
X152922500Y-92440000D01*
X154568379Y-92440000D01*
X154549401Y-92485818D01*
X154522500Y-92621056D01*
X154522500Y-92758944D01*
X154549401Y-92894182D01*
X154568379Y-92940000D01*
X152922500Y-92940000D01*
X152922500Y-93539985D01*
X152932993Y-93642689D01*
X152932994Y-93642696D01*
X152988141Y-93809118D01*
X152988143Y-93809123D01*
X153080184Y-93958344D01*
X153204155Y-94082315D01*
X153353376Y-94174356D01*
X153353381Y-94174358D01*
X153519803Y-94229505D01*
X153519810Y-94229506D01*
X153622514Y-94239999D01*
X153622527Y-94240000D01*
X154972500Y-94240000D01*
X154972500Y-93344120D01*
X155018318Y-93363099D01*
X155153556Y-93390000D01*
X155291444Y-93390000D01*
X155426682Y-93363099D01*
X155472500Y-93344120D01*
X155472500Y-94240000D01*
X156822473Y-94240000D01*
X156822485Y-94239999D01*
X156925189Y-94229506D01*
X156925196Y-94229505D01*
X157091618Y-94174358D01*
X157091623Y-94174356D01*
X157240844Y-94082315D01*
X157364815Y-93958344D01*
X157456856Y-93809123D01*
X157456858Y-93809118D01*
X157512005Y-93642696D01*
X157512006Y-93642689D01*
X157522499Y-93539985D01*
X157522500Y-93539972D01*
X157522500Y-92940000D01*
X155876621Y-92940000D01*
X155895599Y-92894182D01*
X155922500Y-92758944D01*
X155922500Y-92621056D01*
X155908791Y-92552135D01*
X172324500Y-92552135D01*
X172324500Y-94447870D01*
X172324501Y-94447876D01*
X172330908Y-94507483D01*
X172381202Y-94642328D01*
X172381206Y-94642335D01*
X172467452Y-94757544D01*
X172467455Y-94757547D01*
X172582664Y-94843793D01*
X172582671Y-94843797D01*
X172717517Y-94894091D01*
X172717516Y-94894091D01*
X172724444Y-94894835D01*
X172777127Y-94900500D01*
X174672872Y-94900499D01*
X174732483Y-94894091D01*
X174867331Y-94843796D01*
X174982546Y-94757546D01*
X175068796Y-94642331D01*
X175119091Y-94507483D01*
X175125500Y-94447873D01*
X175125499Y-94337304D01*
X175145183Y-94270268D01*
X175161818Y-94249626D01*
X175822861Y-93588584D01*
X175845667Y-93673694D01*
X175904910Y-93776306D01*
X175988694Y-93860090D01*
X176091306Y-93919333D01*
X176176414Y-93942138D01*
X175466201Y-94652351D01*
X175496649Y-94676050D01*
X175700697Y-94786476D01*
X175700706Y-94786479D01*
X175920139Y-94861811D01*
X176148993Y-94900000D01*
X176381007Y-94900000D01*
X176609860Y-94861811D01*
X176829293Y-94786479D01*
X176829301Y-94786476D01*
X177033355Y-94676047D01*
X177063797Y-94652351D01*
X177063798Y-94652350D01*
X176353585Y-93942137D01*
X176438694Y-93919333D01*
X176541306Y-93860090D01*
X176625090Y-93776306D01*
X176684333Y-93673694D01*
X176707138Y-93588585D01*
X177416186Y-94297633D01*
X177500482Y-94168611D01*
X177593682Y-93956135D01*
X177650638Y-93731218D01*
X177669798Y-93500005D01*
X177669798Y-93499994D01*
X177650638Y-93268781D01*
X177593682Y-93043864D01*
X177500484Y-92831393D01*
X177416186Y-92702365D01*
X176707137Y-93411414D01*
X176684333Y-93326306D01*
X176625090Y-93223694D01*
X176541306Y-93139910D01*
X176438694Y-93080667D01*
X176353584Y-93057861D01*
X177063797Y-92347647D01*
X177063797Y-92347645D01*
X177033360Y-92323955D01*
X177033354Y-92323951D01*
X176829302Y-92213523D01*
X176829293Y-92213520D01*
X176609860Y-92138188D01*
X176381007Y-92100000D01*
X176148993Y-92100000D01*
X175920139Y-92138188D01*
X175700706Y-92213520D01*
X175700697Y-92213523D01*
X175496650Y-92323949D01*
X175466200Y-92347647D01*
X176176415Y-93057861D01*
X176091306Y-93080667D01*
X175988694Y-93139910D01*
X175904910Y-93223694D01*
X175845667Y-93326306D01*
X175822861Y-93411415D01*
X175161818Y-92750372D01*
X175128333Y-92689049D01*
X175125499Y-92662691D01*
X175125499Y-92552129D01*
X175125498Y-92552123D01*
X175125497Y-92552116D01*
X175119091Y-92492517D01*
X175116592Y-92485818D01*
X175068797Y-92357671D01*
X175068793Y-92357664D01*
X174982547Y-92242455D01*
X174982544Y-92242452D01*
X174867335Y-92156206D01*
X174867328Y-92156202D01*
X174732482Y-92105908D01*
X174732483Y-92105908D01*
X174672883Y-92099501D01*
X174672881Y-92099500D01*
X174672873Y-92099500D01*
X174672864Y-92099500D01*
X172777129Y-92099500D01*
X172777123Y-92099501D01*
X172717516Y-92105908D01*
X172582671Y-92156202D01*
X172582664Y-92156206D01*
X172467455Y-92242452D01*
X172467452Y-92242455D01*
X172381206Y-92357664D01*
X172381202Y-92357671D01*
X172330908Y-92492517D01*
X172326032Y-92537874D01*
X172324501Y-92552123D01*
X172324500Y-92552135D01*
X155908791Y-92552135D01*
X155895599Y-92485818D01*
X155876621Y-92440000D01*
X157522500Y-92440000D01*
X157522500Y-91840027D01*
X157522499Y-91840014D01*
X157512006Y-91737310D01*
X157512005Y-91737303D01*
X157456858Y-91570881D01*
X157456856Y-91570876D01*
X157364815Y-91421655D01*
X157240844Y-91297684D01*
X157091623Y-91205643D01*
X157091618Y-91205641D01*
X156925196Y-91150494D01*
X156925189Y-91150493D01*
X156822485Y-91140000D01*
X155472500Y-91140000D01*
X155472500Y-92035879D01*
X155426682Y-92016901D01*
X155291444Y-91990000D01*
X155153556Y-91990000D01*
X155018318Y-92016901D01*
X154972500Y-92035879D01*
X154972500Y-91140000D01*
X153622514Y-91140000D01*
X153519810Y-91150493D01*
X153519803Y-91150494D01*
X153353381Y-91205641D01*
X153353376Y-91205643D01*
X153204155Y-91297684D01*
X153080184Y-91421655D01*
X152988143Y-91570876D01*
X152988141Y-91570881D01*
X152932994Y-91737303D01*
X152932993Y-91737310D01*
X152922500Y-91840014D01*
X148900510Y-91840014D01*
X148930981Y-91812236D01*
X149065058Y-91634689D01*
X149164229Y-91435528D01*
X149225115Y-91221536D01*
X149245643Y-91000000D01*
X149225115Y-90778464D01*
X149164229Y-90564472D01*
X149119940Y-90475528D01*
X149065061Y-90365316D01*
X149065056Y-90365308D01*
X148930979Y-90187761D01*
X148768891Y-90039999D01*
X149794357Y-90039999D01*
X149794357Y-90040000D01*
X149814884Y-90261535D01*
X149814885Y-90261537D01*
X149875769Y-90475523D01*
X149875775Y-90475538D01*
X149974938Y-90674683D01*
X149974943Y-90674691D01*
X150109020Y-90852238D01*
X150273437Y-91002123D01*
X150273439Y-91002125D01*
X150462595Y-91119245D01*
X150462596Y-91119245D01*
X150462599Y-91119247D01*
X150670060Y-91199618D01*
X150888757Y-91240500D01*
X150888759Y-91240500D01*
X151111241Y-91240500D01*
X151111243Y-91240500D01*
X151329940Y-91199618D01*
X151537401Y-91119247D01*
X151726562Y-91002124D01*
X151890981Y-90852236D01*
X152025058Y-90674689D01*
X152124229Y-90475528D01*
X152185115Y-90261536D01*
X152205643Y-90040000D01*
X152201936Y-89999999D01*
X165254357Y-89999999D01*
X165254357Y-90000000D01*
X165274884Y-90221535D01*
X165274885Y-90221537D01*
X165335769Y-90435523D01*
X165335775Y-90435538D01*
X165434938Y-90634683D01*
X165434943Y-90634691D01*
X165569020Y-90812238D01*
X165733437Y-90962123D01*
X165733439Y-90962125D01*
X165922595Y-91079245D01*
X165922596Y-91079245D01*
X165922599Y-91079247D01*
X166130060Y-91159618D01*
X166348757Y-91200500D01*
X166348759Y-91200500D01*
X166571241Y-91200500D01*
X166571243Y-91200500D01*
X166789940Y-91159618D01*
X166997401Y-91079247D01*
X167186562Y-90962124D01*
X167350981Y-90812236D01*
X167485058Y-90634689D01*
X167584229Y-90435528D01*
X167645115Y-90221536D01*
X167665643Y-90000000D01*
X167665643Y-89999999D01*
X170334357Y-89999999D01*
X170334357Y-90000000D01*
X170354884Y-90221535D01*
X170354885Y-90221537D01*
X170415769Y-90435523D01*
X170415775Y-90435538D01*
X170514938Y-90634683D01*
X170514943Y-90634691D01*
X170649020Y-90812238D01*
X170813437Y-90962123D01*
X170813439Y-90962125D01*
X171002595Y-91079245D01*
X171002596Y-91079245D01*
X171002599Y-91079247D01*
X171210060Y-91159618D01*
X171428757Y-91200500D01*
X171428759Y-91200500D01*
X171651241Y-91200500D01*
X171651243Y-91200500D01*
X171869940Y-91159618D01*
X172077401Y-91079247D01*
X172266562Y-90962124D01*
X172430981Y-90812236D01*
X172565058Y-90634689D01*
X172664229Y-90435528D01*
X172725115Y-90221536D01*
X172745643Y-90000000D01*
X172728821Y-89818464D01*
X172725115Y-89778464D01*
X172725114Y-89778462D01*
X172664230Y-89564476D01*
X172664229Y-89564472D01*
X172664224Y-89564461D01*
X172565061Y-89365316D01*
X172565056Y-89365308D01*
X172430979Y-89187761D01*
X172266562Y-89037876D01*
X172266560Y-89037874D01*
X172077404Y-88920754D01*
X172077398Y-88920752D01*
X171869940Y-88840382D01*
X171651243Y-88799500D01*
X171428757Y-88799500D01*
X171210060Y-88840382D01*
X171078864Y-88891207D01*
X171002601Y-88920752D01*
X171002595Y-88920754D01*
X170813439Y-89037874D01*
X170813437Y-89037876D01*
X170649020Y-89187761D01*
X170514943Y-89365308D01*
X170514938Y-89365316D01*
X170415775Y-89564461D01*
X170415769Y-89564476D01*
X170354885Y-89778462D01*
X170354884Y-89778464D01*
X170334357Y-89999999D01*
X167665643Y-89999999D01*
X167648821Y-89818464D01*
X167645115Y-89778464D01*
X167645114Y-89778462D01*
X167584230Y-89564476D01*
X167584229Y-89564472D01*
X167584224Y-89564461D01*
X167485061Y-89365316D01*
X167485056Y-89365308D01*
X167350979Y-89187761D01*
X167186562Y-89037876D01*
X167186560Y-89037874D01*
X166997404Y-88920754D01*
X166997398Y-88920752D01*
X166789940Y-88840382D01*
X166571243Y-88799500D01*
X166348757Y-88799500D01*
X166130060Y-88840382D01*
X165998864Y-88891207D01*
X165922601Y-88920752D01*
X165922595Y-88920754D01*
X165733439Y-89037874D01*
X165733437Y-89037876D01*
X165569020Y-89187761D01*
X165434943Y-89365308D01*
X165434938Y-89365316D01*
X165335775Y-89564461D01*
X165335769Y-89564476D01*
X165274885Y-89778462D01*
X165274884Y-89778464D01*
X165254357Y-89999999D01*
X152201936Y-89999999D01*
X152185115Y-89818464D01*
X152124229Y-89604472D01*
X152124224Y-89604461D01*
X152025061Y-89405316D01*
X152025056Y-89405308D01*
X151890979Y-89227761D01*
X151726562Y-89077876D01*
X151726560Y-89077874D01*
X151537404Y-88960754D01*
X151537398Y-88960752D01*
X151329940Y-88880382D01*
X151111243Y-88839500D01*
X150888757Y-88839500D01*
X150670060Y-88880382D01*
X150565853Y-88920752D01*
X150462601Y-88960752D01*
X150462595Y-88960754D01*
X150273439Y-89077874D01*
X150273437Y-89077876D01*
X150109020Y-89227761D01*
X149974943Y-89405308D01*
X149974938Y-89405316D01*
X149875775Y-89604461D01*
X149875769Y-89604476D01*
X149814885Y-89818462D01*
X149814884Y-89818464D01*
X149794357Y-90039999D01*
X148768891Y-90039999D01*
X148766562Y-90037876D01*
X148766560Y-90037874D01*
X148577404Y-89920754D01*
X148577398Y-89920752D01*
X148563015Y-89915180D01*
X148369940Y-89840382D01*
X148151243Y-89799500D01*
X147928757Y-89799500D01*
X147710060Y-89840382D01*
X147581860Y-89890047D01*
X147502601Y-89920752D01*
X147502595Y-89920754D01*
X147313439Y-90037874D01*
X147313437Y-90037876D01*
X147149020Y-90187761D01*
X147014943Y-90365308D01*
X147014938Y-90365316D01*
X146915775Y-90564461D01*
X146915769Y-90564476D01*
X146854885Y-90778462D01*
X146854884Y-90778464D01*
X146834357Y-90999999D01*
X146834357Y-91000000D01*
X146854884Y-91221535D01*
X146854885Y-91221537D01*
X146915769Y-91435523D01*
X146915775Y-91435538D01*
X147014938Y-91634683D01*
X147014943Y-91634691D01*
X147149020Y-91812238D01*
X147313437Y-91962123D01*
X147313439Y-91962125D01*
X147502595Y-92079245D01*
X147502596Y-92079245D01*
X147502599Y-92079247D01*
X147624898Y-92126626D01*
X147680298Y-92169198D01*
X147703889Y-92234965D01*
X147688178Y-92303045D01*
X147638154Y-92351824D01*
X147624907Y-92357874D01*
X147501214Y-92405793D01*
X147462601Y-92420752D01*
X147462595Y-92420754D01*
X147273439Y-92537874D01*
X147273437Y-92537876D01*
X147109020Y-92687761D01*
X146974943Y-92865308D01*
X146974938Y-92865316D01*
X146875775Y-93064461D01*
X146875769Y-93064476D01*
X146814885Y-93278462D01*
X146814884Y-93278464D01*
X146794357Y-93499999D01*
X144125643Y-93499999D01*
X144125642Y-93499994D01*
X144105115Y-93278464D01*
X144105114Y-93278462D01*
X144089531Y-93223694D01*
X144044229Y-93064472D01*
X144037023Y-93050000D01*
X143945061Y-92865316D01*
X143945056Y-92865308D01*
X143810979Y-92687761D01*
X143646562Y-92537876D01*
X143646560Y-92537874D01*
X143457404Y-92420754D01*
X143457398Y-92420751D01*
X143335102Y-92373374D01*
X143279700Y-92330801D01*
X143256110Y-92265034D01*
X143271821Y-92196954D01*
X143321845Y-92148175D01*
X143335078Y-92142131D01*
X143497401Y-92079247D01*
X143686562Y-91962124D01*
X143850981Y-91812236D01*
X143985058Y-91634689D01*
X144084229Y-91435528D01*
X144145115Y-91221536D01*
X144165643Y-91000000D01*
X144145115Y-90778464D01*
X144084229Y-90564472D01*
X144039940Y-90475528D01*
X143985061Y-90365316D01*
X143985056Y-90365308D01*
X143850979Y-90187761D01*
X143686562Y-90037876D01*
X143686560Y-90037874D01*
X143497404Y-89920754D01*
X143497398Y-89920752D01*
X143483015Y-89915180D01*
X143289940Y-89840382D01*
X143071243Y-89799500D01*
X142848757Y-89799500D01*
X142630060Y-89840382D01*
X142501860Y-89890047D01*
X142422601Y-89920752D01*
X142422595Y-89920754D01*
X142233439Y-90037874D01*
X142233437Y-90037876D01*
X142069020Y-90187761D01*
X141934943Y-90365308D01*
X141934938Y-90365316D01*
X141835775Y-90564461D01*
X141835769Y-90564476D01*
X141774885Y-90778462D01*
X141774884Y-90778464D01*
X141754357Y-90999999D01*
X141754357Y-91000000D01*
X141774884Y-91221535D01*
X141774885Y-91221537D01*
X141835769Y-91435523D01*
X141835775Y-91435538D01*
X141934938Y-91634683D01*
X141934943Y-91634691D01*
X142069020Y-91812238D01*
X142233437Y-91962123D01*
X142233439Y-91962125D01*
X142422595Y-92079245D01*
X142422596Y-92079245D01*
X142422599Y-92079247D01*
X142544898Y-92126626D01*
X142600298Y-92169198D01*
X142623889Y-92234965D01*
X142608178Y-92303045D01*
X142558154Y-92351824D01*
X142544907Y-92357874D01*
X142421214Y-92405793D01*
X142382601Y-92420752D01*
X142382595Y-92420754D01*
X142193439Y-92537874D01*
X142193437Y-92537876D01*
X142029020Y-92687761D01*
X141894943Y-92865308D01*
X141894938Y-92865316D01*
X141795775Y-93064461D01*
X141795769Y-93064476D01*
X141734885Y-93278462D01*
X141734884Y-93278464D01*
X141714357Y-93499999D01*
X126632126Y-93499999D01*
X126664229Y-93435528D01*
X126725115Y-93221536D01*
X126745643Y-93000000D01*
X126725115Y-92778464D01*
X126664229Y-92564472D01*
X126658083Y-92552129D01*
X126565061Y-92365316D01*
X126565056Y-92365308D01*
X126430979Y-92187761D01*
X126266562Y-92037876D01*
X126266560Y-92037874D01*
X126077404Y-91920754D01*
X126077398Y-91920752D01*
X125869940Y-91840382D01*
X125651243Y-91799500D01*
X125428757Y-91799500D01*
X125210060Y-91840382D01*
X125078864Y-91891207D01*
X125002601Y-91920752D01*
X125002595Y-91920754D01*
X124813439Y-92037874D01*
X124813437Y-92037876D01*
X124649020Y-92187761D01*
X124514943Y-92365308D01*
X124514938Y-92365316D01*
X124415775Y-92564461D01*
X124415769Y-92564476D01*
X124354885Y-92778462D01*
X124354884Y-92778464D01*
X124334357Y-92999999D01*
X121665643Y-92999999D01*
X121645115Y-92778464D01*
X121584229Y-92564472D01*
X121578083Y-92552129D01*
X121485061Y-92365316D01*
X121485056Y-92365308D01*
X121350979Y-92187761D01*
X121186562Y-92037876D01*
X121186560Y-92037874D01*
X120997404Y-91920754D01*
X120997398Y-91920752D01*
X120789940Y-91840382D01*
X120571243Y-91799500D01*
X120348757Y-91799500D01*
X120130060Y-91840382D01*
X119998864Y-91891207D01*
X119922601Y-91920752D01*
X119922595Y-91920754D01*
X119733439Y-92037874D01*
X119733437Y-92037876D01*
X119569020Y-92187761D01*
X119434943Y-92365308D01*
X119434938Y-92365316D01*
X119335775Y-92564461D01*
X119335769Y-92564476D01*
X119274885Y-92778462D01*
X119274884Y-92778464D01*
X119254357Y-92999999D01*
X118675500Y-92999999D01*
X118675499Y-91552128D01*
X118669091Y-91492517D01*
X118647839Y-91435538D01*
X118618797Y-91357671D01*
X118618793Y-91357664D01*
X118532547Y-91242455D01*
X118532544Y-91242452D01*
X118417335Y-91156206D01*
X118417328Y-91156202D01*
X118282482Y-91105908D01*
X118282483Y-91105908D01*
X118222883Y-91099501D01*
X118222881Y-91099500D01*
X118222873Y-91099500D01*
X118222864Y-91099500D01*
X116327129Y-91099500D01*
X116327123Y-91099501D01*
X116267516Y-91105908D01*
X116132671Y-91156202D01*
X116132664Y-91156206D01*
X116017455Y-91242452D01*
X116017452Y-91242455D01*
X115931206Y-91357664D01*
X115931202Y-91357671D01*
X115880908Y-91492517D01*
X115874501Y-91552116D01*
X115874501Y-91552123D01*
X115874500Y-91552135D01*
X115874500Y-91662691D01*
X115854815Y-91729730D01*
X115838181Y-91750372D01*
X115177138Y-92411414D01*
X115154333Y-92326306D01*
X115095090Y-92223694D01*
X115011306Y-92139910D01*
X114908694Y-92080667D01*
X114823584Y-92057861D01*
X115533797Y-91347647D01*
X115533797Y-91347645D01*
X115503360Y-91323955D01*
X115503354Y-91323951D01*
X115299302Y-91213523D01*
X115299293Y-91213520D01*
X115079860Y-91138188D01*
X114851007Y-91100000D01*
X114618993Y-91100000D01*
X114390139Y-91138188D01*
X114170706Y-91213520D01*
X114170697Y-91213523D01*
X113966650Y-91323949D01*
X113936200Y-91347647D01*
X114646415Y-92057861D01*
X114561306Y-92080667D01*
X114458694Y-92139910D01*
X114374910Y-92223694D01*
X114315667Y-92326306D01*
X114292861Y-92411415D01*
X113583811Y-91702365D01*
X113499516Y-91831390D01*
X113406317Y-92043864D01*
X113349361Y-92268781D01*
X113330202Y-92499994D01*
X112297244Y-92499994D01*
X112236029Y-92323949D01*
X111528163Y-90288235D01*
X111522908Y-90267506D01*
X111036455Y-87288113D01*
X111034876Y-87264997D01*
X111066996Y-85999994D01*
X111330202Y-85999994D01*
X111330202Y-86000005D01*
X111349361Y-86231218D01*
X111406317Y-86456135D01*
X111499515Y-86668606D01*
X111583812Y-86797633D01*
X112292861Y-86088584D01*
X112315667Y-86173694D01*
X112374910Y-86276306D01*
X112458694Y-86360090D01*
X112561306Y-86419333D01*
X112646414Y-86442138D01*
X111936201Y-87152351D01*
X111966649Y-87176050D01*
X112170697Y-87286476D01*
X112170706Y-87286479D01*
X112390139Y-87361811D01*
X112618993Y-87400000D01*
X112851007Y-87400000D01*
X113079860Y-87361811D01*
X113299293Y-87286479D01*
X113299301Y-87286476D01*
X113503355Y-87176047D01*
X113533797Y-87152351D01*
X113533798Y-87152350D01*
X112823585Y-86442137D01*
X112908694Y-86419333D01*
X113011306Y-86360090D01*
X113095090Y-86276306D01*
X113154333Y-86173694D01*
X113177138Y-86088584D01*
X113838181Y-86749627D01*
X113871666Y-86810950D01*
X113874500Y-86837307D01*
X113874500Y-86947869D01*
X113874501Y-86947876D01*
X113880908Y-87007483D01*
X113931202Y-87142328D01*
X113931206Y-87142335D01*
X114017452Y-87257544D01*
X114017455Y-87257547D01*
X114132664Y-87343793D01*
X114132671Y-87343797D01*
X114267517Y-87394091D01*
X114267516Y-87394091D01*
X114274444Y-87394835D01*
X114327127Y-87400500D01*
X116222872Y-87400499D01*
X116282483Y-87394091D01*
X116417331Y-87343796D01*
X116532546Y-87257546D01*
X116618796Y-87142331D01*
X116669091Y-87007483D01*
X116669896Y-86999999D01*
X117714357Y-86999999D01*
X117714357Y-87000000D01*
X117734884Y-87221535D01*
X117734885Y-87221537D01*
X117795769Y-87435523D01*
X117795775Y-87435538D01*
X117894938Y-87634683D01*
X117894943Y-87634691D01*
X118029020Y-87812238D01*
X118193437Y-87962123D01*
X118193439Y-87962125D01*
X118382595Y-88079245D01*
X118382596Y-88079245D01*
X118382599Y-88079247D01*
X118590060Y-88159618D01*
X118808757Y-88200500D01*
X118808759Y-88200500D01*
X119031241Y-88200500D01*
X119031243Y-88200500D01*
X119249940Y-88159618D01*
X119457401Y-88079247D01*
X119646562Y-87962124D01*
X119810981Y-87812236D01*
X119945058Y-87634689D01*
X120044229Y-87435528D01*
X120105115Y-87221536D01*
X120125643Y-87000000D01*
X120125643Y-86999999D01*
X122794357Y-86999999D01*
X122794357Y-87000000D01*
X122814884Y-87221535D01*
X122814885Y-87221537D01*
X122875769Y-87435523D01*
X122875775Y-87435538D01*
X122974938Y-87634683D01*
X122974943Y-87634691D01*
X123109020Y-87812238D01*
X123273437Y-87962123D01*
X123273439Y-87962125D01*
X123462595Y-88079245D01*
X123462596Y-88079245D01*
X123462599Y-88079247D01*
X123670060Y-88159618D01*
X123888757Y-88200500D01*
X123888759Y-88200500D01*
X124111241Y-88200500D01*
X124111243Y-88200500D01*
X124329940Y-88159618D01*
X124537401Y-88079247D01*
X124726562Y-87962124D01*
X124890981Y-87812236D01*
X125025058Y-87634689D01*
X125072208Y-87539999D01*
X136794357Y-87539999D01*
X136794357Y-87540000D01*
X136814884Y-87761535D01*
X136814885Y-87761537D01*
X136875769Y-87975523D01*
X136875775Y-87975538D01*
X136974938Y-88174683D01*
X136974943Y-88174691D01*
X137109020Y-88352238D01*
X137273437Y-88502123D01*
X137273439Y-88502125D01*
X137462595Y-88619245D01*
X137462596Y-88619245D01*
X137462599Y-88619247D01*
X137670060Y-88699618D01*
X137888757Y-88740500D01*
X137888759Y-88740500D01*
X138111241Y-88740500D01*
X138111243Y-88740500D01*
X138329940Y-88699618D01*
X138537401Y-88619247D01*
X138726562Y-88502124D01*
X138890981Y-88352236D01*
X139025058Y-88174689D01*
X139124229Y-87975528D01*
X139185115Y-87761536D01*
X139205643Y-87540000D01*
X139185115Y-87318464D01*
X139124229Y-87104472D01*
X139095401Y-87046577D01*
X139025061Y-86905316D01*
X139025056Y-86905308D01*
X138890979Y-86727761D01*
X138726562Y-86577876D01*
X138726560Y-86577874D01*
X138537404Y-86460754D01*
X138537398Y-86460752D01*
X138329940Y-86380382D01*
X138111243Y-86339500D01*
X137888757Y-86339500D01*
X137670060Y-86380382D01*
X137569516Y-86419333D01*
X137462601Y-86460752D01*
X137462595Y-86460754D01*
X137273439Y-86577874D01*
X137273437Y-86577876D01*
X137109020Y-86727761D01*
X136974943Y-86905308D01*
X136974938Y-86905316D01*
X136875775Y-87104461D01*
X136875769Y-87104476D01*
X136814885Y-87318462D01*
X136814884Y-87318464D01*
X136794357Y-87539999D01*
X125072208Y-87539999D01*
X125124229Y-87435528D01*
X125185115Y-87221536D01*
X125205643Y-87000000D01*
X125200812Y-86947869D01*
X125185115Y-86778464D01*
X125185114Y-86778462D01*
X125180298Y-86761537D01*
X125124229Y-86564472D01*
X125121626Y-86559244D01*
X125025061Y-86365316D01*
X125025056Y-86365308D01*
X124890979Y-86187761D01*
X124726562Y-86037876D01*
X124726560Y-86037874D01*
X124537404Y-85920754D01*
X124537398Y-85920752D01*
X124329940Y-85840382D01*
X124111243Y-85799500D01*
X123888757Y-85799500D01*
X123670060Y-85840382D01*
X123538864Y-85891207D01*
X123462601Y-85920752D01*
X123462595Y-85920754D01*
X123273439Y-86037874D01*
X123273437Y-86037876D01*
X123109020Y-86187761D01*
X122974943Y-86365308D01*
X122974938Y-86365316D01*
X122875775Y-86564461D01*
X122875769Y-86564476D01*
X122814885Y-86778462D01*
X122814884Y-86778464D01*
X122794357Y-86999999D01*
X120125643Y-86999999D01*
X120120812Y-86947869D01*
X120105115Y-86778464D01*
X120105114Y-86778462D01*
X120100298Y-86761537D01*
X120044229Y-86564472D01*
X120041626Y-86559244D01*
X119945061Y-86365316D01*
X119945056Y-86365308D01*
X119810979Y-86187761D01*
X119646562Y-86037876D01*
X119646560Y-86037874D01*
X119457404Y-85920754D01*
X119457398Y-85920752D01*
X119249940Y-85840382D01*
X119031243Y-85799500D01*
X118808757Y-85799500D01*
X118590060Y-85840382D01*
X118458864Y-85891207D01*
X118382601Y-85920752D01*
X118382595Y-85920754D01*
X118193439Y-86037874D01*
X118193437Y-86037876D01*
X118029020Y-86187761D01*
X117894943Y-86365308D01*
X117894938Y-86365316D01*
X117795775Y-86564461D01*
X117795769Y-86564476D01*
X117734885Y-86778462D01*
X117734884Y-86778464D01*
X117714357Y-86999999D01*
X116669896Y-86999999D01*
X116675500Y-86947873D01*
X116675499Y-85052128D01*
X116669091Y-84992517D01*
X116662758Y-84975538D01*
X116618797Y-84857671D01*
X116618793Y-84857664D01*
X116532547Y-84742455D01*
X116532544Y-84742452D01*
X116417335Y-84656206D01*
X116417328Y-84656202D01*
X116282482Y-84605908D01*
X116282483Y-84605908D01*
X116222883Y-84599501D01*
X116222881Y-84599500D01*
X116222873Y-84599500D01*
X116222864Y-84599500D01*
X114327129Y-84599500D01*
X114327123Y-84599501D01*
X114267516Y-84605908D01*
X114132671Y-84656202D01*
X114132664Y-84656206D01*
X114017455Y-84742452D01*
X114017452Y-84742455D01*
X113931206Y-84857664D01*
X113931202Y-84857671D01*
X113880908Y-84992517D01*
X113874501Y-85052116D01*
X113874501Y-85052123D01*
X113874500Y-85052135D01*
X113874500Y-85162691D01*
X113854815Y-85229730D01*
X113838181Y-85250372D01*
X113177138Y-85911414D01*
X113154333Y-85826306D01*
X113095090Y-85723694D01*
X113011306Y-85639910D01*
X112908694Y-85580667D01*
X112823584Y-85557861D01*
X113533797Y-84847647D01*
X113533797Y-84847645D01*
X113503360Y-84823955D01*
X113503354Y-84823951D01*
X113299302Y-84713523D01*
X113299293Y-84713520D01*
X113079860Y-84638188D01*
X112851007Y-84600000D01*
X112618993Y-84600000D01*
X112390139Y-84638188D01*
X112170706Y-84713520D01*
X112170697Y-84713523D01*
X111966650Y-84823949D01*
X111936200Y-84847647D01*
X112646415Y-85557861D01*
X112561306Y-85580667D01*
X112458694Y-85639910D01*
X112374910Y-85723694D01*
X112315667Y-85826306D01*
X112292861Y-85911415D01*
X111583811Y-85202365D01*
X111499516Y-85331390D01*
X111406317Y-85543864D01*
X111349361Y-85768781D01*
X111330202Y-85999994D01*
X111066996Y-85999994D01*
X111109542Y-84324344D01*
X111112312Y-84301251D01*
X111277209Y-83539999D01*
X121794357Y-83539999D01*
X121794357Y-83540000D01*
X121814884Y-83761535D01*
X121814885Y-83761537D01*
X121875769Y-83975523D01*
X121875775Y-83975538D01*
X121974938Y-84174683D01*
X121974943Y-84174691D01*
X122109020Y-84352238D01*
X122273437Y-84502123D01*
X122273439Y-84502125D01*
X122462595Y-84619245D01*
X122462596Y-84619245D01*
X122462599Y-84619247D01*
X122670060Y-84699618D01*
X122888757Y-84740500D01*
X122888759Y-84740500D01*
X123111241Y-84740500D01*
X123111243Y-84740500D01*
X123329940Y-84699618D01*
X123537401Y-84619247D01*
X123726562Y-84502124D01*
X123890981Y-84352236D01*
X124025058Y-84174689D01*
X124092126Y-84039999D01*
X131794357Y-84039999D01*
X131794357Y-84040000D01*
X131814884Y-84261535D01*
X131814885Y-84261537D01*
X131875769Y-84475523D01*
X131875775Y-84475538D01*
X131974938Y-84674683D01*
X131974943Y-84674691D01*
X132109020Y-84852238D01*
X132273437Y-85002123D01*
X132273439Y-85002125D01*
X132462595Y-85119245D01*
X132462596Y-85119245D01*
X132462599Y-85119247D01*
X132670060Y-85199618D01*
X132888757Y-85240500D01*
X132888759Y-85240500D01*
X133111241Y-85240500D01*
X133111243Y-85240500D01*
X133329940Y-85199618D01*
X133537401Y-85119247D01*
X133645791Y-85052135D01*
X142559500Y-85052135D01*
X142559500Y-86947870D01*
X142559501Y-86947876D01*
X142565908Y-87007483D01*
X142616202Y-87142328D01*
X142616206Y-87142335D01*
X142702452Y-87257544D01*
X142702455Y-87257547D01*
X142817664Y-87343793D01*
X142817671Y-87343797D01*
X142952517Y-87394091D01*
X142952516Y-87394091D01*
X142959444Y-87394835D01*
X143012127Y-87400500D01*
X144907872Y-87400499D01*
X144967483Y-87394091D01*
X145102331Y-87343796D01*
X145217546Y-87257546D01*
X145303796Y-87142331D01*
X145354091Y-87007483D01*
X145360500Y-86947873D01*
X145360499Y-86837304D01*
X145380183Y-86770268D01*
X145396818Y-86749626D01*
X146057861Y-86088584D01*
X146080667Y-86173694D01*
X146139910Y-86276306D01*
X146223694Y-86360090D01*
X146326306Y-86419333D01*
X146411414Y-86442138D01*
X145701201Y-87152351D01*
X145731649Y-87176050D01*
X145935697Y-87286476D01*
X145935706Y-87286479D01*
X146155139Y-87361811D01*
X146383993Y-87400000D01*
X146616007Y-87400000D01*
X146844860Y-87361811D01*
X147064293Y-87286479D01*
X147064301Y-87286476D01*
X147268355Y-87176047D01*
X147298797Y-87152351D01*
X147298798Y-87152350D01*
X146588585Y-86442137D01*
X146673694Y-86419333D01*
X146776306Y-86360090D01*
X146860090Y-86276306D01*
X146919333Y-86173694D01*
X146942138Y-86088585D01*
X147651186Y-86797633D01*
X147735482Y-86668611D01*
X147791896Y-86539999D01*
X169794357Y-86539999D01*
X169794357Y-86540000D01*
X169814884Y-86761535D01*
X169814885Y-86761537D01*
X169875769Y-86975523D01*
X169875775Y-86975538D01*
X169974938Y-87174683D01*
X169974943Y-87174691D01*
X170109020Y-87352238D01*
X170273437Y-87502123D01*
X170273439Y-87502125D01*
X170462595Y-87619245D01*
X170462596Y-87619245D01*
X170462599Y-87619247D01*
X170670060Y-87699618D01*
X170888757Y-87740500D01*
X170888759Y-87740500D01*
X171111241Y-87740500D01*
X171111243Y-87740500D01*
X171329940Y-87699618D01*
X171537401Y-87619247D01*
X171726562Y-87502124D01*
X171890981Y-87352236D01*
X172025058Y-87174689D01*
X172124229Y-86975528D01*
X172185115Y-86761536D01*
X172205643Y-86540000D01*
X172185115Y-86318464D01*
X172124229Y-86104472D01*
X172124224Y-86104461D01*
X172025061Y-85905316D01*
X172025056Y-85905308D01*
X171890979Y-85727761D01*
X171726562Y-85577876D01*
X171726560Y-85577874D01*
X171684990Y-85552135D01*
X174824500Y-85552135D01*
X174824500Y-87447870D01*
X174824501Y-87447876D01*
X174830908Y-87507483D01*
X174881202Y-87642328D01*
X174881206Y-87642335D01*
X174967452Y-87757544D01*
X174967455Y-87757547D01*
X175082664Y-87843793D01*
X175082671Y-87843797D01*
X175217517Y-87894091D01*
X175217516Y-87894091D01*
X175224444Y-87894835D01*
X175277127Y-87900500D01*
X177172872Y-87900499D01*
X177232483Y-87894091D01*
X177367331Y-87843796D01*
X177482546Y-87757546D01*
X177568796Y-87642331D01*
X177619091Y-87507483D01*
X177625500Y-87447873D01*
X177625499Y-87337304D01*
X177645183Y-87270268D01*
X177661818Y-87249626D01*
X178322861Y-86588584D01*
X178345667Y-86673694D01*
X178404910Y-86776306D01*
X178488694Y-86860090D01*
X178591306Y-86919333D01*
X178676414Y-86942138D01*
X177966201Y-87652351D01*
X177996649Y-87676050D01*
X178200697Y-87786476D01*
X178200706Y-87786479D01*
X178420139Y-87861811D01*
X178648993Y-87900000D01*
X178881007Y-87900000D01*
X179109860Y-87861811D01*
X179329293Y-87786479D01*
X179329301Y-87786476D01*
X179533355Y-87676047D01*
X179563797Y-87652351D01*
X179563798Y-87652350D01*
X178853585Y-86942137D01*
X178938694Y-86919333D01*
X179041306Y-86860090D01*
X179125090Y-86776306D01*
X179184333Y-86673694D01*
X179207138Y-86588585D01*
X179916186Y-87297633D01*
X180000482Y-87168611D01*
X180093682Y-86956135D01*
X180150638Y-86731218D01*
X180169798Y-86500005D01*
X180169798Y-86499994D01*
X180150638Y-86268781D01*
X180093682Y-86043864D01*
X180000484Y-85831393D01*
X179916186Y-85702365D01*
X179207137Y-86411414D01*
X179184333Y-86326306D01*
X179125090Y-86223694D01*
X179041306Y-86139910D01*
X178938694Y-86080667D01*
X178853584Y-86057861D01*
X179563797Y-85347647D01*
X179563797Y-85347645D01*
X179533360Y-85323955D01*
X179533354Y-85323951D01*
X179329302Y-85213523D01*
X179329293Y-85213520D01*
X179109860Y-85138188D01*
X178881007Y-85100000D01*
X178648993Y-85100000D01*
X178420139Y-85138188D01*
X178200706Y-85213520D01*
X178200697Y-85213523D01*
X177996650Y-85323949D01*
X177966200Y-85347647D01*
X178676415Y-86057861D01*
X178591306Y-86080667D01*
X178488694Y-86139910D01*
X178404910Y-86223694D01*
X178345667Y-86326306D01*
X178322861Y-86411415D01*
X177661818Y-85750372D01*
X177628333Y-85689049D01*
X177625499Y-85662691D01*
X177625499Y-85552129D01*
X177625498Y-85552123D01*
X177625497Y-85552116D01*
X177619091Y-85492517D01*
X177607244Y-85460754D01*
X177568797Y-85357671D01*
X177568793Y-85357664D01*
X177482547Y-85242455D01*
X177482544Y-85242452D01*
X177367335Y-85156206D01*
X177367328Y-85156202D01*
X177232482Y-85105908D01*
X177232483Y-85105908D01*
X177172883Y-85099501D01*
X177172881Y-85099500D01*
X177172873Y-85099500D01*
X177172864Y-85099500D01*
X175277129Y-85099500D01*
X175277123Y-85099501D01*
X175217516Y-85105908D01*
X175082671Y-85156202D01*
X175082664Y-85156206D01*
X174967455Y-85242452D01*
X174967452Y-85242455D01*
X174881206Y-85357664D01*
X174881202Y-85357671D01*
X174830908Y-85492517D01*
X174824501Y-85552116D01*
X174824501Y-85552123D01*
X174824500Y-85552135D01*
X171684990Y-85552135D01*
X171537404Y-85460754D01*
X171537398Y-85460752D01*
X171329940Y-85380382D01*
X171111243Y-85339500D01*
X170888757Y-85339500D01*
X170670060Y-85380382D01*
X170538864Y-85431207D01*
X170462601Y-85460752D01*
X170462595Y-85460754D01*
X170273439Y-85577874D01*
X170273437Y-85577876D01*
X170109020Y-85727761D01*
X169974943Y-85905308D01*
X169974938Y-85905316D01*
X169875775Y-86104461D01*
X169875769Y-86104476D01*
X169814885Y-86318462D01*
X169814884Y-86318464D01*
X169794357Y-86539999D01*
X147791896Y-86539999D01*
X147828682Y-86456135D01*
X147885638Y-86231218D01*
X147904798Y-86000005D01*
X147904798Y-85999994D01*
X147885638Y-85768781D01*
X147828682Y-85543864D01*
X147735484Y-85331393D01*
X147651186Y-85202365D01*
X146942137Y-85911414D01*
X146919333Y-85826306D01*
X146860090Y-85723694D01*
X146776306Y-85639910D01*
X146673694Y-85580667D01*
X146588584Y-85557861D01*
X147186445Y-84959999D01*
X149794357Y-84959999D01*
X149794357Y-84960000D01*
X149814884Y-85181535D01*
X149814885Y-85181537D01*
X149875769Y-85395523D01*
X149875775Y-85395538D01*
X149974938Y-85594683D01*
X149974943Y-85594691D01*
X150109020Y-85772238D01*
X150273437Y-85922123D01*
X150273439Y-85922125D01*
X150462595Y-86039245D01*
X150462596Y-86039245D01*
X150462599Y-86039247D01*
X150670060Y-86119618D01*
X150888757Y-86160500D01*
X150888759Y-86160500D01*
X151111241Y-86160500D01*
X151111243Y-86160500D01*
X151329940Y-86119618D01*
X151537401Y-86039247D01*
X151726562Y-85922124D01*
X151890981Y-85772236D01*
X152025058Y-85594689D01*
X152124229Y-85395528D01*
X152185115Y-85181536D01*
X152205643Y-84960000D01*
X152185115Y-84738464D01*
X152128647Y-84539999D01*
X155294357Y-84539999D01*
X155294357Y-84540000D01*
X155314884Y-84761535D01*
X155314885Y-84761537D01*
X155375769Y-84975523D01*
X155375775Y-84975538D01*
X155474938Y-85174683D01*
X155474943Y-85174691D01*
X155609020Y-85352238D01*
X155773437Y-85502123D01*
X155773439Y-85502125D01*
X155962595Y-85619245D01*
X155962596Y-85619245D01*
X155962599Y-85619247D01*
X156170060Y-85699618D01*
X156388757Y-85740500D01*
X156388759Y-85740500D01*
X156611241Y-85740500D01*
X156611243Y-85740500D01*
X156829940Y-85699618D01*
X157037401Y-85619247D01*
X157226562Y-85502124D01*
X157390981Y-85352236D01*
X157525058Y-85174689D01*
X157534262Y-85156206D01*
X157624224Y-84975538D01*
X157624223Y-84975538D01*
X157624229Y-84975528D01*
X157685115Y-84761536D01*
X157705643Y-84540000D01*
X157685115Y-84318464D01*
X157624229Y-84104472D01*
X157592126Y-84040000D01*
X157525061Y-83905316D01*
X157525056Y-83905308D01*
X157390979Y-83727761D01*
X157226562Y-83577876D01*
X157226560Y-83577874D01*
X157165390Y-83539999D01*
X164794357Y-83539999D01*
X164794357Y-83540000D01*
X164814884Y-83761535D01*
X164814885Y-83761537D01*
X164875769Y-83975523D01*
X164875775Y-83975538D01*
X164974938Y-84174683D01*
X164974943Y-84174691D01*
X165109020Y-84352238D01*
X165273437Y-84502123D01*
X165273439Y-84502125D01*
X165462595Y-84619245D01*
X165462596Y-84619245D01*
X165462599Y-84619247D01*
X165670060Y-84699618D01*
X165888757Y-84740500D01*
X165888759Y-84740500D01*
X166111241Y-84740500D01*
X166111243Y-84740500D01*
X166329940Y-84699618D01*
X166537401Y-84619247D01*
X166726562Y-84502124D01*
X166890981Y-84352236D01*
X167025058Y-84174689D01*
X167124229Y-83975528D01*
X167185115Y-83761536D01*
X167205643Y-83540000D01*
X167185115Y-83318464D01*
X167124229Y-83104472D01*
X167079940Y-83015528D01*
X167025061Y-82905316D01*
X167025056Y-82905308D01*
X166890979Y-82727761D01*
X166726562Y-82577876D01*
X166726560Y-82577874D01*
X166537404Y-82460754D01*
X166537398Y-82460752D01*
X166535457Y-82460000D01*
X166329940Y-82380382D01*
X166111243Y-82339500D01*
X165888757Y-82339500D01*
X165670060Y-82380382D01*
X165562314Y-82422123D01*
X165462601Y-82460752D01*
X165462595Y-82460754D01*
X165273439Y-82577874D01*
X165273437Y-82577876D01*
X165109020Y-82727761D01*
X164974943Y-82905308D01*
X164974938Y-82905316D01*
X164875775Y-83104461D01*
X164875769Y-83104476D01*
X164814885Y-83318462D01*
X164814884Y-83318464D01*
X164794357Y-83539999D01*
X157165390Y-83539999D01*
X157037404Y-83460754D01*
X157037398Y-83460752D01*
X156829940Y-83380382D01*
X156611243Y-83339500D01*
X156388757Y-83339500D01*
X156170060Y-83380382D01*
X156062314Y-83422123D01*
X155962601Y-83460752D01*
X155962595Y-83460754D01*
X155773439Y-83577874D01*
X155773437Y-83577876D01*
X155609020Y-83727761D01*
X155474943Y-83905308D01*
X155474938Y-83905316D01*
X155375775Y-84104461D01*
X155375769Y-84104476D01*
X155314885Y-84318462D01*
X155314884Y-84318464D01*
X155294357Y-84539999D01*
X152128647Y-84539999D01*
X152124229Y-84524472D01*
X152124224Y-84524461D01*
X152025061Y-84325316D01*
X152025056Y-84325308D01*
X151890979Y-84147761D01*
X151726562Y-83997876D01*
X151726560Y-83997874D01*
X151537404Y-83880754D01*
X151537398Y-83880752D01*
X151329940Y-83800382D01*
X151111243Y-83759500D01*
X150888757Y-83759500D01*
X150670060Y-83800382D01*
X150538864Y-83851207D01*
X150462601Y-83880752D01*
X150462595Y-83880754D01*
X150273439Y-83997874D01*
X150273437Y-83997876D01*
X150109020Y-84147761D01*
X149974943Y-84325308D01*
X149974938Y-84325316D01*
X149875775Y-84524461D01*
X149875769Y-84524476D01*
X149814885Y-84738462D01*
X149814884Y-84738464D01*
X149794357Y-84959999D01*
X147186445Y-84959999D01*
X147298797Y-84847647D01*
X147298797Y-84847645D01*
X147268360Y-84823955D01*
X147268354Y-84823951D01*
X147064302Y-84713523D01*
X147064293Y-84713520D01*
X146844860Y-84638188D01*
X146616007Y-84600000D01*
X146383993Y-84600000D01*
X146155139Y-84638188D01*
X145935706Y-84713520D01*
X145935697Y-84713523D01*
X145731650Y-84823949D01*
X145701200Y-84847647D01*
X146411415Y-85557861D01*
X146326306Y-85580667D01*
X146223694Y-85639910D01*
X146139910Y-85723694D01*
X146080667Y-85826306D01*
X146057861Y-85911415D01*
X145396818Y-85250372D01*
X145363333Y-85189049D01*
X145360499Y-85162691D01*
X145360499Y-85052129D01*
X145360498Y-85052123D01*
X145360497Y-85052116D01*
X145354091Y-84992517D01*
X145347758Y-84975538D01*
X145303797Y-84857671D01*
X145303793Y-84857664D01*
X145217547Y-84742455D01*
X145217544Y-84742452D01*
X145102335Y-84656206D01*
X145102328Y-84656202D01*
X144967482Y-84605908D01*
X144967483Y-84605908D01*
X144907883Y-84599501D01*
X144907881Y-84599500D01*
X144907873Y-84599500D01*
X144907864Y-84599500D01*
X143012129Y-84599500D01*
X143012123Y-84599501D01*
X142952516Y-84605908D01*
X142817671Y-84656202D01*
X142817664Y-84656206D01*
X142702455Y-84742452D01*
X142702452Y-84742455D01*
X142616206Y-84857664D01*
X142616202Y-84857671D01*
X142565908Y-84992517D01*
X142559501Y-85052116D01*
X142559501Y-85052123D01*
X142559500Y-85052135D01*
X133645791Y-85052135D01*
X133726562Y-85002124D01*
X133890981Y-84852236D01*
X134025058Y-84674689D01*
X134034262Y-84656206D01*
X134124224Y-84475538D01*
X134124223Y-84475538D01*
X134124229Y-84475528D01*
X134185115Y-84261536D01*
X134205643Y-84040000D01*
X134185115Y-83818464D01*
X134124229Y-83604472D01*
X134093184Y-83542125D01*
X134025061Y-83405316D01*
X134025056Y-83405308D01*
X133890979Y-83227761D01*
X133726562Y-83077876D01*
X133726560Y-83077874D01*
X133537404Y-82960754D01*
X133537398Y-82960752D01*
X133329940Y-82880382D01*
X133111243Y-82839500D01*
X132888757Y-82839500D01*
X132670060Y-82880382D01*
X132538864Y-82931207D01*
X132462601Y-82960752D01*
X132462595Y-82960754D01*
X132273439Y-83077874D01*
X132273437Y-83077876D01*
X132109020Y-83227761D01*
X131974943Y-83405308D01*
X131974938Y-83405316D01*
X131875775Y-83604461D01*
X131875769Y-83604476D01*
X131814885Y-83818462D01*
X131814884Y-83818464D01*
X131794357Y-84039999D01*
X124092126Y-84039999D01*
X124124229Y-83975528D01*
X124185115Y-83761536D01*
X124205643Y-83540000D01*
X124185115Y-83318464D01*
X124124229Y-83104472D01*
X124079940Y-83015528D01*
X124025061Y-82905316D01*
X124025056Y-82905308D01*
X123890979Y-82727761D01*
X123728891Y-82579999D01*
X126794357Y-82579999D01*
X126794357Y-82580000D01*
X126814884Y-82801535D01*
X126814885Y-82801537D01*
X126875769Y-83015523D01*
X126875775Y-83015538D01*
X126974938Y-83214683D01*
X126974943Y-83214691D01*
X127109020Y-83392238D01*
X127273437Y-83542123D01*
X127273439Y-83542125D01*
X127462595Y-83659245D01*
X127462596Y-83659245D01*
X127462599Y-83659247D01*
X127670060Y-83739618D01*
X127888757Y-83780500D01*
X127888759Y-83780500D01*
X128111241Y-83780500D01*
X128111243Y-83780500D01*
X128329940Y-83739618D01*
X128537401Y-83659247D01*
X128726562Y-83542124D01*
X128876633Y-83405316D01*
X128890979Y-83392238D01*
X128899933Y-83380382D01*
X129025058Y-83214689D01*
X129124229Y-83015528D01*
X129185115Y-82801536D01*
X129205643Y-82580000D01*
X129194523Y-82459999D01*
X136794357Y-82459999D01*
X136794357Y-82460000D01*
X136814884Y-82681535D01*
X136814885Y-82681537D01*
X136875769Y-82895523D01*
X136875775Y-82895538D01*
X136974938Y-83094683D01*
X136974943Y-83094691D01*
X137109020Y-83272238D01*
X137273437Y-83422123D01*
X137273439Y-83422125D01*
X137462595Y-83539245D01*
X137462596Y-83539245D01*
X137462599Y-83539247D01*
X137670060Y-83619618D01*
X137888757Y-83660500D01*
X137888759Y-83660500D01*
X138111241Y-83660500D01*
X138111243Y-83660500D01*
X138329940Y-83619618D01*
X138537401Y-83539247D01*
X138726562Y-83422124D01*
X138890981Y-83272236D01*
X139025058Y-83094689D01*
X139124229Y-82895528D01*
X139185115Y-82681536D01*
X139205643Y-82460000D01*
X139196234Y-82358464D01*
X139185115Y-82238464D01*
X139185114Y-82238462D01*
X139166967Y-82174683D01*
X139124229Y-82024472D01*
X139124224Y-82024461D01*
X139025061Y-81825316D01*
X139025056Y-81825308D01*
X138890979Y-81647761D01*
X138726562Y-81497876D01*
X138726560Y-81497874D01*
X138537404Y-81380754D01*
X138537398Y-81380752D01*
X138329940Y-81300382D01*
X138111243Y-81259500D01*
X137888757Y-81259500D01*
X137670060Y-81300382D01*
X137558004Y-81343793D01*
X137462601Y-81380752D01*
X137462595Y-81380754D01*
X137273439Y-81497874D01*
X137273437Y-81497876D01*
X137109020Y-81647761D01*
X136974943Y-81825308D01*
X136974938Y-81825316D01*
X136875775Y-82024461D01*
X136875769Y-82024476D01*
X136814885Y-82238462D01*
X136814884Y-82238464D01*
X136794357Y-82459999D01*
X129194523Y-82459999D01*
X129185115Y-82358464D01*
X129124229Y-82144472D01*
X129124224Y-82144461D01*
X129025061Y-81945316D01*
X129025056Y-81945308D01*
X128890979Y-81767761D01*
X128726562Y-81617876D01*
X128726560Y-81617874D01*
X128537404Y-81500754D01*
X128537398Y-81500752D01*
X128329940Y-81420382D01*
X128111243Y-81379500D01*
X127888757Y-81379500D01*
X127670060Y-81420382D01*
X127538864Y-81471207D01*
X127462601Y-81500752D01*
X127462595Y-81500754D01*
X127273439Y-81617874D01*
X127273437Y-81617876D01*
X127109020Y-81767761D01*
X126974943Y-81945308D01*
X126974938Y-81945316D01*
X126875775Y-82144461D01*
X126875769Y-82144476D01*
X126814885Y-82358462D01*
X126814884Y-82358464D01*
X126794357Y-82579999D01*
X123728891Y-82579999D01*
X123726562Y-82577876D01*
X123726560Y-82577874D01*
X123537404Y-82460754D01*
X123537398Y-82460752D01*
X123535457Y-82460000D01*
X123329940Y-82380382D01*
X123111243Y-82339500D01*
X122888757Y-82339500D01*
X122670060Y-82380382D01*
X122562314Y-82422123D01*
X122462601Y-82460752D01*
X122462595Y-82460754D01*
X122273439Y-82577874D01*
X122273437Y-82577876D01*
X122109020Y-82727761D01*
X121974943Y-82905308D01*
X121974938Y-82905316D01*
X121875775Y-83104461D01*
X121875769Y-83104476D01*
X121814885Y-83318462D01*
X121814884Y-83318464D01*
X121794357Y-83539999D01*
X111277209Y-83539999D01*
X111745740Y-81377016D01*
X111752140Y-81356372D01*
X112715029Y-78999994D01*
X114330202Y-78999994D01*
X114330202Y-79000005D01*
X114349361Y-79231218D01*
X114406317Y-79456135D01*
X114499515Y-79668606D01*
X114583812Y-79797633D01*
X115292861Y-79088584D01*
X115315667Y-79173694D01*
X115374910Y-79276306D01*
X115458694Y-79360090D01*
X115561306Y-79419333D01*
X115646414Y-79442138D01*
X114936201Y-80152351D01*
X114966649Y-80176050D01*
X115170697Y-80286476D01*
X115170706Y-80286479D01*
X115390139Y-80361811D01*
X115618993Y-80400000D01*
X115851007Y-80400000D01*
X116079860Y-80361811D01*
X116299293Y-80286479D01*
X116299301Y-80286476D01*
X116503355Y-80176047D01*
X116533797Y-80152351D01*
X116533798Y-80152350D01*
X115823585Y-79442137D01*
X115908694Y-79419333D01*
X116011306Y-79360090D01*
X116095090Y-79276306D01*
X116154333Y-79173694D01*
X116177138Y-79088584D01*
X116838181Y-79749627D01*
X116871666Y-79810950D01*
X116874500Y-79837307D01*
X116874500Y-79947869D01*
X116874501Y-79947876D01*
X116880908Y-80007483D01*
X116931202Y-80142328D01*
X116931206Y-80142335D01*
X117017452Y-80257544D01*
X117017455Y-80257547D01*
X117132664Y-80343793D01*
X117132671Y-80343797D01*
X117267517Y-80394091D01*
X117267516Y-80394091D01*
X117274444Y-80394835D01*
X117327127Y-80400500D01*
X119222872Y-80400499D01*
X119282483Y-80394091D01*
X119417331Y-80343796D01*
X119532546Y-80257546D01*
X119618796Y-80142331D01*
X119669091Y-80007483D01*
X119675500Y-79947873D01*
X119675499Y-78459999D01*
X121794357Y-78459999D01*
X121794357Y-78460000D01*
X121814884Y-78681535D01*
X121814885Y-78681537D01*
X121875769Y-78895523D01*
X121875775Y-78895538D01*
X121974938Y-79094683D01*
X121974943Y-79094691D01*
X122109020Y-79272238D01*
X122273437Y-79422123D01*
X122273439Y-79422125D01*
X122462595Y-79539245D01*
X122462596Y-79539245D01*
X122462599Y-79539247D01*
X122670060Y-79619618D01*
X122888757Y-79660500D01*
X122888759Y-79660500D01*
X123111241Y-79660500D01*
X123111243Y-79660500D01*
X123329940Y-79619618D01*
X123537401Y-79539247D01*
X123726562Y-79422124D01*
X123866282Y-79294751D01*
X123890979Y-79272238D01*
X123907492Y-79250372D01*
X124025058Y-79094689D01*
X124092126Y-78959999D01*
X131794357Y-78959999D01*
X131794357Y-78960000D01*
X131814884Y-79181535D01*
X131814885Y-79181537D01*
X131875769Y-79395523D01*
X131875775Y-79395538D01*
X131974938Y-79594683D01*
X131974943Y-79594691D01*
X132109020Y-79772238D01*
X132273437Y-79922123D01*
X132273439Y-79922125D01*
X132462595Y-80039245D01*
X132462596Y-80039245D01*
X132462599Y-80039247D01*
X132670060Y-80119618D01*
X132888757Y-80160500D01*
X132888759Y-80160500D01*
X133111241Y-80160500D01*
X133111243Y-80160500D01*
X133329940Y-80119618D01*
X133537401Y-80039247D01*
X133726562Y-79922124D01*
X133890981Y-79772236D01*
X134025058Y-79594689D01*
X134124229Y-79395528D01*
X134185115Y-79181536D01*
X134205643Y-78960000D01*
X134185115Y-78738464D01*
X134124229Y-78524472D01*
X134124224Y-78524461D01*
X134025061Y-78325316D01*
X134025056Y-78325308D01*
X133890979Y-78147761D01*
X133726562Y-77997876D01*
X133726560Y-77997874D01*
X133537404Y-77880754D01*
X133537398Y-77880752D01*
X133329940Y-77800382D01*
X133111243Y-77759500D01*
X132888757Y-77759500D01*
X132670060Y-77800382D01*
X132548060Y-77847645D01*
X132462601Y-77880752D01*
X132462595Y-77880754D01*
X132273439Y-77997874D01*
X132273437Y-77997876D01*
X132109020Y-78147761D01*
X131974943Y-78325308D01*
X131974938Y-78325316D01*
X131875775Y-78524461D01*
X131875769Y-78524476D01*
X131814885Y-78738462D01*
X131814884Y-78738464D01*
X131794357Y-78959999D01*
X124092126Y-78959999D01*
X124124229Y-78895528D01*
X124185115Y-78681536D01*
X124205643Y-78460000D01*
X124202715Y-78428406D01*
X124185115Y-78238464D01*
X124185114Y-78238462D01*
X124163555Y-78162691D01*
X124124229Y-78024472D01*
X124124224Y-78024461D01*
X124025061Y-77825316D01*
X124025056Y-77825308D01*
X123890979Y-77647761D01*
X123728891Y-77499999D01*
X126794357Y-77499999D01*
X126794357Y-77500000D01*
X126814884Y-77721535D01*
X126814885Y-77721537D01*
X126875769Y-77935523D01*
X126875775Y-77935538D01*
X126974938Y-78134683D01*
X126974943Y-78134691D01*
X127109020Y-78312238D01*
X127273437Y-78462123D01*
X127273439Y-78462125D01*
X127462595Y-78579245D01*
X127462596Y-78579245D01*
X127462599Y-78579247D01*
X127670060Y-78659618D01*
X127888757Y-78700500D01*
X127888759Y-78700500D01*
X128111241Y-78700500D01*
X128111243Y-78700500D01*
X128329940Y-78659618D01*
X128537401Y-78579247D01*
X128726562Y-78462124D01*
X128876633Y-78325316D01*
X128890979Y-78312238D01*
X128899933Y-78300382D01*
X129025058Y-78134689D01*
X129124229Y-77935528D01*
X129185115Y-77721536D01*
X129205643Y-77500000D01*
X129205642Y-77499994D01*
X129185115Y-77278464D01*
X129185114Y-77278462D01*
X129183343Y-77272238D01*
X129124229Y-77064472D01*
X129117023Y-77050000D01*
X129025061Y-76865316D01*
X129025056Y-76865308D01*
X128890979Y-76687761D01*
X128742203Y-76552135D01*
X136059500Y-76552135D01*
X136059500Y-78447870D01*
X136059501Y-78447876D01*
X136065908Y-78507483D01*
X136116202Y-78642328D01*
X136116206Y-78642335D01*
X136202452Y-78757544D01*
X136202455Y-78757547D01*
X136317664Y-78843793D01*
X136317671Y-78843797D01*
X136452517Y-78894091D01*
X136452516Y-78894091D01*
X136459444Y-78894835D01*
X136512127Y-78900500D01*
X138407872Y-78900499D01*
X138467483Y-78894091D01*
X138602331Y-78843796D01*
X138717546Y-78757546D01*
X138803796Y-78642331D01*
X138854091Y-78507483D01*
X138860500Y-78447873D01*
X138860499Y-78337304D01*
X138880183Y-78270268D01*
X138896818Y-78249626D01*
X139557861Y-77588584D01*
X139580667Y-77673694D01*
X139639910Y-77776306D01*
X139723694Y-77860090D01*
X139826306Y-77919333D01*
X139911414Y-77942138D01*
X139201201Y-78652351D01*
X139231649Y-78676050D01*
X139435697Y-78786476D01*
X139435706Y-78786479D01*
X139655139Y-78861811D01*
X139883993Y-78900000D01*
X140116007Y-78900000D01*
X140344860Y-78861811D01*
X140564293Y-78786479D01*
X140564301Y-78786476D01*
X140768355Y-78676047D01*
X140798797Y-78652351D01*
X140798798Y-78652350D01*
X140088585Y-77942137D01*
X140173694Y-77919333D01*
X140276306Y-77860090D01*
X140360090Y-77776306D01*
X140419333Y-77673694D01*
X140442138Y-77588585D01*
X141151186Y-78297633D01*
X141235482Y-78168611D01*
X141328682Y-77956135D01*
X141385638Y-77731218D01*
X141404798Y-77500005D01*
X141404798Y-77499994D01*
X141385638Y-77268781D01*
X141328682Y-77043864D01*
X141235484Y-76831393D01*
X141151186Y-76702365D01*
X140442137Y-77411414D01*
X140419333Y-77326306D01*
X140360090Y-77223694D01*
X140276306Y-77139910D01*
X140173694Y-77080667D01*
X140088584Y-77057861D01*
X140798797Y-76347647D01*
X140798797Y-76347645D01*
X140768360Y-76323955D01*
X140768354Y-76323951D01*
X140564302Y-76213523D01*
X140564293Y-76213520D01*
X140344860Y-76138188D01*
X140116007Y-76100000D01*
X139883993Y-76100000D01*
X139655139Y-76138188D01*
X139435706Y-76213520D01*
X139435697Y-76213523D01*
X139231650Y-76323949D01*
X139201200Y-76347647D01*
X139911415Y-77057861D01*
X139826306Y-77080667D01*
X139723694Y-77139910D01*
X139639910Y-77223694D01*
X139580667Y-77326306D01*
X139557861Y-77411415D01*
X138896818Y-76750372D01*
X138863333Y-76689049D01*
X138860499Y-76662691D01*
X138860499Y-76552129D01*
X138860498Y-76552123D01*
X138860497Y-76552116D01*
X138854091Y-76492517D01*
X138846343Y-76471744D01*
X138803797Y-76357671D01*
X138803793Y-76357664D01*
X138717547Y-76242455D01*
X138717544Y-76242452D01*
X138602335Y-76156206D01*
X138602328Y-76156202D01*
X138467482Y-76105908D01*
X138467483Y-76105908D01*
X138407883Y-76099501D01*
X138407881Y-76099500D01*
X138407873Y-76099500D01*
X138407864Y-76099500D01*
X136512129Y-76099500D01*
X136512123Y-76099501D01*
X136452516Y-76105908D01*
X136317671Y-76156202D01*
X136317664Y-76156206D01*
X136202455Y-76242452D01*
X136202452Y-76242455D01*
X136116206Y-76357664D01*
X136116202Y-76357671D01*
X136065908Y-76492517D01*
X136061032Y-76537874D01*
X136059501Y-76552123D01*
X136059500Y-76552135D01*
X128742203Y-76552135D01*
X128726562Y-76537876D01*
X128726560Y-76537874D01*
X128537404Y-76420754D01*
X128537398Y-76420752D01*
X128518570Y-76413458D01*
X128329940Y-76340382D01*
X128111243Y-76299500D01*
X127888757Y-76299500D01*
X127670060Y-76340382D01*
X127538864Y-76391207D01*
X127462601Y-76420752D01*
X127462595Y-76420754D01*
X127273439Y-76537874D01*
X127273437Y-76537876D01*
X127109020Y-76687761D01*
X126974943Y-76865308D01*
X126974938Y-76865316D01*
X126875775Y-77064461D01*
X126875769Y-77064476D01*
X126814885Y-77278462D01*
X126814884Y-77278464D01*
X126794357Y-77499999D01*
X123728891Y-77499999D01*
X123726562Y-77497876D01*
X123726560Y-77497874D01*
X123537404Y-77380754D01*
X123537398Y-77380752D01*
X123329940Y-77300382D01*
X123111243Y-77259500D01*
X122888757Y-77259500D01*
X122670060Y-77300382D01*
X122603143Y-77326306D01*
X122462601Y-77380752D01*
X122462595Y-77380754D01*
X122273439Y-77497874D01*
X122273437Y-77497876D01*
X122109020Y-77647761D01*
X121974943Y-77825308D01*
X121974938Y-77825316D01*
X121875775Y-78024461D01*
X121875769Y-78024476D01*
X121814885Y-78238462D01*
X121814884Y-78238464D01*
X121794357Y-78459999D01*
X119675499Y-78459999D01*
X119675499Y-78052128D01*
X119669091Y-77992517D01*
X119655521Y-77956135D01*
X119618797Y-77857671D01*
X119618793Y-77857664D01*
X119532547Y-77742455D01*
X119532544Y-77742452D01*
X119417335Y-77656206D01*
X119417328Y-77656202D01*
X119282482Y-77605908D01*
X119282483Y-77605908D01*
X119222883Y-77599501D01*
X119222881Y-77599500D01*
X119222873Y-77599500D01*
X119222864Y-77599500D01*
X117327129Y-77599500D01*
X117327123Y-77599501D01*
X117267516Y-77605908D01*
X117132671Y-77656202D01*
X117132664Y-77656206D01*
X117017455Y-77742452D01*
X117017452Y-77742455D01*
X116931206Y-77857664D01*
X116931202Y-77857671D01*
X116880908Y-77992517D01*
X116874501Y-78052116D01*
X116874501Y-78052123D01*
X116874500Y-78052135D01*
X116874500Y-78162691D01*
X116854815Y-78229730D01*
X116838181Y-78250372D01*
X116177138Y-78911414D01*
X116154333Y-78826306D01*
X116095090Y-78723694D01*
X116011306Y-78639910D01*
X115908694Y-78580667D01*
X115823584Y-78557861D01*
X116533797Y-77847647D01*
X116533797Y-77847645D01*
X116503360Y-77823955D01*
X116503354Y-77823951D01*
X116299302Y-77713523D01*
X116299293Y-77713520D01*
X116079860Y-77638188D01*
X115851007Y-77600000D01*
X115618993Y-77600000D01*
X115390139Y-77638188D01*
X115170706Y-77713520D01*
X115170697Y-77713523D01*
X114966650Y-77823949D01*
X114936200Y-77847647D01*
X115646415Y-78557861D01*
X115561306Y-78580667D01*
X115458694Y-78639910D01*
X115374910Y-78723694D01*
X115315667Y-78826306D01*
X115292861Y-78911415D01*
X114583811Y-78202365D01*
X114499516Y-78331390D01*
X114406317Y-78543864D01*
X114349361Y-78768781D01*
X114330202Y-78999994D01*
X112715029Y-78999994D01*
X112948600Y-78428401D01*
X112956860Y-78411839D01*
X112958667Y-78408807D01*
X113789052Y-77015183D01*
X113797555Y-77002710D01*
X114864738Y-75625701D01*
X114873141Y-75615950D01*
X116137421Y-74294707D01*
X116145842Y-74286696D01*
X116157842Y-74276306D01*
X117567826Y-73055478D01*
X117576525Y-73048603D01*
X117644044Y-72999994D01*
X121330202Y-72999994D01*
X121330202Y-73000005D01*
X121349361Y-73231218D01*
X121406317Y-73456135D01*
X121499515Y-73668606D01*
X121583812Y-73797633D01*
X122292861Y-73088584D01*
X122315667Y-73173694D01*
X122374910Y-73276306D01*
X122458694Y-73360090D01*
X122561306Y-73419333D01*
X122646414Y-73442138D01*
X121936201Y-74152351D01*
X121966649Y-74176050D01*
X122170697Y-74286476D01*
X122170706Y-74286479D01*
X122390139Y-74361811D01*
X122618993Y-74400000D01*
X122851007Y-74400000D01*
X123079860Y-74361811D01*
X123299293Y-74286479D01*
X123299301Y-74286476D01*
X123503355Y-74176047D01*
X123533797Y-74152351D01*
X123533798Y-74152350D01*
X122823585Y-73442137D01*
X122908694Y-73419333D01*
X123011306Y-73360090D01*
X123095090Y-73276306D01*
X123154333Y-73173694D01*
X123177138Y-73088584D01*
X123838181Y-73749627D01*
X123871666Y-73810950D01*
X123874500Y-73837307D01*
X123874500Y-73947869D01*
X123874501Y-73947876D01*
X123880908Y-74007483D01*
X123931202Y-74142328D01*
X123931206Y-74142335D01*
X124017452Y-74257544D01*
X124017455Y-74257547D01*
X124132664Y-74343793D01*
X124132671Y-74343797D01*
X124267517Y-74394091D01*
X124267516Y-74394091D01*
X124274444Y-74394835D01*
X124327127Y-74400500D01*
X126222872Y-74400499D01*
X126282483Y-74394091D01*
X126417331Y-74343796D01*
X126532546Y-74257546D01*
X126618796Y-74142331D01*
X126669091Y-74007483D01*
X126675500Y-73947873D01*
X126675499Y-72052128D01*
X126669091Y-71992517D01*
X126655521Y-71956135D01*
X126618797Y-71857671D01*
X126618793Y-71857664D01*
X126532547Y-71742455D01*
X126532544Y-71742452D01*
X126417335Y-71656206D01*
X126417328Y-71656202D01*
X126282482Y-71605908D01*
X126282483Y-71605908D01*
X126222883Y-71599501D01*
X126222881Y-71599500D01*
X126222873Y-71599500D01*
X126222864Y-71599500D01*
X124327129Y-71599500D01*
X124327123Y-71599501D01*
X124267516Y-71605908D01*
X124132671Y-71656202D01*
X124132664Y-71656206D01*
X124017455Y-71742452D01*
X124017452Y-71742455D01*
X123931206Y-71857664D01*
X123931202Y-71857671D01*
X123880908Y-71992517D01*
X123874501Y-72052116D01*
X123874501Y-72052123D01*
X123874500Y-72052135D01*
X123874500Y-72162691D01*
X123854815Y-72229730D01*
X123838181Y-72250372D01*
X123177138Y-72911414D01*
X123154333Y-72826306D01*
X123095090Y-72723694D01*
X123011306Y-72639910D01*
X122908694Y-72580667D01*
X122823584Y-72557861D01*
X123533797Y-71847647D01*
X123533797Y-71847645D01*
X123503360Y-71823955D01*
X123503354Y-71823951D01*
X123299302Y-71713523D01*
X123299293Y-71713520D01*
X123079860Y-71638188D01*
X122851007Y-71600000D01*
X122618993Y-71600000D01*
X122390139Y-71638188D01*
X122170706Y-71713520D01*
X122170697Y-71713523D01*
X121966650Y-71823949D01*
X121936200Y-71847647D01*
X122646415Y-72557861D01*
X122561306Y-72580667D01*
X122458694Y-72639910D01*
X122374910Y-72723694D01*
X122315667Y-72826306D01*
X122292861Y-72911415D01*
X121583811Y-72202365D01*
X121499516Y-72331390D01*
X121406317Y-72543864D01*
X121349361Y-72768781D01*
X121330202Y-72999994D01*
X117644044Y-72999994D01*
X119116114Y-71940211D01*
X119125519Y-71934070D01*
X119772796Y-71552135D01*
X129324500Y-71552135D01*
X129324500Y-73447870D01*
X129324501Y-73447876D01*
X129330908Y-73507483D01*
X129381202Y-73642328D01*
X129381206Y-73642335D01*
X129467452Y-73757544D01*
X129467455Y-73757547D01*
X129582664Y-73843793D01*
X129582671Y-73843797D01*
X129717517Y-73894091D01*
X129717516Y-73894091D01*
X129724444Y-73894835D01*
X129777127Y-73900500D01*
X131672872Y-73900499D01*
X131732483Y-73894091D01*
X131867331Y-73843796D01*
X131982546Y-73757546D01*
X132068796Y-73642331D01*
X132119091Y-73507483D01*
X132125500Y-73447873D01*
X132125499Y-73337304D01*
X132145183Y-73270268D01*
X132161818Y-73249626D01*
X132822861Y-72588584D01*
X132845667Y-72673694D01*
X132904910Y-72776306D01*
X132988694Y-72860090D01*
X133091306Y-72919333D01*
X133176414Y-72942138D01*
X132466201Y-73652351D01*
X132496649Y-73676050D01*
X132700697Y-73786476D01*
X132700706Y-73786479D01*
X132920139Y-73861811D01*
X133148993Y-73900000D01*
X133381007Y-73900000D01*
X133609860Y-73861811D01*
X133829293Y-73786479D01*
X133829301Y-73786476D01*
X134033355Y-73676047D01*
X134063797Y-73652351D01*
X134063798Y-73652350D01*
X133353585Y-72942137D01*
X133438694Y-72919333D01*
X133541306Y-72860090D01*
X133625090Y-72776306D01*
X133684333Y-72673694D01*
X133707138Y-72588585D01*
X134416186Y-73297633D01*
X134500482Y-73168611D01*
X134593682Y-72956135D01*
X134650638Y-72731218D01*
X134669798Y-72500005D01*
X134669798Y-72499994D01*
X134650638Y-72268781D01*
X134593682Y-72043864D01*
X134500484Y-71831393D01*
X134416186Y-71702365D01*
X133707137Y-72411414D01*
X133684333Y-72326306D01*
X133625090Y-72223694D01*
X133541306Y-72139910D01*
X133438694Y-72080667D01*
X133353584Y-72057861D01*
X134063797Y-71347647D01*
X134063797Y-71347645D01*
X134033360Y-71323955D01*
X134033354Y-71323951D01*
X133829302Y-71213523D01*
X133829293Y-71213520D01*
X133609860Y-71138188D01*
X133381007Y-71100000D01*
X133148993Y-71100000D01*
X132920139Y-71138188D01*
X132700706Y-71213520D01*
X132700697Y-71213523D01*
X132496650Y-71323949D01*
X132466200Y-71347647D01*
X133176415Y-72057861D01*
X133091306Y-72080667D01*
X132988694Y-72139910D01*
X132904910Y-72223694D01*
X132845667Y-72326306D01*
X132822861Y-72411415D01*
X132161818Y-71750372D01*
X132128333Y-71689049D01*
X132125499Y-71662691D01*
X132125499Y-71552129D01*
X132125498Y-71552123D01*
X132125497Y-71552116D01*
X132119091Y-71492517D01*
X132101592Y-71445601D01*
X132068797Y-71357671D01*
X132068793Y-71357664D01*
X131982547Y-71242455D01*
X131982544Y-71242452D01*
X131867335Y-71156206D01*
X131867328Y-71156202D01*
X131732482Y-71105908D01*
X131732483Y-71105908D01*
X131672883Y-71099501D01*
X131672881Y-71099500D01*
X131672873Y-71099500D01*
X131672864Y-71099500D01*
X129777129Y-71099500D01*
X129777123Y-71099501D01*
X129717516Y-71105908D01*
X129582671Y-71156202D01*
X129582664Y-71156206D01*
X129467455Y-71242452D01*
X129467452Y-71242455D01*
X129381206Y-71357664D01*
X129381202Y-71357671D01*
X129330908Y-71492517D01*
X129324501Y-71552116D01*
X129324501Y-71552123D01*
X129324500Y-71552135D01*
X119772796Y-71552135D01*
X120741941Y-70980277D01*
X120752621Y-70974658D01*
X122404253Y-70206257D01*
X122416978Y-70201172D01*
X124065491Y-69646088D01*
X124079452Y-69642280D01*
X125572308Y-69327270D01*
X125584656Y-69325309D01*
X127141454Y-69158098D01*
X127158280Y-69157442D01*
X130415420Y-69252238D01*
X130436700Y-69254708D01*
X133618947Y-69906704D01*
X133635347Y-69911258D01*
X135099500Y-70428472D01*
X135111261Y-70433319D01*
X135595584Y-70662691D01*
X136477464Y-71080343D01*
X136489250Y-71086725D01*
X136801330Y-71278251D01*
X137752372Y-71861914D01*
X137762076Y-71868522D01*
X138884672Y-72713520D01*
X138985220Y-72789204D01*
X138997075Y-72799358D01*
X139257129Y-73052129D01*
X141287902Y-75026034D01*
X141300955Y-75040927D01*
X141975705Y-75947872D01*
X143191556Y-77582124D01*
X143200287Y-77595602D01*
X143930698Y-78901295D01*
X143936181Y-78912355D01*
X144496448Y-80199862D01*
X144503682Y-80222864D01*
X144504223Y-80224443D01*
X144526541Y-80269410D01*
X144529169Y-80275057D01*
X144549190Y-80321065D01*
X144550062Y-80322515D01*
X144562988Y-80342839D01*
X145305883Y-81839560D01*
X145312332Y-81855128D01*
X145319782Y-81877260D01*
X145334490Y-81899396D01*
X145342278Y-81912885D01*
X145354091Y-81936685D01*
X145354097Y-81936692D01*
X145369534Y-81954205D01*
X145379793Y-81967574D01*
X145392714Y-81987019D01*
X145410175Y-82002411D01*
X145412643Y-82004587D01*
X145423662Y-82015606D01*
X145431468Y-82024461D01*
X145441240Y-82035546D01*
X145460690Y-82048469D01*
X145474062Y-82058730D01*
X145491571Y-82074165D01*
X145503866Y-82080267D01*
X145515368Y-82085977D01*
X145528858Y-82093765D01*
X145551002Y-82108479D01*
X145560666Y-82111731D01*
X145573134Y-82115928D01*
X145588711Y-82122380D01*
X145609614Y-82132756D01*
X145622598Y-82135373D01*
X145635664Y-82138008D01*
X145650716Y-82142041D01*
X145675897Y-82150517D01*
X145675899Y-82150517D01*
X145675902Y-82150518D01*
X145694401Y-82151682D01*
X145699193Y-82151984D01*
X145715910Y-82154184D01*
X145738799Y-82158799D01*
X145765332Y-82157128D01*
X145780892Y-82157128D01*
X145807425Y-82158799D01*
X145830315Y-82154183D01*
X145847030Y-82151984D01*
X145850440Y-82151769D01*
X145870322Y-82150518D01*
X145895508Y-82142040D01*
X145910561Y-82138007D01*
X145936606Y-82132757D01*
X145936606Y-82132756D01*
X145936610Y-82132756D01*
X145957516Y-82122378D01*
X145973098Y-82115924D01*
X145978520Y-82114098D01*
X145995222Y-82108478D01*
X146017362Y-82093765D01*
X146030837Y-82085986D01*
X146054654Y-82074166D01*
X146072176Y-82058718D01*
X146085541Y-82048462D01*
X146104984Y-82035545D01*
X146122549Y-82015617D01*
X146133566Y-82004600D01*
X146153511Y-81987020D01*
X146166438Y-81967562D01*
X146176692Y-81954198D01*
X146192130Y-81936688D01*
X146203944Y-81912883D01*
X146211725Y-81899407D01*
X146226443Y-81877258D01*
X146233893Y-81855123D01*
X146240342Y-81839553D01*
X146247411Y-81825311D01*
X146389025Y-81539999D01*
X160794357Y-81539999D01*
X160794357Y-81540000D01*
X160814884Y-81761535D01*
X160814885Y-81761537D01*
X160875769Y-81975523D01*
X160875775Y-81975538D01*
X160974938Y-82174683D01*
X160974943Y-82174691D01*
X161109020Y-82352238D01*
X161273437Y-82502123D01*
X161273439Y-82502125D01*
X161462595Y-82619245D01*
X161462596Y-82619245D01*
X161462599Y-82619247D01*
X161670060Y-82699618D01*
X161888757Y-82740500D01*
X161888759Y-82740500D01*
X162111241Y-82740500D01*
X162111243Y-82740500D01*
X162329940Y-82699618D01*
X162537401Y-82619247D01*
X162726562Y-82502124D01*
X162884149Y-82358464D01*
X162890979Y-82352238D01*
X162900599Y-82339500D01*
X163025058Y-82174689D01*
X163124229Y-81975528D01*
X163185115Y-81761536D01*
X163205643Y-81540000D01*
X163198230Y-81459999D01*
X169794357Y-81459999D01*
X169794357Y-81460000D01*
X169814884Y-81681535D01*
X169814885Y-81681537D01*
X169875769Y-81895523D01*
X169875775Y-81895538D01*
X169974938Y-82094683D01*
X169974943Y-82094691D01*
X170109020Y-82272238D01*
X170273437Y-82422123D01*
X170273439Y-82422125D01*
X170462595Y-82539245D01*
X170462596Y-82539245D01*
X170462599Y-82539247D01*
X170670060Y-82619618D01*
X170888757Y-82660500D01*
X170888759Y-82660500D01*
X171111241Y-82660500D01*
X171111243Y-82660500D01*
X171329940Y-82619618D01*
X171537401Y-82539247D01*
X171726562Y-82422124D01*
X171890981Y-82272236D01*
X172025058Y-82094689D01*
X172124229Y-81895528D01*
X172185115Y-81681536D01*
X172205643Y-81460000D01*
X172185115Y-81238464D01*
X172124229Y-81024472D01*
X172124224Y-81024461D01*
X172025061Y-80825316D01*
X172025056Y-80825308D01*
X171890979Y-80647761D01*
X171726562Y-80497876D01*
X171726560Y-80497874D01*
X171537404Y-80380754D01*
X171537398Y-80380752D01*
X171536443Y-80380382D01*
X171329940Y-80300382D01*
X171111243Y-80259500D01*
X170888757Y-80259500D01*
X170670060Y-80300382D01*
X170590892Y-80331052D01*
X170462601Y-80380752D01*
X170462595Y-80380754D01*
X170273439Y-80497874D01*
X170273437Y-80497876D01*
X170109020Y-80647761D01*
X169974943Y-80825308D01*
X169974938Y-80825316D01*
X169875775Y-81024461D01*
X169875769Y-81024476D01*
X169814885Y-81238462D01*
X169814884Y-81238464D01*
X169794357Y-81459999D01*
X163198230Y-81459999D01*
X163185115Y-81318464D01*
X163124229Y-81104472D01*
X163095754Y-81047286D01*
X163025061Y-80905316D01*
X163025056Y-80905308D01*
X162890979Y-80727761D01*
X162726562Y-80577876D01*
X162726560Y-80577874D01*
X162537404Y-80460754D01*
X162537398Y-80460752D01*
X162329940Y-80380382D01*
X162111243Y-80339500D01*
X161888757Y-80339500D01*
X161670060Y-80380382D01*
X161618130Y-80400500D01*
X161462601Y-80460752D01*
X161462595Y-80460754D01*
X161273439Y-80577874D01*
X161273437Y-80577876D01*
X161109020Y-80727761D01*
X160974943Y-80905308D01*
X160974938Y-80905316D01*
X160875775Y-81104461D01*
X160875769Y-81104476D01*
X160814885Y-81318462D01*
X160814884Y-81318464D01*
X160794357Y-81539999D01*
X146389025Y-81539999D01*
X146981548Y-80346237D01*
X146989872Y-80333323D01*
X146989607Y-80333159D01*
X146993874Y-80326250D01*
X146993875Y-80326247D01*
X146993878Y-80326244D01*
X147016011Y-80277002D01*
X147018003Y-80272789D01*
X147042002Y-80224441D01*
X147042003Y-80224435D01*
X147044635Y-80216750D01*
X147044930Y-80216851D01*
X147049629Y-80202217D01*
X147218605Y-79826306D01*
X147566602Y-79052135D01*
X148324500Y-79052135D01*
X148324500Y-80947870D01*
X148324501Y-80947876D01*
X148330908Y-81007483D01*
X148381202Y-81142328D01*
X148381206Y-81142335D01*
X148467452Y-81257544D01*
X148467455Y-81257547D01*
X148582664Y-81343793D01*
X148582671Y-81343797D01*
X148717517Y-81394091D01*
X148717516Y-81394091D01*
X148724444Y-81394835D01*
X148777127Y-81400500D01*
X150672872Y-81400499D01*
X150732483Y-81394091D01*
X150867331Y-81343796D01*
X150982546Y-81257546D01*
X151068796Y-81142331D01*
X151119091Y-81007483D01*
X151125500Y-80947873D01*
X151125499Y-80837304D01*
X151145183Y-80770268D01*
X151161818Y-80749626D01*
X151822861Y-80088582D01*
X151845667Y-80173694D01*
X151904910Y-80276306D01*
X151988694Y-80360090D01*
X152091306Y-80419333D01*
X152176414Y-80442138D01*
X151466201Y-81152351D01*
X151496649Y-81176050D01*
X151700697Y-81286476D01*
X151700706Y-81286479D01*
X151920139Y-81361811D01*
X152148993Y-81400000D01*
X152381007Y-81400000D01*
X152609860Y-81361811D01*
X152829293Y-81286479D01*
X152829301Y-81286476D01*
X153033355Y-81176047D01*
X153063797Y-81152351D01*
X153063798Y-81152350D01*
X152353585Y-80442137D01*
X152438694Y-80419333D01*
X152541306Y-80360090D01*
X152625090Y-80276306D01*
X152684333Y-80173694D01*
X152707138Y-80088585D01*
X153416186Y-80797633D01*
X153500482Y-80668611D01*
X153593682Y-80456135D01*
X153650638Y-80231218D01*
X153669798Y-80000005D01*
X153669798Y-79999994D01*
X153650638Y-79768781D01*
X153593682Y-79543864D01*
X153556896Y-79459999D01*
X155294357Y-79459999D01*
X155294357Y-79460000D01*
X155314884Y-79681535D01*
X155314885Y-79681537D01*
X155375769Y-79895523D01*
X155375775Y-79895538D01*
X155474938Y-80094683D01*
X155474943Y-80094691D01*
X155609020Y-80272238D01*
X155773437Y-80422123D01*
X155773439Y-80422125D01*
X155962595Y-80539245D01*
X155962596Y-80539245D01*
X155962599Y-80539247D01*
X156170060Y-80619618D01*
X156388757Y-80660500D01*
X156388759Y-80660500D01*
X156611241Y-80660500D01*
X156611243Y-80660500D01*
X156829940Y-80619618D01*
X157037401Y-80539247D01*
X157226562Y-80422124D01*
X157375357Y-80286479D01*
X157390979Y-80272238D01*
X157391013Y-80272194D01*
X157525058Y-80094689D01*
X157624229Y-79895528D01*
X157685115Y-79681536D01*
X157705643Y-79460000D01*
X157685115Y-79238464D01*
X157624229Y-79024472D01*
X157612046Y-79000005D01*
X157525061Y-78825316D01*
X157525056Y-78825308D01*
X157390979Y-78647761D01*
X157226562Y-78497876D01*
X157226560Y-78497874D01*
X157165390Y-78459999D01*
X164794357Y-78459999D01*
X164794357Y-78460000D01*
X164814884Y-78681535D01*
X164814885Y-78681537D01*
X164875769Y-78895523D01*
X164875775Y-78895538D01*
X164974938Y-79094683D01*
X164974943Y-79094691D01*
X165109020Y-79272238D01*
X165273437Y-79422123D01*
X165273439Y-79422125D01*
X165462595Y-79539245D01*
X165462596Y-79539245D01*
X165462599Y-79539247D01*
X165670060Y-79619618D01*
X165888757Y-79660500D01*
X165888759Y-79660500D01*
X166111241Y-79660500D01*
X166111243Y-79660500D01*
X166329940Y-79619618D01*
X166537401Y-79539247D01*
X166726562Y-79422124D01*
X166866282Y-79294751D01*
X166890979Y-79272238D01*
X166907492Y-79250372D01*
X167025058Y-79094689D01*
X167046248Y-79052135D01*
X172824500Y-79052135D01*
X172824500Y-80947870D01*
X172824501Y-80947876D01*
X172830908Y-81007483D01*
X172881202Y-81142328D01*
X172881206Y-81142335D01*
X172967452Y-81257544D01*
X172967455Y-81257547D01*
X173082664Y-81343793D01*
X173082671Y-81343797D01*
X173217517Y-81394091D01*
X173217516Y-81394091D01*
X173224444Y-81394835D01*
X173277127Y-81400500D01*
X175172872Y-81400499D01*
X175232483Y-81394091D01*
X175367331Y-81343796D01*
X175482546Y-81257546D01*
X175568796Y-81142331D01*
X175619091Y-81007483D01*
X175625500Y-80947873D01*
X175625499Y-80837304D01*
X175645183Y-80770268D01*
X175661818Y-80749626D01*
X176322861Y-80088584D01*
X176345667Y-80173694D01*
X176404910Y-80276306D01*
X176488694Y-80360090D01*
X176591306Y-80419333D01*
X176676414Y-80442138D01*
X175966201Y-81152351D01*
X175996649Y-81176050D01*
X176200697Y-81286476D01*
X176200706Y-81286479D01*
X176420139Y-81361811D01*
X176648993Y-81400000D01*
X176881007Y-81400000D01*
X177109860Y-81361811D01*
X177329293Y-81286479D01*
X177329301Y-81286476D01*
X177533355Y-81176047D01*
X177563797Y-81152351D01*
X177563798Y-81152350D01*
X176853585Y-80442137D01*
X176938694Y-80419333D01*
X177041306Y-80360090D01*
X177125090Y-80276306D01*
X177184333Y-80173694D01*
X177207138Y-80088585D01*
X177916186Y-80797633D01*
X178000482Y-80668611D01*
X178093682Y-80456135D01*
X178150638Y-80231218D01*
X178169798Y-80000005D01*
X178169798Y-79999994D01*
X178150638Y-79768781D01*
X178093682Y-79543864D01*
X178000484Y-79331393D01*
X177916186Y-79202365D01*
X177207137Y-79911414D01*
X177184333Y-79826306D01*
X177125090Y-79723694D01*
X177041306Y-79639910D01*
X176938694Y-79580667D01*
X176853584Y-79557861D01*
X177563797Y-78847647D01*
X177563797Y-78847645D01*
X177533360Y-78823955D01*
X177533354Y-78823951D01*
X177329302Y-78713523D01*
X177329293Y-78713520D01*
X177109860Y-78638188D01*
X176881007Y-78600000D01*
X176648993Y-78600000D01*
X176420139Y-78638188D01*
X176200706Y-78713520D01*
X176200697Y-78713523D01*
X175996650Y-78823949D01*
X175966200Y-78847647D01*
X176676415Y-79557861D01*
X176591306Y-79580667D01*
X176488694Y-79639910D01*
X176404910Y-79723694D01*
X176345667Y-79826306D01*
X176322861Y-79911415D01*
X175661818Y-79250372D01*
X175628333Y-79189049D01*
X175625499Y-79162691D01*
X175625499Y-79052129D01*
X175625498Y-79052123D01*
X175625497Y-79052116D01*
X175619091Y-78992517D01*
X175613435Y-78977353D01*
X175568797Y-78857671D01*
X175568793Y-78857664D01*
X175482547Y-78742455D01*
X175482544Y-78742452D01*
X175367335Y-78656206D01*
X175367328Y-78656202D01*
X175232482Y-78605908D01*
X175232483Y-78605908D01*
X175172883Y-78599501D01*
X175172881Y-78599500D01*
X175172873Y-78599500D01*
X175172864Y-78599500D01*
X173277129Y-78599500D01*
X173277123Y-78599501D01*
X173217516Y-78605908D01*
X173082671Y-78656202D01*
X173082664Y-78656206D01*
X172967455Y-78742452D01*
X172967452Y-78742455D01*
X172881206Y-78857664D01*
X172881202Y-78857671D01*
X172830908Y-78992517D01*
X172824501Y-79052116D01*
X172824501Y-79052123D01*
X172824500Y-79052135D01*
X167046248Y-79052135D01*
X167124229Y-78895528D01*
X167185115Y-78681536D01*
X167205643Y-78460000D01*
X167202715Y-78428406D01*
X167185115Y-78238464D01*
X167185114Y-78238462D01*
X167163555Y-78162691D01*
X167124229Y-78024472D01*
X167124224Y-78024461D01*
X167025061Y-77825316D01*
X167025056Y-77825308D01*
X166890979Y-77647761D01*
X166726562Y-77497876D01*
X166726560Y-77497874D01*
X166537404Y-77380754D01*
X166537398Y-77380752D01*
X166329940Y-77300382D01*
X166111243Y-77259500D01*
X165888757Y-77259500D01*
X165670060Y-77300382D01*
X165603143Y-77326306D01*
X165462601Y-77380752D01*
X165462595Y-77380754D01*
X165273439Y-77497874D01*
X165273437Y-77497876D01*
X165109020Y-77647761D01*
X164974943Y-77825308D01*
X164974938Y-77825316D01*
X164875775Y-78024461D01*
X164875769Y-78024476D01*
X164814885Y-78238462D01*
X164814884Y-78238464D01*
X164794357Y-78459999D01*
X157165390Y-78459999D01*
X157037404Y-78380754D01*
X157037398Y-78380752D01*
X156829940Y-78300382D01*
X156611243Y-78259500D01*
X156388757Y-78259500D01*
X156170060Y-78300382D01*
X156074743Y-78337308D01*
X155962601Y-78380752D01*
X155962595Y-78380754D01*
X155773439Y-78497874D01*
X155773437Y-78497876D01*
X155609020Y-78647761D01*
X155474943Y-78825308D01*
X155474938Y-78825316D01*
X155375775Y-79024461D01*
X155375769Y-79024476D01*
X155314885Y-79238462D01*
X155314884Y-79238464D01*
X155294357Y-79459999D01*
X153556896Y-79459999D01*
X153500484Y-79331393D01*
X153416186Y-79202365D01*
X152707137Y-79911414D01*
X152684333Y-79826306D01*
X152625090Y-79723694D01*
X152541306Y-79639910D01*
X152438694Y-79580667D01*
X152353584Y-79557861D01*
X153063797Y-78847647D01*
X153063797Y-78847645D01*
X153033360Y-78823955D01*
X153033354Y-78823951D01*
X152829302Y-78713523D01*
X152829293Y-78713520D01*
X152609860Y-78638188D01*
X152381007Y-78600000D01*
X152148993Y-78600000D01*
X151920139Y-78638188D01*
X151700706Y-78713520D01*
X151700697Y-78713523D01*
X151496650Y-78823949D01*
X151466200Y-78847647D01*
X152176415Y-79557861D01*
X152091306Y-79580667D01*
X151988694Y-79639910D01*
X151904910Y-79723694D01*
X151845667Y-79826306D01*
X151822861Y-79911415D01*
X151161818Y-79250372D01*
X151128333Y-79189049D01*
X151125499Y-79162691D01*
X151125499Y-79052129D01*
X151125498Y-79052123D01*
X151125497Y-79052116D01*
X151119091Y-78992517D01*
X151113435Y-78977353D01*
X151068797Y-78857671D01*
X151068793Y-78857664D01*
X150982547Y-78742455D01*
X150982544Y-78742452D01*
X150867335Y-78656206D01*
X150867328Y-78656202D01*
X150732482Y-78605908D01*
X150732483Y-78605908D01*
X150672883Y-78599501D01*
X150672881Y-78599500D01*
X150672873Y-78599500D01*
X150672864Y-78599500D01*
X148777129Y-78599500D01*
X148777123Y-78599501D01*
X148717516Y-78605908D01*
X148582671Y-78656202D01*
X148582664Y-78656206D01*
X148467455Y-78742452D01*
X148467452Y-78742455D01*
X148381206Y-78857664D01*
X148381202Y-78857671D01*
X148330908Y-78992517D01*
X148324501Y-79052116D01*
X148324501Y-79052123D01*
X148324500Y-79052135D01*
X147566602Y-79052135D01*
X147852551Y-78415999D01*
X147859906Y-78402078D01*
X147872967Y-78380754D01*
X148916578Y-76676866D01*
X148924947Y-76664859D01*
X149086556Y-76459999D01*
X160794357Y-76459999D01*
X160794357Y-76460000D01*
X160814884Y-76681535D01*
X160814885Y-76681537D01*
X160875769Y-76895523D01*
X160875775Y-76895538D01*
X160974938Y-77094683D01*
X160974943Y-77094691D01*
X161109020Y-77272238D01*
X161273437Y-77422123D01*
X161273439Y-77422125D01*
X161462595Y-77539245D01*
X161462596Y-77539245D01*
X161462599Y-77539247D01*
X161670060Y-77619618D01*
X161888757Y-77660500D01*
X161888759Y-77660500D01*
X162111241Y-77660500D01*
X162111243Y-77660500D01*
X162329940Y-77619618D01*
X162537401Y-77539247D01*
X162726562Y-77422124D01*
X162884149Y-77278464D01*
X162890979Y-77272238D01*
X162900599Y-77259500D01*
X163025058Y-77094689D01*
X163124229Y-76895528D01*
X163185115Y-76681536D01*
X163205643Y-76460000D01*
X163185115Y-76238464D01*
X163124229Y-76024472D01*
X163115771Y-76007486D01*
X163025061Y-75825316D01*
X163025056Y-75825308D01*
X162890979Y-75647761D01*
X162726562Y-75497876D01*
X162726560Y-75497874D01*
X162537404Y-75380754D01*
X162537398Y-75380752D01*
X162329940Y-75300382D01*
X162111243Y-75259500D01*
X161888757Y-75259500D01*
X161670060Y-75300382D01*
X161558004Y-75343793D01*
X161462601Y-75380752D01*
X161462595Y-75380754D01*
X161273439Y-75497874D01*
X161273437Y-75497876D01*
X161109020Y-75647761D01*
X160974943Y-75825308D01*
X160974938Y-75825316D01*
X160875775Y-76024461D01*
X160875769Y-76024476D01*
X160814885Y-76238462D01*
X160814884Y-76238464D01*
X160794357Y-76459999D01*
X149086556Y-76459999D01*
X150196206Y-75053375D01*
X150205474Y-75042903D01*
X151661960Y-73573472D01*
X151672167Y-73564258D01*
X152307256Y-73052135D01*
X154059500Y-73052135D01*
X154059500Y-74947870D01*
X154059501Y-74947876D01*
X154065908Y-75007483D01*
X154116202Y-75142328D01*
X154116206Y-75142335D01*
X154202452Y-75257544D01*
X154202455Y-75257547D01*
X154317664Y-75343793D01*
X154317671Y-75343797D01*
X154452517Y-75394091D01*
X154452516Y-75394091D01*
X154459444Y-75394835D01*
X154512127Y-75400500D01*
X156407872Y-75400499D01*
X156467483Y-75394091D01*
X156602331Y-75343796D01*
X156717546Y-75257546D01*
X156803796Y-75142331D01*
X156854091Y-75007483D01*
X156860500Y-74947873D01*
X156860499Y-74837304D01*
X156880183Y-74770268D01*
X156896818Y-74749626D01*
X157557861Y-74088584D01*
X157580667Y-74173694D01*
X157639910Y-74276306D01*
X157723694Y-74360090D01*
X157826306Y-74419333D01*
X157911414Y-74442138D01*
X157201201Y-75152351D01*
X157231649Y-75176050D01*
X157435697Y-75286476D01*
X157435706Y-75286479D01*
X157655139Y-75361811D01*
X157883993Y-75400000D01*
X158116007Y-75400000D01*
X158344860Y-75361811D01*
X158564293Y-75286479D01*
X158564301Y-75286476D01*
X158768355Y-75176047D01*
X158798797Y-75152351D01*
X158798798Y-75152350D01*
X158088585Y-74442137D01*
X158173694Y-74419333D01*
X158276306Y-74360090D01*
X158360090Y-74276306D01*
X158419333Y-74173694D01*
X158442138Y-74088585D01*
X159151186Y-74797633D01*
X159235482Y-74668611D01*
X159328682Y-74456135D01*
X159385638Y-74231218D01*
X159400478Y-74052135D01*
X167324500Y-74052135D01*
X167324500Y-75947870D01*
X167324501Y-75947876D01*
X167330908Y-76007483D01*
X167381202Y-76142328D01*
X167381206Y-76142335D01*
X167467452Y-76257544D01*
X167467455Y-76257547D01*
X167582664Y-76343793D01*
X167582671Y-76343797D01*
X167717517Y-76394091D01*
X167717516Y-76394091D01*
X167724444Y-76394835D01*
X167777127Y-76400500D01*
X169672872Y-76400499D01*
X169732483Y-76394091D01*
X169867331Y-76343796D01*
X169982546Y-76257546D01*
X170068796Y-76142331D01*
X170119091Y-76007483D01*
X170125500Y-75947873D01*
X170125499Y-75837304D01*
X170145183Y-75770268D01*
X170161818Y-75749626D01*
X170822861Y-75088584D01*
X170845667Y-75173694D01*
X170904910Y-75276306D01*
X170988694Y-75360090D01*
X171091306Y-75419333D01*
X171176414Y-75442138D01*
X170466201Y-76152351D01*
X170496649Y-76176050D01*
X170700697Y-76286476D01*
X170700706Y-76286479D01*
X170920139Y-76361811D01*
X171148993Y-76400000D01*
X171381007Y-76400000D01*
X171609860Y-76361811D01*
X171829293Y-76286479D01*
X171829301Y-76286476D01*
X172033355Y-76176047D01*
X172063797Y-76152351D01*
X172063798Y-76152350D01*
X171353585Y-75442137D01*
X171438694Y-75419333D01*
X171541306Y-75360090D01*
X171625090Y-75276306D01*
X171684333Y-75173694D01*
X171707138Y-75088585D01*
X172416186Y-75797633D01*
X172500482Y-75668611D01*
X172593682Y-75456135D01*
X172650638Y-75231218D01*
X172669798Y-75000005D01*
X172669798Y-74999994D01*
X172650638Y-74768781D01*
X172593682Y-74543864D01*
X172500484Y-74331393D01*
X172416186Y-74202365D01*
X171707137Y-74911414D01*
X171684333Y-74826306D01*
X171625090Y-74723694D01*
X171541306Y-74639910D01*
X171438694Y-74580667D01*
X171353584Y-74557861D01*
X172063797Y-73847647D01*
X172063797Y-73847645D01*
X172033360Y-73823955D01*
X172033354Y-73823951D01*
X171829302Y-73713523D01*
X171829293Y-73713520D01*
X171609860Y-73638188D01*
X171381007Y-73600000D01*
X171148993Y-73600000D01*
X170920139Y-73638188D01*
X170700706Y-73713520D01*
X170700697Y-73713523D01*
X170496650Y-73823949D01*
X170466200Y-73847647D01*
X171176415Y-74557861D01*
X171091306Y-74580667D01*
X170988694Y-74639910D01*
X170904910Y-74723694D01*
X170845667Y-74826306D01*
X170822861Y-74911415D01*
X170161818Y-74250372D01*
X170128333Y-74189049D01*
X170125499Y-74162691D01*
X170125499Y-74052129D01*
X170125498Y-74052123D01*
X170125497Y-74052116D01*
X170119091Y-73992517D01*
X170102438Y-73947869D01*
X170068797Y-73857671D01*
X170068793Y-73857664D01*
X169982547Y-73742455D01*
X169982544Y-73742452D01*
X169867335Y-73656206D01*
X169867328Y-73656202D01*
X169732482Y-73605908D01*
X169732483Y-73605908D01*
X169672883Y-73599501D01*
X169672881Y-73599500D01*
X169672873Y-73599500D01*
X169672864Y-73599500D01*
X167777129Y-73599500D01*
X167777123Y-73599501D01*
X167717516Y-73605908D01*
X167582671Y-73656202D01*
X167582664Y-73656206D01*
X167467455Y-73742452D01*
X167467452Y-73742455D01*
X167381206Y-73857664D01*
X167381202Y-73857671D01*
X167330908Y-73992517D01*
X167324501Y-74052116D01*
X167324501Y-74052123D01*
X167324500Y-74052135D01*
X159400478Y-74052135D01*
X159404798Y-74000005D01*
X159404798Y-73999994D01*
X159385638Y-73768781D01*
X159328682Y-73543864D01*
X159235484Y-73331393D01*
X159151186Y-73202365D01*
X158442137Y-73911414D01*
X158419333Y-73826306D01*
X158360090Y-73723694D01*
X158276306Y-73639910D01*
X158173694Y-73580667D01*
X158088584Y-73557861D01*
X158798797Y-72847647D01*
X158798797Y-72847645D01*
X158768360Y-72823955D01*
X158768354Y-72823951D01*
X158564302Y-72713523D01*
X158564293Y-72713520D01*
X158344860Y-72638188D01*
X158116007Y-72600000D01*
X157883993Y-72600000D01*
X157655139Y-72638188D01*
X157435706Y-72713520D01*
X157435697Y-72713523D01*
X157231650Y-72823949D01*
X157201200Y-72847647D01*
X157911415Y-73557861D01*
X157826306Y-73580667D01*
X157723694Y-73639910D01*
X157639910Y-73723694D01*
X157580667Y-73826306D01*
X157557861Y-73911415D01*
X156896818Y-73250372D01*
X156863333Y-73189049D01*
X156860499Y-73162691D01*
X156860499Y-73052129D01*
X156860498Y-73052123D01*
X156860497Y-73052116D01*
X156854091Y-72992517D01*
X156840521Y-72956135D01*
X156803797Y-72857671D01*
X156803793Y-72857664D01*
X156717547Y-72742455D01*
X156717544Y-72742452D01*
X156602335Y-72656206D01*
X156602328Y-72656202D01*
X156467482Y-72605908D01*
X156467483Y-72605908D01*
X156407883Y-72599501D01*
X156407881Y-72599500D01*
X156407873Y-72599500D01*
X156407864Y-72599500D01*
X154512129Y-72599500D01*
X154512123Y-72599501D01*
X154452516Y-72605908D01*
X154317671Y-72656202D01*
X154317664Y-72656206D01*
X154202455Y-72742452D01*
X154202452Y-72742455D01*
X154116206Y-72857664D01*
X154116202Y-72857671D01*
X154065908Y-72992517D01*
X154059530Y-73051845D01*
X154059501Y-73052123D01*
X154059500Y-73052135D01*
X152307256Y-73052135D01*
X153283775Y-72264689D01*
X153295118Y-72256553D01*
X155031139Y-71154039D01*
X155043876Y-71146966D01*
X156281675Y-70552135D01*
X161324500Y-70552135D01*
X161324500Y-72447870D01*
X161324501Y-72447876D01*
X161330908Y-72507483D01*
X161381202Y-72642328D01*
X161381206Y-72642335D01*
X161467452Y-72757544D01*
X161467455Y-72757547D01*
X161582664Y-72843793D01*
X161582671Y-72843797D01*
X161717517Y-72894091D01*
X161717516Y-72894091D01*
X161724444Y-72894835D01*
X161777127Y-72900500D01*
X163672872Y-72900499D01*
X163732483Y-72894091D01*
X163867331Y-72843796D01*
X163982546Y-72757546D01*
X164068796Y-72642331D01*
X164119091Y-72507483D01*
X164125500Y-72447873D01*
X164125499Y-72337304D01*
X164145183Y-72270268D01*
X164161818Y-72249626D01*
X164822861Y-71588584D01*
X164845667Y-71673694D01*
X164904910Y-71776306D01*
X164988694Y-71860090D01*
X165091306Y-71919333D01*
X165176414Y-71942138D01*
X164466201Y-72652351D01*
X164496649Y-72676050D01*
X164700697Y-72786476D01*
X164700706Y-72786479D01*
X164920139Y-72861811D01*
X165148993Y-72900000D01*
X165381007Y-72900000D01*
X165609860Y-72861811D01*
X165829293Y-72786479D01*
X165829301Y-72786476D01*
X166033355Y-72676047D01*
X166063797Y-72652351D01*
X166063798Y-72652350D01*
X165353585Y-71942137D01*
X165438694Y-71919333D01*
X165541306Y-71860090D01*
X165625090Y-71776306D01*
X165684333Y-71673694D01*
X165707138Y-71588585D01*
X166416186Y-72297633D01*
X166500482Y-72168611D01*
X166593682Y-71956135D01*
X166650638Y-71731218D01*
X166669798Y-71500005D01*
X166669798Y-71499994D01*
X166650638Y-71268781D01*
X166593682Y-71043864D01*
X166500484Y-70831393D01*
X166416186Y-70702365D01*
X165707137Y-71411414D01*
X165684333Y-71326306D01*
X165625090Y-71223694D01*
X165541306Y-71139910D01*
X165438694Y-71080667D01*
X165353584Y-71057861D01*
X166063797Y-70347647D01*
X166063797Y-70347645D01*
X166033360Y-70323955D01*
X166033354Y-70323951D01*
X165829302Y-70213523D01*
X165829293Y-70213520D01*
X165609860Y-70138188D01*
X165381007Y-70100000D01*
X165148993Y-70100000D01*
X164920139Y-70138188D01*
X164700706Y-70213520D01*
X164700697Y-70213523D01*
X164496650Y-70323949D01*
X164466200Y-70347647D01*
X165176415Y-71057861D01*
X165091306Y-71080667D01*
X164988694Y-71139910D01*
X164904910Y-71223694D01*
X164845667Y-71326306D01*
X164822861Y-71411415D01*
X164161818Y-70750372D01*
X164128333Y-70689049D01*
X164125499Y-70662691D01*
X164125499Y-70552129D01*
X164125498Y-70552123D01*
X164125497Y-70552116D01*
X164119091Y-70492517D01*
X164068796Y-70357669D01*
X164068795Y-70357668D01*
X164068793Y-70357664D01*
X163982547Y-70242455D01*
X163982544Y-70242452D01*
X163867335Y-70156206D01*
X163867328Y-70156202D01*
X163732482Y-70105908D01*
X163732483Y-70105908D01*
X163672883Y-70099501D01*
X163672881Y-70099500D01*
X163672873Y-70099500D01*
X163672864Y-70099500D01*
X161777129Y-70099500D01*
X161777123Y-70099501D01*
X161717516Y-70105908D01*
X161582671Y-70156202D01*
X161582664Y-70156206D01*
X161467455Y-70242452D01*
X161467452Y-70242455D01*
X161381206Y-70357664D01*
X161381202Y-70357671D01*
X161330908Y-70492517D01*
X161324501Y-70552116D01*
X161324501Y-70552123D01*
X161324500Y-70552135D01*
X156281675Y-70552135D01*
X156873205Y-70267872D01*
X156887707Y-70261999D01*
X156938543Y-70245057D01*
X158776407Y-69632555D01*
X158794078Y-69628079D01*
X161355841Y-69176548D01*
X161375185Y-69174686D01*
X163954407Y-69129551D01*
X163973106Y-69130639D01*
G37*
%TD.AperFunction*%
%TD*%
M02*
