%TF.GenerationSoftware,KiCad,Pcbnew,8.0.5*%
%TF.CreationDate,2024-12-26T15:01:40+03:00*%
%TF.ProjectId,LM386_Audio_Amplifier,4c4d3338-365f-4417-9564-696f5f416d70,v01*%
%TF.SameCoordinates,Original*%
%TF.FileFunction,Copper,L1,Top*%
%TF.FilePolarity,Positive*%
%FSLAX46Y46*%
G04 Gerber Fmt 4.6, Leading zero omitted, Abs format (unit mm)*
G04 Created by KiCad (PCBNEW 8.0.5) date 2024-12-26 15:01:40*
%MOMM*%
%LPD*%
G01*
G04 APERTURE LIST*
%TA.AperFunction,ComponentPad*%
%ADD10C,1.440000*%
%TD*%
%TA.AperFunction,ComponentPad*%
%ADD11R,2.600000X2.600000*%
%TD*%
%TA.AperFunction,ComponentPad*%
%ADD12C,2.600000*%
%TD*%
%TA.AperFunction,ComponentPad*%
%ADD13R,1.600000X1.600000*%
%TD*%
%TA.AperFunction,ComponentPad*%
%ADD14C,1.600000*%
%TD*%
%TA.AperFunction,ComponentPad*%
%ADD15C,1.400000*%
%TD*%
%TA.AperFunction,ComponentPad*%
%ADD16O,1.400000X1.400000*%
%TD*%
%TA.AperFunction,ComponentPad*%
%ADD17R,1.200000X1.200000*%
%TD*%
%TA.AperFunction,ComponentPad*%
%ADD18C,1.200000*%
%TD*%
%TA.AperFunction,Conductor*%
%ADD19C,0.300000*%
%TD*%
%TA.AperFunction,Conductor*%
%ADD20C,0.762000*%
%TD*%
G04 APERTURE END LIST*
D10*
%TO.P,POT,1,1*%
%TO.N,Net-(C2-Pad2)*%
X117920000Y-60000000D03*
%TO.P,POT,2,2*%
%TO.N,Net-(U1-+)*%
X120460000Y-60000000D03*
%TO.P,POT,3,3*%
%TO.N,GND*%
X123000000Y-60000000D03*
%TD*%
D11*
%TO.P,J2,1,Pin_1*%
%TO.N,GND*%
X147545000Y-60695000D03*
D12*
%TO.P,J2,2,Pin_2*%
%TO.N,VCC*%
X142465000Y-60695000D03*
%TD*%
D13*
%TO.P,LM386,1,GAIN*%
%TO.N,Net-(C4-Pad2)*%
X123690000Y-72700000D03*
D14*
%TO.P,LM386,2,-*%
%TO.N,GND*%
X123690000Y-75240000D03*
%TO.P,LM386,3,+*%
%TO.N,Net-(U1-+)*%
X123690000Y-77780000D03*
%TO.P,LM386,4,GND*%
%TO.N,GND*%
X123690000Y-80320000D03*
%TO.P,LM386,5*%
%TO.N,Net-(C1-Pad1)*%
X131310000Y-80320000D03*
%TO.P,LM386,6,V+*%
%TO.N,VCC*%
X131310000Y-77780000D03*
%TO.P,LM386,7,BYPASS*%
%TO.N,Net-(U1-BYPASS)*%
X131310000Y-75240000D03*
%TO.P,LM386,8,GAIN*%
%TO.N,Net-(C4-Pad1)*%
X131310000Y-72700000D03*
%TD*%
D15*
%TO.P,R2,1*%
%TO.N,Net-(C1-Pad2)*%
X141115000Y-68965000D03*
D16*
%TO.P,R2,2*%
%TO.N,GND*%
X148735000Y-68965000D03*
%TD*%
D15*
%TO.P,R1,1*%
%TO.N,VCC*%
X122310000Y-84500000D03*
D16*
%TO.P,R1,2*%
%TO.N,Net-(J3-Pin_2)*%
X114690000Y-84500000D03*
%TD*%
D11*
%TO.P,J3,1,Pin_1*%
%TO.N,GND*%
X114500000Y-74500000D03*
D12*
%TO.P,J3,2,Pin_2*%
%TO.N,Net-(J3-Pin_2)*%
X114500000Y-79580000D03*
%TD*%
D11*
%TO.P,J1,1,Pin_1*%
%TO.N,Net-(J1-Pin_1)*%
X146805000Y-79045000D03*
D12*
%TO.P,J1,2,Pin_2*%
%TO.N,GND*%
X146805000Y-73965000D03*
%TD*%
D17*
%TO.P,C5,1*%
%TO.N,Net-(U1-BYPASS)*%
X130000000Y-68000000D03*
D18*
%TO.P,C5,2*%
%TO.N,GND*%
X128500000Y-68000000D03*
%TD*%
D17*
%TO.P,C4,1*%
%TO.N,Net-(C4-Pad1)*%
X123500000Y-69000000D03*
D18*
%TO.P,C4,2*%
%TO.N,Net-(C4-Pad2)*%
X123500000Y-67500000D03*
%TD*%
D13*
%TO.P,C3,1*%
%TO.N,Net-(C1-Pad1)*%
X136305000Y-79465000D03*
D14*
%TO.P,C3,2*%
%TO.N,Net-(J1-Pin_1)*%
X138805000Y-79465000D03*
%TD*%
D13*
%TO.P,C2,1*%
%TO.N,Net-(J3-Pin_2)*%
X115794888Y-68500000D03*
D14*
%TO.P,C2,2*%
%TO.N,Net-(C2-Pad2)*%
X118294888Y-68500000D03*
%TD*%
D17*
%TO.P,C1,1*%
%TO.N,Net-(C1-Pad1)*%
X136805000Y-74465000D03*
D18*
%TO.P,C1,2*%
%TO.N,Net-(C1-Pad2)*%
X136805000Y-72965000D03*
%TD*%
D19*
%TO.N,Net-(C4-Pad1)*%
X131310000Y-70190000D02*
X131310000Y-72700000D01*
X132500000Y-69000000D02*
X131310000Y-70190000D01*
X131500000Y-65500000D02*
X132500000Y-66500000D01*
X127000000Y-65500000D02*
X131500000Y-65500000D01*
X132500000Y-66500000D02*
X132500000Y-69000000D01*
X123500000Y-69000000D02*
X127000000Y-65500000D01*
%TO.N,Net-(C4-Pad2)*%
X122651472Y-67500000D02*
X123500000Y-67500000D01*
X121500000Y-68651472D02*
X122651472Y-67500000D01*
X121500000Y-70510000D02*
X121500000Y-68651472D01*
X123690000Y-72700000D02*
X121500000Y-70510000D01*
%TO.N,Net-(U1-BYPASS)*%
X128500000Y-74000000D02*
X129740000Y-75240000D01*
X128500000Y-71000000D02*
X128500000Y-74000000D01*
X129740000Y-75240000D02*
X131310000Y-75240000D01*
X130000000Y-68000000D02*
X130000000Y-69500000D01*
X130000000Y-69500000D02*
X128500000Y-71000000D01*
D20*
%TO.N,Net-(J3-Pin_2)*%
X111500000Y-76580000D02*
X114500000Y-79580000D01*
X111500000Y-70000000D02*
X111500000Y-76580000D01*
X113000000Y-68500000D02*
X111500000Y-70000000D01*
X115794888Y-68500000D02*
X113000000Y-68500000D01*
X114690000Y-79770000D02*
X114500000Y-79580000D01*
X114690000Y-84500000D02*
X114690000Y-79770000D01*
D19*
%TO.N,Net-(U1-+)*%
X120460000Y-74550000D02*
X123690000Y-77780000D01*
X120460000Y-60000000D02*
X120460000Y-74550000D01*
%TO.N,Net-(C2-Pad2)*%
X118294888Y-60374888D02*
X117920000Y-60000000D01*
X118294888Y-68500000D02*
X118294888Y-60374888D01*
%TO.N,Net-(C1-Pad1)*%
X135450000Y-80320000D02*
X136305000Y-79465000D01*
X131310000Y-80320000D02*
X135450000Y-80320000D01*
X136305000Y-74965000D02*
X136805000Y-74465000D01*
X136305000Y-79465000D02*
X136305000Y-74965000D01*
%TO.N,Net-(C1-Pad2)*%
X140805000Y-68965000D02*
X141115000Y-68965000D01*
X136805000Y-72965000D02*
X140805000Y-68965000D01*
%TO.N,Net-(J1-Pin_1)*%
X139225000Y-79045000D02*
X138805000Y-79465000D01*
X146805000Y-79045000D02*
X139225000Y-79045000D01*
D20*
%TO.N,VCC*%
X124590000Y-84500000D02*
X122310000Y-84500000D01*
X131310000Y-77780000D02*
X124590000Y-84500000D01*
X133500000Y-69660000D02*
X142465000Y-60695000D01*
X133500000Y-76500000D02*
X133500000Y-69660000D01*
X132220000Y-77780000D02*
X133500000Y-76500000D01*
X131310000Y-77780000D02*
X132220000Y-77780000D01*
%TD*%
%TA.AperFunction,Conductor*%
%TO.N,GND*%
G36*
X121315703Y-71246095D02*
G01*
X121322181Y-71252127D01*
X122353181Y-72283127D01*
X122386666Y-72344450D01*
X122389500Y-72370808D01*
X122389500Y-73547870D01*
X122389501Y-73547876D01*
X122395908Y-73607483D01*
X122446202Y-73742328D01*
X122446206Y-73742335D01*
X122532452Y-73857544D01*
X122532455Y-73857547D01*
X122647664Y-73943793D01*
X122647671Y-73943797D01*
X122692618Y-73960561D01*
X122782517Y-73994091D01*
X122842127Y-74000500D01*
X122843218Y-74000499D01*
X122843460Y-74000571D01*
X122845453Y-74000678D01*
X122845427Y-74001148D01*
X122910259Y-74020168D01*
X122956026Y-74072962D01*
X122966771Y-74135305D01*
X122964525Y-74160973D01*
X123560590Y-74757037D01*
X123497007Y-74774075D01*
X123382993Y-74839901D01*
X123289901Y-74932993D01*
X123224075Y-75047007D01*
X123207037Y-75110590D01*
X122610974Y-74514526D01*
X122610973Y-74514526D01*
X122559868Y-74587512D01*
X122559866Y-74587516D01*
X122463734Y-74793673D01*
X122463730Y-74793682D01*
X122404860Y-75013389D01*
X122404858Y-75013400D01*
X122385034Y-75239997D01*
X122385034Y-75239999D01*
X122385551Y-75245913D01*
X122371780Y-75314413D01*
X122323162Y-75364593D01*
X122255133Y-75380522D01*
X122189290Y-75357144D01*
X122174341Y-75344395D01*
X121146819Y-74316873D01*
X121113334Y-74255550D01*
X121110500Y-74229192D01*
X121110500Y-71339808D01*
X121130185Y-71272769D01*
X121182989Y-71227014D01*
X121252147Y-71217070D01*
X121315703Y-71246095D01*
G37*
%TD.AperFunction*%
%TA.AperFunction,Conductor*%
G36*
X158942539Y-51020185D02*
G01*
X158988294Y-51072989D01*
X158999500Y-51124500D01*
X158999500Y-91875500D01*
X158979815Y-91942539D01*
X158927011Y-91988294D01*
X158875500Y-91999500D01*
X104624500Y-91999500D01*
X104557461Y-91979815D01*
X104511706Y-91927011D01*
X104500500Y-91875500D01*
X104500500Y-88381902D01*
X106499500Y-88381902D01*
X106499500Y-88618097D01*
X106536446Y-88851368D01*
X106609433Y-89075996D01*
X106716657Y-89286433D01*
X106855483Y-89477510D01*
X107022490Y-89644517D01*
X107213567Y-89783343D01*
X107312991Y-89834002D01*
X107424003Y-89890566D01*
X107424005Y-89890566D01*
X107424008Y-89890568D01*
X107544412Y-89929689D01*
X107648631Y-89963553D01*
X107881903Y-90000500D01*
X107881908Y-90000500D01*
X108118097Y-90000500D01*
X108351368Y-89963553D01*
X108575992Y-89890568D01*
X108786433Y-89783343D01*
X108977510Y-89644517D01*
X109144517Y-89477510D01*
X109283343Y-89286433D01*
X109390568Y-89075992D01*
X109463553Y-88851368D01*
X109500500Y-88618097D01*
X109500500Y-88381902D01*
X153999500Y-88381902D01*
X153999500Y-88618097D01*
X154036446Y-88851368D01*
X154109433Y-89075996D01*
X154216657Y-89286433D01*
X154355483Y-89477510D01*
X154522490Y-89644517D01*
X154713567Y-89783343D01*
X154812991Y-89834002D01*
X154924003Y-89890566D01*
X154924005Y-89890566D01*
X154924008Y-89890568D01*
X155044412Y-89929689D01*
X155148631Y-89963553D01*
X155381903Y-90000500D01*
X155381908Y-90000500D01*
X155618097Y-90000500D01*
X155851368Y-89963553D01*
X156075992Y-89890568D01*
X156286433Y-89783343D01*
X156477510Y-89644517D01*
X156644517Y-89477510D01*
X156783343Y-89286433D01*
X156890568Y-89075992D01*
X156963553Y-88851368D01*
X157000500Y-88618097D01*
X157000500Y-88381902D01*
X156963553Y-88148631D01*
X156890566Y-87924003D01*
X156783342Y-87713566D01*
X156644517Y-87522490D01*
X156477510Y-87355483D01*
X156286433Y-87216657D01*
X156075996Y-87109433D01*
X155851368Y-87036446D01*
X155618097Y-86999500D01*
X155618092Y-86999500D01*
X155381908Y-86999500D01*
X155381903Y-86999500D01*
X155148631Y-87036446D01*
X154924003Y-87109433D01*
X154713566Y-87216657D01*
X154604550Y-87295862D01*
X154522490Y-87355483D01*
X154522488Y-87355485D01*
X154522487Y-87355485D01*
X154355485Y-87522487D01*
X154355485Y-87522488D01*
X154355483Y-87522490D01*
X154295862Y-87604550D01*
X154216657Y-87713566D01*
X154109433Y-87924003D01*
X154036446Y-88148631D01*
X153999500Y-88381902D01*
X109500500Y-88381902D01*
X109463553Y-88148631D01*
X109390566Y-87924003D01*
X109283342Y-87713566D01*
X109144517Y-87522490D01*
X108977510Y-87355483D01*
X108786433Y-87216657D01*
X108575996Y-87109433D01*
X108351368Y-87036446D01*
X108118097Y-86999500D01*
X108118092Y-86999500D01*
X107881908Y-86999500D01*
X107881903Y-86999500D01*
X107648631Y-87036446D01*
X107424003Y-87109433D01*
X107213566Y-87216657D01*
X107104550Y-87295862D01*
X107022490Y-87355483D01*
X107022488Y-87355485D01*
X107022487Y-87355485D01*
X106855485Y-87522487D01*
X106855485Y-87522488D01*
X106855483Y-87522490D01*
X106795862Y-87604550D01*
X106716657Y-87713566D01*
X106609433Y-87924003D01*
X106536446Y-88148631D01*
X106499500Y-88381902D01*
X104500500Y-88381902D01*
X104500500Y-76666823D01*
X110618499Y-76666823D01*
X110652374Y-76837118D01*
X110652377Y-76837128D01*
X110718822Y-76997543D01*
X110815295Y-77141926D01*
X110815296Y-77141927D01*
X112716265Y-79042895D01*
X112749750Y-79104218D01*
X112749475Y-79158168D01*
X112714616Y-79310896D01*
X112714616Y-79310898D01*
X112694451Y-79579995D01*
X112694451Y-79580004D01*
X112714616Y-79849101D01*
X112774664Y-80112188D01*
X112774666Y-80112195D01*
X112850874Y-80306369D01*
X112873257Y-80363398D01*
X113008185Y-80597102D01*
X113097259Y-80708797D01*
X113176442Y-80808089D01*
X113361452Y-80979752D01*
X113374259Y-80991635D01*
X113597226Y-81143651D01*
X113597231Y-81143653D01*
X113597232Y-81143654D01*
X113597233Y-81143655D01*
X113738301Y-81211589D01*
X113790161Y-81258411D01*
X113808500Y-81323309D01*
X113808500Y-83633649D01*
X113788815Y-83700688D01*
X113783454Y-83708376D01*
X113664943Y-83865308D01*
X113664938Y-83865316D01*
X113565775Y-84064461D01*
X113565769Y-84064476D01*
X113504885Y-84278462D01*
X113504884Y-84278464D01*
X113484357Y-84499999D01*
X113484357Y-84500000D01*
X113504884Y-84721535D01*
X113504885Y-84721537D01*
X113565769Y-84935523D01*
X113565775Y-84935538D01*
X113664938Y-85134683D01*
X113664943Y-85134691D01*
X113799020Y-85312238D01*
X113963437Y-85462123D01*
X113963439Y-85462125D01*
X114152595Y-85579245D01*
X114152596Y-85579245D01*
X114152599Y-85579247D01*
X114360060Y-85659618D01*
X114578757Y-85700500D01*
X114578759Y-85700500D01*
X114801241Y-85700500D01*
X114801243Y-85700500D01*
X115019940Y-85659618D01*
X115227401Y-85579247D01*
X115416562Y-85462124D01*
X115580981Y-85312236D01*
X115715058Y-85134689D01*
X115814229Y-84935528D01*
X115875115Y-84721536D01*
X115895643Y-84500000D01*
X115875115Y-84278464D01*
X115814229Y-84064472D01*
X115814224Y-84064461D01*
X115715061Y-83865316D01*
X115715056Y-83865308D01*
X115596546Y-83708376D01*
X115571854Y-83643015D01*
X115571500Y-83633649D01*
X115571500Y-81094151D01*
X115591185Y-81027112D01*
X115622469Y-80994969D01*
X115622116Y-80994526D01*
X115625621Y-80991730D01*
X115625662Y-80991688D01*
X115625741Y-80991635D01*
X115790144Y-80839091D01*
X115823557Y-80808089D01*
X115823557Y-80808087D01*
X115823561Y-80808085D01*
X115991815Y-80597102D01*
X116126743Y-80363398D01*
X116225334Y-80112195D01*
X116285383Y-79849103D01*
X116298842Y-79669500D01*
X116305549Y-79580004D01*
X116305549Y-79579995D01*
X116285383Y-79310898D01*
X116285383Y-79310896D01*
X116225334Y-79047805D01*
X116126743Y-78796602D01*
X115991815Y-78562898D01*
X115823561Y-78351915D01*
X115823560Y-78351914D01*
X115823557Y-78351910D01*
X115625741Y-78168365D01*
X115603636Y-78153294D01*
X115402775Y-78016349D01*
X115402771Y-78016347D01*
X115402768Y-78016345D01*
X115402767Y-78016344D01*
X115159643Y-77899263D01*
X115159645Y-77899263D01*
X114901773Y-77819720D01*
X114901767Y-77819718D01*
X114634936Y-77779500D01*
X114634929Y-77779500D01*
X114365071Y-77779500D01*
X114365063Y-77779500D01*
X114098231Y-77819718D01*
X114084118Y-77824072D01*
X114014255Y-77825020D01*
X113959890Y-77793261D01*
X112417819Y-76251189D01*
X112384334Y-76189866D01*
X112381500Y-76163508D01*
X112381500Y-73152155D01*
X112700000Y-73152155D01*
X112700000Y-74250000D01*
X113899999Y-74250000D01*
X113874979Y-74310402D01*
X113850000Y-74435981D01*
X113850000Y-74564019D01*
X113874979Y-74689598D01*
X113899999Y-74750000D01*
X112700000Y-74750000D01*
X112700000Y-75847844D01*
X112706401Y-75907372D01*
X112706403Y-75907379D01*
X112756645Y-76042086D01*
X112756649Y-76042093D01*
X112842809Y-76157187D01*
X112842812Y-76157190D01*
X112957906Y-76243350D01*
X112957913Y-76243354D01*
X113092620Y-76293596D01*
X113092627Y-76293598D01*
X113152155Y-76299999D01*
X113152172Y-76300000D01*
X114250000Y-76300000D01*
X114250000Y-75100001D01*
X114310402Y-75125021D01*
X114435981Y-75150000D01*
X114564019Y-75150000D01*
X114689598Y-75125021D01*
X114750000Y-75100001D01*
X114750000Y-76300000D01*
X115847828Y-76300000D01*
X115847844Y-76299999D01*
X115907372Y-76293598D01*
X115907379Y-76293596D01*
X116042086Y-76243354D01*
X116042093Y-76243350D01*
X116157187Y-76157190D01*
X116157190Y-76157187D01*
X116243350Y-76042093D01*
X116243354Y-76042086D01*
X116293596Y-75907379D01*
X116293598Y-75907372D01*
X116299999Y-75847844D01*
X116300000Y-75847827D01*
X116300000Y-74750000D01*
X115100001Y-74750000D01*
X115125021Y-74689598D01*
X115150000Y-74564019D01*
X115150000Y-74435981D01*
X115125021Y-74310402D01*
X115100001Y-74250000D01*
X116300000Y-74250000D01*
X116300000Y-73152172D01*
X116299999Y-73152155D01*
X116293598Y-73092627D01*
X116293596Y-73092620D01*
X116243354Y-72957913D01*
X116243350Y-72957906D01*
X116157190Y-72842812D01*
X116157187Y-72842809D01*
X116042093Y-72756649D01*
X116042086Y-72756645D01*
X115907379Y-72706403D01*
X115907372Y-72706401D01*
X115847844Y-72700000D01*
X114750000Y-72700000D01*
X114750000Y-73899998D01*
X114689598Y-73874979D01*
X114564019Y-73850000D01*
X114435981Y-73850000D01*
X114310402Y-73874979D01*
X114250000Y-73899998D01*
X114250000Y-72700000D01*
X113152155Y-72700000D01*
X113092627Y-72706401D01*
X113092620Y-72706403D01*
X112957913Y-72756645D01*
X112957906Y-72756649D01*
X112842812Y-72842809D01*
X112842809Y-72842812D01*
X112756649Y-72957906D01*
X112756645Y-72957913D01*
X112706403Y-73092620D01*
X112706401Y-73092627D01*
X112700000Y-73152155D01*
X112381500Y-73152155D01*
X112381500Y-70416491D01*
X112401185Y-70349452D01*
X112417819Y-70328810D01*
X113328810Y-69417819D01*
X113390133Y-69384334D01*
X113416491Y-69381500D01*
X114405010Y-69381500D01*
X114472049Y-69401185D01*
X114517804Y-69453989D01*
X114521192Y-69462167D01*
X114551090Y-69542328D01*
X114551094Y-69542335D01*
X114637340Y-69657544D01*
X114637343Y-69657547D01*
X114752552Y-69743793D01*
X114752559Y-69743797D01*
X114887405Y-69794091D01*
X114887404Y-69794091D01*
X114894332Y-69794835D01*
X114947015Y-69800500D01*
X116642760Y-69800499D01*
X116702371Y-69794091D01*
X116837219Y-69743796D01*
X116952434Y-69657546D01*
X117038684Y-69542331D01*
X117088979Y-69407483D01*
X117088980Y-69407472D01*
X117090253Y-69402088D01*
X117124821Y-69341369D01*
X117186729Y-69308978D01*
X117256321Y-69315199D01*
X117298613Y-69342912D01*
X117455746Y-69500045D01*
X117455749Y-69500047D01*
X117642154Y-69630568D01*
X117848392Y-69726739D01*
X118068196Y-69785635D01*
X118230118Y-69799801D01*
X118294886Y-69805468D01*
X118294888Y-69805468D01*
X118294890Y-69805468D01*
X118351695Y-69800498D01*
X118521580Y-69785635D01*
X118741384Y-69726739D01*
X118947622Y-69630568D01*
X119134027Y-69500047D01*
X119294935Y-69339139D01*
X119425456Y-69152734D01*
X119521627Y-68946496D01*
X119565725Y-68781918D01*
X119602090Y-68722258D01*
X119664937Y-68691729D01*
X119734312Y-68700024D01*
X119788190Y-68744509D01*
X119809465Y-68811061D01*
X119809500Y-68814012D01*
X119809500Y-74614069D01*
X119809500Y-74614071D01*
X119809499Y-74614071D01*
X119833500Y-74734724D01*
X119834498Y-74739743D01*
X119883532Y-74858123D01*
X119954726Y-74964673D01*
X119954727Y-74964674D01*
X122383115Y-77393061D01*
X122416600Y-77454384D01*
X122415209Y-77512834D01*
X122404367Y-77553299D01*
X122404364Y-77553313D01*
X122384532Y-77779998D01*
X122384532Y-77780001D01*
X122404364Y-78006686D01*
X122404366Y-78006697D01*
X122463258Y-78226488D01*
X122463261Y-78226497D01*
X122559431Y-78432732D01*
X122559432Y-78432734D01*
X122689954Y-78619141D01*
X122850858Y-78780045D01*
X122850861Y-78780047D01*
X123037266Y-78910568D01*
X123095865Y-78937893D01*
X123148305Y-78984065D01*
X123167457Y-79051258D01*
X123147242Y-79118139D01*
X123095867Y-79162657D01*
X123037513Y-79189868D01*
X123037512Y-79189868D01*
X122964526Y-79240973D01*
X122964526Y-79240974D01*
X123560590Y-79837037D01*
X123497007Y-79854075D01*
X123382993Y-79919901D01*
X123289901Y-80012993D01*
X123224075Y-80127007D01*
X123207037Y-80190589D01*
X122610974Y-79594526D01*
X122610973Y-79594526D01*
X122559868Y-79667512D01*
X122559866Y-79667516D01*
X122463734Y-79873673D01*
X122463730Y-79873682D01*
X122404860Y-80093389D01*
X122404858Y-80093400D01*
X122385034Y-80319997D01*
X122385034Y-80320002D01*
X122404858Y-80546599D01*
X122404860Y-80546610D01*
X122463730Y-80766317D01*
X122463735Y-80766331D01*
X122559863Y-80972478D01*
X122610974Y-81045472D01*
X123207037Y-80449409D01*
X123224075Y-80512993D01*
X123289901Y-80627007D01*
X123382993Y-80720099D01*
X123497007Y-80785925D01*
X123560590Y-80802962D01*
X122964526Y-81399025D01*
X123037513Y-81450132D01*
X123037521Y-81450136D01*
X123243668Y-81546264D01*
X123243682Y-81546269D01*
X123463389Y-81605139D01*
X123463400Y-81605141D01*
X123689998Y-81624966D01*
X123690002Y-81624966D01*
X123916599Y-81605141D01*
X123916610Y-81605139D01*
X124136317Y-81546269D01*
X124136331Y-81546264D01*
X124342478Y-81450136D01*
X124415471Y-81399024D01*
X123819409Y-80802962D01*
X123882993Y-80785925D01*
X123997007Y-80720099D01*
X124090099Y-80627007D01*
X124155925Y-80512993D01*
X124172962Y-80449409D01*
X124769024Y-81045471D01*
X124820136Y-80972478D01*
X124916264Y-80766331D01*
X124916269Y-80766317D01*
X124975139Y-80546610D01*
X124975141Y-80546599D01*
X124994966Y-80320002D01*
X124994966Y-80319997D01*
X124975141Y-80093400D01*
X124975139Y-80093389D01*
X124916269Y-79873682D01*
X124916264Y-79873668D01*
X124820136Y-79667521D01*
X124820132Y-79667513D01*
X124769025Y-79594526D01*
X124172962Y-80190589D01*
X124155925Y-80127007D01*
X124090099Y-80012993D01*
X123997007Y-79919901D01*
X123882993Y-79854075D01*
X123819410Y-79837037D01*
X124415472Y-79240974D01*
X124342480Y-79189864D01*
X124284134Y-79162657D01*
X124231695Y-79116484D01*
X124212543Y-79049291D01*
X124232759Y-78982410D01*
X124284134Y-78937893D01*
X124342734Y-78910568D01*
X124529139Y-78780047D01*
X124690047Y-78619139D01*
X124820568Y-78432734D01*
X124916739Y-78226496D01*
X124975635Y-78006692D01*
X124995468Y-77780000D01*
X124975635Y-77553308D01*
X124916739Y-77333504D01*
X124820568Y-77127266D01*
X124690047Y-76940861D01*
X124690045Y-76940858D01*
X124529141Y-76779954D01*
X124361414Y-76662512D01*
X124342734Y-76649432D01*
X124284132Y-76622105D01*
X124231694Y-76575933D01*
X124212543Y-76508739D01*
X124232759Y-76441858D01*
X124284135Y-76397341D01*
X124342482Y-76370133D01*
X124415471Y-76319024D01*
X123819409Y-75722962D01*
X123882993Y-75705925D01*
X123997007Y-75640099D01*
X124090099Y-75547007D01*
X124155925Y-75432993D01*
X124172962Y-75369409D01*
X124769024Y-75965471D01*
X124820136Y-75892478D01*
X124916264Y-75686331D01*
X124916269Y-75686317D01*
X124975139Y-75466610D01*
X124975141Y-75466599D01*
X124994966Y-75240002D01*
X124994966Y-75239997D01*
X124975141Y-75013400D01*
X124975139Y-75013389D01*
X124916269Y-74793682D01*
X124916264Y-74793668D01*
X124820136Y-74587521D01*
X124820132Y-74587513D01*
X124769025Y-74514526D01*
X124172962Y-75110589D01*
X124155925Y-75047007D01*
X124090099Y-74932993D01*
X123997007Y-74839901D01*
X123882993Y-74774075D01*
X123819410Y-74757037D01*
X124415472Y-74160974D01*
X124413227Y-74135306D01*
X124426994Y-74066806D01*
X124475609Y-74016623D01*
X124534585Y-74001071D01*
X124534576Y-74000900D01*
X124534571Y-74000854D01*
X124534573Y-74000853D01*
X124534564Y-74000676D01*
X124536470Y-74000573D01*
X124536754Y-74000499D01*
X124537872Y-74000499D01*
X124597483Y-73994091D01*
X124732331Y-73943796D01*
X124847546Y-73857546D01*
X124933796Y-73742331D01*
X124984091Y-73607483D01*
X124990500Y-73547873D01*
X124990499Y-71852128D01*
X124984091Y-71792517D01*
X124933796Y-71657669D01*
X124933795Y-71657668D01*
X124933793Y-71657664D01*
X124847547Y-71542455D01*
X124847544Y-71542452D01*
X124732335Y-71456206D01*
X124732328Y-71456202D01*
X124597482Y-71405908D01*
X124597483Y-71405908D01*
X124537883Y-71399501D01*
X124537881Y-71399500D01*
X124537873Y-71399500D01*
X124537865Y-71399500D01*
X123360808Y-71399500D01*
X123293769Y-71379815D01*
X123273127Y-71363181D01*
X122186819Y-70276873D01*
X122153334Y-70215550D01*
X122150500Y-70189192D01*
X122150500Y-68972279D01*
X122170185Y-68905240D01*
X122186815Y-68884602D01*
X122187820Y-68883596D01*
X122249142Y-68850113D01*
X122318834Y-68855097D01*
X122374767Y-68896969D01*
X122399184Y-68962433D01*
X122399500Y-68971279D01*
X122399500Y-69647870D01*
X122399501Y-69647876D01*
X122405908Y-69707483D01*
X122456202Y-69842328D01*
X122456206Y-69842335D01*
X122542452Y-69957544D01*
X122542455Y-69957547D01*
X122657664Y-70043793D01*
X122657671Y-70043797D01*
X122792517Y-70094091D01*
X122792516Y-70094091D01*
X122799444Y-70094835D01*
X122852127Y-70100500D01*
X124147872Y-70100499D01*
X124207483Y-70094091D01*
X124342331Y-70043796D01*
X124457546Y-69957546D01*
X124543796Y-69842331D01*
X124594091Y-69707483D01*
X124600500Y-69647873D01*
X124600499Y-68870806D01*
X124620183Y-68803768D01*
X124636813Y-68783131D01*
X125419946Y-67999999D01*
X127395287Y-67999999D01*
X127395287Y-68000000D01*
X127414096Y-68202989D01*
X127414097Y-68202992D01*
X127469883Y-68399063D01*
X127469886Y-68399069D01*
X127560751Y-68581551D01*
X127562533Y-68583911D01*
X128146446Y-68000000D01*
X127562533Y-67416087D01*
X127560755Y-67418442D01*
X127560754Y-67418443D01*
X127469886Y-67600930D01*
X127469883Y-67600936D01*
X127414097Y-67797007D01*
X127414096Y-67797010D01*
X127395287Y-67999999D01*
X125419946Y-67999999D01*
X127233127Y-66186819D01*
X127294450Y-66153334D01*
X127320808Y-66150500D01*
X131179192Y-66150500D01*
X131246231Y-66170185D01*
X131266873Y-66186819D01*
X131813181Y-66733127D01*
X131846666Y-66794450D01*
X131849500Y-66820808D01*
X131849500Y-68679191D01*
X131829815Y-68746230D01*
X131813181Y-68766872D01*
X130848794Y-69731258D01*
X130787471Y-69764743D01*
X130717779Y-69759759D01*
X130661846Y-69717887D01*
X130637429Y-69652423D01*
X130639495Y-69619389D01*
X130650500Y-69564069D01*
X130650500Y-69201439D01*
X130670185Y-69134400D01*
X130722989Y-69088645D01*
X130731168Y-69085257D01*
X130842326Y-69043798D01*
X130842326Y-69043797D01*
X130842331Y-69043796D01*
X130957546Y-68957546D01*
X131043796Y-68842331D01*
X131094091Y-68707483D01*
X131100500Y-68647873D01*
X131100499Y-67352128D01*
X131094091Y-67292517D01*
X131080546Y-67256202D01*
X131043797Y-67157671D01*
X131043793Y-67157664D01*
X130957547Y-67042455D01*
X130957544Y-67042452D01*
X130842335Y-66956206D01*
X130842328Y-66956202D01*
X130707482Y-66905908D01*
X130707483Y-66905908D01*
X130647883Y-66899501D01*
X130647881Y-66899500D01*
X130647873Y-66899500D01*
X130647864Y-66899500D01*
X129352129Y-66899500D01*
X129352123Y-66899501D01*
X129292516Y-66905908D01*
X129157671Y-66956202D01*
X129157665Y-66956205D01*
X129108004Y-66993381D01*
X129042539Y-67017797D01*
X128988902Y-67009740D01*
X128802324Y-66937460D01*
X128601928Y-66900000D01*
X128398072Y-66900000D01*
X128197678Y-66937460D01*
X128007588Y-67011100D01*
X128007581Y-67011104D01*
X127919312Y-67065757D01*
X127919311Y-67065758D01*
X128558698Y-67705145D01*
X128539496Y-67700000D01*
X128460504Y-67700000D01*
X128384204Y-67720444D01*
X128315795Y-67759940D01*
X128259940Y-67815795D01*
X128220444Y-67884204D01*
X128200000Y-67960504D01*
X128200000Y-68039496D01*
X128220444Y-68115796D01*
X128259940Y-68184205D01*
X128315795Y-68240060D01*
X128384204Y-68279556D01*
X128460504Y-68300000D01*
X128539496Y-68300000D01*
X128558695Y-68294855D01*
X127919311Y-68934240D01*
X128007585Y-68988897D01*
X128197678Y-69062539D01*
X128398072Y-69100000D01*
X128601928Y-69100000D01*
X128802326Y-69062538D01*
X128988902Y-68990259D01*
X129058525Y-68984396D01*
X129108005Y-69006617D01*
X129157665Y-69043793D01*
X129157668Y-69043795D01*
X129157671Y-69043797D01*
X129252628Y-69079214D01*
X129308562Y-69121085D01*
X129332979Y-69186550D01*
X129318127Y-69254823D01*
X129296976Y-69283077D01*
X127994727Y-70585325D01*
X127994721Y-70585332D01*
X127928323Y-70684706D01*
X127928323Y-70684708D01*
X127923533Y-70691875D01*
X127874499Y-70810255D01*
X127874497Y-70810261D01*
X127849500Y-70935928D01*
X127849500Y-70935931D01*
X127849500Y-74064069D01*
X127849500Y-74064071D01*
X127849499Y-74064071D01*
X127874497Y-74189738D01*
X127874499Y-74189744D01*
X127923535Y-74308127D01*
X127971125Y-74379351D01*
X127994726Y-74414673D01*
X129325325Y-75745272D01*
X129325332Y-75745278D01*
X129430115Y-75815291D01*
X129430116Y-75815291D01*
X129430122Y-75815295D01*
X129431873Y-75816465D01*
X129550256Y-75865501D01*
X129550260Y-75865501D01*
X129550261Y-75865502D01*
X129675928Y-75890500D01*
X129675931Y-75890500D01*
X130113317Y-75890500D01*
X130180356Y-75910185D01*
X130214892Y-75943377D01*
X130309954Y-76079141D01*
X130470858Y-76240045D01*
X130517693Y-76272839D01*
X130657266Y-76370568D01*
X130714681Y-76397341D01*
X130715275Y-76397618D01*
X130767714Y-76443791D01*
X130786866Y-76510984D01*
X130766650Y-76577865D01*
X130715275Y-76622382D01*
X130657267Y-76649431D01*
X130657265Y-76649432D01*
X130470858Y-76779954D01*
X130309954Y-76940858D01*
X130179432Y-77127265D01*
X130179431Y-77127267D01*
X130083261Y-77333502D01*
X130083258Y-77333511D01*
X130024366Y-77553302D01*
X130024364Y-77553313D01*
X130004532Y-77779998D01*
X130004532Y-77785413D01*
X130002446Y-77785413D01*
X129990432Y-77845052D01*
X129968378Y-77874990D01*
X124261189Y-83582181D01*
X124199866Y-83615666D01*
X124173508Y-83618500D01*
X123173040Y-83618500D01*
X123106001Y-83598815D01*
X123089502Y-83586137D01*
X123036562Y-83537876D01*
X123036560Y-83537874D01*
X122847404Y-83420754D01*
X122847398Y-83420752D01*
X122639940Y-83340382D01*
X122421243Y-83299500D01*
X122198757Y-83299500D01*
X121980060Y-83340382D01*
X121848864Y-83391207D01*
X121772601Y-83420752D01*
X121772595Y-83420754D01*
X121583439Y-83537874D01*
X121583437Y-83537876D01*
X121419020Y-83687761D01*
X121284943Y-83865308D01*
X121284938Y-83865316D01*
X121185775Y-84064461D01*
X121185769Y-84064476D01*
X121124885Y-84278462D01*
X121124884Y-84278464D01*
X121104357Y-84499999D01*
X121104357Y-84500000D01*
X121124884Y-84721535D01*
X121124885Y-84721537D01*
X121185769Y-84935523D01*
X121185775Y-84935538D01*
X121284938Y-85134683D01*
X121284943Y-85134691D01*
X121419020Y-85312238D01*
X121583437Y-85462123D01*
X121583439Y-85462125D01*
X121772595Y-85579245D01*
X121772596Y-85579245D01*
X121772599Y-85579247D01*
X121980060Y-85659618D01*
X122198757Y-85700500D01*
X122198759Y-85700500D01*
X122421241Y-85700500D01*
X122421243Y-85700500D01*
X122639940Y-85659618D01*
X122847401Y-85579247D01*
X123036562Y-85462124D01*
X123089502Y-85413863D01*
X123152306Y-85383246D01*
X123173040Y-85381500D01*
X124676823Y-85381500D01*
X124791393Y-85358709D01*
X124847124Y-85347624D01*
X124932559Y-85312236D01*
X125007543Y-85281177D01*
X125007544Y-85281176D01*
X125007547Y-85281175D01*
X125151924Y-85184706D01*
X129822958Y-80513670D01*
X129884279Y-80480187D01*
X129953971Y-80485171D01*
X130009904Y-80527043D01*
X130030412Y-80569260D01*
X130083258Y-80766488D01*
X130083261Y-80766497D01*
X130179431Y-80972732D01*
X130179432Y-80972734D01*
X130309954Y-81159141D01*
X130470858Y-81320045D01*
X130470861Y-81320047D01*
X130657266Y-81450568D01*
X130863504Y-81546739D01*
X131083308Y-81605635D01*
X131245230Y-81619801D01*
X131309998Y-81625468D01*
X131310000Y-81625468D01*
X131310002Y-81625468D01*
X131366673Y-81620509D01*
X131536692Y-81605635D01*
X131756496Y-81546739D01*
X131962734Y-81450568D01*
X132149139Y-81320047D01*
X132310047Y-81159139D01*
X132389637Y-81045472D01*
X132405108Y-81023377D01*
X132459685Y-80979752D01*
X132506683Y-80970500D01*
X135514071Y-80970500D01*
X135598615Y-80953682D01*
X135639744Y-80945501D01*
X135758127Y-80896465D01*
X135864669Y-80825277D01*
X135888128Y-80801818D01*
X135949451Y-80768333D01*
X135975809Y-80765499D01*
X137152871Y-80765499D01*
X137152872Y-80765499D01*
X137212483Y-80759091D01*
X137347331Y-80708796D01*
X137462546Y-80622546D01*
X137548796Y-80507331D01*
X137599091Y-80372483D01*
X137599092Y-80372472D01*
X137600365Y-80367088D01*
X137634933Y-80306369D01*
X137696841Y-80273978D01*
X137766433Y-80280199D01*
X137808725Y-80307912D01*
X137965858Y-80465045D01*
X137965861Y-80465047D01*
X138152266Y-80595568D01*
X138358504Y-80691739D01*
X138578308Y-80750635D01*
X138740230Y-80764801D01*
X138804998Y-80770468D01*
X138805000Y-80770468D01*
X138805002Y-80770468D01*
X138861807Y-80765498D01*
X139031692Y-80750635D01*
X139251496Y-80691739D01*
X139457734Y-80595568D01*
X139644139Y-80465047D01*
X139805047Y-80304139D01*
X139935568Y-80117734D01*
X140031739Y-79911496D01*
X140064989Y-79787406D01*
X140101354Y-79727746D01*
X140164201Y-79697217D01*
X140184764Y-79695500D01*
X144880501Y-79695500D01*
X144947540Y-79715185D01*
X144993295Y-79767989D01*
X145004501Y-79819500D01*
X145004501Y-80392876D01*
X145010908Y-80452483D01*
X145061202Y-80587328D01*
X145061206Y-80587335D01*
X145147452Y-80702544D01*
X145147455Y-80702547D01*
X145262664Y-80788793D01*
X145262671Y-80788797D01*
X145397517Y-80839091D01*
X145397516Y-80839091D01*
X145404444Y-80839835D01*
X145457127Y-80845500D01*
X148152872Y-80845499D01*
X148212483Y-80839091D01*
X148347331Y-80788796D01*
X148462546Y-80702546D01*
X148548796Y-80587331D01*
X148599091Y-80452483D01*
X148605500Y-80392873D01*
X148605499Y-77697128D01*
X148599091Y-77637517D01*
X148552587Y-77512834D01*
X148548797Y-77502671D01*
X148548793Y-77502664D01*
X148462547Y-77387455D01*
X148462544Y-77387452D01*
X148347335Y-77301206D01*
X148347328Y-77301202D01*
X148212482Y-77250908D01*
X148212483Y-77250908D01*
X148152883Y-77244501D01*
X148152881Y-77244500D01*
X148152873Y-77244500D01*
X148152864Y-77244500D01*
X145457129Y-77244500D01*
X145457123Y-77244501D01*
X145397516Y-77250908D01*
X145262671Y-77301202D01*
X145262664Y-77301206D01*
X145147455Y-77387452D01*
X145147452Y-77387455D01*
X145061206Y-77502664D01*
X145061202Y-77502671D01*
X145010908Y-77637517D01*
X145004501Y-77697116D01*
X145004501Y-77697123D01*
X145004500Y-77697135D01*
X145004500Y-78270500D01*
X144984815Y-78337539D01*
X144932011Y-78383294D01*
X144880500Y-78394500D01*
X139582617Y-78394500D01*
X139515578Y-78374815D01*
X139511494Y-78372075D01*
X139482702Y-78351915D01*
X139457734Y-78334432D01*
X139399876Y-78307452D01*
X139251497Y-78238261D01*
X139251488Y-78238258D01*
X139031697Y-78179366D01*
X139031693Y-78179365D01*
X139031692Y-78179365D01*
X139031691Y-78179364D01*
X139031686Y-78179364D01*
X138805002Y-78159532D01*
X138804998Y-78159532D01*
X138578313Y-78179364D01*
X138578302Y-78179366D01*
X138358511Y-78238258D01*
X138358502Y-78238261D01*
X138152267Y-78334431D01*
X138152265Y-78334432D01*
X137965862Y-78464951D01*
X137808726Y-78622087D01*
X137747403Y-78655571D01*
X137677711Y-78650587D01*
X137621778Y-78608715D01*
X137600369Y-78562923D01*
X137599091Y-78557518D01*
X137548797Y-78422671D01*
X137548793Y-78422664D01*
X137462547Y-78307455D01*
X137462544Y-78307452D01*
X137347335Y-78221206D01*
X137347328Y-78221202D01*
X137212482Y-78170908D01*
X137212483Y-78170908D01*
X137152883Y-78164501D01*
X137152881Y-78164500D01*
X137152873Y-78164500D01*
X137152865Y-78164500D01*
X137079500Y-78164500D01*
X137012461Y-78144815D01*
X136966706Y-78092011D01*
X136955500Y-78040500D01*
X136955500Y-75689499D01*
X136975185Y-75622460D01*
X137027989Y-75576705D01*
X137079500Y-75565499D01*
X137452871Y-75565499D01*
X137452872Y-75565499D01*
X137512483Y-75559091D01*
X137647331Y-75508796D01*
X137762546Y-75422546D01*
X137848796Y-75307331D01*
X137899091Y-75172483D01*
X137905500Y-75112873D01*
X137905499Y-73964995D01*
X144999953Y-73964995D01*
X144999953Y-73965004D01*
X145020113Y-74234026D01*
X145020113Y-74234028D01*
X145080142Y-74497033D01*
X145080148Y-74497052D01*
X145178709Y-74748181D01*
X145178708Y-74748181D01*
X145313602Y-74981822D01*
X145367294Y-75049151D01*
X145367295Y-75049151D01*
X146203958Y-74212488D01*
X146228978Y-74272890D01*
X146300112Y-74379351D01*
X146390649Y-74469888D01*
X146497110Y-74541022D01*
X146557510Y-74566041D01*
X145719848Y-75403702D01*
X145902483Y-75528220D01*
X145902485Y-75528221D01*
X146145539Y-75645269D01*
X146145537Y-75645269D01*
X146403337Y-75724790D01*
X146403343Y-75724792D01*
X146670101Y-75764999D01*
X146670110Y-75765000D01*
X146939890Y-75765000D01*
X146939898Y-75764999D01*
X147206656Y-75724792D01*
X147206662Y-75724790D01*
X147464461Y-75645269D01*
X147707521Y-75528218D01*
X147890150Y-75403702D01*
X147052488Y-74566041D01*
X147112890Y-74541022D01*
X147219351Y-74469888D01*
X147309888Y-74379351D01*
X147381022Y-74272890D01*
X147406041Y-74212488D01*
X148242703Y-75049151D01*
X148242704Y-75049150D01*
X148296393Y-74981828D01*
X148296400Y-74981817D01*
X148431290Y-74748181D01*
X148529851Y-74497052D01*
X148529857Y-74497033D01*
X148589886Y-74234028D01*
X148589886Y-74234026D01*
X148610047Y-73965004D01*
X148610047Y-73964995D01*
X148589886Y-73695973D01*
X148589886Y-73695971D01*
X148529857Y-73432966D01*
X148529851Y-73432947D01*
X148431290Y-73181818D01*
X148431291Y-73181818D01*
X148296397Y-72948177D01*
X148242704Y-72880847D01*
X147406041Y-73717510D01*
X147381022Y-73657110D01*
X147309888Y-73550649D01*
X147219351Y-73460112D01*
X147112890Y-73388978D01*
X147052488Y-73363958D01*
X147890150Y-72526296D01*
X147707517Y-72401779D01*
X147707516Y-72401778D01*
X147464460Y-72284730D01*
X147464462Y-72284730D01*
X147206662Y-72205209D01*
X147206656Y-72205207D01*
X146939898Y-72165000D01*
X146670101Y-72165000D01*
X146403343Y-72205207D01*
X146403337Y-72205209D01*
X146145538Y-72284730D01*
X145902485Y-72401778D01*
X145902476Y-72401783D01*
X145719848Y-72526296D01*
X146557511Y-73363958D01*
X146497110Y-73388978D01*
X146390649Y-73460112D01*
X146300112Y-73550649D01*
X146228978Y-73657110D01*
X146203958Y-73717511D01*
X145367295Y-72880848D01*
X145313600Y-72948180D01*
X145178709Y-73181818D01*
X145080148Y-73432947D01*
X145080142Y-73432966D01*
X145020113Y-73695971D01*
X145020113Y-73695973D01*
X144999953Y-73964995D01*
X137905499Y-73964995D01*
X137905499Y-73817128D01*
X137899091Y-73757517D01*
X137893428Y-73742335D01*
X137848797Y-73622671D01*
X137848796Y-73622670D01*
X137848796Y-73622669D01*
X137809380Y-73570016D01*
X137784963Y-73504552D01*
X137797646Y-73440434D01*
X137835582Y-73364250D01*
X137891397Y-73168083D01*
X137910215Y-72965000D01*
X137899873Y-72853400D01*
X137913287Y-72784835D01*
X137935660Y-72754284D01*
X140569552Y-70120392D01*
X140630873Y-70086909D01*
X140700565Y-70091893D01*
X140701845Y-70092380D01*
X140785060Y-70124618D01*
X141003757Y-70165500D01*
X141003759Y-70165500D01*
X141226241Y-70165500D01*
X141226243Y-70165500D01*
X141444940Y-70124618D01*
X141652401Y-70044247D01*
X141841562Y-69927124D01*
X142005981Y-69777236D01*
X142140058Y-69599689D01*
X142239229Y-69400528D01*
X142292016Y-69215000D01*
X147558505Y-69215000D01*
X147611239Y-69400349D01*
X147710368Y-69599425D01*
X147844391Y-69776900D01*
X148008738Y-69926721D01*
X148197820Y-70043797D01*
X148197822Y-70043798D01*
X148405195Y-70124135D01*
X148485000Y-70139052D01*
X148985000Y-70139052D01*
X149064804Y-70124135D01*
X149272177Y-70043798D01*
X149272179Y-70043797D01*
X149461261Y-69926721D01*
X149625608Y-69776900D01*
X149759631Y-69599425D01*
X149858760Y-69400349D01*
X149911495Y-69215000D01*
X148985000Y-69215000D01*
X148985000Y-70139052D01*
X148485000Y-70139052D01*
X148485000Y-69215000D01*
X147558505Y-69215000D01*
X142292016Y-69215000D01*
X142300115Y-69186536D01*
X142320643Y-68965000D01*
X142318928Y-68946497D01*
X142316373Y-68918922D01*
X148385000Y-68918922D01*
X148385000Y-69011078D01*
X148408852Y-69100095D01*
X148454930Y-69179905D01*
X148520095Y-69245070D01*
X148599905Y-69291148D01*
X148688922Y-69315000D01*
X148781078Y-69315000D01*
X148870095Y-69291148D01*
X148949905Y-69245070D01*
X149015070Y-69179905D01*
X149061148Y-69100095D01*
X149085000Y-69011078D01*
X149085000Y-68918922D01*
X149061148Y-68829905D01*
X149015070Y-68750095D01*
X148979975Y-68715000D01*
X148985000Y-68715000D01*
X149911495Y-68715000D01*
X149858760Y-68529650D01*
X149759631Y-68330574D01*
X149625608Y-68153099D01*
X149461261Y-68003278D01*
X149272179Y-67886202D01*
X149272177Y-67886201D01*
X149064799Y-67805864D01*
X148985000Y-67790946D01*
X148985000Y-68715000D01*
X148979975Y-68715000D01*
X148949905Y-68684930D01*
X148870095Y-68638852D01*
X148781078Y-68615000D01*
X148688922Y-68615000D01*
X148599905Y-68638852D01*
X148520095Y-68684930D01*
X148454930Y-68750095D01*
X148408852Y-68829905D01*
X148385000Y-68918922D01*
X142316373Y-68918922D01*
X142300115Y-68743464D01*
X142300114Y-68743462D01*
X142296441Y-68730554D01*
X142292016Y-68715000D01*
X147558505Y-68715000D01*
X148485000Y-68715000D01*
X148485000Y-67790946D01*
X148405200Y-67805864D01*
X148197822Y-67886201D01*
X148197820Y-67886202D01*
X148008738Y-68003278D01*
X147844391Y-68153099D01*
X147710368Y-68330574D01*
X147611239Y-68529650D01*
X147558505Y-68715000D01*
X142292016Y-68715000D01*
X142239229Y-68529472D01*
X142210787Y-68472353D01*
X142140061Y-68330316D01*
X142140056Y-68330308D01*
X142005979Y-68152761D01*
X141841562Y-68002876D01*
X141841560Y-68002874D01*
X141652404Y-67885754D01*
X141652398Y-67885752D01*
X141444940Y-67805382D01*
X141226243Y-67764500D01*
X141003757Y-67764500D01*
X140785060Y-67805382D01*
X140720200Y-67830509D01*
X140577601Y-67885752D01*
X140577595Y-67885754D01*
X140388439Y-68002874D01*
X140388437Y-68002876D01*
X140224020Y-68152761D01*
X140089943Y-68330308D01*
X140089938Y-68330316D01*
X139990775Y-68529461D01*
X139990769Y-68529476D01*
X139929885Y-68743462D01*
X139929885Y-68743464D01*
X139915969Y-68893634D01*
X139890182Y-68958571D01*
X139880179Y-68969873D01*
X137019395Y-71830657D01*
X136958072Y-71864142D01*
X136912702Y-71864810D01*
X136912682Y-71865029D01*
X136910650Y-71864840D01*
X136908939Y-71864866D01*
X136906986Y-71864501D01*
X136906977Y-71864500D01*
X136906976Y-71864500D01*
X136703024Y-71864500D01*
X136502544Y-71901976D01*
X136502541Y-71901976D01*
X136502541Y-71901977D01*
X136312364Y-71975651D01*
X136312357Y-71975655D01*
X136138960Y-72083017D01*
X136138958Y-72083019D01*
X135988237Y-72220418D01*
X135865327Y-72383178D01*
X135774422Y-72565739D01*
X135774417Y-72565752D01*
X135718602Y-72761917D01*
X135699785Y-72964999D01*
X135699785Y-72965000D01*
X135718602Y-73168082D01*
X135758536Y-73308434D01*
X135774418Y-73364250D01*
X135808625Y-73432947D01*
X135812353Y-73440434D01*
X135824613Y-73509220D01*
X135800620Y-73570015D01*
X135761203Y-73622669D01*
X135761202Y-73622671D01*
X135710908Y-73757517D01*
X135704501Y-73817116D01*
X135704501Y-73817123D01*
X135704500Y-73817135D01*
X135704500Y-74690230D01*
X135695062Y-74737681D01*
X135679499Y-74775254D01*
X135679498Y-74775257D01*
X135654500Y-74900928D01*
X135654500Y-78040500D01*
X135634815Y-78107539D01*
X135582011Y-78153294D01*
X135530502Y-78164500D01*
X135457130Y-78164500D01*
X135457123Y-78164501D01*
X135397516Y-78170908D01*
X135262671Y-78221202D01*
X135262664Y-78221206D01*
X135147455Y-78307452D01*
X135147452Y-78307455D01*
X135061206Y-78422664D01*
X135061202Y-78422671D01*
X135010908Y-78557517D01*
X135005404Y-78608715D01*
X135004500Y-78617127D01*
X135004500Y-79118139D01*
X135004501Y-79545500D01*
X134984817Y-79612539D01*
X134932013Y-79658294D01*
X134880501Y-79669500D01*
X132506683Y-79669500D01*
X132439644Y-79649815D01*
X132405108Y-79616623D01*
X132310045Y-79480858D01*
X132149141Y-79319954D01*
X131962734Y-79189432D01*
X131962728Y-79189429D01*
X131904725Y-79162382D01*
X131852285Y-79116210D01*
X131833133Y-79049017D01*
X131853348Y-78982135D01*
X131904725Y-78937618D01*
X131962734Y-78910568D01*
X132149139Y-78780047D01*
X132232038Y-78697147D01*
X132293359Y-78663663D01*
X132305763Y-78661710D01*
X132306819Y-78661500D01*
X132306821Y-78661500D01*
X132477124Y-78627624D01*
X132557335Y-78594399D01*
X132637543Y-78561177D01*
X132637544Y-78561176D01*
X132637547Y-78561175D01*
X132781924Y-78464706D01*
X134184705Y-77061924D01*
X134281175Y-76917547D01*
X134347624Y-76757124D01*
X134358709Y-76701393D01*
X134381500Y-76586823D01*
X134381500Y-70076490D01*
X134401185Y-70009451D01*
X134417814Y-69988814D01*
X141924891Y-62481736D01*
X141986212Y-62448253D01*
X142049122Y-62450928D01*
X142063228Y-62455280D01*
X142063230Y-62455280D01*
X142063232Y-62455281D01*
X142330063Y-62495499D01*
X142330068Y-62495499D01*
X142330071Y-62495500D01*
X142330072Y-62495500D01*
X142599928Y-62495500D01*
X142599929Y-62495500D01*
X142599936Y-62495499D01*
X142866767Y-62455281D01*
X142866768Y-62455280D01*
X142866772Y-62455280D01*
X143124641Y-62375738D01*
X143367775Y-62258651D01*
X143590741Y-62106635D01*
X143788561Y-61923085D01*
X143956815Y-61712102D01*
X144091743Y-61478398D01*
X144190334Y-61227195D01*
X144250383Y-60964103D01*
X144270549Y-60695000D01*
X144268186Y-60663470D01*
X144253744Y-60470747D01*
X144250383Y-60425897D01*
X144190334Y-60162805D01*
X144091743Y-59911602D01*
X143956815Y-59677898D01*
X143788561Y-59466915D01*
X143788560Y-59466914D01*
X143788557Y-59466910D01*
X143659491Y-59347155D01*
X145745000Y-59347155D01*
X145745000Y-60445000D01*
X146944999Y-60445000D01*
X146919979Y-60505402D01*
X146895000Y-60630981D01*
X146895000Y-60759019D01*
X146919979Y-60884598D01*
X146944999Y-60945000D01*
X145745000Y-60945000D01*
X145745000Y-62042844D01*
X145751401Y-62102372D01*
X145751403Y-62102379D01*
X145801645Y-62237086D01*
X145801649Y-62237093D01*
X145887809Y-62352187D01*
X145887812Y-62352190D01*
X146002906Y-62438350D01*
X146002913Y-62438354D01*
X146137620Y-62488596D01*
X146137627Y-62488598D01*
X146197155Y-62494999D01*
X146197172Y-62495000D01*
X147295000Y-62495000D01*
X147295000Y-61295001D01*
X147355402Y-61320021D01*
X147480981Y-61345000D01*
X147609019Y-61345000D01*
X147734598Y-61320021D01*
X147795000Y-61295001D01*
X147795000Y-62495000D01*
X148892828Y-62495000D01*
X148892844Y-62494999D01*
X148952372Y-62488598D01*
X148952379Y-62488596D01*
X149087086Y-62438354D01*
X149087093Y-62438350D01*
X149202187Y-62352190D01*
X149202190Y-62352187D01*
X149288350Y-62237093D01*
X149288354Y-62237086D01*
X149338596Y-62102379D01*
X149338598Y-62102372D01*
X149344999Y-62042844D01*
X149345000Y-62042827D01*
X149345000Y-60945000D01*
X148145001Y-60945000D01*
X148170021Y-60884598D01*
X148195000Y-60759019D01*
X148195000Y-60630981D01*
X148170021Y-60505402D01*
X148145001Y-60445000D01*
X149345000Y-60445000D01*
X149345000Y-59347172D01*
X149344999Y-59347155D01*
X149338598Y-59287627D01*
X149338596Y-59287620D01*
X149288354Y-59152913D01*
X149288350Y-59152906D01*
X149202190Y-59037812D01*
X149202187Y-59037809D01*
X149087093Y-58951649D01*
X149087086Y-58951645D01*
X148952379Y-58901403D01*
X148952372Y-58901401D01*
X148892844Y-58895000D01*
X147795000Y-58895000D01*
X147795000Y-60094998D01*
X147734598Y-60069979D01*
X147609019Y-60045000D01*
X147480981Y-60045000D01*
X147355402Y-60069979D01*
X147295000Y-60094998D01*
X147295000Y-58895000D01*
X146197155Y-58895000D01*
X146137627Y-58901401D01*
X146137620Y-58901403D01*
X146002913Y-58951645D01*
X146002906Y-58951649D01*
X145887812Y-59037809D01*
X145887809Y-59037812D01*
X145801649Y-59152906D01*
X145801645Y-59152913D01*
X145751403Y-59287620D01*
X145751401Y-59287627D01*
X145745000Y-59347155D01*
X143659491Y-59347155D01*
X143590741Y-59283365D01*
X143367775Y-59131349D01*
X143367769Y-59131346D01*
X143367768Y-59131345D01*
X143367767Y-59131344D01*
X143124643Y-59014263D01*
X143124645Y-59014263D01*
X142866773Y-58934720D01*
X142866767Y-58934718D01*
X142599936Y-58894500D01*
X142599929Y-58894500D01*
X142330071Y-58894500D01*
X142330063Y-58894500D01*
X142063232Y-58934718D01*
X142063226Y-58934720D01*
X141805358Y-59014262D01*
X141562230Y-59131346D01*
X141339258Y-59283365D01*
X141141442Y-59466910D01*
X140973185Y-59677898D01*
X140838258Y-59911599D01*
X140838256Y-59911603D01*
X140739666Y-60162804D01*
X140739664Y-60162811D01*
X140679616Y-60425898D01*
X140659451Y-60694995D01*
X140659451Y-60695004D01*
X140679616Y-60964101D01*
X140679616Y-60964103D01*
X140714475Y-61116830D01*
X140710202Y-61186568D01*
X140681265Y-61232103D01*
X133362181Y-68551188D01*
X133300858Y-68584673D01*
X133231166Y-68579689D01*
X133175233Y-68537817D01*
X133150816Y-68472353D01*
X133150500Y-68463507D01*
X133150500Y-66435928D01*
X133125502Y-66310260D01*
X133125500Y-66310254D01*
X133105189Y-66261221D01*
X133105187Y-66261216D01*
X133076468Y-66191878D01*
X133076462Y-66191868D01*
X133005278Y-66085332D01*
X133005272Y-66085325D01*
X131914673Y-64994726D01*
X131914669Y-64994723D01*
X131808127Y-64923535D01*
X131689744Y-64874499D01*
X131689738Y-64874497D01*
X131564071Y-64849500D01*
X131564069Y-64849500D01*
X126935931Y-64849500D01*
X126935929Y-64849500D01*
X126810261Y-64874497D01*
X126810255Y-64874499D01*
X126691870Y-64923535D01*
X126585331Y-64994722D01*
X126585324Y-64994728D01*
X124635338Y-66944714D01*
X124574015Y-66978199D01*
X124504323Y-66973215D01*
X124448390Y-66931343D01*
X124442223Y-66922300D01*
X124439678Y-66918190D01*
X124439673Y-66918179D01*
X124316764Y-66755421D01*
X124316762Y-66755418D01*
X124166041Y-66618019D01*
X124166039Y-66618017D01*
X123992642Y-66510655D01*
X123992635Y-66510651D01*
X123897546Y-66473814D01*
X123802456Y-66436976D01*
X123601976Y-66399500D01*
X123398024Y-66399500D01*
X123197544Y-66436976D01*
X123197541Y-66436976D01*
X123197541Y-66436977D01*
X123007364Y-66510651D01*
X123007357Y-66510655D01*
X122833960Y-66618017D01*
X122833958Y-66618019D01*
X122683236Y-66755419D01*
X122645025Y-66806019D01*
X122588916Y-66847654D01*
X122570265Y-66852908D01*
X122461732Y-66874497D01*
X122461727Y-66874499D01*
X122343342Y-66923535D01*
X122236803Y-66994722D01*
X122236796Y-66994728D01*
X121322181Y-67909344D01*
X121260858Y-67942829D01*
X121191166Y-67937845D01*
X121135233Y-67895973D01*
X121110816Y-67830509D01*
X121110500Y-67821663D01*
X121110500Y-61099020D01*
X121130185Y-61031981D01*
X121163375Y-60997446D01*
X121247519Y-60938529D01*
X121398529Y-60787519D01*
X121521021Y-60612581D01*
X121611276Y-60419030D01*
X121611280Y-60419013D01*
X121613130Y-60413936D01*
X121614981Y-60414609D01*
X121646847Y-60362328D01*
X121709694Y-60331797D01*
X121779069Y-60340091D01*
X121832948Y-60384575D01*
X121846430Y-60414095D01*
X121847342Y-60413764D01*
X121849197Y-60418859D01*
X121939413Y-60612329D01*
X121978415Y-60668030D01*
X122600000Y-60046445D01*
X122600000Y-60052661D01*
X122627259Y-60154394D01*
X122679920Y-60245606D01*
X122754394Y-60320080D01*
X122845606Y-60372741D01*
X122947339Y-60400000D01*
X122953553Y-60400000D01*
X122331968Y-61021584D01*
X122387663Y-61060582D01*
X122387669Y-61060586D01*
X122581140Y-61150802D01*
X122581146Y-61150805D01*
X122787337Y-61206054D01*
X122787345Y-61206055D01*
X122999998Y-61224660D01*
X123000002Y-61224660D01*
X123212654Y-61206055D01*
X123212662Y-61206054D01*
X123418853Y-61150805D01*
X123418864Y-61150801D01*
X123612325Y-61060589D01*
X123668030Y-61021583D01*
X123046448Y-60400000D01*
X123052661Y-60400000D01*
X123154394Y-60372741D01*
X123245606Y-60320080D01*
X123320080Y-60245606D01*
X123372741Y-60154394D01*
X123400000Y-60052661D01*
X123400000Y-60046446D01*
X124021583Y-60668029D01*
X124060589Y-60612325D01*
X124150801Y-60418864D01*
X124150805Y-60418853D01*
X124206054Y-60212662D01*
X124206055Y-60212654D01*
X124224660Y-60000002D01*
X124224660Y-59999997D01*
X124206055Y-59787345D01*
X124206054Y-59787337D01*
X124150805Y-59581146D01*
X124150802Y-59581140D01*
X124060586Y-59387669D01*
X124060582Y-59387663D01*
X124021584Y-59331968D01*
X123400000Y-59953552D01*
X123400000Y-59947339D01*
X123372741Y-59845606D01*
X123320080Y-59754394D01*
X123245606Y-59679920D01*
X123154394Y-59627259D01*
X123052661Y-59600000D01*
X123046447Y-59600000D01*
X123668030Y-58978415D01*
X123612329Y-58939413D01*
X123418859Y-58849197D01*
X123418853Y-58849194D01*
X123212662Y-58793945D01*
X123212654Y-58793944D01*
X123000002Y-58775340D01*
X122999998Y-58775340D01*
X122787345Y-58793944D01*
X122787337Y-58793945D01*
X122581146Y-58849194D01*
X122581140Y-58849197D01*
X122387671Y-58939412D01*
X122387669Y-58939413D01*
X122331969Y-58978415D01*
X122331968Y-58978415D01*
X122953554Y-59600000D01*
X122947339Y-59600000D01*
X122845606Y-59627259D01*
X122754394Y-59679920D01*
X122679920Y-59754394D01*
X122627259Y-59845606D01*
X122600000Y-59947339D01*
X122600000Y-59953553D01*
X121978415Y-59331968D01*
X121978415Y-59331969D01*
X121939413Y-59387669D01*
X121939412Y-59387671D01*
X121849197Y-59581140D01*
X121847342Y-59586236D01*
X121845445Y-59585545D01*
X121813656Y-59637684D01*
X121750805Y-59668205D01*
X121681431Y-59659901D01*
X121627559Y-59615408D01*
X121614012Y-59585742D01*
X121613130Y-59586064D01*
X121611279Y-59580983D01*
X121611276Y-59580970D01*
X121521021Y-59387419D01*
X121398529Y-59212481D01*
X121398527Y-59212478D01*
X121247521Y-59061472D01*
X121072578Y-58938977D01*
X121072579Y-58938977D01*
X120943547Y-58878809D01*
X120879030Y-58848724D01*
X120879026Y-58848723D01*
X120879022Y-58848721D01*
X120672752Y-58793452D01*
X120672748Y-58793451D01*
X120672747Y-58793451D01*
X120672746Y-58793450D01*
X120672741Y-58793450D01*
X120460002Y-58774838D01*
X120459998Y-58774838D01*
X120247258Y-58793450D01*
X120247247Y-58793452D01*
X120040977Y-58848721D01*
X120040968Y-58848725D01*
X119847421Y-58938977D01*
X119672478Y-59061472D01*
X119521472Y-59212478D01*
X119398977Y-59387421D01*
X119308725Y-59580968D01*
X119306870Y-59586064D01*
X119304749Y-59585292D01*
X119273406Y-59636710D01*
X119210558Y-59667237D01*
X119141183Y-59658939D01*
X119087307Y-59614452D01*
X119074169Y-59585685D01*
X119073130Y-59586064D01*
X119071279Y-59580983D01*
X119071276Y-59580970D01*
X118981021Y-59387419D01*
X118858529Y-59212481D01*
X118858527Y-59212478D01*
X118707521Y-59061472D01*
X118532578Y-58938977D01*
X118532579Y-58938977D01*
X118403547Y-58878809D01*
X118339030Y-58848724D01*
X118339026Y-58848723D01*
X118339022Y-58848721D01*
X118132752Y-58793452D01*
X118132748Y-58793451D01*
X118132747Y-58793451D01*
X118132746Y-58793450D01*
X118132741Y-58793450D01*
X117920002Y-58774838D01*
X117919998Y-58774838D01*
X117707258Y-58793450D01*
X117707247Y-58793452D01*
X117500977Y-58848721D01*
X117500968Y-58848725D01*
X117307421Y-58938977D01*
X117132478Y-59061472D01*
X116981472Y-59212478D01*
X116858977Y-59387421D01*
X116768725Y-59580968D01*
X116768721Y-59580977D01*
X116713452Y-59787247D01*
X116713450Y-59787258D01*
X116694838Y-59999998D01*
X116694838Y-60000001D01*
X116713450Y-60212741D01*
X116713452Y-60212752D01*
X116768721Y-60419022D01*
X116768723Y-60419026D01*
X116768724Y-60419030D01*
X116771927Y-60425898D01*
X116858977Y-60612578D01*
X116981472Y-60787521D01*
X117132478Y-60938527D01*
X117132481Y-60938529D01*
X117307419Y-61061021D01*
X117307421Y-61061022D01*
X117307420Y-61061022D01*
X117371936Y-61091106D01*
X117500970Y-61151276D01*
X117500975Y-61151277D01*
X117500979Y-61151279D01*
X117552480Y-61165078D01*
X117612141Y-61201442D01*
X117642671Y-61264289D01*
X117644388Y-61284853D01*
X117644388Y-67303316D01*
X117624703Y-67370355D01*
X117591511Y-67404891D01*
X117455750Y-67499951D01*
X117298614Y-67657087D01*
X117237291Y-67690571D01*
X117167599Y-67685587D01*
X117111666Y-67643715D01*
X117090257Y-67597923D01*
X117088979Y-67592518D01*
X117038685Y-67457671D01*
X117038681Y-67457664D01*
X116952435Y-67342455D01*
X116952432Y-67342452D01*
X116837223Y-67256206D01*
X116837216Y-67256202D01*
X116702370Y-67205908D01*
X116702371Y-67205908D01*
X116642771Y-67199501D01*
X116642769Y-67199500D01*
X116642761Y-67199500D01*
X116642752Y-67199500D01*
X114947017Y-67199500D01*
X114947011Y-67199501D01*
X114887404Y-67205908D01*
X114752559Y-67256202D01*
X114752552Y-67256206D01*
X114637343Y-67342452D01*
X114637340Y-67342455D01*
X114551094Y-67457664D01*
X114551089Y-67457673D01*
X114521193Y-67537832D01*
X114479323Y-67593766D01*
X114413858Y-67618184D01*
X114405011Y-67618500D01*
X112913177Y-67618500D01*
X112834724Y-67634106D01*
X112834723Y-67634106D01*
X112742883Y-67652374D01*
X112742871Y-67652377D01*
X112582459Y-67718821D01*
X112582447Y-67718828D01*
X112448804Y-67808127D01*
X112448800Y-67808130D01*
X112438076Y-67815294D01*
X110815296Y-69438072D01*
X110815295Y-69438073D01*
X110718822Y-69582456D01*
X110652377Y-69742871D01*
X110652374Y-69742883D01*
X110629178Y-69859500D01*
X110629178Y-69859501D01*
X110618500Y-69913180D01*
X110618500Y-76493179D01*
X110618500Y-76666821D01*
X110618500Y-76666823D01*
X110618499Y-76666823D01*
X104500500Y-76666823D01*
X104500500Y-54881902D01*
X106499500Y-54881902D01*
X106499500Y-55118097D01*
X106536446Y-55351368D01*
X106609433Y-55575996D01*
X106716657Y-55786433D01*
X106855483Y-55977510D01*
X107022490Y-56144517D01*
X107213567Y-56283343D01*
X107312991Y-56334002D01*
X107424003Y-56390566D01*
X107424005Y-56390566D01*
X107424008Y-56390568D01*
X107544412Y-56429689D01*
X107648631Y-56463553D01*
X107881903Y-56500500D01*
X107881908Y-56500500D01*
X108118097Y-56500500D01*
X108351368Y-56463553D01*
X108575992Y-56390568D01*
X108786433Y-56283343D01*
X108977510Y-56144517D01*
X109144517Y-55977510D01*
X109283343Y-55786433D01*
X109390568Y-55575992D01*
X109463553Y-55351368D01*
X109500500Y-55118097D01*
X109500500Y-54881902D01*
X153999500Y-54881902D01*
X153999500Y-55118097D01*
X154036446Y-55351368D01*
X154109433Y-55575996D01*
X154216657Y-55786433D01*
X154355483Y-55977510D01*
X154522490Y-56144517D01*
X154713567Y-56283343D01*
X154812991Y-56334002D01*
X154924003Y-56390566D01*
X154924005Y-56390566D01*
X154924008Y-56390568D01*
X155044412Y-56429689D01*
X155148631Y-56463553D01*
X155381903Y-56500500D01*
X155381908Y-56500500D01*
X155618097Y-56500500D01*
X155851368Y-56463553D01*
X156075992Y-56390568D01*
X156286433Y-56283343D01*
X156477510Y-56144517D01*
X156644517Y-55977510D01*
X156783343Y-55786433D01*
X156890568Y-55575992D01*
X156963553Y-55351368D01*
X157000500Y-55118097D01*
X157000500Y-54881902D01*
X156963553Y-54648631D01*
X156890566Y-54424003D01*
X156783342Y-54213566D01*
X156644517Y-54022490D01*
X156477510Y-53855483D01*
X156286433Y-53716657D01*
X156075996Y-53609433D01*
X155851368Y-53536446D01*
X155618097Y-53499500D01*
X155618092Y-53499500D01*
X155381908Y-53499500D01*
X155381903Y-53499500D01*
X155148631Y-53536446D01*
X154924003Y-53609433D01*
X154713566Y-53716657D01*
X154604550Y-53795862D01*
X154522490Y-53855483D01*
X154522488Y-53855485D01*
X154522487Y-53855485D01*
X154355485Y-54022487D01*
X154355485Y-54022488D01*
X154355483Y-54022490D01*
X154295862Y-54104550D01*
X154216657Y-54213566D01*
X154109433Y-54424003D01*
X154036446Y-54648631D01*
X153999500Y-54881902D01*
X109500500Y-54881902D01*
X109463553Y-54648631D01*
X109390566Y-54424003D01*
X109283342Y-54213566D01*
X109144517Y-54022490D01*
X108977510Y-53855483D01*
X108786433Y-53716657D01*
X108575996Y-53609433D01*
X108351368Y-53536446D01*
X108118097Y-53499500D01*
X108118092Y-53499500D01*
X107881908Y-53499500D01*
X107881903Y-53499500D01*
X107648631Y-53536446D01*
X107424003Y-53609433D01*
X107213566Y-53716657D01*
X107104550Y-53795862D01*
X107022490Y-53855483D01*
X107022488Y-53855485D01*
X107022487Y-53855485D01*
X106855485Y-54022487D01*
X106855485Y-54022488D01*
X106855483Y-54022490D01*
X106795862Y-54104550D01*
X106716657Y-54213566D01*
X106609433Y-54424003D01*
X106536446Y-54648631D01*
X106499500Y-54881902D01*
X104500500Y-54881902D01*
X104500500Y-51124500D01*
X104520185Y-51057461D01*
X104572989Y-51011706D01*
X104624500Y-51000500D01*
X158875500Y-51000500D01*
X158942539Y-51020185D01*
G37*
%TD.AperFunction*%
%TD*%
M02*
