%TF.GenerationSoftware,KiCad,Pcbnew,8.0.5*%
%TF.CreationDate,2024-12-18T16:59:36+03:00*%
%TF.ProjectId,Traffic_Light_For_Arduino,54726166-6669-4635-9f4c-696768745f46,V01*%
%TF.SameCoordinates,Original*%
%TF.FileFunction,Copper,L1,Top*%
%TF.FilePolarity,Positive*%
%FSLAX46Y46*%
G04 Gerber Fmt 4.6, Leading zero omitted, Abs format (unit mm)*
G04 Created by KiCad (PCBNEW 8.0.5) date 2024-12-18 16:59:36*
%MOMM*%
%LPD*%
G01*
G04 APERTURE LIST*
%TA.AperFunction,ComponentPad*%
%ADD10C,1.400000*%
%TD*%
%TA.AperFunction,ComponentPad*%
%ADD11O,1.400000X1.400000*%
%TD*%
%TA.AperFunction,ComponentPad*%
%ADD12R,1.700000X1.700000*%
%TD*%
%TA.AperFunction,ComponentPad*%
%ADD13O,1.700000X1.700000*%
%TD*%
%TA.AperFunction,ComponentPad*%
%ADD14C,5.000000*%
%TD*%
%TA.AperFunction,ComponentPad*%
%ADD15R,1.800000X1.800000*%
%TD*%
%TA.AperFunction,ComponentPad*%
%ADD16C,1.800000*%
%TD*%
%TA.AperFunction,Conductor*%
%ADD17C,0.254000*%
%TD*%
%TA.AperFunction,Conductor*%
%ADD18C,0.762000*%
%TD*%
G04 APERTURE END LIST*
D10*
%TO.P,R3,1*%
%TO.N,Net-(J1-Pin_2)*%
X168000000Y-94540000D03*
D11*
%TO.P,R3,2*%
%TO.N,Net-(D3-A)*%
X168000000Y-89460000D03*
%TD*%
D10*
%TO.P,R2,1*%
%TO.N,Net-(J1-Pin_3)*%
X162500000Y-94540000D03*
D11*
%TO.P,R2,2*%
%TO.N,Net-(D2-A)*%
X162500000Y-89460000D03*
%TD*%
D10*
%TO.P,R1,1*%
%TO.N,Net-(J1-Pin_4)*%
X157000000Y-94540000D03*
D11*
%TO.P,R1,2*%
%TO.N,Net-(D1-A)*%
X157000000Y-89460000D03*
%TD*%
D12*
%TO.P,J1,1,Pin_1*%
%TO.N,GND*%
X166500000Y-100000000D03*
D13*
%TO.P,J1,2,Pin_2*%
%TO.N,Net-(J1-Pin_2)*%
X163960000Y-100000000D03*
%TO.P,J1,3,Pin_3*%
%TO.N,Net-(J1-Pin_3)*%
X161420000Y-100000000D03*
%TO.P,J1,4,Pin_4*%
%TO.N,Net-(J1-Pin_4)*%
X158880000Y-100000000D03*
%TD*%
D14*
%TO.P,H4,1*%
%TO.N,N/C*%
X174500000Y-92500000D03*
%TD*%
%TO.P,H3,1*%
%TO.N,N/C*%
X150500000Y-92500000D03*
%TD*%
%TO.P,H2,1*%
%TO.N,N/C*%
X175000000Y-65000000D03*
%TD*%
%TO.P,H1,1*%
%TO.N,N/C*%
X150000000Y-65000000D03*
%TD*%
D15*
%TO.P,RED,1,K*%
%TO.N,GND*%
X161225000Y-82500000D03*
D16*
%TO.P,RED,2,A*%
%TO.N,Net-(D3-A)*%
X163765000Y-82500000D03*
%TD*%
D15*
%TO.P,ORANGE,1,K*%
%TO.N,GND*%
X161225000Y-75000000D03*
D16*
%TO.P,ORANGE,2,A*%
%TO.N,Net-(D2-A)*%
X163765000Y-75000000D03*
%TD*%
D15*
%TO.P,GREEN,1,K*%
%TO.N,GND*%
X161225000Y-67500000D03*
D16*
%TO.P,GREEN,2,A*%
%TO.N,Net-(D1-A)*%
X163765000Y-67500000D03*
%TD*%
D17*
%TO.N,Net-(D2-A)*%
X159500000Y-79265000D02*
X159500000Y-86460000D01*
X163765000Y-75000000D02*
X159500000Y-79265000D01*
X159500000Y-86460000D02*
X162500000Y-89460000D01*
%TO.N,Net-(D1-A)*%
X157000000Y-74265000D02*
X163765000Y-67500000D01*
X157000000Y-89460000D02*
X157000000Y-74265000D01*
%TO.N,Net-(D3-A)*%
X168000000Y-86735000D02*
X163765000Y-82500000D01*
X168000000Y-89460000D02*
X168000000Y-86735000D01*
D18*
%TO.N,Net-(J1-Pin_2)*%
X163960000Y-98580000D02*
X168000000Y-94540000D01*
X163960000Y-100000000D02*
X163960000Y-98580000D01*
%TO.N,Net-(J1-Pin_3)*%
X161420000Y-95620000D02*
X162500000Y-94540000D01*
X161420000Y-100000000D02*
X161420000Y-95620000D01*
%TO.N,Net-(J1-Pin_4)*%
X157000000Y-98120000D02*
X157000000Y-94540000D01*
X158880000Y-100000000D02*
X157000000Y-98120000D01*
%TD*%
%TA.AperFunction,Conductor*%
%TO.N,GND*%
G36*
X178443039Y-61519685D02*
G01*
X178488794Y-61572489D01*
X178500000Y-61624000D01*
X178500000Y-102876000D01*
X178480315Y-102943039D01*
X178427511Y-102988794D01*
X178376000Y-103000000D01*
X146124000Y-103000000D01*
X146056961Y-102980315D01*
X146011206Y-102927511D01*
X146000000Y-102876000D01*
X146000000Y-92499996D01*
X147494415Y-92499996D01*
X147494415Y-92500003D01*
X147514738Y-92848927D01*
X147514739Y-92848938D01*
X147575428Y-93193127D01*
X147575430Y-93193134D01*
X147675674Y-93527972D01*
X147814107Y-93848895D01*
X147814113Y-93848908D01*
X147988870Y-94151597D01*
X148197584Y-94431949D01*
X148197589Y-94431955D01*
X148286774Y-94526485D01*
X148437442Y-94686183D01*
X148527246Y-94761537D01*
X148705186Y-94910847D01*
X148705194Y-94910853D01*
X148997203Y-95102911D01*
X148997207Y-95102913D01*
X149309549Y-95259777D01*
X149637989Y-95379319D01*
X149978086Y-95459923D01*
X150325241Y-95500500D01*
X150325248Y-95500500D01*
X150674752Y-95500500D01*
X150674759Y-95500500D01*
X151021914Y-95459923D01*
X151362011Y-95379319D01*
X151690451Y-95259777D01*
X152002793Y-95102913D01*
X152294811Y-94910849D01*
X152562558Y-94686183D01*
X152700476Y-94539999D01*
X155794357Y-94539999D01*
X155794357Y-94540000D01*
X155814884Y-94761535D01*
X155814885Y-94761537D01*
X155875769Y-94975523D01*
X155875775Y-94975538D01*
X155974938Y-95174683D01*
X155974943Y-95174691D01*
X156093454Y-95331624D01*
X156118146Y-95396985D01*
X156118500Y-95406351D01*
X156118500Y-98033179D01*
X156118500Y-98206821D01*
X156118500Y-98206823D01*
X156118499Y-98206823D01*
X156152374Y-98377118D01*
X156152377Y-98377128D01*
X156218822Y-98537543D01*
X156315295Y-98681926D01*
X156315296Y-98681927D01*
X157492225Y-99858855D01*
X157525710Y-99920178D01*
X157528072Y-99957341D01*
X157524341Y-99999995D01*
X157524341Y-100000000D01*
X157544936Y-100235403D01*
X157544938Y-100235413D01*
X157606094Y-100463655D01*
X157606096Y-100463659D01*
X157606097Y-100463663D01*
X157686004Y-100635023D01*
X157705965Y-100677830D01*
X157705967Y-100677834D01*
X157814281Y-100832521D01*
X157841505Y-100871401D01*
X158008599Y-101038495D01*
X158085135Y-101092086D01*
X158202165Y-101174032D01*
X158202167Y-101174033D01*
X158202170Y-101174035D01*
X158416337Y-101273903D01*
X158644592Y-101335063D01*
X158815319Y-101350000D01*
X158879999Y-101355659D01*
X158880000Y-101355659D01*
X158880001Y-101355659D01*
X158944681Y-101350000D01*
X159115408Y-101335063D01*
X159343663Y-101273903D01*
X159557830Y-101174035D01*
X159751401Y-101038495D01*
X159918495Y-100871401D01*
X160048425Y-100685842D01*
X160103002Y-100642217D01*
X160172500Y-100635023D01*
X160234855Y-100666546D01*
X160251575Y-100685842D01*
X160381500Y-100871395D01*
X160381505Y-100871401D01*
X160548599Y-101038495D01*
X160625135Y-101092086D01*
X160742165Y-101174032D01*
X160742167Y-101174033D01*
X160742170Y-101174035D01*
X160956337Y-101273903D01*
X161184592Y-101335063D01*
X161355319Y-101350000D01*
X161419999Y-101355659D01*
X161420000Y-101355659D01*
X161420001Y-101355659D01*
X161484681Y-101350000D01*
X161655408Y-101335063D01*
X161883663Y-101273903D01*
X162097830Y-101174035D01*
X162291401Y-101038495D01*
X162458495Y-100871401D01*
X162588425Y-100685842D01*
X162643002Y-100642217D01*
X162712500Y-100635023D01*
X162774855Y-100666546D01*
X162791575Y-100685842D01*
X162921500Y-100871395D01*
X162921505Y-100871401D01*
X163088599Y-101038495D01*
X163165135Y-101092086D01*
X163282165Y-101174032D01*
X163282167Y-101174033D01*
X163282170Y-101174035D01*
X163496337Y-101273903D01*
X163724592Y-101335063D01*
X163895319Y-101350000D01*
X163959999Y-101355659D01*
X163960000Y-101355659D01*
X163960001Y-101355659D01*
X164024681Y-101350000D01*
X164195408Y-101335063D01*
X164423663Y-101273903D01*
X164637830Y-101174035D01*
X164831401Y-101038495D01*
X164953717Y-100916178D01*
X165015036Y-100882696D01*
X165084728Y-100887680D01*
X165140662Y-100929551D01*
X165157577Y-100960528D01*
X165206646Y-101092088D01*
X165206649Y-101092093D01*
X165292809Y-101207187D01*
X165292812Y-101207190D01*
X165407906Y-101293350D01*
X165407913Y-101293354D01*
X165542620Y-101343596D01*
X165542627Y-101343598D01*
X165602155Y-101349999D01*
X165602172Y-101350000D01*
X166250000Y-101350000D01*
X166250000Y-100433012D01*
X166307007Y-100465925D01*
X166434174Y-100500000D01*
X166565826Y-100500000D01*
X166692993Y-100465925D01*
X166750000Y-100433012D01*
X166750000Y-101350000D01*
X167397828Y-101350000D01*
X167397844Y-101349999D01*
X167457372Y-101343598D01*
X167457379Y-101343596D01*
X167592086Y-101293354D01*
X167592093Y-101293350D01*
X167707187Y-101207190D01*
X167707190Y-101207187D01*
X167793350Y-101092093D01*
X167793354Y-101092086D01*
X167843596Y-100957379D01*
X167843598Y-100957372D01*
X167849999Y-100897844D01*
X167850000Y-100897827D01*
X167850000Y-100250000D01*
X166933012Y-100250000D01*
X166965925Y-100192993D01*
X167000000Y-100065826D01*
X167000000Y-99934174D01*
X166965925Y-99807007D01*
X166933012Y-99750000D01*
X167850000Y-99750000D01*
X167850000Y-99102172D01*
X167849999Y-99102155D01*
X167843598Y-99042627D01*
X167843596Y-99042620D01*
X167793354Y-98907913D01*
X167793350Y-98907906D01*
X167707190Y-98792812D01*
X167707187Y-98792809D01*
X167592093Y-98706649D01*
X167592086Y-98706645D01*
X167457379Y-98656403D01*
X167457372Y-98656401D01*
X167397844Y-98650000D01*
X166750000Y-98650000D01*
X166750000Y-99566988D01*
X166692993Y-99534075D01*
X166565826Y-99500000D01*
X166434174Y-99500000D01*
X166307007Y-99534075D01*
X166250000Y-99566988D01*
X166250000Y-98650000D01*
X165602155Y-98650000D01*
X165542627Y-98656401D01*
X165542619Y-98656403D01*
X165418992Y-98702513D01*
X165349300Y-98707497D01*
X165287977Y-98674012D01*
X165254493Y-98612688D01*
X165259478Y-98542997D01*
X165287976Y-98498652D01*
X168009810Y-95776819D01*
X168071133Y-95743334D01*
X168097491Y-95740500D01*
X168111241Y-95740500D01*
X168111243Y-95740500D01*
X168329940Y-95699618D01*
X168537401Y-95619247D01*
X168726562Y-95502124D01*
X168726562Y-95502123D01*
X168726565Y-95502122D01*
X168890979Y-95352238D01*
X168900741Y-95339312D01*
X169025058Y-95174689D01*
X169124229Y-94975528D01*
X169185115Y-94761536D01*
X169205643Y-94540000D01*
X169203343Y-94515184D01*
X169185115Y-94318464D01*
X169185114Y-94318462D01*
X169124230Y-94104476D01*
X169124229Y-94104472D01*
X169124224Y-94104461D01*
X169025061Y-93905316D01*
X169025056Y-93905308D01*
X168890979Y-93727761D01*
X168726562Y-93577876D01*
X168726560Y-93577874D01*
X168537404Y-93460754D01*
X168537398Y-93460752D01*
X168329940Y-93380382D01*
X168111243Y-93339500D01*
X167888757Y-93339500D01*
X167670060Y-93380382D01*
X167538864Y-93431207D01*
X167462601Y-93460752D01*
X167462595Y-93460754D01*
X167273439Y-93577874D01*
X167273437Y-93577876D01*
X167109020Y-93727761D01*
X166974943Y-93905308D01*
X166974938Y-93905316D01*
X166875775Y-94104461D01*
X166875769Y-94104476D01*
X166814885Y-94318462D01*
X166814885Y-94318464D01*
X166802673Y-94450247D01*
X166776887Y-94515184D01*
X166766883Y-94526486D01*
X163275291Y-98018078D01*
X163265204Y-98033177D01*
X163265203Y-98033179D01*
X163178828Y-98162446D01*
X163178821Y-98162459D01*
X163112377Y-98322871D01*
X163112374Y-98322881D01*
X163078500Y-98493177D01*
X163078500Y-98920241D01*
X163058815Y-98987280D01*
X163042181Y-99007922D01*
X162921505Y-99128597D01*
X162791575Y-99314158D01*
X162736998Y-99357783D01*
X162667500Y-99364977D01*
X162605145Y-99333454D01*
X162588425Y-99314158D01*
X162458494Y-99128597D01*
X162337819Y-99007922D01*
X162304334Y-98946599D01*
X162301500Y-98920241D01*
X162301500Y-96036491D01*
X162321185Y-95969452D01*
X162337819Y-95948810D01*
X162509811Y-95776819D01*
X162571134Y-95743334D01*
X162597492Y-95740500D01*
X162611241Y-95740500D01*
X162611243Y-95740500D01*
X162829940Y-95699618D01*
X163037401Y-95619247D01*
X163226562Y-95502124D01*
X163226562Y-95502123D01*
X163226565Y-95502122D01*
X163390979Y-95352238D01*
X163400741Y-95339312D01*
X163525058Y-95174689D01*
X163624229Y-94975528D01*
X163685115Y-94761536D01*
X163705643Y-94540000D01*
X163703343Y-94515184D01*
X163685115Y-94318464D01*
X163685114Y-94318462D01*
X163624230Y-94104476D01*
X163624229Y-94104472D01*
X163624224Y-94104461D01*
X163525061Y-93905316D01*
X163525056Y-93905308D01*
X163390979Y-93727761D01*
X163226562Y-93577876D01*
X163226560Y-93577874D01*
X163037404Y-93460754D01*
X163037398Y-93460752D01*
X162829940Y-93380382D01*
X162611243Y-93339500D01*
X162388757Y-93339500D01*
X162170060Y-93380382D01*
X162038864Y-93431207D01*
X161962601Y-93460752D01*
X161962595Y-93460754D01*
X161773439Y-93577874D01*
X161773437Y-93577876D01*
X161609020Y-93727761D01*
X161474943Y-93905308D01*
X161474938Y-93905316D01*
X161375775Y-94104461D01*
X161375769Y-94104476D01*
X161314885Y-94318462D01*
X161314885Y-94318464D01*
X161302673Y-94450246D01*
X161276886Y-94515183D01*
X161266883Y-94526485D01*
X160735295Y-95058073D01*
X160638822Y-95202456D01*
X160572377Y-95362871D01*
X160572374Y-95362883D01*
X160544678Y-95502122D01*
X160544678Y-95502126D01*
X160538500Y-95533180D01*
X160538500Y-98920241D01*
X160518815Y-98987280D01*
X160502181Y-99007922D01*
X160381505Y-99128597D01*
X160251575Y-99314158D01*
X160196998Y-99357783D01*
X160127500Y-99364977D01*
X160065145Y-99333454D01*
X160048425Y-99314158D01*
X159918494Y-99128597D01*
X159751402Y-98961506D01*
X159751395Y-98961501D01*
X159557834Y-98825967D01*
X159557830Y-98825965D01*
X159486727Y-98792809D01*
X159343663Y-98726097D01*
X159343659Y-98726096D01*
X159343655Y-98726094D01*
X159115413Y-98664938D01*
X159115403Y-98664936D01*
X158880001Y-98644341D01*
X158879996Y-98644341D01*
X158837341Y-98648072D01*
X158768841Y-98634304D01*
X158738855Y-98612225D01*
X157917819Y-97791189D01*
X157884334Y-97729866D01*
X157881500Y-97703508D01*
X157881500Y-95406351D01*
X157901185Y-95339312D01*
X157906546Y-95331624D01*
X158025058Y-95174689D01*
X158124229Y-94975528D01*
X158185115Y-94761536D01*
X158205643Y-94540000D01*
X158203343Y-94515184D01*
X158185115Y-94318464D01*
X158185114Y-94318462D01*
X158124230Y-94104476D01*
X158124229Y-94104472D01*
X158124224Y-94104461D01*
X158025061Y-93905316D01*
X158025056Y-93905308D01*
X157890979Y-93727761D01*
X157726562Y-93577876D01*
X157726560Y-93577874D01*
X157537404Y-93460754D01*
X157537398Y-93460752D01*
X157329940Y-93380382D01*
X157111243Y-93339500D01*
X156888757Y-93339500D01*
X156670060Y-93380382D01*
X156538864Y-93431207D01*
X156462601Y-93460752D01*
X156462595Y-93460754D01*
X156273439Y-93577874D01*
X156273437Y-93577876D01*
X156109020Y-93727761D01*
X155974943Y-93905308D01*
X155974938Y-93905316D01*
X155875775Y-94104461D01*
X155875769Y-94104476D01*
X155814885Y-94318462D01*
X155814884Y-94318464D01*
X155794357Y-94539999D01*
X152700476Y-94539999D01*
X152802412Y-94431953D01*
X153011130Y-94151596D01*
X153185889Y-93848904D01*
X153324326Y-93527971D01*
X153424569Y-93193136D01*
X153485262Y-92848927D01*
X153505585Y-92500000D01*
X153505585Y-92499996D01*
X171494415Y-92499996D01*
X171494415Y-92500003D01*
X171514738Y-92848927D01*
X171514739Y-92848938D01*
X171575428Y-93193127D01*
X171575430Y-93193134D01*
X171675674Y-93527972D01*
X171814107Y-93848895D01*
X171814113Y-93848908D01*
X171988870Y-94151597D01*
X172197584Y-94431949D01*
X172197589Y-94431955D01*
X172286774Y-94526485D01*
X172437442Y-94686183D01*
X172527246Y-94761537D01*
X172705186Y-94910847D01*
X172705194Y-94910853D01*
X172997203Y-95102911D01*
X172997207Y-95102913D01*
X173309549Y-95259777D01*
X173637989Y-95379319D01*
X173978086Y-95459923D01*
X174325241Y-95500500D01*
X174325248Y-95500500D01*
X174674752Y-95500500D01*
X174674759Y-95500500D01*
X175021914Y-95459923D01*
X175362011Y-95379319D01*
X175690451Y-95259777D01*
X176002793Y-95102913D01*
X176294811Y-94910849D01*
X176562558Y-94686183D01*
X176802412Y-94431953D01*
X177011130Y-94151596D01*
X177185889Y-93848904D01*
X177324326Y-93527971D01*
X177424569Y-93193136D01*
X177485262Y-92848927D01*
X177505585Y-92500000D01*
X177485262Y-92151073D01*
X177485260Y-92151061D01*
X177424571Y-91806872D01*
X177424569Y-91806865D01*
X177324325Y-91472027D01*
X177185892Y-91151104D01*
X177185889Y-91151096D01*
X177011130Y-90848404D01*
X176871241Y-90660500D01*
X176802415Y-90568050D01*
X176802410Y-90568044D01*
X176664741Y-90422125D01*
X176562558Y-90313817D01*
X176414488Y-90189572D01*
X176294813Y-90089152D01*
X176294805Y-90089146D01*
X176002796Y-89897088D01*
X175690458Y-89740226D01*
X175690452Y-89740223D01*
X175362012Y-89620681D01*
X175362009Y-89620680D01*
X175021915Y-89540077D01*
X174978519Y-89535004D01*
X174674759Y-89499500D01*
X174325241Y-89499500D01*
X174021480Y-89535004D01*
X173978085Y-89540077D01*
X173978083Y-89540077D01*
X173637990Y-89620680D01*
X173637987Y-89620681D01*
X173309547Y-89740223D01*
X173309541Y-89740226D01*
X172997203Y-89897088D01*
X172705194Y-90089146D01*
X172705186Y-90089152D01*
X172437442Y-90313817D01*
X172437440Y-90313819D01*
X172197589Y-90568044D01*
X172197584Y-90568050D01*
X171988870Y-90848402D01*
X171814113Y-91151091D01*
X171814107Y-91151104D01*
X171675674Y-91472027D01*
X171575430Y-91806865D01*
X171575428Y-91806872D01*
X171514739Y-92151061D01*
X171514738Y-92151072D01*
X171494415Y-92499996D01*
X153505585Y-92499996D01*
X153485262Y-92151073D01*
X153485260Y-92151061D01*
X153424571Y-91806872D01*
X153424569Y-91806865D01*
X153324325Y-91472027D01*
X153185892Y-91151104D01*
X153185889Y-91151096D01*
X153011130Y-90848404D01*
X152871241Y-90660500D01*
X152802415Y-90568050D01*
X152802410Y-90568044D01*
X152664741Y-90422125D01*
X152562558Y-90313817D01*
X152414488Y-90189572D01*
X152294813Y-90089152D01*
X152294805Y-90089146D01*
X152002796Y-89897088D01*
X151690458Y-89740226D01*
X151690452Y-89740223D01*
X151362012Y-89620681D01*
X151362009Y-89620680D01*
X151021915Y-89540077D01*
X150978519Y-89535004D01*
X150674759Y-89499500D01*
X150325241Y-89499500D01*
X150021480Y-89535004D01*
X149978085Y-89540077D01*
X149978083Y-89540077D01*
X149637990Y-89620680D01*
X149637987Y-89620681D01*
X149309547Y-89740223D01*
X149309541Y-89740226D01*
X148997203Y-89897088D01*
X148705194Y-90089146D01*
X148705186Y-90089152D01*
X148437442Y-90313817D01*
X148437440Y-90313819D01*
X148197589Y-90568044D01*
X148197584Y-90568050D01*
X147988870Y-90848402D01*
X147814113Y-91151091D01*
X147814107Y-91151104D01*
X147675674Y-91472027D01*
X147575430Y-91806865D01*
X147575428Y-91806872D01*
X147514739Y-92151061D01*
X147514738Y-92151072D01*
X147494415Y-92499996D01*
X146000000Y-92499996D01*
X146000000Y-89459999D01*
X155794357Y-89459999D01*
X155794357Y-89460000D01*
X155814884Y-89681535D01*
X155814885Y-89681537D01*
X155875769Y-89895523D01*
X155875775Y-89895538D01*
X155974938Y-90094683D01*
X155974943Y-90094691D01*
X156109020Y-90272238D01*
X156273437Y-90422123D01*
X156273439Y-90422125D01*
X156462595Y-90539245D01*
X156462596Y-90539245D01*
X156462599Y-90539247D01*
X156670060Y-90619618D01*
X156888757Y-90660500D01*
X156888759Y-90660500D01*
X157111241Y-90660500D01*
X157111243Y-90660500D01*
X157329940Y-90619618D01*
X157537401Y-90539247D01*
X157726562Y-90422124D01*
X157890981Y-90272236D01*
X158025058Y-90094689D01*
X158124229Y-89895528D01*
X158185115Y-89681536D01*
X158205643Y-89460000D01*
X158185115Y-89238464D01*
X158124229Y-89024472D01*
X158124224Y-89024461D01*
X158025061Y-88825316D01*
X158025056Y-88825308D01*
X157890979Y-88647761D01*
X157726562Y-88497876D01*
X157726561Y-88497875D01*
X157686221Y-88472897D01*
X157639586Y-88420869D01*
X157627500Y-88367471D01*
X157627500Y-79203192D01*
X158872500Y-79203192D01*
X158872500Y-86521807D01*
X158896612Y-86643028D01*
X158896613Y-86643032D01*
X158896614Y-86643035D01*
X158909108Y-86673197D01*
X158943916Y-86757231D01*
X158943918Y-86757235D01*
X158970353Y-86796799D01*
X158970358Y-86796804D01*
X159012587Y-86860006D01*
X159012591Y-86860011D01*
X161280662Y-89128081D01*
X161314147Y-89189404D01*
X161314783Y-89232697D01*
X161315414Y-89232756D01*
X161294357Y-89459999D01*
X161294357Y-89460000D01*
X161314884Y-89681535D01*
X161314885Y-89681537D01*
X161375769Y-89895523D01*
X161375775Y-89895538D01*
X161474938Y-90094683D01*
X161474943Y-90094691D01*
X161609020Y-90272238D01*
X161773437Y-90422123D01*
X161773439Y-90422125D01*
X161962595Y-90539245D01*
X161962596Y-90539245D01*
X161962599Y-90539247D01*
X162170060Y-90619618D01*
X162388757Y-90660500D01*
X162388759Y-90660500D01*
X162611241Y-90660500D01*
X162611243Y-90660500D01*
X162829940Y-90619618D01*
X163037401Y-90539247D01*
X163226562Y-90422124D01*
X163390981Y-90272236D01*
X163525058Y-90094689D01*
X163624229Y-89895528D01*
X163685115Y-89681536D01*
X163705643Y-89460000D01*
X163685115Y-89238464D01*
X163624229Y-89024472D01*
X163624224Y-89024461D01*
X163525061Y-88825316D01*
X163525056Y-88825308D01*
X163390979Y-88647761D01*
X163226562Y-88497876D01*
X163226560Y-88497874D01*
X163037404Y-88380754D01*
X163037398Y-88380752D01*
X162829940Y-88300382D01*
X162611243Y-88259500D01*
X162388757Y-88259500D01*
X162282955Y-88279278D01*
X162213440Y-88272247D01*
X162172489Y-88245070D01*
X160163819Y-86236400D01*
X160130334Y-86175077D01*
X160127500Y-86148719D01*
X160127500Y-84021954D01*
X160147185Y-83954915D01*
X160199989Y-83909160D01*
X160264763Y-83898665D01*
X160277173Y-83900000D01*
X160975000Y-83900000D01*
X160975000Y-82875277D01*
X161051306Y-82919333D01*
X161165756Y-82950000D01*
X161284244Y-82950000D01*
X161398694Y-82919333D01*
X161475000Y-82875277D01*
X161475000Y-83900000D01*
X162172828Y-83900000D01*
X162172844Y-83899999D01*
X162232372Y-83893598D01*
X162232379Y-83893596D01*
X162367086Y-83843354D01*
X162367093Y-83843350D01*
X162482187Y-83757190D01*
X162482190Y-83757187D01*
X162568350Y-83642093D01*
X162568355Y-83642084D01*
X162597075Y-83565081D01*
X162638945Y-83509147D01*
X162704409Y-83484729D01*
X162772682Y-83499580D01*
X162804484Y-83524428D01*
X162813216Y-83533913D01*
X162813219Y-83533915D01*
X162813222Y-83533918D01*
X162996365Y-83676464D01*
X162996371Y-83676468D01*
X162996374Y-83676470D01*
X163200497Y-83786936D01*
X163314487Y-83826068D01*
X163420015Y-83862297D01*
X163420017Y-83862297D01*
X163420019Y-83862298D01*
X163648951Y-83900500D01*
X163648952Y-83900500D01*
X163881048Y-83900500D01*
X163881049Y-83900500D01*
X164109981Y-83862298D01*
X164133470Y-83854233D01*
X164203264Y-83851082D01*
X164261414Y-83883833D01*
X167336181Y-86958600D01*
X167369666Y-87019923D01*
X167372500Y-87046281D01*
X167372500Y-88367471D01*
X167352815Y-88434510D01*
X167313779Y-88472897D01*
X167273438Y-88497875D01*
X167273437Y-88497876D01*
X167109020Y-88647761D01*
X166974943Y-88825308D01*
X166974938Y-88825316D01*
X166875775Y-89024461D01*
X166875769Y-89024476D01*
X166814885Y-89238462D01*
X166814884Y-89238464D01*
X166794357Y-89459999D01*
X166794357Y-89460000D01*
X166814884Y-89681535D01*
X166814885Y-89681537D01*
X166875769Y-89895523D01*
X166875775Y-89895538D01*
X166974938Y-90094683D01*
X166974943Y-90094691D01*
X167109020Y-90272238D01*
X167273437Y-90422123D01*
X167273439Y-90422125D01*
X167462595Y-90539245D01*
X167462596Y-90539245D01*
X167462599Y-90539247D01*
X167670060Y-90619618D01*
X167888757Y-90660500D01*
X167888759Y-90660500D01*
X168111241Y-90660500D01*
X168111243Y-90660500D01*
X168329940Y-90619618D01*
X168537401Y-90539247D01*
X168726562Y-90422124D01*
X168890981Y-90272236D01*
X169025058Y-90094689D01*
X169124229Y-89895528D01*
X169185115Y-89681536D01*
X169205643Y-89460000D01*
X169185115Y-89238464D01*
X169124229Y-89024472D01*
X169124224Y-89024461D01*
X169025061Y-88825316D01*
X169025056Y-88825308D01*
X168890979Y-88647761D01*
X168726562Y-88497876D01*
X168726561Y-88497875D01*
X168686221Y-88472897D01*
X168639586Y-88420869D01*
X168627500Y-88367471D01*
X168627500Y-86673193D01*
X168603386Y-86551970D01*
X168603385Y-86551969D01*
X168603385Y-86551965D01*
X168590892Y-86521803D01*
X168556086Y-86437773D01*
X168556079Y-86437760D01*
X168487412Y-86334993D01*
X168487411Y-86334992D01*
X168400008Y-86247589D01*
X165146919Y-82994500D01*
X165113434Y-82933177D01*
X165114394Y-82876381D01*
X165151134Y-82731305D01*
X165170300Y-82500000D01*
X165170300Y-82499993D01*
X165151135Y-82268702D01*
X165151133Y-82268691D01*
X165094157Y-82043699D01*
X165000924Y-81831151D01*
X164873983Y-81636852D01*
X164873980Y-81636849D01*
X164873979Y-81636847D01*
X164716784Y-81466087D01*
X164716779Y-81466083D01*
X164716777Y-81466081D01*
X164533634Y-81323535D01*
X164533628Y-81323531D01*
X164329504Y-81213064D01*
X164329495Y-81213061D01*
X164109984Y-81137702D01*
X163922404Y-81106401D01*
X163881049Y-81099500D01*
X163648951Y-81099500D01*
X163607596Y-81106401D01*
X163420015Y-81137702D01*
X163200504Y-81213061D01*
X163200495Y-81213064D01*
X162996371Y-81323531D01*
X162996365Y-81323535D01*
X162813222Y-81466081D01*
X162813215Y-81466087D01*
X162804484Y-81475572D01*
X162744595Y-81511561D01*
X162674757Y-81509458D01*
X162617143Y-81469932D01*
X162597075Y-81434918D01*
X162568355Y-81357915D01*
X162568350Y-81357906D01*
X162482190Y-81242812D01*
X162482187Y-81242809D01*
X162367093Y-81156649D01*
X162367086Y-81156645D01*
X162232379Y-81106403D01*
X162232372Y-81106401D01*
X162172844Y-81100000D01*
X161475000Y-81100000D01*
X161475000Y-82124722D01*
X161398694Y-82080667D01*
X161284244Y-82050000D01*
X161165756Y-82050000D01*
X161051306Y-82080667D01*
X160975000Y-82124722D01*
X160975000Y-81100000D01*
X160277172Y-81100000D01*
X160277153Y-81100001D01*
X160264755Y-81101334D01*
X160195996Y-81088929D01*
X160144858Y-81041319D01*
X160127500Y-80978045D01*
X160127500Y-79576280D01*
X160147185Y-79509241D01*
X160163814Y-79488604D01*
X163268586Y-76383831D01*
X163329907Y-76350348D01*
X163396526Y-76354232D01*
X163420019Y-76362298D01*
X163648951Y-76400500D01*
X163648952Y-76400500D01*
X163881048Y-76400500D01*
X163881049Y-76400500D01*
X164109981Y-76362298D01*
X164329503Y-76286936D01*
X164533626Y-76176470D01*
X164716784Y-76033913D01*
X164873979Y-75863153D01*
X165000924Y-75668849D01*
X165094157Y-75456300D01*
X165151134Y-75231305D01*
X165170300Y-75000000D01*
X165170300Y-74999993D01*
X165151135Y-74768702D01*
X165151133Y-74768691D01*
X165094157Y-74543699D01*
X165000924Y-74331151D01*
X164873983Y-74136852D01*
X164873980Y-74136849D01*
X164873979Y-74136847D01*
X164716784Y-73966087D01*
X164716779Y-73966083D01*
X164716777Y-73966081D01*
X164533634Y-73823535D01*
X164533628Y-73823531D01*
X164329504Y-73713064D01*
X164329495Y-73713061D01*
X164109984Y-73637702D01*
X163922404Y-73606401D01*
X163881049Y-73599500D01*
X163648951Y-73599500D01*
X163607596Y-73606401D01*
X163420015Y-73637702D01*
X163200504Y-73713061D01*
X163200495Y-73713064D01*
X162996371Y-73823531D01*
X162996365Y-73823535D01*
X162813222Y-73966081D01*
X162813215Y-73966087D01*
X162804484Y-73975572D01*
X162744595Y-74011561D01*
X162674757Y-74009458D01*
X162617143Y-73969932D01*
X162597075Y-73934918D01*
X162568355Y-73857915D01*
X162568350Y-73857906D01*
X162482190Y-73742812D01*
X162482187Y-73742809D01*
X162367093Y-73656649D01*
X162367086Y-73656645D01*
X162232379Y-73606403D01*
X162232372Y-73606401D01*
X162172844Y-73600000D01*
X161475000Y-73600000D01*
X161475000Y-74624722D01*
X161398694Y-74580667D01*
X161284244Y-74550000D01*
X161165756Y-74550000D01*
X161051306Y-74580667D01*
X160975000Y-74624722D01*
X160975000Y-73600000D01*
X160277155Y-73600000D01*
X160217627Y-73606401D01*
X160217620Y-73606403D01*
X160082913Y-73656645D01*
X160082906Y-73656649D01*
X159967812Y-73742809D01*
X159967809Y-73742812D01*
X159881649Y-73857906D01*
X159881645Y-73857913D01*
X159831403Y-73992620D01*
X159831401Y-73992627D01*
X159825000Y-74052155D01*
X159825000Y-74750000D01*
X160849722Y-74750000D01*
X160805667Y-74826306D01*
X160775000Y-74940756D01*
X160775000Y-75059244D01*
X160805667Y-75173694D01*
X160849722Y-75250000D01*
X159825000Y-75250000D01*
X159825000Y-75947844D01*
X159831401Y-76007372D01*
X159831403Y-76007379D01*
X159881645Y-76142086D01*
X159881649Y-76142093D01*
X159967809Y-76257187D01*
X159967812Y-76257190D01*
X160082906Y-76343350D01*
X160082913Y-76343354D01*
X160217620Y-76393596D01*
X160217627Y-76393598D01*
X160277155Y-76399999D01*
X160277172Y-76400000D01*
X160975000Y-76400000D01*
X160975000Y-75375277D01*
X161051306Y-75419333D01*
X161165756Y-75450000D01*
X161284244Y-75450000D01*
X161398694Y-75419333D01*
X161475000Y-75375277D01*
X161475000Y-76351218D01*
X161455315Y-76418257D01*
X161438681Y-76438899D01*
X159099992Y-78777589D01*
X159056289Y-78821292D01*
X159012586Y-78864994D01*
X159012585Y-78864996D01*
X158943233Y-78968789D01*
X158941586Y-78973393D01*
X158896614Y-79081964D01*
X158896612Y-79081972D01*
X158872500Y-79203192D01*
X157627500Y-79203192D01*
X157627500Y-74576280D01*
X157647185Y-74509241D01*
X157663814Y-74488604D01*
X163268586Y-68883831D01*
X163329907Y-68850348D01*
X163396526Y-68854232D01*
X163420019Y-68862298D01*
X163648951Y-68900500D01*
X163648952Y-68900500D01*
X163881048Y-68900500D01*
X163881049Y-68900500D01*
X164109981Y-68862298D01*
X164329503Y-68786936D01*
X164533626Y-68676470D01*
X164716784Y-68533913D01*
X164873979Y-68363153D01*
X165000924Y-68168849D01*
X165094157Y-67956300D01*
X165151134Y-67731305D01*
X165170300Y-67500000D01*
X165170300Y-67499993D01*
X165151135Y-67268702D01*
X165151133Y-67268691D01*
X165094157Y-67043699D01*
X165000924Y-66831151D01*
X164873983Y-66636852D01*
X164873980Y-66636849D01*
X164873979Y-66636847D01*
X164716784Y-66466087D01*
X164716779Y-66466083D01*
X164716777Y-66466081D01*
X164533634Y-66323535D01*
X164533628Y-66323531D01*
X164329504Y-66213064D01*
X164329495Y-66213061D01*
X164109984Y-66137702D01*
X163922404Y-66106401D01*
X163881049Y-66099500D01*
X163648951Y-66099500D01*
X163607596Y-66106401D01*
X163420015Y-66137702D01*
X163200504Y-66213061D01*
X163200495Y-66213064D01*
X162996371Y-66323531D01*
X162996365Y-66323535D01*
X162813222Y-66466081D01*
X162813215Y-66466087D01*
X162804484Y-66475572D01*
X162744595Y-66511561D01*
X162674757Y-66509458D01*
X162617143Y-66469932D01*
X162597075Y-66434918D01*
X162568355Y-66357915D01*
X162568350Y-66357906D01*
X162482190Y-66242812D01*
X162482187Y-66242809D01*
X162367093Y-66156649D01*
X162367086Y-66156645D01*
X162232379Y-66106403D01*
X162232372Y-66106401D01*
X162172844Y-66100000D01*
X161475000Y-66100000D01*
X161475000Y-67124722D01*
X161398694Y-67080667D01*
X161284244Y-67050000D01*
X161165756Y-67050000D01*
X161051306Y-67080667D01*
X160975000Y-67124722D01*
X160975000Y-66100000D01*
X160277155Y-66100000D01*
X160217627Y-66106401D01*
X160217620Y-66106403D01*
X160082913Y-66156645D01*
X160082906Y-66156649D01*
X159967812Y-66242809D01*
X159967809Y-66242812D01*
X159881649Y-66357906D01*
X159881645Y-66357913D01*
X159831403Y-66492620D01*
X159831401Y-66492627D01*
X159825000Y-66552155D01*
X159825000Y-67250000D01*
X160849722Y-67250000D01*
X160805667Y-67326306D01*
X160775000Y-67440756D01*
X160775000Y-67559244D01*
X160805667Y-67673694D01*
X160849722Y-67750000D01*
X159825000Y-67750000D01*
X159825000Y-68447844D01*
X159831401Y-68507372D01*
X159831403Y-68507379D01*
X159881645Y-68642086D01*
X159881649Y-68642093D01*
X159967809Y-68757187D01*
X159967812Y-68757190D01*
X160082906Y-68843350D01*
X160082913Y-68843354D01*
X160217620Y-68893596D01*
X160217627Y-68893598D01*
X160277155Y-68899999D01*
X160277172Y-68900000D01*
X160975000Y-68900000D01*
X160975000Y-67875277D01*
X161051306Y-67919333D01*
X161165756Y-67950000D01*
X161284244Y-67950000D01*
X161398694Y-67919333D01*
X161475000Y-67875277D01*
X161475000Y-68851218D01*
X161455315Y-68918257D01*
X161438680Y-68938899D01*
X156599992Y-73777589D01*
X156556289Y-73821292D01*
X156512586Y-73864994D01*
X156512585Y-73864996D01*
X156443233Y-73968789D01*
X156441586Y-73973393D01*
X156396615Y-74081962D01*
X156396612Y-74081972D01*
X156385697Y-74136848D01*
X156372500Y-74203192D01*
X156372500Y-88367471D01*
X156352815Y-88434510D01*
X156313779Y-88472897D01*
X156273438Y-88497875D01*
X156273437Y-88497876D01*
X156109020Y-88647761D01*
X155974943Y-88825308D01*
X155974938Y-88825316D01*
X155875775Y-89024461D01*
X155875769Y-89024476D01*
X155814885Y-89238462D01*
X155814884Y-89238464D01*
X155794357Y-89459999D01*
X146000000Y-89459999D01*
X146000000Y-64999996D01*
X146994415Y-64999996D01*
X146994415Y-65000003D01*
X147014738Y-65348927D01*
X147014739Y-65348938D01*
X147075428Y-65693127D01*
X147075430Y-65693134D01*
X147175674Y-66027972D01*
X147314107Y-66348895D01*
X147314113Y-66348908D01*
X147488870Y-66651597D01*
X147697584Y-66931949D01*
X147697589Y-66931955D01*
X147803015Y-67043699D01*
X147937442Y-67186183D01*
X148104434Y-67326306D01*
X148205186Y-67410847D01*
X148205194Y-67410853D01*
X148497203Y-67602911D01*
X148497207Y-67602913D01*
X148809549Y-67759777D01*
X149137989Y-67879319D01*
X149478086Y-67959923D01*
X149825241Y-68000500D01*
X149825248Y-68000500D01*
X150174752Y-68000500D01*
X150174759Y-68000500D01*
X150521914Y-67959923D01*
X150862011Y-67879319D01*
X151190451Y-67759777D01*
X151502793Y-67602913D01*
X151794811Y-67410849D01*
X152062558Y-67186183D01*
X152302412Y-66931953D01*
X152511130Y-66651596D01*
X152685889Y-66348904D01*
X152824326Y-66027971D01*
X152924569Y-65693136D01*
X152985262Y-65348927D01*
X153005585Y-65000000D01*
X153005585Y-64999996D01*
X171994415Y-64999996D01*
X171994415Y-65000003D01*
X172014738Y-65348927D01*
X172014739Y-65348938D01*
X172075428Y-65693127D01*
X172075430Y-65693134D01*
X172175674Y-66027972D01*
X172314107Y-66348895D01*
X172314113Y-66348908D01*
X172488870Y-66651597D01*
X172697584Y-66931949D01*
X172697589Y-66931955D01*
X172803015Y-67043699D01*
X172937442Y-67186183D01*
X173104434Y-67326306D01*
X173205186Y-67410847D01*
X173205194Y-67410853D01*
X173497203Y-67602911D01*
X173497207Y-67602913D01*
X173809549Y-67759777D01*
X174137989Y-67879319D01*
X174478086Y-67959923D01*
X174825241Y-68000500D01*
X174825248Y-68000500D01*
X175174752Y-68000500D01*
X175174759Y-68000500D01*
X175521914Y-67959923D01*
X175862011Y-67879319D01*
X176190451Y-67759777D01*
X176502793Y-67602913D01*
X176794811Y-67410849D01*
X177062558Y-67186183D01*
X177302412Y-66931953D01*
X177511130Y-66651596D01*
X177685889Y-66348904D01*
X177824326Y-66027971D01*
X177924569Y-65693136D01*
X177985262Y-65348927D01*
X178005585Y-65000000D01*
X177985262Y-64651073D01*
X177985260Y-64651061D01*
X177924571Y-64306872D01*
X177924569Y-64306865D01*
X177824325Y-63972027D01*
X177685892Y-63651104D01*
X177685889Y-63651096D01*
X177511130Y-63348404D01*
X177511129Y-63348402D01*
X177302415Y-63068050D01*
X177302410Y-63068044D01*
X177186433Y-62945117D01*
X177062558Y-62813817D01*
X176914488Y-62689572D01*
X176794813Y-62589152D01*
X176794805Y-62589146D01*
X176502796Y-62397088D01*
X176190458Y-62240226D01*
X176190452Y-62240223D01*
X175862012Y-62120681D01*
X175862009Y-62120680D01*
X175521915Y-62040077D01*
X175478519Y-62035004D01*
X175174759Y-61999500D01*
X174825241Y-61999500D01*
X174521480Y-62035004D01*
X174478085Y-62040077D01*
X174478083Y-62040077D01*
X174137990Y-62120680D01*
X174137987Y-62120681D01*
X173809547Y-62240223D01*
X173809541Y-62240226D01*
X173497203Y-62397088D01*
X173205194Y-62589146D01*
X173205186Y-62589152D01*
X172937442Y-62813817D01*
X172937440Y-62813819D01*
X172697589Y-63068044D01*
X172697584Y-63068050D01*
X172488870Y-63348402D01*
X172314113Y-63651091D01*
X172314107Y-63651104D01*
X172175674Y-63972027D01*
X172075430Y-64306865D01*
X172075428Y-64306872D01*
X172014739Y-64651061D01*
X172014738Y-64651072D01*
X171994415Y-64999996D01*
X153005585Y-64999996D01*
X152985262Y-64651073D01*
X152985260Y-64651061D01*
X152924571Y-64306872D01*
X152924569Y-64306865D01*
X152824325Y-63972027D01*
X152685892Y-63651104D01*
X152685889Y-63651096D01*
X152511130Y-63348404D01*
X152511129Y-63348402D01*
X152302415Y-63068050D01*
X152302410Y-63068044D01*
X152186433Y-62945117D01*
X152062558Y-62813817D01*
X151914488Y-62689572D01*
X151794813Y-62589152D01*
X151794805Y-62589146D01*
X151502796Y-62397088D01*
X151190458Y-62240226D01*
X151190452Y-62240223D01*
X150862012Y-62120681D01*
X150862009Y-62120680D01*
X150521915Y-62040077D01*
X150478519Y-62035004D01*
X150174759Y-61999500D01*
X149825241Y-61999500D01*
X149521480Y-62035004D01*
X149478085Y-62040077D01*
X149478083Y-62040077D01*
X149137990Y-62120680D01*
X149137987Y-62120681D01*
X148809547Y-62240223D01*
X148809541Y-62240226D01*
X148497203Y-62397088D01*
X148205194Y-62589146D01*
X148205186Y-62589152D01*
X147937442Y-62813817D01*
X147937440Y-62813819D01*
X147697589Y-63068044D01*
X147697584Y-63068050D01*
X147488870Y-63348402D01*
X147314113Y-63651091D01*
X147314107Y-63651104D01*
X147175674Y-63972027D01*
X147075430Y-64306865D01*
X147075428Y-64306872D01*
X147014739Y-64651061D01*
X147014738Y-64651072D01*
X146994415Y-64999996D01*
X146000000Y-64999996D01*
X146000000Y-61624000D01*
X146019685Y-61556961D01*
X146072489Y-61511206D01*
X146124000Y-61500000D01*
X178376000Y-61500000D01*
X178443039Y-61519685D01*
G37*
%TD.AperFunction*%
%TD*%
M02*
