%TF.GenerationSoftware,KiCad,Pcbnew,8.0.5*%
%TF.CreationDate,2024-12-18T16:59:37+03:00*%
%TF.ProjectId,Traffic_Light_For_Arduino,54726166-6669-4635-9f4c-696768745f46,V01*%
%TF.SameCoordinates,Original*%
%TF.FileFunction,Soldermask,Top*%
%TF.FilePolarity,Negative*%
%FSLAX46Y46*%
G04 Gerber Fmt 4.6, Leading zero omitted, Abs format (unit mm)*
G04 Created by KiCad (PCBNEW 8.0.5) date 2024-12-18 16:59:37*
%MOMM*%
%LPD*%
G01*
G04 APERTURE LIST*
%ADD10C,0.150000*%
%ADD11C,1.400000*%
%ADD12O,1.400000X1.400000*%
%ADD13R,1.700000X1.700000*%
%ADD14O,1.700000X1.700000*%
%ADD15C,5.000000*%
%ADD16R,1.800000X1.800000*%
%ADD17C,1.800000*%
G04 APERTURE END LIST*
D10*
X169360588Y-99917438D02*
X169265350Y-99869819D01*
X169265350Y-99869819D02*
X169122493Y-99869819D01*
X169122493Y-99869819D02*
X168979636Y-99917438D01*
X168979636Y-99917438D02*
X168884398Y-100012676D01*
X168884398Y-100012676D02*
X168836779Y-100107914D01*
X168836779Y-100107914D02*
X168789160Y-100298390D01*
X168789160Y-100298390D02*
X168789160Y-100441247D01*
X168789160Y-100441247D02*
X168836779Y-100631723D01*
X168836779Y-100631723D02*
X168884398Y-100726961D01*
X168884398Y-100726961D02*
X168979636Y-100822200D01*
X168979636Y-100822200D02*
X169122493Y-100869819D01*
X169122493Y-100869819D02*
X169217731Y-100869819D01*
X169217731Y-100869819D02*
X169360588Y-100822200D01*
X169360588Y-100822200D02*
X169408207Y-100774580D01*
X169408207Y-100774580D02*
X169408207Y-100441247D01*
X169408207Y-100441247D02*
X169217731Y-100441247D01*
X169836779Y-100869819D02*
X169836779Y-99869819D01*
X169836779Y-99869819D02*
X170408207Y-100869819D01*
X170408207Y-100869819D02*
X170408207Y-99869819D01*
X170884398Y-100869819D02*
X170884398Y-99869819D01*
X170884398Y-99869819D02*
X171122493Y-99869819D01*
X171122493Y-99869819D02*
X171265350Y-99917438D01*
X171265350Y-99917438D02*
X171360588Y-100012676D01*
X171360588Y-100012676D02*
X171408207Y-100107914D01*
X171408207Y-100107914D02*
X171455826Y-100298390D01*
X171455826Y-100298390D02*
X171455826Y-100441247D01*
X171455826Y-100441247D02*
X171408207Y-100631723D01*
X171408207Y-100631723D02*
X171360588Y-100726961D01*
X171360588Y-100726961D02*
X171265350Y-100822200D01*
X171265350Y-100822200D02*
X171122493Y-100869819D01*
X171122493Y-100869819D02*
X170884398Y-100869819D01*
D11*
%TO.C,R3*%
X168000000Y-94540000D03*
D12*
X168000000Y-89460000D03*
%TD*%
D11*
%TO.C,R2*%
X162500000Y-94540000D03*
D12*
X162500000Y-89460000D03*
%TD*%
D11*
%TO.C,R1*%
X157000000Y-94540000D03*
D12*
X157000000Y-89460000D03*
%TD*%
D13*
%TO.C,J1*%
X166500000Y-100000000D03*
D14*
X163960000Y-100000000D03*
X161420000Y-100000000D03*
X158880000Y-100000000D03*
%TD*%
D15*
%TO.C,H4*%
X174500000Y-92500000D03*
%TD*%
%TO.C,H3*%
X150500000Y-92500000D03*
%TD*%
%TO.C,H2*%
X175000000Y-65000000D03*
%TD*%
%TO.C,H1*%
X150000000Y-65000000D03*
%TD*%
D16*
%TO.C,RED*%
X161225000Y-82500000D03*
D17*
X163765000Y-82500000D03*
%TD*%
D16*
%TO.C,ORANGE*%
X161225000Y-75000000D03*
D17*
X163765000Y-75000000D03*
%TD*%
D16*
%TO.C,GREEN*%
X161225000Y-67500000D03*
D17*
X163765000Y-67500000D03*
%TD*%
M02*
