M48
; DRILL file {KiCad 8.0.5} date 2024-12-18T16:59:44+0300
; FORMAT={-:-/ absolute / metric / decimal}
; #@! TF.CreationDate,2024-12-18T16:59:44+03:00
; #@! TF.GenerationSoftware,Kicad,Pcbnew,8.0.5
; #@! TF.FileFunction,Plated,1,2,PTH
FMAT,2
METRIC
; #@! TA.AperFunction,Plated,PTH,ComponentDrill
T1C0.700
; #@! TA.AperFunction,Plated,PTH,ComponentDrill
T2C0.900
; #@! TA.AperFunction,Plated,PTH,ComponentDrill
T3C1.000
; #@! TA.AperFunction,Plated,PTH,ComponentDrill
T4C2.500
%
G90
G05
T1
X157.0Y-89.46
X157.0Y-94.54
X162.5Y-89.46
X162.5Y-94.54
X168.0Y-89.46
X168.0Y-94.54
T2
X161.225Y-67.5
X161.225Y-75.0
X161.225Y-82.5
X163.765Y-67.5
X163.765Y-75.0
X163.765Y-82.5
T3
X158.88Y-100.0
X161.42Y-100.0
X163.96Y-100.0
X166.5Y-100.0
T4
X150.0Y-65.0
X150.5Y-92.5
X174.5Y-92.5
X175.0Y-65.0
M30
