%TF.GenerationSoftware,KiCad,Pcbnew,8.0.5*%
%TF.CreationDate,2024-12-18T15:09:30+03:00*%
%TF.ProjectId,555_badge,3535355f-6261-4646-9765-2e6b69636164,V01*%
%TF.SameCoordinates,Original*%
%TF.FileFunction,Legend,Bot*%
%TF.FilePolarity,Positive*%
%FSLAX46Y46*%
G04 Gerber Fmt 4.6, Leading zero omitted, Abs format (unit mm)*
G04 Created by KiCad (PCBNEW 8.0.5) date 2024-12-18 15:09:30*
%MOMM*%
%LPD*%
G01*
G04 APERTURE LIST*
%ADD10C,0.100000*%
%ADD11C,0.120000*%
G04 APERTURE END LIST*
D10*
G36*
X121070621Y-75830000D02*
G01*
X121414026Y-75830000D01*
X121414026Y-74751423D01*
X121318527Y-74751423D01*
X121318527Y-75751842D01*
X121070621Y-75751842D01*
X121070621Y-75830000D01*
G37*
G36*
X120497383Y-75750376D02*
G01*
X120510650Y-75797430D01*
X120519120Y-75807773D01*
X120564084Y-75829457D01*
X120574319Y-75830000D01*
X120866922Y-75830000D01*
X120914932Y-75814176D01*
X120921877Y-75807773D01*
X120942379Y-75763110D01*
X120943126Y-75750376D01*
X120943126Y-74751423D01*
X120847627Y-74751423D01*
X120847627Y-75751842D01*
X120592882Y-75751842D01*
X120592882Y-74751423D01*
X120497383Y-74751423D01*
X120497383Y-75750376D01*
G37*
G36*
X119885554Y-75830000D02*
G01*
X119951500Y-75830000D01*
X120238729Y-75036699D01*
X120238729Y-75830000D01*
X120328611Y-75830000D01*
X120328611Y-74751423D01*
X120257292Y-74751423D01*
X119975680Y-75530802D01*
X119975680Y-74751423D01*
X119885554Y-74751423D01*
X119885554Y-75830000D01*
G37*
G36*
X119282274Y-75750376D02*
G01*
X119296302Y-75798984D01*
X119303524Y-75807773D01*
X119348249Y-75829457D01*
X119358478Y-75830000D01*
X119640823Y-75830000D01*
X119688833Y-75814176D01*
X119695778Y-75807773D01*
X119716280Y-75763110D01*
X119717027Y-75750376D01*
X119717027Y-74831046D01*
X119702999Y-74782439D01*
X119695778Y-74773649D01*
X119651052Y-74751966D01*
X119640823Y-74751423D01*
X119358478Y-74751423D01*
X119310468Y-74767246D01*
X119303524Y-74773649D01*
X119283021Y-74818312D01*
X119282274Y-74831046D01*
X119282274Y-75064054D01*
X119378506Y-75064054D01*
X119378506Y-74829581D01*
X119621528Y-74829581D01*
X119621528Y-75751842D01*
X119378506Y-75751842D01*
X119378506Y-75361053D01*
X119493300Y-75361053D01*
X119493300Y-75282896D01*
X119282274Y-75282896D01*
X119282274Y-75750376D01*
G37*
G36*
X118665317Y-75830000D02*
G01*
X118760816Y-75830000D01*
X118760816Y-75298527D01*
X119019713Y-75298527D01*
X119019713Y-75830000D01*
X119115212Y-75830000D01*
X119115212Y-74751423D01*
X119019713Y-74751423D01*
X119019713Y-75220369D01*
X118760816Y-75220369D01*
X118760816Y-74751423D01*
X118665317Y-74751423D01*
X118665317Y-75830000D01*
G37*
G36*
X118143859Y-75830000D02*
G01*
X118496789Y-75830000D01*
X118496789Y-74751423D01*
X118148011Y-74751423D01*
X118148011Y-74829581D01*
X118401290Y-74829581D01*
X118401290Y-75236001D01*
X118170481Y-75236001D01*
X118170481Y-75314159D01*
X118401290Y-75314159D01*
X118401290Y-75751842D01*
X118143859Y-75751842D01*
X118143859Y-75830000D01*
G37*
G36*
X117305129Y-75750376D02*
G01*
X117318995Y-75798984D01*
X117326133Y-75807773D01*
X117370383Y-75829457D01*
X117380600Y-75830000D01*
X117651221Y-75830000D01*
X117698091Y-75815327D01*
X117706664Y-75807773D01*
X117727402Y-75763110D01*
X117728157Y-75750376D01*
X117728157Y-75486106D01*
X117632658Y-75486106D01*
X117632658Y-75751842D01*
X117400628Y-75751842D01*
X117400628Y-75493921D01*
X117697138Y-75123649D01*
X117721342Y-75080701D01*
X117728157Y-75039141D01*
X117728157Y-74831046D01*
X117713968Y-74782439D01*
X117706664Y-74773649D01*
X117661462Y-74751966D01*
X117651221Y-74751423D01*
X117380600Y-74751423D01*
X117332937Y-74767246D01*
X117326133Y-74773649D01*
X117305867Y-74818312D01*
X117305129Y-74831046D01*
X117305129Y-75079685D01*
X117400628Y-75079685D01*
X117400628Y-74829581D01*
X117632658Y-74829581D01*
X117632658Y-75056238D01*
X117334682Y-75426755D01*
X117310785Y-75471182D01*
X117305129Y-75509797D01*
X117305129Y-75750376D01*
G37*
G36*
X117055757Y-75830000D02*
G01*
X117160293Y-75830000D01*
X117160293Y-75704947D01*
X117055757Y-75704947D01*
X117055757Y-75830000D01*
G37*
D11*
%TO.C,J1*%
X123390000Y-100500000D02*
G75*
G02*
X118970000Y-100500000I-2210000J0D01*
G01*
X118970000Y-100500000D02*
G75*
G02*
X123390000Y-100500000I2210000J0D01*
G01*
X143210000Y-100500000D02*
G75*
G02*
X138790000Y-100500000I-2210000J0D01*
G01*
X138790000Y-100500000D02*
G75*
G02*
X143210000Y-100500000I2210000J0D01*
G01*
%TD*%
M02*
