%TF.GenerationSoftware,KiCad,Pcbnew,8.0.5*%
%TF.CreationDate,2024-12-18T15:09:30+03:00*%
%TF.ProjectId,555_badge,3535355f-6261-4646-9765-2e6b69636164,V01*%
%TF.SameCoordinates,Original*%
%TF.FileFunction,Legend,Top*%
%TF.FilePolarity,Positive*%
%FSLAX46Y46*%
G04 Gerber Fmt 4.6, Leading zero omitted, Abs format (unit mm)*
G04 Created by KiCad (PCBNEW 8.0.5) date 2024-12-18 15:09:30*
%MOMM*%
%LPD*%
G01*
G04 APERTURE LIST*
%ADD10C,0.150000*%
%ADD11C,0.120000*%
G04 APERTURE END LIST*
D10*
X131238095Y-78554819D02*
X131238095Y-79364342D01*
X131238095Y-79364342D02*
X131285714Y-79459580D01*
X131285714Y-79459580D02*
X131333333Y-79507200D01*
X131333333Y-79507200D02*
X131428571Y-79554819D01*
X131428571Y-79554819D02*
X131619047Y-79554819D01*
X131619047Y-79554819D02*
X131714285Y-79507200D01*
X131714285Y-79507200D02*
X131761904Y-79459580D01*
X131761904Y-79459580D02*
X131809523Y-79364342D01*
X131809523Y-79364342D02*
X131809523Y-78554819D01*
X132809523Y-79554819D02*
X132238095Y-79554819D01*
X132523809Y-79554819D02*
X132523809Y-78554819D01*
X132523809Y-78554819D02*
X132428571Y-78697676D01*
X132428571Y-78697676D02*
X132333333Y-78792914D01*
X132333333Y-78792914D02*
X132238095Y-78840533D01*
X126414819Y-88733094D02*
X125414819Y-88733094D01*
X125414819Y-88733094D02*
X125414819Y-88494999D01*
X125414819Y-88494999D02*
X125462438Y-88352142D01*
X125462438Y-88352142D02*
X125557676Y-88256904D01*
X125557676Y-88256904D02*
X125652914Y-88209285D01*
X125652914Y-88209285D02*
X125843390Y-88161666D01*
X125843390Y-88161666D02*
X125986247Y-88161666D01*
X125986247Y-88161666D02*
X126176723Y-88209285D01*
X126176723Y-88209285D02*
X126271961Y-88256904D01*
X126271961Y-88256904D02*
X126367200Y-88352142D01*
X126367200Y-88352142D02*
X126414819Y-88494999D01*
X126414819Y-88494999D02*
X126414819Y-88733094D01*
X126414819Y-87209285D02*
X126414819Y-87780713D01*
X126414819Y-87494999D02*
X125414819Y-87494999D01*
X125414819Y-87494999D02*
X125557676Y-87590237D01*
X125557676Y-87590237D02*
X125652914Y-87685475D01*
X125652914Y-87685475D02*
X125700533Y-87780713D01*
X132333333Y-75454819D02*
X132000000Y-74978628D01*
X131761905Y-75454819D02*
X131761905Y-74454819D01*
X131761905Y-74454819D02*
X132142857Y-74454819D01*
X132142857Y-74454819D02*
X132238095Y-74502438D01*
X132238095Y-74502438D02*
X132285714Y-74550057D01*
X132285714Y-74550057D02*
X132333333Y-74645295D01*
X132333333Y-74645295D02*
X132333333Y-74788152D01*
X132333333Y-74788152D02*
X132285714Y-74883390D01*
X132285714Y-74883390D02*
X132238095Y-74931009D01*
X132238095Y-74931009D02*
X132142857Y-74978628D01*
X132142857Y-74978628D02*
X131761905Y-74978628D01*
X132666667Y-74454819D02*
X133285714Y-74454819D01*
X133285714Y-74454819D02*
X132952381Y-74835771D01*
X132952381Y-74835771D02*
X133095238Y-74835771D01*
X133095238Y-74835771D02*
X133190476Y-74883390D01*
X133190476Y-74883390D02*
X133238095Y-74931009D01*
X133238095Y-74931009D02*
X133285714Y-75026247D01*
X133285714Y-75026247D02*
X133285714Y-75264342D01*
X133285714Y-75264342D02*
X133238095Y-75359580D01*
X133238095Y-75359580D02*
X133190476Y-75407200D01*
X133190476Y-75407200D02*
X133095238Y-75454819D01*
X133095238Y-75454819D02*
X132809524Y-75454819D01*
X132809524Y-75454819D02*
X132714286Y-75407200D01*
X132714286Y-75407200D02*
X132666667Y-75359580D01*
X130756666Y-105954819D02*
X130756666Y-106669104D01*
X130756666Y-106669104D02*
X130709047Y-106811961D01*
X130709047Y-106811961D02*
X130613809Y-106907200D01*
X130613809Y-106907200D02*
X130470952Y-106954819D01*
X130470952Y-106954819D02*
X130375714Y-106954819D01*
X131756666Y-106954819D02*
X131185238Y-106954819D01*
X131470952Y-106954819D02*
X131470952Y-105954819D01*
X131470952Y-105954819D02*
X131375714Y-106097676D01*
X131375714Y-106097676D02*
X131280476Y-106192914D01*
X131280476Y-106192914D02*
X131185238Y-106240533D01*
X141878221Y-75109580D02*
X141830602Y-75157200D01*
X141830602Y-75157200D02*
X141687745Y-75204819D01*
X141687745Y-75204819D02*
X141592507Y-75204819D01*
X141592507Y-75204819D02*
X141449650Y-75157200D01*
X141449650Y-75157200D02*
X141354412Y-75061961D01*
X141354412Y-75061961D02*
X141306793Y-74966723D01*
X141306793Y-74966723D02*
X141259174Y-74776247D01*
X141259174Y-74776247D02*
X141259174Y-74633390D01*
X141259174Y-74633390D02*
X141306793Y-74442914D01*
X141306793Y-74442914D02*
X141354412Y-74347676D01*
X141354412Y-74347676D02*
X141449650Y-74252438D01*
X141449650Y-74252438D02*
X141592507Y-74204819D01*
X141592507Y-74204819D02*
X141687745Y-74204819D01*
X141687745Y-74204819D02*
X141830602Y-74252438D01*
X141830602Y-74252438D02*
X141878221Y-74300057D01*
X142259174Y-74300057D02*
X142306793Y-74252438D01*
X142306793Y-74252438D02*
X142402031Y-74204819D01*
X142402031Y-74204819D02*
X142640126Y-74204819D01*
X142640126Y-74204819D02*
X142735364Y-74252438D01*
X142735364Y-74252438D02*
X142782983Y-74300057D01*
X142782983Y-74300057D02*
X142830602Y-74395295D01*
X142830602Y-74395295D02*
X142830602Y-74490533D01*
X142830602Y-74490533D02*
X142782983Y-74633390D01*
X142782983Y-74633390D02*
X142211555Y-75204819D01*
X142211555Y-75204819D02*
X142830602Y-75204819D01*
X142333333Y-84609580D02*
X142285714Y-84657200D01*
X142285714Y-84657200D02*
X142142857Y-84704819D01*
X142142857Y-84704819D02*
X142047619Y-84704819D01*
X142047619Y-84704819D02*
X141904762Y-84657200D01*
X141904762Y-84657200D02*
X141809524Y-84561961D01*
X141809524Y-84561961D02*
X141761905Y-84466723D01*
X141761905Y-84466723D02*
X141714286Y-84276247D01*
X141714286Y-84276247D02*
X141714286Y-84133390D01*
X141714286Y-84133390D02*
X141761905Y-83942914D01*
X141761905Y-83942914D02*
X141809524Y-83847676D01*
X141809524Y-83847676D02*
X141904762Y-83752438D01*
X141904762Y-83752438D02*
X142047619Y-83704819D01*
X142047619Y-83704819D02*
X142142857Y-83704819D01*
X142142857Y-83704819D02*
X142285714Y-83752438D01*
X142285714Y-83752438D02*
X142333333Y-83800057D01*
X143285714Y-84704819D02*
X142714286Y-84704819D01*
X143000000Y-84704819D02*
X143000000Y-83704819D01*
X143000000Y-83704819D02*
X142904762Y-83847676D01*
X142904762Y-83847676D02*
X142809524Y-83942914D01*
X142809524Y-83942914D02*
X142714286Y-83990533D01*
X135333333Y-92034819D02*
X135000000Y-91558628D01*
X134761905Y-92034819D02*
X134761905Y-91034819D01*
X134761905Y-91034819D02*
X135142857Y-91034819D01*
X135142857Y-91034819D02*
X135238095Y-91082438D01*
X135238095Y-91082438D02*
X135285714Y-91130057D01*
X135285714Y-91130057D02*
X135333333Y-91225295D01*
X135333333Y-91225295D02*
X135333333Y-91368152D01*
X135333333Y-91368152D02*
X135285714Y-91463390D01*
X135285714Y-91463390D02*
X135238095Y-91511009D01*
X135238095Y-91511009D02*
X135142857Y-91558628D01*
X135142857Y-91558628D02*
X134761905Y-91558628D01*
X135714286Y-91130057D02*
X135761905Y-91082438D01*
X135761905Y-91082438D02*
X135857143Y-91034819D01*
X135857143Y-91034819D02*
X136095238Y-91034819D01*
X136095238Y-91034819D02*
X136190476Y-91082438D01*
X136190476Y-91082438D02*
X136238095Y-91130057D01*
X136238095Y-91130057D02*
X136285714Y-91225295D01*
X136285714Y-91225295D02*
X136285714Y-91320533D01*
X136285714Y-91320533D02*
X136238095Y-91463390D01*
X136238095Y-91463390D02*
X135666667Y-92034819D01*
X135666667Y-92034819D02*
X136285714Y-92034819D01*
X127333333Y-95874819D02*
X127000000Y-95398628D01*
X126761905Y-95874819D02*
X126761905Y-94874819D01*
X126761905Y-94874819D02*
X127142857Y-94874819D01*
X127142857Y-94874819D02*
X127238095Y-94922438D01*
X127238095Y-94922438D02*
X127285714Y-94970057D01*
X127285714Y-94970057D02*
X127333333Y-95065295D01*
X127333333Y-95065295D02*
X127333333Y-95208152D01*
X127333333Y-95208152D02*
X127285714Y-95303390D01*
X127285714Y-95303390D02*
X127238095Y-95351009D01*
X127238095Y-95351009D02*
X127142857Y-95398628D01*
X127142857Y-95398628D02*
X126761905Y-95398628D01*
X128285714Y-95874819D02*
X127714286Y-95874819D01*
X128000000Y-95874819D02*
X128000000Y-94874819D01*
X128000000Y-94874819D02*
X127904762Y-95017676D01*
X127904762Y-95017676D02*
X127809524Y-95112914D01*
X127809524Y-95112914D02*
X127714286Y-95160533D01*
D11*
%TO.C,U1*%
X132000000Y-79940000D02*
X130050000Y-79940000D01*
X132000000Y-79940000D02*
X133950000Y-79940000D01*
X132000000Y-85060000D02*
X130050000Y-85060000D01*
X132000000Y-85060000D02*
X133950000Y-85060000D01*
X129300000Y-80035000D02*
X129060000Y-79705000D01*
X129540000Y-79705000D01*
X129300000Y-80035000D01*
G36*
X129300000Y-80035000D02*
G01*
X129060000Y-79705000D01*
X129540000Y-79705000D01*
X129300000Y-80035000D01*
G37*
%TO.C,D1*%
X123545000Y-85435000D02*
X120455000Y-85435000D01*
X122000462Y-90985000D02*
G75*
G02*
X120455170Y-85435000I-462J2990000D01*
G01*
X123544830Y-85435000D02*
G75*
G02*
X121999538Y-90985000I-1544830J-2560000D01*
G01*
X124500000Y-87995000D02*
G75*
G02*
X119500000Y-87995000I-2500000J0D01*
G01*
X119500000Y-87995000D02*
G75*
G02*
X124500000Y-87995000I2500000J0D01*
G01*
%TO.C,R3*%
X134420000Y-77920000D02*
X130580000Y-77920000D01*
X134420000Y-76080000D02*
X130580000Y-76080000D01*
%TO.C,J1*%
X118070000Y-96590000D02*
X118070000Y-105410000D01*
X118070000Y-104600000D02*
X120070000Y-104600000D01*
X118070000Y-105410000D02*
X144110000Y-105410000D01*
X120180000Y-103600000D02*
X122180000Y-103600000D01*
X120180000Y-105410000D02*
X120180000Y-103600000D01*
X122180000Y-103600000D02*
X122180000Y-105410000D01*
X122180000Y-105410000D02*
X120180000Y-105410000D01*
X124270000Y-98300000D02*
X125280000Y-98300000D01*
X124270000Y-103600000D02*
X124270000Y-98300000D01*
X126280000Y-103600000D02*
X128280000Y-103600000D01*
X126280000Y-104600000D02*
X122180000Y-104600000D01*
X126280000Y-105410000D02*
X126280000Y-103600000D01*
X128280000Y-103600000D02*
X128280000Y-105410000D01*
X128280000Y-105410000D02*
X126280000Y-105410000D01*
X132900000Y-98300000D02*
X129280000Y-98300000D01*
X133900000Y-103600000D02*
X135900000Y-103600000D01*
X133900000Y-104600000D02*
X128280000Y-104600000D01*
X133900000Y-105410000D02*
X133900000Y-103600000D01*
X134600000Y-106210000D02*
X134900000Y-105610000D01*
X134900000Y-105610000D02*
X135200000Y-106210000D01*
X135200000Y-106210000D02*
X134600000Y-106210000D01*
X135900000Y-103600000D02*
X135900000Y-105410000D01*
X135900000Y-105410000D02*
X133900000Y-105410000D01*
X136900000Y-98300000D02*
X137910000Y-98300000D01*
X137910000Y-98300000D02*
X137910000Y-103600000D01*
X137910000Y-103600000D02*
X124270000Y-103600000D01*
X140000000Y-103600000D02*
X142000000Y-103600000D01*
X140000000Y-104600000D02*
X135900000Y-104600000D01*
X140000000Y-105410000D02*
X140000000Y-103600000D01*
X142000000Y-103600000D02*
X142000000Y-105410000D01*
X142000000Y-105410000D02*
X140000000Y-105410000D01*
X144110000Y-96590000D02*
X118070000Y-96590000D01*
X144110000Y-104600000D02*
X142110000Y-104600000D01*
X144110000Y-105410000D02*
X144110000Y-96590000D01*
X125293158Y-98284179D02*
G75*
G02*
X129280000Y-98300000I1986842J-1665821D01*
G01*
X132913158Y-98284179D02*
G75*
G02*
X136900000Y-98300000I1986842J-1665821D01*
G01*
X123080000Y-100500000D02*
G75*
G02*
X119280000Y-100500000I-1900000J0D01*
G01*
X119280000Y-100500000D02*
G75*
G02*
X123080000Y-100500000I1900000J0D01*
G01*
X142900000Y-100500000D02*
G75*
G02*
X139100000Y-100500000I-1900000J0D01*
G01*
X139100000Y-100500000D02*
G75*
G02*
X142900000Y-100500000I1900000J0D01*
G01*
%TO.C,C2*%
X139240113Y-77025000D02*
X139740113Y-77025000D01*
X139490113Y-76775000D02*
X139490113Y-77275000D01*
X142044888Y-75920000D02*
X142044888Y-77460000D01*
X142044888Y-79540000D02*
X142044888Y-81080000D01*
X142084888Y-75920000D02*
X142084888Y-77460000D01*
X142084888Y-79540000D02*
X142084888Y-81080000D01*
X142124888Y-75921000D02*
X142124888Y-77460000D01*
X142124888Y-79540000D02*
X142124888Y-81079000D01*
X142164888Y-75922000D02*
X142164888Y-77460000D01*
X142164888Y-79540000D02*
X142164888Y-81078000D01*
X142204888Y-75924000D02*
X142204888Y-77460000D01*
X142204888Y-79540000D02*
X142204888Y-81076000D01*
X142244888Y-75927000D02*
X142244888Y-77460000D01*
X142244888Y-79540000D02*
X142244888Y-81073000D01*
X142284888Y-75931000D02*
X142284888Y-77460000D01*
X142284888Y-79540000D02*
X142284888Y-81069000D01*
X142324888Y-75935000D02*
X142324888Y-77460000D01*
X142324888Y-79540000D02*
X142324888Y-81065000D01*
X142364888Y-75939000D02*
X142364888Y-77460000D01*
X142364888Y-79540000D02*
X142364888Y-81061000D01*
X142404888Y-75944000D02*
X142404888Y-77460000D01*
X142404888Y-79540000D02*
X142404888Y-81056000D01*
X142444888Y-75950000D02*
X142444888Y-77460000D01*
X142444888Y-79540000D02*
X142444888Y-81050000D01*
X142484888Y-75957000D02*
X142484888Y-77460000D01*
X142484888Y-79540000D02*
X142484888Y-81043000D01*
X142524888Y-75964000D02*
X142524888Y-77460000D01*
X142524888Y-79540000D02*
X142524888Y-81036000D01*
X142564888Y-75972000D02*
X142564888Y-77460000D01*
X142564888Y-79540000D02*
X142564888Y-81028000D01*
X142604888Y-75980000D02*
X142604888Y-77460000D01*
X142604888Y-79540000D02*
X142604888Y-81020000D01*
X142644888Y-75989000D02*
X142644888Y-77460000D01*
X142644888Y-79540000D02*
X142644888Y-81011000D01*
X142684888Y-75999000D02*
X142684888Y-77460000D01*
X142684888Y-79540000D02*
X142684888Y-81001000D01*
X142724888Y-76009000D02*
X142724888Y-77460000D01*
X142724888Y-79540000D02*
X142724888Y-80991000D01*
X142765888Y-76020000D02*
X142765888Y-77460000D01*
X142765888Y-79540000D02*
X142765888Y-80980000D01*
X142805888Y-76032000D02*
X142805888Y-77460000D01*
X142805888Y-79540000D02*
X142805888Y-80968000D01*
X142845888Y-76045000D02*
X142845888Y-77460000D01*
X142845888Y-79540000D02*
X142845888Y-80955000D01*
X142885888Y-76058000D02*
X142885888Y-77460000D01*
X142885888Y-79540000D02*
X142885888Y-80942000D01*
X142925888Y-76072000D02*
X142925888Y-77460000D01*
X142925888Y-79540000D02*
X142925888Y-80928000D01*
X142965888Y-76086000D02*
X142965888Y-77460000D01*
X142965888Y-79540000D02*
X142965888Y-80914000D01*
X143005888Y-76102000D02*
X143005888Y-77460000D01*
X143005888Y-79540000D02*
X143005888Y-80898000D01*
X143045888Y-76118000D02*
X143045888Y-77460000D01*
X143045888Y-79540000D02*
X143045888Y-80882000D01*
X143085888Y-76135000D02*
X143085888Y-77460000D01*
X143085888Y-79540000D02*
X143085888Y-80865000D01*
X143125888Y-76152000D02*
X143125888Y-77460000D01*
X143125888Y-79540000D02*
X143125888Y-80848000D01*
X143165888Y-76171000D02*
X143165888Y-77460000D01*
X143165888Y-79540000D02*
X143165888Y-80829000D01*
X143205888Y-76190000D02*
X143205888Y-77460000D01*
X143205888Y-79540000D02*
X143205888Y-80810000D01*
X143245888Y-76210000D02*
X143245888Y-77460000D01*
X143245888Y-79540000D02*
X143245888Y-80790000D01*
X143285888Y-76232000D02*
X143285888Y-77460000D01*
X143285888Y-79540000D02*
X143285888Y-80768000D01*
X143325888Y-76253000D02*
X143325888Y-77460000D01*
X143325888Y-79540000D02*
X143325888Y-80747000D01*
X143365888Y-76276000D02*
X143365888Y-77460000D01*
X143365888Y-79540000D02*
X143365888Y-80724000D01*
X143405888Y-76300000D02*
X143405888Y-77460000D01*
X143405888Y-79540000D02*
X143405888Y-80700000D01*
X143445888Y-76325000D02*
X143445888Y-77460000D01*
X143445888Y-79540000D02*
X143445888Y-80675000D01*
X143485888Y-76351000D02*
X143485888Y-77460000D01*
X143485888Y-79540000D02*
X143485888Y-80649000D01*
X143525888Y-76378000D02*
X143525888Y-77460000D01*
X143525888Y-79540000D02*
X143525888Y-80622000D01*
X143565888Y-76405000D02*
X143565888Y-77460000D01*
X143565888Y-79540000D02*
X143565888Y-80595000D01*
X143605888Y-76435000D02*
X143605888Y-77460000D01*
X143605888Y-79540000D02*
X143605888Y-80565000D01*
X143645888Y-76465000D02*
X143645888Y-77460000D01*
X143645888Y-79540000D02*
X143645888Y-80535000D01*
X143685888Y-76496000D02*
X143685888Y-77460000D01*
X143685888Y-79540000D02*
X143685888Y-80504000D01*
X143725888Y-76529000D02*
X143725888Y-77460000D01*
X143725888Y-79540000D02*
X143725888Y-80471000D01*
X143765888Y-76563000D02*
X143765888Y-77460000D01*
X143765888Y-79540000D02*
X143765888Y-80437000D01*
X143805888Y-76599000D02*
X143805888Y-77460000D01*
X143805888Y-79540000D02*
X143805888Y-80401000D01*
X143845888Y-76636000D02*
X143845888Y-77460000D01*
X143845888Y-79540000D02*
X143845888Y-80364000D01*
X143885888Y-76674000D02*
X143885888Y-77460000D01*
X143885888Y-79540000D02*
X143885888Y-80326000D01*
X143925888Y-76715000D02*
X143925888Y-77460000D01*
X143925888Y-79540000D02*
X143925888Y-80285000D01*
X143965888Y-76757000D02*
X143965888Y-77460000D01*
X143965888Y-79540000D02*
X143965888Y-80243000D01*
X144005888Y-76801000D02*
X144005888Y-77460000D01*
X144005888Y-79540000D02*
X144005888Y-80199000D01*
X144045888Y-76847000D02*
X144045888Y-77460000D01*
X144045888Y-79540000D02*
X144045888Y-80153000D01*
X144085888Y-76895000D02*
X144085888Y-80105000D01*
X144125888Y-76946000D02*
X144125888Y-80054000D01*
X144165888Y-77000000D02*
X144165888Y-80000000D01*
X144205888Y-77057000D02*
X144205888Y-79943000D01*
X144245888Y-77117000D02*
X144245888Y-79883000D01*
X144285888Y-77181000D02*
X144285888Y-79819000D01*
X144325888Y-77249000D02*
X144325888Y-79751000D01*
X144365888Y-77322000D02*
X144365888Y-79678000D01*
X144405888Y-77402000D02*
X144405888Y-79598000D01*
X144445888Y-77489000D02*
X144445888Y-79511000D01*
X144485888Y-77585000D02*
X144485888Y-79415000D01*
X144525888Y-77695000D02*
X144525888Y-79305000D01*
X144565888Y-77823000D02*
X144565888Y-79177000D01*
X144605888Y-77982000D02*
X144605888Y-79018000D01*
X144645888Y-78216000D02*
X144645888Y-78784000D01*
X144664888Y-78500000D02*
G75*
G02*
X139424888Y-78500000I-2620000J0D01*
G01*
X139424888Y-78500000D02*
G75*
G02*
X144664888Y-78500000I2620000J0D01*
G01*
%TO.C,C1*%
X139695225Y-86525000D02*
X140195225Y-86525000D01*
X139945225Y-86275000D02*
X139945225Y-86775000D01*
X142500000Y-85420000D02*
X142500000Y-86960000D01*
X142500000Y-89040000D02*
X142500000Y-90580000D01*
X142540000Y-85420000D02*
X142540000Y-86960000D01*
X142540000Y-89040000D02*
X142540000Y-90580000D01*
X142580000Y-85421000D02*
X142580000Y-86960000D01*
X142580000Y-89040000D02*
X142580000Y-90579000D01*
X142620000Y-85422000D02*
X142620000Y-86960000D01*
X142620000Y-89040000D02*
X142620000Y-90578000D01*
X142660000Y-85424000D02*
X142660000Y-86960000D01*
X142660000Y-89040000D02*
X142660000Y-90576000D01*
X142700000Y-85427000D02*
X142700000Y-86960000D01*
X142700000Y-89040000D02*
X142700000Y-90573000D01*
X142740000Y-85431000D02*
X142740000Y-86960000D01*
X142740000Y-89040000D02*
X142740000Y-90569000D01*
X142780000Y-85435000D02*
X142780000Y-86960000D01*
X142780000Y-89040000D02*
X142780000Y-90565000D01*
X142820000Y-85439000D02*
X142820000Y-86960000D01*
X142820000Y-89040000D02*
X142820000Y-90561000D01*
X142860000Y-85444000D02*
X142860000Y-86960000D01*
X142860000Y-89040000D02*
X142860000Y-90556000D01*
X142900000Y-85450000D02*
X142900000Y-86960000D01*
X142900000Y-89040000D02*
X142900000Y-90550000D01*
X142940000Y-85457000D02*
X142940000Y-86960000D01*
X142940000Y-89040000D02*
X142940000Y-90543000D01*
X142980000Y-85464000D02*
X142980000Y-86960000D01*
X142980000Y-89040000D02*
X142980000Y-90536000D01*
X143020000Y-85472000D02*
X143020000Y-86960000D01*
X143020000Y-89040000D02*
X143020000Y-90528000D01*
X143060000Y-85480000D02*
X143060000Y-86960000D01*
X143060000Y-89040000D02*
X143060000Y-90520000D01*
X143100000Y-85489000D02*
X143100000Y-86960000D01*
X143100000Y-89040000D02*
X143100000Y-90511000D01*
X143140000Y-85499000D02*
X143140000Y-86960000D01*
X143140000Y-89040000D02*
X143140000Y-90501000D01*
X143180000Y-85509000D02*
X143180000Y-86960000D01*
X143180000Y-89040000D02*
X143180000Y-90491000D01*
X143221000Y-85520000D02*
X143221000Y-86960000D01*
X143221000Y-89040000D02*
X143221000Y-90480000D01*
X143261000Y-85532000D02*
X143261000Y-86960000D01*
X143261000Y-89040000D02*
X143261000Y-90468000D01*
X143301000Y-85545000D02*
X143301000Y-86960000D01*
X143301000Y-89040000D02*
X143301000Y-90455000D01*
X143341000Y-85558000D02*
X143341000Y-86960000D01*
X143341000Y-89040000D02*
X143341000Y-90442000D01*
X143381000Y-85572000D02*
X143381000Y-86960000D01*
X143381000Y-89040000D02*
X143381000Y-90428000D01*
X143421000Y-85586000D02*
X143421000Y-86960000D01*
X143421000Y-89040000D02*
X143421000Y-90414000D01*
X143461000Y-85602000D02*
X143461000Y-86960000D01*
X143461000Y-89040000D02*
X143461000Y-90398000D01*
X143501000Y-85618000D02*
X143501000Y-86960000D01*
X143501000Y-89040000D02*
X143501000Y-90382000D01*
X143541000Y-85635000D02*
X143541000Y-86960000D01*
X143541000Y-89040000D02*
X143541000Y-90365000D01*
X143581000Y-85652000D02*
X143581000Y-86960000D01*
X143581000Y-89040000D02*
X143581000Y-90348000D01*
X143621000Y-85671000D02*
X143621000Y-86960000D01*
X143621000Y-89040000D02*
X143621000Y-90329000D01*
X143661000Y-85690000D02*
X143661000Y-86960000D01*
X143661000Y-89040000D02*
X143661000Y-90310000D01*
X143701000Y-85710000D02*
X143701000Y-86960000D01*
X143701000Y-89040000D02*
X143701000Y-90290000D01*
X143741000Y-85732000D02*
X143741000Y-86960000D01*
X143741000Y-89040000D02*
X143741000Y-90268000D01*
X143781000Y-85753000D02*
X143781000Y-86960000D01*
X143781000Y-89040000D02*
X143781000Y-90247000D01*
X143821000Y-85776000D02*
X143821000Y-86960000D01*
X143821000Y-89040000D02*
X143821000Y-90224000D01*
X143861000Y-85800000D02*
X143861000Y-86960000D01*
X143861000Y-89040000D02*
X143861000Y-90200000D01*
X143901000Y-85825000D02*
X143901000Y-86960000D01*
X143901000Y-89040000D02*
X143901000Y-90175000D01*
X143941000Y-85851000D02*
X143941000Y-86960000D01*
X143941000Y-89040000D02*
X143941000Y-90149000D01*
X143981000Y-85878000D02*
X143981000Y-86960000D01*
X143981000Y-89040000D02*
X143981000Y-90122000D01*
X144021000Y-85905000D02*
X144021000Y-86960000D01*
X144021000Y-89040000D02*
X144021000Y-90095000D01*
X144061000Y-85935000D02*
X144061000Y-86960000D01*
X144061000Y-89040000D02*
X144061000Y-90065000D01*
X144101000Y-85965000D02*
X144101000Y-86960000D01*
X144101000Y-89040000D02*
X144101000Y-90035000D01*
X144141000Y-85996000D02*
X144141000Y-86960000D01*
X144141000Y-89040000D02*
X144141000Y-90004000D01*
X144181000Y-86029000D02*
X144181000Y-86960000D01*
X144181000Y-89040000D02*
X144181000Y-89971000D01*
X144221000Y-86063000D02*
X144221000Y-86960000D01*
X144221000Y-89040000D02*
X144221000Y-89937000D01*
X144261000Y-86099000D02*
X144261000Y-86960000D01*
X144261000Y-89040000D02*
X144261000Y-89901000D01*
X144301000Y-86136000D02*
X144301000Y-86960000D01*
X144301000Y-89040000D02*
X144301000Y-89864000D01*
X144341000Y-86174000D02*
X144341000Y-86960000D01*
X144341000Y-89040000D02*
X144341000Y-89826000D01*
X144381000Y-86215000D02*
X144381000Y-86960000D01*
X144381000Y-89040000D02*
X144381000Y-89785000D01*
X144421000Y-86257000D02*
X144421000Y-86960000D01*
X144421000Y-89040000D02*
X144421000Y-89743000D01*
X144461000Y-86301000D02*
X144461000Y-86960000D01*
X144461000Y-89040000D02*
X144461000Y-89699000D01*
X144501000Y-86347000D02*
X144501000Y-86960000D01*
X144501000Y-89040000D02*
X144501000Y-89653000D01*
X144541000Y-86395000D02*
X144541000Y-89605000D01*
X144581000Y-86446000D02*
X144581000Y-89554000D01*
X144621000Y-86500000D02*
X144621000Y-89500000D01*
X144661000Y-86557000D02*
X144661000Y-89443000D01*
X144701000Y-86617000D02*
X144701000Y-89383000D01*
X144741000Y-86681000D02*
X144741000Y-89319000D01*
X144781000Y-86749000D02*
X144781000Y-89251000D01*
X144821000Y-86822000D02*
X144821000Y-89178000D01*
X144861000Y-86902000D02*
X144861000Y-89098000D01*
X144901000Y-86989000D02*
X144901000Y-89011000D01*
X144941000Y-87085000D02*
X144941000Y-88915000D01*
X144981000Y-87195000D02*
X144981000Y-88805000D01*
X145021000Y-87323000D02*
X145021000Y-88677000D01*
X145061000Y-87482000D02*
X145061000Y-88518000D01*
X145101000Y-87716000D02*
X145101000Y-88284000D01*
X145120000Y-88000000D02*
G75*
G02*
X139880000Y-88000000I-2620000J0D01*
G01*
X139880000Y-88000000D02*
G75*
G02*
X145120000Y-88000000I2620000J0D01*
G01*
%TO.C,R2*%
X133580000Y-92580000D02*
X137420000Y-92580000D01*
X133580000Y-94420000D02*
X137420000Y-94420000D01*
%TO.C,R1*%
X129420000Y-92580000D02*
X125580000Y-92580000D01*
X129420000Y-94420000D02*
X125580000Y-94420000D01*
%TD*%
M02*
