%TF.GenerationSoftware,KiCad,Pcbnew,9.0.6+dfsg-1*%
%TF.CreationDate,2025-12-07T22:35:31+03:00*%
%TF.ProjectId,Custom_STM32F04,43757374-6f6d-45f5-9354-4d3332463034,1*%
%TF.SameCoordinates,Original*%
%TF.FileFunction,Paste,Top*%
%TF.FilePolarity,Positive*%
%FSLAX46Y46*%
G04 Gerber Fmt 4.6, Leading zero omitted, Abs format (unit mm)*
G04 Created by KiCad (PCBNEW 9.0.6+dfsg-1) date 2025-12-07 22:35:31*
%MOMM*%
%LPD*%
G01*
G04 APERTURE LIST*
G04 Aperture macros list*
%AMRoundRect*
0 Rectangle with rounded corners*
0 $1 Rounding radius*
0 $2 $3 $4 $5 $6 $7 $8 $9 X,Y pos of 4 corners*
0 Add a 4 corners polygon primitive as box body*
4,1,4,$2,$3,$4,$5,$6,$7,$8,$9,$2,$3,0*
0 Add four circle primitives for the rounded corners*
1,1,$1+$1,$2,$3*
1,1,$1+$1,$4,$5*
1,1,$1+$1,$6,$7*
1,1,$1+$1,$8,$9*
0 Add four rect primitives between the rounded corners*
20,1,$1+$1,$2,$3,$4,$5,0*
20,1,$1+$1,$4,$5,$6,$7,0*
20,1,$1+$1,$6,$7,$8,$9,0*
20,1,$1+$1,$8,$9,$2,$3,0*%
G04 Aperture macros list end*
%ADD10RoundRect,0.150000X0.512500X0.150000X-0.512500X0.150000X-0.512500X-0.150000X0.512500X-0.150000X0*%
%ADD11RoundRect,0.150000X-0.512500X-0.150000X0.512500X-0.150000X0.512500X0.150000X-0.512500X0.150000X0*%
%ADD12RoundRect,0.250000X0.325000X0.450000X-0.325000X0.450000X-0.325000X-0.450000X0.325000X-0.450000X0*%
%ADD13RoundRect,0.250000X-0.350000X-0.450000X0.350000X-0.450000X0.350000X0.450000X-0.350000X0.450000X0*%
%ADD14RoundRect,0.250000X-0.450000X0.350000X-0.450000X-0.350000X0.450000X-0.350000X0.450000X0.350000X0*%
%ADD15RoundRect,0.250000X-0.475000X0.250000X-0.475000X-0.250000X0.475000X-0.250000X0.475000X0.250000X0*%
%ADD16RoundRect,0.200000X-0.200000X-0.800000X0.200000X-0.800000X0.200000X0.800000X-0.200000X0.800000X0*%
%ADD17RoundRect,0.250000X0.250000X0.475000X-0.250000X0.475000X-0.250000X-0.475000X0.250000X-0.475000X0*%
%ADD18RoundRect,0.150000X-0.150000X-0.425000X0.150000X-0.425000X0.150000X0.425000X-0.150000X0.425000X0*%
%ADD19RoundRect,0.075000X-0.075000X-0.500000X0.075000X-0.500000X0.075000X0.500000X-0.075000X0.500000X0*%
%ADD20O,1.000000X2.100000*%
%ADD21O,1.000000X1.800000*%
%ADD22RoundRect,0.250000X-0.250000X-0.475000X0.250000X-0.475000X0.250000X0.475000X-0.250000X0.475000X0*%
%ADD23RoundRect,0.100000X-0.100000X0.637500X-0.100000X-0.637500X0.100000X-0.637500X0.100000X0.637500X0*%
G04 APERTURE END LIST*
D10*
%TO.C,U2*%
X157500000Y-94950000D03*
X157500000Y-93050000D03*
X159775000Y-93050000D03*
X159775000Y-94000000D03*
X159775000Y-94950000D03*
%TD*%
D11*
%TO.C,Q1*%
X171000000Y-92000000D03*
X168725000Y-92950000D03*
X168725000Y-91050000D03*
%TD*%
D12*
%TO.C,D1*%
X158975000Y-91000000D03*
X161025000Y-91000000D03*
%TD*%
D13*
%TO.C,R5*%
X157000000Y-91000000D03*
X155000000Y-91000000D03*
%TD*%
%TO.C,R4*%
X168000000Y-97500000D03*
X170000000Y-97500000D03*
%TD*%
%TO.C,R2*%
X171000000Y-100500000D03*
X173000000Y-100500000D03*
%TD*%
D14*
%TO.C,R1*%
X153500000Y-97500000D03*
X153500000Y-99500000D03*
%TD*%
D15*
%TO.C,C5*%
X155000000Y-93050000D03*
X155000000Y-94950000D03*
%TD*%
D16*
%TO.C,BOOT*%
X169900000Y-104500000D03*
X174100000Y-104500000D03*
%TD*%
%TO.C,RST*%
X151400000Y-104500000D03*
X155600000Y-104500000D03*
%TD*%
D17*
%TO.C,C6*%
X157450000Y-97500000D03*
X155550000Y-97500000D03*
%TD*%
D18*
%TO.C,J1*%
X159910000Y-100425000D03*
X160710000Y-100425000D03*
D19*
X161860000Y-100425000D03*
X162860000Y-100425000D03*
X163360000Y-100425000D03*
X164360000Y-100425000D03*
D18*
X165510000Y-100425000D03*
X166310000Y-100425000D03*
X166310000Y-100425000D03*
X165510000Y-100425000D03*
D19*
X164860000Y-100425000D03*
X163860000Y-100425000D03*
X162360000Y-100425000D03*
X161360000Y-100425000D03*
D18*
X160710000Y-100425000D03*
X159910000Y-100425000D03*
D20*
X158790000Y-101000000D03*
D21*
X158790000Y-105180000D03*
D20*
X167430000Y-101000000D03*
D21*
X167430000Y-105180000D03*
%TD*%
D22*
%TO.C,C4*%
X159550000Y-97500000D03*
X161450000Y-97500000D03*
%TD*%
%TO.C,C3*%
X162550000Y-80000000D03*
X164450000Y-80000000D03*
%TD*%
D12*
%TO.C,D2*%
X166025000Y-91000000D03*
X163975000Y-91000000D03*
%TD*%
D17*
%TO.C,C2*%
X155500000Y-101500000D03*
X153600000Y-101500000D03*
%TD*%
D23*
%TO.C,U1*%
X164425000Y-82637500D03*
X163775000Y-82637500D03*
X163125000Y-82637500D03*
X162475000Y-82637500D03*
X161825000Y-82637500D03*
X161175000Y-82637500D03*
X160525000Y-82637500D03*
X159875000Y-82637500D03*
X159225000Y-82637500D03*
X158575000Y-82637500D03*
X158575000Y-88362500D03*
X159225000Y-88362500D03*
X159875000Y-88362500D03*
X160525000Y-88362500D03*
X161175000Y-88362500D03*
X161825000Y-88362500D03*
X162475000Y-88362500D03*
X163125000Y-88362500D03*
X163775000Y-88362500D03*
X164425000Y-88362500D03*
%TD*%
D13*
%TO.C,R3*%
X164000000Y-97500000D03*
X166000000Y-97500000D03*
%TD*%
%TO.C,R6*%
X164000000Y-93500000D03*
X166000000Y-93500000D03*
%TD*%
M02*
