%TF.GenerationSoftware,KiCad,Pcbnew,9.0.6+dfsg-1*%
%TF.CreationDate,2025-12-07T22:35:30+03:00*%
%TF.ProjectId,Custom_STM32F04,43757374-6f6d-45f5-9354-4d3332463034,1*%
%TF.SameCoordinates,Original*%
%TF.FileFunction,Copper,L1,Top*%
%TF.FilePolarity,Positive*%
%FSLAX46Y46*%
G04 Gerber Fmt 4.6, Leading zero omitted, Abs format (unit mm)*
G04 Created by KiCad (PCBNEW 9.0.6+dfsg-1) date 2025-12-07 22:35:30*
%MOMM*%
%LPD*%
G01*
G04 APERTURE LIST*
G04 Aperture macros list*
%AMRoundRect*
0 Rectangle with rounded corners*
0 $1 Rounding radius*
0 $2 $3 $4 $5 $6 $7 $8 $9 X,Y pos of 4 corners*
0 Add a 4 corners polygon primitive as box body*
4,1,4,$2,$3,$4,$5,$6,$7,$8,$9,$2,$3,0*
0 Add four circle primitives for the rounded corners*
1,1,$1+$1,$2,$3*
1,1,$1+$1,$4,$5*
1,1,$1+$1,$6,$7*
1,1,$1+$1,$8,$9*
0 Add four rect primitives between the rounded corners*
20,1,$1+$1,$2,$3,$4,$5,0*
20,1,$1+$1,$4,$5,$6,$7,0*
20,1,$1+$1,$6,$7,$8,$9,0*
20,1,$1+$1,$8,$9,$2,$3,0*%
G04 Aperture macros list end*
%TA.AperFunction,SMDPad,CuDef*%
%ADD10RoundRect,0.150000X0.512500X0.150000X-0.512500X0.150000X-0.512500X-0.150000X0.512500X-0.150000X0*%
%TD*%
%TA.AperFunction,SMDPad,CuDef*%
%ADD11RoundRect,0.150000X-0.512500X-0.150000X0.512500X-0.150000X0.512500X0.150000X-0.512500X0.150000X0*%
%TD*%
%TA.AperFunction,SMDPad,CuDef*%
%ADD12RoundRect,0.250000X0.325000X0.450000X-0.325000X0.450000X-0.325000X-0.450000X0.325000X-0.450000X0*%
%TD*%
%TA.AperFunction,SMDPad,CuDef*%
%ADD13RoundRect,0.250000X-0.350000X-0.450000X0.350000X-0.450000X0.350000X0.450000X-0.350000X0.450000X0*%
%TD*%
%TA.AperFunction,SMDPad,CuDef*%
%ADD14RoundRect,0.250000X-0.450000X0.350000X-0.450000X-0.350000X0.450000X-0.350000X0.450000X0.350000X0*%
%TD*%
%TA.AperFunction,SMDPad,CuDef*%
%ADD15RoundRect,0.250000X-0.475000X0.250000X-0.475000X-0.250000X0.475000X-0.250000X0.475000X0.250000X0*%
%TD*%
%TA.AperFunction,SMDPad,CuDef*%
%ADD16RoundRect,0.200000X-0.200000X-0.800000X0.200000X-0.800000X0.200000X0.800000X-0.200000X0.800000X0*%
%TD*%
%TA.AperFunction,SMDPad,CuDef*%
%ADD17RoundRect,0.250000X0.250000X0.475000X-0.250000X0.475000X-0.250000X-0.475000X0.250000X-0.475000X0*%
%TD*%
%TA.AperFunction,SMDPad,CuDef*%
%ADD18RoundRect,0.150000X-0.150000X-0.425000X0.150000X-0.425000X0.150000X0.425000X-0.150000X0.425000X0*%
%TD*%
%TA.AperFunction,SMDPad,CuDef*%
%ADD19RoundRect,0.075000X-0.075000X-0.500000X0.075000X-0.500000X0.075000X0.500000X-0.075000X0.500000X0*%
%TD*%
%TA.AperFunction,HeatsinkPad*%
%ADD20O,1.000000X2.100000*%
%TD*%
%TA.AperFunction,HeatsinkPad*%
%ADD21O,1.000000X1.800000*%
%TD*%
%TA.AperFunction,SMDPad,CuDef*%
%ADD22RoundRect,0.250000X-0.250000X-0.475000X0.250000X-0.475000X0.250000X0.475000X-0.250000X0.475000X0*%
%TD*%
%TA.AperFunction,SMDPad,CuDef*%
%ADD23RoundRect,0.100000X-0.100000X0.637500X-0.100000X-0.637500X0.100000X-0.637500X0.100000X0.637500X0*%
%TD*%
%TA.AperFunction,ViaPad*%
%ADD24C,0.600000*%
%TD*%
%TA.AperFunction,Conductor*%
%ADD25C,0.250000*%
%TD*%
%TA.AperFunction,Conductor*%
%ADD26C,0.200000*%
%TD*%
%TA.AperFunction,Conductor*%
%ADD27C,0.500000*%
%TD*%
%TA.AperFunction,Conductor*%
%ADD28C,0.300000*%
%TD*%
G04 APERTURE END LIST*
D10*
%TO.P,U2,5,OUT*%
%TO.N,/3V3*%
X157500000Y-94950000D03*
%TO.P,U2,4,NC*%
%TO.N,unconnected-(U2-NC-Pad4)*%
X157500000Y-93050000D03*
%TO.P,U2,3,EN*%
%TO.N,/5VUSB*%
X159775000Y-93050000D03*
%TO.P,U2,2,GND*%
%TO.N,GND*%
X159775000Y-94000000D03*
%TO.P,U2,1,IN*%
%TO.N,/5VUSB*%
X159775000Y-94950000D03*
%TD*%
D11*
%TO.P,Q1,3,S*%
%TO.N,GND*%
X171000000Y-92000000D03*
%TO.P,Q1,2,G*%
%TO.N,/BUILT_IN_LED*%
X168725000Y-92950000D03*
%TO.P,Q1,1,D*%
%TO.N,Net-(D2-K)*%
X168725000Y-91050000D03*
%TD*%
D12*
%TO.P,D1,2,A*%
%TO.N,Net-(D1-A)*%
X158975000Y-91000000D03*
%TO.P,D1,1,K*%
%TO.N,GND*%
X161025000Y-91000000D03*
%TD*%
D13*
%TO.P,R5,2*%
%TO.N,Net-(D1-A)*%
X157000000Y-91000000D03*
%TO.P,R5,1*%
%TO.N,/3V3*%
X155000000Y-91000000D03*
%TD*%
%TO.P,R4,1*%
%TO.N,Net-(J1-CC2)*%
X168000000Y-97500000D03*
%TO.P,R4,2*%
%TO.N,GND*%
X170000000Y-97500000D03*
%TD*%
%TO.P,R2,1*%
%TO.N,/BOOT*%
X171000000Y-100500000D03*
%TO.P,R2,2*%
%TO.N,GND*%
X173000000Y-100500000D03*
%TD*%
D14*
%TO.P,R1,1*%
%TO.N,/3V3*%
X153500000Y-97500000D03*
%TO.P,R1,2*%
%TO.N,/nRESET*%
X153500000Y-99500000D03*
%TD*%
D15*
%TO.P,C5,1*%
%TO.N,/3V3*%
X155000000Y-93050000D03*
%TO.P,C5,2*%
%TO.N,GND*%
X155000000Y-94950000D03*
%TD*%
D16*
%TO.P,BOOT,1,1*%
%TO.N,/BOOT*%
X169900000Y-104500000D03*
%TO.P,BOOT,2,2*%
%TO.N,/3V3*%
X174100000Y-104500000D03*
%TD*%
%TO.P,RST,1,1*%
%TO.N,GND*%
X151400000Y-104500000D03*
%TO.P,RST,2,2*%
%TO.N,/nRESET*%
X155600000Y-104500000D03*
%TD*%
D17*
%TO.P,C6,1*%
%TO.N,/5VUSB*%
X157450000Y-97500000D03*
%TO.P,C6,2*%
%TO.N,GND*%
X155550000Y-97500000D03*
%TD*%
D18*
%TO.P,J1,A1,GND*%
%TO.N,GND*%
X159910000Y-100425000D03*
%TO.P,J1,A4,VBUS*%
%TO.N,/5VUSB*%
X160710000Y-100425000D03*
D19*
%TO.P,J1,A5,CC1*%
%TO.N,Net-(J1-CC1)*%
X161860000Y-100425000D03*
%TO.P,J1,A6,D+*%
%TO.N,/USB_DP*%
X162860000Y-100425000D03*
%TO.P,J1,A7,D-*%
%TO.N,/USB_DM*%
X163360000Y-100425000D03*
%TO.P,J1,A8,SBU1*%
%TO.N,unconnected-(J1-SBU1-PadA8)*%
X164360000Y-100425000D03*
D18*
%TO.P,J1,A9,VBUS*%
%TO.N,/5VUSB*%
X165510000Y-100425000D03*
%TO.P,J1,A12,GND*%
%TO.N,GND*%
X166310000Y-100425000D03*
%TO.P,J1,B1,GND*%
X166310000Y-100425000D03*
%TO.P,J1,B4,VBUS*%
%TO.N,/5VUSB*%
X165510000Y-100425000D03*
D19*
%TO.P,J1,B5,CC2*%
%TO.N,Net-(J1-CC2)*%
X164860000Y-100425000D03*
%TO.P,J1,B6,D+*%
%TO.N,/USB_DP*%
X163860000Y-100425000D03*
%TO.P,J1,B7,D-*%
%TO.N,/USB_DM*%
X162360000Y-100425000D03*
%TO.P,J1,B8,SBU2*%
%TO.N,unconnected-(J1-SBU2-PadB8)*%
X161360000Y-100425000D03*
D18*
%TO.P,J1,B9,VBUS*%
%TO.N,/5VUSB*%
X160710000Y-100425000D03*
%TO.P,J1,B12,GND*%
%TO.N,GND*%
X159910000Y-100425000D03*
D20*
%TO.P,J1,S1,SHIELD*%
X158790000Y-101000000D03*
D21*
X158790000Y-105180000D03*
D20*
X167430000Y-101000000D03*
D21*
X167430000Y-105180000D03*
%TD*%
D22*
%TO.P,C4,1*%
%TO.N,/5VUSB*%
X159550000Y-97500000D03*
%TO.P,C4,2*%
%TO.N,GND*%
X161450000Y-97500000D03*
%TD*%
%TO.P,C3,1*%
%TO.N,/3V3*%
X162550000Y-80000000D03*
%TO.P,C3,2*%
%TO.N,GND*%
X164450000Y-80000000D03*
%TD*%
D12*
%TO.P,D2,1,K*%
%TO.N,Net-(D2-K)*%
X166025000Y-91000000D03*
%TO.P,D2,2,A*%
%TO.N,Net-(D2-A)*%
X163975000Y-91000000D03*
%TD*%
D17*
%TO.P,C2,1*%
%TO.N,/nRESET*%
X155500000Y-101500000D03*
%TO.P,C2,2*%
%TO.N,GND*%
X153600000Y-101500000D03*
%TD*%
D23*
%TO.P,U1,1,PB8*%
%TO.N,unconnected-(U1-PB8-Pad1)*%
X164425000Y-82637500D03*
%TO.P,U1,2,PF0*%
%TO.N,unconnected-(U1-PF0-Pad2)*%
X163775000Y-82637500D03*
%TO.P,U1,3,PF1*%
%TO.N,unconnected-(U1-PF1-Pad3)*%
X163125000Y-82637500D03*
%TO.P,U1,4,NRST*%
%TO.N,/nRESET*%
X162475000Y-82637500D03*
%TO.P,U1,5,VDDA*%
%TO.N,/3V3*%
X161825000Y-82637500D03*
%TO.P,U1,6,PA0*%
%TO.N,unconnected-(U1-PA0-Pad6)*%
X161175000Y-82637500D03*
%TO.P,U1,7,PA1*%
%TO.N,unconnected-(U1-PA1-Pad7)*%
X160525000Y-82637500D03*
%TO.P,U1,8,PA2*%
%TO.N,unconnected-(U1-PA2-Pad8)*%
X159875000Y-82637500D03*
%TO.P,U1,9,PA3*%
%TO.N,unconnected-(U1-PA3-Pad9)*%
X159225000Y-82637500D03*
%TO.P,U1,10,PA4*%
%TO.N,/BUILT_IN_LED*%
X158575000Y-82637500D03*
%TO.P,U1,11,PA5*%
%TO.N,unconnected-(U1-PA5-Pad11)*%
X158575000Y-88362500D03*
%TO.P,U1,12,PA6*%
%TO.N,unconnected-(U1-PA6-Pad12)*%
X159225000Y-88362500D03*
%TO.P,U1,13,PA7*%
%TO.N,unconnected-(U1-PA7-Pad13)*%
X159875000Y-88362500D03*
%TO.P,U1,14,PB1*%
%TO.N,/BOOT*%
X160525000Y-88362500D03*
%TO.P,U1,15,VSSA*%
%TO.N,GND*%
X161175000Y-88362500D03*
%TO.P,U1,16,VDD*%
%TO.N,/3V3*%
X161825000Y-88362500D03*
%TO.P,U1,17,PA9/PA11*%
%TO.N,/USB_DM*%
X162475000Y-88362500D03*
%TO.P,U1,18,PA10/PA12*%
%TO.N,/USB_DP*%
X163125000Y-88362500D03*
%TO.P,U1,19,PA13*%
%TO.N,unconnected-(U1-PA13-Pad19)*%
X163775000Y-88362500D03*
%TO.P,U1,20,PA14*%
%TO.N,unconnected-(U1-PA14-Pad20)*%
X164425000Y-88362500D03*
%TD*%
D13*
%TO.P,R3,1*%
%TO.N,Net-(J1-CC1)*%
X164000000Y-97500000D03*
%TO.P,R3,2*%
%TO.N,GND*%
X166000000Y-97500000D03*
%TD*%
%TO.P,R6,1*%
%TO.N,/5VUSB*%
X164000000Y-93500000D03*
%TO.P,R6,2*%
%TO.N,Net-(D2-A)*%
X166000000Y-93500000D03*
%TD*%
D24*
%TO.N,/3V3*%
X159500000Y-80000000D03*
X159014524Y-77424000D03*
%TO.N,/nRESET*%
X159500000Y-86125000D03*
X162500000Y-85000000D03*
%TO.N,/5VUSB*%
X164000000Y-95000000D03*
X161760000Y-92500000D03*
%TO.N,Net-(J1-CC1)*%
X163492797Y-98949000D03*
X161760000Y-99000000D03*
%TD*%
D25*
%TO.N,/3V3*%
X174100000Y-104500000D02*
X174100000Y-89962190D01*
X174100000Y-89962190D02*
X172637810Y-88500000D01*
X172637810Y-88500000D02*
X168500000Y-88500000D01*
X168500000Y-88500000D02*
X168000000Y-88000000D01*
X168000000Y-88000000D02*
X168000000Y-78500000D01*
X167000000Y-77500000D02*
X159152000Y-77500000D01*
X168000000Y-78500000D02*
X167000000Y-77500000D01*
X159152000Y-77500000D02*
X159076000Y-77424000D01*
X159076000Y-77424000D02*
X159014524Y-77424000D01*
%TO.N,/BUILT_IN_LED*%
X158575000Y-82637500D02*
X158575000Y-78925000D01*
X158575000Y-78925000D02*
X159000000Y-78500000D01*
X159000000Y-78500000D02*
X166500000Y-78500000D01*
X166500000Y-78500000D02*
X167000000Y-79000000D01*
X172000000Y-89500000D02*
X173000000Y-90500000D01*
X168725000Y-93725000D02*
X168725000Y-92950000D01*
X167000000Y-79000000D02*
X167000000Y-89000000D01*
X167000000Y-89000000D02*
X167500000Y-89500000D01*
X173000000Y-93500000D02*
X172500000Y-94000000D01*
X167500000Y-89500000D02*
X172000000Y-89500000D01*
X172500000Y-94000000D02*
X169000000Y-94000000D01*
X173000000Y-90500000D02*
X173000000Y-93500000D01*
X169000000Y-94000000D02*
X168725000Y-93725000D01*
%TO.N,/BOOT*%
X168000000Y-89000000D02*
X172500000Y-89000000D01*
X167500000Y-88500000D02*
X168000000Y-89000000D01*
X173500000Y-90000000D02*
X173500000Y-98000000D01*
X171500000Y-98500000D02*
X171000000Y-99000000D01*
X167500000Y-78862190D02*
X167500000Y-88500000D01*
X158813190Y-78049000D02*
X166686810Y-78049000D01*
X173500000Y-98000000D02*
X173000000Y-98500000D01*
X166686810Y-78049000D02*
X167500000Y-78862190D01*
X157500000Y-79362190D02*
X158813190Y-78049000D01*
X157500000Y-85000000D02*
X157500000Y-79362190D01*
X160000000Y-85500000D02*
X158000000Y-85500000D01*
X160525000Y-86025000D02*
X160000000Y-85500000D01*
X172500000Y-89000000D02*
X173500000Y-90000000D01*
X171000000Y-99000000D02*
X171000000Y-100500000D01*
X158000000Y-85500000D02*
X157500000Y-85000000D01*
X160525000Y-88362500D02*
X160525000Y-86025000D01*
X173000000Y-98500000D02*
X171500000Y-98500000D01*
%TO.N,/3V3*%
X159500000Y-80000000D02*
X162550000Y-80000000D01*
%TO.N,Net-(D1-A)*%
X157000000Y-91000000D02*
X158975000Y-91000000D01*
D26*
%TO.N,/nRESET*%
X153500000Y-99500000D02*
X151500000Y-99500000D01*
X151500000Y-99500000D02*
X151000000Y-99000000D01*
X152000000Y-89000000D02*
X157000000Y-89000000D01*
X151000000Y-99000000D02*
X151000000Y-90000000D01*
X157875000Y-86125000D02*
X159500000Y-86125000D01*
X151000000Y-90000000D02*
X152000000Y-89000000D01*
X157000000Y-89000000D02*
X157500000Y-88500000D01*
X157500000Y-88500000D02*
X157500000Y-86500000D01*
X157500000Y-86500000D02*
X157875000Y-86125000D01*
X162475000Y-84975000D02*
X162475000Y-82637500D01*
X162500000Y-85000000D02*
X162475000Y-84975000D01*
D25*
%TO.N,/BOOT*%
X169900000Y-104500000D02*
X169900000Y-101600000D01*
X169900000Y-101600000D02*
X171000000Y-100500000D01*
D27*
%TO.N,/5VUSB*%
X164000000Y-93500000D02*
X164000000Y-95000000D01*
X161760000Y-92500000D02*
X161600000Y-92500000D01*
X161600000Y-92500000D02*
X161050000Y-93050000D01*
D26*
%TO.N,Net-(D2-K)*%
X166025000Y-91000000D02*
X168675000Y-91000000D01*
X168675000Y-91000000D02*
X168725000Y-91050000D01*
%TO.N,Net-(D2-A)*%
X163975000Y-91000000D02*
X163975000Y-91475000D01*
X163975000Y-91475000D02*
X166000000Y-93500000D01*
D28*
%TO.N,/3V3*%
X153500000Y-97500000D02*
X152500000Y-96500000D01*
X152500000Y-96500000D02*
X152500000Y-93500000D01*
X152500000Y-93500000D02*
X152950000Y-93050000D01*
X152950000Y-93050000D02*
X155000000Y-93050000D01*
D26*
%TO.N,/nRESET*%
X155500000Y-101500000D02*
X155500000Y-104400000D01*
X155500000Y-104400000D02*
X155600000Y-104500000D01*
X153500000Y-99500000D02*
X155000000Y-99500000D01*
X155000000Y-99500000D02*
X155500000Y-100000000D01*
X155500000Y-100000000D02*
X155500000Y-101500000D01*
D25*
%TO.N,/3V3*%
X161825000Y-82637500D02*
X161825000Y-80725000D01*
X161825000Y-80725000D02*
X162550000Y-80000000D01*
X161825000Y-88362500D02*
X161825000Y-82637500D01*
X155000000Y-91000000D02*
X155000000Y-90000000D01*
X155000000Y-90000000D02*
X155500000Y-89500000D01*
X155500000Y-89500000D02*
X161380226Y-89500000D01*
X161380226Y-89500000D02*
X161825000Y-89055226D01*
X161825000Y-89055226D02*
X161825000Y-88362500D01*
X155000000Y-93050000D02*
X155000000Y-91000000D01*
X157500000Y-94950000D02*
X155600000Y-93050000D01*
X155600000Y-93050000D02*
X155000000Y-93050000D01*
D27*
%TO.N,/5VUSB*%
X161500000Y-94500000D02*
X161500000Y-93500000D01*
X159775000Y-94950000D02*
X161050000Y-94950000D01*
X161050000Y-94950000D02*
X161500000Y-94500000D01*
X161500000Y-93500000D02*
X161050000Y-93050000D01*
X161050000Y-93050000D02*
X159775000Y-93050000D01*
X159550000Y-97500000D02*
X159550000Y-95175000D01*
X159550000Y-95175000D02*
X159775000Y-94950000D01*
X159550000Y-97500000D02*
X157450000Y-97500000D01*
D26*
%TO.N,Net-(J1-CC1)*%
X163492797Y-98949000D02*
X163492797Y-98007203D01*
X163492797Y-98007203D02*
X164000000Y-97500000D01*
X161860000Y-100425000D02*
X161860000Y-99100000D01*
X161860000Y-99100000D02*
X161760000Y-99000000D01*
%TO.N,Net-(J1-CC2)*%
X165500000Y-99000000D02*
X167500000Y-99000000D01*
X164860000Y-99640000D02*
X165500000Y-99000000D01*
X167500000Y-99000000D02*
X168000000Y-98500000D01*
X164860000Y-100425000D02*
X164860000Y-99640000D01*
X168000000Y-98500000D02*
X168000000Y-97500000D01*
D28*
%TO.N,/5VUSB*%
X160710000Y-100425000D02*
X160710000Y-100954534D01*
X160710000Y-100954534D02*
X161755466Y-102000000D01*
X161755466Y-102000000D02*
X164464534Y-102000000D01*
X164464534Y-102000000D02*
X165510000Y-100954534D01*
X165510000Y-100954534D02*
X165510000Y-100425000D01*
D26*
%TO.N,/USB_DP*%
X162860000Y-100425000D02*
X162860000Y-89284870D01*
X162860000Y-89284870D02*
X163125000Y-89019870D01*
X163125000Y-89019870D02*
X163125000Y-88362500D01*
%TO.N,/USB_DM*%
X162360000Y-100425000D02*
X162360000Y-88477500D01*
X162360000Y-88477500D02*
X162475000Y-88362500D01*
D27*
%TO.N,/5VUSB*%
X160710000Y-100425000D02*
X160710000Y-99710000D01*
X159550000Y-98550000D02*
X159550000Y-97500000D01*
X160710000Y-99710000D02*
X159550000Y-98550000D01*
D26*
%TO.N,/USB_DM*%
X163360000Y-100425000D02*
X163360000Y-101033824D01*
X163360000Y-101033824D02*
X163092824Y-101301000D01*
X163092824Y-101301000D02*
X162627176Y-101301000D01*
X162627176Y-101301000D02*
X162360000Y-101033824D01*
X162360000Y-101033824D02*
X162360000Y-100425000D01*
%TO.N,/USB_DP*%
X162860000Y-100425000D02*
X162909000Y-100425000D01*
X162909000Y-100425000D02*
X162909000Y-99767176D01*
X162909000Y-99767176D02*
X163127176Y-99549000D01*
X163592824Y-99549000D02*
X163811000Y-99767176D01*
X163127176Y-99549000D02*
X163592824Y-99549000D01*
X163811000Y-99767176D02*
X163811000Y-100425000D01*
X163811000Y-100425000D02*
X163860000Y-100425000D01*
%TD*%
%TA.AperFunction,Conductor*%
%TO.N,GND*%
G36*
X158489788Y-77022174D02*
G01*
X158511462Y-77074500D01*
X158501548Y-77111500D01*
X158454948Y-77192214D01*
X158454945Y-77192220D01*
X158414024Y-77344940D01*
X158414024Y-77503059D01*
X158454945Y-77655779D01*
X158454949Y-77655788D01*
X158481353Y-77701522D01*
X158488745Y-77757674D01*
X158469593Y-77790847D01*
X157238737Y-79021705D01*
X157159515Y-79100926D01*
X157103499Y-79197948D01*
X157103495Y-79197957D01*
X157074500Y-79306169D01*
X157074500Y-85056020D01*
X157103495Y-85164232D01*
X157103499Y-85164241D01*
X157159515Y-85261263D01*
X157613604Y-85715352D01*
X157635278Y-85767678D01*
X157613604Y-85820002D01*
X157225818Y-86207789D01*
X157179517Y-86254090D01*
X157126792Y-86345412D01*
X157126793Y-86345413D01*
X157099500Y-86447273D01*
X157099500Y-88303455D01*
X157077826Y-88355781D01*
X156855781Y-88577826D01*
X156803455Y-88599500D01*
X152057273Y-88599500D01*
X152057257Y-88599499D01*
X152052727Y-88599499D01*
X151947273Y-88599499D01*
X151947272Y-88599499D01*
X151901997Y-88611631D01*
X151856721Y-88623763D01*
X151849550Y-88625684D01*
X151845412Y-88626793D01*
X151845411Y-88626793D01*
X151754086Y-88679520D01*
X151679518Y-88754089D01*
X150679517Y-89754090D01*
X150626795Y-89845407D01*
X150626791Y-89845416D01*
X150610512Y-89906170D01*
X150610513Y-89906171D01*
X150606491Y-89921181D01*
X150599500Y-89947273D01*
X150599500Y-98947273D01*
X150599500Y-99052727D01*
X150606555Y-99079057D01*
X150626793Y-99154588D01*
X150626795Y-99154592D01*
X150679517Y-99245909D01*
X150679518Y-99245910D01*
X150679520Y-99245913D01*
X150931123Y-99497515D01*
X151176931Y-99743323D01*
X151176936Y-99743329D01*
X151179520Y-99745913D01*
X151254087Y-99820480D01*
X151297271Y-99845412D01*
X151345412Y-99873207D01*
X151447273Y-99900500D01*
X151552727Y-99900500D01*
X152434743Y-99900500D01*
X152487069Y-99922174D01*
X152508215Y-99965675D01*
X152510123Y-99981564D01*
X152565638Y-100122341D01*
X152565639Y-100122342D01*
X152657078Y-100242922D01*
X152777658Y-100334361D01*
X152918436Y-100389877D01*
X152989764Y-100398442D01*
X153006896Y-100400500D01*
X153183431Y-100400500D01*
X153235757Y-100422174D01*
X153257431Y-100474500D01*
X153235757Y-100526826D01*
X153209291Y-100543834D01*
X153107912Y-100581645D01*
X153107911Y-100581646D01*
X152992811Y-100667811D01*
X152906646Y-100782911D01*
X152906645Y-100782912D01*
X152856403Y-100917619D01*
X152856402Y-100917624D01*
X152850000Y-100977171D01*
X152850000Y-101375000D01*
X154350000Y-101375000D01*
X154350000Y-100977171D01*
X154343597Y-100917624D01*
X154343596Y-100917619D01*
X154293354Y-100782912D01*
X154293353Y-100782911D01*
X154207188Y-100667811D01*
X154092088Y-100581646D01*
X154092087Y-100581645D01*
X153986071Y-100542104D01*
X153944618Y-100503511D01*
X153942597Y-100446910D01*
X153981190Y-100405457D01*
X154003105Y-100399298D01*
X154081564Y-100389877D01*
X154222342Y-100334361D01*
X154342922Y-100242922D01*
X154434361Y-100122342D01*
X154489877Y-99981564D01*
X154491785Y-99965674D01*
X154519544Y-99916308D01*
X154565257Y-99900500D01*
X154803455Y-99900500D01*
X154855781Y-99922174D01*
X155077826Y-100144218D01*
X155099500Y-100196544D01*
X155099500Y-100442226D01*
X155077826Y-100494552D01*
X155052648Y-100511066D01*
X155035973Y-100517642D01*
X154977658Y-100540638D01*
X154857078Y-100632077D01*
X154857077Y-100632078D01*
X154765638Y-100752658D01*
X154710123Y-100893436D01*
X154700068Y-100977171D01*
X154699500Y-100981898D01*
X154699500Y-102018102D01*
X154699500Y-102018104D01*
X154699499Y-102018104D01*
X154707218Y-102082375D01*
X154710123Y-102106564D01*
X154720376Y-102132563D01*
X154765638Y-102247341D01*
X154783714Y-102271177D01*
X154857078Y-102367922D01*
X154977658Y-102459361D01*
X155052648Y-102488933D01*
X155093373Y-102528291D01*
X155099500Y-102557773D01*
X155099500Y-103262707D01*
X155077826Y-103315033D01*
X155069848Y-103321946D01*
X155042454Y-103342453D01*
X154956203Y-103457669D01*
X154956202Y-103457670D01*
X154905910Y-103592512D01*
X154905909Y-103592517D01*
X154899500Y-103652126D01*
X154899500Y-105347873D01*
X154905909Y-105407485D01*
X154956202Y-105542329D01*
X154956203Y-105542330D01*
X154956204Y-105542331D01*
X155042454Y-105657546D01*
X155157669Y-105743796D01*
X155157670Y-105743797D01*
X155212388Y-105764205D01*
X155292517Y-105794091D01*
X155352127Y-105800500D01*
X155847872Y-105800499D01*
X155907483Y-105794091D01*
X156025703Y-105749998D01*
X156042329Y-105743797D01*
X156042329Y-105743796D01*
X156042331Y-105743796D01*
X156157546Y-105657546D01*
X156243796Y-105542331D01*
X156294091Y-105407483D01*
X156300500Y-105347873D01*
X156300499Y-104706131D01*
X158040000Y-104706131D01*
X158040000Y-105055000D01*
X158490000Y-105055000D01*
X158490000Y-105305000D01*
X158040000Y-105305000D01*
X158040000Y-105653868D01*
X158068820Y-105798760D01*
X158068822Y-105798767D01*
X158125357Y-105935254D01*
X158207436Y-106058096D01*
X158311903Y-106162563D01*
X158434745Y-106244642D01*
X158571232Y-106301177D01*
X158571239Y-106301179D01*
X158664999Y-106319829D01*
X158665000Y-106319828D01*
X158665000Y-105854242D01*
X158674204Y-105859556D01*
X158750504Y-105880000D01*
X158829496Y-105880000D01*
X158905796Y-105859556D01*
X158915000Y-105854242D01*
X158915000Y-106319829D01*
X159008760Y-106301179D01*
X159008767Y-106301177D01*
X159145254Y-106244642D01*
X159268096Y-106162563D01*
X159268098Y-106162562D01*
X159372562Y-106058098D01*
X159372563Y-106058096D01*
X159454642Y-105935254D01*
X159511177Y-105798767D01*
X159511179Y-105798760D01*
X159540000Y-105653868D01*
X159540000Y-105305000D01*
X159090000Y-105305000D01*
X159090000Y-105055000D01*
X159540000Y-105055000D01*
X159540000Y-104706131D01*
X166680000Y-104706131D01*
X166680000Y-105055000D01*
X167130000Y-105055000D01*
X167130000Y-105305000D01*
X166680000Y-105305000D01*
X166680000Y-105653868D01*
X166708820Y-105798760D01*
X166708822Y-105798767D01*
X166765357Y-105935254D01*
X166847436Y-106058096D01*
X166951903Y-106162563D01*
X167074745Y-106244642D01*
X167211232Y-106301177D01*
X167211239Y-106301179D01*
X167304999Y-106319829D01*
X167305000Y-106319828D01*
X167305000Y-105854242D01*
X167314204Y-105859556D01*
X167390504Y-105880000D01*
X167469496Y-105880000D01*
X167545796Y-105859556D01*
X167555000Y-105854242D01*
X167555000Y-106319829D01*
X167648760Y-106301179D01*
X167648767Y-106301177D01*
X167785254Y-106244642D01*
X167908096Y-106162563D01*
X167908098Y-106162562D01*
X168012562Y-106058098D01*
X168012563Y-106058096D01*
X168094642Y-105935254D01*
X168151177Y-105798767D01*
X168151179Y-105798760D01*
X168180000Y-105653868D01*
X168180000Y-105305000D01*
X167730000Y-105305000D01*
X167730000Y-105055000D01*
X168180000Y-105055000D01*
X168180000Y-104706131D01*
X168151179Y-104561239D01*
X168151177Y-104561232D01*
X168094642Y-104424745D01*
X168012563Y-104301903D01*
X167908096Y-104197436D01*
X167785254Y-104115357D01*
X167648765Y-104058821D01*
X167648762Y-104058820D01*
X167555000Y-104040170D01*
X167555000Y-104505757D01*
X167545796Y-104500444D01*
X167469496Y-104480000D01*
X167390504Y-104480000D01*
X167314204Y-104500444D01*
X167305000Y-104505757D01*
X167305000Y-104040170D01*
X167211237Y-104058820D01*
X167211234Y-104058821D01*
X167074745Y-104115357D01*
X166951903Y-104197436D01*
X166951902Y-104197438D01*
X166847438Y-104301902D01*
X166847436Y-104301903D01*
X166765357Y-104424745D01*
X166708822Y-104561232D01*
X166708820Y-104561239D01*
X166680000Y-104706131D01*
X159540000Y-104706131D01*
X159511179Y-104561239D01*
X159511177Y-104561232D01*
X159454642Y-104424745D01*
X159372563Y-104301903D01*
X159268096Y-104197436D01*
X159145254Y-104115357D01*
X159008765Y-104058821D01*
X159008762Y-104058820D01*
X158915000Y-104040170D01*
X158915000Y-104505757D01*
X158905796Y-104500444D01*
X158829496Y-104480000D01*
X158750504Y-104480000D01*
X158674204Y-104500444D01*
X158665000Y-104505757D01*
X158665000Y-104040170D01*
X158571237Y-104058820D01*
X158571234Y-104058821D01*
X158434745Y-104115357D01*
X158311903Y-104197436D01*
X158311902Y-104197438D01*
X158207438Y-104301902D01*
X158207436Y-104301903D01*
X158125357Y-104424745D01*
X158068822Y-104561232D01*
X158068820Y-104561239D01*
X158040000Y-104706131D01*
X156300499Y-104706131D01*
X156300499Y-104480000D01*
X156300499Y-103652126D01*
X156298955Y-103637766D01*
X156294091Y-103592517D01*
X156254869Y-103487356D01*
X156243797Y-103457670D01*
X156243796Y-103457669D01*
X156184311Y-103378208D01*
X156157546Y-103342454D01*
X156042331Y-103256204D01*
X156042330Y-103256203D01*
X156042329Y-103256202D01*
X155948640Y-103221259D01*
X155907187Y-103182666D01*
X155900500Y-103151925D01*
X155900500Y-102557773D01*
X155922174Y-102505447D01*
X155947350Y-102488933D01*
X156022342Y-102459361D01*
X156142922Y-102367922D01*
X156234361Y-102247342D01*
X156289877Y-102106564D01*
X156299300Y-102028096D01*
X156300500Y-102018104D01*
X156300500Y-100981895D01*
X156294638Y-100933082D01*
X156289877Y-100893436D01*
X156234361Y-100752658D01*
X156142922Y-100632078D01*
X156133589Y-100625000D01*
X156022341Y-100540638D01*
X155971401Y-100520550D01*
X155947352Y-100511066D01*
X155936332Y-100500416D01*
X155922174Y-100494552D01*
X155916773Y-100481515D01*
X155906626Y-100471708D01*
X155900500Y-100442226D01*
X155900500Y-99947273D01*
X155873207Y-99845413D01*
X155873207Y-99845412D01*
X155836869Y-99782473D01*
X155836868Y-99782472D01*
X155820480Y-99754087D01*
X155743334Y-99676941D01*
X155743323Y-99676931D01*
X155495912Y-99429520D01*
X155245913Y-99179520D01*
X155245910Y-99179518D01*
X155245909Y-99179517D01*
X155154592Y-99126795D01*
X155154588Y-99126793D01*
X155052727Y-99099500D01*
X155052726Y-99099500D01*
X154565257Y-99099500D01*
X154512931Y-99077826D01*
X154491785Y-99034325D01*
X154489877Y-99018436D01*
X154434361Y-98877658D01*
X154342922Y-98757078D01*
X154338981Y-98754089D01*
X154222341Y-98665638D01*
X154112886Y-98622475D01*
X154081564Y-98610123D01*
X154052076Y-98606582D01*
X153993104Y-98599500D01*
X153993102Y-98599500D01*
X153006898Y-98599500D01*
X153006896Y-98599500D01*
X152918436Y-98610123D01*
X152777658Y-98665638D01*
X152657078Y-98757077D01*
X152657077Y-98757078D01*
X152565638Y-98877658D01*
X152510123Y-99018435D01*
X152508215Y-99034325D01*
X152480456Y-99083692D01*
X152434743Y-99099500D01*
X151696544Y-99099500D01*
X151644218Y-99077826D01*
X151422174Y-98855781D01*
X151400500Y-98803455D01*
X151400500Y-90196544D01*
X151422174Y-90144218D01*
X152144218Y-89422174D01*
X152196544Y-89400500D01*
X154819100Y-89400500D01*
X154871426Y-89422174D01*
X154893100Y-89474500D01*
X154871426Y-89526826D01*
X154659515Y-89738736D01*
X154603499Y-89835758D01*
X154603495Y-89835767D01*
X154574500Y-89943977D01*
X154573976Y-89947961D01*
X154545656Y-89997010D01*
X154522741Y-90008110D01*
X154522849Y-90008383D01*
X154519238Y-90009806D01*
X154518753Y-90010042D01*
X154518443Y-90010120D01*
X154377658Y-90065638D01*
X154257078Y-90157077D01*
X154257077Y-90157078D01*
X154165638Y-90277658D01*
X154110123Y-90418436D01*
X154100068Y-90502171D01*
X154099500Y-90506898D01*
X154099500Y-91493102D01*
X154099500Y-91493104D01*
X154099499Y-91493104D01*
X154103013Y-91522360D01*
X154110123Y-91581564D01*
X154118495Y-91602793D01*
X154165638Y-91722341D01*
X154202460Y-91770897D01*
X154257078Y-91842922D01*
X154377658Y-91934361D01*
X154518436Y-91989877D01*
X154518439Y-91989877D01*
X154518627Y-91989925D01*
X154518703Y-91989981D01*
X154522850Y-91991617D01*
X154522406Y-91992740D01*
X154534517Y-92001760D01*
X154552826Y-92009344D01*
X154556451Y-92018097D01*
X154564049Y-92023756D01*
X154574500Y-92061670D01*
X154574500Y-92175500D01*
X154552826Y-92227826D01*
X154500500Y-92249500D01*
X154481896Y-92249500D01*
X154393436Y-92260123D01*
X154252658Y-92315638D01*
X154132078Y-92407077D01*
X154132077Y-92407078D01*
X154040637Y-92527659D01*
X154030785Y-92552646D01*
X153991426Y-92593373D01*
X153961944Y-92599500D01*
X152890689Y-92599500D01*
X152800326Y-92623713D01*
X152786345Y-92627459D01*
X152776111Y-92630201D01*
X152673389Y-92689508D01*
X152139508Y-93223389D01*
X152080203Y-93326108D01*
X152080200Y-93326116D01*
X152075648Y-93343102D01*
X152054468Y-93422153D01*
X152049500Y-93440692D01*
X152049500Y-96559311D01*
X152063115Y-96610121D01*
X152063115Y-96610122D01*
X152080199Y-96673882D01*
X152080203Y-96673891D01*
X152139508Y-96776610D01*
X152139509Y-96776611D01*
X152139511Y-96776614D01*
X152477826Y-97114929D01*
X152499500Y-97167254D01*
X152499500Y-97893102D01*
X152499500Y-97893104D01*
X152499499Y-97893104D01*
X152510123Y-97981563D01*
X152565638Y-98122341D01*
X152641472Y-98222342D01*
X152657078Y-98242922D01*
X152777658Y-98334361D01*
X152918436Y-98389877D01*
X152989764Y-98398442D01*
X153006896Y-98400500D01*
X153006898Y-98400500D01*
X153993104Y-98400500D01*
X154008722Y-98398624D01*
X154081564Y-98389877D01*
X154222342Y-98334361D01*
X154342922Y-98242922D01*
X154434361Y-98122342D01*
X154473604Y-98022828D01*
X154800000Y-98022828D01*
X154806402Y-98082375D01*
X154806403Y-98082380D01*
X154856645Y-98217087D01*
X154856646Y-98217088D01*
X154942811Y-98332188D01*
X155057911Y-98418353D01*
X155057912Y-98418354D01*
X155192619Y-98468596D01*
X155192624Y-98468597D01*
X155252171Y-98475000D01*
X155425000Y-98475000D01*
X155675000Y-98475000D01*
X155847829Y-98475000D01*
X155907375Y-98468597D01*
X155907380Y-98468596D01*
X156042087Y-98418354D01*
X156042088Y-98418353D01*
X156157188Y-98332188D01*
X156243353Y-98217088D01*
X156243354Y-98217087D01*
X156293596Y-98082380D01*
X156293597Y-98082375D01*
X156300000Y-98022828D01*
X156300000Y-97625000D01*
X155675000Y-97625000D01*
X155675000Y-98475000D01*
X155425000Y-98475000D01*
X155425000Y-97625000D01*
X154800000Y-97625000D01*
X154800000Y-98022828D01*
X154473604Y-98022828D01*
X154489877Y-97981564D01*
X154500500Y-97893102D01*
X154500500Y-97106898D01*
X154489877Y-97018436D01*
X154473604Y-96977171D01*
X154800000Y-96977171D01*
X154800000Y-97375000D01*
X155425000Y-97375000D01*
X155675000Y-97375000D01*
X156300000Y-97375000D01*
X156300000Y-96977171D01*
X156293597Y-96917624D01*
X156293596Y-96917619D01*
X156243354Y-96782912D01*
X156243353Y-96782911D01*
X156157188Y-96667811D01*
X156042088Y-96581646D01*
X156042087Y-96581645D01*
X155907380Y-96531403D01*
X155907375Y-96531402D01*
X155847829Y-96525000D01*
X155675000Y-96525000D01*
X155675000Y-97375000D01*
X155425000Y-97375000D01*
X155425000Y-96525000D01*
X155252171Y-96525000D01*
X155192624Y-96531402D01*
X155192619Y-96531403D01*
X155057912Y-96581645D01*
X155057911Y-96581646D01*
X154942811Y-96667811D01*
X154856646Y-96782911D01*
X154856645Y-96782912D01*
X154806403Y-96917619D01*
X154806402Y-96917624D01*
X154800000Y-96977171D01*
X154473604Y-96977171D01*
X154434361Y-96877658D01*
X154342922Y-96757078D01*
X154337094Y-96752658D01*
X154222341Y-96665638D01*
X154137079Y-96632015D01*
X154081564Y-96610123D01*
X154052076Y-96606582D01*
X153993104Y-96599500D01*
X153993102Y-96599500D01*
X153267255Y-96599500D01*
X153214929Y-96577826D01*
X152972174Y-96335071D01*
X152950500Y-96282745D01*
X152950500Y-95247828D01*
X154025000Y-95247828D01*
X154031402Y-95307375D01*
X154031403Y-95307380D01*
X154081645Y-95442087D01*
X154081646Y-95442088D01*
X154167811Y-95557188D01*
X154282911Y-95643353D01*
X154282912Y-95643354D01*
X154417619Y-95693596D01*
X154417624Y-95693597D01*
X154477171Y-95700000D01*
X154875000Y-95700000D01*
X155125000Y-95700000D01*
X155522829Y-95700000D01*
X155582375Y-95693597D01*
X155582380Y-95693596D01*
X155717087Y-95643354D01*
X155717088Y-95643353D01*
X155832188Y-95557188D01*
X155918353Y-95442088D01*
X155918354Y-95442087D01*
X155968596Y-95307380D01*
X155968597Y-95307375D01*
X155975000Y-95247828D01*
X155975000Y-95075000D01*
X155125000Y-95075000D01*
X155125000Y-95700000D01*
X154875000Y-95700000D01*
X154875000Y-95075000D01*
X154025000Y-95075000D01*
X154025000Y-95247828D01*
X152950500Y-95247828D01*
X152950500Y-94652171D01*
X154025000Y-94652171D01*
X154025000Y-94825000D01*
X154875000Y-94825000D01*
X155125000Y-94825000D01*
X155975000Y-94825000D01*
X155975000Y-94652171D01*
X155968597Y-94592624D01*
X155968596Y-94592619D01*
X155918354Y-94457912D01*
X155918353Y-94457911D01*
X155832188Y-94342811D01*
X155717088Y-94256646D01*
X155717087Y-94256645D01*
X155582380Y-94206403D01*
X155582375Y-94206402D01*
X155522829Y-94200000D01*
X155125000Y-94200000D01*
X155125000Y-94825000D01*
X154875000Y-94825000D01*
X154875000Y-94200000D01*
X154477171Y-94200000D01*
X154417624Y-94206402D01*
X154417619Y-94206403D01*
X154282912Y-94256645D01*
X154282911Y-94256646D01*
X154167811Y-94342811D01*
X154081646Y-94457911D01*
X154081645Y-94457912D01*
X154031403Y-94592619D01*
X154031402Y-94592624D01*
X154025000Y-94652171D01*
X152950500Y-94652171D01*
X152950500Y-93717255D01*
X152972174Y-93664929D01*
X153114929Y-93522174D01*
X153167255Y-93500500D01*
X153961944Y-93500500D01*
X154014270Y-93522174D01*
X154030785Y-93547354D01*
X154040637Y-93572340D01*
X154116344Y-93672174D01*
X154132078Y-93692922D01*
X154252658Y-93784361D01*
X154393436Y-93839877D01*
X154464764Y-93848442D01*
X154481896Y-93850500D01*
X154481898Y-93850500D01*
X155518104Y-93850500D01*
X155535235Y-93848442D01*
X155606564Y-93839877D01*
X155691626Y-93806332D01*
X155748252Y-93807298D01*
X155771098Y-93822846D01*
X156539039Y-94590787D01*
X156560713Y-94643113D01*
X156556561Y-94667553D01*
X156539854Y-94715298D01*
X156539854Y-94715301D01*
X156537000Y-94745734D01*
X156537000Y-95154266D01*
X156539854Y-95184699D01*
X156539854Y-95184701D01*
X156539855Y-95184704D01*
X156584706Y-95312881D01*
X156584707Y-95312883D01*
X156665346Y-95422146D01*
X156665353Y-95422153D01*
X156774616Y-95502792D01*
X156774618Y-95502793D01*
X156902795Y-95547644D01*
X156902801Y-95547646D01*
X156933234Y-95550500D01*
X156933241Y-95550500D01*
X158066758Y-95550500D01*
X158066766Y-95550500D01*
X158097199Y-95547646D01*
X158225382Y-95502793D01*
X158334650Y-95422150D01*
X158415293Y-95312882D01*
X158460146Y-95184699D01*
X158463000Y-95154266D01*
X158463000Y-94745734D01*
X158460146Y-94715301D01*
X158415293Y-94587118D01*
X158415292Y-94587116D01*
X158334653Y-94477853D01*
X158334646Y-94477846D01*
X158225383Y-94397207D01*
X158225381Y-94397206D01*
X158097204Y-94352355D01*
X158097205Y-94352355D01*
X158097200Y-94352354D01*
X158097199Y-94352354D01*
X158066766Y-94349500D01*
X158066760Y-94349500D01*
X157531900Y-94349500D01*
X157479574Y-94327826D01*
X156928574Y-93776826D01*
X156906900Y-93724500D01*
X156928574Y-93672174D01*
X156980900Y-93650500D01*
X158066758Y-93650500D01*
X158066766Y-93650500D01*
X158097199Y-93647646D01*
X158225382Y-93602793D01*
X158317761Y-93534614D01*
X158334646Y-93522153D01*
X158334646Y-93522152D01*
X158334650Y-93522150D01*
X158415293Y-93412882D01*
X158460146Y-93284699D01*
X158463000Y-93254266D01*
X158463000Y-92845734D01*
X158460146Y-92815301D01*
X158415293Y-92687118D01*
X158415292Y-92687116D01*
X158334653Y-92577853D01*
X158334646Y-92577846D01*
X158225383Y-92497207D01*
X158225381Y-92497206D01*
X158097204Y-92452355D01*
X158097205Y-92452355D01*
X158097200Y-92452354D01*
X158097199Y-92452354D01*
X158066766Y-92449500D01*
X156933234Y-92449500D01*
X156902801Y-92452354D01*
X156902799Y-92452354D01*
X156902795Y-92452355D01*
X156774618Y-92497206D01*
X156774616Y-92497207D01*
X156665353Y-92577846D01*
X156665346Y-92577853D01*
X156584707Y-92687116D01*
X156584706Y-92687118D01*
X156539855Y-92815295D01*
X156539854Y-92815299D01*
X156539854Y-92815301D01*
X156537000Y-92845734D01*
X156537000Y-92845740D01*
X156537000Y-93206600D01*
X156515326Y-93258926D01*
X156463000Y-93280600D01*
X156410674Y-93258926D01*
X156047174Y-92895426D01*
X156025500Y-92843100D01*
X156025500Y-92756895D01*
X156020504Y-92715295D01*
X156014877Y-92668436D01*
X155959361Y-92527658D01*
X155867922Y-92407078D01*
X155791995Y-92349500D01*
X155747341Y-92315638D01*
X155644667Y-92275149D01*
X155606564Y-92260123D01*
X155577076Y-92256582D01*
X155518104Y-92249500D01*
X155518102Y-92249500D01*
X155499500Y-92249500D01*
X155447174Y-92227826D01*
X155425500Y-92175500D01*
X155425500Y-92061670D01*
X155447174Y-92009344D01*
X155477377Y-91992193D01*
X155477150Y-91991617D01*
X155481219Y-91990012D01*
X155481373Y-91989925D01*
X155481558Y-91989877D01*
X155481564Y-91989877D01*
X155622342Y-91934361D01*
X155742922Y-91842922D01*
X155834361Y-91722342D01*
X155889877Y-91581564D01*
X155898624Y-91508722D01*
X155900500Y-91493104D01*
X155900500Y-90506895D01*
X155893607Y-90449500D01*
X155889877Y-90418436D01*
X155834361Y-90277658D01*
X155742922Y-90157078D01*
X155640919Y-90079726D01*
X155638228Y-90075126D01*
X155633306Y-90073087D01*
X155624261Y-90051249D01*
X155612323Y-90030840D01*
X155613673Y-90025684D01*
X155611634Y-90020761D01*
X155620679Y-89998925D01*
X155626670Y-89976050D01*
X155633306Y-89968440D01*
X155640676Y-89961071D01*
X155654577Y-89947172D01*
X155706900Y-89925500D01*
X156344299Y-89925500D01*
X156396625Y-89947174D01*
X156418299Y-89999500D01*
X156396625Y-90051826D01*
X156380571Y-90064001D01*
X156377658Y-90065638D01*
X156257078Y-90157077D01*
X156257077Y-90157078D01*
X156165638Y-90277658D01*
X156110123Y-90418436D01*
X156100068Y-90502171D01*
X156099500Y-90506898D01*
X156099500Y-91493102D01*
X156099500Y-91493104D01*
X156099499Y-91493104D01*
X156103013Y-91522360D01*
X156110123Y-91581564D01*
X156118495Y-91602793D01*
X156165638Y-91722341D01*
X156202460Y-91770897D01*
X156257078Y-91842922D01*
X156377658Y-91934361D01*
X156518436Y-91989877D01*
X156589764Y-91998442D01*
X156606896Y-92000500D01*
X156606898Y-92000500D01*
X157393104Y-92000500D01*
X157408722Y-91998624D01*
X157481564Y-91989877D01*
X157622342Y-91934361D01*
X157742922Y-91842922D01*
X157834361Y-91722342D01*
X157889877Y-91581564D01*
X157898510Y-91509669D01*
X157900764Y-91490906D01*
X157902287Y-91491088D01*
X157911884Y-91471412D01*
X157921924Y-91447174D01*
X157924156Y-91446249D01*
X157925215Y-91444079D01*
X157974250Y-91425500D01*
X158025750Y-91425500D01*
X158078076Y-91447174D01*
X158097850Y-91491072D01*
X158099236Y-91490906D01*
X158103013Y-91522360D01*
X158110123Y-91581564D01*
X158118495Y-91602793D01*
X158165638Y-91722341D01*
X158202460Y-91770897D01*
X158257078Y-91842922D01*
X158377658Y-91934361D01*
X158518436Y-91989877D01*
X158589764Y-91998442D01*
X158606896Y-92000500D01*
X158606898Y-92000500D01*
X159343104Y-92000500D01*
X159358722Y-91998624D01*
X159431564Y-91989877D01*
X159572342Y-91934361D01*
X159692922Y-91842922D01*
X159784361Y-91722342D01*
X159839877Y-91581564D01*
X159848624Y-91508722D01*
X159849933Y-91497828D01*
X160200000Y-91497828D01*
X160206402Y-91557375D01*
X160206403Y-91557380D01*
X160256645Y-91692087D01*
X160256646Y-91692088D01*
X160342811Y-91807188D01*
X160457911Y-91893353D01*
X160457912Y-91893354D01*
X160592619Y-91943596D01*
X160592624Y-91943597D01*
X160652171Y-91950000D01*
X160900000Y-91950000D01*
X160900000Y-91125000D01*
X160200000Y-91125000D01*
X160200000Y-91497828D01*
X159849933Y-91497828D01*
X159850500Y-91493104D01*
X159850500Y-90506895D01*
X159843607Y-90449500D01*
X159839877Y-90418436D01*
X159784361Y-90277658D01*
X159692922Y-90157078D01*
X159626417Y-90106645D01*
X159572341Y-90065638D01*
X159569429Y-90064001D01*
X159568320Y-90062589D01*
X159568309Y-90062581D01*
X159568311Y-90062577D01*
X159534444Y-90019460D01*
X159541200Y-89963228D01*
X159585741Y-89928243D01*
X159605701Y-89925500D01*
X160533431Y-89925500D01*
X160585757Y-89947174D01*
X160607431Y-89999500D01*
X160585757Y-90051826D01*
X160559291Y-90068834D01*
X160457912Y-90106645D01*
X160457911Y-90106646D01*
X160342811Y-90192811D01*
X160256646Y-90307911D01*
X160256645Y-90307912D01*
X160206403Y-90442619D01*
X160206402Y-90442624D01*
X160200000Y-90502171D01*
X160200000Y-90875000D01*
X160951000Y-90875000D01*
X161003326Y-90896674D01*
X161025000Y-90949000D01*
X161025000Y-91000000D01*
X161076000Y-91000000D01*
X161128326Y-91021674D01*
X161150000Y-91074000D01*
X161150000Y-91950000D01*
X161192823Y-91950000D01*
X161245149Y-91971674D01*
X161266823Y-92024000D01*
X161245149Y-92076326D01*
X160843649Y-92477826D01*
X160791323Y-92499500D01*
X160519509Y-92499500D01*
X160495068Y-92495347D01*
X160372204Y-92452355D01*
X160372205Y-92452355D01*
X160372200Y-92452354D01*
X160372199Y-92452354D01*
X160341766Y-92449500D01*
X159208234Y-92449500D01*
X159177801Y-92452354D01*
X159177799Y-92452354D01*
X159177795Y-92452355D01*
X159049618Y-92497206D01*
X159049616Y-92497207D01*
X158940353Y-92577846D01*
X158940346Y-92577853D01*
X158859707Y-92687116D01*
X158859706Y-92687118D01*
X158814855Y-92815295D01*
X158814854Y-92815299D01*
X158814854Y-92815301D01*
X158812000Y-92845734D01*
X158812000Y-93254266D01*
X158814854Y-93284699D01*
X158814854Y-93284701D01*
X158814855Y-93284704D01*
X158835290Y-93343103D01*
X158859707Y-93412882D01*
X158926064Y-93502793D01*
X158938337Y-93519422D01*
X158951970Y-93574394D01*
X158936180Y-93605721D01*
X158938280Y-93607247D01*
X158934855Y-93611959D01*
X158877336Y-93724847D01*
X158877335Y-93724851D01*
X158862500Y-93818518D01*
X158862500Y-93875000D01*
X160687499Y-93875000D01*
X160687499Y-93818517D01*
X160672665Y-93724852D01*
X160664127Y-93708095D01*
X160662754Y-93690658D01*
X160656062Y-93674500D01*
X160660617Y-93663501D01*
X160659684Y-93651633D01*
X160671042Y-93638333D01*
X160677736Y-93622174D01*
X160688735Y-93617618D01*
X160696467Y-93608565D01*
X160730062Y-93600500D01*
X160791323Y-93600500D01*
X160843649Y-93622174D01*
X160927826Y-93706351D01*
X160949500Y-93758677D01*
X160949500Y-94241323D01*
X160927826Y-94293649D01*
X160843649Y-94377826D01*
X160791323Y-94399500D01*
X160730062Y-94399500D01*
X160677736Y-94377826D01*
X160656062Y-94325500D01*
X160664127Y-94291905D01*
X160672664Y-94275148D01*
X160687500Y-94181481D01*
X160687500Y-94125000D01*
X158862501Y-94125000D01*
X158862501Y-94181482D01*
X158877334Y-94275148D01*
X158877335Y-94275149D01*
X158934860Y-94388047D01*
X158938285Y-94392761D01*
X158935470Y-94394805D01*
X158952797Y-94436635D01*
X158938337Y-94480577D01*
X158931474Y-94489877D01*
X158859706Y-94587119D01*
X158814855Y-94715295D01*
X158814855Y-94715298D01*
X158814854Y-94715301D01*
X158812000Y-94745734D01*
X158812000Y-95154266D01*
X158814854Y-95184699D01*
X158814854Y-95184701D01*
X158814855Y-95184704D01*
X158859706Y-95312881D01*
X158859707Y-95312883D01*
X158940345Y-95422144D01*
X158940347Y-95422146D01*
X158940350Y-95422150D01*
X158967365Y-95442088D01*
X158969443Y-95443621D01*
X158998673Y-95492132D01*
X158999500Y-95503161D01*
X158999500Y-96525236D01*
X158977826Y-96577562D01*
X158970214Y-96584199D01*
X158907079Y-96632076D01*
X158907077Y-96632078D01*
X158815638Y-96752658D01*
X158760121Y-96893441D01*
X158760071Y-96893641D01*
X158760011Y-96893721D01*
X158758383Y-96897850D01*
X158757263Y-96897408D01*
X158726230Y-96939057D01*
X158688329Y-96949500D01*
X158311671Y-96949500D01*
X158259345Y-96927826D01*
X158242191Y-96897623D01*
X158241617Y-96897850D01*
X158240021Y-96893803D01*
X158239929Y-96893641D01*
X158239878Y-96893441D01*
X158239877Y-96893439D01*
X158239877Y-96893436D01*
X158184361Y-96752658D01*
X158092922Y-96632078D01*
X158092920Y-96632076D01*
X157972341Y-96540638D01*
X157868021Y-96499500D01*
X157831564Y-96485123D01*
X157801893Y-96481560D01*
X157743104Y-96474500D01*
X157743102Y-96474500D01*
X157156898Y-96474500D01*
X157156896Y-96474500D01*
X157068436Y-96485123D01*
X156927658Y-96540638D01*
X156807078Y-96632077D01*
X156807077Y-96632078D01*
X156715638Y-96752658D01*
X156660123Y-96893436D01*
X156650068Y-96977171D01*
X156649500Y-96981898D01*
X156649500Y-98018102D01*
X156649500Y-98018104D01*
X156649499Y-98018104D01*
X156657121Y-98081564D01*
X156659754Y-98103495D01*
X156660123Y-98106563D01*
X156715638Y-98247341D01*
X156788133Y-98342939D01*
X156807078Y-98367922D01*
X156927658Y-98459361D01*
X157068436Y-98514877D01*
X157139764Y-98523442D01*
X157156896Y-98525500D01*
X157156898Y-98525500D01*
X157743104Y-98525500D01*
X157758722Y-98523624D01*
X157831564Y-98514877D01*
X157972342Y-98459361D01*
X158092922Y-98367922D01*
X158184361Y-98247342D01*
X158239877Y-98106564D01*
X158239878Y-98106558D01*
X158239929Y-98106359D01*
X158239988Y-98106278D01*
X158241617Y-98102150D01*
X158242736Y-98102591D01*
X158273770Y-98060943D01*
X158311671Y-98050500D01*
X158688329Y-98050500D01*
X158740655Y-98072174D01*
X158757808Y-98102376D01*
X158758383Y-98102150D01*
X158759978Y-98106196D01*
X158760071Y-98106359D01*
X158760121Y-98106558D01*
X158815638Y-98247341D01*
X158888132Y-98342939D01*
X158907078Y-98367922D01*
X158970214Y-98415800D01*
X158998811Y-98464687D01*
X158999500Y-98474763D01*
X158999500Y-98622477D01*
X159034765Y-98754084D01*
X159034766Y-98754088D01*
X159037014Y-98762482D01*
X159109490Y-98888015D01*
X159706069Y-99484594D01*
X159727743Y-99536920D01*
X159706069Y-99589246D01*
X159665320Y-99610009D01*
X159634850Y-99614835D01*
X159521953Y-99672360D01*
X159432360Y-99761953D01*
X159387548Y-99849899D01*
X159344480Y-99886681D01*
X159288017Y-99882236D01*
X159269288Y-99868628D01*
X159268096Y-99867436D01*
X159145254Y-99785357D01*
X159008765Y-99728821D01*
X159008762Y-99728820D01*
X158915000Y-99710170D01*
X158915000Y-100175757D01*
X158905796Y-100170444D01*
X158829496Y-100150000D01*
X158750504Y-100150000D01*
X158674204Y-100170444D01*
X158665000Y-100175757D01*
X158665000Y-99710170D01*
X158571237Y-99728820D01*
X158571234Y-99728821D01*
X158434745Y-99785357D01*
X158311903Y-99867436D01*
X158311902Y-99867438D01*
X158207438Y-99971902D01*
X158207436Y-99971903D01*
X158125357Y-100094745D01*
X158068822Y-100231232D01*
X158068820Y-100231239D01*
X158040000Y-100376131D01*
X158040000Y-100875000D01*
X158490000Y-100875000D01*
X158490000Y-101125000D01*
X158040000Y-101125000D01*
X158040000Y-101623868D01*
X158068820Y-101768760D01*
X158068822Y-101768767D01*
X158125357Y-101905254D01*
X158207436Y-102028096D01*
X158311903Y-102132563D01*
X158434745Y-102214642D01*
X158571232Y-102271177D01*
X158571239Y-102271179D01*
X158664999Y-102289829D01*
X158665000Y-102289828D01*
X158665000Y-101824242D01*
X158674204Y-101829556D01*
X158750504Y-101850000D01*
X158829496Y-101850000D01*
X158905796Y-101829556D01*
X158915000Y-101824242D01*
X158915000Y-102289829D01*
X159008760Y-102271179D01*
X159008767Y-102271177D01*
X159145254Y-102214642D01*
X159268096Y-102132563D01*
X159268098Y-102132562D01*
X159372562Y-102028098D01*
X159372563Y-102028096D01*
X159454642Y-101905254D01*
X159511177Y-101768767D01*
X159511179Y-101768760D01*
X159528099Y-101683696D01*
X159559564Y-101636604D01*
X159615113Y-101625554D01*
X159662205Y-101657019D01*
X159672155Y-101678979D01*
X159683717Y-101722130D01*
X159683721Y-101722139D01*
X159759483Y-101853362D01*
X159759485Y-101853365D01*
X159866635Y-101960515D01*
X159997865Y-102036281D01*
X160144231Y-102075499D01*
X160144232Y-102075500D01*
X160144234Y-102075500D01*
X160295768Y-102075500D01*
X160295768Y-102075499D01*
X160442135Y-102036281D01*
X160573365Y-101960515D01*
X160680515Y-101853365D01*
X160738887Y-101752260D01*
X160783819Y-101717783D01*
X160839971Y-101725175D01*
X160855298Y-101736935D01*
X161478852Y-102360489D01*
X161581579Y-102419799D01*
X161581581Y-102419799D01*
X161581582Y-102419800D01*
X161589650Y-102421961D01*
X161605792Y-102426286D01*
X161678084Y-102445657D01*
X161696156Y-102450500D01*
X161696157Y-102450500D01*
X164523843Y-102450500D01*
X164614207Y-102426286D01*
X164614208Y-102426286D01*
X164624884Y-102423425D01*
X164638421Y-102419799D01*
X164741148Y-102360489D01*
X165364701Y-101736934D01*
X165417026Y-101715261D01*
X165469352Y-101736935D01*
X165481112Y-101752261D01*
X165539483Y-101853362D01*
X165539485Y-101853365D01*
X165646635Y-101960515D01*
X165777865Y-102036281D01*
X165924231Y-102075499D01*
X165924232Y-102075500D01*
X165924234Y-102075500D01*
X166075768Y-102075500D01*
X166075768Y-102075499D01*
X166222135Y-102036281D01*
X166353365Y-101960515D01*
X166460515Y-101853365D01*
X166536281Y-101722135D01*
X166547844Y-101678977D01*
X166582321Y-101634047D01*
X166638474Y-101626653D01*
X166683407Y-101661131D01*
X166691900Y-101683695D01*
X166708820Y-101768761D01*
X166708822Y-101768767D01*
X166765357Y-101905254D01*
X166847436Y-102028096D01*
X166951903Y-102132563D01*
X167074745Y-102214642D01*
X167211232Y-102271177D01*
X167211239Y-102271179D01*
X167304999Y-102289829D01*
X167305000Y-102289828D01*
X167305000Y-101824242D01*
X167314204Y-101829556D01*
X167390504Y-101850000D01*
X167469496Y-101850000D01*
X167545796Y-101829556D01*
X167555000Y-101824242D01*
X167555000Y-102289829D01*
X167648760Y-102271179D01*
X167648767Y-102271177D01*
X167785254Y-102214642D01*
X167908096Y-102132563D01*
X167908098Y-102132562D01*
X168012562Y-102028098D01*
X168012563Y-102028096D01*
X168094642Y-101905254D01*
X168151177Y-101768767D01*
X168151179Y-101768760D01*
X168180000Y-101623868D01*
X168180000Y-101125000D01*
X167730000Y-101125000D01*
X167730000Y-100875000D01*
X168180000Y-100875000D01*
X168180000Y-100376131D01*
X168151179Y-100231239D01*
X168151177Y-100231232D01*
X168094642Y-100094745D01*
X168012563Y-99971903D01*
X167908096Y-99867436D01*
X167785254Y-99785357D01*
X167648765Y-99728821D01*
X167648762Y-99728820D01*
X167555000Y-99710170D01*
X167555000Y-100175757D01*
X167545796Y-100170444D01*
X167469496Y-100150000D01*
X167390504Y-100150000D01*
X167314204Y-100170444D01*
X167305000Y-100175757D01*
X167305000Y-99710170D01*
X167211237Y-99728820D01*
X167211234Y-99728821D01*
X167074745Y-99785357D01*
X166951903Y-99867436D01*
X166950704Y-99868635D01*
X166950177Y-99868852D01*
X166949092Y-99869744D01*
X166948821Y-99869414D01*
X166898375Y-99890302D01*
X166846052Y-99868621D01*
X166832451Y-99849898D01*
X166787639Y-99761953D01*
X166698046Y-99672360D01*
X166585149Y-99614835D01*
X166491482Y-99600000D01*
X166435000Y-99600000D01*
X166435000Y-100958445D01*
X166427607Y-100976291D01*
X166425086Y-100995446D01*
X166417152Y-101001533D01*
X166413326Y-101010771D01*
X166395479Y-101018163D01*
X166380152Y-101029924D01*
X166370237Y-101028618D01*
X166361000Y-101032445D01*
X166324000Y-101022531D01*
X166253617Y-100981895D01*
X166221999Y-100963640D01*
X166187521Y-100918706D01*
X166185000Y-100899554D01*
X166185000Y-100550000D01*
X166184500Y-100550000D01*
X166132174Y-100528326D01*
X166110500Y-100476000D01*
X166110500Y-100374000D01*
X166132174Y-100321674D01*
X166184500Y-100300000D01*
X166185000Y-100300000D01*
X166185000Y-99600000D01*
X166184999Y-99599999D01*
X166128518Y-99600000D01*
X166034853Y-99614834D01*
X166034849Y-99614836D01*
X165993907Y-99635697D01*
X165937444Y-99640140D01*
X165916369Y-99629302D01*
X165872882Y-99597207D01*
X165872880Y-99597206D01*
X165744704Y-99552355D01*
X165744705Y-99552355D01*
X165744700Y-99552354D01*
X165744699Y-99552354D01*
X165714266Y-99549500D01*
X165714260Y-99549500D01*
X165695544Y-99549500D01*
X165643218Y-99527826D01*
X165621544Y-99475500D01*
X165643218Y-99423174D01*
X165644218Y-99422174D01*
X165696544Y-99400500D01*
X167552726Y-99400500D01*
X167552727Y-99400500D01*
X167654588Y-99373207D01*
X167745913Y-99320480D01*
X168245910Y-98820481D01*
X168245913Y-98820480D01*
X168320480Y-98745913D01*
X168358812Y-98679520D01*
X168373207Y-98654588D01*
X168400500Y-98552727D01*
X168400500Y-98552725D01*
X168401755Y-98548042D01*
X168404174Y-98548690D01*
X168428398Y-98506692D01*
X168464652Y-98491908D01*
X168481556Y-98489878D01*
X168481556Y-98489877D01*
X168481564Y-98489877D01*
X168622342Y-98434361D01*
X168742922Y-98342922D01*
X168834361Y-98222342D01*
X168889877Y-98081564D01*
X168898624Y-98008722D01*
X168899933Y-97997828D01*
X169150000Y-97997828D01*
X169156402Y-98057375D01*
X169156403Y-98057380D01*
X169206645Y-98192087D01*
X169206646Y-98192088D01*
X169292811Y-98307188D01*
X169407911Y-98393353D01*
X169407912Y-98393354D01*
X169542619Y-98443596D01*
X169542624Y-98443597D01*
X169602171Y-98450000D01*
X169875000Y-98450000D01*
X170125000Y-98450000D01*
X170397829Y-98450000D01*
X170457375Y-98443597D01*
X170457380Y-98443596D01*
X170592087Y-98393354D01*
X170592088Y-98393353D01*
X170707188Y-98307188D01*
X170793353Y-98192088D01*
X170793354Y-98192087D01*
X170843596Y-98057380D01*
X170843597Y-98057375D01*
X170850000Y-97997828D01*
X170850000Y-97625000D01*
X170125000Y-97625000D01*
X170125000Y-98450000D01*
X169875000Y-98450000D01*
X169875000Y-97625000D01*
X169150000Y-97625000D01*
X169150000Y-97997828D01*
X168899933Y-97997828D01*
X168900500Y-97993104D01*
X168900500Y-97006897D01*
X168899933Y-97002171D01*
X169150000Y-97002171D01*
X169150000Y-97375000D01*
X169875000Y-97375000D01*
X170125000Y-97375000D01*
X170850000Y-97375000D01*
X170850000Y-97002171D01*
X170843597Y-96942624D01*
X170843596Y-96942619D01*
X170793354Y-96807912D01*
X170793353Y-96807911D01*
X170707188Y-96692811D01*
X170592088Y-96606646D01*
X170592087Y-96606645D01*
X170457380Y-96556403D01*
X170457375Y-96556402D01*
X170397829Y-96550000D01*
X170125000Y-96550000D01*
X170125000Y-97375000D01*
X169875000Y-97375000D01*
X169875000Y-96550000D01*
X169602171Y-96550000D01*
X169542624Y-96556402D01*
X169542619Y-96556403D01*
X169407912Y-96606645D01*
X169407911Y-96606646D01*
X169292811Y-96692811D01*
X169206646Y-96807911D01*
X169206645Y-96807912D01*
X169156403Y-96942619D01*
X169156402Y-96942624D01*
X169150000Y-97002171D01*
X168899933Y-97002171D01*
X168897498Y-96981897D01*
X168889877Y-96918436D01*
X168834361Y-96777658D01*
X168742922Y-96657078D01*
X168709954Y-96632077D01*
X168622341Y-96565638D01*
X168535523Y-96531402D01*
X168481564Y-96510123D01*
X168443033Y-96505496D01*
X168393104Y-96499500D01*
X168393102Y-96499500D01*
X167606898Y-96499500D01*
X167606896Y-96499500D01*
X167518436Y-96510123D01*
X167377658Y-96565638D01*
X167257078Y-96657077D01*
X167257077Y-96657078D01*
X167165638Y-96777658D01*
X167110123Y-96918436D01*
X167100048Y-97002338D01*
X167099500Y-97006898D01*
X167099500Y-97993102D01*
X167099500Y-97993104D01*
X167099499Y-97993104D01*
X167106672Y-98052826D01*
X167110123Y-98081564D01*
X167126204Y-98122342D01*
X167165638Y-98222341D01*
X167181245Y-98242921D01*
X167257078Y-98342922D01*
X167356548Y-98418353D01*
X167379184Y-98435518D01*
X167407782Y-98484406D01*
X167393435Y-98539195D01*
X167386799Y-98546806D01*
X167355783Y-98577824D01*
X167303457Y-98599500D01*
X165557273Y-98599500D01*
X165557257Y-98599499D01*
X165552727Y-98599499D01*
X165447273Y-98599499D01*
X165447271Y-98599499D01*
X165361529Y-98622473D01*
X165361530Y-98622474D01*
X165345413Y-98626792D01*
X165345411Y-98626793D01*
X165254086Y-98679520D01*
X165179518Y-98754089D01*
X164539517Y-99394090D01*
X164486792Y-99485412D01*
X164486792Y-99485415D01*
X164484316Y-99494654D01*
X164449837Y-99539586D01*
X164412838Y-99549500D01*
X164249356Y-99549500D01*
X164205325Y-99555916D01*
X164150421Y-99542012D01*
X164135002Y-99524672D01*
X164134432Y-99525110D01*
X164131481Y-99521264D01*
X163996856Y-99386639D01*
X163975182Y-99334313D01*
X163985095Y-99297314D01*
X164052374Y-99180784D01*
X164093296Y-99028059D01*
X164093297Y-99028059D01*
X164093297Y-98869941D01*
X164093296Y-98869940D01*
X164084139Y-98835767D01*
X164052374Y-98717216D01*
X163991338Y-98611499D01*
X163983947Y-98555347D01*
X164018425Y-98510414D01*
X164055425Y-98500500D01*
X164393104Y-98500500D01*
X164408722Y-98498624D01*
X164481564Y-98489877D01*
X164622342Y-98434361D01*
X164742922Y-98342922D01*
X164834361Y-98222342D01*
X164889877Y-98081564D01*
X164898624Y-98008722D01*
X164899933Y-97997828D01*
X165150000Y-97997828D01*
X165156402Y-98057375D01*
X165156403Y-98057380D01*
X165206645Y-98192087D01*
X165206646Y-98192088D01*
X165292811Y-98307188D01*
X165407911Y-98393353D01*
X165407912Y-98393354D01*
X165542619Y-98443596D01*
X165542624Y-98443597D01*
X165602171Y-98450000D01*
X165875000Y-98450000D01*
X166125000Y-98450000D01*
X166397829Y-98450000D01*
X166457375Y-98443597D01*
X166457380Y-98443596D01*
X166592087Y-98393354D01*
X166592088Y-98393353D01*
X166707188Y-98307188D01*
X166793353Y-98192088D01*
X166793354Y-98192087D01*
X166843596Y-98057380D01*
X166843597Y-98057375D01*
X166850000Y-97997828D01*
X166850000Y-97625000D01*
X166125000Y-97625000D01*
X166125000Y-98450000D01*
X165875000Y-98450000D01*
X165875000Y-97625000D01*
X165150000Y-97625000D01*
X165150000Y-97997828D01*
X164899933Y-97997828D01*
X164900500Y-97993104D01*
X164900500Y-97006897D01*
X164899933Y-97002171D01*
X165150000Y-97002171D01*
X165150000Y-97375000D01*
X165875000Y-97375000D01*
X166125000Y-97375000D01*
X166850000Y-97375000D01*
X166850000Y-97002171D01*
X166843597Y-96942624D01*
X166843596Y-96942619D01*
X166793354Y-96807912D01*
X166793353Y-96807911D01*
X166707188Y-96692811D01*
X166592088Y-96606646D01*
X166592087Y-96606645D01*
X166457380Y-96556403D01*
X166457375Y-96556402D01*
X166397829Y-96550000D01*
X166125000Y-96550000D01*
X166125000Y-97375000D01*
X165875000Y-97375000D01*
X165875000Y-96550000D01*
X165602171Y-96550000D01*
X165542624Y-96556402D01*
X165542619Y-96556403D01*
X165407912Y-96606645D01*
X165407911Y-96606646D01*
X165292811Y-96692811D01*
X165206646Y-96807911D01*
X165206645Y-96807912D01*
X165156403Y-96942619D01*
X165156402Y-96942624D01*
X165150000Y-97002171D01*
X164899933Y-97002171D01*
X164897498Y-96981897D01*
X164889877Y-96918436D01*
X164834361Y-96777658D01*
X164742922Y-96657078D01*
X164709954Y-96632077D01*
X164622341Y-96565638D01*
X164535523Y-96531402D01*
X164481564Y-96510123D01*
X164443033Y-96505496D01*
X164393104Y-96499500D01*
X164393102Y-96499500D01*
X163606898Y-96499500D01*
X163606896Y-96499500D01*
X163518436Y-96510123D01*
X163377656Y-96565639D01*
X163373249Y-96568118D01*
X163372221Y-96566291D01*
X163324421Y-96578806D01*
X163275535Y-96550208D01*
X163260500Y-96505496D01*
X163260500Y-95122388D01*
X163282174Y-95070062D01*
X163334500Y-95048388D01*
X163386826Y-95070062D01*
X163405978Y-95103235D01*
X163440421Y-95231779D01*
X163440422Y-95231781D01*
X163440423Y-95231784D01*
X163519480Y-95368716D01*
X163631284Y-95480520D01*
X163768216Y-95559577D01*
X163920940Y-95600499D01*
X163920941Y-95600500D01*
X163920943Y-95600500D01*
X164079059Y-95600500D01*
X164079059Y-95600499D01*
X164231784Y-95559577D01*
X164368716Y-95480520D01*
X164480520Y-95368716D01*
X164559577Y-95231784D01*
X164600499Y-95079059D01*
X164600500Y-95079059D01*
X164600500Y-94920941D01*
X164600499Y-94920940D01*
X164578279Y-94838015D01*
X164559577Y-94768216D01*
X164559574Y-94768211D01*
X164557720Y-94763734D01*
X164558712Y-94763322D01*
X164550500Y-94732666D01*
X164550500Y-94513056D01*
X164572174Y-94460730D01*
X164597354Y-94444215D01*
X164622340Y-94434362D01*
X164622340Y-94434361D01*
X164622342Y-94434361D01*
X164742922Y-94342922D01*
X164834361Y-94222342D01*
X164889877Y-94081564D01*
X164900500Y-93993102D01*
X164900500Y-93145545D01*
X164922174Y-93093219D01*
X164974500Y-93071545D01*
X165026826Y-93093219D01*
X165077826Y-93144219D01*
X165099500Y-93196545D01*
X165099500Y-93993102D01*
X165099500Y-93993104D01*
X165099499Y-93993104D01*
X165110123Y-94081563D01*
X165165638Y-94222341D01*
X165191653Y-94256646D01*
X165257078Y-94342922D01*
X165377658Y-94434361D01*
X165518436Y-94489877D01*
X165589764Y-94498442D01*
X165606896Y-94500500D01*
X165606898Y-94500500D01*
X166393104Y-94500500D01*
X166408722Y-94498624D01*
X166481564Y-94489877D01*
X166622342Y-94434361D01*
X166742922Y-94342922D01*
X166834361Y-94222342D01*
X166889877Y-94081564D01*
X166900500Y-93993102D01*
X166900500Y-93006898D01*
X166889877Y-92918436D01*
X166834361Y-92777658D01*
X166742922Y-92657078D01*
X166707480Y-92630201D01*
X166622341Y-92565638D01*
X166526029Y-92527658D01*
X166481564Y-92510123D01*
X166443033Y-92505496D01*
X166393104Y-92499500D01*
X166393102Y-92499500D01*
X165606898Y-92499500D01*
X165605999Y-92499608D01*
X165605839Y-92499563D01*
X165604688Y-92499632D01*
X165604664Y-92499233D01*
X165551463Y-92484324D01*
X165544854Y-92478461D01*
X165247875Y-92181482D01*
X170087501Y-92181482D01*
X170102334Y-92275148D01*
X170102335Y-92275149D01*
X170159860Y-92388046D01*
X170249453Y-92477639D01*
X170362350Y-92535164D01*
X170456018Y-92549999D01*
X170875000Y-92549999D01*
X171125000Y-92549999D01*
X171543981Y-92549999D01*
X171637648Y-92535165D01*
X171637649Y-92535164D01*
X171750546Y-92477639D01*
X171840139Y-92388046D01*
X171897664Y-92275149D01*
X171897664Y-92275148D01*
X171912500Y-92181481D01*
X171912500Y-92125000D01*
X171125000Y-92125000D01*
X171125000Y-92549999D01*
X170875000Y-92549999D01*
X170875000Y-92125000D01*
X170087501Y-92125000D01*
X170087501Y-92181482D01*
X165247875Y-92181482D01*
X164819918Y-91753525D01*
X164798244Y-91701199D01*
X164803403Y-91674053D01*
X164839877Y-91581564D01*
X164848221Y-91512071D01*
X164850500Y-91493104D01*
X165149499Y-91493104D01*
X165153013Y-91522360D01*
X165160123Y-91581564D01*
X165168495Y-91602793D01*
X165215638Y-91722341D01*
X165252460Y-91770897D01*
X165307078Y-91842922D01*
X165427658Y-91934361D01*
X165568436Y-91989877D01*
X165639764Y-91998442D01*
X165656896Y-92000500D01*
X165656898Y-92000500D01*
X166393104Y-92000500D01*
X166408722Y-91998624D01*
X166481564Y-91989877D01*
X166622342Y-91934361D01*
X166742922Y-91842922D01*
X166761428Y-91818518D01*
X170087500Y-91818518D01*
X170087500Y-91875000D01*
X170875000Y-91875000D01*
X171125000Y-91875000D01*
X171912499Y-91875000D01*
X171912499Y-91818517D01*
X171897665Y-91724851D01*
X171897664Y-91724850D01*
X171840139Y-91611953D01*
X171750546Y-91522360D01*
X171637649Y-91464835D01*
X171543982Y-91450000D01*
X171125000Y-91450000D01*
X171125000Y-91875000D01*
X170875000Y-91875000D01*
X170875000Y-91450000D01*
X170456018Y-91450000D01*
X170362351Y-91464834D01*
X170362350Y-91464835D01*
X170249453Y-91522360D01*
X170159860Y-91611953D01*
X170102335Y-91724850D01*
X170102335Y-91724851D01*
X170087500Y-91818518D01*
X166761428Y-91818518D01*
X166834361Y-91722342D01*
X166889877Y-91581564D01*
X166898624Y-91508722D01*
X166900500Y-91493104D01*
X166900500Y-91474500D01*
X166922174Y-91422174D01*
X166974500Y-91400500D01*
X167763212Y-91400500D01*
X167815538Y-91422174D01*
X167822752Y-91430558D01*
X167890346Y-91522146D01*
X167890353Y-91522153D01*
X167999616Y-91602792D01*
X167999618Y-91602793D01*
X168127795Y-91647644D01*
X168127801Y-91647646D01*
X168158234Y-91650500D01*
X168158241Y-91650500D01*
X169291758Y-91650500D01*
X169291766Y-91650500D01*
X169322199Y-91647646D01*
X169450382Y-91602793D01*
X169542761Y-91534614D01*
X169559646Y-91522153D01*
X169559646Y-91522152D01*
X169559650Y-91522150D01*
X169640293Y-91412882D01*
X169685146Y-91284699D01*
X169688000Y-91254266D01*
X169688000Y-90845734D01*
X169685146Y-90815301D01*
X169640293Y-90687118D01*
X169616275Y-90654574D01*
X169559653Y-90577853D01*
X169559646Y-90577846D01*
X169450383Y-90497207D01*
X169450381Y-90497206D01*
X169322204Y-90452355D01*
X169322205Y-90452355D01*
X169322200Y-90452354D01*
X169322199Y-90452354D01*
X169291766Y-90449500D01*
X168158234Y-90449500D01*
X168127801Y-90452354D01*
X168127799Y-90452354D01*
X168127795Y-90452355D01*
X167999618Y-90497206D01*
X167999616Y-90497207D01*
X167885887Y-90581143D01*
X167885062Y-90580026D01*
X167838048Y-90599500D01*
X166974500Y-90599500D01*
X166922174Y-90577826D01*
X166900500Y-90525500D01*
X166900500Y-90506895D01*
X166893607Y-90449500D01*
X166889877Y-90418436D01*
X166834361Y-90277658D01*
X166742922Y-90157078D01*
X166676417Y-90106645D01*
X166622341Y-90065638D01*
X166534098Y-90030840D01*
X166481564Y-90010123D01*
X166425496Y-90003390D01*
X166393104Y-89999500D01*
X166393102Y-89999500D01*
X165656898Y-89999500D01*
X165656896Y-89999500D01*
X165568436Y-90010123D01*
X165427658Y-90065638D01*
X165307078Y-90157077D01*
X165307077Y-90157078D01*
X165215638Y-90277658D01*
X165160123Y-90418436D01*
X165150068Y-90502171D01*
X165149500Y-90506898D01*
X165149500Y-91493102D01*
X165149500Y-91493104D01*
X165149499Y-91493104D01*
X164850500Y-91493104D01*
X164850500Y-90506895D01*
X164843607Y-90449500D01*
X164839877Y-90418436D01*
X164784361Y-90277658D01*
X164692922Y-90157078D01*
X164626417Y-90106645D01*
X164572341Y-90065638D01*
X164484098Y-90030840D01*
X164431564Y-90010123D01*
X164375496Y-90003390D01*
X164343104Y-89999500D01*
X164343102Y-89999500D01*
X163606898Y-89999500D01*
X163606896Y-89999500D01*
X163518436Y-90010123D01*
X163377656Y-90065639D01*
X163373249Y-90068118D01*
X163372221Y-90066291D01*
X163324421Y-90078806D01*
X163275535Y-90050208D01*
X163260500Y-90005496D01*
X163260500Y-89481412D01*
X163282171Y-89429089D01*
X163303969Y-89407291D01*
X163344719Y-89386530D01*
X163350304Y-89385646D01*
X163416406Y-89351964D01*
X163472866Y-89347520D01*
X163483584Y-89351960D01*
X163549696Y-89385646D01*
X163643481Y-89400500D01*
X163906518Y-89400499D01*
X163906519Y-89400499D01*
X163994728Y-89386529D01*
X164000304Y-89385646D01*
X164066406Y-89351964D01*
X164122866Y-89347520D01*
X164133584Y-89351960D01*
X164199696Y-89385646D01*
X164293481Y-89400500D01*
X164556518Y-89400499D01*
X164556519Y-89400499D01*
X164650304Y-89385646D01*
X164650306Y-89385645D01*
X164652419Y-89384568D01*
X164763342Y-89328050D01*
X164853050Y-89238342D01*
X164910646Y-89125304D01*
X164925500Y-89031519D01*
X164925499Y-87693482D01*
X164910646Y-87599696D01*
X164910646Y-87599695D01*
X164910645Y-87599693D01*
X164853049Y-87486657D01*
X164763343Y-87396951D01*
X164763342Y-87396950D01*
X164650304Y-87339354D01*
X164650302Y-87339353D01*
X164650301Y-87339353D01*
X164556519Y-87324500D01*
X164293480Y-87324500D01*
X164199695Y-87339353D01*
X164133595Y-87373033D01*
X164077132Y-87377476D01*
X164066405Y-87373033D01*
X164000304Y-87339354D01*
X163906519Y-87324500D01*
X163643480Y-87324500D01*
X163549695Y-87339353D01*
X163483595Y-87373033D01*
X163427132Y-87377476D01*
X163416405Y-87373033D01*
X163350304Y-87339354D01*
X163256519Y-87324500D01*
X162993480Y-87324500D01*
X162899695Y-87339353D01*
X162833595Y-87373033D01*
X162777132Y-87377476D01*
X162766405Y-87373033D01*
X162700304Y-87339354D01*
X162606519Y-87324500D01*
X162343481Y-87324500D01*
X162343478Y-87324501D01*
X162336069Y-87325674D01*
X162280998Y-87312447D01*
X162251410Y-87264153D01*
X162250500Y-87252584D01*
X162250500Y-85651268D01*
X162272174Y-85598942D01*
X162324500Y-85577268D01*
X162343651Y-85579789D01*
X162420940Y-85600499D01*
X162420941Y-85600500D01*
X162420943Y-85600500D01*
X162579059Y-85600500D01*
X162579059Y-85600499D01*
X162731784Y-85559577D01*
X162868716Y-85480520D01*
X162980520Y-85368716D01*
X163059577Y-85231784D01*
X163100499Y-85079059D01*
X163100500Y-85079059D01*
X163100500Y-84920941D01*
X163100499Y-84920940D01*
X163059578Y-84768220D01*
X163059577Y-84768216D01*
X162980520Y-84631284D01*
X162897174Y-84547938D01*
X162875500Y-84495612D01*
X162875500Y-83743456D01*
X162897174Y-83691130D01*
X162949500Y-83669456D01*
X162961066Y-83670366D01*
X162993481Y-83675500D01*
X163256518Y-83675499D01*
X163256519Y-83675499D01*
X163303411Y-83668072D01*
X163350304Y-83660646D01*
X163416406Y-83626964D01*
X163472866Y-83622520D01*
X163483584Y-83626960D01*
X163549696Y-83660646D01*
X163643481Y-83675500D01*
X163906518Y-83675499D01*
X163906519Y-83675499D01*
X163953411Y-83668072D01*
X164000304Y-83660646D01*
X164066406Y-83626964D01*
X164122866Y-83622520D01*
X164133584Y-83626960D01*
X164199696Y-83660646D01*
X164293481Y-83675500D01*
X164556518Y-83675499D01*
X164556519Y-83675499D01*
X164650304Y-83660646D01*
X164650306Y-83660645D01*
X164674501Y-83648317D01*
X164763342Y-83603050D01*
X164853050Y-83513342D01*
X164910646Y-83400304D01*
X164925500Y-83306519D01*
X164925499Y-81968482D01*
X164910646Y-81874696D01*
X164910646Y-81874695D01*
X164910645Y-81874693D01*
X164853049Y-81761657D01*
X164763343Y-81671951D01*
X164763342Y-81671950D01*
X164650304Y-81614354D01*
X164650302Y-81614353D01*
X164650301Y-81614353D01*
X164556519Y-81599500D01*
X164293480Y-81599500D01*
X164199695Y-81614353D01*
X164133595Y-81648033D01*
X164077132Y-81652476D01*
X164066405Y-81648033D01*
X164000304Y-81614354D01*
X163906519Y-81599500D01*
X163643480Y-81599500D01*
X163549695Y-81614353D01*
X163483595Y-81648033D01*
X163427132Y-81652476D01*
X163416405Y-81648033D01*
X163350304Y-81614354D01*
X163256519Y-81599500D01*
X162993480Y-81599500D01*
X162899695Y-81614353D01*
X162833595Y-81648033D01*
X162777132Y-81652476D01*
X162766405Y-81648033D01*
X162700304Y-81614354D01*
X162606519Y-81599500D01*
X162343481Y-81599500D01*
X162343478Y-81599501D01*
X162336069Y-81600674D01*
X162280998Y-81587447D01*
X162251410Y-81539153D01*
X162250500Y-81527584D01*
X162250500Y-81099500D01*
X162272174Y-81047174D01*
X162324500Y-81025500D01*
X162843104Y-81025500D01*
X162858722Y-81023624D01*
X162931564Y-81014877D01*
X163072342Y-80959361D01*
X163192922Y-80867922D01*
X163284361Y-80747342D01*
X163339877Y-80606564D01*
X163349265Y-80528388D01*
X163349933Y-80522828D01*
X163700000Y-80522828D01*
X163706402Y-80582375D01*
X163706403Y-80582380D01*
X163756645Y-80717087D01*
X163756646Y-80717088D01*
X163842811Y-80832188D01*
X163957911Y-80918353D01*
X163957912Y-80918354D01*
X164092619Y-80968596D01*
X164092624Y-80968597D01*
X164152171Y-80975000D01*
X164325000Y-80975000D01*
X164575000Y-80975000D01*
X164747829Y-80975000D01*
X164807375Y-80968597D01*
X164807380Y-80968596D01*
X164942087Y-80918354D01*
X164942088Y-80918353D01*
X165057188Y-80832188D01*
X165143353Y-80717088D01*
X165143354Y-80717087D01*
X165193596Y-80582380D01*
X165193597Y-80582375D01*
X165200000Y-80522828D01*
X165200000Y-80125000D01*
X164575000Y-80125000D01*
X164575000Y-80975000D01*
X164325000Y-80975000D01*
X164325000Y-80125000D01*
X163700000Y-80125000D01*
X163700000Y-80522828D01*
X163349933Y-80522828D01*
X163350500Y-80518104D01*
X163350500Y-79481895D01*
X163345560Y-79440764D01*
X163339877Y-79393436D01*
X163284361Y-79252658D01*
X163192922Y-79132078D01*
X163192687Y-79131900D01*
X163151842Y-79100926D01*
X163095846Y-79058463D01*
X163067249Y-79009577D01*
X163081596Y-78954787D01*
X163130483Y-78926189D01*
X163140560Y-78925500D01*
X163966403Y-78925500D01*
X164018729Y-78947174D01*
X164040403Y-78999500D01*
X164018729Y-79051826D01*
X163992263Y-79068834D01*
X163957912Y-79081645D01*
X163957911Y-79081646D01*
X163842811Y-79167811D01*
X163756646Y-79282911D01*
X163756645Y-79282912D01*
X163706403Y-79417619D01*
X163706402Y-79417624D01*
X163700000Y-79477171D01*
X163700000Y-79875000D01*
X165200000Y-79875000D01*
X165200000Y-79477171D01*
X165193597Y-79417624D01*
X165193596Y-79417619D01*
X165143354Y-79282912D01*
X165143353Y-79282911D01*
X165057188Y-79167811D01*
X164942088Y-79081646D01*
X164942087Y-79081645D01*
X164907737Y-79068834D01*
X164866284Y-79030241D01*
X164864263Y-78973640D01*
X164902856Y-78932187D01*
X164933597Y-78925500D01*
X166293100Y-78925500D01*
X166345426Y-78947174D01*
X166552826Y-79154574D01*
X166574500Y-79206900D01*
X166574500Y-89056020D01*
X166603495Y-89164232D01*
X166603499Y-89164241D01*
X166646282Y-89238343D01*
X166659515Y-89261263D01*
X167159515Y-89761263D01*
X167238737Y-89840485D01*
X167335763Y-89896503D01*
X167443979Y-89925499D01*
X167443980Y-89925500D01*
X167443982Y-89925500D01*
X171793100Y-89925500D01*
X171845426Y-89947174D01*
X172552826Y-90654574D01*
X172574500Y-90706900D01*
X172574500Y-93293100D01*
X172552826Y-93345426D01*
X172345426Y-93552826D01*
X172293100Y-93574500D01*
X169578106Y-93574500D01*
X169525780Y-93552826D01*
X169504106Y-93500500D01*
X169525780Y-93448174D01*
X169534160Y-93440961D01*
X169559650Y-93422150D01*
X169640293Y-93312882D01*
X169685146Y-93184699D01*
X169688000Y-93154266D01*
X169688000Y-92745734D01*
X169685146Y-92715301D01*
X169640293Y-92587118D01*
X169640292Y-92587116D01*
X169559653Y-92477853D01*
X169559646Y-92477846D01*
X169450383Y-92397207D01*
X169450381Y-92397206D01*
X169322204Y-92352355D01*
X169322205Y-92352355D01*
X169322200Y-92352354D01*
X169322199Y-92352354D01*
X169291766Y-92349500D01*
X168158234Y-92349500D01*
X168127801Y-92352354D01*
X168127799Y-92352354D01*
X168127795Y-92352355D01*
X167999618Y-92397206D01*
X167999616Y-92397207D01*
X167890353Y-92477846D01*
X167890346Y-92477853D01*
X167809707Y-92587116D01*
X167809706Y-92587118D01*
X167764855Y-92715295D01*
X167764854Y-92715299D01*
X167764854Y-92715301D01*
X167762000Y-92745734D01*
X167762000Y-93154266D01*
X167764854Y-93184699D01*
X167764854Y-93184701D01*
X167764855Y-93184704D01*
X167809706Y-93312881D01*
X167809707Y-93312883D01*
X167890346Y-93422146D01*
X167890353Y-93422153D01*
X167999616Y-93502792D01*
X167999618Y-93502793D01*
X168127795Y-93547644D01*
X168127801Y-93547646D01*
X168158234Y-93550500D01*
X168225500Y-93550500D01*
X168277826Y-93572174D01*
X168299500Y-93624500D01*
X168299500Y-93781020D01*
X168328495Y-93889232D01*
X168328496Y-93889235D01*
X168328497Y-93889237D01*
X168384515Y-93986263D01*
X168738737Y-94340485D01*
X168835763Y-94396503D01*
X168943979Y-94425499D01*
X168943980Y-94425500D01*
X168943982Y-94425500D01*
X172556020Y-94425500D01*
X172556020Y-94425499D01*
X172664237Y-94396503D01*
X172761263Y-94340485D01*
X172948174Y-94153574D01*
X173000500Y-94131900D01*
X173052826Y-94153574D01*
X173074500Y-94205900D01*
X173074500Y-97793100D01*
X173052826Y-97845426D01*
X172845426Y-98052826D01*
X172793100Y-98074500D01*
X171443980Y-98074500D01*
X171335767Y-98103495D01*
X171335758Y-98103499D01*
X171238736Y-98159515D01*
X170659515Y-98738736D01*
X170603499Y-98835758D01*
X170603495Y-98835767D01*
X170574500Y-98943979D01*
X170574500Y-99438329D01*
X170552826Y-99490655D01*
X170522622Y-99507808D01*
X170522849Y-99508383D01*
X170518801Y-99509979D01*
X170518638Y-99510072D01*
X170518437Y-99510122D01*
X170377658Y-99565638D01*
X170257078Y-99657077D01*
X170257077Y-99657078D01*
X170165638Y-99777658D01*
X170110123Y-99918436D01*
X170099500Y-100006895D01*
X170099500Y-100768100D01*
X170077826Y-100820426D01*
X169559515Y-101338736D01*
X169503499Y-101435758D01*
X169503495Y-101435767D01*
X169474500Y-101543979D01*
X169474500Y-103206563D01*
X169452826Y-103258889D01*
X169444850Y-103265799D01*
X169379084Y-103315033D01*
X169342454Y-103342454D01*
X169256203Y-103457669D01*
X169256202Y-103457670D01*
X169205910Y-103592512D01*
X169205909Y-103592517D01*
X169199500Y-103652126D01*
X169199500Y-105347873D01*
X169205909Y-105407485D01*
X169256202Y-105542329D01*
X169256203Y-105542330D01*
X169256204Y-105542331D01*
X169342454Y-105657546D01*
X169457669Y-105743796D01*
X169457670Y-105743797D01*
X169512388Y-105764205D01*
X169592517Y-105794091D01*
X169652127Y-105800500D01*
X170147872Y-105800499D01*
X170207483Y-105794091D01*
X170325703Y-105749998D01*
X170342329Y-105743797D01*
X170342329Y-105743796D01*
X170342331Y-105743796D01*
X170457546Y-105657546D01*
X170543796Y-105542331D01*
X170594091Y-105407483D01*
X170600500Y-105347873D01*
X170600499Y-103652128D01*
X170599819Y-103645806D01*
X170598955Y-103637766D01*
X170594091Y-103592517D01*
X170554869Y-103487356D01*
X170543797Y-103457670D01*
X170543796Y-103457669D01*
X170484311Y-103378208D01*
X170457546Y-103342454D01*
X170355152Y-103265802D01*
X170326253Y-103217094D01*
X170325500Y-103206563D01*
X170325500Y-101806899D01*
X170347173Y-101754574D01*
X170579573Y-101522173D01*
X170631899Y-101500500D01*
X171393104Y-101500500D01*
X171408722Y-101498624D01*
X171481564Y-101489877D01*
X171622342Y-101434361D01*
X171742922Y-101342922D01*
X171834361Y-101222342D01*
X171889877Y-101081564D01*
X171899488Y-101001533D01*
X171899933Y-100997828D01*
X172150000Y-100997828D01*
X172156402Y-101057375D01*
X172156403Y-101057380D01*
X172206645Y-101192087D01*
X172206646Y-101192088D01*
X172292811Y-101307188D01*
X172407911Y-101393353D01*
X172407912Y-101393354D01*
X172542619Y-101443596D01*
X172542624Y-101443597D01*
X172602171Y-101450000D01*
X172875000Y-101450000D01*
X172875000Y-100625000D01*
X172150000Y-100625000D01*
X172150000Y-100997828D01*
X171899933Y-100997828D01*
X171900500Y-100993104D01*
X171900500Y-100006897D01*
X171899932Y-100002171D01*
X172150000Y-100002171D01*
X172150000Y-100375000D01*
X172875000Y-100375000D01*
X172875000Y-99550000D01*
X172602171Y-99550000D01*
X172542624Y-99556402D01*
X172542619Y-99556403D01*
X172407912Y-99606645D01*
X172407911Y-99606646D01*
X172292811Y-99692811D01*
X172206646Y-99807911D01*
X172206645Y-99807912D01*
X172156403Y-99942619D01*
X172156402Y-99942624D01*
X172150000Y-100002171D01*
X171899932Y-100002171D01*
X171897458Y-99981564D01*
X171889877Y-99918436D01*
X171834361Y-99777658D01*
X171742922Y-99657078D01*
X171687217Y-99614835D01*
X171622341Y-99565638D01*
X171481562Y-99510122D01*
X171481362Y-99510072D01*
X171481281Y-99510011D01*
X171477151Y-99508383D01*
X171477592Y-99507263D01*
X171435945Y-99476234D01*
X171425500Y-99438329D01*
X171425500Y-99206900D01*
X171447174Y-99154574D01*
X171654574Y-98947174D01*
X171706900Y-98925500D01*
X173056020Y-98925500D01*
X173056020Y-98925499D01*
X173164237Y-98896503D01*
X173261263Y-98840485D01*
X173548174Y-98553574D01*
X173600500Y-98531900D01*
X173652826Y-98553574D01*
X173674500Y-98605900D01*
X173674500Y-99530804D01*
X173652826Y-99583130D01*
X173600500Y-99604804D01*
X173574640Y-99600138D01*
X173457380Y-99556403D01*
X173457375Y-99556402D01*
X173397829Y-99550000D01*
X173125000Y-99550000D01*
X173125000Y-101450000D01*
X173397829Y-101450000D01*
X173457375Y-101443597D01*
X173457380Y-101443596D01*
X173574640Y-101399861D01*
X173631241Y-101401882D01*
X173669834Y-101443335D01*
X173674500Y-101469195D01*
X173674500Y-103206563D01*
X173652826Y-103258889D01*
X173644850Y-103265799D01*
X173579084Y-103315033D01*
X173542454Y-103342454D01*
X173456203Y-103457669D01*
X173456202Y-103457670D01*
X173405910Y-103592512D01*
X173405909Y-103592517D01*
X173399500Y-103652126D01*
X173399500Y-105347873D01*
X173405909Y-105407485D01*
X173456202Y-105542329D01*
X173456203Y-105542330D01*
X173456204Y-105542331D01*
X173542454Y-105657546D01*
X173657669Y-105743796D01*
X173657670Y-105743797D01*
X173712388Y-105764205D01*
X173792517Y-105794091D01*
X173852127Y-105800500D01*
X174347872Y-105800499D01*
X174407483Y-105794091D01*
X174525703Y-105749998D01*
X174542329Y-105743797D01*
X174542329Y-105743796D01*
X174542331Y-105743796D01*
X174657546Y-105657546D01*
X174743796Y-105542331D01*
X174794091Y-105407483D01*
X174800500Y-105347873D01*
X174800499Y-103652128D01*
X174799819Y-103645806D01*
X174798955Y-103637766D01*
X174794091Y-103592517D01*
X174754869Y-103487356D01*
X174743797Y-103457670D01*
X174743796Y-103457669D01*
X174684311Y-103378208D01*
X174657546Y-103342454D01*
X174555152Y-103265802D01*
X174526253Y-103217094D01*
X174525500Y-103206563D01*
X174525500Y-89906170D01*
X174525499Y-89906169D01*
X174509220Y-89845416D01*
X174496503Y-89797953D01*
X174440485Y-89700927D01*
X174361263Y-89621705D01*
X172899073Y-88159515D01*
X172802051Y-88103499D01*
X172802042Y-88103495D01*
X172693830Y-88074500D01*
X172693828Y-88074500D01*
X168706900Y-88074500D01*
X168654574Y-88052826D01*
X168447174Y-87845426D01*
X168425500Y-87793100D01*
X168425500Y-78443980D01*
X168425499Y-78443979D01*
X168396504Y-78335767D01*
X168396503Y-78335763D01*
X168340485Y-78238737D01*
X168261263Y-78159515D01*
X167261263Y-77159515D01*
X167225013Y-77138586D01*
X167190534Y-77093652D01*
X167197927Y-77037500D01*
X167242861Y-77003021D01*
X167262013Y-77000500D01*
X175425500Y-77000500D01*
X175477826Y-77022174D01*
X175499500Y-77074500D01*
X175499500Y-107425500D01*
X175477826Y-107477826D01*
X175425500Y-107499500D01*
X150074500Y-107499500D01*
X150022174Y-107477826D01*
X150000500Y-107425500D01*
X150000500Y-105354205D01*
X150750001Y-105354205D01*
X150752850Y-105384602D01*
X150752852Y-105384611D01*
X150797652Y-105512643D01*
X150878207Y-105621791D01*
X150878208Y-105621792D01*
X150987356Y-105702347D01*
X150987355Y-105702347D01*
X151115385Y-105747146D01*
X151115393Y-105747148D01*
X151145803Y-105749999D01*
X151275000Y-105749999D01*
X151525000Y-105749999D01*
X151654194Y-105749999D01*
X151654205Y-105749998D01*
X151684602Y-105747149D01*
X151684611Y-105747147D01*
X151812643Y-105702347D01*
X151921791Y-105621792D01*
X151921792Y-105621791D01*
X152002347Y-105512643D01*
X152047146Y-105384614D01*
X152047148Y-105384606D01*
X152049999Y-105354198D01*
X152050000Y-105354197D01*
X152050000Y-104625000D01*
X151525000Y-104625000D01*
X151525000Y-105749999D01*
X151275000Y-105749999D01*
X151275000Y-104625000D01*
X150750001Y-104625000D01*
X150750001Y-105354205D01*
X150000500Y-105354205D01*
X150000500Y-103645801D01*
X150750000Y-103645801D01*
X150750000Y-104375000D01*
X151275000Y-104375000D01*
X151525000Y-104375000D01*
X152049999Y-104375000D01*
X152049999Y-103645806D01*
X152049998Y-103645794D01*
X152047149Y-103615397D01*
X152047147Y-103615388D01*
X152002347Y-103487356D01*
X151921792Y-103378208D01*
X151921791Y-103378207D01*
X151812643Y-103297652D01*
X151812644Y-103297652D01*
X151684614Y-103252853D01*
X151684606Y-103252851D01*
X151654198Y-103250000D01*
X151525000Y-103250000D01*
X151525000Y-104375000D01*
X151275000Y-104375000D01*
X151275000Y-103250000D01*
X151145806Y-103250000D01*
X151145793Y-103250001D01*
X151115397Y-103252850D01*
X151115388Y-103252852D01*
X150987356Y-103297652D01*
X150878208Y-103378207D01*
X150878207Y-103378208D01*
X150797652Y-103487356D01*
X150752853Y-103615385D01*
X150752851Y-103615393D01*
X150750000Y-103645801D01*
X150000500Y-103645801D01*
X150000500Y-102022828D01*
X152850000Y-102022828D01*
X152856402Y-102082375D01*
X152856403Y-102082380D01*
X152906645Y-102217087D01*
X152906646Y-102217088D01*
X152992811Y-102332188D01*
X153107911Y-102418353D01*
X153107912Y-102418354D01*
X153242619Y-102468596D01*
X153242624Y-102468597D01*
X153302171Y-102475000D01*
X153475000Y-102475000D01*
X153725000Y-102475000D01*
X153897829Y-102475000D01*
X153957375Y-102468597D01*
X153957380Y-102468596D01*
X154092087Y-102418354D01*
X154092088Y-102418353D01*
X154207188Y-102332188D01*
X154293353Y-102217088D01*
X154293354Y-102217087D01*
X154343596Y-102082380D01*
X154343597Y-102082375D01*
X154350000Y-102022828D01*
X154350000Y-101625000D01*
X153725000Y-101625000D01*
X153725000Y-102475000D01*
X153475000Y-102475000D01*
X153475000Y-101625000D01*
X152850000Y-101625000D01*
X152850000Y-102022828D01*
X150000500Y-102022828D01*
X150000500Y-77074500D01*
X150022174Y-77022174D01*
X150074500Y-77000500D01*
X158437462Y-77000500D01*
X158489788Y-77022174D01*
G37*
%TD.AperFunction*%
%TA.AperFunction,Conductor*%
G36*
X159888326Y-100321674D02*
G01*
X159910000Y-100374000D01*
X159910000Y-100425000D01*
X159961000Y-100425000D01*
X160013326Y-100446674D01*
X160035000Y-100499000D01*
X160035000Y-100899554D01*
X160031173Y-100908791D01*
X160032479Y-100918706D01*
X160020718Y-100934033D01*
X160013326Y-100951880D01*
X159998001Y-100963640D01*
X159966383Y-100981895D01*
X159895999Y-101022531D01*
X159839848Y-101029924D01*
X159794914Y-100995446D01*
X159785000Y-100958445D01*
X159785000Y-100550000D01*
X159354000Y-100550000D01*
X159301674Y-100528326D01*
X159280000Y-100476000D01*
X159280000Y-100374000D01*
X159301674Y-100321674D01*
X159354000Y-100300000D01*
X159836000Y-100300000D01*
X159888326Y-100321674D01*
G37*
%TD.AperFunction*%
%TA.AperFunction,Conductor*%
G36*
X161937826Y-94945351D02*
G01*
X161959500Y-94997677D01*
X161959500Y-96481560D01*
X161937826Y-96533886D01*
X161885500Y-96555560D01*
X161859641Y-96550895D01*
X161807376Y-96531402D01*
X161747829Y-96525000D01*
X161575000Y-96525000D01*
X161575000Y-97426000D01*
X161553326Y-97478326D01*
X161501000Y-97500000D01*
X161450000Y-97500000D01*
X161450000Y-97551000D01*
X161428326Y-97603326D01*
X161376000Y-97625000D01*
X160700000Y-97625000D01*
X160700000Y-98022828D01*
X160706402Y-98082375D01*
X160706403Y-98082380D01*
X160756645Y-98217087D01*
X160756646Y-98217088D01*
X160842811Y-98332188D01*
X160957911Y-98418353D01*
X160957912Y-98418354D01*
X161092619Y-98468596D01*
X161092624Y-98468597D01*
X161152171Y-98475000D01*
X161257112Y-98475000D01*
X161309438Y-98496674D01*
X161331112Y-98549000D01*
X161309438Y-98601326D01*
X161279480Y-98631283D01*
X161200424Y-98768214D01*
X161200421Y-98768220D01*
X161159500Y-98920940D01*
X161159500Y-98920943D01*
X161159500Y-99079057D01*
X161198531Y-99224722D01*
X161191138Y-99280875D01*
X161146205Y-99315354D01*
X161090052Y-99307961D01*
X161074726Y-99296201D01*
X160218504Y-98439979D01*
X160196830Y-98387653D01*
X160211867Y-98342939D01*
X160238978Y-98307188D01*
X160284361Y-98247342D01*
X160339877Y-98106564D01*
X160348624Y-98033722D01*
X160350500Y-98018104D01*
X160350500Y-96981897D01*
X160349932Y-96977171D01*
X160700000Y-96977171D01*
X160700000Y-97375000D01*
X161325000Y-97375000D01*
X161325000Y-96525000D01*
X161152171Y-96525000D01*
X161092624Y-96531402D01*
X161092619Y-96531403D01*
X160957912Y-96581645D01*
X160957911Y-96581646D01*
X160842811Y-96667811D01*
X160756646Y-96782911D01*
X160756645Y-96782912D01*
X160706403Y-96917619D01*
X160706402Y-96917624D01*
X160700000Y-96977171D01*
X160349932Y-96977171D01*
X160346609Y-96949500D01*
X160339877Y-96893436D01*
X160284361Y-96752658D01*
X160192922Y-96632078D01*
X160192921Y-96632077D01*
X160192920Y-96632076D01*
X160129786Y-96584199D01*
X160101189Y-96535312D01*
X160100500Y-96525236D01*
X160100500Y-95624500D01*
X160122174Y-95572174D01*
X160174500Y-95550500D01*
X160341758Y-95550500D01*
X160341766Y-95550500D01*
X160372199Y-95547646D01*
X160410259Y-95534328D01*
X160495068Y-95504653D01*
X160519509Y-95500500D01*
X161122477Y-95500500D01*
X161122477Y-95500499D01*
X161262485Y-95462984D01*
X161301413Y-95440509D01*
X161388015Y-95390510D01*
X161833174Y-94945351D01*
X161885500Y-94923677D01*
X161937826Y-94945351D01*
G37*
%TD.AperFunction*%
%TA.AperFunction,Conductor*%
G36*
X158127826Y-79440764D02*
G01*
X158149500Y-79493090D01*
X158149500Y-81738887D01*
X158141435Y-81772482D01*
X158089353Y-81874698D01*
X158074500Y-81968480D01*
X158074500Y-83306519D01*
X158089353Y-83400304D01*
X158089354Y-83400306D01*
X158146950Y-83513342D01*
X158236658Y-83603050D01*
X158349696Y-83660646D01*
X158443481Y-83675500D01*
X158706518Y-83675499D01*
X158706519Y-83675499D01*
X158753411Y-83668072D01*
X158800304Y-83660646D01*
X158866406Y-83626964D01*
X158922866Y-83622520D01*
X158933584Y-83626960D01*
X158999696Y-83660646D01*
X159093481Y-83675500D01*
X159356518Y-83675499D01*
X159356519Y-83675499D01*
X159403411Y-83668072D01*
X159450304Y-83660646D01*
X159516406Y-83626964D01*
X159572866Y-83622520D01*
X159583584Y-83626960D01*
X159649696Y-83660646D01*
X159743481Y-83675500D01*
X160006518Y-83675499D01*
X160006519Y-83675499D01*
X160053411Y-83668072D01*
X160100304Y-83660646D01*
X160166406Y-83626964D01*
X160222866Y-83622520D01*
X160233584Y-83626960D01*
X160299696Y-83660646D01*
X160393481Y-83675500D01*
X160656518Y-83675499D01*
X160656519Y-83675499D01*
X160703411Y-83668072D01*
X160750304Y-83660646D01*
X160816406Y-83626964D01*
X160872866Y-83622520D01*
X160883584Y-83626960D01*
X160949696Y-83660646D01*
X161043481Y-83675500D01*
X161306518Y-83675499D01*
X161313923Y-83674326D01*
X161368995Y-83687547D01*
X161398589Y-83735838D01*
X161399500Y-83747415D01*
X161399500Y-87302736D01*
X161377826Y-87355062D01*
X161325500Y-87376736D01*
X161314835Y-87375963D01*
X161308233Y-87375001D01*
X161308213Y-87375000D01*
X161300000Y-87375000D01*
X161300000Y-88288500D01*
X161278326Y-88340826D01*
X161226000Y-88362500D01*
X161124000Y-88362500D01*
X161071674Y-88340826D01*
X161050000Y-88288500D01*
X161050000Y-87375000D01*
X161049999Y-87374999D01*
X161041780Y-87375000D01*
X161035167Y-87375964D01*
X160980263Y-87362059D01*
X160951273Y-87313404D01*
X160950500Y-87302737D01*
X160950500Y-85968980D01*
X160950499Y-85968979D01*
X160921504Y-85860767D01*
X160921503Y-85860763D01*
X160865485Y-85763737D01*
X160786263Y-85684515D01*
X160261263Y-85159515D01*
X160164241Y-85103499D01*
X160164232Y-85103495D01*
X160056020Y-85074500D01*
X160056018Y-85074500D01*
X158206900Y-85074500D01*
X158154574Y-85052826D01*
X157947174Y-84845426D01*
X157925500Y-84793100D01*
X157925500Y-79569090D01*
X157947174Y-79516764D01*
X158023174Y-79440764D01*
X158075500Y-79419090D01*
X158127826Y-79440764D01*
G37*
%TD.AperFunction*%
%TD*%
M02*
