%TF.GenerationSoftware,KiCad,Pcbnew,8.0.5*%
%TF.CreationDate,2025-02-06T17:58:04+03:00*%
%TF.ProjectId,Touch Switch Project,546f7563-6820-4537-9769-746368205072,v01*%
%TF.SameCoordinates,Original*%
%TF.FileFunction,Copper,L2,Bot*%
%TF.FilePolarity,Positive*%
%FSLAX46Y46*%
G04 Gerber Fmt 4.6, Leading zero omitted, Abs format (unit mm)*
G04 Created by KiCad (PCBNEW 8.0.5) date 2025-02-06 17:58:04*
%MOMM*%
%LPD*%
G01*
G04 APERTURE LIST*
G04 Aperture macros list*
%AMRoundRect*
0 Rectangle with rounded corners*
0 $1 Rounding radius*
0 $2 $3 $4 $5 $6 $7 $8 $9 X,Y pos of 4 corners*
0 Add a 4 corners polygon primitive as box body*
4,1,4,$2,$3,$4,$5,$6,$7,$8,$9,$2,$3,0*
0 Add four circle primitives for the rounded corners*
1,1,$1+$1,$2,$3*
1,1,$1+$1,$4,$5*
1,1,$1+$1,$6,$7*
1,1,$1+$1,$8,$9*
0 Add four rect primitives between the rounded corners*
20,1,$1+$1,$2,$3,$4,$5,0*
20,1,$1+$1,$4,$5,$6,$7,0*
20,1,$1+$1,$6,$7,$8,$9,0*
20,1,$1+$1,$8,$9,$2,$3,0*%
G04 Aperture macros list end*
%TA.AperFunction,ComponentPad*%
%ADD10C,1.400000*%
%TD*%
%TA.AperFunction,ComponentPad*%
%ADD11O,1.400000X1.400000*%
%TD*%
%TA.AperFunction,ComponentPad*%
%ADD12R,1.600000X1.600000*%
%TD*%
%TA.AperFunction,ComponentPad*%
%ADD13C,1.600000*%
%TD*%
%TA.AperFunction,ComponentPad*%
%ADD14R,2.000000X2.000000*%
%TD*%
%TA.AperFunction,ComponentPad*%
%ADD15C,2.000000*%
%TD*%
%TA.AperFunction,ComponentPad*%
%ADD16R,1.800000X1.800000*%
%TD*%
%TA.AperFunction,ComponentPad*%
%ADD17C,1.800000*%
%TD*%
%TA.AperFunction,ComponentPad*%
%ADD18R,1.050000X1.500000*%
%TD*%
%TA.AperFunction,ComponentPad*%
%ADD19O,1.050000X1.500000*%
%TD*%
%TA.AperFunction,ComponentPad*%
%ADD20O,1.600000X1.600000*%
%TD*%
%TA.AperFunction,ComponentPad*%
%ADD21R,1.200000X1.200000*%
%TD*%
%TA.AperFunction,ComponentPad*%
%ADD22C,1.200000*%
%TD*%
%TA.AperFunction,ComponentPad*%
%ADD23RoundRect,0.249999X0.790001X1.550001X-0.790001X1.550001X-0.790001X-1.550001X0.790001X-1.550001X0*%
%TD*%
%TA.AperFunction,ComponentPad*%
%ADD24O,2.080000X3.600000*%
%TD*%
%TA.AperFunction,Conductor*%
%ADD25C,0.254000*%
%TD*%
G04 APERTURE END LIST*
D10*
%TO.P,R2,1*%
%TO.N,VCC*%
X139460000Y-75500000D03*
D11*
%TO.P,R2,2*%
%TO.N,Net-(J1-Pin_1)*%
X144540000Y-75500000D03*
%TD*%
D10*
%TO.P,R1,1*%
%TO.N,Net-(U1-DIS)*%
X152540000Y-75500000D03*
D11*
%TO.P,R1,2*%
%TO.N,VCC*%
X147460000Y-75500000D03*
%TD*%
D12*
%TO.P,C1,1*%
%TO.N,Net-(U1-DIS)*%
X149000000Y-81000000D03*
D13*
%TO.P,C1,2*%
%TO.N,GND*%
X151500000Y-81000000D03*
%TD*%
D14*
%TO.P,BZ1,1,+*%
%TO.N,VCC*%
X126460225Y-79000000D03*
D15*
%TO.P,BZ1,2,-*%
%TO.N,Net-(BZ1--)*%
X134060225Y-79000000D03*
%TD*%
D16*
%TO.P,LED,1,K*%
%TO.N,Net-(BZ1--)*%
X128775000Y-88000000D03*
D17*
%TO.P,LED,2,A*%
%TO.N,Net-(D1-A)*%
X126235000Y-88000000D03*
%TD*%
D18*
%TO.P,Q1,1,E*%
%TO.N,GND*%
X132730000Y-88000000D03*
D19*
%TO.P,Q1,2,B*%
%TO.N,Net-(Q1-B)*%
X134000000Y-88000000D03*
%TO.P,Q1,3,C*%
%TO.N,Net-(BZ1--)*%
X135270000Y-88000000D03*
%TD*%
D10*
%TO.P,R3,1*%
%TO.N,VCC*%
X123000000Y-82500000D03*
D11*
%TO.P,R3,2*%
%TO.N,Net-(D1-A)*%
X123000000Y-87580000D03*
%TD*%
D12*
%TO.P,555,1,GND*%
%TO.N,GND*%
X138660225Y-78850000D03*
D20*
%TO.P,555,2,TR*%
%TO.N,Net-(J1-Pin_1)*%
X138660225Y-81390000D03*
%TO.P,555,3,Q*%
%TO.N,Net-(Q1-B)*%
X138660225Y-83930000D03*
%TO.P,555,4,R*%
%TO.N,VCC*%
X138660225Y-86470000D03*
%TO.P,555,5,CV*%
%TO.N,Net-(U1-CV)*%
X146280225Y-86470000D03*
%TO.P,555,6,THR*%
%TO.N,Net-(U1-DIS)*%
X146280225Y-83930000D03*
%TO.P,555,7,DIS*%
X146280225Y-81390000D03*
%TO.P,555,8,VCC*%
%TO.N,VCC*%
X146280225Y-78850000D03*
%TD*%
D21*
%TO.P,C2,1*%
%TO.N,Net-(U1-CV)*%
X149500000Y-87000000D03*
D22*
%TO.P,C2,2*%
%TO.N,GND*%
X151000000Y-87000000D03*
%TD*%
D23*
%TO.P,Touch Input,1,Pin_1*%
%TO.N,Net-(J1-Pin_1)*%
X132500000Y-70000000D03*
D24*
%TO.P,Touch Input,2,Pin_2*%
%TO.N,GND*%
X127420000Y-70000000D03*
%TD*%
D23*
%TO.P,BAT+,1,Pin_1*%
%TO.N,VCC*%
X146540000Y-70000000D03*
D24*
%TO.P,BAT+,2,Pin_2*%
%TO.N,GND*%
X141460000Y-70000000D03*
%TD*%
D25*
%TO.N,Net-(BZ1--)*%
X134060225Y-79000000D02*
X134060225Y-82560225D01*
X135270000Y-83770000D02*
X135270000Y-88000000D01*
X134060225Y-82560225D02*
X135270000Y-83770000D01*
%TO.N,Net-(J1-Pin_1)*%
X136000000Y-74500000D02*
X136000000Y-80000000D01*
X133500000Y-73500000D02*
X135000000Y-73500000D01*
X135000000Y-73500000D02*
X136000000Y-74500000D01*
X132500000Y-72500000D02*
X133500000Y-73500000D01*
X136000000Y-80000000D02*
X137390000Y-81390000D01*
X132500000Y-70000000D02*
X132500000Y-72500000D01*
X137390000Y-81390000D02*
X138660225Y-81390000D01*
%TD*%
%TA.AperFunction,Conductor*%
%TO.N,GND*%
G36*
X153003736Y-57500726D02*
G01*
X153293796Y-57518271D01*
X153308659Y-57520076D01*
X153590798Y-57571780D01*
X153605335Y-57575363D01*
X153879172Y-57660695D01*
X153893163Y-57666000D01*
X154154743Y-57783727D01*
X154167989Y-57790680D01*
X154413465Y-57939075D01*
X154425776Y-57947573D01*
X154425792Y-57947585D01*
X154651573Y-58124473D01*
X154662781Y-58134403D01*
X154865596Y-58337218D01*
X154875526Y-58348426D01*
X154933811Y-58422821D01*
X154995481Y-58501538D01*
X155052422Y-58574217D01*
X155060926Y-58586537D01*
X155201633Y-58819295D01*
X155209316Y-58832004D01*
X155216275Y-58845263D01*
X155333997Y-59106831D01*
X155339306Y-59120832D01*
X155424635Y-59394663D01*
X155428219Y-59409201D01*
X155479923Y-59691340D01*
X155481728Y-59706205D01*
X155499274Y-59996263D01*
X155499500Y-60003750D01*
X155499500Y-60070244D01*
X155499938Y-60076642D01*
X155688807Y-92496024D01*
X155688583Y-92504233D01*
X155671068Y-92793797D01*
X155669263Y-92808662D01*
X155617559Y-93090802D01*
X155613975Y-93105340D01*
X155528643Y-93379185D01*
X155523337Y-93393176D01*
X155405615Y-93654746D01*
X155398656Y-93668004D01*
X155250265Y-93913475D01*
X155241759Y-93925799D01*
X155064873Y-94151580D01*
X155054944Y-94162788D01*
X154852116Y-94365619D01*
X154840908Y-94375548D01*
X154615120Y-94552443D01*
X154602797Y-94560949D01*
X154357333Y-94709341D01*
X154344074Y-94716300D01*
X154082514Y-94834021D01*
X154068514Y-94839331D01*
X153794669Y-94924668D01*
X153780130Y-94928252D01*
X153497993Y-94979960D01*
X153483128Y-94981765D01*
X153193729Y-94999274D01*
X153186241Y-94999500D01*
X121814421Y-94999500D01*
X121806932Y-94999274D01*
X121516874Y-94981724D01*
X121502010Y-94979919D01*
X121219878Y-94928213D01*
X121205339Y-94924629D01*
X120931499Y-94839294D01*
X120917499Y-94833984D01*
X120655943Y-94716265D01*
X120642684Y-94709306D01*
X120397224Y-94560917D01*
X120384901Y-94552411D01*
X120159117Y-94375518D01*
X120147909Y-94365589D01*
X119945085Y-94162762D01*
X119935156Y-94151553D01*
X119758271Y-93925772D01*
X119749771Y-93913459D01*
X119601370Y-93667972D01*
X119594426Y-93654742D01*
X119476697Y-93393156D01*
X119471395Y-93379175D01*
X119386059Y-93105319D01*
X119382477Y-93090783D01*
X119330776Y-92808657D01*
X119328971Y-92793793D01*
X119311386Y-92503081D01*
X119311160Y-92495594D01*
X119311160Y-92429745D01*
X119310720Y-92423350D01*
X119282504Y-87579999D01*
X121794357Y-87579999D01*
X121794357Y-87580000D01*
X121814884Y-87801535D01*
X121814885Y-87801537D01*
X121875769Y-88015523D01*
X121875775Y-88015538D01*
X121974938Y-88214683D01*
X121974943Y-88214691D01*
X122109020Y-88392238D01*
X122273437Y-88542123D01*
X122273439Y-88542125D01*
X122462595Y-88659245D01*
X122462596Y-88659245D01*
X122462599Y-88659247D01*
X122670060Y-88739618D01*
X122888757Y-88780500D01*
X122888759Y-88780500D01*
X123111241Y-88780500D01*
X123111243Y-88780500D01*
X123329940Y-88739618D01*
X123537401Y-88659247D01*
X123726562Y-88542124D01*
X123890981Y-88392236D01*
X124025058Y-88214689D01*
X124124229Y-88015528D01*
X124128649Y-87999993D01*
X124829700Y-87999993D01*
X124829700Y-88000006D01*
X124848864Y-88231297D01*
X124848866Y-88231308D01*
X124905842Y-88456300D01*
X124999075Y-88668848D01*
X125126016Y-88863147D01*
X125126019Y-88863151D01*
X125126021Y-88863153D01*
X125283216Y-89033913D01*
X125283219Y-89033915D01*
X125283222Y-89033918D01*
X125466365Y-89176464D01*
X125466371Y-89176468D01*
X125466374Y-89176470D01*
X125670497Y-89286936D01*
X125784487Y-89326068D01*
X125890015Y-89362297D01*
X125890017Y-89362297D01*
X125890019Y-89362298D01*
X126118951Y-89400500D01*
X126118952Y-89400500D01*
X126351048Y-89400500D01*
X126351049Y-89400500D01*
X126579981Y-89362298D01*
X126799503Y-89286936D01*
X127003626Y-89176470D01*
X127186784Y-89033913D01*
X127195130Y-89024846D01*
X127255010Y-88988854D01*
X127324849Y-88990949D01*
X127382468Y-89030469D01*
X127402544Y-89065491D01*
X127431203Y-89142330D01*
X127431206Y-89142335D01*
X127517452Y-89257544D01*
X127517455Y-89257547D01*
X127632664Y-89343793D01*
X127632671Y-89343797D01*
X127767517Y-89394091D01*
X127767516Y-89394091D01*
X127774444Y-89394835D01*
X127827127Y-89400500D01*
X129722872Y-89400499D01*
X129782483Y-89394091D01*
X129917331Y-89343796D01*
X130032546Y-89257546D01*
X130118796Y-89142331D01*
X130169091Y-89007483D01*
X130175500Y-88947873D01*
X130175499Y-87052128D01*
X130169091Y-86992517D01*
X130167608Y-86988542D01*
X130118797Y-86857671D01*
X130118793Y-86857664D01*
X130032547Y-86742455D01*
X130032544Y-86742452D01*
X129917335Y-86656206D01*
X129917328Y-86656202D01*
X129782482Y-86605908D01*
X129782483Y-86605908D01*
X129722883Y-86599501D01*
X129722881Y-86599500D01*
X129722873Y-86599500D01*
X129722864Y-86599500D01*
X127827129Y-86599500D01*
X127827123Y-86599501D01*
X127767516Y-86605908D01*
X127632671Y-86656202D01*
X127632664Y-86656206D01*
X127517455Y-86742452D01*
X127517452Y-86742455D01*
X127431206Y-86857664D01*
X127431203Y-86857670D01*
X127402544Y-86934508D01*
X127360672Y-86990441D01*
X127295208Y-87014858D01*
X127226935Y-87000006D01*
X127195135Y-86975158D01*
X127186784Y-86966087D01*
X127186778Y-86966082D01*
X127186777Y-86966081D01*
X127003634Y-86823535D01*
X127003628Y-86823531D01*
X126799504Y-86713064D01*
X126799495Y-86713061D01*
X126579984Y-86637702D01*
X126359654Y-86600936D01*
X126351049Y-86599500D01*
X126118951Y-86599500D01*
X126110346Y-86600936D01*
X125890015Y-86637702D01*
X125670504Y-86713061D01*
X125670495Y-86713064D01*
X125466371Y-86823531D01*
X125466365Y-86823535D01*
X125283222Y-86966081D01*
X125283219Y-86966084D01*
X125283216Y-86966086D01*
X125283216Y-86966087D01*
X125244719Y-87007906D01*
X125126016Y-87136852D01*
X124999075Y-87331151D01*
X124905842Y-87543699D01*
X124848866Y-87768691D01*
X124848864Y-87768702D01*
X124829700Y-87999993D01*
X124128649Y-87999993D01*
X124185115Y-87801536D01*
X124205643Y-87580000D01*
X124185115Y-87358464D01*
X124124229Y-87144472D01*
X124124224Y-87144461D01*
X124025061Y-86945316D01*
X124025056Y-86945308D01*
X123890979Y-86767761D01*
X123726562Y-86617876D01*
X123726560Y-86617874D01*
X123537404Y-86500754D01*
X123537398Y-86500752D01*
X123329940Y-86420382D01*
X123111243Y-86379500D01*
X122888757Y-86379500D01*
X122670060Y-86420382D01*
X122541987Y-86469998D01*
X122462601Y-86500752D01*
X122462595Y-86500754D01*
X122273439Y-86617874D01*
X122273437Y-86617876D01*
X122109020Y-86767761D01*
X121974943Y-86945308D01*
X121974938Y-86945316D01*
X121875775Y-87144461D01*
X121875769Y-87144476D01*
X121814885Y-87358462D01*
X121814884Y-87358464D01*
X121794357Y-87579999D01*
X119282504Y-87579999D01*
X119252909Y-82499999D01*
X121794357Y-82499999D01*
X121794357Y-82500000D01*
X121814884Y-82721535D01*
X121814885Y-82721537D01*
X121875769Y-82935523D01*
X121875775Y-82935538D01*
X121974938Y-83134683D01*
X121974943Y-83134691D01*
X122109020Y-83312238D01*
X122273437Y-83462123D01*
X122273439Y-83462125D01*
X122462595Y-83579245D01*
X122462596Y-83579245D01*
X122462599Y-83579247D01*
X122670060Y-83659618D01*
X122888757Y-83700500D01*
X122888759Y-83700500D01*
X123111241Y-83700500D01*
X123111243Y-83700500D01*
X123329940Y-83659618D01*
X123537401Y-83579247D01*
X123726562Y-83462124D01*
X123890981Y-83312236D01*
X124025058Y-83134689D01*
X124124229Y-82935528D01*
X124185115Y-82721536D01*
X124205643Y-82500000D01*
X124185115Y-82278464D01*
X124124229Y-82064472D01*
X124113206Y-82042335D01*
X124025061Y-81865316D01*
X124025056Y-81865308D01*
X123890979Y-81687761D01*
X123726562Y-81537876D01*
X123726560Y-81537874D01*
X123537404Y-81420754D01*
X123537398Y-81420752D01*
X123329940Y-81340382D01*
X123111243Y-81299500D01*
X122888757Y-81299500D01*
X122670060Y-81340382D01*
X122586532Y-81372741D01*
X122462601Y-81420752D01*
X122462595Y-81420754D01*
X122273439Y-81537874D01*
X122273437Y-81537876D01*
X122109020Y-81687761D01*
X121974943Y-81865308D01*
X121974938Y-81865316D01*
X121875775Y-82064461D01*
X121875769Y-82064476D01*
X121814885Y-82278462D01*
X121814884Y-82278464D01*
X121794357Y-82499999D01*
X119252909Y-82499999D01*
X119226414Y-77952135D01*
X124959725Y-77952135D01*
X124959725Y-80047870D01*
X124959726Y-80047876D01*
X124966133Y-80107483D01*
X125016427Y-80242328D01*
X125016431Y-80242335D01*
X125102677Y-80357544D01*
X125102680Y-80357547D01*
X125217889Y-80443793D01*
X125217896Y-80443797D01*
X125352742Y-80494091D01*
X125352741Y-80494091D01*
X125359669Y-80494835D01*
X125412352Y-80500500D01*
X127508097Y-80500499D01*
X127567708Y-80494091D01*
X127702556Y-80443796D01*
X127817771Y-80357546D01*
X127904021Y-80242331D01*
X127954316Y-80107483D01*
X127960725Y-80047873D01*
X127960724Y-77952128D01*
X127954316Y-77892517D01*
X127954216Y-77892250D01*
X127904022Y-77757671D01*
X127904018Y-77757664D01*
X127817772Y-77642455D01*
X127817769Y-77642452D01*
X127702560Y-77556206D01*
X127702553Y-77556202D01*
X127567707Y-77505908D01*
X127567708Y-77505908D01*
X127508108Y-77499501D01*
X127508106Y-77499500D01*
X127508098Y-77499500D01*
X127508089Y-77499500D01*
X125412354Y-77499500D01*
X125412348Y-77499501D01*
X125352741Y-77505908D01*
X125217896Y-77556202D01*
X125217889Y-77556206D01*
X125102680Y-77642452D01*
X125102677Y-77642455D01*
X125016431Y-77757664D01*
X125016427Y-77757671D01*
X124966133Y-77892517D01*
X124960747Y-77942620D01*
X124959726Y-77952123D01*
X124959725Y-77952135D01*
X119226414Y-77952135D01*
X119174953Y-69118799D01*
X125880000Y-69118799D01*
X125880000Y-69750000D01*
X126765879Y-69750000D01*
X126746901Y-69795818D01*
X126720000Y-69931056D01*
X126720000Y-70068944D01*
X126746901Y-70204182D01*
X126765879Y-70250000D01*
X125880000Y-70250000D01*
X125880000Y-70881200D01*
X125917920Y-71120618D01*
X125992827Y-71351159D01*
X126102874Y-71567136D01*
X126245356Y-71763245D01*
X126416754Y-71934643D01*
X126612863Y-72077125D01*
X126828840Y-72187172D01*
X127059381Y-72262080D01*
X127170000Y-72279600D01*
X127170000Y-70654120D01*
X127215818Y-70673099D01*
X127351056Y-70700000D01*
X127488944Y-70700000D01*
X127624182Y-70673099D01*
X127670000Y-70654120D01*
X127670000Y-72279599D01*
X127780618Y-72262080D01*
X128011159Y-72187172D01*
X128227136Y-72077125D01*
X128423245Y-71934643D01*
X128594643Y-71763245D01*
X128737125Y-71567136D01*
X128847172Y-71351159D01*
X128922079Y-71120618D01*
X128960000Y-70881200D01*
X128960000Y-70250000D01*
X128074121Y-70250000D01*
X128093099Y-70204182D01*
X128120000Y-70068944D01*
X128120000Y-69931056D01*
X128093099Y-69795818D01*
X128074121Y-69750000D01*
X128960000Y-69750000D01*
X128960000Y-69118799D01*
X128922079Y-68879381D01*
X128847172Y-68648840D01*
X128737125Y-68432863D01*
X128713235Y-68399982D01*
X130959500Y-68399982D01*
X130959500Y-71600017D01*
X130970000Y-71702796D01*
X130970001Y-71702798D01*
X131025186Y-71869335D01*
X131117288Y-72018656D01*
X131241344Y-72142712D01*
X131390665Y-72234814D01*
X131557202Y-72289999D01*
X131659990Y-72300500D01*
X131748500Y-72300500D01*
X131815539Y-72320185D01*
X131861294Y-72372989D01*
X131872500Y-72424500D01*
X131872500Y-72561807D01*
X131896612Y-72683027D01*
X131896614Y-72683035D01*
X131930062Y-72763784D01*
X131943917Y-72797233D01*
X131994209Y-72872500D01*
X132012589Y-72900008D01*
X132012590Y-72900009D01*
X132012593Y-72900013D01*
X133012589Y-73900008D01*
X133099992Y-73987411D01*
X133099994Y-73987413D01*
X133099996Y-73987414D01*
X133202756Y-74056076D01*
X133202758Y-74056077D01*
X133202767Y-74056083D01*
X133227772Y-74066440D01*
X133250071Y-74075677D01*
X133292254Y-74093149D01*
X133316966Y-74103386D01*
X133438192Y-74127499D01*
X133438196Y-74127500D01*
X133438197Y-74127500D01*
X133561804Y-74127500D01*
X134688719Y-74127500D01*
X134755758Y-74147185D01*
X134776400Y-74163819D01*
X135336181Y-74723600D01*
X135369666Y-74784923D01*
X135372500Y-74811281D01*
X135372500Y-77892250D01*
X135352815Y-77959289D01*
X135300011Y-78005044D01*
X135230853Y-78014988D01*
X135167297Y-77985963D01*
X135157271Y-77976233D01*
X135079972Y-77892265D01*
X135079969Y-77892262D01*
X135025610Y-77849953D01*
X134883734Y-77739526D01*
X134883732Y-77739525D01*
X134883731Y-77739524D01*
X134665036Y-77621172D01*
X134665027Y-77621169D01*
X134429841Y-77540429D01*
X134184560Y-77499500D01*
X133935890Y-77499500D01*
X133690608Y-77540429D01*
X133455422Y-77621169D01*
X133455413Y-77621172D01*
X133236718Y-77739524D01*
X133040482Y-77892261D01*
X132872058Y-78075217D01*
X132736051Y-78283393D01*
X132636161Y-78511118D01*
X132575117Y-78752175D01*
X132575115Y-78752187D01*
X132554582Y-78999994D01*
X132554582Y-79000005D01*
X132575115Y-79247812D01*
X132575117Y-79247824D01*
X132636161Y-79488881D01*
X132736051Y-79716606D01*
X132872058Y-79924782D01*
X132902328Y-79957664D01*
X133040481Y-80107738D01*
X133140851Y-80185859D01*
X133236713Y-80260472D01*
X133236717Y-80260475D01*
X133367742Y-80331381D01*
X133417333Y-80380600D01*
X133432725Y-80440436D01*
X133432725Y-82622032D01*
X133456837Y-82743253D01*
X133456839Y-82743260D01*
X133480107Y-82799432D01*
X133504142Y-82857458D01*
X133534480Y-82902861D01*
X133534480Y-82902862D01*
X133572815Y-82960235D01*
X133572818Y-82960238D01*
X134606181Y-83993600D01*
X134639666Y-84054923D01*
X134642500Y-84081281D01*
X134642500Y-86745560D01*
X134622815Y-86812599D01*
X134570011Y-86858354D01*
X134500853Y-86868298D01*
X134471047Y-86860121D01*
X134299127Y-86788909D01*
X134299119Y-86788907D01*
X134101007Y-86749500D01*
X134101003Y-86749500D01*
X133898997Y-86749500D01*
X133898992Y-86749500D01*
X133700880Y-86788907D01*
X133700868Y-86788910D01*
X133619661Y-86822547D01*
X133550191Y-86830016D01*
X133505140Y-86810405D01*
X133504872Y-86810897D01*
X133499374Y-86807894D01*
X133497895Y-86807251D01*
X133497086Y-86806645D01*
X133362379Y-86756403D01*
X133362372Y-86756401D01*
X133302844Y-86750000D01*
X132980000Y-86750000D01*
X132980000Y-87634134D01*
X132977617Y-87658326D01*
X132974500Y-87673995D01*
X132974500Y-87714170D01*
X132960255Y-87699925D01*
X132874745Y-87650556D01*
X132779370Y-87625000D01*
X132680630Y-87625000D01*
X132585255Y-87650556D01*
X132499745Y-87699925D01*
X132480000Y-87719670D01*
X132480000Y-86750000D01*
X132157155Y-86750000D01*
X132097627Y-86756401D01*
X132097620Y-86756403D01*
X131962913Y-86806645D01*
X131962906Y-86806649D01*
X131847812Y-86892809D01*
X131847809Y-86892812D01*
X131761649Y-87007906D01*
X131761645Y-87007913D01*
X131711403Y-87142620D01*
X131711401Y-87142627D01*
X131705000Y-87202155D01*
X131705000Y-87750000D01*
X132449670Y-87750000D01*
X132429925Y-87769745D01*
X132380556Y-87855255D01*
X132355000Y-87950630D01*
X132355000Y-88049370D01*
X132380556Y-88144745D01*
X132429925Y-88230255D01*
X132449670Y-88250000D01*
X131705000Y-88250000D01*
X131705000Y-88797844D01*
X131711401Y-88857372D01*
X131711403Y-88857379D01*
X131761645Y-88992086D01*
X131761649Y-88992093D01*
X131847809Y-89107187D01*
X131847812Y-89107190D01*
X131962906Y-89193350D01*
X131962913Y-89193354D01*
X132097620Y-89243596D01*
X132097627Y-89243598D01*
X132157155Y-89249999D01*
X132157172Y-89250000D01*
X132480000Y-89250000D01*
X132480000Y-88280330D01*
X132499745Y-88300075D01*
X132585255Y-88349444D01*
X132680630Y-88375000D01*
X132779370Y-88375000D01*
X132874745Y-88349444D01*
X132960255Y-88300075D01*
X132974500Y-88285830D01*
X132974500Y-88326002D01*
X132977617Y-88341671D01*
X132980000Y-88365865D01*
X132980000Y-89250000D01*
X133302828Y-89250000D01*
X133302844Y-89249999D01*
X133362372Y-89243598D01*
X133362376Y-89243597D01*
X133497089Y-89193352D01*
X133497896Y-89192748D01*
X133498845Y-89192393D01*
X133504876Y-89189101D01*
X133505349Y-89189967D01*
X133563360Y-89168329D01*
X133619661Y-89177451D01*
X133700873Y-89211091D01*
X133864288Y-89243596D01*
X133898992Y-89250499D01*
X133898996Y-89250500D01*
X133898997Y-89250500D01*
X134101004Y-89250500D01*
X134101005Y-89250499D01*
X134299127Y-89211091D01*
X134485756Y-89133786D01*
X134566110Y-89080094D01*
X134632786Y-89059217D01*
X134700166Y-89077701D01*
X134703865Y-89080078D01*
X134784244Y-89133786D01*
X134970873Y-89211091D01*
X135134288Y-89243596D01*
X135168992Y-89250499D01*
X135168996Y-89250500D01*
X135168997Y-89250500D01*
X135371004Y-89250500D01*
X135371005Y-89250499D01*
X135569127Y-89211091D01*
X135755756Y-89133786D01*
X135923718Y-89021558D01*
X136066558Y-88878718D01*
X136178786Y-88710756D01*
X136256091Y-88524127D01*
X136295500Y-88326003D01*
X136295500Y-87673997D01*
X136256091Y-87475873D01*
X136178786Y-87289244D01*
X136178784Y-87289241D01*
X136178782Y-87289237D01*
X136066558Y-87121281D01*
X135933819Y-86988542D01*
X135900334Y-86927219D01*
X135897500Y-86900861D01*
X135897500Y-83708194D01*
X135873386Y-83586970D01*
X135873385Y-83586969D01*
X135873385Y-83586965D01*
X135870187Y-83579245D01*
X135826086Y-83472773D01*
X135826079Y-83472760D01*
X135757412Y-83369993D01*
X135757411Y-83369992D01*
X135670008Y-83282589D01*
X134724044Y-82336625D01*
X134690559Y-82275302D01*
X134687725Y-82248944D01*
X134687725Y-80440436D01*
X134707410Y-80373397D01*
X134752708Y-80331381D01*
X134777967Y-80317712D01*
X134883734Y-80260474D01*
X135079969Y-80107738D01*
X135162788Y-80017772D01*
X135222674Y-79981782D01*
X135292512Y-79983882D01*
X135350128Y-80023405D01*
X135375634Y-80077564D01*
X135396612Y-80183028D01*
X135396613Y-80183032D01*
X135396614Y-80183035D01*
X135398615Y-80187865D01*
X135421176Y-80242331D01*
X135421175Y-80242331D01*
X135421176Y-80242332D01*
X135443913Y-80297226D01*
X135443920Y-80297239D01*
X135512588Y-80400007D01*
X135512591Y-80400011D01*
X136902589Y-81790008D01*
X136949069Y-81836488D01*
X136989993Y-81877412D01*
X137092760Y-81946079D01*
X137092773Y-81946086D01*
X137136106Y-81964035D01*
X137136107Y-81964035D01*
X137206966Y-81993386D01*
X137328192Y-82017499D01*
X137328196Y-82017500D01*
X137328197Y-82017500D01*
X137447438Y-82017500D01*
X137514477Y-82037185D01*
X137549011Y-82070376D01*
X137555068Y-82079025D01*
X137660179Y-82229141D01*
X137821083Y-82390045D01*
X137821086Y-82390047D01*
X138007491Y-82520568D01*
X138065500Y-82547618D01*
X138117939Y-82593791D01*
X138137091Y-82660984D01*
X138116875Y-82727865D01*
X138065500Y-82772382D01*
X138007492Y-82799431D01*
X138007490Y-82799432D01*
X137821083Y-82929954D01*
X137660179Y-83090858D01*
X137529657Y-83277265D01*
X137529656Y-83277267D01*
X137433486Y-83483502D01*
X137433483Y-83483511D01*
X137374591Y-83703302D01*
X137374589Y-83703313D01*
X137354757Y-83929998D01*
X137354757Y-83930001D01*
X137374589Y-84156686D01*
X137374591Y-84156697D01*
X137433483Y-84376488D01*
X137433486Y-84376497D01*
X137529656Y-84582732D01*
X137529657Y-84582734D01*
X137660179Y-84769141D01*
X137821083Y-84930045D01*
X137821086Y-84930047D01*
X138007491Y-85060568D01*
X138065500Y-85087618D01*
X138117939Y-85133791D01*
X138137091Y-85200984D01*
X138116875Y-85267865D01*
X138065500Y-85312382D01*
X138007492Y-85339431D01*
X138007490Y-85339432D01*
X137821083Y-85469954D01*
X137660179Y-85630858D01*
X137529657Y-85817265D01*
X137529656Y-85817267D01*
X137433486Y-86023502D01*
X137433483Y-86023511D01*
X137374591Y-86243302D01*
X137374589Y-86243313D01*
X137354757Y-86469998D01*
X137354757Y-86470001D01*
X137374589Y-86696686D01*
X137374591Y-86696697D01*
X137433483Y-86916488D01*
X137433486Y-86916497D01*
X137529656Y-87122732D01*
X137529657Y-87122734D01*
X137660179Y-87309141D01*
X137821083Y-87470045D01*
X137821086Y-87470047D01*
X138007491Y-87600568D01*
X138213729Y-87696739D01*
X138433533Y-87755635D01*
X138594811Y-87769745D01*
X138660223Y-87775468D01*
X138660225Y-87775468D01*
X138660227Y-87775468D01*
X138725639Y-87769745D01*
X138886917Y-87755635D01*
X139106721Y-87696739D01*
X139312959Y-87600568D01*
X139499364Y-87470047D01*
X139660272Y-87309139D01*
X139790793Y-87122734D01*
X139886964Y-86916496D01*
X139945860Y-86696692D01*
X139965693Y-86470000D01*
X139945860Y-86243308D01*
X139886964Y-86023504D01*
X139790793Y-85817266D01*
X139660272Y-85630861D01*
X139660270Y-85630858D01*
X139499366Y-85469954D01*
X139312959Y-85339432D01*
X139312953Y-85339429D01*
X139254950Y-85312382D01*
X139202510Y-85266210D01*
X139183358Y-85199017D01*
X139203573Y-85132135D01*
X139254950Y-85087618D01*
X139312959Y-85060568D01*
X139499364Y-84930047D01*
X139660272Y-84769139D01*
X139790793Y-84582734D01*
X139886964Y-84376496D01*
X139945860Y-84156692D01*
X139965693Y-83930000D01*
X139945860Y-83703308D01*
X139886964Y-83483504D01*
X139790793Y-83277266D01*
X139660272Y-83090861D01*
X139660270Y-83090858D01*
X139499366Y-82929954D01*
X139312959Y-82799432D01*
X139312953Y-82799429D01*
X139254950Y-82772382D01*
X139202510Y-82726210D01*
X139183358Y-82659017D01*
X139203573Y-82592135D01*
X139254950Y-82547618D01*
X139312959Y-82520568D01*
X139499364Y-82390047D01*
X139660272Y-82229139D01*
X139790793Y-82042734D01*
X139886964Y-81836496D01*
X139945860Y-81616692D01*
X139965693Y-81390000D01*
X139945860Y-81163308D01*
X139886964Y-80943504D01*
X139790793Y-80737266D01*
X139662247Y-80553682D01*
X139660270Y-80550858D01*
X139499368Y-80389956D01*
X139474137Y-80372289D01*
X139430512Y-80317712D01*
X139423320Y-80248213D01*
X139454842Y-80185859D01*
X139515072Y-80150445D01*
X139532006Y-80147424D01*
X139567605Y-80143596D01*
X139702311Y-80093354D01*
X139702318Y-80093350D01*
X139817412Y-80007190D01*
X139817415Y-80007187D01*
X139903575Y-79892093D01*
X139903579Y-79892086D01*
X139953821Y-79757379D01*
X139953823Y-79757372D01*
X139960224Y-79697844D01*
X139960225Y-79697827D01*
X139960225Y-79100000D01*
X138975911Y-79100000D01*
X138980305Y-79095606D01*
X139032966Y-79004394D01*
X139060225Y-78902661D01*
X139060225Y-78849998D01*
X144974757Y-78849998D01*
X144974757Y-78850001D01*
X144994589Y-79076686D01*
X144994591Y-79076697D01*
X145053483Y-79296488D01*
X145053486Y-79296497D01*
X145149656Y-79502732D01*
X145149657Y-79502734D01*
X145280179Y-79689141D01*
X145441083Y-79850045D01*
X145441086Y-79850047D01*
X145627491Y-79980568D01*
X145684582Y-80007190D01*
X145685500Y-80007618D01*
X145737939Y-80053791D01*
X145757091Y-80120984D01*
X145736875Y-80187865D01*
X145685500Y-80232382D01*
X145627492Y-80259431D01*
X145627490Y-80259432D01*
X145441083Y-80389954D01*
X145280179Y-80550858D01*
X145149657Y-80737265D01*
X145149656Y-80737267D01*
X145053486Y-80943502D01*
X145053483Y-80943511D01*
X144994591Y-81163302D01*
X144994589Y-81163313D01*
X144974757Y-81389998D01*
X144974757Y-81390001D01*
X144994589Y-81616686D01*
X144994591Y-81616697D01*
X145053483Y-81836488D01*
X145053486Y-81836497D01*
X145149656Y-82042732D01*
X145149657Y-82042734D01*
X145280179Y-82229141D01*
X145441083Y-82390045D01*
X145441086Y-82390047D01*
X145627491Y-82520568D01*
X145685500Y-82547618D01*
X145737939Y-82593791D01*
X145757091Y-82660984D01*
X145736875Y-82727865D01*
X145685500Y-82772382D01*
X145627492Y-82799431D01*
X145627490Y-82799432D01*
X145441083Y-82929954D01*
X145280179Y-83090858D01*
X145149657Y-83277265D01*
X145149656Y-83277267D01*
X145053486Y-83483502D01*
X145053483Y-83483511D01*
X144994591Y-83703302D01*
X144994589Y-83703313D01*
X144974757Y-83929998D01*
X144974757Y-83930001D01*
X144994589Y-84156686D01*
X144994591Y-84156697D01*
X145053483Y-84376488D01*
X145053486Y-84376497D01*
X145149656Y-84582732D01*
X145149657Y-84582734D01*
X145280179Y-84769141D01*
X145441083Y-84930045D01*
X145441086Y-84930047D01*
X145627491Y-85060568D01*
X145685500Y-85087618D01*
X145737939Y-85133791D01*
X145757091Y-85200984D01*
X145736875Y-85267865D01*
X145685500Y-85312382D01*
X145627492Y-85339431D01*
X145627490Y-85339432D01*
X145441083Y-85469954D01*
X145280179Y-85630858D01*
X145149657Y-85817265D01*
X145149656Y-85817267D01*
X145053486Y-86023502D01*
X145053483Y-86023511D01*
X144994591Y-86243302D01*
X144994589Y-86243313D01*
X144974757Y-86469998D01*
X144974757Y-86470001D01*
X144994589Y-86696686D01*
X144994591Y-86696697D01*
X145053483Y-86916488D01*
X145053486Y-86916497D01*
X145149656Y-87122732D01*
X145149657Y-87122734D01*
X145280179Y-87309141D01*
X145441083Y-87470045D01*
X145441086Y-87470047D01*
X145627491Y-87600568D01*
X145833729Y-87696739D01*
X146053533Y-87755635D01*
X146214811Y-87769745D01*
X146280223Y-87775468D01*
X146280225Y-87775468D01*
X146280227Y-87775468D01*
X146345639Y-87769745D01*
X146506917Y-87755635D01*
X146726721Y-87696739D01*
X146932959Y-87600568D01*
X147119364Y-87470047D01*
X147280272Y-87309139D01*
X147410793Y-87122734D01*
X147506964Y-86916496D01*
X147565860Y-86696692D01*
X147585693Y-86470000D01*
X147575381Y-86352135D01*
X148399500Y-86352135D01*
X148399500Y-87647870D01*
X148399501Y-87647876D01*
X148405908Y-87707483D01*
X148456202Y-87842328D01*
X148456206Y-87842335D01*
X148542452Y-87957544D01*
X148542455Y-87957547D01*
X148657664Y-88043793D01*
X148657671Y-88043797D01*
X148792517Y-88094091D01*
X148792516Y-88094091D01*
X148799444Y-88094835D01*
X148852127Y-88100500D01*
X150147872Y-88100499D01*
X150207483Y-88094091D01*
X150342329Y-88043797D01*
X150342329Y-88043796D01*
X150342331Y-88043796D01*
X150391993Y-88006618D01*
X150457454Y-87982201D01*
X150511097Y-87990258D01*
X150697678Y-88062539D01*
X150898072Y-88100000D01*
X151101928Y-88100000D01*
X151302322Y-88062539D01*
X151492412Y-87988899D01*
X151492416Y-87988897D01*
X151580686Y-87934241D01*
X151580686Y-87934240D01*
X150941300Y-87294854D01*
X150960504Y-87300000D01*
X151039496Y-87300000D01*
X151115796Y-87279556D01*
X151184205Y-87240060D01*
X151240060Y-87184205D01*
X151279556Y-87115796D01*
X151300000Y-87039496D01*
X151300000Y-87000000D01*
X151353553Y-87000000D01*
X151937465Y-87583912D01*
X151939247Y-87581553D01*
X151939248Y-87581551D01*
X152030113Y-87399069D01*
X152030116Y-87399063D01*
X152085902Y-87202992D01*
X152085903Y-87202989D01*
X152104713Y-87000000D01*
X152104713Y-86999999D01*
X152085903Y-86797010D01*
X152085902Y-86797007D01*
X152030116Y-86600936D01*
X152030113Y-86600930D01*
X151939249Y-86418449D01*
X151939247Y-86418447D01*
X151937465Y-86416087D01*
X151353553Y-87000000D01*
X151300000Y-87000000D01*
X151300000Y-86960504D01*
X151279556Y-86884204D01*
X151240060Y-86815795D01*
X151184205Y-86759940D01*
X151115796Y-86720444D01*
X151039496Y-86700000D01*
X150960504Y-86700000D01*
X150941301Y-86705145D01*
X151000000Y-86646447D01*
X151580687Y-86065758D01*
X151492413Y-86011101D01*
X151492411Y-86011100D01*
X151302321Y-85937460D01*
X151101928Y-85900000D01*
X150898072Y-85900000D01*
X150697677Y-85937460D01*
X150511098Y-86009741D01*
X150441474Y-86015603D01*
X150391993Y-85993381D01*
X150342331Y-85956204D01*
X150342329Y-85956203D01*
X150342328Y-85956202D01*
X150207482Y-85905908D01*
X150207483Y-85905908D01*
X150147883Y-85899501D01*
X150147881Y-85899500D01*
X150147873Y-85899500D01*
X150147864Y-85899500D01*
X148852129Y-85899500D01*
X148852123Y-85899501D01*
X148792516Y-85905908D01*
X148657671Y-85956202D01*
X148657664Y-85956206D01*
X148542455Y-86042452D01*
X148542452Y-86042455D01*
X148456206Y-86157664D01*
X148456202Y-86157671D01*
X148405908Y-86292517D01*
X148399501Y-86352116D01*
X148399500Y-86352135D01*
X147575381Y-86352135D01*
X147565860Y-86243308D01*
X147506964Y-86023504D01*
X147410793Y-85817266D01*
X147280272Y-85630861D01*
X147280270Y-85630858D01*
X147119366Y-85469954D01*
X146932959Y-85339432D01*
X146932953Y-85339429D01*
X146874950Y-85312382D01*
X146822510Y-85266210D01*
X146803358Y-85199017D01*
X146823573Y-85132135D01*
X146874950Y-85087618D01*
X146932959Y-85060568D01*
X147119364Y-84930047D01*
X147280272Y-84769139D01*
X147410793Y-84582734D01*
X147506964Y-84376496D01*
X147565860Y-84156692D01*
X147585693Y-83930000D01*
X147565860Y-83703308D01*
X147506964Y-83483504D01*
X147410793Y-83277266D01*
X147280272Y-83090861D01*
X147280270Y-83090858D01*
X147119366Y-82929954D01*
X146932959Y-82799432D01*
X146932953Y-82799429D01*
X146874950Y-82772382D01*
X146822510Y-82726210D01*
X146803358Y-82659017D01*
X146823573Y-82592135D01*
X146874950Y-82547618D01*
X146932959Y-82520568D01*
X147119364Y-82390047D01*
X147280272Y-82229139D01*
X147410793Y-82042734D01*
X147477677Y-81899299D01*
X147523848Y-81846862D01*
X147591041Y-81827710D01*
X147657923Y-81847925D01*
X147703257Y-81901091D01*
X147706240Y-81908373D01*
X147756202Y-82042328D01*
X147756206Y-82042335D01*
X147842452Y-82157544D01*
X147842455Y-82157547D01*
X147957664Y-82243793D01*
X147957671Y-82243797D01*
X148092517Y-82294091D01*
X148092516Y-82294091D01*
X148099444Y-82294835D01*
X148152127Y-82300500D01*
X149847872Y-82300499D01*
X149907483Y-82294091D01*
X150042331Y-82243796D01*
X150157546Y-82157546D01*
X150243796Y-82042331D01*
X150294091Y-81907483D01*
X150300500Y-81847873D01*
X150300499Y-81847845D01*
X150300678Y-81844547D01*
X150302183Y-81844627D01*
X150320112Y-81783326D01*
X150372868Y-81737514D01*
X150416465Y-81729981D01*
X151100000Y-81046446D01*
X151100000Y-81052661D01*
X151127259Y-81154394D01*
X151179920Y-81245606D01*
X151254394Y-81320080D01*
X151345606Y-81372741D01*
X151447339Y-81400000D01*
X151453553Y-81400000D01*
X150774526Y-82079025D01*
X150847513Y-82130132D01*
X150847521Y-82130136D01*
X151053668Y-82226264D01*
X151053682Y-82226269D01*
X151273389Y-82285139D01*
X151273400Y-82285141D01*
X151499998Y-82304966D01*
X151500002Y-82304966D01*
X151726599Y-82285141D01*
X151726610Y-82285139D01*
X151946317Y-82226269D01*
X151946331Y-82226264D01*
X152152478Y-82130136D01*
X152225471Y-82079024D01*
X151546447Y-81400000D01*
X151552661Y-81400000D01*
X151654394Y-81372741D01*
X151745606Y-81320080D01*
X151820080Y-81245606D01*
X151872741Y-81154394D01*
X151900000Y-81052661D01*
X151900000Y-81046447D01*
X152579024Y-81725471D01*
X152630136Y-81652478D01*
X152726264Y-81446331D01*
X152726269Y-81446317D01*
X152785139Y-81226610D01*
X152785141Y-81226599D01*
X152804966Y-81000002D01*
X152804966Y-80999997D01*
X152785141Y-80773400D01*
X152785139Y-80773389D01*
X152726269Y-80553682D01*
X152726264Y-80553668D01*
X152630136Y-80347521D01*
X152630132Y-80347513D01*
X152579025Y-80274526D01*
X151900000Y-80953551D01*
X151900000Y-80947339D01*
X151872741Y-80845606D01*
X151820080Y-80754394D01*
X151745606Y-80679920D01*
X151654394Y-80627259D01*
X151552661Y-80600000D01*
X151546448Y-80600000D01*
X152225472Y-79920974D01*
X152152478Y-79869863D01*
X151946331Y-79773735D01*
X151946317Y-79773730D01*
X151726610Y-79714860D01*
X151726599Y-79714858D01*
X151500002Y-79695034D01*
X151499998Y-79695034D01*
X151273400Y-79714858D01*
X151273389Y-79714860D01*
X151053682Y-79773730D01*
X151053673Y-79773734D01*
X150847516Y-79869866D01*
X150847512Y-79869868D01*
X150774526Y-79920973D01*
X150774526Y-79920974D01*
X151453553Y-80600000D01*
X151447339Y-80600000D01*
X151345606Y-80627259D01*
X151254394Y-80679920D01*
X151179920Y-80754394D01*
X151127259Y-80845606D01*
X151100000Y-80947339D01*
X151100000Y-80953552D01*
X150415799Y-80269351D01*
X150366805Y-80259505D01*
X150316622Y-80210889D01*
X150301981Y-80155366D01*
X150300900Y-80155423D01*
X150300854Y-80155429D01*
X150300853Y-80155426D01*
X150300676Y-80155436D01*
X150300499Y-80152135D01*
X150300499Y-80152128D01*
X150294091Y-80092517D01*
X150288206Y-80076739D01*
X150243797Y-79957671D01*
X150243793Y-79957664D01*
X150157547Y-79842455D01*
X150157544Y-79842452D01*
X150042335Y-79756206D01*
X150042328Y-79756202D01*
X149907482Y-79705908D01*
X149907483Y-79705908D01*
X149847883Y-79699501D01*
X149847881Y-79699500D01*
X149847873Y-79699500D01*
X149847864Y-79699500D01*
X148152129Y-79699500D01*
X148152123Y-79699501D01*
X148092516Y-79705908D01*
X147957671Y-79756202D01*
X147957664Y-79756206D01*
X147842455Y-79842452D01*
X147842452Y-79842455D01*
X147756206Y-79957664D01*
X147756202Y-79957671D01*
X147705908Y-80092517D01*
X147699681Y-80150445D01*
X147699501Y-80152123D01*
X147699500Y-80152135D01*
X147699500Y-80797072D01*
X147679815Y-80864111D01*
X147627011Y-80909866D01*
X147557853Y-80919810D01*
X147494297Y-80890785D01*
X147463118Y-80849477D01*
X147438681Y-80797072D01*
X147410793Y-80737266D01*
X147282247Y-80553682D01*
X147280270Y-80550858D01*
X147119366Y-80389954D01*
X146932959Y-80259432D01*
X146932953Y-80259429D01*
X146905263Y-80246517D01*
X146874949Y-80232381D01*
X146822510Y-80186210D01*
X146803358Y-80119017D01*
X146823573Y-80052135D01*
X146874950Y-80007618D01*
X146875868Y-80007190D01*
X146932959Y-79980568D01*
X147119364Y-79850047D01*
X147280272Y-79689139D01*
X147410793Y-79502734D01*
X147506964Y-79296496D01*
X147565860Y-79076692D01*
X147585693Y-78850000D01*
X147565860Y-78623308D01*
X147506964Y-78403504D01*
X147410793Y-78197266D01*
X147280272Y-78010861D01*
X147280270Y-78010858D01*
X147119366Y-77849954D01*
X146932959Y-77719432D01*
X146932957Y-77719431D01*
X146726722Y-77623261D01*
X146726713Y-77623258D01*
X146506922Y-77564366D01*
X146506918Y-77564365D01*
X146506917Y-77564365D01*
X146506916Y-77564364D01*
X146506911Y-77564364D01*
X146280227Y-77544532D01*
X146280223Y-77544532D01*
X146053538Y-77564364D01*
X146053527Y-77564366D01*
X145833736Y-77623258D01*
X145833727Y-77623261D01*
X145627492Y-77719431D01*
X145627490Y-77719432D01*
X145441083Y-77849954D01*
X145280179Y-78010858D01*
X145149657Y-78197265D01*
X145149656Y-78197267D01*
X145053486Y-78403502D01*
X145053483Y-78403511D01*
X144994591Y-78623302D01*
X144994589Y-78623313D01*
X144974757Y-78849998D01*
X139060225Y-78849998D01*
X139060225Y-78797339D01*
X139032966Y-78695606D01*
X138980305Y-78604394D01*
X138975911Y-78600000D01*
X139960225Y-78600000D01*
X139960225Y-78002172D01*
X139960224Y-78002155D01*
X139953823Y-77942627D01*
X139953821Y-77942620D01*
X139903579Y-77807913D01*
X139903575Y-77807906D01*
X139817415Y-77692812D01*
X139817412Y-77692809D01*
X139702318Y-77606649D01*
X139702311Y-77606645D01*
X139567604Y-77556403D01*
X139567597Y-77556401D01*
X139508069Y-77550000D01*
X138910225Y-77550000D01*
X138910225Y-78534314D01*
X138905831Y-78529920D01*
X138814619Y-78477259D01*
X138712886Y-78450000D01*
X138607564Y-78450000D01*
X138505831Y-78477259D01*
X138414619Y-78529920D01*
X138410225Y-78534314D01*
X138410225Y-77550000D01*
X137812380Y-77550000D01*
X137752852Y-77556401D01*
X137752845Y-77556403D01*
X137618138Y-77606645D01*
X137618131Y-77606649D01*
X137503037Y-77692809D01*
X137503034Y-77692812D01*
X137416874Y-77807906D01*
X137416870Y-77807913D01*
X137366628Y-77942620D01*
X137366626Y-77942627D01*
X137360225Y-78002155D01*
X137360225Y-78600000D01*
X138344539Y-78600000D01*
X138340145Y-78604394D01*
X138287484Y-78695606D01*
X138260225Y-78797339D01*
X138260225Y-78902661D01*
X138287484Y-79004394D01*
X138340145Y-79095606D01*
X138344539Y-79100000D01*
X137360225Y-79100000D01*
X137360225Y-79697844D01*
X137366626Y-79757372D01*
X137366628Y-79757379D01*
X137416870Y-79892086D01*
X137416874Y-79892093D01*
X137503034Y-80007187D01*
X137503037Y-80007190D01*
X137618131Y-80093350D01*
X137618138Y-80093354D01*
X137752845Y-80143596D01*
X137752852Y-80143598D01*
X137788443Y-80147425D01*
X137852994Y-80174163D01*
X137892843Y-80231555D01*
X137895336Y-80301380D01*
X137859684Y-80361469D01*
X137846313Y-80372287D01*
X137821089Y-80389949D01*
X137660176Y-80550863D01*
X137660169Y-80550872D01*
X137653547Y-80560328D01*
X137598967Y-80603949D01*
X137529468Y-80611137D01*
X137467116Y-80579609D01*
X137464297Y-80576878D01*
X136663819Y-79776400D01*
X136630334Y-79715077D01*
X136627500Y-79688719D01*
X136627500Y-75499999D01*
X138254357Y-75499999D01*
X138254357Y-75500000D01*
X138274884Y-75721535D01*
X138274885Y-75721537D01*
X138335769Y-75935523D01*
X138335775Y-75935538D01*
X138434938Y-76134683D01*
X138434943Y-76134691D01*
X138569020Y-76312238D01*
X138733437Y-76462123D01*
X138733439Y-76462125D01*
X138922595Y-76579245D01*
X138922596Y-76579245D01*
X138922599Y-76579247D01*
X139130060Y-76659618D01*
X139348757Y-76700500D01*
X139348759Y-76700500D01*
X139571241Y-76700500D01*
X139571243Y-76700500D01*
X139789940Y-76659618D01*
X139997401Y-76579247D01*
X140186562Y-76462124D01*
X140350981Y-76312236D01*
X140485058Y-76134689D01*
X140584229Y-75935528D01*
X140645115Y-75721536D01*
X140665643Y-75500000D01*
X140665643Y-75499999D01*
X143334357Y-75499999D01*
X143334357Y-75500000D01*
X143354884Y-75721535D01*
X143354885Y-75721537D01*
X143415769Y-75935523D01*
X143415775Y-75935538D01*
X143514938Y-76134683D01*
X143514943Y-76134691D01*
X143649020Y-76312238D01*
X143813437Y-76462123D01*
X143813439Y-76462125D01*
X144002595Y-76579245D01*
X144002596Y-76579245D01*
X144002599Y-76579247D01*
X144210060Y-76659618D01*
X144428757Y-76700500D01*
X144428759Y-76700500D01*
X144651241Y-76700500D01*
X144651243Y-76700500D01*
X144869940Y-76659618D01*
X145077401Y-76579247D01*
X145266562Y-76462124D01*
X145430981Y-76312236D01*
X145565058Y-76134689D01*
X145664229Y-75935528D01*
X145725115Y-75721536D01*
X145745643Y-75500000D01*
X145745643Y-75499999D01*
X146254357Y-75499999D01*
X146254357Y-75500000D01*
X146274884Y-75721535D01*
X146274885Y-75721537D01*
X146335769Y-75935523D01*
X146335775Y-75935538D01*
X146434938Y-76134683D01*
X146434943Y-76134691D01*
X146569020Y-76312238D01*
X146733437Y-76462123D01*
X146733439Y-76462125D01*
X146922595Y-76579245D01*
X146922596Y-76579245D01*
X146922599Y-76579247D01*
X147130060Y-76659618D01*
X147348757Y-76700500D01*
X147348759Y-76700500D01*
X147571241Y-76700500D01*
X147571243Y-76700500D01*
X147789940Y-76659618D01*
X147997401Y-76579247D01*
X148186562Y-76462124D01*
X148350981Y-76312236D01*
X148485058Y-76134689D01*
X148584229Y-75935528D01*
X148645115Y-75721536D01*
X148665643Y-75500000D01*
X148665643Y-75499999D01*
X151334357Y-75499999D01*
X151334357Y-75500000D01*
X151354884Y-75721535D01*
X151354885Y-75721537D01*
X151415769Y-75935523D01*
X151415775Y-75935538D01*
X151514938Y-76134683D01*
X151514943Y-76134691D01*
X151649020Y-76312238D01*
X151813437Y-76462123D01*
X151813439Y-76462125D01*
X152002595Y-76579245D01*
X152002596Y-76579245D01*
X152002599Y-76579247D01*
X152210060Y-76659618D01*
X152428757Y-76700500D01*
X152428759Y-76700500D01*
X152651241Y-76700500D01*
X152651243Y-76700500D01*
X152869940Y-76659618D01*
X153077401Y-76579247D01*
X153266562Y-76462124D01*
X153430981Y-76312236D01*
X153565058Y-76134689D01*
X153664229Y-75935528D01*
X153725115Y-75721536D01*
X153745643Y-75500000D01*
X153725115Y-75278464D01*
X153664229Y-75064472D01*
X153664224Y-75064461D01*
X153565061Y-74865316D01*
X153565056Y-74865308D01*
X153430979Y-74687761D01*
X153266562Y-74537876D01*
X153266560Y-74537874D01*
X153077404Y-74420754D01*
X153077398Y-74420752D01*
X152869940Y-74340382D01*
X152651243Y-74299500D01*
X152428757Y-74299500D01*
X152210060Y-74340382D01*
X152078864Y-74391207D01*
X152002601Y-74420752D01*
X152002595Y-74420754D01*
X151813439Y-74537874D01*
X151813437Y-74537876D01*
X151649020Y-74687761D01*
X151514943Y-74865308D01*
X151514938Y-74865316D01*
X151415775Y-75064461D01*
X151415769Y-75064476D01*
X151354885Y-75278462D01*
X151354884Y-75278464D01*
X151334357Y-75499999D01*
X148665643Y-75499999D01*
X148645115Y-75278464D01*
X148584229Y-75064472D01*
X148584224Y-75064461D01*
X148485061Y-74865316D01*
X148485056Y-74865308D01*
X148350979Y-74687761D01*
X148186562Y-74537876D01*
X148186560Y-74537874D01*
X147997404Y-74420754D01*
X147997398Y-74420752D01*
X147789940Y-74340382D01*
X147571243Y-74299500D01*
X147348757Y-74299500D01*
X147130060Y-74340382D01*
X146998864Y-74391207D01*
X146922601Y-74420752D01*
X146922595Y-74420754D01*
X146733439Y-74537874D01*
X146733437Y-74537876D01*
X146569020Y-74687761D01*
X146434943Y-74865308D01*
X146434938Y-74865316D01*
X146335775Y-75064461D01*
X146335769Y-75064476D01*
X146274885Y-75278462D01*
X146274884Y-75278464D01*
X146254357Y-75499999D01*
X145745643Y-75499999D01*
X145725115Y-75278464D01*
X145664229Y-75064472D01*
X145664224Y-75064461D01*
X145565061Y-74865316D01*
X145565056Y-74865308D01*
X145430979Y-74687761D01*
X145266562Y-74537876D01*
X145266560Y-74537874D01*
X145077404Y-74420754D01*
X145077398Y-74420752D01*
X144869940Y-74340382D01*
X144651243Y-74299500D01*
X144428757Y-74299500D01*
X144210060Y-74340382D01*
X144078864Y-74391207D01*
X144002601Y-74420752D01*
X144002595Y-74420754D01*
X143813439Y-74537874D01*
X143813437Y-74537876D01*
X143649020Y-74687761D01*
X143514943Y-74865308D01*
X143514938Y-74865316D01*
X143415775Y-75064461D01*
X143415769Y-75064476D01*
X143354885Y-75278462D01*
X143354884Y-75278464D01*
X143334357Y-75499999D01*
X140665643Y-75499999D01*
X140645115Y-75278464D01*
X140584229Y-75064472D01*
X140584224Y-75064461D01*
X140485061Y-74865316D01*
X140485056Y-74865308D01*
X140350979Y-74687761D01*
X140186562Y-74537876D01*
X140186560Y-74537874D01*
X139997404Y-74420754D01*
X139997398Y-74420752D01*
X139789940Y-74340382D01*
X139571243Y-74299500D01*
X139348757Y-74299500D01*
X139130060Y-74340382D01*
X138998864Y-74391207D01*
X138922601Y-74420752D01*
X138922595Y-74420754D01*
X138733439Y-74537874D01*
X138733437Y-74537876D01*
X138569020Y-74687761D01*
X138434943Y-74865308D01*
X138434938Y-74865316D01*
X138335775Y-75064461D01*
X138335769Y-75064476D01*
X138274885Y-75278462D01*
X138274884Y-75278464D01*
X138254357Y-75499999D01*
X136627500Y-75499999D01*
X136627500Y-74438198D01*
X136627500Y-74438197D01*
X136624030Y-74420753D01*
X136603386Y-74316966D01*
X136558407Y-74208379D01*
X136556763Y-74203784D01*
X136487414Y-74099996D01*
X136487413Y-74099994D01*
X136463095Y-74075676D01*
X136400008Y-74012589D01*
X136287427Y-73900008D01*
X135400013Y-73012593D01*
X135400010Y-73012590D01*
X135362325Y-72987410D01*
X135297238Y-72943920D01*
X135297226Y-72943913D01*
X135263785Y-72930062D01*
X135183035Y-72896614D01*
X135183027Y-72896612D01*
X135061807Y-72872500D01*
X135061803Y-72872500D01*
X133811281Y-72872500D01*
X133744242Y-72852815D01*
X133723600Y-72836181D01*
X133385420Y-72498001D01*
X133351935Y-72436678D01*
X133356919Y-72366986D01*
X133398791Y-72311053D01*
X133436903Y-72293733D01*
X133436372Y-72292128D01*
X133442796Y-72289999D01*
X133442798Y-72289999D01*
X133609335Y-72234814D01*
X133758656Y-72142712D01*
X133882712Y-72018656D01*
X133974814Y-71869335D01*
X134029999Y-71702798D01*
X134040500Y-71600010D01*
X134040500Y-69118799D01*
X139920000Y-69118799D01*
X139920000Y-69750000D01*
X140805879Y-69750000D01*
X140786901Y-69795818D01*
X140760000Y-69931056D01*
X140760000Y-70068944D01*
X140786901Y-70204182D01*
X140805879Y-70250000D01*
X139920000Y-70250000D01*
X139920000Y-70881200D01*
X139957920Y-71120618D01*
X140032827Y-71351159D01*
X140142874Y-71567136D01*
X140285356Y-71763245D01*
X140456754Y-71934643D01*
X140652863Y-72077125D01*
X140868840Y-72187172D01*
X141099381Y-72262080D01*
X141210000Y-72279600D01*
X141210000Y-70654120D01*
X141255818Y-70673099D01*
X141391056Y-70700000D01*
X141528944Y-70700000D01*
X141664182Y-70673099D01*
X141710000Y-70654120D01*
X141710000Y-72279599D01*
X141820618Y-72262080D01*
X142051159Y-72187172D01*
X142267136Y-72077125D01*
X142463245Y-71934643D01*
X142634643Y-71763245D01*
X142777125Y-71567136D01*
X142887172Y-71351159D01*
X142962079Y-71120618D01*
X143000000Y-70881200D01*
X143000000Y-70250000D01*
X142114121Y-70250000D01*
X142133099Y-70204182D01*
X142160000Y-70068944D01*
X142160000Y-69931056D01*
X142133099Y-69795818D01*
X142114121Y-69750000D01*
X143000000Y-69750000D01*
X143000000Y-69118799D01*
X142962079Y-68879381D01*
X142887172Y-68648840D01*
X142777125Y-68432863D01*
X142753235Y-68399982D01*
X144999500Y-68399982D01*
X144999500Y-71600017D01*
X145010000Y-71702796D01*
X145010001Y-71702798D01*
X145065186Y-71869335D01*
X145157288Y-72018656D01*
X145281344Y-72142712D01*
X145430665Y-72234814D01*
X145597202Y-72289999D01*
X145699990Y-72300500D01*
X145699995Y-72300500D01*
X147380005Y-72300500D01*
X147380010Y-72300500D01*
X147482798Y-72289999D01*
X147649335Y-72234814D01*
X147798656Y-72142712D01*
X147922712Y-72018656D01*
X148014814Y-71869335D01*
X148069999Y-71702798D01*
X148080500Y-71600010D01*
X148080500Y-68399990D01*
X148069999Y-68297202D01*
X148014814Y-68130665D01*
X147922712Y-67981344D01*
X147798656Y-67857288D01*
X147649335Y-67765186D01*
X147482798Y-67710001D01*
X147482796Y-67710000D01*
X147380017Y-67699500D01*
X147380010Y-67699500D01*
X145699990Y-67699500D01*
X145699982Y-67699500D01*
X145597203Y-67710000D01*
X145597202Y-67710001D01*
X145514669Y-67737349D01*
X145430667Y-67765185D01*
X145430662Y-67765187D01*
X145281342Y-67857289D01*
X145157289Y-67981342D01*
X145065187Y-68130662D01*
X145065186Y-68130665D01*
X145010001Y-68297202D01*
X145010001Y-68297203D01*
X145010000Y-68297203D01*
X144999500Y-68399982D01*
X142753235Y-68399982D01*
X142634643Y-68236754D01*
X142463245Y-68065356D01*
X142267136Y-67922874D01*
X142051157Y-67812827D01*
X141820614Y-67737919D01*
X141710000Y-67720399D01*
X141710000Y-69345879D01*
X141664182Y-69326901D01*
X141528944Y-69300000D01*
X141391056Y-69300000D01*
X141255818Y-69326901D01*
X141210000Y-69345879D01*
X141210000Y-67720399D01*
X141209999Y-67720399D01*
X141099385Y-67737919D01*
X140868842Y-67812827D01*
X140652863Y-67922874D01*
X140456754Y-68065356D01*
X140285356Y-68236754D01*
X140142874Y-68432863D01*
X140032827Y-68648840D01*
X139957920Y-68879381D01*
X139920000Y-69118799D01*
X134040500Y-69118799D01*
X134040500Y-68399990D01*
X134029999Y-68297202D01*
X133974814Y-68130665D01*
X133882712Y-67981344D01*
X133758656Y-67857288D01*
X133609335Y-67765186D01*
X133442798Y-67710001D01*
X133442796Y-67710000D01*
X133340017Y-67699500D01*
X133340010Y-67699500D01*
X131659990Y-67699500D01*
X131659982Y-67699500D01*
X131557203Y-67710000D01*
X131557202Y-67710001D01*
X131474669Y-67737349D01*
X131390667Y-67765185D01*
X131390662Y-67765187D01*
X131241342Y-67857289D01*
X131117289Y-67981342D01*
X131025187Y-68130662D01*
X131025186Y-68130665D01*
X130970001Y-68297202D01*
X130970001Y-68297203D01*
X130970000Y-68297203D01*
X130959500Y-68399982D01*
X128713235Y-68399982D01*
X128594643Y-68236754D01*
X128423245Y-68065356D01*
X128227136Y-67922874D01*
X128011157Y-67812827D01*
X127780614Y-67737919D01*
X127670000Y-67720399D01*
X127670000Y-69345879D01*
X127624182Y-69326901D01*
X127488944Y-69300000D01*
X127351056Y-69300000D01*
X127215818Y-69326901D01*
X127170000Y-69345879D01*
X127170000Y-67720399D01*
X127169999Y-67720399D01*
X127059385Y-67737919D01*
X126828842Y-67812827D01*
X126612863Y-67922874D01*
X126416754Y-68065356D01*
X126245356Y-68236754D01*
X126102874Y-68432863D01*
X125992827Y-68648840D01*
X125917920Y-68879381D01*
X125880000Y-69118799D01*
X119174953Y-69118799D01*
X119121851Y-60003947D01*
X119122074Y-59995795D01*
X119139591Y-59706203D01*
X119141396Y-59691341D01*
X119179072Y-59485751D01*
X119193101Y-59409196D01*
X119196680Y-59394678D01*
X119282020Y-59120814D01*
X119287315Y-59106851D01*
X119405056Y-58845243D01*
X119411989Y-58832032D01*
X119560400Y-58586532D01*
X119568887Y-58574236D01*
X119745797Y-58348428D01*
X119755710Y-58337238D01*
X119958550Y-58134400D01*
X119969742Y-58124485D01*
X120195549Y-57947578D01*
X120207854Y-57939085D01*
X120453324Y-57790695D01*
X120466573Y-57783741D01*
X120728146Y-57666018D01*
X120742139Y-57660711D01*
X121015998Y-57575375D01*
X121030523Y-57571795D01*
X121312662Y-57520093D01*
X121327516Y-57518289D01*
X121568942Y-57503687D01*
X121617912Y-57500726D01*
X121625397Y-57500500D01*
X121687209Y-57500501D01*
X121687213Y-57500500D01*
X152934108Y-57500500D01*
X152996249Y-57500500D01*
X153003736Y-57500726D01*
G37*
%TD.AperFunction*%
%TD*%
M02*
