%TF.GenerationSoftware,KiCad,Pcbnew,8.0.5*%
%TF.CreationDate,2024-12-26T12:48:10+03:00*%
%TF.ProjectId,LDR_Project,4c44525f-5072-46f6-9a65-63742e6b6963,rev?*%
%TF.SameCoordinates,Original*%
%TF.FileFunction,Copper,L1,Top*%
%TF.FilePolarity,Positive*%
%FSLAX46Y46*%
G04 Gerber Fmt 4.6, Leading zero omitted, Abs format (unit mm)*
G04 Created by KiCad (PCBNEW 8.0.5) date 2024-12-26 12:48:10*
%MOMM*%
%LPD*%
G01*
G04 APERTURE LIST*
%TA.AperFunction,ComponentPad*%
%ADD10C,1.500000*%
%TD*%
%TA.AperFunction,ComponentPad*%
%ADD11C,1.400000*%
%TD*%
%TA.AperFunction,ComponentPad*%
%ADD12O,1.400000X1.400000*%
%TD*%
%TA.AperFunction,ComponentPad*%
%ADD13R,1.050000X1.500000*%
%TD*%
%TA.AperFunction,ComponentPad*%
%ADD14O,1.050000X1.500000*%
%TD*%
%TA.AperFunction,ComponentPad*%
%ADD15R,2.200000X2.200000*%
%TD*%
%TA.AperFunction,ComponentPad*%
%ADD16C,2.200000*%
%TD*%
%TA.AperFunction,ComponentPad*%
%ADD17C,5.000000*%
%TD*%
%TA.AperFunction,ComponentPad*%
%ADD18R,1.800000X1.800000*%
%TD*%
%TA.AperFunction,ComponentPad*%
%ADD19C,1.800000*%
%TD*%
%TA.AperFunction,ComponentPad*%
%ADD20C,2.400000*%
%TD*%
%TA.AperFunction,ComponentPad*%
%ADD21R,2.000000X2.000000*%
%TD*%
%TA.AperFunction,ComponentPad*%
%ADD22C,2.000000*%
%TD*%
%TA.AperFunction,ComponentPad*%
%ADD23R,2.800000X2.800000*%
%TD*%
%TA.AperFunction,ComponentPad*%
%ADD24O,2.800000X2.800000*%
%TD*%
%TA.AperFunction,Conductor*%
%ADD25C,0.762000*%
%TD*%
%TA.AperFunction,Conductor*%
%ADD26C,0.300000*%
%TD*%
G04 APERTURE END LIST*
D10*
%TO.P,R3,1*%
%TO.N,Net-(Q1-B)*%
X125300000Y-85000000D03*
%TO.P,R3,2*%
%TO.N,GND*%
X128700000Y-85000000D03*
%TD*%
D11*
%TO.P,R1,1*%
%TO.N,Net-(D1-K)*%
X126000000Y-95040000D03*
D12*
%TO.P,R1,2*%
%TO.N,Net-(Q1-B)*%
X126000000Y-89960000D03*
%TD*%
D13*
%TO.P,Q1,1,C*%
%TO.N,Net-(D1-A)*%
X131535000Y-90325000D03*
D14*
%TO.P,Q1,2,B*%
%TO.N,Net-(Q1-B)*%
X132805000Y-90325000D03*
%TO.P,Q1,3,E*%
%TO.N,GND*%
X134075000Y-90325000D03*
%TD*%
D15*
%TO.P,J2,1,Pin_1*%
%TO.N,GND*%
X119000000Y-91230000D03*
D16*
%TO.P,J2,2,Pin_2*%
%TO.N,Net-(D1-K)*%
X119000000Y-93770000D03*
%TD*%
D17*
%TO.P,H2,1*%
%TO.N,N/C*%
X115500000Y-104000000D03*
%TD*%
D18*
%TO.P,D2,1,K*%
%TO.N,Net-(D1-A)*%
X138725000Y-90000000D03*
D19*
%TO.P,D2,2,A*%
%TO.N,Net-(D2-A)*%
X141265000Y-90000000D03*
%TD*%
D17*
%TO.P,H3,1*%
%TO.N,N/C*%
X147500000Y-65500000D03*
%TD*%
%TO.P,H1,1*%
%TO.N,N/C*%
X115500000Y-65500000D03*
%TD*%
%TO.P,H4,1*%
%TO.N,N/C*%
X147500000Y-104000000D03*
%TD*%
D15*
%TO.P,J1,1,Pin_1*%
%TO.N,Net-(J1-Pin_1)*%
X133000000Y-69000000D03*
D16*
%TO.P,J1,2,Pin_2*%
%TO.N,Net-(J1-Pin_2)*%
X130460000Y-69000000D03*
%TD*%
D20*
%TO.P,K1,11*%
%TO.N,Net-(J1-Pin_2)*%
X124340000Y-79000000D03*
%TO.P,K1,12*%
%TO.N,unconnected-(K1-Pad12)*%
X129380000Y-79000000D03*
%TO.P,K1,14*%
%TO.N,Net-(J1-Pin_1)*%
X119300000Y-79000000D03*
D21*
%TO.P,K1,A1*%
%TO.N,Net-(D1-K)*%
X144500000Y-79000000D03*
D22*
%TO.P,K1,A2*%
%TO.N,Net-(D1-A)*%
X140720000Y-79000000D03*
%TD*%
D23*
%TO.P,D1,1,K*%
%TO.N,Net-(D1-K)*%
X145500000Y-84000000D03*
D24*
%TO.P,D1,2,A*%
%TO.N,Net-(D1-A)*%
X135340000Y-84000000D03*
%TD*%
D11*
%TO.P,R2,1*%
%TO.N,Net-(D1-K)*%
X144000000Y-95040000D03*
D12*
%TO.P,R2,2*%
%TO.N,Net-(D2-A)*%
X144000000Y-89960000D03*
%TD*%
D25*
%TO.N,Net-(D1-K)*%
X124730000Y-93770000D02*
X126000000Y-95040000D01*
X147500000Y-86000000D02*
X145500000Y-84000000D01*
X144000000Y-95040000D02*
X147500000Y-91540000D01*
X145500000Y-84000000D02*
X145500000Y-80000000D01*
X147500000Y-91540000D02*
X147500000Y-86000000D01*
X119000000Y-93770000D02*
X124730000Y-93770000D01*
X126000000Y-95040000D02*
X144000000Y-95040000D01*
X145500000Y-80000000D02*
X144500000Y-79000000D01*
D26*
%TO.N,Net-(D1-A)*%
X135340000Y-84000000D02*
X135340000Y-86615000D01*
X131535000Y-90325000D02*
X131535000Y-91035000D01*
X138725000Y-90275000D02*
X138725000Y-90000000D01*
X135340000Y-84000000D02*
X140340000Y-79000000D01*
X131535000Y-91035000D02*
X133000000Y-92500000D01*
X133000000Y-92500000D02*
X136500000Y-92500000D01*
X135340000Y-86615000D02*
X138725000Y-90000000D01*
X140340000Y-79000000D02*
X140720000Y-79000000D01*
X136500000Y-92500000D02*
X138725000Y-90275000D01*
%TO.N,Net-(D2-A)*%
X143960000Y-90000000D02*
X144000000Y-89960000D01*
X141265000Y-90000000D02*
X143960000Y-90000000D01*
D25*
%TO.N,Net-(J1-Pin_1)*%
X119300000Y-79000000D02*
X125300000Y-73000000D01*
X133000000Y-71000000D02*
X133000000Y-69000000D01*
X125300000Y-73000000D02*
X131000000Y-73000000D01*
X131000000Y-73000000D02*
X133000000Y-71000000D01*
%TO.N,Net-(J1-Pin_2)*%
X115000000Y-73500000D02*
X119500000Y-69000000D01*
X115000000Y-80500000D02*
X115000000Y-73500000D01*
X119500000Y-69000000D02*
X130460000Y-69000000D01*
X124340000Y-79000000D02*
X121340000Y-82000000D01*
X121340000Y-82000000D02*
X116500000Y-82000000D01*
X116500000Y-82000000D02*
X115000000Y-80500000D01*
D26*
%TO.N,Net-(Q1-B)*%
X125300000Y-89260000D02*
X126000000Y-89960000D01*
X132805000Y-89275000D02*
X132805000Y-90325000D01*
X125300000Y-85000000D02*
X125300000Y-89260000D01*
X128460000Y-87500000D02*
X131030000Y-87500000D01*
X131030000Y-87500000D02*
X132805000Y-89275000D01*
X126000000Y-89960000D02*
X128460000Y-87500000D01*
%TD*%
%TA.AperFunction,Conductor*%
%TO.N,GND*%
G36*
X147389881Y-61035950D02*
G01*
X147391137Y-61036034D01*
X147398573Y-61036034D01*
X147398577Y-61036035D01*
X147461771Y-61036034D01*
X147467180Y-61036152D01*
X147851241Y-61052917D01*
X147861975Y-61053857D01*
X148240446Y-61103682D01*
X148251065Y-61105554D01*
X148623762Y-61188176D01*
X148634176Y-61190967D01*
X148998246Y-61305756D01*
X149008381Y-61309445D01*
X149361045Y-61455522D01*
X149370840Y-61460090D01*
X149709416Y-61636340D01*
X149718784Y-61641748D01*
X150040719Y-61846842D01*
X150049580Y-61853047D01*
X150352404Y-62085412D01*
X150360685Y-62092361D01*
X150642110Y-62350240D01*
X150649759Y-62357889D01*
X150907638Y-62639314D01*
X150914588Y-62647597D01*
X151030772Y-62799010D01*
X151146952Y-62950419D01*
X151153157Y-62959280D01*
X151358251Y-63281215D01*
X151363659Y-63290583D01*
X151539907Y-63629154D01*
X151544479Y-63638959D01*
X151690548Y-63991603D01*
X151694247Y-64001766D01*
X151797825Y-64330278D01*
X151809027Y-64365805D01*
X151811827Y-64376254D01*
X151894442Y-64748917D01*
X151896320Y-64759570D01*
X151946140Y-65138002D01*
X151947083Y-65148779D01*
X151963847Y-65532827D01*
X151963965Y-65538235D01*
X151963965Y-65611410D01*
X151963966Y-65611423D01*
X151963966Y-103890966D01*
X151963965Y-103890984D01*
X151963965Y-103961764D01*
X151963847Y-103967172D01*
X151947083Y-104351220D01*
X151946140Y-104361997D01*
X151896320Y-104740429D01*
X151894442Y-104751082D01*
X151811827Y-105123745D01*
X151809027Y-105134194D01*
X151694248Y-105498231D01*
X151690548Y-105508396D01*
X151544479Y-105861040D01*
X151539907Y-105870845D01*
X151363659Y-106209416D01*
X151358251Y-106218784D01*
X151153157Y-106540719D01*
X151146952Y-106549580D01*
X150914592Y-106852398D01*
X150907638Y-106860685D01*
X150649759Y-107142110D01*
X150642110Y-107149759D01*
X150360685Y-107407638D01*
X150352398Y-107414592D01*
X150049580Y-107646952D01*
X150040719Y-107653157D01*
X149718784Y-107858251D01*
X149709416Y-107863659D01*
X149370845Y-108039907D01*
X149361040Y-108044479D01*
X149008396Y-108190548D01*
X148998231Y-108194248D01*
X148634194Y-108309027D01*
X148623745Y-108311827D01*
X148251082Y-108394442D01*
X148240429Y-108396320D01*
X147861997Y-108446140D01*
X147851220Y-108447083D01*
X147467180Y-108463847D01*
X147461772Y-108463965D01*
X147391240Y-108463965D01*
X147389976Y-108464048D01*
X115502776Y-108499497D01*
X115497229Y-108499379D01*
X115113249Y-108482614D01*
X115102473Y-108481671D01*
X114724042Y-108431849D01*
X114713389Y-108429971D01*
X114340727Y-108347354D01*
X114330278Y-108344554D01*
X113966244Y-108229775D01*
X113956078Y-108226075D01*
X113603427Y-108080002D01*
X113593623Y-108075430D01*
X113255057Y-107899183D01*
X113245689Y-107893775D01*
X112923755Y-107688681D01*
X112914894Y-107682476D01*
X112612069Y-107450110D01*
X112603782Y-107443156D01*
X112322364Y-107185284D01*
X112314715Y-107177635D01*
X112056843Y-106896217D01*
X112049889Y-106887930D01*
X111817523Y-106585105D01*
X111811318Y-106576244D01*
X111606224Y-106254310D01*
X111600816Y-106244942D01*
X111570228Y-106186183D01*
X111424566Y-105906369D01*
X111419997Y-105896572D01*
X111407352Y-105866044D01*
X111273920Y-105543911D01*
X111270224Y-105533755D01*
X111155442Y-105169710D01*
X111152648Y-105159284D01*
X111070025Y-104786597D01*
X111068152Y-104775971D01*
X111018326Y-104397506D01*
X111017386Y-104386771D01*
X111000618Y-104002702D01*
X111000559Y-103999996D01*
X112494415Y-103999996D01*
X112494415Y-104000003D01*
X112514738Y-104348927D01*
X112514739Y-104348938D01*
X112575428Y-104693127D01*
X112575430Y-104693134D01*
X112675674Y-105027972D01*
X112814107Y-105348895D01*
X112814113Y-105348908D01*
X112988870Y-105651597D01*
X113197584Y-105931949D01*
X113197589Y-105931955D01*
X113229383Y-105965654D01*
X113437442Y-106186183D01*
X113518633Y-106254310D01*
X113705186Y-106410847D01*
X113705194Y-106410853D01*
X113997203Y-106602911D01*
X113997207Y-106602913D01*
X114309549Y-106759777D01*
X114637989Y-106879319D01*
X114978086Y-106959923D01*
X115325241Y-107000500D01*
X115325248Y-107000500D01*
X115674752Y-107000500D01*
X115674759Y-107000500D01*
X116021914Y-106959923D01*
X116362011Y-106879319D01*
X116690451Y-106759777D01*
X117002793Y-106602913D01*
X117294811Y-106410849D01*
X117562558Y-106186183D01*
X117802412Y-105931953D01*
X118011130Y-105651596D01*
X118185889Y-105348904D01*
X118324326Y-105027971D01*
X118424569Y-104693136D01*
X118426718Y-104680953D01*
X118485260Y-104348938D01*
X118485259Y-104348938D01*
X118485262Y-104348927D01*
X118505585Y-104000000D01*
X118505585Y-103999996D01*
X144494415Y-103999996D01*
X144494415Y-104000003D01*
X144514738Y-104348927D01*
X144514739Y-104348938D01*
X144575428Y-104693127D01*
X144575430Y-104693134D01*
X144675674Y-105027972D01*
X144814107Y-105348895D01*
X144814113Y-105348908D01*
X144988870Y-105651597D01*
X145197584Y-105931949D01*
X145197589Y-105931955D01*
X145229383Y-105965654D01*
X145437442Y-106186183D01*
X145518633Y-106254310D01*
X145705186Y-106410847D01*
X145705194Y-106410853D01*
X145997203Y-106602911D01*
X145997207Y-106602913D01*
X146309549Y-106759777D01*
X146637989Y-106879319D01*
X146978086Y-106959923D01*
X147325241Y-107000500D01*
X147325248Y-107000500D01*
X147674752Y-107000500D01*
X147674759Y-107000500D01*
X148021914Y-106959923D01*
X148362011Y-106879319D01*
X148690451Y-106759777D01*
X149002793Y-106602913D01*
X149294811Y-106410849D01*
X149562558Y-106186183D01*
X149802412Y-105931953D01*
X150011130Y-105651596D01*
X150185889Y-105348904D01*
X150324326Y-105027971D01*
X150424569Y-104693136D01*
X150426718Y-104680953D01*
X150485260Y-104348938D01*
X150485259Y-104348938D01*
X150485262Y-104348927D01*
X150505585Y-104000000D01*
X150505427Y-103997293D01*
X150499234Y-103890966D01*
X150485262Y-103651073D01*
X150485260Y-103651061D01*
X150424571Y-103306872D01*
X150424569Y-103306865D01*
X150324325Y-102972027D01*
X150185892Y-102651104D01*
X150185889Y-102651096D01*
X150011130Y-102348404D01*
X150011129Y-102348402D01*
X149802415Y-102068050D01*
X149802410Y-102068044D01*
X149686433Y-101945117D01*
X149562558Y-101813817D01*
X149414488Y-101689572D01*
X149294813Y-101589152D01*
X149294805Y-101589146D01*
X149002796Y-101397088D01*
X148690458Y-101240226D01*
X148690452Y-101240223D01*
X148362012Y-101120681D01*
X148362009Y-101120680D01*
X148021915Y-101040077D01*
X147978519Y-101035004D01*
X147674759Y-100999500D01*
X147325241Y-100999500D01*
X147021480Y-101035004D01*
X146978085Y-101040077D01*
X146978083Y-101040077D01*
X146637990Y-101120680D01*
X146637987Y-101120681D01*
X146309547Y-101240223D01*
X146309541Y-101240226D01*
X145997203Y-101397088D01*
X145705194Y-101589146D01*
X145705186Y-101589152D01*
X145437442Y-101813817D01*
X145437440Y-101813819D01*
X145197589Y-102068044D01*
X145197584Y-102068050D01*
X144988870Y-102348402D01*
X144814113Y-102651091D01*
X144814107Y-102651104D01*
X144675674Y-102972027D01*
X144575430Y-103306865D01*
X144575428Y-103306872D01*
X144514739Y-103651061D01*
X144514738Y-103651072D01*
X144494415Y-103999996D01*
X118505585Y-103999996D01*
X118505427Y-103997293D01*
X118499234Y-103890966D01*
X118485262Y-103651073D01*
X118485260Y-103651061D01*
X118424571Y-103306872D01*
X118424569Y-103306865D01*
X118324325Y-102972027D01*
X118185892Y-102651104D01*
X118185889Y-102651096D01*
X118011130Y-102348404D01*
X118011129Y-102348402D01*
X117802415Y-102068050D01*
X117802410Y-102068044D01*
X117686433Y-101945117D01*
X117562558Y-101813817D01*
X117414488Y-101689572D01*
X117294813Y-101589152D01*
X117294805Y-101589146D01*
X117002796Y-101397088D01*
X116690458Y-101240226D01*
X116690452Y-101240223D01*
X116362012Y-101120681D01*
X116362009Y-101120680D01*
X116021915Y-101040077D01*
X115978519Y-101035004D01*
X115674759Y-100999500D01*
X115325241Y-100999500D01*
X115021480Y-101035004D01*
X114978085Y-101040077D01*
X114978083Y-101040077D01*
X114637990Y-101120680D01*
X114637987Y-101120681D01*
X114309547Y-101240223D01*
X114309541Y-101240226D01*
X113997203Y-101397088D01*
X113705194Y-101589146D01*
X113705186Y-101589152D01*
X113437442Y-101813817D01*
X113437440Y-101813819D01*
X113197589Y-102068044D01*
X113197584Y-102068050D01*
X112988870Y-102348402D01*
X112814113Y-102651091D01*
X112814107Y-102651104D01*
X112675674Y-102972027D01*
X112575430Y-103306865D01*
X112575428Y-103306872D01*
X112514739Y-103651061D01*
X112514738Y-103651072D01*
X112494415Y-103999996D01*
X111000559Y-103999996D01*
X111000500Y-103997293D01*
X111000500Y-91151153D01*
X115659500Y-91151153D01*
X115659500Y-91308846D01*
X115690261Y-91463489D01*
X115690264Y-91463501D01*
X115750602Y-91609172D01*
X115750609Y-91609185D01*
X115838210Y-91740288D01*
X115838213Y-91740292D01*
X115949707Y-91851786D01*
X115949711Y-91851789D01*
X116080814Y-91939390D01*
X116080827Y-91939397D01*
X116226498Y-91999735D01*
X116226503Y-91999737D01*
X116381153Y-92030499D01*
X116381156Y-92030500D01*
X116381158Y-92030500D01*
X116538844Y-92030500D01*
X116538845Y-92030499D01*
X116693497Y-91999737D01*
X116839179Y-91939394D01*
X116970289Y-91851789D01*
X117081789Y-91740289D01*
X117156595Y-91628334D01*
X117172779Y-91604114D01*
X117175145Y-91605695D01*
X117215530Y-91564526D01*
X117283657Y-91549019D01*
X117349353Y-91572805D01*
X117391760Y-91628334D01*
X117400000Y-91672782D01*
X117400000Y-92377844D01*
X117406401Y-92437372D01*
X117406403Y-92437379D01*
X117456645Y-92572086D01*
X117456649Y-92572093D01*
X117542809Y-92687187D01*
X117542812Y-92687190D01*
X117619366Y-92744499D01*
X117661237Y-92800433D01*
X117666221Y-92870124D01*
X117650783Y-92908555D01*
X117569531Y-93041145D01*
X117473126Y-93273889D01*
X117432997Y-93441043D01*
X117398206Y-93501635D01*
X117336180Y-93533799D01*
X117266611Y-93527323D01*
X117211587Y-93484263D01*
X117197862Y-93459548D01*
X117169397Y-93390827D01*
X117169390Y-93390814D01*
X117081789Y-93259711D01*
X117081786Y-93259707D01*
X116970292Y-93148213D01*
X116970288Y-93148210D01*
X116839181Y-93060607D01*
X116839172Y-93060602D01*
X116693501Y-93000264D01*
X116693489Y-93000261D01*
X116538845Y-92969500D01*
X116538842Y-92969500D01*
X116381158Y-92969500D01*
X116381155Y-92969500D01*
X116226510Y-93000261D01*
X116226498Y-93000264D01*
X116080827Y-93060602D01*
X116080819Y-93060607D01*
X115949711Y-93148210D01*
X115949707Y-93148213D01*
X115838213Y-93259707D01*
X115838210Y-93259711D01*
X115750609Y-93390814D01*
X115750602Y-93390827D01*
X115690264Y-93536498D01*
X115690261Y-93536510D01*
X115659500Y-93691153D01*
X115659500Y-93848846D01*
X115690261Y-94003489D01*
X115690264Y-94003501D01*
X115750602Y-94149172D01*
X115750609Y-94149185D01*
X115838210Y-94280288D01*
X115838213Y-94280292D01*
X115949707Y-94391786D01*
X115949711Y-94391789D01*
X116080814Y-94479390D01*
X116080827Y-94479397D01*
X116226498Y-94539735D01*
X116226503Y-94539737D01*
X116381153Y-94570499D01*
X116381156Y-94570500D01*
X116381158Y-94570500D01*
X116538844Y-94570500D01*
X116538845Y-94570499D01*
X116693497Y-94539737D01*
X116839179Y-94479394D01*
X116970289Y-94391789D01*
X117081789Y-94280289D01*
X117169394Y-94149179D01*
X117169395Y-94149176D01*
X117169397Y-94149173D01*
X117197862Y-94080451D01*
X117241702Y-94026047D01*
X117307996Y-94003982D01*
X117375696Y-94021261D01*
X117423307Y-94072398D01*
X117432997Y-94098956D01*
X117473126Y-94266110D01*
X117569533Y-94498859D01*
X117701160Y-94713653D01*
X117701161Y-94713656D01*
X117701164Y-94713659D01*
X117864776Y-94905224D01*
X118013066Y-95031875D01*
X118056343Y-95068838D01*
X118056346Y-95068839D01*
X118271140Y-95200466D01*
X118418580Y-95261537D01*
X118503889Y-95296873D01*
X118748852Y-95355683D01*
X119000000Y-95375449D01*
X119251148Y-95355683D01*
X119496111Y-95296873D01*
X119728859Y-95200466D01*
X119943659Y-95068836D01*
X120135224Y-94905224D01*
X120298836Y-94713659D01*
X120300645Y-94710707D01*
X120301625Y-94709819D01*
X120301704Y-94709712D01*
X120301726Y-94709728D01*
X120352459Y-94663833D01*
X120406371Y-94651500D01*
X124313508Y-94651500D01*
X124380547Y-94671185D01*
X124401189Y-94687819D01*
X124766883Y-95053513D01*
X124800368Y-95114836D01*
X124802673Y-95129752D01*
X124814885Y-95261535D01*
X124814885Y-95261537D01*
X124875769Y-95475523D01*
X124875775Y-95475538D01*
X124974938Y-95674683D01*
X124974943Y-95674691D01*
X125109020Y-95852238D01*
X125273437Y-96002123D01*
X125273439Y-96002125D01*
X125462595Y-96119245D01*
X125462596Y-96119245D01*
X125462599Y-96119247D01*
X125670060Y-96199618D01*
X125888757Y-96240500D01*
X125888759Y-96240500D01*
X126111241Y-96240500D01*
X126111243Y-96240500D01*
X126329940Y-96199618D01*
X126537401Y-96119247D01*
X126726562Y-96002124D01*
X126779502Y-95953863D01*
X126842306Y-95923246D01*
X126863040Y-95921500D01*
X143136960Y-95921500D01*
X143203999Y-95941185D01*
X143220498Y-95953863D01*
X143273437Y-96002123D01*
X143273439Y-96002125D01*
X143462595Y-96119245D01*
X143462596Y-96119245D01*
X143462599Y-96119247D01*
X143670060Y-96199618D01*
X143888757Y-96240500D01*
X143888759Y-96240500D01*
X144111241Y-96240500D01*
X144111243Y-96240500D01*
X144329940Y-96199618D01*
X144537401Y-96119247D01*
X144726562Y-96002124D01*
X144890981Y-95852236D01*
X145025058Y-95674689D01*
X145124229Y-95475528D01*
X145185115Y-95261536D01*
X145197326Y-95129751D01*
X145223112Y-95064815D01*
X145233108Y-95053520D01*
X148184705Y-92101924D01*
X148200829Y-92077791D01*
X148232429Y-92030501D01*
X148232429Y-92030500D01*
X148232430Y-92030499D01*
X148281175Y-91957547D01*
X148347624Y-91797124D01*
X148364817Y-91710689D01*
X148381500Y-91626822D01*
X148381500Y-85913177D01*
X148379945Y-85905363D01*
X148379943Y-85905355D01*
X148347624Y-85742876D01*
X148343605Y-85733173D01*
X148281177Y-85582456D01*
X148184704Y-85438073D01*
X147436818Y-84690187D01*
X147403333Y-84628864D01*
X147400499Y-84602506D01*
X147400499Y-82552129D01*
X147400498Y-82552123D01*
X147400497Y-82552116D01*
X147394091Y-82492517D01*
X147343796Y-82357669D01*
X147343795Y-82357668D01*
X147343793Y-82357664D01*
X147257547Y-82242455D01*
X147257544Y-82242452D01*
X147142335Y-82156206D01*
X147142328Y-82156202D01*
X147007482Y-82105908D01*
X147007483Y-82105908D01*
X146947883Y-82099501D01*
X146947881Y-82099500D01*
X146947873Y-82099500D01*
X146947865Y-82099500D01*
X146505500Y-82099500D01*
X146438461Y-82079815D01*
X146392706Y-82027011D01*
X146381500Y-81975500D01*
X146381500Y-79913181D01*
X146381500Y-79913180D01*
X146376219Y-79886632D01*
X146376219Y-79886629D01*
X146347626Y-79742883D01*
X146347625Y-79742876D01*
X146283499Y-79588065D01*
X146281856Y-79583473D01*
X146281175Y-79582453D01*
X146184706Y-79438077D01*
X146061923Y-79315294D01*
X146036818Y-79290189D01*
X146003333Y-79228866D01*
X146000499Y-79202508D01*
X146000499Y-77952129D01*
X146000498Y-77952123D01*
X146000497Y-77952116D01*
X145994091Y-77892517D01*
X145974549Y-77840123D01*
X145943797Y-77757671D01*
X145943793Y-77757664D01*
X145857547Y-77642455D01*
X145857544Y-77642452D01*
X145742335Y-77556206D01*
X145742328Y-77556202D01*
X145607482Y-77505908D01*
X145607483Y-77505908D01*
X145547883Y-77499501D01*
X145547881Y-77499500D01*
X145547873Y-77499500D01*
X145547864Y-77499500D01*
X143452129Y-77499500D01*
X143452123Y-77499501D01*
X143392516Y-77505908D01*
X143257671Y-77556202D01*
X143257664Y-77556206D01*
X143142455Y-77642452D01*
X143142452Y-77642455D01*
X143056206Y-77757664D01*
X143056202Y-77757671D01*
X143005908Y-77892517D01*
X142999501Y-77952116D01*
X142999501Y-77952123D01*
X142999500Y-77952135D01*
X142999500Y-80047870D01*
X142999501Y-80047876D01*
X143005908Y-80107483D01*
X143056202Y-80242328D01*
X143056206Y-80242335D01*
X143142452Y-80357544D01*
X143142455Y-80357547D01*
X143257664Y-80443793D01*
X143257671Y-80443797D01*
X143392517Y-80494091D01*
X143392516Y-80494091D01*
X143399444Y-80494835D01*
X143452127Y-80500500D01*
X144494500Y-80500499D01*
X144561539Y-80520183D01*
X144607294Y-80572987D01*
X144618500Y-80624499D01*
X144618500Y-81975500D01*
X144598815Y-82042539D01*
X144546011Y-82088294D01*
X144494500Y-82099500D01*
X144052129Y-82099500D01*
X144052123Y-82099501D01*
X143992516Y-82105908D01*
X143857671Y-82156202D01*
X143857664Y-82156206D01*
X143742455Y-82242452D01*
X143742452Y-82242455D01*
X143656206Y-82357664D01*
X143656202Y-82357671D01*
X143605908Y-82492517D01*
X143599501Y-82552116D01*
X143599501Y-82552123D01*
X143599500Y-82552135D01*
X143599500Y-85447870D01*
X143599501Y-85447876D01*
X143605908Y-85507483D01*
X143656202Y-85642328D01*
X143656206Y-85642335D01*
X143742452Y-85757544D01*
X143742455Y-85757547D01*
X143857664Y-85843793D01*
X143857671Y-85843797D01*
X143992517Y-85894091D01*
X143992516Y-85894091D01*
X143999444Y-85894835D01*
X144052127Y-85900500D01*
X146102507Y-85900499D01*
X146169546Y-85920184D01*
X146190188Y-85936818D01*
X146582181Y-86328811D01*
X146615666Y-86390134D01*
X146618500Y-86416492D01*
X146618500Y-91123508D01*
X146598815Y-91190547D01*
X146582181Y-91211189D01*
X143990189Y-93803181D01*
X143928866Y-93836666D01*
X143902508Y-93839500D01*
X143888757Y-93839500D01*
X143670060Y-93880382D01*
X143538864Y-93931207D01*
X143462601Y-93960752D01*
X143462595Y-93960754D01*
X143273439Y-94077874D01*
X143273437Y-94077876D01*
X143220498Y-94126137D01*
X143157694Y-94156754D01*
X143136960Y-94158500D01*
X126863040Y-94158500D01*
X126796001Y-94138815D01*
X126779502Y-94126137D01*
X126726562Y-94077876D01*
X126726560Y-94077874D01*
X126537404Y-93960754D01*
X126537398Y-93960752D01*
X126329940Y-93880382D01*
X126111243Y-93839500D01*
X126111241Y-93839500D01*
X126097491Y-93839500D01*
X126030452Y-93819815D01*
X126009810Y-93803181D01*
X125291927Y-93085296D01*
X125291926Y-93085295D01*
X125147543Y-92988822D01*
X124987128Y-92922377D01*
X124987118Y-92922374D01*
X124816823Y-92888500D01*
X124816821Y-92888500D01*
X124816820Y-92888500D01*
X120554210Y-92888500D01*
X120487171Y-92868815D01*
X120441416Y-92816011D01*
X120431472Y-92746853D01*
X120454943Y-92690189D01*
X120543353Y-92572088D01*
X120543354Y-92572086D01*
X120593596Y-92437379D01*
X120593598Y-92437372D01*
X120599999Y-92377844D01*
X120600000Y-92377827D01*
X120600000Y-91480000D01*
X119490748Y-91480000D01*
X119512518Y-91442292D01*
X119550000Y-91302409D01*
X119550000Y-91157591D01*
X119512518Y-91017708D01*
X119490748Y-90980000D01*
X120600000Y-90980000D01*
X120600000Y-90082172D01*
X120599999Y-90082155D01*
X120593598Y-90022627D01*
X120593596Y-90022620D01*
X120543354Y-89887913D01*
X120543350Y-89887906D01*
X120457190Y-89772812D01*
X120457187Y-89772809D01*
X120342093Y-89686649D01*
X120342086Y-89686645D01*
X120207379Y-89636403D01*
X120207372Y-89636401D01*
X120147844Y-89630000D01*
X119250000Y-89630000D01*
X119250000Y-90739252D01*
X119212292Y-90717482D01*
X119072409Y-90680000D01*
X118927591Y-90680000D01*
X118787708Y-90717482D01*
X118750000Y-90739252D01*
X118750000Y-89630000D01*
X117852155Y-89630000D01*
X117792627Y-89636401D01*
X117792620Y-89636403D01*
X117657913Y-89686645D01*
X117657906Y-89686649D01*
X117542812Y-89772809D01*
X117542809Y-89772812D01*
X117456649Y-89887906D01*
X117456645Y-89887913D01*
X117406403Y-90022620D01*
X117406401Y-90022627D01*
X117400000Y-90082155D01*
X117400000Y-90787217D01*
X117380315Y-90854256D01*
X117327511Y-90900011D01*
X117258353Y-90909955D01*
X117194797Y-90880930D01*
X117174079Y-90855016D01*
X117172779Y-90855886D01*
X117081789Y-90719711D01*
X117081786Y-90719707D01*
X116970292Y-90608213D01*
X116970288Y-90608210D01*
X116839185Y-90520609D01*
X116839172Y-90520602D01*
X116693501Y-90460264D01*
X116693489Y-90460261D01*
X116538845Y-90429500D01*
X116538842Y-90429500D01*
X116381158Y-90429500D01*
X116381155Y-90429500D01*
X116226510Y-90460261D01*
X116226498Y-90460264D01*
X116080827Y-90520602D01*
X116080814Y-90520609D01*
X115949711Y-90608210D01*
X115949707Y-90608213D01*
X115838213Y-90719707D01*
X115838210Y-90719711D01*
X115750609Y-90850814D01*
X115750602Y-90850827D01*
X115690264Y-90996498D01*
X115690261Y-90996510D01*
X115659500Y-91151153D01*
X111000500Y-91151153D01*
X111000500Y-84999997D01*
X124044723Y-84999997D01*
X124044723Y-85000002D01*
X124063793Y-85217975D01*
X124063793Y-85217979D01*
X124120422Y-85429322D01*
X124120424Y-85429326D01*
X124120425Y-85429330D01*
X124156868Y-85507483D01*
X124212897Y-85627638D01*
X124212898Y-85627639D01*
X124338402Y-85806877D01*
X124425616Y-85894091D01*
X124493124Y-85961599D01*
X124596623Y-86034069D01*
X124640248Y-86088645D01*
X124649500Y-86135644D01*
X124649500Y-89324071D01*
X124669285Y-89423532D01*
X124669285Y-89423533D01*
X124674497Y-89449737D01*
X124674500Y-89449746D01*
X124706555Y-89527135D01*
X124723535Y-89568127D01*
X124725326Y-89570808D01*
X124793196Y-89672383D01*
X124814073Y-89739060D01*
X124813564Y-89752714D01*
X124794357Y-89959998D01*
X124794357Y-89960000D01*
X124814884Y-90181535D01*
X124814885Y-90181537D01*
X124875769Y-90395523D01*
X124875775Y-90395538D01*
X124974938Y-90594683D01*
X124974943Y-90594691D01*
X125109020Y-90772238D01*
X125273437Y-90922123D01*
X125273439Y-90922125D01*
X125462595Y-91039245D01*
X125462596Y-91039245D01*
X125462599Y-91039247D01*
X125670060Y-91119618D01*
X125888757Y-91160500D01*
X125888759Y-91160500D01*
X126111241Y-91160500D01*
X126111243Y-91160500D01*
X126329940Y-91119618D01*
X126537401Y-91039247D01*
X126726562Y-90922124D01*
X126890981Y-90772236D01*
X127025058Y-90594689D01*
X127124229Y-90395528D01*
X127185115Y-90181536D01*
X127205643Y-89960000D01*
X127186785Y-89756489D01*
X127200200Y-89687922D01*
X127222572Y-89657372D01*
X128693127Y-88186819D01*
X128754450Y-88153334D01*
X128780808Y-88150500D01*
X130709192Y-88150500D01*
X130776231Y-88170185D01*
X130796873Y-88186819D01*
X131472873Y-88862819D01*
X131506358Y-88924142D01*
X131501374Y-88993834D01*
X131459502Y-89049767D01*
X131394038Y-89074184D01*
X131385192Y-89074500D01*
X130962129Y-89074500D01*
X130962123Y-89074501D01*
X130902516Y-89080908D01*
X130767671Y-89131202D01*
X130767664Y-89131206D01*
X130652455Y-89217452D01*
X130652452Y-89217455D01*
X130566206Y-89332664D01*
X130566202Y-89332671D01*
X130515908Y-89467517D01*
X130509501Y-89527116D01*
X130509500Y-89527135D01*
X130509500Y-91122870D01*
X130509501Y-91122876D01*
X130515908Y-91182483D01*
X130566202Y-91317328D01*
X130566206Y-91317335D01*
X130652452Y-91432544D01*
X130652455Y-91432547D01*
X130767664Y-91518793D01*
X130767671Y-91518797D01*
X130780927Y-91523741D01*
X130902517Y-91569091D01*
X130962127Y-91575500D01*
X131104190Y-91575499D01*
X131171230Y-91595183D01*
X131191872Y-91611818D01*
X132585325Y-93005272D01*
X132585328Y-93005275D01*
X132668139Y-93060607D01*
X132668138Y-93060607D01*
X132691871Y-93076464D01*
X132691872Y-93076464D01*
X132691873Y-93076465D01*
X132810256Y-93125501D01*
X132810260Y-93125501D01*
X132810261Y-93125502D01*
X132935928Y-93150500D01*
X132935931Y-93150500D01*
X136564071Y-93150500D01*
X136648615Y-93133682D01*
X136689744Y-93125501D01*
X136808127Y-93076465D01*
X136831862Y-93060606D01*
X136914669Y-93005277D01*
X138483126Y-91436817D01*
X138544449Y-91403333D01*
X138570807Y-91400499D01*
X139672871Y-91400499D01*
X139672872Y-91400499D01*
X139732483Y-91394091D01*
X139867331Y-91343796D01*
X139982546Y-91257546D01*
X140068796Y-91142331D01*
X140076054Y-91122872D01*
X140097455Y-91065493D01*
X140139326Y-91009559D01*
X140204790Y-90985141D01*
X140273063Y-90999992D01*
X140304866Y-91024843D01*
X140312302Y-91032920D01*
X140313215Y-91033912D01*
X140313222Y-91033918D01*
X140496365Y-91176464D01*
X140496371Y-91176468D01*
X140496374Y-91176470D01*
X140700497Y-91286936D01*
X140814487Y-91326068D01*
X140920015Y-91362297D01*
X140920017Y-91362297D01*
X140920019Y-91362298D01*
X141148951Y-91400500D01*
X141148952Y-91400500D01*
X141381048Y-91400500D01*
X141381049Y-91400500D01*
X141609981Y-91362298D01*
X141829503Y-91286936D01*
X142033626Y-91176470D01*
X142054145Y-91160500D01*
X142106671Y-91119617D01*
X142216784Y-91033913D01*
X142373979Y-90863153D01*
X142382041Y-90850814D01*
X142423590Y-90787217D01*
X142476209Y-90706678D01*
X142529354Y-90661322D01*
X142580017Y-90650500D01*
X142955343Y-90650500D01*
X143022382Y-90670185D01*
X143054297Y-90699773D01*
X143069351Y-90719707D01*
X143108259Y-90771230D01*
X143109020Y-90772237D01*
X143273437Y-90922123D01*
X143273439Y-90922125D01*
X143462595Y-91039245D01*
X143462596Y-91039245D01*
X143462599Y-91039247D01*
X143670060Y-91119618D01*
X143888757Y-91160500D01*
X143888759Y-91160500D01*
X144111241Y-91160500D01*
X144111243Y-91160500D01*
X144329940Y-91119618D01*
X144537401Y-91039247D01*
X144726562Y-90922124D01*
X144890981Y-90772236D01*
X145025058Y-90594689D01*
X145124229Y-90395528D01*
X145185115Y-90181536D01*
X145205643Y-89960000D01*
X145185115Y-89738464D01*
X145124229Y-89524472D01*
X145124224Y-89524461D01*
X145025061Y-89325316D01*
X145025056Y-89325308D01*
X144890979Y-89147761D01*
X144726562Y-88997876D01*
X144726560Y-88997874D01*
X144537401Y-88880753D01*
X144537398Y-88880752D01*
X144329940Y-88800382D01*
X144111243Y-88759500D01*
X143888757Y-88759500D01*
X143670060Y-88800382D01*
X143538864Y-88851207D01*
X143462601Y-88880752D01*
X143462599Y-88880753D01*
X143273439Y-88997874D01*
X143273437Y-88997876D01*
X143109020Y-89147761D01*
X142993884Y-89300227D01*
X142937775Y-89341863D01*
X142894930Y-89349500D01*
X142580017Y-89349500D01*
X142512978Y-89329815D01*
X142476208Y-89293321D01*
X142373983Y-89136852D01*
X142373980Y-89136849D01*
X142373979Y-89136847D01*
X142216784Y-88966087D01*
X142216779Y-88966083D01*
X142216777Y-88966081D01*
X142033634Y-88823535D01*
X142033628Y-88823531D01*
X141829504Y-88713064D01*
X141829495Y-88713061D01*
X141609984Y-88637702D01*
X141419450Y-88605908D01*
X141381049Y-88599500D01*
X141148951Y-88599500D01*
X141110550Y-88605908D01*
X140920015Y-88637702D01*
X140700504Y-88713061D01*
X140700495Y-88713064D01*
X140496371Y-88823531D01*
X140496365Y-88823535D01*
X140313222Y-88966081D01*
X140313218Y-88966085D01*
X140313216Y-88966086D01*
X140313216Y-88966087D01*
X140312493Y-88966873D01*
X140304866Y-88975158D01*
X140244979Y-89011148D01*
X140175141Y-89009047D01*
X140117525Y-88969522D01*
X140097455Y-88934507D01*
X140068797Y-88857671D01*
X140068793Y-88857664D01*
X139982547Y-88742455D01*
X139982544Y-88742452D01*
X139867335Y-88656206D01*
X139867328Y-88656202D01*
X139732482Y-88605908D01*
X139732483Y-88605908D01*
X139672883Y-88599501D01*
X139672881Y-88599500D01*
X139672873Y-88599500D01*
X139672865Y-88599500D01*
X138295808Y-88599500D01*
X138228769Y-88579815D01*
X138208127Y-88563181D01*
X136026819Y-86381873D01*
X135993334Y-86320550D01*
X135990500Y-86294192D01*
X135990500Y-85871861D01*
X136010185Y-85804822D01*
X136062989Y-85759067D01*
X136071156Y-85755683D01*
X136131513Y-85733172D01*
X136370113Y-85602887D01*
X136587742Y-85439971D01*
X136779971Y-85247742D01*
X136942887Y-85030113D01*
X137073172Y-84791513D01*
X137168175Y-84536801D01*
X137225961Y-84271160D01*
X137245355Y-84000000D01*
X137225961Y-83728840D01*
X137168175Y-83463199D01*
X137095120Y-83267333D01*
X137090137Y-83197645D01*
X137123620Y-83136324D01*
X139897931Y-80362013D01*
X139959252Y-80328530D01*
X140028944Y-80333514D01*
X140044628Y-80340642D01*
X140115179Y-80378823D01*
X140115185Y-80378825D01*
X140115190Y-80378828D01*
X140350386Y-80459571D01*
X140595665Y-80500500D01*
X140844335Y-80500500D01*
X141089614Y-80459571D01*
X141324810Y-80378828D01*
X141543509Y-80260474D01*
X141739744Y-80107738D01*
X141908164Y-79924785D01*
X142044173Y-79716607D01*
X142144063Y-79488881D01*
X142205108Y-79247821D01*
X142208863Y-79202508D01*
X142225643Y-79000005D01*
X142225643Y-78999994D01*
X142205109Y-78752187D01*
X142205107Y-78752175D01*
X142144063Y-78511118D01*
X142044173Y-78283393D01*
X141908166Y-78075217D01*
X141875183Y-78039388D01*
X141739744Y-77892262D01*
X141543509Y-77739526D01*
X141543507Y-77739525D01*
X141543506Y-77739524D01*
X141324811Y-77621172D01*
X141324802Y-77621169D01*
X141089616Y-77540429D01*
X140844335Y-77499500D01*
X140595665Y-77499500D01*
X140350383Y-77540429D01*
X140115197Y-77621169D01*
X140115188Y-77621172D01*
X139896493Y-77739524D01*
X139700257Y-77892261D01*
X139531833Y-78075217D01*
X139395826Y-78283393D01*
X139295936Y-78511118D01*
X139234892Y-78752175D01*
X139234890Y-78752187D01*
X139214357Y-78999994D01*
X139214357Y-79000000D01*
X139225351Y-79132676D01*
X139211269Y-79201112D01*
X139189455Y-79230597D01*
X136203675Y-82216377D01*
X136142352Y-82249862D01*
X136072663Y-82244878D01*
X135876801Y-82171825D01*
X135876794Y-82171823D01*
X135876793Y-82171823D01*
X135611167Y-82114040D01*
X135611160Y-82114039D01*
X135340001Y-82094645D01*
X135339999Y-82094645D01*
X135068839Y-82114039D01*
X135068832Y-82114040D01*
X134803206Y-82171823D01*
X134803202Y-82171824D01*
X134803199Y-82171825D01*
X134683751Y-82216377D01*
X134548480Y-82266830D01*
X134309892Y-82397109D01*
X134309891Y-82397110D01*
X134092259Y-82560028D01*
X134092247Y-82560038D01*
X133900038Y-82752247D01*
X133900028Y-82752259D01*
X133737110Y-82969891D01*
X133737109Y-82969892D01*
X133606830Y-83208480D01*
X133584878Y-83267337D01*
X133511825Y-83463199D01*
X133511824Y-83463202D01*
X133511823Y-83463206D01*
X133454040Y-83728832D01*
X133454039Y-83728839D01*
X133434645Y-83999998D01*
X133434645Y-84000001D01*
X133454039Y-84271160D01*
X133454040Y-84271167D01*
X133511823Y-84536793D01*
X133511825Y-84536801D01*
X133565206Y-84679920D01*
X133606830Y-84791519D01*
X133737109Y-85030107D01*
X133737110Y-85030108D01*
X133737113Y-85030113D01*
X133900029Y-85247742D01*
X133900033Y-85247746D01*
X133900038Y-85247752D01*
X134092247Y-85439961D01*
X134092253Y-85439966D01*
X134092258Y-85439971D01*
X134309887Y-85602887D01*
X134309891Y-85602889D01*
X134309892Y-85602890D01*
X134548481Y-85733169D01*
X134548489Y-85733173D01*
X134569784Y-85741115D01*
X134608833Y-85755679D01*
X134664766Y-85797550D01*
X134689184Y-85863014D01*
X134689500Y-85871861D01*
X134689500Y-86679069D01*
X134709811Y-86781175D01*
X134714499Y-86804744D01*
X134763535Y-86923127D01*
X134811376Y-86994727D01*
X134834726Y-87029673D01*
X134834727Y-87029674D01*
X137288181Y-89483127D01*
X137321666Y-89544450D01*
X137324500Y-89570808D01*
X137324500Y-90704191D01*
X137304815Y-90771230D01*
X137288181Y-90791872D01*
X136266873Y-91813181D01*
X136205550Y-91846666D01*
X136179192Y-91849500D01*
X133320808Y-91849500D01*
X133253769Y-91829815D01*
X133233127Y-91813181D01*
X133130635Y-91710689D01*
X133097150Y-91649366D01*
X133102134Y-91579674D01*
X133144006Y-91523741D01*
X133170861Y-91508448D01*
X133290756Y-91458786D01*
X133371562Y-91404792D01*
X133438234Y-91383917D01*
X133505614Y-91402401D01*
X133509340Y-91404795D01*
X133589479Y-91458343D01*
X133589486Y-91458347D01*
X133776016Y-91535609D01*
X133776025Y-91535612D01*
X133825000Y-91545353D01*
X133825000Y-90690865D01*
X133827383Y-90666671D01*
X133830500Y-90651002D01*
X133830500Y-90610830D01*
X133844745Y-90625075D01*
X133930255Y-90674444D01*
X134025630Y-90700000D01*
X134124370Y-90700000D01*
X134219745Y-90674444D01*
X134305255Y-90625075D01*
X134325000Y-90605330D01*
X134325000Y-91545352D01*
X134373974Y-91535612D01*
X134373983Y-91535609D01*
X134560513Y-91458347D01*
X134560526Y-91458340D01*
X134728399Y-91346170D01*
X134728403Y-91346167D01*
X134871167Y-91203403D01*
X134871170Y-91203399D01*
X134983340Y-91035526D01*
X134983347Y-91035513D01*
X135060609Y-90848983D01*
X135060612Y-90848974D01*
X135099999Y-90650958D01*
X135100000Y-90650955D01*
X135100000Y-90575000D01*
X134355330Y-90575000D01*
X134375075Y-90555255D01*
X134424444Y-90469745D01*
X134450000Y-90374370D01*
X134450000Y-90275630D01*
X134424444Y-90180255D01*
X134375075Y-90094745D01*
X134355330Y-90075000D01*
X135100000Y-90075000D01*
X135100000Y-89999045D01*
X135099999Y-89999041D01*
X135060612Y-89801025D01*
X135060609Y-89801016D01*
X134983347Y-89614486D01*
X134983340Y-89614473D01*
X134871170Y-89446600D01*
X134871167Y-89446596D01*
X134728403Y-89303832D01*
X134728399Y-89303829D01*
X134560526Y-89191659D01*
X134560513Y-89191652D01*
X134373984Y-89114390D01*
X134373977Y-89114388D01*
X134325000Y-89104645D01*
X134325000Y-90044670D01*
X134305255Y-90024925D01*
X134219745Y-89975556D01*
X134124370Y-89950000D01*
X134025630Y-89950000D01*
X133930255Y-89975556D01*
X133844745Y-90024925D01*
X133830500Y-90039170D01*
X133830500Y-89998996D01*
X133830499Y-89998995D01*
X133827383Y-89983326D01*
X133825000Y-89959134D01*
X133825000Y-89104646D01*
X133824999Y-89104645D01*
X133776022Y-89114388D01*
X133776015Y-89114390D01*
X133601748Y-89186574D01*
X133532279Y-89194043D01*
X133469800Y-89162768D01*
X133434148Y-89102679D01*
X133432682Y-89096222D01*
X133430501Y-89085256D01*
X133381465Y-88966873D01*
X133323922Y-88880753D01*
X133310277Y-88860331D01*
X132600446Y-88150500D01*
X131444674Y-86994727D01*
X131444673Y-86994726D01*
X131444669Y-86994723D01*
X131338127Y-86923535D01*
X131337137Y-86923125D01*
X131219744Y-86874499D01*
X131219738Y-86874497D01*
X131094071Y-86849500D01*
X131094069Y-86849500D01*
X128395931Y-86849500D01*
X128395929Y-86849500D01*
X128270261Y-86874497D01*
X128270255Y-86874499D01*
X128151870Y-86923535D01*
X128045331Y-86994722D01*
X128045324Y-86994728D01*
X126300105Y-88739947D01*
X126238782Y-88773432D01*
X126189640Y-88774154D01*
X126111243Y-88759500D01*
X126111241Y-88759500D01*
X126074500Y-88759500D01*
X126007461Y-88739815D01*
X125961706Y-88687011D01*
X125950500Y-88635500D01*
X125950500Y-86135644D01*
X125970185Y-86068605D01*
X126003377Y-86034069D01*
X126106877Y-85961598D01*
X126261598Y-85806877D01*
X126387102Y-85627639D01*
X126479575Y-85429330D01*
X126536207Y-85217977D01*
X126555277Y-85000000D01*
X126555277Y-84999999D01*
X127445225Y-84999999D01*
X127445225Y-85000000D01*
X127464287Y-85217884D01*
X127464289Y-85217894D01*
X127520894Y-85429150D01*
X127520898Y-85429159D01*
X127613333Y-85627387D01*
X127656874Y-85689571D01*
X128300000Y-85046445D01*
X128300000Y-85052661D01*
X128327259Y-85154394D01*
X128379920Y-85245606D01*
X128454394Y-85320080D01*
X128545606Y-85372741D01*
X128647339Y-85400000D01*
X128653553Y-85400000D01*
X128010427Y-86043124D01*
X128072612Y-86086666D01*
X128270840Y-86179101D01*
X128270849Y-86179105D01*
X128482105Y-86235710D01*
X128482115Y-86235712D01*
X128699999Y-86254775D01*
X128700001Y-86254775D01*
X128917884Y-86235712D01*
X128917894Y-86235710D01*
X129129150Y-86179105D01*
X129129164Y-86179100D01*
X129327383Y-86086669D01*
X129327385Y-86086668D01*
X129389571Y-86043124D01*
X128746448Y-85400000D01*
X128752661Y-85400000D01*
X128854394Y-85372741D01*
X128945606Y-85320080D01*
X129020080Y-85245606D01*
X129072741Y-85154394D01*
X129100000Y-85052661D01*
X129100000Y-85046446D01*
X129743124Y-85689570D01*
X129786668Y-85627385D01*
X129786669Y-85627383D01*
X129879100Y-85429164D01*
X129879105Y-85429150D01*
X129935710Y-85217894D01*
X129935712Y-85217884D01*
X129954775Y-85000000D01*
X129954775Y-84999999D01*
X129935712Y-84782115D01*
X129935710Y-84782105D01*
X129879105Y-84570849D01*
X129879101Y-84570840D01*
X129786667Y-84372614D01*
X129786666Y-84372612D01*
X129743124Y-84310428D01*
X129743124Y-84310427D01*
X129100000Y-84953551D01*
X129100000Y-84947339D01*
X129072741Y-84845606D01*
X129020080Y-84754394D01*
X128945606Y-84679920D01*
X128854394Y-84627259D01*
X128752661Y-84600000D01*
X128746447Y-84600000D01*
X129389571Y-83956874D01*
X129327387Y-83913333D01*
X129129159Y-83820898D01*
X129129150Y-83820894D01*
X128917894Y-83764289D01*
X128917884Y-83764287D01*
X128700001Y-83745225D01*
X128699999Y-83745225D01*
X128482115Y-83764287D01*
X128482105Y-83764289D01*
X128270849Y-83820894D01*
X128270840Y-83820898D01*
X128072613Y-83913333D01*
X128010428Y-83956874D01*
X128653554Y-84600000D01*
X128647339Y-84600000D01*
X128545606Y-84627259D01*
X128454394Y-84679920D01*
X128379920Y-84754394D01*
X128327259Y-84845606D01*
X128300000Y-84947339D01*
X128300000Y-84953554D01*
X127656874Y-84310428D01*
X127613333Y-84372613D01*
X127520898Y-84570840D01*
X127520894Y-84570849D01*
X127464289Y-84782105D01*
X127464287Y-84782115D01*
X127445225Y-84999999D01*
X126555277Y-84999999D01*
X126536207Y-84782023D01*
X126494738Y-84627259D01*
X126479577Y-84570677D01*
X126479576Y-84570676D01*
X126479575Y-84570670D01*
X126387102Y-84372362D01*
X126387100Y-84372359D01*
X126387099Y-84372357D01*
X126261599Y-84193124D01*
X126261596Y-84193121D01*
X126106877Y-84038402D01*
X125968978Y-83941844D01*
X125927638Y-83912897D01*
X125828484Y-83866661D01*
X125729330Y-83820425D01*
X125729326Y-83820424D01*
X125729322Y-83820422D01*
X125517977Y-83763793D01*
X125300002Y-83744723D01*
X125299998Y-83744723D01*
X125154682Y-83757436D01*
X125082023Y-83763793D01*
X125082020Y-83763793D01*
X124870677Y-83820422D01*
X124870668Y-83820426D01*
X124672361Y-83912898D01*
X124672357Y-83912900D01*
X124493121Y-84038402D01*
X124338402Y-84193121D01*
X124212900Y-84372357D01*
X124212898Y-84372361D01*
X124120426Y-84570668D01*
X124120422Y-84570677D01*
X124063793Y-84782020D01*
X124063793Y-84782024D01*
X124044723Y-84999997D01*
X111000500Y-84999997D01*
X111000500Y-80586823D01*
X114118499Y-80586823D01*
X114152374Y-80757118D01*
X114152377Y-80757128D01*
X114218822Y-80917543D01*
X114315295Y-81061926D01*
X114315296Y-81061927D01*
X115938072Y-82684702D01*
X115938076Y-82684705D01*
X116082446Y-82781171D01*
X116082459Y-82781178D01*
X116242871Y-82847622D01*
X116242876Y-82847624D01*
X116242880Y-82847624D01*
X116242881Y-82847625D01*
X116413176Y-82881500D01*
X116413179Y-82881500D01*
X121426823Y-82881500D01*
X121541393Y-82858709D01*
X121597124Y-82847624D01*
X121677335Y-82814399D01*
X121757543Y-82781177D01*
X121757544Y-82781176D01*
X121757547Y-82781175D01*
X121901924Y-82684706D01*
X123884624Y-80702003D01*
X123945945Y-80668520D01*
X123990782Y-80667071D01*
X124212565Y-80700500D01*
X124467435Y-80700500D01*
X124719458Y-80662513D01*
X124963004Y-80587389D01*
X125192634Y-80476805D01*
X125403217Y-80333232D01*
X125590050Y-80159877D01*
X125748959Y-79960612D01*
X125876393Y-79739888D01*
X125969508Y-79502637D01*
X126026222Y-79254157D01*
X126045268Y-79000000D01*
X126045268Y-78999995D01*
X127674732Y-78999995D01*
X127674732Y-79000004D01*
X127693777Y-79254154D01*
X127739297Y-79453592D01*
X127750492Y-79502637D01*
X127843607Y-79739888D01*
X127971041Y-79960612D01*
X128129950Y-80159877D01*
X128316783Y-80333232D01*
X128527366Y-80476805D01*
X128527371Y-80476807D01*
X128527372Y-80476808D01*
X128527373Y-80476809D01*
X128617441Y-80520183D01*
X128756992Y-80587387D01*
X128756993Y-80587387D01*
X128756996Y-80587389D01*
X129000542Y-80662513D01*
X129252565Y-80700500D01*
X129507435Y-80700500D01*
X129759458Y-80662513D01*
X130003004Y-80587389D01*
X130232634Y-80476805D01*
X130443217Y-80333232D01*
X130630050Y-80159877D01*
X130788959Y-79960612D01*
X130916393Y-79739888D01*
X131009508Y-79502637D01*
X131066222Y-79254157D01*
X131085268Y-79000000D01*
X131066222Y-78745843D01*
X131009508Y-78497363D01*
X130916393Y-78260112D01*
X130788959Y-78039388D01*
X130630050Y-77840123D01*
X130443217Y-77666768D01*
X130232634Y-77523195D01*
X130232630Y-77523193D01*
X130232627Y-77523191D01*
X130232626Y-77523190D01*
X130003006Y-77412612D01*
X130003008Y-77412612D01*
X129759466Y-77337489D01*
X129759462Y-77337488D01*
X129759458Y-77337487D01*
X129638231Y-77319214D01*
X129507440Y-77299500D01*
X129507435Y-77299500D01*
X129252565Y-77299500D01*
X129252559Y-77299500D01*
X129095609Y-77323157D01*
X129000542Y-77337487D01*
X129000539Y-77337488D01*
X129000533Y-77337489D01*
X128756992Y-77412612D01*
X128527373Y-77523190D01*
X128527372Y-77523191D01*
X128316782Y-77666768D01*
X128129952Y-77840121D01*
X128129950Y-77840123D01*
X127971041Y-78039388D01*
X127843608Y-78260109D01*
X127750492Y-78497362D01*
X127750490Y-78497369D01*
X127693777Y-78745845D01*
X127674732Y-78999995D01*
X126045268Y-78999995D01*
X126026222Y-78745843D01*
X125969508Y-78497363D01*
X125876393Y-78260112D01*
X125748959Y-78039388D01*
X125590050Y-77840123D01*
X125403217Y-77666768D01*
X125192634Y-77523195D01*
X125192630Y-77523193D01*
X125192627Y-77523191D01*
X125192626Y-77523190D01*
X124963006Y-77412612D01*
X124963008Y-77412612D01*
X124719466Y-77337489D01*
X124719462Y-77337488D01*
X124719458Y-77337487D01*
X124598231Y-77319214D01*
X124467440Y-77299500D01*
X124467435Y-77299500D01*
X124212565Y-77299500D01*
X124212559Y-77299500D01*
X124055609Y-77323157D01*
X123960542Y-77337487D01*
X123960539Y-77337488D01*
X123960533Y-77337489D01*
X123716992Y-77412612D01*
X123487373Y-77523190D01*
X123487372Y-77523191D01*
X123276782Y-77666768D01*
X123089952Y-77840121D01*
X123089950Y-77840123D01*
X122931041Y-78039388D01*
X122803608Y-78260109D01*
X122710492Y-78497362D01*
X122710490Y-78497369D01*
X122653777Y-78745845D01*
X122634732Y-78999995D01*
X122634732Y-79000004D01*
X122653777Y-79254154D01*
X122672987Y-79338318D01*
X122668714Y-79408057D01*
X122639777Y-79453592D01*
X121011189Y-81082181D01*
X120949866Y-81115666D01*
X120923508Y-81118500D01*
X116916491Y-81118500D01*
X116849452Y-81098815D01*
X116828810Y-81082181D01*
X115917819Y-80171189D01*
X115884334Y-80109866D01*
X115881500Y-80083508D01*
X115881500Y-73916492D01*
X115901185Y-73849453D01*
X115917819Y-73828811D01*
X119828811Y-69917819D01*
X119890134Y-69884334D01*
X119916492Y-69881500D01*
X129053629Y-69881500D01*
X129120668Y-69901185D01*
X129159355Y-69940707D01*
X129161164Y-69943659D01*
X129324776Y-70135224D01*
X129473066Y-70261875D01*
X129516343Y-70298838D01*
X129516346Y-70298839D01*
X129731140Y-70430466D01*
X129963889Y-70526873D01*
X130208852Y-70585683D01*
X130460000Y-70605449D01*
X130711148Y-70585683D01*
X130956111Y-70526873D01*
X131188859Y-70430466D01*
X131321019Y-70349477D01*
X131388461Y-70331234D01*
X131455064Y-70352350D01*
X131485072Y-70380894D01*
X131542455Y-70457547D01*
X131657664Y-70543793D01*
X131657671Y-70543797D01*
X131702618Y-70560561D01*
X131792517Y-70594091D01*
X131852127Y-70600500D01*
X131853485Y-70600499D01*
X131853787Y-70600588D01*
X131855453Y-70600678D01*
X131855431Y-70601071D01*
X131920525Y-70620169D01*
X131966291Y-70672964D01*
X131976250Y-70742120D01*
X131947238Y-70805682D01*
X131941189Y-70812180D01*
X130671189Y-72082181D01*
X130609866Y-72115666D01*
X130583508Y-72118500D01*
X125213177Y-72118500D01*
X125042881Y-72152374D01*
X125042871Y-72152377D01*
X124882459Y-72218821D01*
X124882446Y-72218828D01*
X124738076Y-72315294D01*
X124738072Y-72315297D01*
X119755375Y-77297993D01*
X119694052Y-77331478D01*
X119649213Y-77332927D01*
X119427442Y-77299500D01*
X119427435Y-77299500D01*
X119172565Y-77299500D01*
X119172559Y-77299500D01*
X119015609Y-77323157D01*
X118920542Y-77337487D01*
X118920539Y-77337488D01*
X118920533Y-77337489D01*
X118676992Y-77412612D01*
X118447373Y-77523190D01*
X118447372Y-77523191D01*
X118236782Y-77666768D01*
X118049952Y-77840121D01*
X118049950Y-77840123D01*
X117891041Y-78039388D01*
X117763608Y-78260109D01*
X117670492Y-78497362D01*
X117670490Y-78497369D01*
X117613777Y-78745845D01*
X117594732Y-78999995D01*
X117594732Y-79000004D01*
X117613777Y-79254154D01*
X117659297Y-79453592D01*
X117670492Y-79502637D01*
X117763607Y-79739888D01*
X117891041Y-79960612D01*
X118049950Y-80159877D01*
X118236783Y-80333232D01*
X118447366Y-80476805D01*
X118447371Y-80476807D01*
X118447372Y-80476808D01*
X118447373Y-80476809D01*
X118537441Y-80520183D01*
X118676992Y-80587387D01*
X118676993Y-80587387D01*
X118676996Y-80587389D01*
X118920542Y-80662513D01*
X119172565Y-80700500D01*
X119427435Y-80700500D01*
X119679458Y-80662513D01*
X119923004Y-80587389D01*
X120152634Y-80476805D01*
X120363217Y-80333232D01*
X120550050Y-80159877D01*
X120708959Y-79960612D01*
X120836393Y-79739888D01*
X120929508Y-79502637D01*
X120986222Y-79254157D01*
X121005268Y-79000000D01*
X121005268Y-78999994D01*
X120986223Y-78745850D01*
X120986222Y-78745845D01*
X120986222Y-78745843D01*
X120967012Y-78661680D01*
X120971285Y-78591941D01*
X121000220Y-78546408D01*
X125628810Y-73917819D01*
X125690133Y-73884334D01*
X125716491Y-73881500D01*
X131086823Y-73881500D01*
X131201393Y-73858709D01*
X131257124Y-73847624D01*
X131337335Y-73814399D01*
X131417543Y-73781177D01*
X131417544Y-73781176D01*
X131417547Y-73781175D01*
X131561924Y-73684706D01*
X133684706Y-71561924D01*
X133781175Y-71417547D01*
X133847624Y-71257124D01*
X133881500Y-71086821D01*
X133881500Y-70913179D01*
X133881500Y-70724499D01*
X133901185Y-70657460D01*
X133953989Y-70611705D01*
X134005500Y-70600499D01*
X134147871Y-70600499D01*
X134147872Y-70600499D01*
X134207483Y-70594091D01*
X134342331Y-70543796D01*
X134457546Y-70457546D01*
X134543796Y-70342331D01*
X134594091Y-70207483D01*
X134600500Y-70147873D01*
X134600499Y-67852128D01*
X134594091Y-67792517D01*
X134560017Y-67701161D01*
X134543797Y-67657671D01*
X134543793Y-67657664D01*
X134457547Y-67542455D01*
X134457544Y-67542452D01*
X134342335Y-67456206D01*
X134342328Y-67456202D01*
X134207482Y-67405908D01*
X134207483Y-67405908D01*
X134147883Y-67399501D01*
X134147881Y-67399500D01*
X134147873Y-67399500D01*
X134147865Y-67399500D01*
X133443574Y-67399500D01*
X133376535Y-67379815D01*
X133330780Y-67327011D01*
X133320836Y-67257853D01*
X133349861Y-67194297D01*
X133374683Y-67172398D01*
X133405816Y-67151596D01*
X133510289Y-67081789D01*
X133621789Y-66970289D01*
X133709394Y-66839179D01*
X133769737Y-66693497D01*
X133800500Y-66538842D01*
X133800500Y-66381158D01*
X133800500Y-66381155D01*
X133800499Y-66381153D01*
X133769738Y-66226510D01*
X133769737Y-66226503D01*
X133755912Y-66193127D01*
X133709397Y-66080827D01*
X133709390Y-66080814D01*
X133621789Y-65949711D01*
X133621786Y-65949707D01*
X133510292Y-65838213D01*
X133510288Y-65838210D01*
X133379185Y-65750609D01*
X133379172Y-65750602D01*
X133233501Y-65690264D01*
X133233489Y-65690261D01*
X133078845Y-65659500D01*
X133078842Y-65659500D01*
X132921158Y-65659500D01*
X132921155Y-65659500D01*
X132766510Y-65690261D01*
X132766498Y-65690264D01*
X132620827Y-65750602D01*
X132620814Y-65750609D01*
X132489711Y-65838210D01*
X132489707Y-65838213D01*
X132378213Y-65949707D01*
X132378210Y-65949711D01*
X132290609Y-66080814D01*
X132290602Y-66080827D01*
X132230264Y-66226498D01*
X132230261Y-66226510D01*
X132199500Y-66381153D01*
X132199500Y-66538846D01*
X132230261Y-66693489D01*
X132230264Y-66693501D01*
X132290602Y-66839172D01*
X132290609Y-66839185D01*
X132378210Y-66970288D01*
X132378213Y-66970292D01*
X132489707Y-67081786D01*
X132489711Y-67081789D01*
X132625316Y-67172398D01*
X132670121Y-67226010D01*
X132678828Y-67295335D01*
X132648674Y-67358363D01*
X132589230Y-67395082D01*
X132556425Y-67399500D01*
X131852129Y-67399500D01*
X131852123Y-67399501D01*
X131792516Y-67405908D01*
X131657671Y-67456202D01*
X131657664Y-67456206D01*
X131542455Y-67542452D01*
X131485072Y-67619105D01*
X131429138Y-67660976D01*
X131359446Y-67665959D01*
X131321016Y-67650520D01*
X131188859Y-67569533D01*
X130956110Y-67473126D01*
X130788956Y-67432997D01*
X130728364Y-67398206D01*
X130696200Y-67336180D01*
X130702676Y-67266611D01*
X130745735Y-67211587D01*
X130770451Y-67197862D01*
X130839173Y-67169397D01*
X130839176Y-67169395D01*
X130839179Y-67169394D01*
X130970289Y-67081789D01*
X131081789Y-66970289D01*
X131169394Y-66839179D01*
X131229737Y-66693497D01*
X131260500Y-66538842D01*
X131260500Y-66381158D01*
X131260500Y-66381155D01*
X131260499Y-66381153D01*
X131229738Y-66226510D01*
X131229737Y-66226503D01*
X131215912Y-66193127D01*
X131169397Y-66080827D01*
X131169390Y-66080814D01*
X131081789Y-65949711D01*
X131081786Y-65949707D01*
X130970292Y-65838213D01*
X130970288Y-65838210D01*
X130839185Y-65750609D01*
X130839172Y-65750602D01*
X130693501Y-65690264D01*
X130693489Y-65690261D01*
X130538845Y-65659500D01*
X130538842Y-65659500D01*
X130381158Y-65659500D01*
X130381155Y-65659500D01*
X130226510Y-65690261D01*
X130226498Y-65690264D01*
X130080827Y-65750602D01*
X130080814Y-65750609D01*
X129949711Y-65838210D01*
X129949707Y-65838213D01*
X129838213Y-65949707D01*
X129838210Y-65949711D01*
X129750609Y-66080814D01*
X129750602Y-66080827D01*
X129690264Y-66226498D01*
X129690261Y-66226510D01*
X129659500Y-66381153D01*
X129659500Y-66538846D01*
X129690261Y-66693489D01*
X129690264Y-66693501D01*
X129750602Y-66839172D01*
X129750609Y-66839185D01*
X129838210Y-66970288D01*
X129838213Y-66970292D01*
X129949707Y-67081786D01*
X129949711Y-67081789D01*
X130080814Y-67169390D01*
X130080827Y-67169397D01*
X130149548Y-67197862D01*
X130203952Y-67241703D01*
X130226017Y-67307997D01*
X130208738Y-67375696D01*
X130157601Y-67423307D01*
X130131043Y-67432997D01*
X129963889Y-67473126D01*
X129731140Y-67569533D01*
X129516346Y-67701160D01*
X129516343Y-67701161D01*
X129324776Y-67864776D01*
X129161163Y-68056342D01*
X129159355Y-68059293D01*
X129158374Y-68060180D01*
X129158296Y-68060288D01*
X129158273Y-68060271D01*
X129107541Y-68106167D01*
X129053629Y-68118500D01*
X119413177Y-68118500D01*
X119242881Y-68152374D01*
X119242871Y-68152377D01*
X119082456Y-68218822D01*
X118938073Y-68315295D01*
X114315295Y-72938073D01*
X114218822Y-73082456D01*
X114152377Y-73242871D01*
X114152374Y-73242881D01*
X114118500Y-73413177D01*
X114118500Y-73413180D01*
X114118500Y-80413179D01*
X114118500Y-80586821D01*
X114118500Y-80586823D01*
X114118499Y-80586823D01*
X111000500Y-80586823D01*
X111000500Y-65502706D01*
X111000559Y-65499996D01*
X112494415Y-65499996D01*
X112494415Y-65500003D01*
X112514738Y-65848927D01*
X112514739Y-65848938D01*
X112575428Y-66193127D01*
X112575430Y-66193134D01*
X112675674Y-66527972D01*
X112814107Y-66848895D01*
X112814113Y-66848908D01*
X112988870Y-67151597D01*
X113197584Y-67431949D01*
X113197589Y-67431955D01*
X113301840Y-67542454D01*
X113437442Y-67686183D01*
X113564165Y-67792516D01*
X113705186Y-67910847D01*
X113705194Y-67910853D01*
X113997203Y-68102911D01*
X113997207Y-68102913D01*
X114309549Y-68259777D01*
X114637989Y-68379319D01*
X114978086Y-68459923D01*
X115325241Y-68500500D01*
X115325248Y-68500500D01*
X115674752Y-68500500D01*
X115674759Y-68500500D01*
X116021914Y-68459923D01*
X116362011Y-68379319D01*
X116690451Y-68259777D01*
X117002793Y-68102913D01*
X117294811Y-67910849D01*
X117562558Y-67686183D01*
X117802412Y-67431953D01*
X118011130Y-67151596D01*
X118185889Y-66848904D01*
X118324326Y-66527971D01*
X118424569Y-66193136D01*
X118444375Y-66080814D01*
X118485260Y-65848938D01*
X118485259Y-65848938D01*
X118485262Y-65848927D01*
X118503673Y-65532827D01*
X118505585Y-65500003D01*
X118505585Y-65499996D01*
X144494415Y-65499996D01*
X144494415Y-65500003D01*
X144514738Y-65848927D01*
X144514739Y-65848938D01*
X144575428Y-66193127D01*
X144575430Y-66193134D01*
X144675674Y-66527972D01*
X144814107Y-66848895D01*
X144814113Y-66848908D01*
X144988870Y-67151597D01*
X145197584Y-67431949D01*
X145197589Y-67431955D01*
X145301840Y-67542454D01*
X145437442Y-67686183D01*
X145564165Y-67792516D01*
X145705186Y-67910847D01*
X145705194Y-67910853D01*
X145997203Y-68102911D01*
X145997207Y-68102913D01*
X146309549Y-68259777D01*
X146637989Y-68379319D01*
X146978086Y-68459923D01*
X147325241Y-68500500D01*
X147325248Y-68500500D01*
X147674752Y-68500500D01*
X147674759Y-68500500D01*
X148021914Y-68459923D01*
X148362011Y-68379319D01*
X148690451Y-68259777D01*
X149002793Y-68102913D01*
X149294811Y-67910849D01*
X149562558Y-67686183D01*
X149802412Y-67431953D01*
X150011130Y-67151596D01*
X150185889Y-66848904D01*
X150324326Y-66527971D01*
X150424569Y-66193136D01*
X150444375Y-66080814D01*
X150485260Y-65848938D01*
X150485259Y-65848938D01*
X150485262Y-65848927D01*
X150503673Y-65532827D01*
X150505585Y-65500003D01*
X150505585Y-65499996D01*
X150492334Y-65272498D01*
X150485262Y-65151073D01*
X150478593Y-65113249D01*
X150424571Y-64806872D01*
X150424569Y-64806865D01*
X150408802Y-64754199D01*
X150324326Y-64472029D01*
X150185889Y-64151096D01*
X150011130Y-63848404D01*
X150011129Y-63848402D01*
X149802415Y-63568050D01*
X149802410Y-63568044D01*
X149686433Y-63445117D01*
X149562558Y-63313817D01*
X149414488Y-63189572D01*
X149294813Y-63089152D01*
X149294805Y-63089146D01*
X149002796Y-62897088D01*
X148690458Y-62740226D01*
X148690452Y-62740223D01*
X148362012Y-62620681D01*
X148362009Y-62620680D01*
X148021915Y-62540077D01*
X147978519Y-62535004D01*
X147674759Y-62499500D01*
X147325241Y-62499500D01*
X147021480Y-62535004D01*
X146978085Y-62540077D01*
X146978083Y-62540077D01*
X146637990Y-62620680D01*
X146637987Y-62620681D01*
X146309547Y-62740223D01*
X146309541Y-62740226D01*
X145997203Y-62897088D01*
X145705194Y-63089146D01*
X145705186Y-63089152D01*
X145437442Y-63313817D01*
X145437440Y-63313819D01*
X145197589Y-63568044D01*
X145197584Y-63568050D01*
X144988870Y-63848402D01*
X144814113Y-64151091D01*
X144814107Y-64151104D01*
X144675674Y-64472027D01*
X144575430Y-64806865D01*
X144575428Y-64806872D01*
X144514739Y-65151061D01*
X144514738Y-65151072D01*
X144494415Y-65499996D01*
X118505585Y-65499996D01*
X118492334Y-65272498D01*
X118485262Y-65151073D01*
X118478593Y-65113249D01*
X118424571Y-64806872D01*
X118424569Y-64806865D01*
X118408802Y-64754199D01*
X118324326Y-64472029D01*
X118185889Y-64151096D01*
X118011130Y-63848404D01*
X118011129Y-63848402D01*
X117802415Y-63568050D01*
X117802410Y-63568044D01*
X117686433Y-63445117D01*
X117562558Y-63313817D01*
X117414488Y-63189572D01*
X117294813Y-63089152D01*
X117294805Y-63089146D01*
X117002796Y-62897088D01*
X116690458Y-62740226D01*
X116690452Y-62740223D01*
X116362012Y-62620681D01*
X116362009Y-62620680D01*
X116021915Y-62540077D01*
X115978519Y-62535004D01*
X115674759Y-62499500D01*
X115325241Y-62499500D01*
X115021480Y-62535004D01*
X114978085Y-62540077D01*
X114978083Y-62540077D01*
X114637990Y-62620680D01*
X114637987Y-62620681D01*
X114309547Y-62740223D01*
X114309541Y-62740226D01*
X113997203Y-62897088D01*
X113705194Y-63089146D01*
X113705186Y-63089152D01*
X113437442Y-63313817D01*
X113437440Y-63313819D01*
X113197589Y-63568044D01*
X113197584Y-63568050D01*
X112988870Y-63848402D01*
X112814113Y-64151091D01*
X112814107Y-64151104D01*
X112675674Y-64472027D01*
X112575430Y-64806865D01*
X112575428Y-64806872D01*
X112514739Y-65151061D01*
X112514738Y-65151072D01*
X112494415Y-65499996D01*
X111000559Y-65499996D01*
X111000618Y-65497297D01*
X111008881Y-65308034D01*
X111017386Y-65113226D01*
X111018326Y-65102495D01*
X111068152Y-64724025D01*
X111070025Y-64713405D01*
X111152649Y-64340709D01*
X111155440Y-64330295D01*
X111270230Y-63966227D01*
X111273917Y-63956095D01*
X111420003Y-63603412D01*
X111424561Y-63593638D01*
X111600822Y-63255045D01*
X111606217Y-63245700D01*
X111811325Y-62923744D01*
X111817515Y-62914905D01*
X112049896Y-62612060D01*
X112056834Y-62603791D01*
X112314726Y-62322352D01*
X112322352Y-62314726D01*
X112603791Y-62056834D01*
X112612060Y-62049896D01*
X112914905Y-61817515D01*
X112923744Y-61811325D01*
X113245700Y-61606217D01*
X113255045Y-61600822D01*
X113593638Y-61424561D01*
X113603412Y-61420003D01*
X113956095Y-61273917D01*
X113966227Y-61270230D01*
X114330295Y-61155440D01*
X114340709Y-61152649D01*
X114713405Y-61070025D01*
X114724025Y-61068152D01*
X115102495Y-61018326D01*
X115113226Y-61017386D01*
X115497272Y-61000619D01*
X115502733Y-61000502D01*
X147389881Y-61035950D01*
G37*
%TD.AperFunction*%
%TD*%
M02*
