M48
; DRILL file {KiCad 8.0.5} date 2024-12-19T14:29:12+0300
; FORMAT={-:-/ absolute / metric / decimal}
; #@! TF.CreationDate,2024-12-19T14:29:12+03:00
; #@! TF.GenerationSoftware,Kicad,Pcbnew,8.0.5
; #@! TF.FileFunction,Plated,1,2,PTH
FMAT,2
METRIC
; #@! TA.AperFunction,Plated,PTH,ComponentDrill
T1C0.600
; #@! TA.AperFunction,Plated,PTH,ComponentDrill
T2C0.700
; #@! TA.AperFunction,Plated,PTH,ComponentDrill
T3C0.800
; #@! TA.AperFunction,Plated,PTH,ComponentDrill
T4C0.900
%
G90
G05
T1
X118.0Y-81.5
X118.0Y-83.0
T2
X118.46Y-68.5
X123.54Y-68.5
X126.96Y-68.5
X132.04Y-68.5
X136.46Y-75.0
X136.46Y-78.5
X141.54Y-75.0
X141.54Y-78.5
T3
X112.0Y-76.5
X112.0Y-78.5
X118.5Y-73.5
X118.5Y-76.0
X125.35Y-73.4
X125.35Y-75.94
X125.35Y-78.48
X125.35Y-81.02
X132.97Y-73.4
X132.97Y-75.94
X132.97Y-78.48
X132.97Y-81.02
T4
X136.0Y-68.0
X136.25Y-85.2
X138.54Y-68.0
X138.79Y-85.2
X142.46Y-68.0
X142.725Y-85.0
X145.0Y-68.0
X145.265Y-85.0
M30
