%TF.GenerationSoftware,KiCad,Pcbnew,8.0.5*%
%TF.CreationDate,2024-12-19T14:28:49+03:00*%
%TF.ProjectId,555_Police_Light,3535355f-506f-46c6-9963-655f4c696768,v01*%
%TF.SameCoordinates,Original*%
%TF.FileFunction,Copper,L2,Bot*%
%TF.FilePolarity,Positive*%
%FSLAX46Y46*%
G04 Gerber Fmt 4.6, Leading zero omitted, Abs format (unit mm)*
G04 Created by KiCad (PCBNEW 8.0.5) date 2024-12-19 14:28:49*
%MOMM*%
%LPD*%
G01*
G04 APERTURE LIST*
%TA.AperFunction,ComponentPad*%
%ADD10C,1.400000*%
%TD*%
%TA.AperFunction,ComponentPad*%
%ADD11O,1.400000X1.400000*%
%TD*%
%TA.AperFunction,ComponentPad*%
%ADD12R,1.350000X1.350000*%
%TD*%
%TA.AperFunction,ComponentPad*%
%ADD13O,1.350000X1.350000*%
%TD*%
%TA.AperFunction,ComponentPad*%
%ADD14R,1.600000X1.600000*%
%TD*%
%TA.AperFunction,ComponentPad*%
%ADD15O,1.600000X1.600000*%
%TD*%
%TA.AperFunction,ComponentPad*%
%ADD16R,1.800000X1.800000*%
%TD*%
%TA.AperFunction,ComponentPad*%
%ADD17C,1.800000*%
%TD*%
%TA.AperFunction,ComponentPad*%
%ADD18C,1.600000*%
%TD*%
%TA.AperFunction,ComponentPad*%
%ADD19R,1.200000X1.200000*%
%TD*%
%TA.AperFunction,ComponentPad*%
%ADD20C,1.200000*%
%TD*%
%TA.AperFunction,Conductor*%
%ADD21C,0.254000*%
%TD*%
G04 APERTURE END LIST*
D10*
%TO.P,R4,1*%
%TO.N,Net-(RED1-K)*%
X136460000Y-75000000D03*
D11*
%TO.P,R4,2*%
%TO.N,Net-(BLUE1-A)*%
X141540000Y-75000000D03*
%TD*%
D10*
%TO.P,R3,1*%
%TO.N,Net-(J1-Pin_1)*%
X136460000Y-78500000D03*
D11*
%TO.P,R3,2*%
%TO.N,Net-(RED1-A)*%
X141540000Y-78500000D03*
%TD*%
D10*
%TO.P,R2,1*%
%TO.N,Net-(J1-Pin_1)*%
X126960000Y-68500000D03*
D11*
%TO.P,R2,2*%
%TO.N,Net-(U1-DIS)*%
X132040000Y-68500000D03*
%TD*%
D10*
%TO.P,R1,1*%
%TO.N,Net-(U1-DIS)*%
X123540000Y-68500000D03*
D11*
%TO.P,R1,2*%
%TO.N,Net-(U1-THR)*%
X118460000Y-68500000D03*
%TD*%
D12*
%TO.P,J1,1,Pin_1*%
%TO.N,Net-(J1-Pin_1)*%
X112000000Y-78500000D03*
D13*
%TO.P,J1,2,Pin_2*%
%TO.N,GND*%
X112000000Y-76500000D03*
%TD*%
D14*
%TO.P,U1,1,GND*%
%TO.N,GND*%
X125350000Y-73400000D03*
D15*
%TO.P,U1,2,TR*%
%TO.N,Net-(U1-THR)*%
X125350000Y-75940000D03*
%TO.P,U1,3,Q*%
%TO.N,Net-(RED1-K)*%
X125350000Y-78480000D03*
%TO.P,U1,4,R*%
%TO.N,Net-(J1-Pin_1)*%
X125350000Y-81020000D03*
%TO.P,U1,5,CV*%
%TO.N,Net-(U1-CV)*%
X132970000Y-81020000D03*
%TO.P,U1,6,THR*%
%TO.N,Net-(U1-THR)*%
X132970000Y-78480000D03*
%TO.P,U1,7,DIS*%
%TO.N,Net-(U1-DIS)*%
X132970000Y-75940000D03*
%TO.P,U1,8,VCC*%
%TO.N,Net-(J1-Pin_1)*%
X132970000Y-73400000D03*
%TD*%
D16*
%TO.P,RED2,1,K*%
%TO.N,Net-(RED1-K)*%
X142725000Y-85000000D03*
D17*
%TO.P,RED2,2,A*%
%TO.N,Net-(RED1-A)*%
X145265000Y-85000000D03*
%TD*%
D16*
%TO.P,RED1,1,K*%
%TO.N,Net-(RED1-K)*%
X136250000Y-85200000D03*
D17*
%TO.P,RED1,2,A*%
%TO.N,Net-(RED1-A)*%
X138790000Y-85200000D03*
%TD*%
D14*
%TO.P,C2,1*%
%TO.N,Net-(U1-THR)*%
X118500000Y-76000000D03*
D18*
%TO.P,C2,2*%
%TO.N,GND*%
X118500000Y-73500000D03*
%TD*%
D19*
%TO.P,C1,1*%
%TO.N,Net-(U1-CV)*%
X118000000Y-83000000D03*
D20*
%TO.P,C1,2*%
%TO.N,GND*%
X118000000Y-81500000D03*
%TD*%
D16*
%TO.P,BLUE2,1,K*%
%TO.N,GND*%
X142460000Y-68000000D03*
D17*
%TO.P,BLUE2,2,A*%
%TO.N,Net-(BLUE1-A)*%
X145000000Y-68000000D03*
%TD*%
D16*
%TO.P,BLUE1,1,K*%
%TO.N,GND*%
X136000000Y-68000000D03*
D17*
%TO.P,BLUE1,2,A*%
%TO.N,Net-(BLUE1-A)*%
X138540000Y-68000000D03*
%TD*%
D21*
%TO.N,Net-(U1-DIS)*%
X131340000Y-69200000D02*
X132040000Y-68500000D01*
X132970000Y-75940000D02*
X131340000Y-74310000D01*
X131340000Y-74310000D02*
X131340000Y-69200000D01*
%TO.N,Net-(U1-THR)*%
X130430000Y-75940000D02*
X132970000Y-78480000D01*
X125350000Y-75940000D02*
X130430000Y-75940000D01*
%TO.N,Net-(RED1-K)*%
X134500000Y-83450000D02*
X136250000Y-85200000D01*
X134500000Y-76960000D02*
X134500000Y-83450000D01*
X136460000Y-75000000D02*
X134500000Y-76960000D01*
X132070000Y-85200000D02*
X136250000Y-85200000D01*
X125350000Y-78480000D02*
X132070000Y-85200000D01*
%TD*%
M02*
