%TF.GenerationSoftware,KiCad,Pcbnew,8.0.5*%
%TF.CreationDate,2025-01-11T13:33:14+03:00*%
%TF.ProjectId,Counter_CD4033,436f756e-7465-4725-9f43-44343033332e,rev?*%
%TF.SameCoordinates,Original*%
%TF.FileFunction,Copper,L2,Bot*%
%TF.FilePolarity,Positive*%
%FSLAX46Y46*%
G04 Gerber Fmt 4.6, Leading zero omitted, Abs format (unit mm)*
G04 Created by KiCad (PCBNEW 8.0.5) date 2025-01-11 13:33:14*
%MOMM*%
%LPD*%
G01*
G04 APERTURE LIST*
%TA.AperFunction,ComponentPad*%
%ADD10R,2.524000X1.524000*%
%TD*%
%TA.AperFunction,ComponentPad*%
%ADD11O,2.524000X1.524000*%
%TD*%
%TA.AperFunction,ComponentPad*%
%ADD12R,1.600000X1.600000*%
%TD*%
%TA.AperFunction,ComponentPad*%
%ADD13C,1.600000*%
%TD*%
%TA.AperFunction,ComponentPad*%
%ADD14R,2.600000X2.600000*%
%TD*%
%TA.AperFunction,ComponentPad*%
%ADD15C,2.600000*%
%TD*%
%TA.AperFunction,ComponentPad*%
%ADD16C,1.400000*%
%TD*%
%TA.AperFunction,ComponentPad*%
%ADD17O,1.400000X1.400000*%
%TD*%
%TA.AperFunction,ComponentPad*%
%ADD18R,1.200000X1.200000*%
%TD*%
%TA.AperFunction,ComponentPad*%
%ADD19C,1.200000*%
%TD*%
%TA.AperFunction,ComponentPad*%
%ADD20R,1.498000X1.498000*%
%TD*%
%TA.AperFunction,ComponentPad*%
%ADD21C,1.498000*%
%TD*%
%TA.AperFunction,ComponentPad*%
%ADD22O,1.600000X1.600000*%
%TD*%
%TA.AperFunction,ViaPad*%
%ADD23C,0.600000*%
%TD*%
%TA.AperFunction,Conductor*%
%ADD24C,0.300000*%
%TD*%
G04 APERTURE END LIST*
D10*
%TO.P,7S,1,e*%
%TO.N,Net-(AFF1-e)*%
X153260000Y-69380000D03*
D11*
%TO.P,7S,2,d*%
%TO.N,Net-(AFF1-d)*%
X153260000Y-71920000D03*
%TO.P,7S,3,C.K.*%
%TO.N,Net-(AFF1-C.K.-Pad3)*%
X153260000Y-74460000D03*
%TO.P,7S,4,c*%
%TO.N,Net-(AFF1-c)*%
X153260000Y-77000000D03*
%TO.P,7S,5,DP*%
%TO.N,unconnected-(AFF1-DP-Pad5)*%
X153260000Y-79540000D03*
%TO.P,7S,6,b*%
%TO.N,Net-(AFF1-b)*%
X168500000Y-79540000D03*
%TO.P,7S,7,a*%
%TO.N,Net-(AFF1-a)*%
X168500000Y-77000000D03*
%TO.P,7S,8,C.K.*%
%TO.N,Net-(AFF1-C.K.-Pad3)*%
X168500000Y-74460000D03*
%TO.P,7S,9,f*%
%TO.N,Net-(AFF1-f)*%
X168500000Y-71920000D03*
%TO.P,7S,10,g*%
%TO.N,Net-(AFF1-g)*%
X168500000Y-69380000D03*
%TD*%
D12*
%TO.P,C1,1*%
%TO.N,Net-(U2-DIS)*%
X133000000Y-78500000D03*
D13*
%TO.P,C1,2*%
%TO.N,GND*%
X135000000Y-78500000D03*
%TD*%
D14*
%TO.P,VCC,1,Pin_1*%
%TO.N,VCC*%
X158420000Y-87500000D03*
D15*
%TO.P,VCC,2,Pin_2*%
%TO.N,GND*%
X163500000Y-87500000D03*
%TD*%
D16*
%TO.P,R1,1*%
%TO.N,VCC*%
X137000000Y-87040000D03*
D17*
%TO.P,R1,2*%
%TO.N,Net-(U2-DIS)*%
X137000000Y-81960000D03*
%TD*%
D18*
%TO.P,C2,1*%
%TO.N,Net-(U2-CV)*%
X132500000Y-85500000D03*
D19*
%TO.P,C2,2*%
%TO.N,GND*%
X134000000Y-85500000D03*
%TD*%
D20*
%TO.P,COUNT,1,1*%
%TO.N,VCC*%
X127880000Y-67340000D03*
D21*
%TO.P,COUNT,2,2*%
%TO.N,Net-(U2-TR)*%
X123380000Y-67340000D03*
%TO.P,COUNT,3*%
%TO.N,N/C*%
X127880000Y-73840000D03*
%TO.P,COUNT,4*%
X123380000Y-73840000D03*
%TD*%
D16*
%TO.P,R3,1*%
%TO.N,Net-(U1-CARRY_OUT)*%
X152340000Y-65920000D03*
D17*
%TO.P,R3,2*%
%TO.N,GND*%
X157420000Y-65920000D03*
%TD*%
D12*
%TO.P,CD4033B,1,CLOCK*%
%TO.N,Net-(U1-CLOCK)*%
X139880000Y-67800000D03*
D22*
%TO.P,CD4033B,2,CLOCK_INHIBIT*%
%TO.N,GND*%
X139880000Y-70340000D03*
%TO.P,CD4033B,3,RIPPLE_BLANKING_IN*%
X139880000Y-72880000D03*
%TO.P,CD4033B,4,RIPPLE_BLANKING_OUT*%
%TO.N,unconnected-(U1-RIPPLE_BLANKING_OUT-Pad4)*%
X139880000Y-75420000D03*
%TO.P,CD4033B,5,CARRY_OUT*%
%TO.N,Net-(U1-CARRY_OUT)*%
X139880000Y-77960000D03*
%TO.P,CD4033B,6,f*%
%TO.N,Net-(AFF1-f)*%
X139880000Y-80500000D03*
%TO.P,CD4033B,7,g*%
%TO.N,Net-(AFF1-g)*%
X139880000Y-83040000D03*
%TO.P,CD4033B,8,V_{SS}*%
%TO.N,GND*%
X139880000Y-85580000D03*
%TO.P,CD4033B,9,d*%
%TO.N,Net-(AFF1-d)*%
X147500000Y-85580000D03*
%TO.P,CD4033B,10,a*%
%TO.N,Net-(AFF1-a)*%
X147500000Y-83040000D03*
%TO.P,CD4033B,11,e*%
%TO.N,Net-(AFF1-e)*%
X147500000Y-80500000D03*
%TO.P,CD4033B,12,b*%
%TO.N,Net-(AFF1-b)*%
X147500000Y-77960000D03*
%TO.P,CD4033B,13,c*%
%TO.N,Net-(AFF1-c)*%
X147500000Y-75420000D03*
%TO.P,CD4033B,14,LAMP_TEST*%
%TO.N,GND*%
X147500000Y-72880000D03*
%TO.P,CD4033B,15,RESET*%
%TO.N,Net-(U1-RESET)*%
X147500000Y-70340000D03*
%TO.P,CD4033B,16,V_{DD}*%
%TO.N,VCC*%
X147500000Y-67800000D03*
%TD*%
D16*
%TO.P,R2,1*%
%TO.N,Net-(AFF1-C.K.-Pad3)*%
X166000000Y-65920000D03*
D17*
%TO.P,R2,2*%
%TO.N,GND*%
X160920000Y-65920000D03*
%TD*%
D20*
%TO.P,RESET,1,1*%
%TO.N,VCC*%
X131880000Y-73840000D03*
D21*
%TO.P,RESET,2,2*%
%TO.N,Net-(U1-RESET)*%
X136380000Y-73840000D03*
%TO.P,RESET,3*%
%TO.N,N/C*%
X131880000Y-67340000D03*
%TO.P,RESET,4*%
X136380000Y-67340000D03*
%TD*%
D12*
%TO.P,555,1,GND*%
%TO.N,GND*%
X121760000Y-77800000D03*
D22*
%TO.P,555,2,TR*%
%TO.N,Net-(U2-TR)*%
X121760000Y-80340000D03*
%TO.P,555,3,Q*%
%TO.N,Net-(U1-CLOCK)*%
X121760000Y-82880000D03*
%TO.P,555,4,R*%
%TO.N,VCC*%
X121760000Y-85420000D03*
%TO.P,555,5,CV*%
%TO.N,Net-(U2-CV)*%
X129380000Y-85420000D03*
%TO.P,555,6,THR*%
%TO.N,Net-(U2-DIS)*%
X129380000Y-82880000D03*
%TO.P,555,7,DIS*%
X129380000Y-80340000D03*
%TO.P,555,8,VCC*%
%TO.N,VCC*%
X129380000Y-77800000D03*
%TD*%
D23*
%TO.N,Net-(AFF1-e)*%
X149500000Y-77000000D03*
%TO.N,Net-(AFF1-f)*%
X164500000Y-73500000D03*
X144500000Y-89500000D03*
%TO.N,Net-(AFF1-d)*%
X150500000Y-77000000D03*
%TO.N,Net-(AFF1-b)*%
X158000000Y-78500000D03*
%TO.N,Net-(AFF1-g)*%
X163000000Y-73500000D03*
%TD*%
D24*
%TO.N,Net-(AFF1-e)*%
X151120000Y-69380000D02*
X153260000Y-69380000D01*
X149500000Y-77000000D02*
X149500000Y-71000000D01*
X149500000Y-71000000D02*
X151120000Y-69380000D01*
%TO.N,Net-(AFF1-f)*%
X150000000Y-89500000D02*
X144500000Y-89500000D01*
X164500000Y-75000000D02*
X150000000Y-89500000D01*
X164500000Y-73500000D02*
X164500000Y-75000000D01*
%TO.N,Net-(AFF1-d)*%
X150500000Y-77000000D02*
X150500000Y-73500000D01*
X152080000Y-71920000D02*
X153260000Y-71920000D01*
X150500000Y-73500000D02*
X152080000Y-71920000D01*
%TO.N,Net-(AFF1-b)*%
X158000000Y-78500000D02*
X158040380Y-78540380D01*
X154500000Y-82000000D02*
X158000000Y-78500000D01*
X152000000Y-82000000D02*
X154500000Y-82000000D01*
X147500000Y-77960000D02*
X151540000Y-82000000D01*
X151540000Y-82000000D02*
X152000000Y-82000000D01*
%TO.N,Net-(AFF1-g)*%
X149500000Y-88500000D02*
X143000000Y-88500000D01*
X163000000Y-73500000D02*
X163000000Y-75000000D01*
X141460000Y-83040000D02*
X139880000Y-83040000D01*
X142000000Y-87500000D02*
X142000000Y-83500000D01*
X141500000Y-83000000D02*
X141460000Y-83040000D01*
X142000000Y-83500000D02*
X141500000Y-83000000D01*
X163000000Y-75000000D02*
X149500000Y-88500000D01*
X143000000Y-88500000D02*
X142000000Y-87500000D01*
%TO.N,Net-(U1-RESET)*%
X146350000Y-71490000D02*
X147500000Y-70340000D01*
X138730000Y-71490000D02*
X146350000Y-71490000D01*
X136380000Y-73840000D02*
X138730000Y-71490000D01*
%TO.N,Net-(U1-CLOCK)*%
X130000000Y-71500000D02*
X130500000Y-71000000D01*
X130000000Y-74640000D02*
X130000000Y-71500000D01*
X130500000Y-71000000D02*
X136680000Y-71000000D01*
X121760000Y-82880000D02*
X130000000Y-74640000D01*
X136680000Y-71000000D02*
X139880000Y-67800000D01*
%TD*%
%TA.AperFunction,Conductor*%
%TO.N,GND*%
G36*
X146282841Y-72160185D02*
G01*
X146328596Y-72212989D01*
X146338540Y-72282147D01*
X146328184Y-72316905D01*
X146273734Y-72433673D01*
X146273730Y-72433682D01*
X146221127Y-72629999D01*
X146221128Y-72630000D01*
X147184314Y-72630000D01*
X147179920Y-72634394D01*
X147127259Y-72725606D01*
X147100000Y-72827339D01*
X147100000Y-72932661D01*
X147127259Y-73034394D01*
X147179920Y-73125606D01*
X147184314Y-73130000D01*
X146221128Y-73130000D01*
X146273730Y-73326317D01*
X146273734Y-73326326D01*
X146369865Y-73532482D01*
X146500342Y-73718820D01*
X146661179Y-73879657D01*
X146847518Y-74010134D01*
X146847520Y-74010135D01*
X146905865Y-74037342D01*
X146958305Y-74083514D01*
X146977457Y-74150707D01*
X146957242Y-74217589D01*
X146905867Y-74262105D01*
X146891108Y-74268988D01*
X146847264Y-74289433D01*
X146660858Y-74419954D01*
X146499954Y-74580858D01*
X146369432Y-74767265D01*
X146369431Y-74767267D01*
X146273261Y-74973502D01*
X146273258Y-74973511D01*
X146214366Y-75193302D01*
X146214364Y-75193313D01*
X146194532Y-75419998D01*
X146194532Y-75420001D01*
X146214364Y-75646686D01*
X146214366Y-75646697D01*
X146273258Y-75866488D01*
X146273261Y-75866497D01*
X146369431Y-76072732D01*
X146369432Y-76072734D01*
X146499954Y-76259141D01*
X146660858Y-76420045D01*
X146660861Y-76420047D01*
X146847266Y-76550568D01*
X146905275Y-76577618D01*
X146957714Y-76623791D01*
X146976866Y-76690984D01*
X146956650Y-76757865D01*
X146905275Y-76802382D01*
X146847267Y-76829431D01*
X146847265Y-76829432D01*
X146660858Y-76959954D01*
X146499954Y-77120858D01*
X146369432Y-77307265D01*
X146369431Y-77307267D01*
X146273261Y-77513502D01*
X146273258Y-77513511D01*
X146214366Y-77733302D01*
X146214364Y-77733313D01*
X146194532Y-77959998D01*
X146194532Y-77960001D01*
X146214364Y-78186686D01*
X146214366Y-78186697D01*
X146273258Y-78406488D01*
X146273261Y-78406497D01*
X146369431Y-78612732D01*
X146369432Y-78612734D01*
X146499954Y-78799141D01*
X146660858Y-78960045D01*
X146660861Y-78960047D01*
X146847266Y-79090568D01*
X146905275Y-79117618D01*
X146957714Y-79163791D01*
X146976866Y-79230984D01*
X146956650Y-79297865D01*
X146905275Y-79342382D01*
X146847267Y-79369431D01*
X146847265Y-79369432D01*
X146660858Y-79499954D01*
X146499954Y-79660858D01*
X146369432Y-79847265D01*
X146369431Y-79847267D01*
X146273261Y-80053502D01*
X146273258Y-80053511D01*
X146214366Y-80273302D01*
X146214364Y-80273313D01*
X146194532Y-80499998D01*
X146194532Y-80500001D01*
X146214364Y-80726686D01*
X146214366Y-80726697D01*
X146273258Y-80946488D01*
X146273261Y-80946497D01*
X146369431Y-81152732D01*
X146369432Y-81152734D01*
X146499954Y-81339141D01*
X146660858Y-81500045D01*
X146660861Y-81500047D01*
X146847266Y-81630568D01*
X146905275Y-81657618D01*
X146957714Y-81703791D01*
X146976866Y-81770984D01*
X146956650Y-81837865D01*
X146905275Y-81882382D01*
X146847267Y-81909431D01*
X146847265Y-81909432D01*
X146660858Y-82039954D01*
X146499954Y-82200858D01*
X146369432Y-82387265D01*
X146369431Y-82387267D01*
X146273261Y-82593502D01*
X146273258Y-82593511D01*
X146214366Y-82813302D01*
X146214364Y-82813313D01*
X146194532Y-83039998D01*
X146194532Y-83040001D01*
X146214364Y-83266686D01*
X146214366Y-83266697D01*
X146273258Y-83486488D01*
X146273261Y-83486497D01*
X146369431Y-83692732D01*
X146369432Y-83692734D01*
X146499954Y-83879141D01*
X146660858Y-84040045D01*
X146660861Y-84040047D01*
X146847266Y-84170568D01*
X146905275Y-84197618D01*
X146957714Y-84243791D01*
X146976866Y-84310984D01*
X146956650Y-84377865D01*
X146905275Y-84422382D01*
X146847267Y-84449431D01*
X146847265Y-84449432D01*
X146660858Y-84579954D01*
X146499954Y-84740858D01*
X146369432Y-84927265D01*
X146369431Y-84927267D01*
X146273261Y-85133502D01*
X146273258Y-85133511D01*
X146214366Y-85353302D01*
X146214364Y-85353313D01*
X146194532Y-85579998D01*
X146194532Y-85580001D01*
X146214364Y-85806686D01*
X146214366Y-85806697D01*
X146273258Y-86026488D01*
X146273261Y-86026497D01*
X146369431Y-86232732D01*
X146369432Y-86232734D01*
X146499954Y-86419141D01*
X146660858Y-86580045D01*
X146660861Y-86580047D01*
X146847266Y-86710568D01*
X147053504Y-86806739D01*
X147053509Y-86806740D01*
X147053511Y-86806741D01*
X147106415Y-86820916D01*
X147273308Y-86865635D01*
X147435230Y-86879801D01*
X147499998Y-86885468D01*
X147500000Y-86885468D01*
X147500002Y-86885468D01*
X147556673Y-86880509D01*
X147726692Y-86865635D01*
X147946496Y-86806739D01*
X148152734Y-86710568D01*
X148339139Y-86580047D01*
X148500047Y-86419139D01*
X148630568Y-86232734D01*
X148726739Y-86026496D01*
X148785635Y-85806692D01*
X148805468Y-85580000D01*
X148785635Y-85353308D01*
X148726739Y-85133504D01*
X148630568Y-84927266D01*
X148500047Y-84740861D01*
X148500045Y-84740858D01*
X148339141Y-84579954D01*
X148152734Y-84449432D01*
X148152728Y-84449429D01*
X148094725Y-84422382D01*
X148042285Y-84376210D01*
X148023133Y-84309017D01*
X148043348Y-84242135D01*
X148094725Y-84197618D01*
X148152734Y-84170568D01*
X148339139Y-84040047D01*
X148500047Y-83879139D01*
X148630568Y-83692734D01*
X148726739Y-83486496D01*
X148785635Y-83266692D01*
X148805468Y-83040000D01*
X148785635Y-82813308D01*
X148735312Y-82625500D01*
X148726741Y-82593511D01*
X148726738Y-82593502D01*
X148722927Y-82585330D01*
X148630568Y-82387266D01*
X148500047Y-82200861D01*
X148500045Y-82200858D01*
X148339141Y-82039954D01*
X148152734Y-81909432D01*
X148152728Y-81909429D01*
X148094725Y-81882382D01*
X148042285Y-81836210D01*
X148023133Y-81769017D01*
X148043348Y-81702135D01*
X148094725Y-81657618D01*
X148152734Y-81630568D01*
X148339139Y-81500047D01*
X148500047Y-81339139D01*
X148630568Y-81152734D01*
X148726739Y-80946496D01*
X148785635Y-80726692D01*
X148805468Y-80500000D01*
X148804999Y-80494644D01*
X148818763Y-80426146D01*
X148867377Y-80375962D01*
X148935405Y-80360026D01*
X149001249Y-80383399D01*
X149016208Y-80396154D01*
X151125325Y-82505272D01*
X151125326Y-82505273D01*
X151125329Y-82505275D01*
X151125331Y-82505277D01*
X151231873Y-82576465D01*
X151350256Y-82625501D01*
X151350260Y-82625501D01*
X151350261Y-82625502D01*
X151475928Y-82650500D01*
X151475931Y-82650500D01*
X151935931Y-82650500D01*
X154130192Y-82650500D01*
X154197231Y-82670185D01*
X154242986Y-82722989D01*
X154252930Y-82792147D01*
X154223905Y-82855703D01*
X154217873Y-82862181D01*
X149266873Y-87813181D01*
X149205550Y-87846666D01*
X149179192Y-87849500D01*
X143320808Y-87849500D01*
X143253769Y-87829815D01*
X143233127Y-87813181D01*
X142686819Y-87266873D01*
X142653334Y-87205550D01*
X142650500Y-87179192D01*
X142650500Y-83435928D01*
X142625502Y-83310261D01*
X142625501Y-83310260D01*
X142625501Y-83310256D01*
X142576465Y-83191873D01*
X142573962Y-83188127D01*
X142505277Y-83085331D01*
X142505275Y-83085329D01*
X142505273Y-83085326D01*
X142505272Y-83085325D01*
X142009617Y-82589671D01*
X142009597Y-82589649D01*
X141914675Y-82494727D01*
X141914668Y-82494721D01*
X141808137Y-82423540D01*
X141808120Y-82423530D01*
X141689745Y-82374499D01*
X141689737Y-82374497D01*
X141564071Y-82349500D01*
X141564069Y-82349500D01*
X141435931Y-82349500D01*
X141435929Y-82349500D01*
X141331108Y-82370350D01*
X141331107Y-82370351D01*
X141317206Y-82373116D01*
X141310255Y-82374499D01*
X141305776Y-82376354D01*
X141296826Y-82380061D01*
X141249376Y-82389500D01*
X141076683Y-82389500D01*
X141009644Y-82369815D01*
X140975108Y-82336623D01*
X140880045Y-82200858D01*
X140719141Y-82039954D01*
X140532734Y-81909432D01*
X140532728Y-81909429D01*
X140474725Y-81882382D01*
X140422285Y-81836210D01*
X140403133Y-81769017D01*
X140423348Y-81702135D01*
X140474725Y-81657618D01*
X140532734Y-81630568D01*
X140719139Y-81500047D01*
X140880047Y-81339139D01*
X141010568Y-81152734D01*
X141106739Y-80946496D01*
X141165635Y-80726692D01*
X141185207Y-80502981D01*
X141185468Y-80500001D01*
X141185468Y-80499998D01*
X141171470Y-80340000D01*
X141165635Y-80273308D01*
X141106739Y-80053504D01*
X141010568Y-79847266D01*
X140880047Y-79660861D01*
X140880045Y-79660858D01*
X140719141Y-79499954D01*
X140532734Y-79369432D01*
X140532728Y-79369429D01*
X140486501Y-79347873D01*
X140474724Y-79342381D01*
X140422285Y-79296210D01*
X140403133Y-79229017D01*
X140423348Y-79162135D01*
X140474725Y-79117618D01*
X140532734Y-79090568D01*
X140719139Y-78960047D01*
X140880047Y-78799139D01*
X141010568Y-78612734D01*
X141106739Y-78406496D01*
X141165635Y-78186692D01*
X141185207Y-77962981D01*
X141185468Y-77960001D01*
X141185468Y-77959998D01*
X141173435Y-77822464D01*
X141165635Y-77733308D01*
X141106739Y-77513504D01*
X141010568Y-77307266D01*
X140888160Y-77132447D01*
X140880045Y-77120858D01*
X140719141Y-76959954D01*
X140532734Y-76829432D01*
X140532728Y-76829429D01*
X140474725Y-76802382D01*
X140422285Y-76756210D01*
X140403133Y-76689017D01*
X140423348Y-76622135D01*
X140474725Y-76577618D01*
X140532734Y-76550568D01*
X140719139Y-76420047D01*
X140880047Y-76259139D01*
X141010568Y-76072734D01*
X141106739Y-75866496D01*
X141165635Y-75646692D01*
X141185207Y-75422981D01*
X141185468Y-75420001D01*
X141185468Y-75419998D01*
X141175680Y-75308126D01*
X141165635Y-75193308D01*
X141106739Y-74973504D01*
X141010568Y-74767266D01*
X140880047Y-74580861D01*
X140880045Y-74580858D01*
X140719141Y-74419954D01*
X140532734Y-74289432D01*
X140532732Y-74289431D01*
X140488892Y-74268988D01*
X140474132Y-74262105D01*
X140421694Y-74215934D01*
X140402542Y-74148740D01*
X140422758Y-74081859D01*
X140474134Y-74037341D01*
X140532484Y-74010132D01*
X140718820Y-73879657D01*
X140879657Y-73718820D01*
X141010134Y-73532482D01*
X141106265Y-73326326D01*
X141106269Y-73326317D01*
X141158872Y-73130000D01*
X140195686Y-73130000D01*
X140200080Y-73125606D01*
X140252741Y-73034394D01*
X140280000Y-72932661D01*
X140280000Y-72827339D01*
X140252741Y-72725606D01*
X140200080Y-72634394D01*
X140195686Y-72630000D01*
X141158872Y-72630000D01*
X141158872Y-72629999D01*
X141106269Y-72433682D01*
X141106265Y-72433673D01*
X141051816Y-72316905D01*
X141041324Y-72247827D01*
X141069844Y-72184043D01*
X141128320Y-72145804D01*
X141164198Y-72140500D01*
X146215802Y-72140500D01*
X146282841Y-72160185D01*
G37*
%TD.AperFunction*%
%TA.AperFunction,Conductor*%
G36*
X140073039Y-72160185D02*
G01*
X140118794Y-72212989D01*
X140130000Y-72264500D01*
X140130000Y-72564314D01*
X140125606Y-72559920D01*
X140034394Y-72507259D01*
X139932661Y-72480000D01*
X139827339Y-72480000D01*
X139725606Y-72507259D01*
X139634394Y-72559920D01*
X139630000Y-72564314D01*
X139630000Y-72264500D01*
X139649685Y-72197461D01*
X139702489Y-72151706D01*
X139754000Y-72140500D01*
X140006000Y-72140500D01*
X140073039Y-72160185D01*
G37*
%TD.AperFunction*%
%TA.AperFunction,Conductor*%
G36*
X140130000Y-70715500D02*
G01*
X140110315Y-70782539D01*
X140057511Y-70828294D01*
X140006000Y-70839500D01*
X139754000Y-70839500D01*
X139686961Y-70819815D01*
X139641206Y-70767011D01*
X139630000Y-70715500D01*
X139630000Y-70655686D01*
X139634394Y-70660080D01*
X139725606Y-70712741D01*
X139827339Y-70740000D01*
X139932661Y-70740000D01*
X140034394Y-70712741D01*
X140125606Y-70660080D01*
X140130000Y-70655686D01*
X140130000Y-70715500D01*
G37*
%TD.AperFunction*%
%TA.AperFunction,Conductor*%
G36*
X171442539Y-64020185D02*
G01*
X171488294Y-64072989D01*
X171499500Y-64124500D01*
X171499500Y-93375500D01*
X171479815Y-93442539D01*
X171427011Y-93488294D01*
X171375500Y-93499500D01*
X119624500Y-93499500D01*
X119557461Y-93479815D01*
X119511706Y-93427011D01*
X119500500Y-93375500D01*
X119500500Y-87039999D01*
X135794357Y-87039999D01*
X135794357Y-87040000D01*
X135814884Y-87261535D01*
X135814885Y-87261537D01*
X135875769Y-87475523D01*
X135875775Y-87475538D01*
X135974938Y-87674683D01*
X135974940Y-87674686D01*
X136109020Y-87852238D01*
X136273437Y-88002123D01*
X136273439Y-88002125D01*
X136462595Y-88119245D01*
X136462596Y-88119245D01*
X136462599Y-88119247D01*
X136670060Y-88199618D01*
X136888757Y-88240500D01*
X136888759Y-88240500D01*
X137111241Y-88240500D01*
X137111243Y-88240500D01*
X137329940Y-88199618D01*
X137537401Y-88119247D01*
X137726562Y-88002124D01*
X137866282Y-87874751D01*
X137890979Y-87852238D01*
X137907913Y-87829815D01*
X138025058Y-87674689D01*
X138025058Y-87674687D01*
X138025060Y-87674686D01*
X138025061Y-87674683D01*
X138124224Y-87475538D01*
X138124223Y-87475538D01*
X138124229Y-87475528D01*
X138185115Y-87261536D01*
X138205643Y-87040000D01*
X138185115Y-86818464D01*
X138124229Y-86604472D01*
X138124224Y-86604461D01*
X138025061Y-86405316D01*
X138025056Y-86405308D01*
X137890979Y-86227761D01*
X137726562Y-86077876D01*
X137726560Y-86077874D01*
X137537404Y-85960754D01*
X137537398Y-85960752D01*
X137529427Y-85957664D01*
X137329940Y-85880382D01*
X137111243Y-85839500D01*
X136888757Y-85839500D01*
X136670060Y-85880382D01*
X136619214Y-85900080D01*
X136462601Y-85960752D01*
X136462595Y-85960754D01*
X136273439Y-86077874D01*
X136273437Y-86077876D01*
X136109020Y-86227761D01*
X135974943Y-86405308D01*
X135974938Y-86405316D01*
X135875775Y-86604461D01*
X135875769Y-86604476D01*
X135814885Y-86818462D01*
X135814884Y-86818464D01*
X135794357Y-87039999D01*
X119500500Y-87039999D01*
X119500500Y-80339998D01*
X120454532Y-80339998D01*
X120454532Y-80340001D01*
X120474364Y-80566686D01*
X120474366Y-80566697D01*
X120533258Y-80786488D01*
X120533261Y-80786497D01*
X120629431Y-80992732D01*
X120629432Y-80992734D01*
X120759954Y-81179141D01*
X120920858Y-81340045D01*
X120920861Y-81340047D01*
X121107266Y-81470568D01*
X121165275Y-81497618D01*
X121217714Y-81543791D01*
X121236866Y-81610984D01*
X121216650Y-81677865D01*
X121165275Y-81722382D01*
X121107267Y-81749431D01*
X121107265Y-81749432D01*
X120920858Y-81879954D01*
X120759954Y-82040858D01*
X120629432Y-82227265D01*
X120629431Y-82227267D01*
X120533261Y-82433502D01*
X120533258Y-82433511D01*
X120474366Y-82653302D01*
X120474364Y-82653313D01*
X120454532Y-82879998D01*
X120454532Y-82880001D01*
X120474364Y-83106686D01*
X120474366Y-83106697D01*
X120533258Y-83326488D01*
X120533261Y-83326497D01*
X120629431Y-83532732D01*
X120629432Y-83532734D01*
X120759954Y-83719141D01*
X120920858Y-83880045D01*
X120920861Y-83880047D01*
X121107266Y-84010568D01*
X121165275Y-84037618D01*
X121217714Y-84083791D01*
X121236866Y-84150984D01*
X121216650Y-84217865D01*
X121165275Y-84262382D01*
X121107267Y-84289431D01*
X121107265Y-84289432D01*
X120920858Y-84419954D01*
X120759954Y-84580858D01*
X120629432Y-84767265D01*
X120629431Y-84767267D01*
X120533261Y-84973502D01*
X120533258Y-84973511D01*
X120474366Y-85193302D01*
X120474364Y-85193313D01*
X120454532Y-85419998D01*
X120454532Y-85420001D01*
X120474364Y-85646686D01*
X120474366Y-85646697D01*
X120533258Y-85866488D01*
X120533261Y-85866497D01*
X120629431Y-86072732D01*
X120629432Y-86072734D01*
X120759954Y-86259141D01*
X120920858Y-86420045D01*
X120920861Y-86420047D01*
X121107266Y-86550568D01*
X121313504Y-86646739D01*
X121533308Y-86705635D01*
X121695230Y-86719801D01*
X121759998Y-86725468D01*
X121760000Y-86725468D01*
X121760002Y-86725468D01*
X121816673Y-86720509D01*
X121986692Y-86705635D01*
X122206496Y-86646739D01*
X122412734Y-86550568D01*
X122599139Y-86420047D01*
X122760047Y-86259139D01*
X122890568Y-86072734D01*
X122986739Y-85866496D01*
X123045635Y-85646692D01*
X123065468Y-85420000D01*
X123045635Y-85193308D01*
X122986739Y-84973504D01*
X122890568Y-84767266D01*
X122760047Y-84580861D01*
X122760045Y-84580858D01*
X122599141Y-84419954D01*
X122412734Y-84289432D01*
X122412728Y-84289429D01*
X122354725Y-84262382D01*
X122302285Y-84216210D01*
X122283133Y-84149017D01*
X122303348Y-84082135D01*
X122354725Y-84037618D01*
X122412734Y-84010568D01*
X122599139Y-83880047D01*
X122760047Y-83719139D01*
X122890568Y-83532734D01*
X122986739Y-83326496D01*
X123045635Y-83106692D01*
X123065468Y-82880000D01*
X123045635Y-82653308D01*
X123034790Y-82612834D01*
X123036453Y-82542984D01*
X123066882Y-82493062D01*
X127863793Y-77696151D01*
X127925114Y-77662668D01*
X127994806Y-77667652D01*
X128050739Y-77709524D01*
X128075156Y-77774988D01*
X128075001Y-77794634D01*
X128074532Y-77799998D01*
X128074532Y-77800001D01*
X128094364Y-78026686D01*
X128094366Y-78026697D01*
X128153258Y-78246488D01*
X128153261Y-78246497D01*
X128249431Y-78452732D01*
X128249432Y-78452734D01*
X128379954Y-78639141D01*
X128540858Y-78800045D01*
X128540861Y-78800047D01*
X128727266Y-78930568D01*
X128784357Y-78957190D01*
X128785275Y-78957618D01*
X128837714Y-79003791D01*
X128856866Y-79070984D01*
X128836650Y-79137865D01*
X128785275Y-79182382D01*
X128727267Y-79209431D01*
X128727265Y-79209432D01*
X128540858Y-79339954D01*
X128379954Y-79500858D01*
X128249432Y-79687265D01*
X128249431Y-79687267D01*
X128153261Y-79893502D01*
X128153258Y-79893511D01*
X128094366Y-80113302D01*
X128094364Y-80113313D01*
X128074532Y-80339998D01*
X128074532Y-80340001D01*
X128094364Y-80566686D01*
X128094366Y-80566697D01*
X128153258Y-80786488D01*
X128153261Y-80786497D01*
X128249431Y-80992732D01*
X128249432Y-80992734D01*
X128379954Y-81179141D01*
X128540858Y-81340045D01*
X128540861Y-81340047D01*
X128727266Y-81470568D01*
X128785275Y-81497618D01*
X128837714Y-81543791D01*
X128856866Y-81610984D01*
X128836650Y-81677865D01*
X128785275Y-81722382D01*
X128727267Y-81749431D01*
X128727265Y-81749432D01*
X128540858Y-81879954D01*
X128379954Y-82040858D01*
X128249432Y-82227265D01*
X128249431Y-82227267D01*
X128153261Y-82433502D01*
X128153258Y-82433511D01*
X128094366Y-82653302D01*
X128094364Y-82653313D01*
X128074532Y-82879998D01*
X128074532Y-82880001D01*
X128094364Y-83106686D01*
X128094366Y-83106697D01*
X128153258Y-83326488D01*
X128153261Y-83326497D01*
X128249431Y-83532732D01*
X128249432Y-83532734D01*
X128379954Y-83719141D01*
X128540858Y-83880045D01*
X128540861Y-83880047D01*
X128727266Y-84010568D01*
X128785275Y-84037618D01*
X128837714Y-84083791D01*
X128856866Y-84150984D01*
X128836650Y-84217865D01*
X128785275Y-84262382D01*
X128727267Y-84289431D01*
X128727265Y-84289432D01*
X128540858Y-84419954D01*
X128379954Y-84580858D01*
X128249432Y-84767265D01*
X128249431Y-84767267D01*
X128153261Y-84973502D01*
X128153258Y-84973511D01*
X128094366Y-85193302D01*
X128094364Y-85193313D01*
X128074532Y-85419998D01*
X128074532Y-85420001D01*
X128094364Y-85646686D01*
X128094366Y-85646697D01*
X128153258Y-85866488D01*
X128153261Y-85866497D01*
X128249431Y-86072732D01*
X128249432Y-86072734D01*
X128379954Y-86259141D01*
X128540858Y-86420045D01*
X128540861Y-86420047D01*
X128727266Y-86550568D01*
X128933504Y-86646739D01*
X129153308Y-86705635D01*
X129315230Y-86719801D01*
X129379998Y-86725468D01*
X129380000Y-86725468D01*
X129380002Y-86725468D01*
X129436673Y-86720509D01*
X129606692Y-86705635D01*
X129826496Y-86646739D01*
X130032734Y-86550568D01*
X130219139Y-86420047D01*
X130380047Y-86259139D01*
X130510568Y-86072734D01*
X130606739Y-85866496D01*
X130665635Y-85646692D01*
X130685468Y-85420000D01*
X130665635Y-85193308D01*
X130606739Y-84973504D01*
X130550143Y-84852135D01*
X131399500Y-84852135D01*
X131399500Y-86147870D01*
X131399501Y-86147876D01*
X131405908Y-86207483D01*
X131456202Y-86342328D01*
X131456206Y-86342335D01*
X131542452Y-86457544D01*
X131542455Y-86457547D01*
X131657664Y-86543793D01*
X131657671Y-86543797D01*
X131792517Y-86594091D01*
X131792516Y-86594091D01*
X131799444Y-86594835D01*
X131852127Y-86600500D01*
X133147872Y-86600499D01*
X133207483Y-86594091D01*
X133245137Y-86580047D01*
X133342329Y-86543797D01*
X133342329Y-86543796D01*
X133342331Y-86543796D01*
X133391993Y-86506618D01*
X133457454Y-86482201D01*
X133511097Y-86490258D01*
X133697678Y-86562539D01*
X133898072Y-86600000D01*
X134101928Y-86600000D01*
X134302322Y-86562539D01*
X134492412Y-86488899D01*
X134492416Y-86488897D01*
X134580686Y-86434241D01*
X134580686Y-86434240D01*
X133941300Y-85794854D01*
X133960504Y-85800000D01*
X134039496Y-85800000D01*
X134115796Y-85779556D01*
X134184205Y-85740060D01*
X134240060Y-85684205D01*
X134279556Y-85615796D01*
X134300000Y-85539496D01*
X134300000Y-85500000D01*
X134353553Y-85500000D01*
X134937465Y-86083912D01*
X134939247Y-86081553D01*
X134939248Y-86081551D01*
X135030113Y-85899069D01*
X135030116Y-85899063D01*
X135085902Y-85702992D01*
X135085903Y-85702989D01*
X135104713Y-85500000D01*
X135104713Y-85499999D01*
X135085903Y-85297010D01*
X135085902Y-85297007D01*
X135030116Y-85100936D01*
X135030113Y-85100930D01*
X134939249Y-84918449D01*
X134939247Y-84918447D01*
X134937465Y-84916087D01*
X134353553Y-85500000D01*
X134300000Y-85500000D01*
X134300000Y-85460504D01*
X134279556Y-85384204D01*
X134240060Y-85315795D01*
X134184205Y-85259940D01*
X134115796Y-85220444D01*
X134039496Y-85200000D01*
X133960504Y-85200000D01*
X133941301Y-85205145D01*
X134000000Y-85146447D01*
X134580687Y-84565758D01*
X134492413Y-84511101D01*
X134492411Y-84511100D01*
X134302321Y-84437460D01*
X134101928Y-84400000D01*
X133898072Y-84400000D01*
X133697677Y-84437460D01*
X133511098Y-84509741D01*
X133441474Y-84515603D01*
X133391993Y-84493381D01*
X133342331Y-84456204D01*
X133342329Y-84456203D01*
X133342328Y-84456202D01*
X133207482Y-84405908D01*
X133207483Y-84405908D01*
X133147883Y-84399501D01*
X133147881Y-84399500D01*
X133147873Y-84399500D01*
X133147864Y-84399500D01*
X131852129Y-84399500D01*
X131852123Y-84399501D01*
X131792516Y-84405908D01*
X131657671Y-84456202D01*
X131657664Y-84456206D01*
X131542455Y-84542452D01*
X131542452Y-84542455D01*
X131456206Y-84657664D01*
X131456202Y-84657671D01*
X131405908Y-84792517D01*
X131399501Y-84852116D01*
X131399500Y-84852135D01*
X130550143Y-84852135D01*
X130510568Y-84767266D01*
X130380047Y-84580861D01*
X130380045Y-84580858D01*
X130219141Y-84419954D01*
X130032734Y-84289432D01*
X130032728Y-84289429D01*
X129974725Y-84262382D01*
X129922285Y-84216210D01*
X129903133Y-84149017D01*
X129923348Y-84082135D01*
X129974725Y-84037618D01*
X130032734Y-84010568D01*
X130219139Y-83880047D01*
X130380047Y-83719139D01*
X130510568Y-83532734D01*
X130606739Y-83326496D01*
X130665635Y-83106692D01*
X130685468Y-82880000D01*
X130665635Y-82653308D01*
X130606739Y-82433504D01*
X130510568Y-82227266D01*
X130380047Y-82040861D01*
X130380045Y-82040858D01*
X130299186Y-81959999D01*
X135794357Y-81959999D01*
X135794357Y-81960000D01*
X135814884Y-82181535D01*
X135814885Y-82181537D01*
X135875769Y-82395523D01*
X135875775Y-82395538D01*
X135974938Y-82594683D01*
X135974943Y-82594691D01*
X136109020Y-82772238D01*
X136273437Y-82922123D01*
X136273439Y-82922125D01*
X136462595Y-83039245D01*
X136462596Y-83039245D01*
X136462599Y-83039247D01*
X136670060Y-83119618D01*
X136888757Y-83160500D01*
X136888759Y-83160500D01*
X137111241Y-83160500D01*
X137111243Y-83160500D01*
X137329940Y-83119618D01*
X137537401Y-83039247D01*
X137726562Y-82922124D01*
X137890981Y-82772236D01*
X138025058Y-82594689D01*
X138124229Y-82395528D01*
X138185115Y-82181536D01*
X138205643Y-81960000D01*
X138185115Y-81738464D01*
X138124229Y-81524472D01*
X138112066Y-81500045D01*
X138025061Y-81325316D01*
X138025056Y-81325308D01*
X137890979Y-81147761D01*
X137726562Y-80997876D01*
X137726560Y-80997874D01*
X137537404Y-80880754D01*
X137537398Y-80880752D01*
X137329940Y-80800382D01*
X137111243Y-80759500D01*
X136888757Y-80759500D01*
X136670060Y-80800382D01*
X136538864Y-80851207D01*
X136462601Y-80880752D01*
X136462595Y-80880754D01*
X136273439Y-80997874D01*
X136273437Y-80997876D01*
X136109020Y-81147761D01*
X135974943Y-81325308D01*
X135974938Y-81325316D01*
X135875775Y-81524461D01*
X135875769Y-81524476D01*
X135814885Y-81738462D01*
X135814884Y-81738464D01*
X135794357Y-81959999D01*
X130299186Y-81959999D01*
X130219141Y-81879954D01*
X130032734Y-81749432D01*
X130032728Y-81749429D01*
X129974725Y-81722382D01*
X129922285Y-81676210D01*
X129903133Y-81609017D01*
X129923348Y-81542135D01*
X129974725Y-81497618D01*
X130032734Y-81470568D01*
X130219139Y-81340047D01*
X130380047Y-81179139D01*
X130510568Y-80992734D01*
X130606739Y-80786496D01*
X130665635Y-80566692D01*
X130683280Y-80365009D01*
X130685468Y-80340001D01*
X130685468Y-80339998D01*
X130673368Y-80201694D01*
X130665635Y-80113308D01*
X130606739Y-79893504D01*
X130510568Y-79687266D01*
X130380047Y-79500861D01*
X130380045Y-79500858D01*
X130219141Y-79339954D01*
X130032734Y-79209432D01*
X130032728Y-79209429D01*
X129974725Y-79182382D01*
X129922285Y-79136210D01*
X129903133Y-79069017D01*
X129923348Y-79002135D01*
X129974725Y-78957618D01*
X129975643Y-78957190D01*
X130032734Y-78930568D01*
X130219139Y-78800047D01*
X130380047Y-78639139D01*
X130510568Y-78452734D01*
X130606739Y-78246496D01*
X130665635Y-78026692D01*
X130682634Y-77832384D01*
X130685468Y-77800001D01*
X130685468Y-77799998D01*
X130677552Y-77709524D01*
X130672531Y-77652135D01*
X131699500Y-77652135D01*
X131699500Y-79347870D01*
X131699501Y-79347876D01*
X131705908Y-79407483D01*
X131756202Y-79542328D01*
X131756206Y-79542335D01*
X131842452Y-79657544D01*
X131842455Y-79657547D01*
X131957664Y-79743793D01*
X131957671Y-79743797D01*
X132092517Y-79794091D01*
X132092516Y-79794091D01*
X132099444Y-79794835D01*
X132152127Y-79800500D01*
X133847872Y-79800499D01*
X133907483Y-79794091D01*
X134042331Y-79743796D01*
X134157546Y-79657546D01*
X134164350Y-79648455D01*
X134220280Y-79606584D01*
X134289971Y-79601597D01*
X134334740Y-79621188D01*
X134347512Y-79630130D01*
X134347518Y-79630134D01*
X134553673Y-79726265D01*
X134553682Y-79726269D01*
X134773389Y-79785139D01*
X134773400Y-79785141D01*
X134999998Y-79804966D01*
X135000002Y-79804966D01*
X135226599Y-79785141D01*
X135226610Y-79785139D01*
X135446317Y-79726269D01*
X135446331Y-79726264D01*
X135652478Y-79630136D01*
X135725471Y-79579024D01*
X135046447Y-78900000D01*
X135052661Y-78900000D01*
X135154394Y-78872741D01*
X135245606Y-78820080D01*
X135320080Y-78745606D01*
X135372741Y-78654394D01*
X135400000Y-78552661D01*
X135400000Y-78546447D01*
X136079024Y-79225471D01*
X136130136Y-79152478D01*
X136226264Y-78946331D01*
X136226269Y-78946317D01*
X136285139Y-78726610D01*
X136285141Y-78726599D01*
X136304966Y-78500002D01*
X136304966Y-78499997D01*
X136285141Y-78273400D01*
X136285139Y-78273389D01*
X136226269Y-78053682D01*
X136226264Y-78053668D01*
X136130136Y-77847521D01*
X136130132Y-77847513D01*
X136079025Y-77774526D01*
X135400000Y-78453551D01*
X135400000Y-78447339D01*
X135372741Y-78345606D01*
X135320080Y-78254394D01*
X135245606Y-78179920D01*
X135154394Y-78127259D01*
X135052661Y-78100000D01*
X135046447Y-78100000D01*
X135725472Y-77420974D01*
X135652478Y-77369863D01*
X135446331Y-77273735D01*
X135446317Y-77273730D01*
X135226610Y-77214860D01*
X135226599Y-77214858D01*
X135000002Y-77195034D01*
X134999998Y-77195034D01*
X134773400Y-77214858D01*
X134773389Y-77214860D01*
X134553682Y-77273730D01*
X134553673Y-77273734D01*
X134347512Y-77369868D01*
X134347507Y-77369871D01*
X134334736Y-77378813D01*
X134268529Y-77401138D01*
X134200763Y-77384124D01*
X134164352Y-77351546D01*
X134157546Y-77342454D01*
X134157544Y-77342453D01*
X134157544Y-77342452D01*
X134042335Y-77256206D01*
X134042328Y-77256202D01*
X133907482Y-77205908D01*
X133907483Y-77205908D01*
X133847883Y-77199501D01*
X133847881Y-77199500D01*
X133847873Y-77199500D01*
X133847864Y-77199500D01*
X132152129Y-77199500D01*
X132152123Y-77199501D01*
X132092516Y-77205908D01*
X131957671Y-77256202D01*
X131957664Y-77256206D01*
X131842455Y-77342452D01*
X131842452Y-77342455D01*
X131756206Y-77457664D01*
X131756202Y-77457671D01*
X131705908Y-77592517D01*
X131699501Y-77652116D01*
X131699500Y-77652135D01*
X130672531Y-77652135D01*
X130665635Y-77573308D01*
X130614944Y-77384124D01*
X130606741Y-77353511D01*
X130606738Y-77353502D01*
X130579755Y-77295637D01*
X130510568Y-77147266D01*
X130380047Y-76960861D01*
X130380045Y-76960858D01*
X130219141Y-76799954D01*
X130032734Y-76669432D01*
X130032732Y-76669431D01*
X129826497Y-76573261D01*
X129826488Y-76573258D01*
X129606697Y-76514366D01*
X129606693Y-76514365D01*
X129606692Y-76514365D01*
X129606691Y-76514364D01*
X129606686Y-76514364D01*
X129380002Y-76494532D01*
X129379999Y-76494532D01*
X129374634Y-76495001D01*
X129306134Y-76481230D01*
X129255955Y-76432611D01*
X129240026Y-76364582D01*
X129263405Y-76298740D01*
X129276146Y-76283799D01*
X130505277Y-75054669D01*
X130572573Y-74953950D01*
X130626183Y-74909148D01*
X130695508Y-74900439D01*
X130758536Y-74930594D01*
X130769605Y-74942697D01*
X130773455Y-74946547D01*
X130888664Y-75032793D01*
X130888671Y-75032797D01*
X131023517Y-75083091D01*
X131023516Y-75083091D01*
X131030444Y-75083835D01*
X131083127Y-75089500D01*
X132676872Y-75089499D01*
X132736483Y-75083091D01*
X132871331Y-75032796D01*
X132986546Y-74946546D01*
X133072796Y-74831331D01*
X133123091Y-74696483D01*
X133129500Y-74636873D01*
X133129499Y-73043128D01*
X133123091Y-72983517D01*
X133118499Y-72971206D01*
X133072797Y-72848671D01*
X133072793Y-72848664D01*
X132986547Y-72733455D01*
X132986544Y-72733452D01*
X132871335Y-72647206D01*
X132871328Y-72647202D01*
X132736482Y-72596908D01*
X132736483Y-72596908D01*
X132676883Y-72590501D01*
X132676881Y-72590500D01*
X132676873Y-72590500D01*
X132676864Y-72590500D01*
X131083129Y-72590500D01*
X131083123Y-72590501D01*
X131023516Y-72596908D01*
X130888671Y-72647202D01*
X130888664Y-72647206D01*
X130848811Y-72677041D01*
X130783347Y-72701459D01*
X130715074Y-72686608D01*
X130665668Y-72637203D01*
X130650500Y-72577775D01*
X130650500Y-71820808D01*
X130670185Y-71753769D01*
X130686819Y-71733127D01*
X130733127Y-71686819D01*
X130794450Y-71653334D01*
X130820808Y-71650500D01*
X136744071Y-71650500D01*
X136828615Y-71633682D01*
X136869744Y-71625501D01*
X136988127Y-71576465D01*
X137021644Y-71554070D01*
X137021645Y-71554070D01*
X137078050Y-71516381D01*
X137094669Y-71505277D01*
X138473628Y-70126317D01*
X138534948Y-70092834D01*
X138561306Y-70090000D01*
X139564314Y-70090000D01*
X139559920Y-70094394D01*
X139507259Y-70185606D01*
X139480000Y-70287339D01*
X139480000Y-70392661D01*
X139507259Y-70494394D01*
X139559920Y-70585606D01*
X139564314Y-70590000D01*
X138601128Y-70590000D01*
X138633611Y-70711231D01*
X138631948Y-70781081D01*
X138592785Y-70838943D01*
X138545661Y-70861323D01*
X138546088Y-70862730D01*
X138540255Y-70864499D01*
X138421874Y-70913534D01*
X138315326Y-70984726D01*
X136725296Y-72574756D01*
X136663973Y-72608241D01*
X136605530Y-72606852D01*
X136597811Y-72604784D01*
X136597805Y-72604783D01*
X136597802Y-72604782D01*
X136597798Y-72604781D01*
X136597795Y-72604781D01*
X136380002Y-72585727D01*
X136379998Y-72585727D01*
X136162203Y-72604781D01*
X136162192Y-72604783D01*
X135951020Y-72661366D01*
X135951011Y-72661370D01*
X135752866Y-72753766D01*
X135573766Y-72879172D01*
X135419172Y-73033766D01*
X135293766Y-73212866D01*
X135201370Y-73411011D01*
X135201366Y-73411020D01*
X135144783Y-73622192D01*
X135144781Y-73622203D01*
X135125727Y-73839998D01*
X135125727Y-73840001D01*
X135144781Y-74057796D01*
X135144783Y-74057807D01*
X135201366Y-74268979D01*
X135201368Y-74268983D01*
X135201369Y-74268987D01*
X135265666Y-74406872D01*
X135293768Y-74467137D01*
X135293770Y-74467141D01*
X135419167Y-74646226D01*
X135419172Y-74646232D01*
X135573767Y-74800827D01*
X135573773Y-74800832D01*
X135752858Y-74926229D01*
X135752860Y-74926230D01*
X135752863Y-74926232D01*
X135951013Y-75018631D01*
X136162198Y-75075218D01*
X136317770Y-75088828D01*
X136379998Y-75094273D01*
X136380000Y-75094273D01*
X136380002Y-75094273D01*
X136434579Y-75089498D01*
X136597802Y-75075218D01*
X136808987Y-75018631D01*
X137007137Y-74926232D01*
X137186231Y-74800829D01*
X137340829Y-74646231D01*
X137466232Y-74467137D01*
X137558631Y-74268987D01*
X137615218Y-74057802D01*
X137634273Y-73840000D01*
X137615218Y-73622198D01*
X137613150Y-73614480D01*
X137614809Y-73544633D01*
X137645240Y-73494704D01*
X138473628Y-72666317D01*
X138534948Y-72632834D01*
X138561306Y-72630000D01*
X139564314Y-72630000D01*
X139559920Y-72634394D01*
X139507259Y-72725606D01*
X139480000Y-72827339D01*
X139480000Y-72932661D01*
X139507259Y-73034394D01*
X139559920Y-73125606D01*
X139564314Y-73130000D01*
X138601128Y-73130000D01*
X138653730Y-73326317D01*
X138653734Y-73326326D01*
X138749865Y-73532482D01*
X138880342Y-73718820D01*
X139041179Y-73879657D01*
X139227518Y-74010134D01*
X139227520Y-74010135D01*
X139285865Y-74037342D01*
X139338305Y-74083514D01*
X139357457Y-74150707D01*
X139337242Y-74217589D01*
X139285867Y-74262105D01*
X139271108Y-74268988D01*
X139227264Y-74289433D01*
X139040858Y-74419954D01*
X138879954Y-74580858D01*
X138749432Y-74767265D01*
X138749431Y-74767267D01*
X138653261Y-74973502D01*
X138653258Y-74973511D01*
X138594366Y-75193302D01*
X138594364Y-75193313D01*
X138574532Y-75419998D01*
X138574532Y-75420001D01*
X138594364Y-75646686D01*
X138594366Y-75646697D01*
X138653258Y-75866488D01*
X138653261Y-75866497D01*
X138749431Y-76072732D01*
X138749432Y-76072734D01*
X138879954Y-76259141D01*
X139040858Y-76420045D01*
X139040861Y-76420047D01*
X139227266Y-76550568D01*
X139285275Y-76577618D01*
X139337714Y-76623791D01*
X139356866Y-76690984D01*
X139336650Y-76757865D01*
X139285275Y-76802382D01*
X139227267Y-76829431D01*
X139227265Y-76829432D01*
X139040858Y-76959954D01*
X138879954Y-77120858D01*
X138749432Y-77307265D01*
X138749431Y-77307267D01*
X138653261Y-77513502D01*
X138653258Y-77513511D01*
X138594366Y-77733302D01*
X138594364Y-77733313D01*
X138574532Y-77959998D01*
X138574532Y-77960001D01*
X138594364Y-78186686D01*
X138594366Y-78186697D01*
X138653258Y-78406488D01*
X138653261Y-78406497D01*
X138749431Y-78612732D01*
X138749432Y-78612734D01*
X138879954Y-78799141D01*
X139040858Y-78960045D01*
X139040861Y-78960047D01*
X139227266Y-79090568D01*
X139285275Y-79117618D01*
X139337714Y-79163791D01*
X139356866Y-79230984D01*
X139336650Y-79297865D01*
X139285275Y-79342382D01*
X139227267Y-79369431D01*
X139227265Y-79369432D01*
X139040858Y-79499954D01*
X138879954Y-79660858D01*
X138749432Y-79847265D01*
X138749431Y-79847267D01*
X138653261Y-80053502D01*
X138653258Y-80053511D01*
X138594366Y-80273302D01*
X138594364Y-80273313D01*
X138574532Y-80499998D01*
X138574532Y-80500001D01*
X138594364Y-80726686D01*
X138594366Y-80726697D01*
X138653258Y-80946488D01*
X138653261Y-80946497D01*
X138749431Y-81152732D01*
X138749432Y-81152734D01*
X138879954Y-81339141D01*
X139040858Y-81500045D01*
X139040861Y-81500047D01*
X139227266Y-81630568D01*
X139285275Y-81657618D01*
X139337714Y-81703791D01*
X139356866Y-81770984D01*
X139336650Y-81837865D01*
X139285275Y-81882382D01*
X139227267Y-81909431D01*
X139227265Y-81909432D01*
X139040858Y-82039954D01*
X138879954Y-82200858D01*
X138749432Y-82387265D01*
X138749431Y-82387267D01*
X138653261Y-82593502D01*
X138653258Y-82593511D01*
X138594366Y-82813302D01*
X138594364Y-82813313D01*
X138574532Y-83039998D01*
X138574532Y-83040001D01*
X138594364Y-83266686D01*
X138594366Y-83266697D01*
X138653258Y-83486488D01*
X138653261Y-83486497D01*
X138749431Y-83692732D01*
X138749432Y-83692734D01*
X138879954Y-83879141D01*
X139040858Y-84040045D01*
X139040861Y-84040047D01*
X139227266Y-84170568D01*
X139285865Y-84197893D01*
X139338305Y-84244065D01*
X139357457Y-84311258D01*
X139337242Y-84378139D01*
X139285867Y-84422657D01*
X139227515Y-84449867D01*
X139041179Y-84580342D01*
X138880342Y-84741179D01*
X138749865Y-84927517D01*
X138653734Y-85133673D01*
X138653730Y-85133682D01*
X138601127Y-85329999D01*
X138601128Y-85330000D01*
X139564314Y-85330000D01*
X139559920Y-85334394D01*
X139507259Y-85425606D01*
X139480000Y-85527339D01*
X139480000Y-85632661D01*
X139507259Y-85734394D01*
X139559920Y-85825606D01*
X139564314Y-85830000D01*
X138601128Y-85830000D01*
X138653730Y-86026317D01*
X138653734Y-86026326D01*
X138749865Y-86232482D01*
X138880342Y-86418820D01*
X139041179Y-86579657D01*
X139227517Y-86710134D01*
X139433673Y-86806265D01*
X139433682Y-86806269D01*
X139629999Y-86858872D01*
X139630000Y-86858871D01*
X139630000Y-85895686D01*
X139634394Y-85900080D01*
X139725606Y-85952741D01*
X139827339Y-85980000D01*
X139932661Y-85980000D01*
X140034394Y-85952741D01*
X140125606Y-85900080D01*
X140130000Y-85895686D01*
X140130000Y-86858872D01*
X140326317Y-86806269D01*
X140326326Y-86806265D01*
X140532482Y-86710134D01*
X140718820Y-86579657D01*
X140879657Y-86418820D01*
X141010134Y-86232482D01*
X141106265Y-86026326D01*
X141108121Y-86021231D01*
X141109711Y-86021809D01*
X141142089Y-85968689D01*
X141204935Y-85938159D01*
X141274311Y-85946453D01*
X141328190Y-85990938D01*
X141349465Y-86057489D01*
X141349500Y-86060442D01*
X141349500Y-87564069D01*
X141349500Y-87564071D01*
X141349499Y-87564071D01*
X141371503Y-87674686D01*
X141374498Y-87689740D01*
X141374500Y-87689747D01*
X141423533Y-87808125D01*
X141494726Y-87914673D01*
X142585325Y-89005272D01*
X142585331Y-89005277D01*
X142691874Y-89076466D01*
X142761221Y-89105189D01*
X142810256Y-89125501D01*
X142810259Y-89125501D01*
X142810260Y-89125502D01*
X142935928Y-89150500D01*
X142935931Y-89150500D01*
X143064069Y-89150500D01*
X143599441Y-89150500D01*
X143666480Y-89170185D01*
X143712235Y-89222989D01*
X143722179Y-89292147D01*
X143716483Y-89315454D01*
X143714632Y-89320742D01*
X143714630Y-89320750D01*
X143694435Y-89499996D01*
X143694435Y-89500003D01*
X143714630Y-89679249D01*
X143714631Y-89679254D01*
X143774211Y-89849523D01*
X143870184Y-90002262D01*
X143997738Y-90129816D01*
X144150478Y-90225789D01*
X144320739Y-90285366D01*
X144320745Y-90285368D01*
X144320750Y-90285369D01*
X144499996Y-90305565D01*
X144500000Y-90305565D01*
X144500004Y-90305565D01*
X144679249Y-90285369D01*
X144679251Y-90285368D01*
X144679255Y-90285368D01*
X144679258Y-90285366D01*
X144679262Y-90285366D01*
X144769377Y-90253832D01*
X144849522Y-90225789D01*
X144939096Y-90169505D01*
X145005068Y-90150500D01*
X150064071Y-90150500D01*
X150148615Y-90133682D01*
X150189744Y-90125501D01*
X150308127Y-90076465D01*
X150414669Y-90005277D01*
X154267811Y-86152135D01*
X156619500Y-86152135D01*
X156619500Y-88847870D01*
X156619501Y-88847876D01*
X156625908Y-88907483D01*
X156676202Y-89042328D01*
X156676206Y-89042335D01*
X156762452Y-89157544D01*
X156762455Y-89157547D01*
X156877664Y-89243793D01*
X156877671Y-89243797D01*
X157012517Y-89294091D01*
X157012516Y-89294091D01*
X157019444Y-89294835D01*
X157072127Y-89300500D01*
X159767872Y-89300499D01*
X159827483Y-89294091D01*
X159962331Y-89243796D01*
X160077546Y-89157546D01*
X160163796Y-89042331D01*
X160214091Y-88907483D01*
X160220500Y-88847873D01*
X160220499Y-87499995D01*
X161694953Y-87499995D01*
X161694953Y-87500004D01*
X161715113Y-87769026D01*
X161715113Y-87769028D01*
X161775142Y-88032033D01*
X161775148Y-88032052D01*
X161873709Y-88283181D01*
X161873708Y-88283181D01*
X162008602Y-88516822D01*
X162062294Y-88584151D01*
X162062295Y-88584151D01*
X162898958Y-87747488D01*
X162923978Y-87807890D01*
X162995112Y-87914351D01*
X163085649Y-88004888D01*
X163192110Y-88076022D01*
X163252510Y-88101041D01*
X162414848Y-88938702D01*
X162597483Y-89063220D01*
X162597485Y-89063221D01*
X162840539Y-89180269D01*
X162840537Y-89180269D01*
X163098337Y-89259790D01*
X163098343Y-89259792D01*
X163365101Y-89299999D01*
X163365110Y-89300000D01*
X163634890Y-89300000D01*
X163634898Y-89299999D01*
X163901656Y-89259792D01*
X163901662Y-89259790D01*
X164159461Y-89180269D01*
X164402521Y-89063218D01*
X164585150Y-88938702D01*
X163747488Y-88101041D01*
X163807890Y-88076022D01*
X163914351Y-88004888D01*
X164004888Y-87914351D01*
X164076022Y-87807890D01*
X164101041Y-87747488D01*
X164937703Y-88584151D01*
X164937704Y-88584150D01*
X164991393Y-88516828D01*
X164991400Y-88516817D01*
X165126290Y-88283181D01*
X165224851Y-88032052D01*
X165224857Y-88032033D01*
X165284886Y-87769028D01*
X165284886Y-87769026D01*
X165305047Y-87500004D01*
X165305047Y-87499995D01*
X165284886Y-87230973D01*
X165284886Y-87230971D01*
X165224857Y-86967966D01*
X165224851Y-86967947D01*
X165126290Y-86716818D01*
X165126291Y-86716818D01*
X164991397Y-86483177D01*
X164937704Y-86415847D01*
X164101041Y-87252510D01*
X164076022Y-87192110D01*
X164004888Y-87085649D01*
X163914351Y-86995112D01*
X163807890Y-86923978D01*
X163747488Y-86898958D01*
X164585150Y-86061296D01*
X164402517Y-85936779D01*
X164402516Y-85936778D01*
X164159460Y-85819730D01*
X164159462Y-85819730D01*
X163901662Y-85740209D01*
X163901656Y-85740207D01*
X163634898Y-85700000D01*
X163365101Y-85700000D01*
X163098343Y-85740207D01*
X163098337Y-85740209D01*
X162840538Y-85819730D01*
X162597485Y-85936778D01*
X162597476Y-85936783D01*
X162414848Y-86061296D01*
X163252511Y-86898958D01*
X163192110Y-86923978D01*
X163085649Y-86995112D01*
X162995112Y-87085649D01*
X162923978Y-87192110D01*
X162898958Y-87252511D01*
X162062295Y-86415848D01*
X162008600Y-86483180D01*
X161873709Y-86716818D01*
X161775148Y-86967947D01*
X161775142Y-86967966D01*
X161715113Y-87230971D01*
X161715113Y-87230973D01*
X161694953Y-87499995D01*
X160220499Y-87499995D01*
X160220499Y-86152128D01*
X160214091Y-86092517D01*
X160208630Y-86077876D01*
X160163797Y-85957671D01*
X160163793Y-85957664D01*
X160077547Y-85842455D01*
X160077544Y-85842452D01*
X159962335Y-85756206D01*
X159962328Y-85756202D01*
X159827482Y-85705908D01*
X159827483Y-85705908D01*
X159767883Y-85699501D01*
X159767881Y-85699500D01*
X159767873Y-85699500D01*
X159767864Y-85699500D01*
X157072129Y-85699500D01*
X157072123Y-85699501D01*
X157012516Y-85705908D01*
X156877671Y-85756202D01*
X156877664Y-85756206D01*
X156762455Y-85842452D01*
X156762452Y-85842455D01*
X156676206Y-85957664D01*
X156676202Y-85957671D01*
X156625908Y-86092517D01*
X156619957Y-86147872D01*
X156619501Y-86152123D01*
X156619500Y-86152135D01*
X154267811Y-86152135D01*
X165005277Y-75414669D01*
X165076466Y-75308126D01*
X165114433Y-75216465D01*
X165125501Y-75189744D01*
X165144492Y-75094273D01*
X165150500Y-75064071D01*
X165150500Y-74005067D01*
X165169507Y-73939094D01*
X165225788Y-73849524D01*
X165225789Y-73849522D01*
X165285368Y-73679255D01*
X165285369Y-73679249D01*
X165305565Y-73500003D01*
X165305565Y-73499996D01*
X165285369Y-73320750D01*
X165285368Y-73320745D01*
X165261572Y-73252741D01*
X165225789Y-73150478D01*
X165129816Y-72997738D01*
X165002262Y-72870184D01*
X164849523Y-72774211D01*
X164679254Y-72714631D01*
X164679249Y-72714630D01*
X164500004Y-72694435D01*
X164499996Y-72694435D01*
X164320750Y-72714630D01*
X164320745Y-72714631D01*
X164150476Y-72774211D01*
X163997737Y-72870184D01*
X163870184Y-72997737D01*
X163854994Y-73021913D01*
X163802659Y-73068204D01*
X163733605Y-73078852D01*
X163669757Y-73050477D01*
X163645006Y-73021913D01*
X163631103Y-72999787D01*
X163629816Y-72997738D01*
X163502262Y-72870184D01*
X163349523Y-72774211D01*
X163179254Y-72714631D01*
X163179249Y-72714630D01*
X163000004Y-72694435D01*
X162999996Y-72694435D01*
X162820750Y-72714630D01*
X162820745Y-72714631D01*
X162650476Y-72774211D01*
X162497737Y-72870184D01*
X162370184Y-72997737D01*
X162274211Y-73150476D01*
X162214631Y-73320745D01*
X162214630Y-73320750D01*
X162194435Y-73499996D01*
X162194435Y-73500003D01*
X162214630Y-73679249D01*
X162214631Y-73679254D01*
X162274211Y-73849524D01*
X162330493Y-73939094D01*
X162349500Y-74005067D01*
X162349500Y-74679191D01*
X162329815Y-74746230D01*
X162313181Y-74766872D01*
X158914374Y-78165678D01*
X158853051Y-78199163D01*
X158783359Y-78194179D01*
X158727426Y-78152307D01*
X158721699Y-78143969D01*
X158629816Y-77997738D01*
X158502262Y-77870184D01*
X158349523Y-77774211D01*
X158179254Y-77714631D01*
X158179249Y-77714630D01*
X158000004Y-77694435D01*
X157999996Y-77694435D01*
X157820750Y-77714630D01*
X157820745Y-77714631D01*
X157650476Y-77774211D01*
X157497737Y-77870184D01*
X157370184Y-77997737D01*
X157274210Y-78150478D01*
X157214632Y-78320744D01*
X157214630Y-78320752D01*
X157213815Y-78327988D01*
X157186743Y-78392400D01*
X157178277Y-78401775D01*
X154266873Y-81313181D01*
X154205550Y-81346666D01*
X154179192Y-81349500D01*
X151860808Y-81349500D01*
X151793769Y-81329815D01*
X151773127Y-81313181D01*
X148806884Y-78346938D01*
X148773399Y-78285615D01*
X148774791Y-78227162D01*
X148782293Y-78199163D01*
X148785635Y-78186692D01*
X148805207Y-77962981D01*
X148805468Y-77960001D01*
X148805468Y-77959998D01*
X148790190Y-77785368D01*
X148785635Y-77733308D01*
X148785634Y-77733307D01*
X148785163Y-77727914D01*
X148787453Y-77727713D01*
X148794108Y-77668020D01*
X148838162Y-77613789D01*
X148904542Y-77591985D01*
X148972173Y-77609529D01*
X148996163Y-77628241D01*
X148997738Y-77629816D01*
X149050022Y-77662668D01*
X149132721Y-77714632D01*
X149150478Y-77725789D01*
X149291081Y-77774988D01*
X149320745Y-77785368D01*
X149320750Y-77785369D01*
X149499996Y-77805565D01*
X149500000Y-77805565D01*
X149500004Y-77805565D01*
X149679249Y-77785369D01*
X149679252Y-77785368D01*
X149679255Y-77785368D01*
X149849522Y-77725789D01*
X149867279Y-77714632D01*
X149934027Y-77672691D01*
X150001264Y-77653690D01*
X150065973Y-77672691D01*
X150150475Y-77725788D01*
X150320745Y-77785368D01*
X150320750Y-77785369D01*
X150499996Y-77805565D01*
X150500000Y-77805565D01*
X150500004Y-77805565D01*
X150679249Y-77785369D01*
X150679252Y-77785368D01*
X150679255Y-77785368D01*
X150849522Y-77725789D01*
X151002262Y-77629816D01*
X151129816Y-77502262D01*
X151225789Y-77349522D01*
X151277579Y-77201512D01*
X151318299Y-77144739D01*
X151383252Y-77118991D01*
X151451814Y-77132447D01*
X151502217Y-77180834D01*
X151517093Y-77223070D01*
X151528587Y-77295637D01*
X151589993Y-77484629D01*
X151589994Y-77484632D01*
X151635180Y-77573313D01*
X151680213Y-77661694D01*
X151797019Y-77822464D01*
X151937536Y-77962981D01*
X152098306Y-78079787D01*
X152177385Y-78120080D01*
X152254780Y-78159515D01*
X152305576Y-78207490D01*
X152322371Y-78275311D01*
X152299833Y-78341446D01*
X152254780Y-78380485D01*
X152098305Y-78460213D01*
X151937533Y-78577021D01*
X151797021Y-78717533D01*
X151680213Y-78878305D01*
X151589994Y-79055367D01*
X151589993Y-79055370D01*
X151528587Y-79244362D01*
X151508778Y-79369431D01*
X151497500Y-79440639D01*
X151497500Y-79639361D01*
X151505088Y-79687267D01*
X151528587Y-79835637D01*
X151589993Y-80024629D01*
X151589994Y-80024632D01*
X151635180Y-80113313D01*
X151680213Y-80201694D01*
X151797019Y-80362464D01*
X151937536Y-80502981D01*
X152098306Y-80619787D01*
X152185149Y-80664035D01*
X152275367Y-80710005D01*
X152275370Y-80710006D01*
X152326741Y-80726697D01*
X152464364Y-80771413D01*
X152660639Y-80802500D01*
X152660640Y-80802500D01*
X153859360Y-80802500D01*
X153859361Y-80802500D01*
X154055636Y-80771413D01*
X154244632Y-80710005D01*
X154421694Y-80619787D01*
X154582464Y-80502981D01*
X154722981Y-80362464D01*
X154839787Y-80201694D01*
X154930005Y-80024632D01*
X154991413Y-79835636D01*
X155022500Y-79639361D01*
X155022500Y-79440639D01*
X154991413Y-79244364D01*
X154950231Y-79117618D01*
X154930006Y-79055370D01*
X154930005Y-79055367D01*
X154866415Y-78930567D01*
X154839787Y-78878306D01*
X154722981Y-78717536D01*
X154582464Y-78577019D01*
X154421694Y-78460213D01*
X154265218Y-78380484D01*
X154214423Y-78332510D01*
X154197628Y-78264689D01*
X154220165Y-78198554D01*
X154265218Y-78159515D01*
X154421694Y-78079787D01*
X154582464Y-77962981D01*
X154722981Y-77822464D01*
X154839787Y-77661694D01*
X154930005Y-77484632D01*
X154991413Y-77295636D01*
X155022500Y-77099361D01*
X155022500Y-76900639D01*
X154991413Y-76704364D01*
X154950231Y-76577618D01*
X154930006Y-76515370D01*
X154930005Y-76515367D01*
X154839786Y-76338305D01*
X154722981Y-76177536D01*
X154582464Y-76037019D01*
X154421694Y-75920213D01*
X154265218Y-75840484D01*
X154214423Y-75792510D01*
X154197628Y-75724689D01*
X154220165Y-75658554D01*
X154265218Y-75619515D01*
X154421694Y-75539787D01*
X154582464Y-75422981D01*
X154722981Y-75282464D01*
X154839787Y-75121694D01*
X154930005Y-74944632D01*
X154991413Y-74755636D01*
X155022500Y-74559361D01*
X155022500Y-74360639D01*
X154991413Y-74164364D01*
X154956145Y-74055820D01*
X154930006Y-73975370D01*
X154930005Y-73975367D01*
X154839786Y-73798305D01*
X154722981Y-73637536D01*
X154582464Y-73497019D01*
X154421694Y-73380213D01*
X154265218Y-73300484D01*
X154214423Y-73252510D01*
X154197628Y-73184689D01*
X154220165Y-73118554D01*
X154265218Y-73079515D01*
X154421694Y-72999787D01*
X154582464Y-72882981D01*
X154722981Y-72742464D01*
X154839787Y-72581694D01*
X154930005Y-72404632D01*
X154991413Y-72215636D01*
X155022500Y-72019361D01*
X155022500Y-71820639D01*
X154991413Y-71624364D01*
X154960709Y-71529866D01*
X154930006Y-71435370D01*
X154930005Y-71435367D01*
X154881435Y-71340045D01*
X154839787Y-71258306D01*
X154722981Y-71097536D01*
X154582464Y-70957019D01*
X154458310Y-70866816D01*
X154415646Y-70811487D01*
X154409667Y-70741874D01*
X154442273Y-70680079D01*
X154503112Y-70645721D01*
X154531196Y-70642499D01*
X154569872Y-70642499D01*
X154629483Y-70636091D01*
X154764331Y-70585796D01*
X154879546Y-70499546D01*
X154965796Y-70384331D01*
X155016091Y-70249483D01*
X155022500Y-70189873D01*
X155022499Y-69280639D01*
X166737500Y-69280639D01*
X166737500Y-69479360D01*
X166768587Y-69675637D01*
X166829993Y-69864629D01*
X166829994Y-69864632D01*
X166914509Y-70030500D01*
X166920213Y-70041694D01*
X167037019Y-70202464D01*
X167177536Y-70342981D01*
X167338306Y-70459787D01*
X167416333Y-70499544D01*
X167494780Y-70539515D01*
X167545576Y-70587490D01*
X167562371Y-70655311D01*
X167539833Y-70721446D01*
X167494780Y-70760485D01*
X167338305Y-70840213D01*
X167177533Y-70957021D01*
X167037021Y-71097533D01*
X166920213Y-71258305D01*
X166829994Y-71435367D01*
X166829993Y-71435370D01*
X166768587Y-71624362D01*
X166737500Y-71820639D01*
X166737500Y-72019360D01*
X166768587Y-72215637D01*
X166829993Y-72404629D01*
X166829994Y-72404632D01*
X166916678Y-72574756D01*
X166920213Y-72581694D01*
X167037019Y-72742464D01*
X167177536Y-72882981D01*
X167338306Y-72999787D01*
X167423367Y-73043128D01*
X167494780Y-73079515D01*
X167545576Y-73127490D01*
X167562371Y-73195311D01*
X167539833Y-73261446D01*
X167494780Y-73300485D01*
X167338305Y-73380213D01*
X167177533Y-73497021D01*
X167037021Y-73637533D01*
X166920213Y-73798305D01*
X166829994Y-73975367D01*
X166829993Y-73975370D01*
X166768587Y-74164362D01*
X166737500Y-74360639D01*
X166737500Y-74559360D01*
X166768587Y-74755637D01*
X166829993Y-74944629D01*
X166829994Y-74944632D01*
X166903808Y-75089498D01*
X166920213Y-75121694D01*
X167037019Y-75282464D01*
X167177536Y-75422981D01*
X167338306Y-75539787D01*
X167456832Y-75600179D01*
X167494780Y-75619515D01*
X167545576Y-75667490D01*
X167562371Y-75735311D01*
X167539833Y-75801446D01*
X167494780Y-75840485D01*
X167338305Y-75920213D01*
X167177533Y-76037021D01*
X167037021Y-76177533D01*
X166920213Y-76338305D01*
X166829994Y-76515367D01*
X166829993Y-76515370D01*
X166768587Y-76704362D01*
X166748778Y-76829431D01*
X166737500Y-76900639D01*
X166737500Y-77099361D01*
X166745088Y-77147267D01*
X166768587Y-77295637D01*
X166829993Y-77484629D01*
X166829994Y-77484632D01*
X166875180Y-77573313D01*
X166920213Y-77661694D01*
X167037019Y-77822464D01*
X167177536Y-77962981D01*
X167338306Y-78079787D01*
X167417385Y-78120080D01*
X167494780Y-78159515D01*
X167545576Y-78207490D01*
X167562371Y-78275311D01*
X167539833Y-78341446D01*
X167494780Y-78380485D01*
X167338305Y-78460213D01*
X167177533Y-78577021D01*
X167037021Y-78717533D01*
X166920213Y-78878305D01*
X166829994Y-79055367D01*
X166829993Y-79055370D01*
X166768587Y-79244362D01*
X166748778Y-79369431D01*
X166737500Y-79440639D01*
X166737500Y-79639361D01*
X166745088Y-79687267D01*
X166768587Y-79835637D01*
X166829993Y-80024629D01*
X166829994Y-80024632D01*
X166875180Y-80113313D01*
X166920213Y-80201694D01*
X167037019Y-80362464D01*
X167177536Y-80502981D01*
X167338306Y-80619787D01*
X167425149Y-80664035D01*
X167515367Y-80710005D01*
X167515370Y-80710006D01*
X167566741Y-80726697D01*
X167704364Y-80771413D01*
X167900639Y-80802500D01*
X167900640Y-80802500D01*
X169099360Y-80802500D01*
X169099361Y-80802500D01*
X169295636Y-80771413D01*
X169484632Y-80710005D01*
X169661694Y-80619787D01*
X169822464Y-80502981D01*
X169962981Y-80362464D01*
X170079787Y-80201694D01*
X170170005Y-80024632D01*
X170231413Y-79835636D01*
X170262500Y-79639361D01*
X170262500Y-79440639D01*
X170231413Y-79244364D01*
X170190231Y-79117618D01*
X170170006Y-79055370D01*
X170170005Y-79055367D01*
X170106415Y-78930567D01*
X170079787Y-78878306D01*
X169962981Y-78717536D01*
X169822464Y-78577019D01*
X169661694Y-78460213D01*
X169505218Y-78380484D01*
X169454423Y-78332510D01*
X169437628Y-78264689D01*
X169460165Y-78198554D01*
X169505218Y-78159515D01*
X169661694Y-78079787D01*
X169822464Y-77962981D01*
X169962981Y-77822464D01*
X170079787Y-77661694D01*
X170170005Y-77484632D01*
X170231413Y-77295636D01*
X170262500Y-77099361D01*
X170262500Y-76900639D01*
X170231413Y-76704364D01*
X170190231Y-76577618D01*
X170170006Y-76515370D01*
X170170005Y-76515367D01*
X170079786Y-76338305D01*
X169962981Y-76177536D01*
X169822464Y-76037019D01*
X169661694Y-75920213D01*
X169505218Y-75840484D01*
X169454423Y-75792510D01*
X169437628Y-75724689D01*
X169460165Y-75658554D01*
X169505218Y-75619515D01*
X169661694Y-75539787D01*
X169822464Y-75422981D01*
X169962981Y-75282464D01*
X170079787Y-75121694D01*
X170170005Y-74944632D01*
X170231413Y-74755636D01*
X170262500Y-74559361D01*
X170262500Y-74360639D01*
X170231413Y-74164364D01*
X170196145Y-74055820D01*
X170170006Y-73975370D01*
X170170005Y-73975367D01*
X170079786Y-73798305D01*
X169962981Y-73637536D01*
X169822464Y-73497019D01*
X169661694Y-73380213D01*
X169505218Y-73300484D01*
X169454423Y-73252510D01*
X169437628Y-73184689D01*
X169460165Y-73118554D01*
X169505218Y-73079515D01*
X169661694Y-72999787D01*
X169822464Y-72882981D01*
X169962981Y-72742464D01*
X170079787Y-72581694D01*
X170170005Y-72404632D01*
X170231413Y-72215636D01*
X170262500Y-72019361D01*
X170262500Y-71820639D01*
X170231413Y-71624364D01*
X170200709Y-71529866D01*
X170170006Y-71435370D01*
X170170005Y-71435367D01*
X170121435Y-71340045D01*
X170079787Y-71258306D01*
X169962981Y-71097536D01*
X169822464Y-70957019D01*
X169661694Y-70840213D01*
X169505218Y-70760484D01*
X169454423Y-70712510D01*
X169437628Y-70644689D01*
X169460165Y-70578554D01*
X169505218Y-70539515D01*
X169661694Y-70459787D01*
X169822464Y-70342981D01*
X169962981Y-70202464D01*
X170079787Y-70041694D01*
X170170005Y-69864632D01*
X170231413Y-69675636D01*
X170262500Y-69479361D01*
X170262500Y-69280639D01*
X170231413Y-69084364D01*
X170170005Y-68895368D01*
X170170005Y-68895367D01*
X170098227Y-68754497D01*
X170079787Y-68718306D01*
X169962981Y-68557536D01*
X169822464Y-68417019D01*
X169661694Y-68300213D01*
X169484632Y-68209994D01*
X169484629Y-68209993D01*
X169295637Y-68148587D01*
X169173175Y-68129191D01*
X169099361Y-68117500D01*
X167900639Y-68117500D01*
X167835214Y-68127862D01*
X167704362Y-68148587D01*
X167515370Y-68209993D01*
X167515367Y-68209994D01*
X167338305Y-68300213D01*
X167177533Y-68417021D01*
X167037021Y-68557533D01*
X166920213Y-68718305D01*
X166829994Y-68895367D01*
X166829993Y-68895370D01*
X166768587Y-69084362D01*
X166737500Y-69280639D01*
X155022499Y-69280639D01*
X155022499Y-68570128D01*
X155016091Y-68510517D01*
X154994539Y-68452734D01*
X154965797Y-68375671D01*
X154965793Y-68375664D01*
X154879547Y-68260455D01*
X154879544Y-68260452D01*
X154764335Y-68174206D01*
X154764328Y-68174202D01*
X154629482Y-68123908D01*
X154629483Y-68123908D01*
X154569883Y-68117501D01*
X154569881Y-68117500D01*
X154569873Y-68117500D01*
X154569864Y-68117500D01*
X151950129Y-68117500D01*
X151950123Y-68117501D01*
X151890516Y-68123908D01*
X151755671Y-68174202D01*
X151755664Y-68174206D01*
X151640455Y-68260452D01*
X151640452Y-68260455D01*
X151554206Y-68375664D01*
X151554202Y-68375671D01*
X151503908Y-68510517D01*
X151497501Y-68570116D01*
X151497501Y-68570123D01*
X151497500Y-68570135D01*
X151497500Y-68605500D01*
X151477815Y-68672539D01*
X151425011Y-68718294D01*
X151373500Y-68729500D01*
X151055929Y-68729500D01*
X150930261Y-68754497D01*
X150930255Y-68754499D01*
X150811874Y-68803534D01*
X150705326Y-68874726D01*
X149004703Y-70575349D01*
X148943380Y-70608834D01*
X148873688Y-70603850D01*
X148817755Y-70561978D01*
X148793338Y-70496514D01*
X148793494Y-70476860D01*
X148798160Y-70423535D01*
X148805468Y-70340000D01*
X148785635Y-70113308D01*
X148726739Y-69893504D01*
X148630568Y-69687266D01*
X148500047Y-69500861D01*
X148500045Y-69500858D01*
X148339141Y-69339954D01*
X148152734Y-69209432D01*
X148152728Y-69209429D01*
X148094725Y-69182382D01*
X148042285Y-69136210D01*
X148023133Y-69069017D01*
X148043348Y-69002135D01*
X148094725Y-68957618D01*
X148152734Y-68930568D01*
X148339139Y-68800047D01*
X148500047Y-68639139D01*
X148630568Y-68452734D01*
X148726739Y-68246496D01*
X148785635Y-68026692D01*
X148805468Y-67800000D01*
X148785635Y-67573308D01*
X148726739Y-67353504D01*
X148630568Y-67147266D01*
X148500047Y-66960861D01*
X148500045Y-66960858D01*
X148339141Y-66799954D01*
X148152734Y-66669432D01*
X148152732Y-66669431D01*
X147946497Y-66573261D01*
X147946488Y-66573258D01*
X147726697Y-66514366D01*
X147726693Y-66514365D01*
X147726692Y-66514365D01*
X147726691Y-66514364D01*
X147726686Y-66514364D01*
X147500002Y-66494532D01*
X147499998Y-66494532D01*
X147273313Y-66514364D01*
X147273302Y-66514366D01*
X147053511Y-66573258D01*
X147053502Y-66573261D01*
X146847267Y-66669431D01*
X146847265Y-66669432D01*
X146660858Y-66799954D01*
X146499954Y-66960858D01*
X146369432Y-67147265D01*
X146369431Y-67147267D01*
X146273261Y-67353502D01*
X146273258Y-67353511D01*
X146214366Y-67573302D01*
X146214364Y-67573313D01*
X146194532Y-67799998D01*
X146194532Y-67800001D01*
X146214364Y-68026686D01*
X146214366Y-68026697D01*
X146273258Y-68246488D01*
X146273261Y-68246497D01*
X146369431Y-68452732D01*
X146369432Y-68452734D01*
X146499954Y-68639141D01*
X146660858Y-68800045D01*
X146660861Y-68800047D01*
X146847266Y-68930568D01*
X146905275Y-68957618D01*
X146957714Y-69003791D01*
X146976866Y-69070984D01*
X146956650Y-69137865D01*
X146905275Y-69182382D01*
X146847267Y-69209431D01*
X146847265Y-69209432D01*
X146660858Y-69339954D01*
X146499954Y-69500858D01*
X146369432Y-69687265D01*
X146369431Y-69687267D01*
X146273261Y-69893502D01*
X146273258Y-69893511D01*
X146214366Y-70113302D01*
X146214364Y-70113313D01*
X146194532Y-70339998D01*
X146194532Y-70340001D01*
X146214364Y-70566686D01*
X146214366Y-70566697D01*
X146225209Y-70607163D01*
X146223546Y-70677013D01*
X146193116Y-70726937D01*
X146116873Y-70803181D01*
X146055550Y-70836666D01*
X146029191Y-70839500D01*
X141253619Y-70839500D01*
X141186580Y-70819815D01*
X141140825Y-70767011D01*
X141130881Y-70697853D01*
X141133844Y-70683406D01*
X141158872Y-70590000D01*
X140195686Y-70590000D01*
X140200080Y-70585606D01*
X140252741Y-70494394D01*
X140280000Y-70392661D01*
X140280000Y-70287339D01*
X140252741Y-70185606D01*
X140200080Y-70094394D01*
X140195686Y-70090000D01*
X141158872Y-70090000D01*
X141158872Y-70089999D01*
X141106269Y-69893682D01*
X141106265Y-69893673D01*
X141010134Y-69687517D01*
X140879657Y-69501179D01*
X140718820Y-69340342D01*
X140693779Y-69322808D01*
X140650154Y-69268230D01*
X140642962Y-69198732D01*
X140674484Y-69136377D01*
X140734714Y-69100964D01*
X140751650Y-69097943D01*
X140787483Y-69094091D01*
X140922328Y-69043797D01*
X140922327Y-69043797D01*
X140922331Y-69043796D01*
X141037546Y-68957546D01*
X141123796Y-68842331D01*
X141174091Y-68707483D01*
X141180500Y-68647873D01*
X141180499Y-66952128D01*
X141174091Y-66892517D01*
X141170214Y-66882123D01*
X141123797Y-66757671D01*
X141123793Y-66757664D01*
X141037547Y-66642455D01*
X141037544Y-66642452D01*
X140922335Y-66556206D01*
X140922328Y-66556202D01*
X140787482Y-66505908D01*
X140787483Y-66505908D01*
X140727883Y-66499501D01*
X140727881Y-66499500D01*
X140727873Y-66499500D01*
X140727864Y-66499500D01*
X139032129Y-66499500D01*
X139032123Y-66499501D01*
X138972516Y-66505908D01*
X138837671Y-66556202D01*
X138837664Y-66556206D01*
X138722455Y-66642452D01*
X138722452Y-66642455D01*
X138636206Y-66757664D01*
X138636202Y-66757671D01*
X138585908Y-66892517D01*
X138579501Y-66952116D01*
X138579501Y-66952123D01*
X138579500Y-66952135D01*
X138579500Y-68129191D01*
X138559815Y-68196230D01*
X138543181Y-68216872D01*
X136446873Y-70313181D01*
X136385550Y-70346666D01*
X136359192Y-70349500D01*
X130435929Y-70349500D01*
X130310260Y-70374497D01*
X130310254Y-70374499D01*
X130286519Y-70384331D01*
X130191874Y-70423533D01*
X130085326Y-70494726D01*
X129494726Y-71085326D01*
X129430217Y-71181873D01*
X129430216Y-71181875D01*
X129423533Y-71191875D01*
X129374499Y-71310255D01*
X129374497Y-71310261D01*
X129349500Y-71435928D01*
X129349500Y-73554676D01*
X129329815Y-73621715D01*
X129277011Y-73667470D01*
X129207853Y-73677414D01*
X129144297Y-73648389D01*
X129106523Y-73589611D01*
X129105725Y-73586770D01*
X129094434Y-73544633D01*
X129058631Y-73411013D01*
X128966232Y-73212864D01*
X128840829Y-73033769D01*
X128686231Y-72879171D01*
X128686227Y-72879168D01*
X128686226Y-72879167D01*
X128507141Y-72753770D01*
X128507137Y-72753768D01*
X128482900Y-72742466D01*
X128308987Y-72661369D01*
X128308983Y-72661368D01*
X128308979Y-72661366D01*
X128097807Y-72604783D01*
X128097803Y-72604782D01*
X128097802Y-72604782D01*
X128097801Y-72604781D01*
X128097796Y-72604781D01*
X127880002Y-72585727D01*
X127879998Y-72585727D01*
X127662203Y-72604781D01*
X127662192Y-72604783D01*
X127451020Y-72661366D01*
X127451011Y-72661370D01*
X127252866Y-72753766D01*
X127073766Y-72879172D01*
X126919172Y-73033766D01*
X126793766Y-73212866D01*
X126701370Y-73411011D01*
X126701366Y-73411020D01*
X126644783Y-73622192D01*
X126644781Y-73622203D01*
X126625727Y-73839998D01*
X126625727Y-73840001D01*
X126644781Y-74057796D01*
X126644783Y-74057807D01*
X126701366Y-74268979D01*
X126701368Y-74268983D01*
X126701369Y-74268987D01*
X126765666Y-74406872D01*
X126793768Y-74467137D01*
X126793770Y-74467141D01*
X126919167Y-74646226D01*
X126919172Y-74646232D01*
X127073767Y-74800827D01*
X127073773Y-74800832D01*
X127252858Y-74926229D01*
X127252860Y-74926230D01*
X127252863Y-74926232D01*
X127451013Y-75018631D01*
X127662198Y-75075218D01*
X127817770Y-75088828D01*
X127879998Y-75094273D01*
X127880000Y-75094273D01*
X127880002Y-75094273D01*
X127934579Y-75089498D01*
X128097802Y-75075218D01*
X128308987Y-75018631D01*
X128406961Y-74972944D01*
X128476036Y-74962453D01*
X128539820Y-74990972D01*
X128578060Y-75049449D01*
X128578615Y-75119316D01*
X128547045Y-75173008D01*
X123276208Y-80443844D01*
X123214885Y-80477329D01*
X123145193Y-80472345D01*
X123089260Y-80430473D01*
X123064843Y-80365009D01*
X123064998Y-80345361D01*
X123065468Y-80340000D01*
X123045635Y-80113308D01*
X122986739Y-79893504D01*
X122890568Y-79687266D01*
X122760047Y-79500861D01*
X122760045Y-79500858D01*
X122599143Y-79339956D01*
X122573912Y-79322289D01*
X122530287Y-79267712D01*
X122523095Y-79198213D01*
X122554617Y-79135859D01*
X122614847Y-79100445D01*
X122631781Y-79097424D01*
X122667380Y-79093596D01*
X122802086Y-79043354D01*
X122802093Y-79043350D01*
X122917187Y-78957190D01*
X122917190Y-78957187D01*
X123003350Y-78842093D01*
X123003354Y-78842086D01*
X123053596Y-78707379D01*
X123053598Y-78707372D01*
X123059999Y-78647844D01*
X123060000Y-78647827D01*
X123060000Y-78050000D01*
X122075686Y-78050000D01*
X122080080Y-78045606D01*
X122132741Y-77954394D01*
X122160000Y-77852661D01*
X122160000Y-77747339D01*
X122132741Y-77645606D01*
X122080080Y-77554394D01*
X122075686Y-77550000D01*
X123060000Y-77550000D01*
X123060000Y-76952172D01*
X123059999Y-76952155D01*
X123053598Y-76892627D01*
X123053596Y-76892620D01*
X123003354Y-76757913D01*
X123003350Y-76757906D01*
X122917190Y-76642812D01*
X122917187Y-76642809D01*
X122802093Y-76556649D01*
X122802086Y-76556645D01*
X122667379Y-76506403D01*
X122667372Y-76506401D01*
X122607844Y-76500000D01*
X122010000Y-76500000D01*
X122010000Y-77484314D01*
X122005606Y-77479920D01*
X121914394Y-77427259D01*
X121812661Y-77400000D01*
X121707339Y-77400000D01*
X121605606Y-77427259D01*
X121514394Y-77479920D01*
X121510000Y-77484314D01*
X121510000Y-76500000D01*
X120912155Y-76500000D01*
X120852627Y-76506401D01*
X120852620Y-76506403D01*
X120717913Y-76556645D01*
X120717906Y-76556649D01*
X120602812Y-76642809D01*
X120602809Y-76642812D01*
X120516649Y-76757906D01*
X120516645Y-76757913D01*
X120466403Y-76892620D01*
X120466401Y-76892627D01*
X120460000Y-76952155D01*
X120460000Y-77550000D01*
X121444314Y-77550000D01*
X121439920Y-77554394D01*
X121387259Y-77645606D01*
X121360000Y-77747339D01*
X121360000Y-77852661D01*
X121387259Y-77954394D01*
X121439920Y-78045606D01*
X121444314Y-78050000D01*
X120460000Y-78050000D01*
X120460000Y-78647844D01*
X120466401Y-78707372D01*
X120466403Y-78707379D01*
X120516645Y-78842086D01*
X120516649Y-78842093D01*
X120602809Y-78957187D01*
X120602812Y-78957190D01*
X120717906Y-79043350D01*
X120717913Y-79043354D01*
X120852620Y-79093596D01*
X120852627Y-79093598D01*
X120888218Y-79097425D01*
X120952769Y-79124163D01*
X120992618Y-79181555D01*
X120995111Y-79251380D01*
X120959459Y-79311469D01*
X120946088Y-79322287D01*
X120920861Y-79339951D01*
X120759954Y-79500858D01*
X120629432Y-79687265D01*
X120629431Y-79687267D01*
X120533261Y-79893502D01*
X120533258Y-79893511D01*
X120474366Y-80113302D01*
X120474364Y-80113313D01*
X120454532Y-80339998D01*
X119500500Y-80339998D01*
X119500500Y-73839998D01*
X122125727Y-73839998D01*
X122125727Y-73840001D01*
X122144781Y-74057796D01*
X122144783Y-74057807D01*
X122201366Y-74268979D01*
X122201368Y-74268983D01*
X122201369Y-74268987D01*
X122265666Y-74406872D01*
X122293768Y-74467137D01*
X122293770Y-74467141D01*
X122419167Y-74646226D01*
X122419172Y-74646232D01*
X122573767Y-74800827D01*
X122573773Y-74800832D01*
X122752858Y-74926229D01*
X122752860Y-74926230D01*
X122752863Y-74926232D01*
X122951013Y-75018631D01*
X123162198Y-75075218D01*
X123317770Y-75088828D01*
X123379998Y-75094273D01*
X123380000Y-75094273D01*
X123380002Y-75094273D01*
X123434579Y-75089498D01*
X123597802Y-75075218D01*
X123808987Y-75018631D01*
X124007137Y-74926232D01*
X124186231Y-74800829D01*
X124340829Y-74646231D01*
X124466232Y-74467137D01*
X124558631Y-74268987D01*
X124615218Y-74057802D01*
X124634273Y-73840000D01*
X124615218Y-73622198D01*
X124558631Y-73411013D01*
X124466232Y-73212864D01*
X124340829Y-73033769D01*
X124186231Y-72879171D01*
X124186227Y-72879168D01*
X124186226Y-72879167D01*
X124007141Y-72753770D01*
X124007137Y-72753768D01*
X123982900Y-72742466D01*
X123808987Y-72661369D01*
X123808983Y-72661368D01*
X123808979Y-72661366D01*
X123597807Y-72604783D01*
X123597803Y-72604782D01*
X123597802Y-72604782D01*
X123597801Y-72604781D01*
X123597796Y-72604781D01*
X123380002Y-72585727D01*
X123379998Y-72585727D01*
X123162203Y-72604781D01*
X123162192Y-72604783D01*
X122951020Y-72661366D01*
X122951011Y-72661370D01*
X122752866Y-72753766D01*
X122573766Y-72879172D01*
X122419172Y-73033766D01*
X122293766Y-73212866D01*
X122201370Y-73411011D01*
X122201366Y-73411020D01*
X122144783Y-73622192D01*
X122144781Y-73622203D01*
X122125727Y-73839998D01*
X119500500Y-73839998D01*
X119500500Y-67339998D01*
X122125727Y-67339998D01*
X122125727Y-67340001D01*
X122144781Y-67557796D01*
X122144783Y-67557807D01*
X122201366Y-67768979D01*
X122201368Y-67768983D01*
X122201369Y-67768987D01*
X122293768Y-67967137D01*
X122293770Y-67967141D01*
X122419167Y-68146226D01*
X122419172Y-68146232D01*
X122573767Y-68300827D01*
X122573773Y-68300832D01*
X122752858Y-68426229D01*
X122752860Y-68426230D01*
X122752863Y-68426232D01*
X122951013Y-68518631D01*
X123162198Y-68575218D01*
X123317770Y-68588828D01*
X123379998Y-68594273D01*
X123380000Y-68594273D01*
X123380002Y-68594273D01*
X123434579Y-68589498D01*
X123597802Y-68575218D01*
X123808987Y-68518631D01*
X124007137Y-68426232D01*
X124186231Y-68300829D01*
X124340829Y-68146231D01*
X124466232Y-67967137D01*
X124558631Y-67768987D01*
X124615218Y-67557802D01*
X124634273Y-67340000D01*
X124615218Y-67122198D01*
X124569648Y-66952128D01*
X124558633Y-66911020D01*
X124558632Y-66911019D01*
X124558631Y-66911013D01*
X124466232Y-66712864D01*
X124394522Y-66610450D01*
X124347387Y-66543135D01*
X126630500Y-66543135D01*
X126630500Y-68136870D01*
X126630501Y-68136876D01*
X126636908Y-68196483D01*
X126687202Y-68331328D01*
X126687206Y-68331335D01*
X126773452Y-68446544D01*
X126773455Y-68446547D01*
X126888664Y-68532793D01*
X126888671Y-68532797D01*
X127023517Y-68583091D01*
X127023516Y-68583091D01*
X127030444Y-68583835D01*
X127083127Y-68589500D01*
X128676872Y-68589499D01*
X128736483Y-68583091D01*
X128871331Y-68532796D01*
X128986546Y-68446546D01*
X129072796Y-68331331D01*
X129123091Y-68196483D01*
X129129500Y-68136873D01*
X129129499Y-67339998D01*
X130625727Y-67339998D01*
X130625727Y-67340001D01*
X130644781Y-67557796D01*
X130644783Y-67557807D01*
X130701366Y-67768979D01*
X130701368Y-67768983D01*
X130701369Y-67768987D01*
X130793768Y-67967137D01*
X130793770Y-67967141D01*
X130919167Y-68146226D01*
X130919172Y-68146232D01*
X131073767Y-68300827D01*
X131073773Y-68300832D01*
X131252858Y-68426229D01*
X131252860Y-68426230D01*
X131252863Y-68426232D01*
X131451013Y-68518631D01*
X131662198Y-68575218D01*
X131817770Y-68588828D01*
X131879998Y-68594273D01*
X131880000Y-68594273D01*
X131880002Y-68594273D01*
X131934579Y-68589498D01*
X132097802Y-68575218D01*
X132308987Y-68518631D01*
X132507137Y-68426232D01*
X132686231Y-68300829D01*
X132840829Y-68146231D01*
X132966232Y-67967137D01*
X133058631Y-67768987D01*
X133115218Y-67557802D01*
X133134273Y-67340000D01*
X133134273Y-67339998D01*
X135125727Y-67339998D01*
X135125727Y-67340001D01*
X135144781Y-67557796D01*
X135144783Y-67557807D01*
X135201366Y-67768979D01*
X135201368Y-67768983D01*
X135201369Y-67768987D01*
X135293768Y-67967137D01*
X135293770Y-67967141D01*
X135419167Y-68146226D01*
X135419172Y-68146232D01*
X135573767Y-68300827D01*
X135573773Y-68300832D01*
X135752858Y-68426229D01*
X135752860Y-68426230D01*
X135752863Y-68426232D01*
X135951013Y-68518631D01*
X136162198Y-68575218D01*
X136317770Y-68588828D01*
X136379998Y-68594273D01*
X136380000Y-68594273D01*
X136380002Y-68594273D01*
X136434579Y-68589498D01*
X136597802Y-68575218D01*
X136808987Y-68518631D01*
X137007137Y-68426232D01*
X137186231Y-68300829D01*
X137340829Y-68146231D01*
X137466232Y-67967137D01*
X137558631Y-67768987D01*
X137615218Y-67557802D01*
X137634273Y-67340000D01*
X137615218Y-67122198D01*
X137569648Y-66952128D01*
X137558633Y-66911020D01*
X137558632Y-66911019D01*
X137558631Y-66911013D01*
X137466232Y-66712864D01*
X137394522Y-66610450D01*
X137340830Y-66533770D01*
X137290576Y-66483516D01*
X137186231Y-66379171D01*
X137186227Y-66379168D01*
X137186226Y-66379167D01*
X137007141Y-66253770D01*
X137007137Y-66253768D01*
X136990796Y-66246148D01*
X136808987Y-66161369D01*
X136808983Y-66161368D01*
X136808979Y-66161366D01*
X136597807Y-66104783D01*
X136597803Y-66104782D01*
X136597802Y-66104782D01*
X136597801Y-66104781D01*
X136597796Y-66104781D01*
X136380002Y-66085727D01*
X136379998Y-66085727D01*
X136162203Y-66104781D01*
X136162192Y-66104783D01*
X135951020Y-66161366D01*
X135951011Y-66161370D01*
X135752866Y-66253766D01*
X135573766Y-66379172D01*
X135419172Y-66533766D01*
X135293766Y-66712866D01*
X135201370Y-66911011D01*
X135201366Y-66911020D01*
X135144783Y-67122192D01*
X135144781Y-67122203D01*
X135125727Y-67339998D01*
X133134273Y-67339998D01*
X133115218Y-67122198D01*
X133069648Y-66952128D01*
X133058633Y-66911020D01*
X133058632Y-66911019D01*
X133058631Y-66911013D01*
X132966232Y-66712864D01*
X132894522Y-66610450D01*
X132840830Y-66533770D01*
X132790576Y-66483516D01*
X132686231Y-66379171D01*
X132686227Y-66379168D01*
X132686226Y-66379167D01*
X132507141Y-66253770D01*
X132507137Y-66253768D01*
X132490796Y-66246148D01*
X132308987Y-66161369D01*
X132308983Y-66161368D01*
X132308979Y-66161366D01*
X132097807Y-66104783D01*
X132097803Y-66104782D01*
X132097802Y-66104782D01*
X132097801Y-66104781D01*
X132097796Y-66104781D01*
X131880002Y-66085727D01*
X131879998Y-66085727D01*
X131662203Y-66104781D01*
X131662192Y-66104783D01*
X131451020Y-66161366D01*
X131451011Y-66161370D01*
X131252866Y-66253766D01*
X131073766Y-66379172D01*
X130919172Y-66533766D01*
X130793766Y-66712866D01*
X130701370Y-66911011D01*
X130701366Y-66911020D01*
X130644783Y-67122192D01*
X130644781Y-67122203D01*
X130625727Y-67339998D01*
X129129499Y-67339998D01*
X129129499Y-66543128D01*
X129123091Y-66483517D01*
X129084172Y-66379171D01*
X129072797Y-66348671D01*
X129072793Y-66348664D01*
X128986547Y-66233455D01*
X128986544Y-66233452D01*
X128871335Y-66147206D01*
X128871328Y-66147202D01*
X128736482Y-66096908D01*
X128736483Y-66096908D01*
X128676883Y-66090501D01*
X128676881Y-66090500D01*
X128676873Y-66090500D01*
X128676864Y-66090500D01*
X127083129Y-66090500D01*
X127083123Y-66090501D01*
X127023516Y-66096908D01*
X126888671Y-66147202D01*
X126888664Y-66147206D01*
X126773455Y-66233452D01*
X126773452Y-66233455D01*
X126687206Y-66348664D01*
X126687202Y-66348671D01*
X126636908Y-66483517D01*
X126633592Y-66514364D01*
X126630501Y-66543123D01*
X126630500Y-66543135D01*
X124347387Y-66543135D01*
X124340830Y-66533770D01*
X124290576Y-66483516D01*
X124186231Y-66379171D01*
X124186227Y-66379168D01*
X124186226Y-66379167D01*
X124007141Y-66253770D01*
X124007137Y-66253768D01*
X123990796Y-66246148D01*
X123808987Y-66161369D01*
X123808983Y-66161368D01*
X123808979Y-66161366D01*
X123597807Y-66104783D01*
X123597803Y-66104782D01*
X123597802Y-66104782D01*
X123597801Y-66104781D01*
X123597796Y-66104781D01*
X123380002Y-66085727D01*
X123379998Y-66085727D01*
X123162203Y-66104781D01*
X123162192Y-66104783D01*
X122951020Y-66161366D01*
X122951011Y-66161370D01*
X122752866Y-66253766D01*
X122573766Y-66379172D01*
X122419172Y-66533766D01*
X122293766Y-66712866D01*
X122201370Y-66911011D01*
X122201366Y-66911020D01*
X122144783Y-67122192D01*
X122144781Y-67122203D01*
X122125727Y-67339998D01*
X119500500Y-67339998D01*
X119500500Y-65919999D01*
X151134357Y-65919999D01*
X151134357Y-65920000D01*
X151154884Y-66141535D01*
X151154885Y-66141537D01*
X151215769Y-66355523D01*
X151215775Y-66355538D01*
X151314938Y-66554683D01*
X151314943Y-66554691D01*
X151449020Y-66732238D01*
X151613437Y-66882123D01*
X151613439Y-66882125D01*
X151802595Y-66999245D01*
X151802596Y-66999245D01*
X151802599Y-66999247D01*
X152010060Y-67079618D01*
X152228757Y-67120500D01*
X152228759Y-67120500D01*
X152451241Y-67120500D01*
X152451243Y-67120500D01*
X152669940Y-67079618D01*
X152877401Y-66999247D01*
X153066562Y-66882124D01*
X153230981Y-66732236D01*
X153365058Y-66554689D01*
X153464229Y-66355528D01*
X153517016Y-66170000D01*
X156243505Y-66170000D01*
X156296239Y-66355349D01*
X156395368Y-66554425D01*
X156529391Y-66731900D01*
X156693738Y-66881721D01*
X156882820Y-66998797D01*
X156882822Y-66998798D01*
X157090195Y-67079135D01*
X157170000Y-67094052D01*
X157670000Y-67094052D01*
X157749804Y-67079135D01*
X157957177Y-66998798D01*
X157957179Y-66998797D01*
X158146261Y-66881721D01*
X158310608Y-66731900D01*
X158444631Y-66554425D01*
X158543760Y-66355349D01*
X158596495Y-66170000D01*
X159743505Y-66170000D01*
X159796239Y-66355349D01*
X159895368Y-66554425D01*
X160029391Y-66731900D01*
X160193738Y-66881721D01*
X160382820Y-66998797D01*
X160382822Y-66998798D01*
X160590195Y-67079135D01*
X160670000Y-67094052D01*
X161170000Y-67094052D01*
X161249804Y-67079135D01*
X161457177Y-66998798D01*
X161457179Y-66998797D01*
X161646261Y-66881721D01*
X161810608Y-66731900D01*
X161944631Y-66554425D01*
X162043760Y-66355349D01*
X162096495Y-66170000D01*
X161170000Y-66170000D01*
X161170000Y-67094052D01*
X160670000Y-67094052D01*
X160670000Y-66170000D01*
X159743505Y-66170000D01*
X158596495Y-66170000D01*
X157670000Y-66170000D01*
X157670000Y-67094052D01*
X157170000Y-67094052D01*
X157170000Y-66170000D01*
X156243505Y-66170000D01*
X153517016Y-66170000D01*
X153525115Y-66141536D01*
X153545643Y-65920000D01*
X153541373Y-65873922D01*
X157070000Y-65873922D01*
X157070000Y-65966078D01*
X157093852Y-66055095D01*
X157139930Y-66134905D01*
X157205095Y-66200070D01*
X157284905Y-66246148D01*
X157373922Y-66270000D01*
X157466078Y-66270000D01*
X157555095Y-66246148D01*
X157634905Y-66200070D01*
X157700070Y-66134905D01*
X157746148Y-66055095D01*
X157770000Y-65966078D01*
X157770000Y-65873922D01*
X160570000Y-65873922D01*
X160570000Y-65966078D01*
X160593852Y-66055095D01*
X160639930Y-66134905D01*
X160705095Y-66200070D01*
X160784905Y-66246148D01*
X160873922Y-66270000D01*
X160966078Y-66270000D01*
X161055095Y-66246148D01*
X161134905Y-66200070D01*
X161200070Y-66134905D01*
X161246148Y-66055095D01*
X161270000Y-65966078D01*
X161270000Y-65919999D01*
X164794357Y-65919999D01*
X164794357Y-65920000D01*
X164814884Y-66141535D01*
X164814885Y-66141537D01*
X164875769Y-66355523D01*
X164875775Y-66355538D01*
X164974938Y-66554683D01*
X164974943Y-66554691D01*
X165109020Y-66732238D01*
X165273437Y-66882123D01*
X165273439Y-66882125D01*
X165462595Y-66999245D01*
X165462596Y-66999245D01*
X165462599Y-66999247D01*
X165670060Y-67079618D01*
X165888757Y-67120500D01*
X165888759Y-67120500D01*
X166111241Y-67120500D01*
X166111243Y-67120500D01*
X166329940Y-67079618D01*
X166537401Y-66999247D01*
X166726562Y-66882124D01*
X166890981Y-66732236D01*
X167025058Y-66554689D01*
X167124229Y-66355528D01*
X167185115Y-66141536D01*
X167205643Y-65920000D01*
X167185115Y-65698464D01*
X167124229Y-65484472D01*
X167025189Y-65285574D01*
X167025061Y-65285316D01*
X167025056Y-65285308D01*
X166890979Y-65107761D01*
X166726562Y-64957876D01*
X166726560Y-64957874D01*
X166537404Y-64840754D01*
X166537398Y-64840752D01*
X166329940Y-64760382D01*
X166111243Y-64719500D01*
X165888757Y-64719500D01*
X165670060Y-64760382D01*
X165538864Y-64811207D01*
X165462601Y-64840752D01*
X165462595Y-64840754D01*
X165273439Y-64957874D01*
X165273437Y-64957876D01*
X165109020Y-65107761D01*
X164974943Y-65285308D01*
X164974938Y-65285316D01*
X164875775Y-65484461D01*
X164875769Y-65484476D01*
X164814885Y-65698462D01*
X164814884Y-65698464D01*
X164794357Y-65919999D01*
X161270000Y-65919999D01*
X161270000Y-65873922D01*
X161246148Y-65784905D01*
X161200070Y-65705095D01*
X161164975Y-65670000D01*
X161170000Y-65670000D01*
X162096495Y-65670000D01*
X162043760Y-65484650D01*
X161944631Y-65285574D01*
X161810608Y-65108099D01*
X161646261Y-64958278D01*
X161457179Y-64841202D01*
X161457177Y-64841201D01*
X161249799Y-64760864D01*
X161170000Y-64745946D01*
X161170000Y-65670000D01*
X161164975Y-65670000D01*
X161134905Y-65639930D01*
X161055095Y-65593852D01*
X160966078Y-65570000D01*
X160873922Y-65570000D01*
X160784905Y-65593852D01*
X160705095Y-65639930D01*
X160639930Y-65705095D01*
X160593852Y-65784905D01*
X160570000Y-65873922D01*
X157770000Y-65873922D01*
X157746148Y-65784905D01*
X157700070Y-65705095D01*
X157664975Y-65670000D01*
X157670000Y-65670000D01*
X158596495Y-65670000D01*
X159743505Y-65670000D01*
X160670000Y-65670000D01*
X160670000Y-64745946D01*
X160590200Y-64760864D01*
X160382822Y-64841201D01*
X160382820Y-64841202D01*
X160193738Y-64958278D01*
X160029391Y-65108099D01*
X159895368Y-65285574D01*
X159796239Y-65484650D01*
X159743505Y-65670000D01*
X158596495Y-65670000D01*
X158543760Y-65484650D01*
X158444631Y-65285574D01*
X158310608Y-65108099D01*
X158146261Y-64958278D01*
X157957179Y-64841202D01*
X157957177Y-64841201D01*
X157749799Y-64760864D01*
X157670000Y-64745946D01*
X157670000Y-65670000D01*
X157664975Y-65670000D01*
X157634905Y-65639930D01*
X157555095Y-65593852D01*
X157466078Y-65570000D01*
X157373922Y-65570000D01*
X157284905Y-65593852D01*
X157205095Y-65639930D01*
X157139930Y-65705095D01*
X157093852Y-65784905D01*
X157070000Y-65873922D01*
X153541373Y-65873922D01*
X153525115Y-65698464D01*
X153517016Y-65670000D01*
X156243505Y-65670000D01*
X157170000Y-65670000D01*
X157170000Y-64745946D01*
X157090200Y-64760864D01*
X156882822Y-64841201D01*
X156882820Y-64841202D01*
X156693738Y-64958278D01*
X156529391Y-65108099D01*
X156395368Y-65285574D01*
X156296239Y-65484650D01*
X156243505Y-65670000D01*
X153517016Y-65670000D01*
X153464229Y-65484472D01*
X153365189Y-65285574D01*
X153365061Y-65285316D01*
X153365056Y-65285308D01*
X153230979Y-65107761D01*
X153066562Y-64957876D01*
X153066560Y-64957874D01*
X152877404Y-64840754D01*
X152877398Y-64840752D01*
X152669940Y-64760382D01*
X152451243Y-64719500D01*
X152228757Y-64719500D01*
X152010060Y-64760382D01*
X151878864Y-64811207D01*
X151802601Y-64840752D01*
X151802595Y-64840754D01*
X151613439Y-64957874D01*
X151613437Y-64957876D01*
X151449020Y-65107761D01*
X151314943Y-65285308D01*
X151314938Y-65285316D01*
X151215775Y-65484461D01*
X151215769Y-65484476D01*
X151154885Y-65698462D01*
X151154884Y-65698464D01*
X151134357Y-65919999D01*
X119500500Y-65919999D01*
X119500500Y-64124500D01*
X119520185Y-64057461D01*
X119572989Y-64011706D01*
X119624500Y-64000500D01*
X171375500Y-64000500D01*
X171442539Y-64020185D01*
G37*
%TD.AperFunction*%
%TD*%
M02*
