%TF.GenerationSoftware,KiCad,Pcbnew,8.0.5*%
%TF.CreationDate,2025-01-11T13:33:14+03:00*%
%TF.ProjectId,Counter_CD4033,436f756e-7465-4725-9f43-44343033332e,rev?*%
%TF.SameCoordinates,Original*%
%TF.FileFunction,Copper,L1,Top*%
%TF.FilePolarity,Positive*%
%FSLAX46Y46*%
G04 Gerber Fmt 4.6, Leading zero omitted, Abs format (unit mm)*
G04 Created by KiCad (PCBNEW 8.0.5) date 2025-01-11 13:33:14*
%MOMM*%
%LPD*%
G01*
G04 APERTURE LIST*
%TA.AperFunction,ComponentPad*%
%ADD10R,2.524000X1.524000*%
%TD*%
%TA.AperFunction,ComponentPad*%
%ADD11O,2.524000X1.524000*%
%TD*%
%TA.AperFunction,ComponentPad*%
%ADD12R,1.600000X1.600000*%
%TD*%
%TA.AperFunction,ComponentPad*%
%ADD13C,1.600000*%
%TD*%
%TA.AperFunction,ComponentPad*%
%ADD14R,2.600000X2.600000*%
%TD*%
%TA.AperFunction,ComponentPad*%
%ADD15C,2.600000*%
%TD*%
%TA.AperFunction,ComponentPad*%
%ADD16C,1.400000*%
%TD*%
%TA.AperFunction,ComponentPad*%
%ADD17O,1.400000X1.400000*%
%TD*%
%TA.AperFunction,ComponentPad*%
%ADD18R,1.200000X1.200000*%
%TD*%
%TA.AperFunction,ComponentPad*%
%ADD19C,1.200000*%
%TD*%
%TA.AperFunction,ComponentPad*%
%ADD20R,1.498000X1.498000*%
%TD*%
%TA.AperFunction,ComponentPad*%
%ADD21C,1.498000*%
%TD*%
%TA.AperFunction,ComponentPad*%
%ADD22O,1.600000X1.600000*%
%TD*%
%TA.AperFunction,ViaPad*%
%ADD23C,0.600000*%
%TD*%
%TA.AperFunction,Conductor*%
%ADD24C,0.300000*%
%TD*%
G04 APERTURE END LIST*
D10*
%TO.P,7S,1,e*%
%TO.N,Net-(AFF1-e)*%
X153260000Y-69380000D03*
D11*
%TO.P,7S,2,d*%
%TO.N,Net-(AFF1-d)*%
X153260000Y-71920000D03*
%TO.P,7S,3,C.K.*%
%TO.N,Net-(AFF1-C.K.-Pad3)*%
X153260000Y-74460000D03*
%TO.P,7S,4,c*%
%TO.N,Net-(AFF1-c)*%
X153260000Y-77000000D03*
%TO.P,7S,5,DP*%
%TO.N,unconnected-(AFF1-DP-Pad5)*%
X153260000Y-79540000D03*
%TO.P,7S,6,b*%
%TO.N,Net-(AFF1-b)*%
X168500000Y-79540000D03*
%TO.P,7S,7,a*%
%TO.N,Net-(AFF1-a)*%
X168500000Y-77000000D03*
%TO.P,7S,8,C.K.*%
%TO.N,Net-(AFF1-C.K.-Pad3)*%
X168500000Y-74460000D03*
%TO.P,7S,9,f*%
%TO.N,Net-(AFF1-f)*%
X168500000Y-71920000D03*
%TO.P,7S,10,g*%
%TO.N,Net-(AFF1-g)*%
X168500000Y-69380000D03*
%TD*%
D12*
%TO.P,C1,1*%
%TO.N,Net-(U2-DIS)*%
X133000000Y-78500000D03*
D13*
%TO.P,C1,2*%
%TO.N,GND*%
X135000000Y-78500000D03*
%TD*%
D14*
%TO.P,VCC,1,Pin_1*%
%TO.N,VCC*%
X158420000Y-87500000D03*
D15*
%TO.P,VCC,2,Pin_2*%
%TO.N,GND*%
X163500000Y-87500000D03*
%TD*%
D16*
%TO.P,R1,1*%
%TO.N,VCC*%
X137000000Y-87040000D03*
D17*
%TO.P,R1,2*%
%TO.N,Net-(U2-DIS)*%
X137000000Y-81960000D03*
%TD*%
D18*
%TO.P,C2,1*%
%TO.N,Net-(U2-CV)*%
X132500000Y-85500000D03*
D19*
%TO.P,C2,2*%
%TO.N,GND*%
X134000000Y-85500000D03*
%TD*%
D20*
%TO.P,COUNT,1,1*%
%TO.N,VCC*%
X127880000Y-67340000D03*
D21*
%TO.P,COUNT,2,2*%
%TO.N,Net-(U2-TR)*%
X123380000Y-67340000D03*
%TO.P,COUNT,3*%
%TO.N,N/C*%
X127880000Y-73840000D03*
%TO.P,COUNT,4*%
X123380000Y-73840000D03*
%TD*%
D16*
%TO.P,R3,1*%
%TO.N,Net-(U1-CARRY_OUT)*%
X152340000Y-65920000D03*
D17*
%TO.P,R3,2*%
%TO.N,GND*%
X157420000Y-65920000D03*
%TD*%
D12*
%TO.P,CD4033B,1,CLOCK*%
%TO.N,Net-(U1-CLOCK)*%
X139880000Y-67800000D03*
D22*
%TO.P,CD4033B,2,CLOCK_INHIBIT*%
%TO.N,GND*%
X139880000Y-70340000D03*
%TO.P,CD4033B,3,RIPPLE_BLANKING_IN*%
X139880000Y-72880000D03*
%TO.P,CD4033B,4,RIPPLE_BLANKING_OUT*%
%TO.N,unconnected-(U1-RIPPLE_BLANKING_OUT-Pad4)*%
X139880000Y-75420000D03*
%TO.P,CD4033B,5,CARRY_OUT*%
%TO.N,Net-(U1-CARRY_OUT)*%
X139880000Y-77960000D03*
%TO.P,CD4033B,6,f*%
%TO.N,Net-(AFF1-f)*%
X139880000Y-80500000D03*
%TO.P,CD4033B,7,g*%
%TO.N,Net-(AFF1-g)*%
X139880000Y-83040000D03*
%TO.P,CD4033B,8,V_{SS}*%
%TO.N,GND*%
X139880000Y-85580000D03*
%TO.P,CD4033B,9,d*%
%TO.N,Net-(AFF1-d)*%
X147500000Y-85580000D03*
%TO.P,CD4033B,10,a*%
%TO.N,Net-(AFF1-a)*%
X147500000Y-83040000D03*
%TO.P,CD4033B,11,e*%
%TO.N,Net-(AFF1-e)*%
X147500000Y-80500000D03*
%TO.P,CD4033B,12,b*%
%TO.N,Net-(AFF1-b)*%
X147500000Y-77960000D03*
%TO.P,CD4033B,13,c*%
%TO.N,Net-(AFF1-c)*%
X147500000Y-75420000D03*
%TO.P,CD4033B,14,LAMP_TEST*%
%TO.N,GND*%
X147500000Y-72880000D03*
%TO.P,CD4033B,15,RESET*%
%TO.N,Net-(U1-RESET)*%
X147500000Y-70340000D03*
%TO.P,CD4033B,16,V_{DD}*%
%TO.N,VCC*%
X147500000Y-67800000D03*
%TD*%
D16*
%TO.P,R2,1*%
%TO.N,Net-(AFF1-C.K.-Pad3)*%
X166000000Y-65920000D03*
D17*
%TO.P,R2,2*%
%TO.N,GND*%
X160920000Y-65920000D03*
%TD*%
D20*
%TO.P,RESET,1,1*%
%TO.N,VCC*%
X131880000Y-73840000D03*
D21*
%TO.P,RESET,2,2*%
%TO.N,Net-(U1-RESET)*%
X136380000Y-73840000D03*
%TO.P,RESET,3*%
%TO.N,N/C*%
X131880000Y-67340000D03*
%TO.P,RESET,4*%
X136380000Y-67340000D03*
%TD*%
D12*
%TO.P,555,1,GND*%
%TO.N,GND*%
X121760000Y-77800000D03*
D22*
%TO.P,555,2,TR*%
%TO.N,Net-(U2-TR)*%
X121760000Y-80340000D03*
%TO.P,555,3,Q*%
%TO.N,Net-(U1-CLOCK)*%
X121760000Y-82880000D03*
%TO.P,555,4,R*%
%TO.N,VCC*%
X121760000Y-85420000D03*
%TO.P,555,5,CV*%
%TO.N,Net-(U2-CV)*%
X129380000Y-85420000D03*
%TO.P,555,6,THR*%
%TO.N,Net-(U2-DIS)*%
X129380000Y-82880000D03*
%TO.P,555,7,DIS*%
X129380000Y-80340000D03*
%TO.P,555,8,VCC*%
%TO.N,VCC*%
X129380000Y-77800000D03*
%TD*%
D23*
%TO.N,Net-(AFF1-e)*%
X149500000Y-77000000D03*
%TO.N,Net-(AFF1-f)*%
X164500000Y-73500000D03*
X144500000Y-89500000D03*
%TO.N,Net-(AFF1-d)*%
X150500000Y-77000000D03*
%TO.N,Net-(AFF1-b)*%
X158000000Y-78500000D03*
%TO.N,Net-(AFF1-g)*%
X163000000Y-73500000D03*
%TD*%
D24*
%TO.N,Net-(AFF1-e)*%
X147500000Y-80500000D02*
X149500000Y-78500000D01*
X149500000Y-78500000D02*
X149500000Y-77000000D01*
%TO.N,Net-(AFF1-f)*%
X165580000Y-71920000D02*
X165500000Y-72000000D01*
X144500000Y-89500000D02*
X143000000Y-88000000D01*
X142500000Y-80500000D02*
X139880000Y-80500000D01*
X143000000Y-81000000D02*
X142500000Y-80500000D01*
X168500000Y-71920000D02*
X165580000Y-71920000D01*
X143000000Y-88000000D02*
X143000000Y-81000000D01*
X164500000Y-73000000D02*
X164500000Y-73500000D01*
X165500000Y-72000000D02*
X164500000Y-73000000D01*
%TO.N,Net-(AFF1-d)*%
X147500000Y-85580000D02*
X146000000Y-84080000D01*
X146000000Y-84080000D02*
X146000000Y-83000000D01*
X148110000Y-81890000D02*
X150500000Y-79500000D01*
X146000000Y-83000000D02*
X146000000Y-82913654D01*
X147023654Y-81890000D02*
X148110000Y-81890000D01*
X150500000Y-79500000D02*
X150500000Y-77000000D01*
X146000000Y-82913654D02*
X147023654Y-81890000D01*
%TO.N,Net-(AFF1-a)*%
X154460000Y-83040000D02*
X157000000Y-80500000D01*
X147500000Y-83040000D02*
X154460000Y-83040000D01*
X158000000Y-77000000D02*
X168500000Y-77000000D01*
X157000000Y-78000000D02*
X158000000Y-77000000D01*
X157000000Y-80500000D02*
X157000000Y-78000000D01*
%TO.N,Net-(AFF1-b)*%
X167460000Y-78500000D02*
X168500000Y-79540000D01*
X158000000Y-78500000D02*
X167460000Y-78500000D01*
%TO.N,Net-(AFF1-c)*%
X151680000Y-75420000D02*
X153260000Y-77000000D01*
X147500000Y-75420000D02*
X151680000Y-75420000D01*
%TO.N,Net-(AFF1-C.K.-Pad3)*%
X171000000Y-71960000D02*
X168500000Y-74460000D01*
X171000000Y-68000000D02*
X171000000Y-71960000D01*
X168920000Y-65920000D02*
X171000000Y-68000000D01*
X166000000Y-65920000D02*
X168920000Y-65920000D01*
X168500000Y-74460000D02*
X153260000Y-74460000D01*
%TO.N,Net-(AFF1-g)*%
X164120000Y-69380000D02*
X163000000Y-70500000D01*
X168500000Y-69380000D02*
X164120000Y-69380000D01*
X163000000Y-70500000D02*
X163000000Y-73500000D01*
%TO.N,Net-(U2-DIS)*%
X129380000Y-82880000D02*
X129380000Y-80340000D01*
X133000000Y-80500000D02*
X133000000Y-78500000D01*
X131160000Y-80340000D02*
X133000000Y-78500000D01*
X129380000Y-80340000D02*
X131160000Y-80340000D01*
X134460000Y-81960000D02*
X133000000Y-80500000D01*
X137000000Y-81960000D02*
X134460000Y-81960000D01*
%TO.N,Net-(U2-CV)*%
X129380000Y-85420000D02*
X132420000Y-85420000D01*
X132420000Y-85420000D02*
X132500000Y-85500000D01*
%TO.N,Net-(U1-CARRY_OUT)*%
X145000000Y-72840000D02*
X145000000Y-67500000D01*
X145000000Y-67500000D02*
X146580000Y-65920000D01*
X139880000Y-77960000D02*
X145000000Y-72840000D01*
X146580000Y-65920000D02*
X152340000Y-65920000D01*
%TO.N,Net-(U2-TR)*%
X124479000Y-77621000D02*
X124479000Y-68439000D01*
X124479000Y-68439000D02*
X123380000Y-67340000D01*
X121760000Y-80340000D02*
X124479000Y-77621000D01*
%TD*%
%TA.AperFunction,Conductor*%
%TO.N,VCC*%
G36*
X171442539Y-64020185D02*
G01*
X171488294Y-64072989D01*
X171499500Y-64124500D01*
X171499500Y-67280192D01*
X171479815Y-67347231D01*
X171427011Y-67392986D01*
X171357853Y-67402930D01*
X171294297Y-67373905D01*
X171287819Y-67367873D01*
X169334674Y-65414727D01*
X169334673Y-65414726D01*
X169334669Y-65414723D01*
X169228127Y-65343535D01*
X169109744Y-65294499D01*
X169109738Y-65294497D01*
X168984071Y-65269500D01*
X168984069Y-65269500D01*
X167074863Y-65269500D01*
X167007824Y-65249815D01*
X166975909Y-65220227D01*
X166962854Y-65202939D01*
X166890981Y-65107764D01*
X166890978Y-65107761D01*
X166890974Y-65107757D01*
X166726562Y-64957876D01*
X166726560Y-64957874D01*
X166537404Y-64840754D01*
X166537398Y-64840752D01*
X166329940Y-64760382D01*
X166111243Y-64719500D01*
X165888757Y-64719500D01*
X165670060Y-64760382D01*
X165538864Y-64811207D01*
X165462601Y-64840752D01*
X165462595Y-64840754D01*
X165273439Y-64957874D01*
X165273437Y-64957876D01*
X165109020Y-65107761D01*
X164974943Y-65285308D01*
X164974938Y-65285316D01*
X164875775Y-65484461D01*
X164875769Y-65484476D01*
X164814885Y-65698462D01*
X164814884Y-65698464D01*
X164794357Y-65919999D01*
X164794357Y-65920000D01*
X164814884Y-66141535D01*
X164814885Y-66141537D01*
X164875769Y-66355523D01*
X164875775Y-66355538D01*
X164974938Y-66554683D01*
X164974943Y-66554691D01*
X165109020Y-66732238D01*
X165273437Y-66882123D01*
X165273439Y-66882125D01*
X165462595Y-66999245D01*
X165462596Y-66999245D01*
X165462599Y-66999247D01*
X165670060Y-67079618D01*
X165888757Y-67120500D01*
X165888759Y-67120500D01*
X166111241Y-67120500D01*
X166111243Y-67120500D01*
X166329940Y-67079618D01*
X166537401Y-66999247D01*
X166726562Y-66882124D01*
X166890981Y-66732236D01*
X166975909Y-66619773D01*
X167032018Y-66578137D01*
X167074863Y-66570500D01*
X168599192Y-66570500D01*
X168666231Y-66590185D01*
X168686873Y-66606819D01*
X170313181Y-68233126D01*
X170346666Y-68294449D01*
X170349500Y-68320807D01*
X170349500Y-68731149D01*
X170329815Y-68798188D01*
X170277011Y-68843943D01*
X170207853Y-68853887D01*
X170144297Y-68824862D01*
X170115016Y-68787445D01*
X170079788Y-68718307D01*
X170028617Y-68647876D01*
X169962981Y-68557536D01*
X169822464Y-68417019D01*
X169661694Y-68300213D01*
X169601309Y-68269445D01*
X169484632Y-68209994D01*
X169484629Y-68209993D01*
X169295637Y-68148587D01*
X169183813Y-68130876D01*
X169099361Y-68117500D01*
X167900639Y-68117500D01*
X167835214Y-68127862D01*
X167704362Y-68148587D01*
X167515370Y-68209993D01*
X167515367Y-68209994D01*
X167338305Y-68300213D01*
X167177533Y-68417021D01*
X167037021Y-68557533D01*
X167037016Y-68557539D01*
X166949217Y-68678385D01*
X166893887Y-68721051D01*
X166848899Y-68729500D01*
X164055929Y-68729500D01*
X163930261Y-68754497D01*
X163930255Y-68754499D01*
X163811875Y-68803533D01*
X163811866Y-68803538D01*
X163705331Y-68874723D01*
X163705327Y-68874726D01*
X162494723Y-70085330D01*
X162476031Y-70113307D01*
X162476030Y-70113308D01*
X162423534Y-70191874D01*
X162374499Y-70310255D01*
X162374497Y-70310261D01*
X162349500Y-70435928D01*
X162349500Y-72994931D01*
X162330494Y-73060903D01*
X162274211Y-73150477D01*
X162274209Y-73150481D01*
X162214633Y-73320737D01*
X162214630Y-73320750D01*
X162194435Y-73499996D01*
X162194435Y-73500003D01*
X162213771Y-73671617D01*
X162201717Y-73740438D01*
X162154367Y-73791818D01*
X162090551Y-73809500D01*
X154911101Y-73809500D01*
X154844062Y-73789815D01*
X154810783Y-73758385D01*
X154722983Y-73637539D01*
X154722978Y-73637533D01*
X154582466Y-73497021D01*
X154582464Y-73497019D01*
X154421694Y-73380213D01*
X154265218Y-73300484D01*
X154214423Y-73252510D01*
X154197628Y-73184689D01*
X154220165Y-73118554D01*
X154265218Y-73079515D01*
X154421694Y-72999787D01*
X154582464Y-72882981D01*
X154722981Y-72742464D01*
X154839787Y-72581694D01*
X154930005Y-72404632D01*
X154991413Y-72215636D01*
X155022500Y-72019361D01*
X155022500Y-71820639D01*
X154991413Y-71624364D01*
X154950231Y-71497618D01*
X154930006Y-71435370D01*
X154930005Y-71435367D01*
X154858227Y-71294497D01*
X154839787Y-71258306D01*
X154722981Y-71097536D01*
X154582464Y-70957019D01*
X154458310Y-70866816D01*
X154415646Y-70811487D01*
X154409667Y-70741874D01*
X154442273Y-70680079D01*
X154503112Y-70645721D01*
X154531196Y-70642499D01*
X154569872Y-70642499D01*
X154629483Y-70636091D01*
X154764331Y-70585796D01*
X154879546Y-70499546D01*
X154965796Y-70384331D01*
X155016091Y-70249483D01*
X155022500Y-70189873D01*
X155022499Y-68570128D01*
X155016091Y-68510517D01*
X154994445Y-68452482D01*
X154965797Y-68375671D01*
X154965793Y-68375664D01*
X154879547Y-68260455D01*
X154879544Y-68260452D01*
X154764335Y-68174206D01*
X154764328Y-68174202D01*
X154629482Y-68123908D01*
X154629483Y-68123908D01*
X154569883Y-68117501D01*
X154569881Y-68117500D01*
X154569873Y-68117500D01*
X154569864Y-68117500D01*
X151950129Y-68117500D01*
X151950123Y-68117501D01*
X151890516Y-68123908D01*
X151755671Y-68174202D01*
X151755664Y-68174206D01*
X151640455Y-68260452D01*
X151640452Y-68260455D01*
X151554206Y-68375664D01*
X151554202Y-68375671D01*
X151503908Y-68510517D01*
X151498853Y-68557539D01*
X151497501Y-68570123D01*
X151497500Y-68570135D01*
X151497500Y-70189870D01*
X151497501Y-70189876D01*
X151503908Y-70249483D01*
X151554202Y-70384328D01*
X151554206Y-70384335D01*
X151640452Y-70499544D01*
X151640455Y-70499547D01*
X151755664Y-70585793D01*
X151755671Y-70585797D01*
X151890517Y-70636091D01*
X151890516Y-70636091D01*
X151897444Y-70636835D01*
X151950127Y-70642500D01*
X151988801Y-70642499D01*
X152055838Y-70662182D01*
X152101594Y-70714985D01*
X152111539Y-70784143D01*
X152082516Y-70847699D01*
X152061687Y-70866816D01*
X151937542Y-70957014D01*
X151937533Y-70957021D01*
X151797021Y-71097533D01*
X151680213Y-71258305D01*
X151589994Y-71435367D01*
X151589993Y-71435370D01*
X151528587Y-71624362D01*
X151497500Y-71820639D01*
X151497500Y-72019360D01*
X151528587Y-72215637D01*
X151589993Y-72404629D01*
X151589994Y-72404632D01*
X151648366Y-72519191D01*
X151680213Y-72581694D01*
X151797019Y-72742464D01*
X151937536Y-72882981D01*
X152098306Y-72999787D01*
X152216832Y-73060179D01*
X152254780Y-73079515D01*
X152305576Y-73127490D01*
X152322371Y-73195311D01*
X152299833Y-73261446D01*
X152254780Y-73300485D01*
X152098305Y-73380213D01*
X151937533Y-73497021D01*
X151797021Y-73637533D01*
X151680213Y-73798305D01*
X151589994Y-73975367D01*
X151589993Y-73975370D01*
X151528587Y-74164362D01*
X151497500Y-74360639D01*
X151497500Y-74559360D01*
X151508071Y-74626102D01*
X151499117Y-74695395D01*
X151454120Y-74748847D01*
X151387369Y-74769487D01*
X151385598Y-74769500D01*
X148696683Y-74769500D01*
X148629644Y-74749815D01*
X148595108Y-74716623D01*
X148500045Y-74580858D01*
X148339141Y-74419954D01*
X148152734Y-74289432D01*
X148152728Y-74289429D01*
X148108890Y-74268987D01*
X148094724Y-74262381D01*
X148042285Y-74216210D01*
X148023133Y-74149017D01*
X148043348Y-74082135D01*
X148094725Y-74037618D01*
X148152734Y-74010568D01*
X148339139Y-73880047D01*
X148500047Y-73719139D01*
X148630568Y-73532734D01*
X148726739Y-73326496D01*
X148785635Y-73106692D01*
X148805207Y-72882981D01*
X148805468Y-72880001D01*
X148805468Y-72879998D01*
X148785635Y-72653313D01*
X148785635Y-72653308D01*
X148726739Y-72433504D01*
X148630568Y-72227266D01*
X148500047Y-72040861D01*
X148500045Y-72040858D01*
X148339141Y-71879954D01*
X148152734Y-71749432D01*
X148152728Y-71749429D01*
X148094725Y-71722382D01*
X148042285Y-71676210D01*
X148023133Y-71609017D01*
X148043348Y-71542135D01*
X148094725Y-71497618D01*
X148152734Y-71470568D01*
X148339139Y-71340047D01*
X148500047Y-71179139D01*
X148630568Y-70992734D01*
X148726739Y-70786496D01*
X148785635Y-70566692D01*
X148805207Y-70342981D01*
X148805468Y-70340001D01*
X148805468Y-70339998D01*
X148793435Y-70202460D01*
X148785635Y-70113308D01*
X148726739Y-69893504D01*
X148630568Y-69687266D01*
X148500047Y-69500861D01*
X148500045Y-69500858D01*
X148339141Y-69339954D01*
X148152734Y-69209432D01*
X148152732Y-69209431D01*
X148129612Y-69198650D01*
X148094132Y-69182105D01*
X148041694Y-69135934D01*
X148022542Y-69068740D01*
X148042758Y-69001859D01*
X148094134Y-68957341D01*
X148152484Y-68930132D01*
X148338820Y-68799657D01*
X148499657Y-68638820D01*
X148630134Y-68452482D01*
X148726265Y-68246326D01*
X148726269Y-68246317D01*
X148778872Y-68050000D01*
X147815686Y-68050000D01*
X147820080Y-68045606D01*
X147872741Y-67954394D01*
X147900000Y-67852661D01*
X147900000Y-67747339D01*
X147872741Y-67645606D01*
X147820080Y-67554394D01*
X147815686Y-67550000D01*
X148778872Y-67550000D01*
X148778872Y-67549999D01*
X148726269Y-67353682D01*
X148726265Y-67353673D01*
X148630134Y-67147517D01*
X148499657Y-66961179D01*
X148338820Y-66800342D01*
X148332726Y-66796075D01*
X148289102Y-66741498D01*
X148281909Y-66671999D01*
X148313431Y-66609645D01*
X148373661Y-66574231D01*
X148403850Y-66570500D01*
X151265137Y-66570500D01*
X151332176Y-66590185D01*
X151364091Y-66619773D01*
X151434391Y-66712866D01*
X151449021Y-66732238D01*
X151449025Y-66732242D01*
X151613437Y-66882123D01*
X151613439Y-66882125D01*
X151802595Y-66999245D01*
X151802596Y-66999245D01*
X151802599Y-66999247D01*
X152010060Y-67079618D01*
X152228757Y-67120500D01*
X152228759Y-67120500D01*
X152451241Y-67120500D01*
X152451243Y-67120500D01*
X152669940Y-67079618D01*
X152877401Y-66999247D01*
X153066562Y-66882124D01*
X153220821Y-66741498D01*
X153230979Y-66732238D01*
X153245609Y-66712866D01*
X153365058Y-66554689D01*
X153464229Y-66355528D01*
X153525115Y-66141536D01*
X153545643Y-65920000D01*
X153545643Y-65919999D01*
X156214357Y-65919999D01*
X156214357Y-65920000D01*
X156234884Y-66141535D01*
X156234885Y-66141537D01*
X156295769Y-66355523D01*
X156295775Y-66355538D01*
X156394938Y-66554683D01*
X156394943Y-66554691D01*
X156529020Y-66732238D01*
X156693437Y-66882123D01*
X156693439Y-66882125D01*
X156882595Y-66999245D01*
X156882596Y-66999245D01*
X156882599Y-66999247D01*
X157090060Y-67079618D01*
X157308757Y-67120500D01*
X157308759Y-67120500D01*
X157531241Y-67120500D01*
X157531243Y-67120500D01*
X157749940Y-67079618D01*
X157957401Y-66999247D01*
X158146562Y-66882124D01*
X158300821Y-66741498D01*
X158310979Y-66732238D01*
X158325609Y-66712866D01*
X158445058Y-66554689D01*
X158544229Y-66355528D01*
X158605115Y-66141536D01*
X158625643Y-65920000D01*
X158625643Y-65919999D01*
X159714357Y-65919999D01*
X159714357Y-65920000D01*
X159734884Y-66141535D01*
X159734885Y-66141537D01*
X159795769Y-66355523D01*
X159795775Y-66355538D01*
X159894938Y-66554683D01*
X159894943Y-66554691D01*
X160029020Y-66732238D01*
X160193437Y-66882123D01*
X160193439Y-66882125D01*
X160382595Y-66999245D01*
X160382596Y-66999245D01*
X160382599Y-66999247D01*
X160590060Y-67079618D01*
X160808757Y-67120500D01*
X160808759Y-67120500D01*
X161031241Y-67120500D01*
X161031243Y-67120500D01*
X161249940Y-67079618D01*
X161457401Y-66999247D01*
X161646562Y-66882124D01*
X161800821Y-66741498D01*
X161810979Y-66732238D01*
X161825609Y-66712866D01*
X161945058Y-66554689D01*
X162044229Y-66355528D01*
X162105115Y-66141536D01*
X162125643Y-65920000D01*
X162105115Y-65698464D01*
X162044229Y-65484472D01*
X162044224Y-65484461D01*
X161945061Y-65285316D01*
X161945056Y-65285308D01*
X161810979Y-65107761D01*
X161646562Y-64957876D01*
X161646560Y-64957874D01*
X161457404Y-64840754D01*
X161457398Y-64840752D01*
X161249940Y-64760382D01*
X161031243Y-64719500D01*
X160808757Y-64719500D01*
X160590060Y-64760382D01*
X160458864Y-64811207D01*
X160382601Y-64840752D01*
X160382595Y-64840754D01*
X160193439Y-64957874D01*
X160193437Y-64957876D01*
X160029020Y-65107761D01*
X159894943Y-65285308D01*
X159894938Y-65285316D01*
X159795775Y-65484461D01*
X159795769Y-65484476D01*
X159734885Y-65698462D01*
X159734884Y-65698464D01*
X159714357Y-65919999D01*
X158625643Y-65919999D01*
X158605115Y-65698464D01*
X158544229Y-65484472D01*
X158544224Y-65484461D01*
X158445061Y-65285316D01*
X158445056Y-65285308D01*
X158310979Y-65107761D01*
X158146562Y-64957876D01*
X158146560Y-64957874D01*
X157957404Y-64840754D01*
X157957398Y-64840752D01*
X157749940Y-64760382D01*
X157531243Y-64719500D01*
X157308757Y-64719500D01*
X157090060Y-64760382D01*
X156958864Y-64811207D01*
X156882601Y-64840752D01*
X156882595Y-64840754D01*
X156693439Y-64957874D01*
X156693437Y-64957876D01*
X156529020Y-65107761D01*
X156394943Y-65285308D01*
X156394938Y-65285316D01*
X156295775Y-65484461D01*
X156295769Y-65484476D01*
X156234885Y-65698462D01*
X156234884Y-65698464D01*
X156214357Y-65919999D01*
X153545643Y-65919999D01*
X153525115Y-65698464D01*
X153464229Y-65484472D01*
X153464224Y-65484461D01*
X153365061Y-65285316D01*
X153365056Y-65285308D01*
X153230979Y-65107761D01*
X153066562Y-64957876D01*
X153066560Y-64957874D01*
X152877404Y-64840754D01*
X152877398Y-64840752D01*
X152669940Y-64760382D01*
X152451243Y-64719500D01*
X152228757Y-64719500D01*
X152010060Y-64760382D01*
X151878864Y-64811207D01*
X151802601Y-64840752D01*
X151802595Y-64840754D01*
X151613439Y-64957874D01*
X151613437Y-64957876D01*
X151449025Y-65107757D01*
X151449021Y-65107761D01*
X151364091Y-65220227D01*
X151307982Y-65261863D01*
X151265137Y-65269500D01*
X146515929Y-65269500D01*
X146390261Y-65294497D01*
X146390255Y-65294499D01*
X146271870Y-65343535D01*
X146165331Y-65414722D01*
X146165324Y-65414728D01*
X144494726Y-67085326D01*
X144423534Y-67191874D01*
X144374499Y-67310255D01*
X144374497Y-67310261D01*
X144349500Y-67435928D01*
X144349500Y-72519191D01*
X144329815Y-72586230D01*
X144313181Y-72606872D01*
X141396208Y-75523844D01*
X141334885Y-75557329D01*
X141265193Y-75552345D01*
X141209260Y-75510473D01*
X141184843Y-75445009D01*
X141184998Y-75425361D01*
X141185468Y-75420000D01*
X141165635Y-75193308D01*
X141106739Y-74973504D01*
X141010568Y-74767266D01*
X140880047Y-74580861D01*
X140880045Y-74580858D01*
X140719141Y-74419954D01*
X140532734Y-74289432D01*
X140532728Y-74289429D01*
X140488890Y-74268987D01*
X140474724Y-74262381D01*
X140422285Y-74216210D01*
X140403133Y-74149017D01*
X140423348Y-74082135D01*
X140474725Y-74037618D01*
X140532734Y-74010568D01*
X140719139Y-73880047D01*
X140880047Y-73719139D01*
X141010568Y-73532734D01*
X141106739Y-73326496D01*
X141165635Y-73106692D01*
X141185207Y-72882981D01*
X141185468Y-72880001D01*
X141185468Y-72879998D01*
X141165635Y-72653313D01*
X141165635Y-72653308D01*
X141106739Y-72433504D01*
X141010568Y-72227266D01*
X140880047Y-72040861D01*
X140880045Y-72040858D01*
X140719141Y-71879954D01*
X140532734Y-71749432D01*
X140532728Y-71749429D01*
X140474725Y-71722382D01*
X140422285Y-71676210D01*
X140403133Y-71609017D01*
X140423348Y-71542135D01*
X140474725Y-71497618D01*
X140532734Y-71470568D01*
X140719139Y-71340047D01*
X140880047Y-71179139D01*
X141010568Y-70992734D01*
X141106739Y-70786496D01*
X141165635Y-70566692D01*
X141185207Y-70342981D01*
X141185468Y-70340001D01*
X141185468Y-70339998D01*
X141173435Y-70202460D01*
X141165635Y-70113308D01*
X141106739Y-69893504D01*
X141010568Y-69687266D01*
X140880047Y-69500861D01*
X140880045Y-69500858D01*
X140719143Y-69339956D01*
X140694536Y-69322726D01*
X140650912Y-69268149D01*
X140643719Y-69198650D01*
X140675241Y-69136296D01*
X140735471Y-69100882D01*
X140752404Y-69097861D01*
X140787483Y-69094091D01*
X140922331Y-69043796D01*
X141037546Y-68957546D01*
X141123796Y-68842331D01*
X141174091Y-68707483D01*
X141180500Y-68647873D01*
X141180499Y-66952128D01*
X141174091Y-66892517D01*
X141170214Y-66882123D01*
X141123797Y-66757671D01*
X141123793Y-66757664D01*
X141037547Y-66642455D01*
X141037544Y-66642452D01*
X140922335Y-66556206D01*
X140922328Y-66556202D01*
X140787482Y-66505908D01*
X140787483Y-66505908D01*
X140727883Y-66499501D01*
X140727881Y-66499500D01*
X140727873Y-66499500D01*
X140727864Y-66499500D01*
X139032129Y-66499500D01*
X139032123Y-66499501D01*
X138972516Y-66505908D01*
X138837671Y-66556202D01*
X138837664Y-66556206D01*
X138722455Y-66642452D01*
X138722452Y-66642455D01*
X138636206Y-66757664D01*
X138636202Y-66757671D01*
X138585908Y-66892517D01*
X138580384Y-66943902D01*
X138579501Y-66952123D01*
X138579500Y-66952135D01*
X138579500Y-68647870D01*
X138579501Y-68647876D01*
X138585908Y-68707483D01*
X138636202Y-68842328D01*
X138636206Y-68842335D01*
X138722452Y-68957544D01*
X138722455Y-68957547D01*
X138837664Y-69043793D01*
X138837671Y-69043797D01*
X138866006Y-69054365D01*
X138972517Y-69094091D01*
X139007596Y-69097862D01*
X139072144Y-69124599D01*
X139111993Y-69181991D01*
X139114488Y-69251816D01*
X139078836Y-69311905D01*
X139065464Y-69322725D01*
X139040858Y-69339954D01*
X138879954Y-69500858D01*
X138749432Y-69687265D01*
X138749431Y-69687267D01*
X138653261Y-69893502D01*
X138653258Y-69893511D01*
X138594366Y-70113302D01*
X138594364Y-70113313D01*
X138574532Y-70339998D01*
X138574532Y-70340001D01*
X138594364Y-70566686D01*
X138594366Y-70566697D01*
X138653258Y-70786488D01*
X138653261Y-70786497D01*
X138749431Y-70992732D01*
X138749432Y-70992734D01*
X138879954Y-71179141D01*
X139040858Y-71340045D01*
X139040861Y-71340047D01*
X139227266Y-71470568D01*
X139285275Y-71497618D01*
X139337714Y-71543791D01*
X139356866Y-71610984D01*
X139336650Y-71677865D01*
X139285275Y-71722382D01*
X139227267Y-71749431D01*
X139227265Y-71749432D01*
X139040858Y-71879954D01*
X138879954Y-72040858D01*
X138749432Y-72227265D01*
X138749431Y-72227267D01*
X138653261Y-72433502D01*
X138653258Y-72433511D01*
X138594366Y-72653302D01*
X138594364Y-72653313D01*
X138574532Y-72879998D01*
X138574532Y-72880001D01*
X138594364Y-73106686D01*
X138594366Y-73106697D01*
X138653258Y-73326488D01*
X138653261Y-73326497D01*
X138749431Y-73532732D01*
X138749432Y-73532734D01*
X138879954Y-73719141D01*
X139040858Y-73880045D01*
X139040861Y-73880047D01*
X139227266Y-74010568D01*
X139285275Y-74037618D01*
X139337714Y-74083791D01*
X139356866Y-74150984D01*
X139336650Y-74217865D01*
X139285275Y-74262382D01*
X139227267Y-74289431D01*
X139227265Y-74289432D01*
X139040858Y-74419954D01*
X138879954Y-74580858D01*
X138749432Y-74767265D01*
X138749431Y-74767267D01*
X138653261Y-74973502D01*
X138653258Y-74973511D01*
X138594366Y-75193302D01*
X138594364Y-75193313D01*
X138574532Y-75419998D01*
X138574532Y-75420001D01*
X138594364Y-75646686D01*
X138594366Y-75646697D01*
X138653258Y-75866488D01*
X138653261Y-75866497D01*
X138749431Y-76072732D01*
X138749432Y-76072734D01*
X138879954Y-76259141D01*
X139040858Y-76420045D01*
X139087693Y-76452839D01*
X139227266Y-76550568D01*
X139285275Y-76577618D01*
X139337714Y-76623791D01*
X139356866Y-76690984D01*
X139336650Y-76757865D01*
X139285275Y-76802382D01*
X139227267Y-76829431D01*
X139227265Y-76829432D01*
X139040858Y-76959954D01*
X138879954Y-77120858D01*
X138749432Y-77307265D01*
X138749431Y-77307267D01*
X138653261Y-77513502D01*
X138653258Y-77513511D01*
X138594366Y-77733302D01*
X138594364Y-77733313D01*
X138574532Y-77959998D01*
X138574532Y-77960001D01*
X138594364Y-78186686D01*
X138594366Y-78186697D01*
X138653258Y-78406488D01*
X138653261Y-78406497D01*
X138749431Y-78612732D01*
X138749432Y-78612734D01*
X138879954Y-78799141D01*
X139040858Y-78960045D01*
X139040861Y-78960047D01*
X139227266Y-79090568D01*
X139285275Y-79117618D01*
X139337714Y-79163791D01*
X139356866Y-79230984D01*
X139336650Y-79297865D01*
X139285275Y-79342382D01*
X139227267Y-79369431D01*
X139227265Y-79369432D01*
X139040858Y-79499954D01*
X138879954Y-79660858D01*
X138749432Y-79847265D01*
X138749431Y-79847267D01*
X138653261Y-80053502D01*
X138653258Y-80053511D01*
X138594366Y-80273302D01*
X138594364Y-80273313D01*
X138574532Y-80499998D01*
X138574532Y-80500001D01*
X138594364Y-80726686D01*
X138594366Y-80726697D01*
X138653258Y-80946488D01*
X138653261Y-80946497D01*
X138749431Y-81152732D01*
X138749432Y-81152734D01*
X138879954Y-81339141D01*
X139040858Y-81500045D01*
X139040861Y-81500047D01*
X139227266Y-81630568D01*
X139285275Y-81657618D01*
X139337714Y-81703791D01*
X139356866Y-81770984D01*
X139336650Y-81837865D01*
X139285275Y-81882382D01*
X139227267Y-81909431D01*
X139227265Y-81909432D01*
X139040858Y-82039954D01*
X138879954Y-82200858D01*
X138749432Y-82387265D01*
X138749431Y-82387267D01*
X138653261Y-82593502D01*
X138653258Y-82593511D01*
X138594366Y-82813302D01*
X138594364Y-82813313D01*
X138574532Y-83039998D01*
X138574532Y-83040001D01*
X138594364Y-83266686D01*
X138594366Y-83266697D01*
X138653258Y-83486488D01*
X138653261Y-83486497D01*
X138749431Y-83692732D01*
X138749432Y-83692734D01*
X138879954Y-83879141D01*
X139040858Y-84040045D01*
X139040861Y-84040047D01*
X139227266Y-84170568D01*
X139285275Y-84197618D01*
X139337714Y-84243791D01*
X139356866Y-84310984D01*
X139336650Y-84377865D01*
X139285275Y-84422382D01*
X139227267Y-84449431D01*
X139227265Y-84449432D01*
X139040858Y-84579954D01*
X138879954Y-84740858D01*
X138749432Y-84927265D01*
X138749431Y-84927267D01*
X138653261Y-85133502D01*
X138653258Y-85133511D01*
X138594366Y-85353302D01*
X138594364Y-85353313D01*
X138574532Y-85579998D01*
X138574532Y-85580001D01*
X138594364Y-85806686D01*
X138594366Y-85806697D01*
X138653258Y-86026488D01*
X138653261Y-86026497D01*
X138749431Y-86232732D01*
X138749432Y-86232734D01*
X138879954Y-86419141D01*
X139040858Y-86580045D01*
X139040861Y-86580047D01*
X139227266Y-86710568D01*
X139433504Y-86806739D01*
X139653308Y-86865635D01*
X139815230Y-86879801D01*
X139879998Y-86885468D01*
X139880000Y-86885468D01*
X139880002Y-86885468D01*
X139936673Y-86880509D01*
X140106692Y-86865635D01*
X140326496Y-86806739D01*
X140532734Y-86710568D01*
X140719139Y-86580047D01*
X140880047Y-86419139D01*
X141010568Y-86232734D01*
X141106739Y-86026496D01*
X141165635Y-85806692D01*
X141185468Y-85580000D01*
X141165635Y-85353308D01*
X141106739Y-85133504D01*
X141010568Y-84927266D01*
X140880047Y-84740861D01*
X140880045Y-84740858D01*
X140719141Y-84579954D01*
X140532734Y-84449432D01*
X140532728Y-84449429D01*
X140474725Y-84422382D01*
X140422285Y-84376210D01*
X140403133Y-84309017D01*
X140423348Y-84242135D01*
X140474725Y-84197618D01*
X140532734Y-84170568D01*
X140719139Y-84040047D01*
X140880047Y-83879139D01*
X141010568Y-83692734D01*
X141106739Y-83486496D01*
X141165635Y-83266692D01*
X141185468Y-83040000D01*
X141165635Y-82813308D01*
X141106739Y-82593504D01*
X141010568Y-82387266D01*
X140880047Y-82200861D01*
X140880045Y-82200858D01*
X140719141Y-82039954D01*
X140532734Y-81909432D01*
X140532728Y-81909429D01*
X140474725Y-81882382D01*
X140422285Y-81836210D01*
X140403133Y-81769017D01*
X140423348Y-81702135D01*
X140474725Y-81657618D01*
X140532734Y-81630568D01*
X140719139Y-81500047D01*
X140880047Y-81339139D01*
X140975108Y-81203377D01*
X141029685Y-81159752D01*
X141076683Y-81150500D01*
X142179192Y-81150500D01*
X142246231Y-81170185D01*
X142266873Y-81186819D01*
X142313181Y-81233127D01*
X142346666Y-81294450D01*
X142349500Y-81320808D01*
X142349500Y-88064069D01*
X142349500Y-88064071D01*
X142349499Y-88064071D01*
X142374497Y-88189738D01*
X142374499Y-88189744D01*
X142423534Y-88308125D01*
X142494726Y-88414673D01*
X142494727Y-88414674D01*
X143678277Y-89598223D01*
X143711762Y-89659546D01*
X143713815Y-89672012D01*
X143714630Y-89679246D01*
X143714632Y-89679255D01*
X143774210Y-89849521D01*
X143870184Y-90002262D01*
X143997738Y-90129816D01*
X144150478Y-90225789D01*
X144320745Y-90285368D01*
X144320750Y-90285369D01*
X144499996Y-90305565D01*
X144500000Y-90305565D01*
X144500004Y-90305565D01*
X144679249Y-90285369D01*
X144679252Y-90285368D01*
X144679255Y-90285368D01*
X144849522Y-90225789D01*
X145002262Y-90129816D01*
X145129816Y-90002262D01*
X145225789Y-89849522D01*
X145285368Y-89679255D01*
X145305565Y-89500000D01*
X145285368Y-89320745D01*
X145225789Y-89150478D01*
X145129816Y-88997738D01*
X145002262Y-88870184D01*
X144966681Y-88847827D01*
X144849521Y-88774210D01*
X144679255Y-88714632D01*
X144679246Y-88714630D01*
X144672012Y-88713815D01*
X144607600Y-88686744D01*
X144598223Y-88678277D01*
X143686819Y-87766873D01*
X143653334Y-87705550D01*
X143650500Y-87679192D01*
X143650500Y-80935928D01*
X143625502Y-80810261D01*
X143625501Y-80810260D01*
X143625501Y-80810256D01*
X143576465Y-80691873D01*
X143528299Y-80619787D01*
X143505277Y-80585331D01*
X143212666Y-80292720D01*
X142914674Y-79994727D01*
X142914673Y-79994726D01*
X142914669Y-79994723D01*
X142808127Y-79923535D01*
X142786720Y-79914668D01*
X142689744Y-79874499D01*
X142689738Y-79874497D01*
X142564071Y-79849500D01*
X142564069Y-79849500D01*
X141076683Y-79849500D01*
X141009644Y-79829815D01*
X140975108Y-79796623D01*
X140880045Y-79660858D01*
X140719141Y-79499954D01*
X140532734Y-79369432D01*
X140532728Y-79369429D01*
X140474725Y-79342382D01*
X140422285Y-79296210D01*
X140403133Y-79229017D01*
X140423348Y-79162135D01*
X140474725Y-79117618D01*
X140532734Y-79090568D01*
X140719139Y-78960047D01*
X140880047Y-78799139D01*
X141010568Y-78612734D01*
X141106739Y-78406496D01*
X141165635Y-78186692D01*
X141185207Y-77962981D01*
X141185468Y-77960001D01*
X141185468Y-77959998D01*
X141175801Y-77849502D01*
X141165635Y-77733308D01*
X141154790Y-77692834D01*
X141156453Y-77622984D01*
X141186882Y-77573062D01*
X145505276Y-73254670D01*
X145553498Y-73182500D01*
X145576464Y-73148129D01*
X145585013Y-73127490D01*
X145625501Y-73029744D01*
X145631460Y-72999787D01*
X145650500Y-72904069D01*
X145650500Y-67820808D01*
X145670185Y-67753769D01*
X145686819Y-67733127D01*
X145854427Y-67565519D01*
X146022440Y-67397505D01*
X146083761Y-67364022D01*
X146153452Y-67369006D01*
X146209386Y-67410877D01*
X146233803Y-67476342D01*
X146229894Y-67517281D01*
X146221127Y-67549998D01*
X146221128Y-67550000D01*
X147184314Y-67550000D01*
X147179920Y-67554394D01*
X147127259Y-67645606D01*
X147100000Y-67747339D01*
X147100000Y-67852661D01*
X147127259Y-67954394D01*
X147179920Y-68045606D01*
X147184314Y-68050000D01*
X146221128Y-68050000D01*
X146273730Y-68246317D01*
X146273734Y-68246326D01*
X146369865Y-68452482D01*
X146500342Y-68638820D01*
X146661179Y-68799657D01*
X146847518Y-68930134D01*
X146847520Y-68930135D01*
X146905865Y-68957342D01*
X146958305Y-69003514D01*
X146977457Y-69070707D01*
X146957242Y-69137589D01*
X146905867Y-69182105D01*
X146870388Y-69198650D01*
X146847264Y-69209433D01*
X146660858Y-69339954D01*
X146499954Y-69500858D01*
X146369432Y-69687265D01*
X146369431Y-69687267D01*
X146273261Y-69893502D01*
X146273258Y-69893511D01*
X146214366Y-70113302D01*
X146214364Y-70113313D01*
X146194532Y-70339998D01*
X146194532Y-70340001D01*
X146214364Y-70566686D01*
X146214366Y-70566697D01*
X146273258Y-70786488D01*
X146273261Y-70786497D01*
X146369431Y-70992732D01*
X146369432Y-70992734D01*
X146499954Y-71179141D01*
X146660858Y-71340045D01*
X146660861Y-71340047D01*
X146847266Y-71470568D01*
X146905275Y-71497618D01*
X146957714Y-71543791D01*
X146976866Y-71610984D01*
X146956650Y-71677865D01*
X146905275Y-71722382D01*
X146847267Y-71749431D01*
X146847265Y-71749432D01*
X146660858Y-71879954D01*
X146499954Y-72040858D01*
X146369432Y-72227265D01*
X146369431Y-72227267D01*
X146273261Y-72433502D01*
X146273258Y-72433511D01*
X146214366Y-72653302D01*
X146214364Y-72653313D01*
X146194532Y-72879998D01*
X146194532Y-72880001D01*
X146214364Y-73106686D01*
X146214366Y-73106697D01*
X146273258Y-73326488D01*
X146273261Y-73326497D01*
X146369431Y-73532732D01*
X146369432Y-73532734D01*
X146499954Y-73719141D01*
X146660858Y-73880045D01*
X146660861Y-73880047D01*
X146847266Y-74010568D01*
X146905275Y-74037618D01*
X146957714Y-74083791D01*
X146976866Y-74150984D01*
X146956650Y-74217865D01*
X146905275Y-74262382D01*
X146847267Y-74289431D01*
X146847265Y-74289432D01*
X146660858Y-74419954D01*
X146499954Y-74580858D01*
X146369432Y-74767265D01*
X146369431Y-74767267D01*
X146273261Y-74973502D01*
X146273258Y-74973511D01*
X146214366Y-75193302D01*
X146214364Y-75193313D01*
X146194532Y-75419998D01*
X146194532Y-75420001D01*
X146214364Y-75646686D01*
X146214366Y-75646697D01*
X146273258Y-75866488D01*
X146273261Y-75866497D01*
X146369431Y-76072732D01*
X146369432Y-76072734D01*
X146499954Y-76259141D01*
X146660858Y-76420045D01*
X146707693Y-76452839D01*
X146847266Y-76550568D01*
X146905275Y-76577618D01*
X146957714Y-76623791D01*
X146976866Y-76690984D01*
X146956650Y-76757865D01*
X146905275Y-76802382D01*
X146847267Y-76829431D01*
X146847265Y-76829432D01*
X146660858Y-76959954D01*
X146499954Y-77120858D01*
X146369432Y-77307265D01*
X146369431Y-77307267D01*
X146273261Y-77513502D01*
X146273258Y-77513511D01*
X146214366Y-77733302D01*
X146214364Y-77733313D01*
X146194532Y-77959998D01*
X146194532Y-77960001D01*
X146214364Y-78186686D01*
X146214366Y-78186697D01*
X146273258Y-78406488D01*
X146273261Y-78406497D01*
X146369431Y-78612732D01*
X146369432Y-78612734D01*
X146499954Y-78799141D01*
X146660858Y-78960045D01*
X146660861Y-78960047D01*
X146847266Y-79090568D01*
X146905275Y-79117618D01*
X146957714Y-79163791D01*
X146976866Y-79230984D01*
X146956650Y-79297865D01*
X146905275Y-79342382D01*
X146847267Y-79369431D01*
X146847265Y-79369432D01*
X146660858Y-79499954D01*
X146499954Y-79660858D01*
X146369432Y-79847265D01*
X146369431Y-79847267D01*
X146273261Y-80053502D01*
X146273258Y-80053511D01*
X146214366Y-80273302D01*
X146214364Y-80273313D01*
X146194532Y-80499998D01*
X146194532Y-80500001D01*
X146214364Y-80726686D01*
X146214366Y-80726697D01*
X146273258Y-80946488D01*
X146273261Y-80946497D01*
X146369431Y-81152732D01*
X146369432Y-81152734D01*
X146503058Y-81343574D01*
X146501250Y-81344839D01*
X146525470Y-81400153D01*
X146514444Y-81469147D01*
X146490152Y-81503555D01*
X145494727Y-82498979D01*
X145494726Y-82498980D01*
X145430779Y-82594686D01*
X145430777Y-82594688D01*
X145423537Y-82605522D01*
X145423534Y-82605528D01*
X145374499Y-82723909D01*
X145374497Y-82723915D01*
X145349500Y-82849582D01*
X145349500Y-82849585D01*
X145349500Y-82935931D01*
X145349500Y-84144069D01*
X145349500Y-84144071D01*
X145349499Y-84144071D01*
X145373901Y-84266740D01*
X145374498Y-84269742D01*
X145423532Y-84388123D01*
X145494726Y-84494673D01*
X145494727Y-84494674D01*
X146193115Y-85193061D01*
X146226600Y-85254384D01*
X146225209Y-85312834D01*
X146214367Y-85353299D01*
X146214364Y-85353313D01*
X146194532Y-85579998D01*
X146194532Y-85580001D01*
X146214364Y-85806686D01*
X146214366Y-85806697D01*
X146273258Y-86026488D01*
X146273261Y-86026497D01*
X146369431Y-86232732D01*
X146369432Y-86232734D01*
X146499954Y-86419141D01*
X146660858Y-86580045D01*
X146660861Y-86580047D01*
X146847266Y-86710568D01*
X147053504Y-86806739D01*
X147273308Y-86865635D01*
X147435230Y-86879801D01*
X147499998Y-86885468D01*
X147500000Y-86885468D01*
X147500002Y-86885468D01*
X147556673Y-86880509D01*
X147726692Y-86865635D01*
X147946496Y-86806739D01*
X148152734Y-86710568D01*
X148339139Y-86580047D01*
X148500047Y-86419139D01*
X148630568Y-86232734D01*
X148668143Y-86152155D01*
X156620000Y-86152155D01*
X156620000Y-87250000D01*
X157819999Y-87250000D01*
X157794979Y-87310402D01*
X157770000Y-87435981D01*
X157770000Y-87564019D01*
X157794979Y-87689598D01*
X157819999Y-87750000D01*
X156620000Y-87750000D01*
X156620000Y-88847844D01*
X156626401Y-88907372D01*
X156626403Y-88907379D01*
X156676645Y-89042086D01*
X156676649Y-89042093D01*
X156762809Y-89157187D01*
X156762812Y-89157190D01*
X156877906Y-89243350D01*
X156877913Y-89243354D01*
X157012620Y-89293596D01*
X157012627Y-89293598D01*
X157072155Y-89299999D01*
X157072172Y-89300000D01*
X158170000Y-89300000D01*
X158170000Y-88100001D01*
X158230402Y-88125021D01*
X158355981Y-88150000D01*
X158484019Y-88150000D01*
X158609598Y-88125021D01*
X158670000Y-88100001D01*
X158670000Y-89300000D01*
X159767828Y-89300000D01*
X159767844Y-89299999D01*
X159827372Y-89293598D01*
X159827379Y-89293596D01*
X159962086Y-89243354D01*
X159962093Y-89243350D01*
X160077187Y-89157190D01*
X160077190Y-89157187D01*
X160163350Y-89042093D01*
X160163354Y-89042086D01*
X160213596Y-88907379D01*
X160213598Y-88907372D01*
X160219999Y-88847844D01*
X160220000Y-88847827D01*
X160220000Y-87750000D01*
X159020001Y-87750000D01*
X159045021Y-87689598D01*
X159070000Y-87564019D01*
X159070000Y-87499995D01*
X161694451Y-87499995D01*
X161694451Y-87500004D01*
X161714616Y-87769101D01*
X161774664Y-88032188D01*
X161774666Y-88032195D01*
X161820901Y-88150000D01*
X161873257Y-88283398D01*
X162008185Y-88517102D01*
X162136718Y-88678277D01*
X162176442Y-88728089D01*
X162329585Y-88870184D01*
X162374259Y-88911635D01*
X162597226Y-89063651D01*
X162840359Y-89180738D01*
X163098228Y-89260280D01*
X163098229Y-89260280D01*
X163098232Y-89260281D01*
X163365063Y-89300499D01*
X163365068Y-89300499D01*
X163365071Y-89300500D01*
X163365072Y-89300500D01*
X163634928Y-89300500D01*
X163634929Y-89300500D01*
X163634936Y-89300499D01*
X163901767Y-89260281D01*
X163901768Y-89260280D01*
X163901772Y-89260280D01*
X164159641Y-89180738D01*
X164402775Y-89063651D01*
X164625741Y-88911635D01*
X164823561Y-88728085D01*
X164991815Y-88517102D01*
X165126743Y-88283398D01*
X165225334Y-88032195D01*
X165285383Y-87769103D01*
X165305549Y-87500000D01*
X165295518Y-87366148D01*
X165287182Y-87254905D01*
X165285383Y-87230897D01*
X165225334Y-86967805D01*
X165126743Y-86716602D01*
X164991815Y-86482898D01*
X164823561Y-86271915D01*
X164823560Y-86271914D01*
X164823557Y-86271910D01*
X164625741Y-86088365D01*
X164613108Y-86079752D01*
X164402775Y-85936349D01*
X164402769Y-85936346D01*
X164402768Y-85936345D01*
X164402767Y-85936344D01*
X164159643Y-85819263D01*
X164159645Y-85819263D01*
X163901773Y-85739720D01*
X163901767Y-85739718D01*
X163634936Y-85699500D01*
X163634929Y-85699500D01*
X163365071Y-85699500D01*
X163365063Y-85699500D01*
X163098232Y-85739718D01*
X163098226Y-85739720D01*
X162840358Y-85819262D01*
X162597230Y-85936346D01*
X162374258Y-86088365D01*
X162176442Y-86271910D01*
X162008185Y-86482898D01*
X161873258Y-86716599D01*
X161873256Y-86716603D01*
X161774666Y-86967804D01*
X161774664Y-86967811D01*
X161714616Y-87230898D01*
X161694451Y-87499995D01*
X159070000Y-87499995D01*
X159070000Y-87435981D01*
X159045021Y-87310402D01*
X159020001Y-87250000D01*
X160220000Y-87250000D01*
X160220000Y-86152172D01*
X160219999Y-86152155D01*
X160213598Y-86092627D01*
X160213596Y-86092620D01*
X160163354Y-85957913D01*
X160163350Y-85957906D01*
X160077190Y-85842812D01*
X160077187Y-85842809D01*
X159962093Y-85756649D01*
X159962086Y-85756645D01*
X159827379Y-85706403D01*
X159827372Y-85706401D01*
X159767844Y-85700000D01*
X158670000Y-85700000D01*
X158670000Y-86899998D01*
X158609598Y-86874979D01*
X158484019Y-86850000D01*
X158355981Y-86850000D01*
X158230402Y-86874979D01*
X158170000Y-86899998D01*
X158170000Y-85700000D01*
X157072155Y-85700000D01*
X157012627Y-85706401D01*
X157012620Y-85706403D01*
X156877913Y-85756645D01*
X156877906Y-85756649D01*
X156762812Y-85842809D01*
X156762809Y-85842812D01*
X156676649Y-85957906D01*
X156676645Y-85957913D01*
X156626403Y-86092620D01*
X156626401Y-86092627D01*
X156620000Y-86152155D01*
X148668143Y-86152155D01*
X148726739Y-86026496D01*
X148785635Y-85806692D01*
X148805468Y-85580000D01*
X148785635Y-85353308D01*
X148726739Y-85133504D01*
X148630568Y-84927266D01*
X148500047Y-84740861D01*
X148500045Y-84740858D01*
X148339141Y-84579954D01*
X148152734Y-84449432D01*
X148152728Y-84449429D01*
X148094725Y-84422382D01*
X148042285Y-84376210D01*
X148023133Y-84309017D01*
X148043348Y-84242135D01*
X148094725Y-84197618D01*
X148152734Y-84170568D01*
X148339139Y-84040047D01*
X148500047Y-83879139D01*
X148595108Y-83743377D01*
X148649685Y-83699752D01*
X148696683Y-83690500D01*
X154524071Y-83690500D01*
X154608615Y-83673682D01*
X154649744Y-83665501D01*
X154768127Y-83616465D01*
X154770836Y-83614654D01*
X154771772Y-83614030D01*
X154806991Y-83590497D01*
X154874669Y-83545277D01*
X157505276Y-80914670D01*
X157540870Y-80861398D01*
X157576464Y-80808129D01*
X157591672Y-80771413D01*
X157625501Y-80689744D01*
X157633779Y-80648127D01*
X157649978Y-80566692D01*
X157650500Y-80564070D01*
X157650500Y-79400557D01*
X157670185Y-79333518D01*
X157722989Y-79287763D01*
X157792147Y-79277819D01*
X157815446Y-79283513D01*
X157820745Y-79285368D01*
X157820752Y-79285368D01*
X157820753Y-79285369D01*
X157999996Y-79305565D01*
X158000000Y-79305565D01*
X158000004Y-79305565D01*
X158179249Y-79285369D01*
X158179251Y-79285368D01*
X158179255Y-79285368D01*
X158179258Y-79285366D01*
X158179262Y-79285366D01*
X158275141Y-79251816D01*
X158349522Y-79225789D01*
X158439096Y-79169505D01*
X158505068Y-79150500D01*
X166638268Y-79150500D01*
X166705307Y-79170185D01*
X166751062Y-79222989D01*
X166761006Y-79292147D01*
X166760741Y-79293897D01*
X166748778Y-79369431D01*
X166737500Y-79440639D01*
X166737500Y-79639361D01*
X166745088Y-79687267D01*
X166768587Y-79835637D01*
X166829993Y-80024629D01*
X166829994Y-80024632D01*
X166920213Y-80201694D01*
X167037019Y-80362464D01*
X167177536Y-80502981D01*
X167338306Y-80619787D01*
X167393926Y-80648127D01*
X167515367Y-80710005D01*
X167515370Y-80710006D01*
X167566741Y-80726697D01*
X167704364Y-80771413D01*
X167900639Y-80802500D01*
X167900640Y-80802500D01*
X169099360Y-80802500D01*
X169099361Y-80802500D01*
X169295636Y-80771413D01*
X169484632Y-80710005D01*
X169661694Y-80619787D01*
X169822464Y-80502981D01*
X169962981Y-80362464D01*
X170079787Y-80201694D01*
X170170005Y-80024632D01*
X170231413Y-79835636D01*
X170262500Y-79639361D01*
X170262500Y-79440639D01*
X170231413Y-79244364D01*
X170190231Y-79117618D01*
X170170006Y-79055370D01*
X170170005Y-79055367D01*
X170120058Y-78957342D01*
X170079787Y-78878306D01*
X169962981Y-78717536D01*
X169822464Y-78577019D01*
X169661694Y-78460213D01*
X169505218Y-78380484D01*
X169454423Y-78332510D01*
X169437628Y-78264689D01*
X169460165Y-78198554D01*
X169505218Y-78159515D01*
X169661694Y-78079787D01*
X169822464Y-77962981D01*
X169962981Y-77822464D01*
X170079787Y-77661694D01*
X170170005Y-77484632D01*
X170231413Y-77295636D01*
X170262500Y-77099361D01*
X170262500Y-76900639D01*
X170231413Y-76704364D01*
X170183274Y-76556206D01*
X170170006Y-76515370D01*
X170170005Y-76515367D01*
X170121312Y-76419803D01*
X170079787Y-76338306D01*
X169962981Y-76177536D01*
X169822464Y-76037019D01*
X169661694Y-75920213D01*
X169505218Y-75840484D01*
X169454423Y-75792510D01*
X169437628Y-75724689D01*
X169460165Y-75658554D01*
X169505218Y-75619515D01*
X169661694Y-75539787D01*
X169822464Y-75422981D01*
X169962981Y-75282464D01*
X170079787Y-75121694D01*
X170170005Y-74944632D01*
X170231413Y-74755636D01*
X170262500Y-74559361D01*
X170262500Y-74360639D01*
X170231413Y-74164364D01*
X170170005Y-73975368D01*
X170170003Y-73975362D01*
X170121313Y-73879805D01*
X170108416Y-73811135D01*
X170134692Y-73746395D01*
X170144107Y-73735837D01*
X171287820Y-72592124D01*
X171349142Y-72558641D01*
X171418834Y-72563625D01*
X171474767Y-72605497D01*
X171499184Y-72670961D01*
X171499500Y-72679807D01*
X171499500Y-93375500D01*
X171479815Y-93442539D01*
X171427011Y-93488294D01*
X171375500Y-93499500D01*
X119624500Y-93499500D01*
X119557461Y-93479815D01*
X119511706Y-93427011D01*
X119500500Y-93375500D01*
X119500500Y-88046879D01*
X136346672Y-88046879D01*
X136346672Y-88046880D01*
X136462821Y-88118797D01*
X136462822Y-88118798D01*
X136670195Y-88199134D01*
X136888807Y-88240000D01*
X137111193Y-88240000D01*
X137329809Y-88199133D01*
X137537168Y-88118801D01*
X137537181Y-88118795D01*
X137653326Y-88046879D01*
X137000001Y-87393553D01*
X137000000Y-87393553D01*
X136346672Y-88046879D01*
X119500500Y-88046879D01*
X119500500Y-87039999D01*
X135794859Y-87039999D01*
X135794859Y-87040000D01*
X135815378Y-87261439D01*
X135876240Y-87475350D01*
X135975369Y-87674428D01*
X135991137Y-87695308D01*
X135991138Y-87695308D01*
X136646447Y-87040000D01*
X136600369Y-86993922D01*
X136650000Y-86993922D01*
X136650000Y-87086078D01*
X136673852Y-87175095D01*
X136719930Y-87254905D01*
X136785095Y-87320070D01*
X136864905Y-87366148D01*
X136953922Y-87390000D01*
X137046078Y-87390000D01*
X137135095Y-87366148D01*
X137214905Y-87320070D01*
X137280070Y-87254905D01*
X137326148Y-87175095D01*
X137350000Y-87086078D01*
X137350000Y-87039999D01*
X137353553Y-87039999D01*
X137353553Y-87040000D01*
X138008861Y-87695308D01*
X138024631Y-87674425D01*
X138024633Y-87674422D01*
X138123759Y-87475350D01*
X138184621Y-87261439D01*
X138205141Y-87040000D01*
X138205141Y-87039999D01*
X138184621Y-86818560D01*
X138123759Y-86604649D01*
X138024635Y-86405580D01*
X138024630Y-86405572D01*
X138008860Y-86384690D01*
X137353553Y-87039999D01*
X137350000Y-87039999D01*
X137350000Y-86993922D01*
X137326148Y-86904905D01*
X137280070Y-86825095D01*
X137214905Y-86759930D01*
X137135095Y-86713852D01*
X137046078Y-86690000D01*
X136953922Y-86690000D01*
X136864905Y-86713852D01*
X136785095Y-86759930D01*
X136719930Y-86825095D01*
X136673852Y-86904905D01*
X136650000Y-86993922D01*
X136600369Y-86993922D01*
X135991138Y-86384691D01*
X135991137Y-86384691D01*
X135975368Y-86405574D01*
X135876240Y-86604649D01*
X135815378Y-86818560D01*
X135794859Y-87039999D01*
X119500500Y-87039999D01*
X119500500Y-80339998D01*
X120454532Y-80339998D01*
X120454532Y-80340001D01*
X120474364Y-80566686D01*
X120474366Y-80566697D01*
X120533258Y-80786488D01*
X120533261Y-80786497D01*
X120629431Y-80992732D01*
X120629432Y-80992734D01*
X120759954Y-81179141D01*
X120920858Y-81340045D01*
X120920861Y-81340047D01*
X121107266Y-81470568D01*
X121165275Y-81497618D01*
X121217714Y-81543791D01*
X121236866Y-81610984D01*
X121216650Y-81677865D01*
X121165275Y-81722382D01*
X121107267Y-81749431D01*
X121107265Y-81749432D01*
X120920858Y-81879954D01*
X120759954Y-82040858D01*
X120629432Y-82227265D01*
X120629431Y-82227267D01*
X120533261Y-82433502D01*
X120533258Y-82433511D01*
X120474366Y-82653302D01*
X120474364Y-82653313D01*
X120454532Y-82879998D01*
X120454532Y-82880001D01*
X120474364Y-83106686D01*
X120474366Y-83106697D01*
X120533258Y-83326488D01*
X120533261Y-83326497D01*
X120629431Y-83532732D01*
X120629432Y-83532734D01*
X120759954Y-83719141D01*
X120920858Y-83880045D01*
X120920861Y-83880047D01*
X121107266Y-84010568D01*
X121165865Y-84037893D01*
X121218305Y-84084065D01*
X121237457Y-84151258D01*
X121217242Y-84218139D01*
X121165867Y-84262657D01*
X121107515Y-84289867D01*
X120921179Y-84420342D01*
X120760342Y-84581179D01*
X120629865Y-84767517D01*
X120533734Y-84973673D01*
X120533730Y-84973682D01*
X120481127Y-85169999D01*
X120481128Y-85170000D01*
X121444314Y-85170000D01*
X121439920Y-85174394D01*
X121387259Y-85265606D01*
X121360000Y-85367339D01*
X121360000Y-85472661D01*
X121387259Y-85574394D01*
X121439920Y-85665606D01*
X121444314Y-85670000D01*
X120481128Y-85670000D01*
X120533730Y-85866317D01*
X120533734Y-85866326D01*
X120629865Y-86072482D01*
X120760342Y-86258820D01*
X120921179Y-86419657D01*
X121107517Y-86550134D01*
X121313673Y-86646265D01*
X121313682Y-86646269D01*
X121509999Y-86698872D01*
X121510000Y-86698871D01*
X121510000Y-85735686D01*
X121514394Y-85740080D01*
X121605606Y-85792741D01*
X121707339Y-85820000D01*
X121812661Y-85820000D01*
X121914394Y-85792741D01*
X122005606Y-85740080D01*
X122010000Y-85735686D01*
X122010000Y-86698872D01*
X122206317Y-86646269D01*
X122206326Y-86646265D01*
X122412482Y-86550134D01*
X122598820Y-86419657D01*
X122759657Y-86258820D01*
X122890134Y-86072482D01*
X122986265Y-85866326D01*
X122986269Y-85866317D01*
X123038872Y-85670000D01*
X122075686Y-85670000D01*
X122080080Y-85665606D01*
X122132741Y-85574394D01*
X122160000Y-85472661D01*
X122160000Y-85367339D01*
X122132741Y-85265606D01*
X122080080Y-85174394D01*
X122075686Y-85170000D01*
X123038872Y-85170000D01*
X123038872Y-85169999D01*
X122986269Y-84973682D01*
X122986265Y-84973673D01*
X122890134Y-84767517D01*
X122759657Y-84581179D01*
X122598820Y-84420342D01*
X122412482Y-84289865D01*
X122354133Y-84262657D01*
X122301694Y-84216484D01*
X122282542Y-84149291D01*
X122302758Y-84082410D01*
X122354129Y-84037895D01*
X122412734Y-84010568D01*
X122599139Y-83880047D01*
X122760047Y-83719139D01*
X122890568Y-83532734D01*
X122986739Y-83326496D01*
X123045635Y-83106692D01*
X123065468Y-82880000D01*
X123045635Y-82653308D01*
X122986739Y-82433504D01*
X122890568Y-82227266D01*
X122760047Y-82040861D01*
X122760045Y-82040858D01*
X122599141Y-81879954D01*
X122412734Y-81749432D01*
X122412728Y-81749429D01*
X122385038Y-81736517D01*
X122354724Y-81722381D01*
X122302285Y-81676210D01*
X122283133Y-81609017D01*
X122303348Y-81542135D01*
X122354725Y-81497618D01*
X122412734Y-81470568D01*
X122599139Y-81340047D01*
X122760047Y-81179139D01*
X122890568Y-80992734D01*
X122986739Y-80786496D01*
X123045635Y-80566692D01*
X123062860Y-80369808D01*
X123065468Y-80340001D01*
X123065468Y-80339998D01*
X128074532Y-80339998D01*
X128074532Y-80340001D01*
X128094364Y-80566686D01*
X128094366Y-80566697D01*
X128153258Y-80786488D01*
X128153261Y-80786497D01*
X128249431Y-80992732D01*
X128249432Y-80992734D01*
X128379954Y-81179141D01*
X128540855Y-81340042D01*
X128540858Y-81340044D01*
X128540861Y-81340047D01*
X128676626Y-81435109D01*
X128720248Y-81489683D01*
X128729500Y-81536682D01*
X128729500Y-81683316D01*
X128709815Y-81750355D01*
X128676623Y-81784891D01*
X128540859Y-81879953D01*
X128379954Y-82040858D01*
X128249432Y-82227265D01*
X128249431Y-82227267D01*
X128153261Y-82433502D01*
X128153258Y-82433511D01*
X128094366Y-82653302D01*
X128094364Y-82653313D01*
X128074532Y-82879998D01*
X128074532Y-82880001D01*
X128094364Y-83106686D01*
X128094366Y-83106697D01*
X128153258Y-83326488D01*
X128153261Y-83326497D01*
X128249431Y-83532732D01*
X128249432Y-83532734D01*
X128379954Y-83719141D01*
X128540858Y-83880045D01*
X128540861Y-83880047D01*
X128727266Y-84010568D01*
X128785275Y-84037618D01*
X128837714Y-84083791D01*
X128856866Y-84150984D01*
X128836650Y-84217865D01*
X128785275Y-84262382D01*
X128727267Y-84289431D01*
X128727265Y-84289432D01*
X128540858Y-84419954D01*
X128379954Y-84580858D01*
X128249432Y-84767265D01*
X128249431Y-84767267D01*
X128153261Y-84973502D01*
X128153258Y-84973511D01*
X128094366Y-85193302D01*
X128094364Y-85193313D01*
X128074532Y-85419998D01*
X128074532Y-85420001D01*
X128094364Y-85646686D01*
X128094366Y-85646697D01*
X128153258Y-85866488D01*
X128153261Y-85866497D01*
X128249431Y-86072732D01*
X128249432Y-86072734D01*
X128379954Y-86259141D01*
X128540858Y-86420045D01*
X128540861Y-86420047D01*
X128727266Y-86550568D01*
X128933504Y-86646739D01*
X129153308Y-86705635D01*
X129315230Y-86719801D01*
X129379998Y-86725468D01*
X129380000Y-86725468D01*
X129380002Y-86725468D01*
X129436673Y-86720509D01*
X129606692Y-86705635D01*
X129826496Y-86646739D01*
X130032734Y-86550568D01*
X130219139Y-86420047D01*
X130380047Y-86259139D01*
X130444255Y-86167438D01*
X130475108Y-86123377D01*
X130529685Y-86079752D01*
X130576683Y-86070500D01*
X131279799Y-86070500D01*
X131346838Y-86090185D01*
X131392593Y-86142989D01*
X131403089Y-86181248D01*
X131405908Y-86207483D01*
X131456202Y-86342328D01*
X131456206Y-86342335D01*
X131542452Y-86457544D01*
X131542455Y-86457547D01*
X131657664Y-86543793D01*
X131657671Y-86543797D01*
X131792517Y-86594091D01*
X131792516Y-86594091D01*
X131799444Y-86594835D01*
X131852127Y-86600500D01*
X133147872Y-86600499D01*
X133207483Y-86594091D01*
X133245137Y-86580047D01*
X133342329Y-86543797D01*
X133342329Y-86543796D01*
X133342331Y-86543796D01*
X133391521Y-86506971D01*
X133456982Y-86482554D01*
X133510622Y-86490610D01*
X133697544Y-86563024D01*
X133898024Y-86600500D01*
X133898026Y-86600500D01*
X134101974Y-86600500D01*
X134101976Y-86600500D01*
X134302456Y-86563024D01*
X134492637Y-86489348D01*
X134666041Y-86381981D01*
X134816764Y-86244579D01*
X134939673Y-86081821D01*
X134963924Y-86033119D01*
X136346671Y-86033119D01*
X137000000Y-86686447D01*
X137000001Y-86686447D01*
X137653327Y-86033119D01*
X137537178Y-85961202D01*
X137537177Y-85961201D01*
X137329804Y-85880865D01*
X137111193Y-85840000D01*
X136888807Y-85840000D01*
X136670195Y-85880865D01*
X136462824Y-85961200D01*
X136462823Y-85961201D01*
X136346671Y-86033119D01*
X134963924Y-86033119D01*
X135030582Y-85899250D01*
X135086397Y-85703083D01*
X135105215Y-85500000D01*
X135086397Y-85296917D01*
X135030582Y-85100750D01*
X134939673Y-84918179D01*
X134827396Y-84769500D01*
X134816762Y-84755418D01*
X134666041Y-84618019D01*
X134666039Y-84618017D01*
X134492642Y-84510655D01*
X134492635Y-84510651D01*
X134397546Y-84473814D01*
X134302456Y-84436976D01*
X134101976Y-84399500D01*
X133898024Y-84399500D01*
X133697544Y-84436976D01*
X133697541Y-84436976D01*
X133697541Y-84436977D01*
X133510626Y-84509388D01*
X133441002Y-84515250D01*
X133391521Y-84493027D01*
X133342335Y-84456206D01*
X133342328Y-84456202D01*
X133207482Y-84405908D01*
X133207483Y-84405908D01*
X133147883Y-84399501D01*
X133147881Y-84399500D01*
X133147873Y-84399500D01*
X133147864Y-84399500D01*
X131852129Y-84399500D01*
X131852123Y-84399501D01*
X131792516Y-84405908D01*
X131657671Y-84456202D01*
X131657664Y-84456206D01*
X131542455Y-84542452D01*
X131542452Y-84542455D01*
X131456206Y-84657664D01*
X131456202Y-84657671D01*
X131444580Y-84688833D01*
X131402709Y-84744767D01*
X131337244Y-84769184D01*
X131328398Y-84769500D01*
X130576683Y-84769500D01*
X130509644Y-84749815D01*
X130475108Y-84716623D01*
X130380045Y-84580858D01*
X130219141Y-84419954D01*
X130032734Y-84289432D01*
X130032728Y-84289429D01*
X129974725Y-84262382D01*
X129922285Y-84216210D01*
X129903133Y-84149017D01*
X129923348Y-84082135D01*
X129974725Y-84037618D01*
X130032734Y-84010568D01*
X130219139Y-83880047D01*
X130380047Y-83719139D01*
X130510568Y-83532734D01*
X130606739Y-83326496D01*
X130665635Y-83106692D01*
X130685468Y-82880000D01*
X130665635Y-82653308D01*
X130606739Y-82433504D01*
X130510568Y-82227266D01*
X130380047Y-82040861D01*
X130380045Y-82040858D01*
X130219140Y-81879953D01*
X130083377Y-81784891D01*
X130039752Y-81730314D01*
X130030500Y-81683316D01*
X130030500Y-81536682D01*
X130050185Y-81469643D01*
X130083371Y-81435111D01*
X130219139Y-81340047D01*
X130380047Y-81179139D01*
X130475108Y-81043377D01*
X130529685Y-80999752D01*
X130576683Y-80990500D01*
X131224071Y-80990500D01*
X131308615Y-80973682D01*
X131349744Y-80965501D01*
X131468127Y-80916465D01*
X131470836Y-80914654D01*
X131471772Y-80914030D01*
X131521573Y-80880754D01*
X131574669Y-80845277D01*
X132137819Y-80282127D01*
X132199142Y-80248642D01*
X132268833Y-80253626D01*
X132324767Y-80295497D01*
X132349184Y-80360962D01*
X132349500Y-80369808D01*
X132349500Y-80564070D01*
X132350022Y-80566692D01*
X132366221Y-80648127D01*
X132374499Y-80689744D01*
X132414575Y-80786497D01*
X132423535Y-80808127D01*
X132494723Y-80914669D01*
X132494726Y-80914673D01*
X134045325Y-82465272D01*
X134045332Y-82465278D01*
X134120495Y-82515500D01*
X134120498Y-82515501D01*
X134131004Y-82522521D01*
X134151872Y-82536465D01*
X134200908Y-82556776D01*
X134270256Y-82585501D01*
X134270260Y-82585501D01*
X134270261Y-82585502D01*
X134395928Y-82610500D01*
X134395931Y-82610500D01*
X135925137Y-82610500D01*
X135992176Y-82630185D01*
X136024091Y-82659773D01*
X136109021Y-82772238D01*
X136109025Y-82772242D01*
X136273437Y-82922123D01*
X136273439Y-82922125D01*
X136462595Y-83039245D01*
X136462596Y-83039245D01*
X136462599Y-83039247D01*
X136670060Y-83119618D01*
X136888757Y-83160500D01*
X136888759Y-83160500D01*
X137111241Y-83160500D01*
X137111243Y-83160500D01*
X137329940Y-83119618D01*
X137537401Y-83039247D01*
X137726562Y-82922124D01*
X137866282Y-82794751D01*
X137890979Y-82772238D01*
X137927476Y-82723909D01*
X138025058Y-82594689D01*
X138124229Y-82395528D01*
X138185115Y-82181536D01*
X138205643Y-81960000D01*
X138185115Y-81738464D01*
X138124229Y-81524472D01*
X138112066Y-81500045D01*
X138025061Y-81325316D01*
X138025056Y-81325308D01*
X137890979Y-81147761D01*
X137726562Y-80997876D01*
X137726560Y-80997874D01*
X137537404Y-80880754D01*
X137537398Y-80880752D01*
X137329940Y-80800382D01*
X137111243Y-80759500D01*
X136888757Y-80759500D01*
X136670060Y-80800382D01*
X136554178Y-80845275D01*
X136462601Y-80880752D01*
X136462595Y-80880754D01*
X136273439Y-80997874D01*
X136273437Y-80997876D01*
X136109025Y-81147757D01*
X136109021Y-81147761D01*
X136024091Y-81260227D01*
X135967982Y-81301863D01*
X135925137Y-81309500D01*
X134780808Y-81309500D01*
X134713769Y-81289815D01*
X134693127Y-81273181D01*
X133686819Y-80266873D01*
X133653334Y-80205550D01*
X133650500Y-80179192D01*
X133650500Y-79924499D01*
X133670185Y-79857460D01*
X133722989Y-79811705D01*
X133774500Y-79800499D01*
X133847871Y-79800499D01*
X133847872Y-79800499D01*
X133907483Y-79794091D01*
X134042331Y-79743796D01*
X134157546Y-79657546D01*
X134164051Y-79648856D01*
X134219982Y-79606984D01*
X134289673Y-79601997D01*
X134334442Y-79621589D01*
X134347264Y-79630567D01*
X134347266Y-79630568D01*
X134553504Y-79726739D01*
X134773308Y-79785635D01*
X134935230Y-79799801D01*
X134999998Y-79805468D01*
X135000000Y-79805468D01*
X135000002Y-79805468D01*
X135056807Y-79800498D01*
X135226692Y-79785635D01*
X135446496Y-79726739D01*
X135652734Y-79630568D01*
X135839139Y-79500047D01*
X136000047Y-79339139D01*
X136130568Y-79152734D01*
X136226739Y-78946496D01*
X136285635Y-78726692D01*
X136305468Y-78500000D01*
X136285635Y-78273308D01*
X136240916Y-78106415D01*
X136226741Y-78053511D01*
X136226738Y-78053502D01*
X136184526Y-77962978D01*
X136130568Y-77847266D01*
X136016999Y-77685071D01*
X136000045Y-77660858D01*
X135839141Y-77499954D01*
X135652734Y-77369432D01*
X135652732Y-77369431D01*
X135446497Y-77273261D01*
X135446488Y-77273258D01*
X135226697Y-77214366D01*
X135226693Y-77214365D01*
X135226692Y-77214365D01*
X135226691Y-77214364D01*
X135226686Y-77214364D01*
X135000002Y-77194532D01*
X134999998Y-77194532D01*
X134773313Y-77214364D01*
X134773302Y-77214366D01*
X134553511Y-77273258D01*
X134553502Y-77273261D01*
X134347267Y-77369431D01*
X134347262Y-77369434D01*
X134334435Y-77378415D01*
X134268227Y-77400738D01*
X134200461Y-77383722D01*
X134164052Y-77351145D01*
X134162837Y-77349522D01*
X134157546Y-77342454D01*
X134157545Y-77342453D01*
X134157544Y-77342452D01*
X134042335Y-77256206D01*
X134042328Y-77256202D01*
X133907482Y-77205908D01*
X133907483Y-77205908D01*
X133847883Y-77199501D01*
X133847881Y-77199500D01*
X133847873Y-77199500D01*
X133847864Y-77199500D01*
X132152129Y-77199500D01*
X132152123Y-77199501D01*
X132092516Y-77205908D01*
X131957671Y-77256202D01*
X131957664Y-77256206D01*
X131842455Y-77342452D01*
X131842452Y-77342455D01*
X131756206Y-77457664D01*
X131756202Y-77457671D01*
X131705908Y-77592517D01*
X131699501Y-77652116D01*
X131699500Y-77652135D01*
X131699500Y-78829191D01*
X131679815Y-78896230D01*
X131663181Y-78916872D01*
X130926873Y-79653181D01*
X130865550Y-79686666D01*
X130839192Y-79689500D01*
X130576683Y-79689500D01*
X130509644Y-79669815D01*
X130475108Y-79636623D01*
X130380045Y-79500858D01*
X130219141Y-79339954D01*
X130032734Y-79209432D01*
X130032732Y-79209431D01*
X129984069Y-79186739D01*
X129974132Y-79182105D01*
X129921694Y-79135934D01*
X129902542Y-79068740D01*
X129922758Y-79001859D01*
X129974134Y-78957341D01*
X130032484Y-78930132D01*
X130218820Y-78799657D01*
X130379657Y-78638820D01*
X130510134Y-78452482D01*
X130606265Y-78246326D01*
X130606269Y-78246317D01*
X130658872Y-78050000D01*
X129695686Y-78050000D01*
X129700080Y-78045606D01*
X129752741Y-77954394D01*
X129780000Y-77852661D01*
X129780000Y-77747339D01*
X129752741Y-77645606D01*
X129700080Y-77554394D01*
X129695686Y-77550000D01*
X130658872Y-77550000D01*
X130658872Y-77549999D01*
X130606269Y-77353682D01*
X130606265Y-77353673D01*
X130510134Y-77147517D01*
X130379657Y-76961179D01*
X130218820Y-76800342D01*
X130032482Y-76669865D01*
X129826328Y-76573734D01*
X129630000Y-76521127D01*
X129630000Y-77484314D01*
X129625606Y-77479920D01*
X129534394Y-77427259D01*
X129432661Y-77400000D01*
X129327339Y-77400000D01*
X129225606Y-77427259D01*
X129134394Y-77479920D01*
X129130000Y-77484314D01*
X129130000Y-76521127D01*
X128933671Y-76573734D01*
X128727517Y-76669865D01*
X128541179Y-76800342D01*
X128380342Y-76961179D01*
X128249865Y-77147517D01*
X128153734Y-77353673D01*
X128153730Y-77353682D01*
X128101127Y-77549999D01*
X128101128Y-77550000D01*
X129064314Y-77550000D01*
X129059920Y-77554394D01*
X129007259Y-77645606D01*
X128980000Y-77747339D01*
X128980000Y-77852661D01*
X129007259Y-77954394D01*
X129059920Y-78045606D01*
X129064314Y-78050000D01*
X128101128Y-78050000D01*
X128153730Y-78246317D01*
X128153734Y-78246326D01*
X128249865Y-78452482D01*
X128380342Y-78638820D01*
X128541179Y-78799657D01*
X128727518Y-78930134D01*
X128727520Y-78930135D01*
X128785865Y-78957342D01*
X128838305Y-79003514D01*
X128857457Y-79070707D01*
X128837242Y-79137589D01*
X128785867Y-79182105D01*
X128727268Y-79209431D01*
X128727264Y-79209433D01*
X128540858Y-79339954D01*
X128379954Y-79500858D01*
X128249432Y-79687265D01*
X128249431Y-79687267D01*
X128153261Y-79893502D01*
X128153258Y-79893511D01*
X128094366Y-80113302D01*
X128094364Y-80113313D01*
X128074532Y-80339998D01*
X123065468Y-80339998D01*
X123045635Y-80113313D01*
X123045635Y-80113308D01*
X123034790Y-80072834D01*
X123036453Y-80002984D01*
X123066882Y-79953062D01*
X124984277Y-78035669D01*
X125055465Y-77929127D01*
X125088447Y-77849501D01*
X125088448Y-77849500D01*
X125100587Y-77820192D01*
X125104501Y-77810744D01*
X125111768Y-77774211D01*
X125129500Y-77685071D01*
X125129500Y-73839998D01*
X126625727Y-73839998D01*
X126625727Y-73840001D01*
X126644781Y-74057796D01*
X126644783Y-74057807D01*
X126701366Y-74268979D01*
X126701368Y-74268983D01*
X126701369Y-74268987D01*
X126744107Y-74360639D01*
X126793768Y-74467137D01*
X126793770Y-74467141D01*
X126919167Y-74646226D01*
X126919172Y-74646232D01*
X127073767Y-74800827D01*
X127073773Y-74800832D01*
X127252858Y-74926229D01*
X127252860Y-74926230D01*
X127252863Y-74926232D01*
X127451013Y-75018631D01*
X127662198Y-75075218D01*
X127817770Y-75088828D01*
X127879998Y-75094273D01*
X127880000Y-75094273D01*
X127880002Y-75094273D01*
X127940283Y-75088999D01*
X128097802Y-75075218D01*
X128308987Y-75018631D01*
X128507137Y-74926232D01*
X128686231Y-74800829D01*
X128840829Y-74646231D01*
X128966232Y-74467137D01*
X129058631Y-74268987D01*
X129115218Y-74057802D01*
X129134273Y-73840000D01*
X129130865Y-73801051D01*
X129126084Y-73746395D01*
X129115218Y-73622198D01*
X129058631Y-73411013D01*
X128966232Y-73212864D01*
X128872861Y-73079515D01*
X128847401Y-73043155D01*
X130631000Y-73043155D01*
X130631000Y-73590000D01*
X131452761Y-73590000D01*
X131418734Y-73648937D01*
X131385000Y-73774832D01*
X131385000Y-73905168D01*
X131418734Y-74031063D01*
X131452761Y-74090000D01*
X130631000Y-74090000D01*
X130631000Y-74636844D01*
X130637401Y-74696372D01*
X130637403Y-74696379D01*
X130687645Y-74831086D01*
X130687649Y-74831093D01*
X130773809Y-74946187D01*
X130773812Y-74946190D01*
X130888906Y-75032350D01*
X130888913Y-75032354D01*
X131023620Y-75082596D01*
X131023627Y-75082598D01*
X131083155Y-75088999D01*
X131083172Y-75089000D01*
X131630000Y-75089000D01*
X131630000Y-74267238D01*
X131688937Y-74301266D01*
X131814832Y-74335000D01*
X131945168Y-74335000D01*
X132071063Y-74301266D01*
X132130000Y-74267238D01*
X132130000Y-75089000D01*
X132676828Y-75089000D01*
X132676844Y-75088999D01*
X132736372Y-75082598D01*
X132736379Y-75082596D01*
X132871086Y-75032354D01*
X132871093Y-75032350D01*
X132986187Y-74946190D01*
X132986190Y-74946187D01*
X133072350Y-74831093D01*
X133072354Y-74831086D01*
X133122596Y-74696379D01*
X133122598Y-74696372D01*
X133128999Y-74636844D01*
X133129000Y-74636827D01*
X133129000Y-74090000D01*
X132307239Y-74090000D01*
X132341266Y-74031063D01*
X132375000Y-73905168D01*
X132375000Y-73839998D01*
X135125727Y-73839998D01*
X135125727Y-73840001D01*
X135144781Y-74057796D01*
X135144783Y-74057807D01*
X135201366Y-74268979D01*
X135201368Y-74268983D01*
X135201369Y-74268987D01*
X135244107Y-74360639D01*
X135293768Y-74467137D01*
X135293770Y-74467141D01*
X135419167Y-74646226D01*
X135419172Y-74646232D01*
X135573767Y-74800827D01*
X135573773Y-74800832D01*
X135752858Y-74926229D01*
X135752860Y-74926230D01*
X135752863Y-74926232D01*
X135951013Y-75018631D01*
X136162198Y-75075218D01*
X136317770Y-75088828D01*
X136379998Y-75094273D01*
X136380000Y-75094273D01*
X136380002Y-75094273D01*
X136440283Y-75088999D01*
X136597802Y-75075218D01*
X136808987Y-75018631D01*
X137007137Y-74926232D01*
X137186231Y-74800829D01*
X137340829Y-74646231D01*
X137466232Y-74467137D01*
X137558631Y-74268987D01*
X137615218Y-74057802D01*
X137634273Y-73840000D01*
X137630865Y-73801051D01*
X137626084Y-73746395D01*
X137615218Y-73622198D01*
X137558631Y-73411013D01*
X137466232Y-73212864D01*
X137372861Y-73079515D01*
X137340830Y-73033770D01*
X137290680Y-72983620D01*
X137186231Y-72879171D01*
X137186227Y-72879168D01*
X137186226Y-72879167D01*
X137007141Y-72753770D01*
X137007137Y-72753768D01*
X136982900Y-72742466D01*
X136808987Y-72661369D01*
X136808983Y-72661368D01*
X136808979Y-72661366D01*
X136597807Y-72604783D01*
X136597803Y-72604782D01*
X136597802Y-72604782D01*
X136597801Y-72604781D01*
X136597796Y-72604781D01*
X136380002Y-72585727D01*
X136379998Y-72585727D01*
X136162203Y-72604781D01*
X136162192Y-72604783D01*
X135951020Y-72661366D01*
X135951011Y-72661370D01*
X135752866Y-72753766D01*
X135573766Y-72879172D01*
X135419172Y-73033766D01*
X135293766Y-73212866D01*
X135201370Y-73411011D01*
X135201366Y-73411020D01*
X135144783Y-73622192D01*
X135144781Y-73622203D01*
X135125727Y-73839998D01*
X132375000Y-73839998D01*
X132375000Y-73774832D01*
X132341266Y-73648937D01*
X132307239Y-73590000D01*
X133129000Y-73590000D01*
X133129000Y-73043172D01*
X133128999Y-73043155D01*
X133122598Y-72983627D01*
X133122596Y-72983620D01*
X133072354Y-72848913D01*
X133072350Y-72848906D01*
X132986190Y-72733812D01*
X132986187Y-72733809D01*
X132871093Y-72647649D01*
X132871086Y-72647645D01*
X132736379Y-72597403D01*
X132736372Y-72597401D01*
X132676844Y-72591000D01*
X132130000Y-72591000D01*
X132130000Y-73412761D01*
X132071063Y-73378734D01*
X131945168Y-73345000D01*
X131814832Y-73345000D01*
X131688937Y-73378734D01*
X131630000Y-73412761D01*
X131630000Y-72591000D01*
X131083155Y-72591000D01*
X131023627Y-72597401D01*
X131023620Y-72597403D01*
X130888913Y-72647645D01*
X130888906Y-72647649D01*
X130773812Y-72733809D01*
X130773809Y-72733812D01*
X130687649Y-72848906D01*
X130687645Y-72848913D01*
X130637403Y-72983620D01*
X130637401Y-72983627D01*
X130631000Y-73043155D01*
X128847401Y-73043155D01*
X128840830Y-73033770D01*
X128790680Y-72983620D01*
X128686231Y-72879171D01*
X128686227Y-72879168D01*
X128686226Y-72879167D01*
X128507141Y-72753770D01*
X128507137Y-72753768D01*
X128482900Y-72742466D01*
X128308987Y-72661369D01*
X128308983Y-72661368D01*
X128308979Y-72661366D01*
X128097807Y-72604783D01*
X128097803Y-72604782D01*
X128097802Y-72604782D01*
X128097801Y-72604781D01*
X128097796Y-72604781D01*
X127880002Y-72585727D01*
X127879998Y-72585727D01*
X127662203Y-72604781D01*
X127662192Y-72604783D01*
X127451020Y-72661366D01*
X127451011Y-72661370D01*
X127252866Y-72753766D01*
X127073766Y-72879172D01*
X126919172Y-73033766D01*
X126793766Y-73212866D01*
X126701370Y-73411011D01*
X126701366Y-73411020D01*
X126644783Y-73622192D01*
X126644781Y-73622203D01*
X126625727Y-73839998D01*
X125129500Y-73839998D01*
X125129500Y-68374928D01*
X125104502Y-68249261D01*
X125104501Y-68249260D01*
X125104501Y-68249256D01*
X125055465Y-68130873D01*
X125046530Y-68117501D01*
X124984277Y-68024331D01*
X124984275Y-68024329D01*
X124984273Y-68024326D01*
X124645243Y-67685296D01*
X124611758Y-67623973D01*
X124613150Y-67565519D01*
X124615218Y-67557802D01*
X124634273Y-67340000D01*
X124615218Y-67122198D01*
X124569648Y-66952128D01*
X124558633Y-66911020D01*
X124558632Y-66911019D01*
X124558631Y-66911013D01*
X124466232Y-66712864D01*
X124366548Y-66570500D01*
X124347401Y-66543155D01*
X126631000Y-66543155D01*
X126631000Y-67090000D01*
X127452761Y-67090000D01*
X127418734Y-67148937D01*
X127385000Y-67274832D01*
X127385000Y-67405168D01*
X127418734Y-67531063D01*
X127452761Y-67590000D01*
X126631000Y-67590000D01*
X126631000Y-68136844D01*
X126637401Y-68196372D01*
X126637403Y-68196379D01*
X126687645Y-68331086D01*
X126687649Y-68331093D01*
X126773809Y-68446187D01*
X126773812Y-68446190D01*
X126888906Y-68532350D01*
X126888913Y-68532354D01*
X127023620Y-68582596D01*
X127023627Y-68582598D01*
X127083155Y-68588999D01*
X127083172Y-68589000D01*
X127630000Y-68589000D01*
X127630000Y-67767238D01*
X127688937Y-67801266D01*
X127814832Y-67835000D01*
X127945168Y-67835000D01*
X128071063Y-67801266D01*
X128130000Y-67767238D01*
X128130000Y-68589000D01*
X128676828Y-68589000D01*
X128676844Y-68588999D01*
X128736372Y-68582598D01*
X128736379Y-68582596D01*
X128871086Y-68532354D01*
X128871093Y-68532350D01*
X128986187Y-68446190D01*
X128986190Y-68446187D01*
X129072350Y-68331093D01*
X129072354Y-68331086D01*
X129122596Y-68196379D01*
X129122598Y-68196372D01*
X129128999Y-68136844D01*
X129129000Y-68136827D01*
X129129000Y-67590000D01*
X128307239Y-67590000D01*
X128341266Y-67531063D01*
X128375000Y-67405168D01*
X128375000Y-67339998D01*
X130625727Y-67339998D01*
X130625727Y-67340001D01*
X130644781Y-67557796D01*
X130644783Y-67557807D01*
X130701366Y-67768979D01*
X130701368Y-67768983D01*
X130701369Y-67768987D01*
X130740387Y-67852661D01*
X130793768Y-67967137D01*
X130793770Y-67967141D01*
X130919167Y-68146226D01*
X130919172Y-68146232D01*
X131073767Y-68300827D01*
X131073773Y-68300832D01*
X131252858Y-68426229D01*
X131252860Y-68426230D01*
X131252863Y-68426232D01*
X131451013Y-68518631D01*
X131662198Y-68575218D01*
X131817770Y-68588828D01*
X131879998Y-68594273D01*
X131880000Y-68594273D01*
X131880002Y-68594273D01*
X131940283Y-68588999D01*
X132097802Y-68575218D01*
X132308987Y-68518631D01*
X132507137Y-68426232D01*
X132686231Y-68300829D01*
X132840829Y-68146231D01*
X132966232Y-67967137D01*
X133058631Y-67768987D01*
X133115218Y-67557802D01*
X133134273Y-67340000D01*
X133134273Y-67339998D01*
X135125727Y-67339998D01*
X135125727Y-67340001D01*
X135144781Y-67557796D01*
X135144783Y-67557807D01*
X135201366Y-67768979D01*
X135201368Y-67768983D01*
X135201369Y-67768987D01*
X135240387Y-67852661D01*
X135293768Y-67967137D01*
X135293770Y-67967141D01*
X135419167Y-68146226D01*
X135419172Y-68146232D01*
X135573767Y-68300827D01*
X135573773Y-68300832D01*
X135752858Y-68426229D01*
X135752860Y-68426230D01*
X135752863Y-68426232D01*
X135951013Y-68518631D01*
X136162198Y-68575218D01*
X136317770Y-68588828D01*
X136379998Y-68594273D01*
X136380000Y-68594273D01*
X136380002Y-68594273D01*
X136440283Y-68588999D01*
X136597802Y-68575218D01*
X136808987Y-68518631D01*
X137007137Y-68426232D01*
X137186231Y-68300829D01*
X137340829Y-68146231D01*
X137466232Y-67967137D01*
X137558631Y-67768987D01*
X137615218Y-67557802D01*
X137634273Y-67340000D01*
X137615218Y-67122198D01*
X137569648Y-66952128D01*
X137558633Y-66911020D01*
X137558632Y-66911019D01*
X137558631Y-66911013D01*
X137466232Y-66712864D01*
X137366548Y-66570500D01*
X137340830Y-66533770D01*
X137290680Y-66483620D01*
X137186231Y-66379171D01*
X137186227Y-66379168D01*
X137186226Y-66379167D01*
X137007141Y-66253770D01*
X137007137Y-66253768D01*
X136964335Y-66233809D01*
X136808987Y-66161369D01*
X136808983Y-66161368D01*
X136808979Y-66161366D01*
X136597807Y-66104783D01*
X136597803Y-66104782D01*
X136597802Y-66104782D01*
X136597801Y-66104781D01*
X136597796Y-66104781D01*
X136380002Y-66085727D01*
X136379998Y-66085727D01*
X136162203Y-66104781D01*
X136162192Y-66104783D01*
X135951020Y-66161366D01*
X135951011Y-66161370D01*
X135752866Y-66253766D01*
X135573766Y-66379172D01*
X135419172Y-66533766D01*
X135293766Y-66712866D01*
X135201370Y-66911011D01*
X135201366Y-66911020D01*
X135144783Y-67122192D01*
X135144781Y-67122203D01*
X135125727Y-67339998D01*
X133134273Y-67339998D01*
X133115218Y-67122198D01*
X133069648Y-66952128D01*
X133058633Y-66911020D01*
X133058632Y-66911019D01*
X133058631Y-66911013D01*
X132966232Y-66712864D01*
X132866548Y-66570500D01*
X132840830Y-66533770D01*
X132790680Y-66483620D01*
X132686231Y-66379171D01*
X132686227Y-66379168D01*
X132686226Y-66379167D01*
X132507141Y-66253770D01*
X132507137Y-66253768D01*
X132464335Y-66233809D01*
X132308987Y-66161369D01*
X132308983Y-66161368D01*
X132308979Y-66161366D01*
X132097807Y-66104783D01*
X132097803Y-66104782D01*
X132097802Y-66104782D01*
X132097801Y-66104781D01*
X132097796Y-66104781D01*
X131880002Y-66085727D01*
X131879998Y-66085727D01*
X131662203Y-66104781D01*
X131662192Y-66104783D01*
X131451020Y-66161366D01*
X131451011Y-66161370D01*
X131252866Y-66253766D01*
X131073766Y-66379172D01*
X130919172Y-66533766D01*
X130793766Y-66712866D01*
X130701370Y-66911011D01*
X130701366Y-66911020D01*
X130644783Y-67122192D01*
X130644781Y-67122203D01*
X130625727Y-67339998D01*
X128375000Y-67339998D01*
X128375000Y-67274832D01*
X128341266Y-67148937D01*
X128307239Y-67090000D01*
X129129000Y-67090000D01*
X129129000Y-66543172D01*
X129128999Y-66543155D01*
X129122598Y-66483627D01*
X129122596Y-66483620D01*
X129072354Y-66348913D01*
X129072350Y-66348906D01*
X128986190Y-66233812D01*
X128986187Y-66233809D01*
X128871093Y-66147649D01*
X128871086Y-66147645D01*
X128736379Y-66097403D01*
X128736372Y-66097401D01*
X128676844Y-66091000D01*
X128130000Y-66091000D01*
X128130000Y-66912761D01*
X128071063Y-66878734D01*
X127945168Y-66845000D01*
X127814832Y-66845000D01*
X127688937Y-66878734D01*
X127630000Y-66912761D01*
X127630000Y-66091000D01*
X127083155Y-66091000D01*
X127023627Y-66097401D01*
X127023620Y-66097403D01*
X126888913Y-66147645D01*
X126888906Y-66147649D01*
X126773812Y-66233809D01*
X126773809Y-66233812D01*
X126687649Y-66348906D01*
X126687645Y-66348913D01*
X126637403Y-66483620D01*
X126637401Y-66483627D01*
X126631000Y-66543155D01*
X124347401Y-66543155D01*
X124340830Y-66533770D01*
X124290680Y-66483620D01*
X124186231Y-66379171D01*
X124186227Y-66379168D01*
X124186226Y-66379167D01*
X124007141Y-66253770D01*
X124007137Y-66253768D01*
X123964335Y-66233809D01*
X123808987Y-66161369D01*
X123808983Y-66161368D01*
X123808979Y-66161366D01*
X123597807Y-66104783D01*
X123597803Y-66104782D01*
X123597802Y-66104782D01*
X123597801Y-66104781D01*
X123597796Y-66104781D01*
X123380002Y-66085727D01*
X123379998Y-66085727D01*
X123162203Y-66104781D01*
X123162192Y-66104783D01*
X122951020Y-66161366D01*
X122951011Y-66161370D01*
X122752866Y-66253766D01*
X122573766Y-66379172D01*
X122419172Y-66533766D01*
X122293766Y-66712866D01*
X122201370Y-66911011D01*
X122201366Y-66911020D01*
X122144783Y-67122192D01*
X122144781Y-67122203D01*
X122125727Y-67339998D01*
X122125727Y-67340001D01*
X122144781Y-67557796D01*
X122144783Y-67557807D01*
X122201366Y-67768979D01*
X122201368Y-67768983D01*
X122201369Y-67768987D01*
X122240387Y-67852661D01*
X122293768Y-67967137D01*
X122293770Y-67967141D01*
X122419167Y-68146226D01*
X122419172Y-68146232D01*
X122573767Y-68300827D01*
X122573773Y-68300832D01*
X122752858Y-68426229D01*
X122752860Y-68426230D01*
X122752863Y-68426232D01*
X122951013Y-68518631D01*
X123162198Y-68575218D01*
X123317770Y-68588828D01*
X123379998Y-68594273D01*
X123380000Y-68594273D01*
X123380002Y-68594273D01*
X123440283Y-68588999D01*
X123597802Y-68575218D01*
X123605523Y-68573149D01*
X123675372Y-68574812D01*
X123725297Y-68605243D01*
X123792181Y-68672127D01*
X123825666Y-68733450D01*
X123828500Y-68759808D01*
X123828500Y-72504997D01*
X123808815Y-72572036D01*
X123756011Y-72617791D01*
X123686853Y-72627735D01*
X123672407Y-72624772D01*
X123597807Y-72604783D01*
X123597803Y-72604782D01*
X123597802Y-72604782D01*
X123597801Y-72604781D01*
X123597796Y-72604781D01*
X123380002Y-72585727D01*
X123379998Y-72585727D01*
X123162203Y-72604781D01*
X123162192Y-72604783D01*
X122951020Y-72661366D01*
X122951011Y-72661370D01*
X122752866Y-72753766D01*
X122573766Y-72879172D01*
X122419172Y-73033766D01*
X122293766Y-73212866D01*
X122201370Y-73411011D01*
X122201366Y-73411020D01*
X122144783Y-73622192D01*
X122144781Y-73622203D01*
X122125727Y-73839998D01*
X122125727Y-73840001D01*
X122144781Y-74057796D01*
X122144783Y-74057807D01*
X122201366Y-74268979D01*
X122201368Y-74268983D01*
X122201369Y-74268987D01*
X122244107Y-74360639D01*
X122293768Y-74467137D01*
X122293770Y-74467141D01*
X122419167Y-74646226D01*
X122419172Y-74646232D01*
X122573767Y-74800827D01*
X122573773Y-74800832D01*
X122752858Y-74926229D01*
X122752860Y-74926230D01*
X122752863Y-74926232D01*
X122951013Y-75018631D01*
X123162198Y-75075218D01*
X123317770Y-75088828D01*
X123379998Y-75094273D01*
X123380000Y-75094273D01*
X123380002Y-75094273D01*
X123440283Y-75088999D01*
X123597802Y-75075218D01*
X123672408Y-75055227D01*
X123742256Y-75056890D01*
X123800118Y-75096052D01*
X123827623Y-75160280D01*
X123828500Y-75175002D01*
X123828500Y-77300191D01*
X123808815Y-77367230D01*
X123792181Y-77387872D01*
X123272180Y-77907873D01*
X123210857Y-77941358D01*
X123141165Y-77936374D01*
X123085232Y-77894502D01*
X123060815Y-77829038D01*
X123060499Y-77820192D01*
X123060499Y-76952129D01*
X123060498Y-76952123D01*
X123060497Y-76952116D01*
X123054091Y-76892517D01*
X123048301Y-76876994D01*
X123003797Y-76757671D01*
X123003793Y-76757664D01*
X122917547Y-76642455D01*
X122917544Y-76642452D01*
X122802335Y-76556206D01*
X122802328Y-76556202D01*
X122667482Y-76505908D01*
X122667483Y-76505908D01*
X122607883Y-76499501D01*
X122607881Y-76499500D01*
X122607873Y-76499500D01*
X122607864Y-76499500D01*
X120912129Y-76499500D01*
X120912123Y-76499501D01*
X120852516Y-76505908D01*
X120717671Y-76556202D01*
X120717664Y-76556206D01*
X120602455Y-76642452D01*
X120602452Y-76642455D01*
X120516206Y-76757664D01*
X120516202Y-76757671D01*
X120465908Y-76892517D01*
X120459501Y-76952116D01*
X120459501Y-76952123D01*
X120459500Y-76952135D01*
X120459500Y-78647870D01*
X120459501Y-78647876D01*
X120465908Y-78707483D01*
X120516202Y-78842328D01*
X120516206Y-78842335D01*
X120602452Y-78957544D01*
X120602455Y-78957547D01*
X120717664Y-79043793D01*
X120717671Y-79043797D01*
X120762618Y-79060561D01*
X120852517Y-79094091D01*
X120887596Y-79097862D01*
X120952144Y-79124599D01*
X120991993Y-79181991D01*
X120994488Y-79251816D01*
X120958836Y-79311905D01*
X120945464Y-79322725D01*
X120920858Y-79339954D01*
X120759954Y-79500858D01*
X120629432Y-79687265D01*
X120629431Y-79687267D01*
X120533261Y-79893502D01*
X120533258Y-79893511D01*
X120474366Y-80113302D01*
X120474364Y-80113313D01*
X120454532Y-80339998D01*
X119500500Y-80339998D01*
X119500500Y-64124500D01*
X119520185Y-64057461D01*
X119572989Y-64011706D01*
X119624500Y-64000500D01*
X171375500Y-64000500D01*
X171442539Y-64020185D01*
G37*
%TD.AperFunction*%
%TD*%
M02*
