M48
; DRILL file {KiCad 8.0.5} date 2025-01-11T13:33:19+0300
; FORMAT={-:-/ absolute / metric / decimal}
; #@! TF.CreationDate,2025-01-11T13:33:19+03:00
; #@! TF.GenerationSoftware,Kicad,Pcbnew,8.0.5
; #@! TF.FileFunction,Plated,1,2,PTH
FMAT,2
METRIC
; #@! TA.AperFunction,Plated,PTH,ViaDrill
T1C0.300
; #@! TA.AperFunction,Plated,PTH,ComponentDrill
T2C0.600
; #@! TA.AperFunction,Plated,PTH,ComponentDrill
T3C0.700
; #@! TA.AperFunction,Plated,PTH,ComponentDrill
T4C0.800
; #@! TA.AperFunction,Plated,PTH,ComponentDrill
T5C0.990
; #@! TA.AperFunction,Plated,PTH,ComponentDrill
T6C1.300
%
G90
G05
T1
X144.5Y-89.5
X149.5Y-77.0
X150.5Y-77.0
X158.0Y-78.5
X163.0Y-73.5
X164.5Y-73.5
T2
X132.5Y-85.5
X134.0Y-85.5
T3
X137.0Y-81.96
X137.0Y-87.04
X152.34Y-65.92
X157.42Y-65.92
X160.92Y-65.92
X166.0Y-65.92
T4
X121.76Y-77.8
X121.76Y-80.34
X121.76Y-82.88
X121.76Y-85.42
X129.38Y-77.8
X129.38Y-80.34
X129.38Y-82.88
X129.38Y-85.42
X133.0Y-78.5
X135.0Y-78.5
X139.88Y-67.8
X139.88Y-70.34
X139.88Y-72.88
X139.88Y-75.42
X139.88Y-77.96
X139.88Y-80.5
X139.88Y-83.04
X139.88Y-85.58
X147.5Y-67.8
X147.5Y-70.34
X147.5Y-72.88
X147.5Y-75.42
X147.5Y-77.96
X147.5Y-80.5
X147.5Y-83.04
X147.5Y-85.58
X153.26Y-69.38
X153.26Y-71.92
X153.26Y-74.46
X153.26Y-77.0
X153.26Y-79.54
X168.5Y-69.38
X168.5Y-71.92
X168.5Y-74.46
X168.5Y-77.0
X168.5Y-79.54
T5
X123.38Y-67.34
X123.38Y-73.84
X127.88Y-67.34
X127.88Y-73.84
X131.88Y-67.34
X131.88Y-73.84
X136.38Y-67.34
X136.38Y-73.84
T6
X158.42Y-87.5
X163.5Y-87.5
M30
