%TF.GenerationSoftware,KiCad,Pcbnew,8.0.5*%
%TF.CreationDate,2025-01-11T13:33:14+03:00*%
%TF.ProjectId,Counter_CD4033,436f756e-7465-4725-9f43-44343033332e,rev?*%
%TF.SameCoordinates,Original*%
%TF.FileFunction,Legend,Top*%
%TF.FilePolarity,Positive*%
%FSLAX46Y46*%
G04 Gerber Fmt 4.6, Leading zero omitted, Abs format (unit mm)*
G04 Created by KiCad (PCBNEW 8.0.5) date 2025-01-11 13:33:14*
%MOMM*%
%LPD*%
G01*
G04 APERTURE LIST*
%ADD10C,0.150000*%
%ADD11C,0.120000*%
%ADD12C,0.127000*%
%ADD13C,0.400000*%
G04 APERTURE END LIST*
D10*
X161070476Y-68914819D02*
X161737142Y-68914819D01*
X161737142Y-68914819D02*
X161308571Y-69914819D01*
X162070476Y-69867200D02*
X162213333Y-69914819D01*
X162213333Y-69914819D02*
X162451428Y-69914819D01*
X162451428Y-69914819D02*
X162546666Y-69867200D01*
X162546666Y-69867200D02*
X162594285Y-69819580D01*
X162594285Y-69819580D02*
X162641904Y-69724342D01*
X162641904Y-69724342D02*
X162641904Y-69629104D01*
X162641904Y-69629104D02*
X162594285Y-69533866D01*
X162594285Y-69533866D02*
X162546666Y-69486247D01*
X162546666Y-69486247D02*
X162451428Y-69438628D01*
X162451428Y-69438628D02*
X162260952Y-69391009D01*
X162260952Y-69391009D02*
X162165714Y-69343390D01*
X162165714Y-69343390D02*
X162118095Y-69295771D01*
X162118095Y-69295771D02*
X162070476Y-69200533D01*
X162070476Y-69200533D02*
X162070476Y-69105295D01*
X162070476Y-69105295D02*
X162118095Y-69010057D01*
X162118095Y-69010057D02*
X162165714Y-68962438D01*
X162165714Y-68962438D02*
X162260952Y-68914819D01*
X162260952Y-68914819D02*
X162499047Y-68914819D01*
X162499047Y-68914819D02*
X162641904Y-68962438D01*
X137333333Y-76859580D02*
X137285714Y-76907200D01*
X137285714Y-76907200D02*
X137142857Y-76954819D01*
X137142857Y-76954819D02*
X137047619Y-76954819D01*
X137047619Y-76954819D02*
X136904762Y-76907200D01*
X136904762Y-76907200D02*
X136809524Y-76811961D01*
X136809524Y-76811961D02*
X136761905Y-76716723D01*
X136761905Y-76716723D02*
X136714286Y-76526247D01*
X136714286Y-76526247D02*
X136714286Y-76383390D01*
X136714286Y-76383390D02*
X136761905Y-76192914D01*
X136761905Y-76192914D02*
X136809524Y-76097676D01*
X136809524Y-76097676D02*
X136904762Y-76002438D01*
X136904762Y-76002438D02*
X137047619Y-75954819D01*
X137047619Y-75954819D02*
X137142857Y-75954819D01*
X137142857Y-75954819D02*
X137285714Y-76002438D01*
X137285714Y-76002438D02*
X137333333Y-76050057D01*
X138285714Y-76954819D02*
X137714286Y-76954819D01*
X138000000Y-76954819D02*
X138000000Y-75954819D01*
X138000000Y-75954819D02*
X137904762Y-76097676D01*
X137904762Y-76097676D02*
X137809524Y-76192914D01*
X137809524Y-76192914D02*
X137714286Y-76240533D01*
X152666667Y-87454819D02*
X153000000Y-88454819D01*
X153000000Y-88454819D02*
X153333333Y-87454819D01*
X154238095Y-88359580D02*
X154190476Y-88407200D01*
X154190476Y-88407200D02*
X154047619Y-88454819D01*
X154047619Y-88454819D02*
X153952381Y-88454819D01*
X153952381Y-88454819D02*
X153809524Y-88407200D01*
X153809524Y-88407200D02*
X153714286Y-88311961D01*
X153714286Y-88311961D02*
X153666667Y-88216723D01*
X153666667Y-88216723D02*
X153619048Y-88026247D01*
X153619048Y-88026247D02*
X153619048Y-87883390D01*
X153619048Y-87883390D02*
X153666667Y-87692914D01*
X153666667Y-87692914D02*
X153714286Y-87597676D01*
X153714286Y-87597676D02*
X153809524Y-87502438D01*
X153809524Y-87502438D02*
X153952381Y-87454819D01*
X153952381Y-87454819D02*
X154047619Y-87454819D01*
X154047619Y-87454819D02*
X154190476Y-87502438D01*
X154190476Y-87502438D02*
X154238095Y-87550057D01*
X155238095Y-88359580D02*
X155190476Y-88407200D01*
X155190476Y-88407200D02*
X155047619Y-88454819D01*
X155047619Y-88454819D02*
X154952381Y-88454819D01*
X154952381Y-88454819D02*
X154809524Y-88407200D01*
X154809524Y-88407200D02*
X154714286Y-88311961D01*
X154714286Y-88311961D02*
X154666667Y-88216723D01*
X154666667Y-88216723D02*
X154619048Y-88026247D01*
X154619048Y-88026247D02*
X154619048Y-87883390D01*
X154619048Y-87883390D02*
X154666667Y-87692914D01*
X154666667Y-87692914D02*
X154714286Y-87597676D01*
X154714286Y-87597676D02*
X154809524Y-87502438D01*
X154809524Y-87502438D02*
X154952381Y-87454819D01*
X154952381Y-87454819D02*
X155047619Y-87454819D01*
X155047619Y-87454819D02*
X155190476Y-87502438D01*
X155190476Y-87502438D02*
X155238095Y-87550057D01*
X137614819Y-84546666D02*
X137138628Y-84879999D01*
X137614819Y-85118094D02*
X136614819Y-85118094D01*
X136614819Y-85118094D02*
X136614819Y-84737142D01*
X136614819Y-84737142D02*
X136662438Y-84641904D01*
X136662438Y-84641904D02*
X136710057Y-84594285D01*
X136710057Y-84594285D02*
X136805295Y-84546666D01*
X136805295Y-84546666D02*
X136948152Y-84546666D01*
X136948152Y-84546666D02*
X137043390Y-84594285D01*
X137043390Y-84594285D02*
X137091009Y-84641904D01*
X137091009Y-84641904D02*
X137138628Y-84737142D01*
X137138628Y-84737142D02*
X137138628Y-85118094D01*
X137614819Y-83594285D02*
X137614819Y-84165713D01*
X137614819Y-83879999D02*
X136614819Y-83879999D01*
X136614819Y-83879999D02*
X136757676Y-83975237D01*
X136757676Y-83975237D02*
X136852914Y-84070475D01*
X136852914Y-84070475D02*
X136900533Y-84165713D01*
X132833333Y-83019580D02*
X132785714Y-83067200D01*
X132785714Y-83067200D02*
X132642857Y-83114819D01*
X132642857Y-83114819D02*
X132547619Y-83114819D01*
X132547619Y-83114819D02*
X132404762Y-83067200D01*
X132404762Y-83067200D02*
X132309524Y-82971961D01*
X132309524Y-82971961D02*
X132261905Y-82876723D01*
X132261905Y-82876723D02*
X132214286Y-82686247D01*
X132214286Y-82686247D02*
X132214286Y-82543390D01*
X132214286Y-82543390D02*
X132261905Y-82352914D01*
X132261905Y-82352914D02*
X132309524Y-82257676D01*
X132309524Y-82257676D02*
X132404762Y-82162438D01*
X132404762Y-82162438D02*
X132547619Y-82114819D01*
X132547619Y-82114819D02*
X132642857Y-82114819D01*
X132642857Y-82114819D02*
X132785714Y-82162438D01*
X132785714Y-82162438D02*
X132833333Y-82210057D01*
X133214286Y-82210057D02*
X133261905Y-82162438D01*
X133261905Y-82162438D02*
X133357143Y-82114819D01*
X133357143Y-82114819D02*
X133595238Y-82114819D01*
X133595238Y-82114819D02*
X133690476Y-82162438D01*
X133690476Y-82162438D02*
X133738095Y-82210057D01*
X133738095Y-82210057D02*
X133785714Y-82305295D01*
X133785714Y-82305295D02*
X133785714Y-82400533D01*
X133785714Y-82400533D02*
X133738095Y-82543390D01*
X133738095Y-82543390D02*
X133166667Y-83114819D01*
X133166667Y-83114819D02*
X133785714Y-83114819D01*
X121786544Y-71816251D02*
X121824697Y-71854404D01*
X121824697Y-71854404D02*
X121862849Y-71968860D01*
X121862849Y-71968860D02*
X121862849Y-72045165D01*
X121862849Y-72045165D02*
X121824697Y-72159622D01*
X121824697Y-72159622D02*
X121748392Y-72235926D01*
X121748392Y-72235926D02*
X121672088Y-72274078D01*
X121672088Y-72274078D02*
X121519479Y-72312231D01*
X121519479Y-72312231D02*
X121405022Y-72312231D01*
X121405022Y-72312231D02*
X121252413Y-72274078D01*
X121252413Y-72274078D02*
X121176108Y-72235926D01*
X121176108Y-72235926D02*
X121099804Y-72159622D01*
X121099804Y-72159622D02*
X121061652Y-72045165D01*
X121061652Y-72045165D02*
X121061652Y-71968860D01*
X121061652Y-71968860D02*
X121099804Y-71854404D01*
X121099804Y-71854404D02*
X121137956Y-71816251D01*
X121061652Y-71320272D02*
X121061652Y-71167663D01*
X121061652Y-71167663D02*
X121099804Y-71091359D01*
X121099804Y-71091359D02*
X121176108Y-71015054D01*
X121176108Y-71015054D02*
X121328717Y-70976902D01*
X121328717Y-70976902D02*
X121595783Y-70976902D01*
X121595783Y-70976902D02*
X121748392Y-71015054D01*
X121748392Y-71015054D02*
X121824697Y-71091359D01*
X121824697Y-71091359D02*
X121862849Y-71167663D01*
X121862849Y-71167663D02*
X121862849Y-71320272D01*
X121862849Y-71320272D02*
X121824697Y-71396577D01*
X121824697Y-71396577D02*
X121748392Y-71472881D01*
X121748392Y-71472881D02*
X121595783Y-71511034D01*
X121595783Y-71511034D02*
X121328717Y-71511034D01*
X121328717Y-71511034D02*
X121176108Y-71472881D01*
X121176108Y-71472881D02*
X121099804Y-71396577D01*
X121099804Y-71396577D02*
X121061652Y-71320272D01*
X121061652Y-70633532D02*
X121710240Y-70633532D01*
X121710240Y-70633532D02*
X121786544Y-70595380D01*
X121786544Y-70595380D02*
X121824697Y-70557228D01*
X121824697Y-70557228D02*
X121862849Y-70480923D01*
X121862849Y-70480923D02*
X121862849Y-70328314D01*
X121862849Y-70328314D02*
X121824697Y-70252010D01*
X121824697Y-70252010D02*
X121786544Y-70213858D01*
X121786544Y-70213858D02*
X121710240Y-70175705D01*
X121710240Y-70175705D02*
X121061652Y-70175705D01*
X121862849Y-69794183D02*
X121061652Y-69794183D01*
X121061652Y-69794183D02*
X121862849Y-69336356D01*
X121862849Y-69336356D02*
X121061652Y-69336356D01*
X121061652Y-69069291D02*
X121061652Y-68611464D01*
X121862849Y-68840378D02*
X121061652Y-68840378D01*
X154713333Y-66454819D02*
X154380000Y-65978628D01*
X154141905Y-66454819D02*
X154141905Y-65454819D01*
X154141905Y-65454819D02*
X154522857Y-65454819D01*
X154522857Y-65454819D02*
X154618095Y-65502438D01*
X154618095Y-65502438D02*
X154665714Y-65550057D01*
X154665714Y-65550057D02*
X154713333Y-65645295D01*
X154713333Y-65645295D02*
X154713333Y-65788152D01*
X154713333Y-65788152D02*
X154665714Y-65883390D01*
X154665714Y-65883390D02*
X154618095Y-65931009D01*
X154618095Y-65931009D02*
X154522857Y-65978628D01*
X154522857Y-65978628D02*
X154141905Y-65978628D01*
X155046667Y-65454819D02*
X155665714Y-65454819D01*
X155665714Y-65454819D02*
X155332381Y-65835771D01*
X155332381Y-65835771D02*
X155475238Y-65835771D01*
X155475238Y-65835771D02*
X155570476Y-65883390D01*
X155570476Y-65883390D02*
X155618095Y-65931009D01*
X155618095Y-65931009D02*
X155665714Y-66026247D01*
X155665714Y-66026247D02*
X155665714Y-66264342D01*
X155665714Y-66264342D02*
X155618095Y-66359580D01*
X155618095Y-66359580D02*
X155570476Y-66407200D01*
X155570476Y-66407200D02*
X155475238Y-66454819D01*
X155475238Y-66454819D02*
X155189524Y-66454819D01*
X155189524Y-66454819D02*
X155094286Y-66407200D01*
X155094286Y-66407200D02*
X155046667Y-66359580D01*
X141094761Y-65829580D02*
X141047142Y-65877200D01*
X141047142Y-65877200D02*
X140904285Y-65924819D01*
X140904285Y-65924819D02*
X140809047Y-65924819D01*
X140809047Y-65924819D02*
X140666190Y-65877200D01*
X140666190Y-65877200D02*
X140570952Y-65781961D01*
X140570952Y-65781961D02*
X140523333Y-65686723D01*
X140523333Y-65686723D02*
X140475714Y-65496247D01*
X140475714Y-65496247D02*
X140475714Y-65353390D01*
X140475714Y-65353390D02*
X140523333Y-65162914D01*
X140523333Y-65162914D02*
X140570952Y-65067676D01*
X140570952Y-65067676D02*
X140666190Y-64972438D01*
X140666190Y-64972438D02*
X140809047Y-64924819D01*
X140809047Y-64924819D02*
X140904285Y-64924819D01*
X140904285Y-64924819D02*
X141047142Y-64972438D01*
X141047142Y-64972438D02*
X141094761Y-65020057D01*
X141523333Y-65924819D02*
X141523333Y-64924819D01*
X141523333Y-64924819D02*
X141761428Y-64924819D01*
X141761428Y-64924819D02*
X141904285Y-64972438D01*
X141904285Y-64972438D02*
X141999523Y-65067676D01*
X141999523Y-65067676D02*
X142047142Y-65162914D01*
X142047142Y-65162914D02*
X142094761Y-65353390D01*
X142094761Y-65353390D02*
X142094761Y-65496247D01*
X142094761Y-65496247D02*
X142047142Y-65686723D01*
X142047142Y-65686723D02*
X141999523Y-65781961D01*
X141999523Y-65781961D02*
X141904285Y-65877200D01*
X141904285Y-65877200D02*
X141761428Y-65924819D01*
X141761428Y-65924819D02*
X141523333Y-65924819D01*
X142951904Y-65258152D02*
X142951904Y-65924819D01*
X142713809Y-64877200D02*
X142475714Y-65591485D01*
X142475714Y-65591485D02*
X143094761Y-65591485D01*
X143666190Y-64924819D02*
X143761428Y-64924819D01*
X143761428Y-64924819D02*
X143856666Y-64972438D01*
X143856666Y-64972438D02*
X143904285Y-65020057D01*
X143904285Y-65020057D02*
X143951904Y-65115295D01*
X143951904Y-65115295D02*
X143999523Y-65305771D01*
X143999523Y-65305771D02*
X143999523Y-65543866D01*
X143999523Y-65543866D02*
X143951904Y-65734342D01*
X143951904Y-65734342D02*
X143904285Y-65829580D01*
X143904285Y-65829580D02*
X143856666Y-65877200D01*
X143856666Y-65877200D02*
X143761428Y-65924819D01*
X143761428Y-65924819D02*
X143666190Y-65924819D01*
X143666190Y-65924819D02*
X143570952Y-65877200D01*
X143570952Y-65877200D02*
X143523333Y-65829580D01*
X143523333Y-65829580D02*
X143475714Y-65734342D01*
X143475714Y-65734342D02*
X143428095Y-65543866D01*
X143428095Y-65543866D02*
X143428095Y-65305771D01*
X143428095Y-65305771D02*
X143475714Y-65115295D01*
X143475714Y-65115295D02*
X143523333Y-65020057D01*
X143523333Y-65020057D02*
X143570952Y-64972438D01*
X143570952Y-64972438D02*
X143666190Y-64924819D01*
X144332857Y-64924819D02*
X144951904Y-64924819D01*
X144951904Y-64924819D02*
X144618571Y-65305771D01*
X144618571Y-65305771D02*
X144761428Y-65305771D01*
X144761428Y-65305771D02*
X144856666Y-65353390D01*
X144856666Y-65353390D02*
X144904285Y-65401009D01*
X144904285Y-65401009D02*
X144951904Y-65496247D01*
X144951904Y-65496247D02*
X144951904Y-65734342D01*
X144951904Y-65734342D02*
X144904285Y-65829580D01*
X144904285Y-65829580D02*
X144856666Y-65877200D01*
X144856666Y-65877200D02*
X144761428Y-65924819D01*
X144761428Y-65924819D02*
X144475714Y-65924819D01*
X144475714Y-65924819D02*
X144380476Y-65877200D01*
X144380476Y-65877200D02*
X144332857Y-65829580D01*
X145285238Y-64924819D02*
X145904285Y-64924819D01*
X145904285Y-64924819D02*
X145570952Y-65305771D01*
X145570952Y-65305771D02*
X145713809Y-65305771D01*
X145713809Y-65305771D02*
X145809047Y-65353390D01*
X145809047Y-65353390D02*
X145856666Y-65401009D01*
X145856666Y-65401009D02*
X145904285Y-65496247D01*
X145904285Y-65496247D02*
X145904285Y-65734342D01*
X145904285Y-65734342D02*
X145856666Y-65829580D01*
X145856666Y-65829580D02*
X145809047Y-65877200D01*
X145809047Y-65877200D02*
X145713809Y-65924819D01*
X145713809Y-65924819D02*
X145428095Y-65924819D01*
X145428095Y-65924819D02*
X145332857Y-65877200D01*
X145332857Y-65877200D02*
X145285238Y-65829580D01*
X146666190Y-65401009D02*
X146809047Y-65448628D01*
X146809047Y-65448628D02*
X146856666Y-65496247D01*
X146856666Y-65496247D02*
X146904285Y-65591485D01*
X146904285Y-65591485D02*
X146904285Y-65734342D01*
X146904285Y-65734342D02*
X146856666Y-65829580D01*
X146856666Y-65829580D02*
X146809047Y-65877200D01*
X146809047Y-65877200D02*
X146713809Y-65924819D01*
X146713809Y-65924819D02*
X146332857Y-65924819D01*
X146332857Y-65924819D02*
X146332857Y-64924819D01*
X146332857Y-64924819D02*
X146666190Y-64924819D01*
X146666190Y-64924819D02*
X146761428Y-64972438D01*
X146761428Y-64972438D02*
X146809047Y-65020057D01*
X146809047Y-65020057D02*
X146856666Y-65115295D01*
X146856666Y-65115295D02*
X146856666Y-65210533D01*
X146856666Y-65210533D02*
X146809047Y-65305771D01*
X146809047Y-65305771D02*
X146761428Y-65353390D01*
X146761428Y-65353390D02*
X146666190Y-65401009D01*
X146666190Y-65401009D02*
X146332857Y-65401009D01*
X163173333Y-66294819D02*
X162840000Y-65818628D01*
X162601905Y-66294819D02*
X162601905Y-65294819D01*
X162601905Y-65294819D02*
X162982857Y-65294819D01*
X162982857Y-65294819D02*
X163078095Y-65342438D01*
X163078095Y-65342438D02*
X163125714Y-65390057D01*
X163125714Y-65390057D02*
X163173333Y-65485295D01*
X163173333Y-65485295D02*
X163173333Y-65628152D01*
X163173333Y-65628152D02*
X163125714Y-65723390D01*
X163125714Y-65723390D02*
X163078095Y-65771009D01*
X163078095Y-65771009D02*
X162982857Y-65818628D01*
X162982857Y-65818628D02*
X162601905Y-65818628D01*
X163554286Y-65390057D02*
X163601905Y-65342438D01*
X163601905Y-65342438D02*
X163697143Y-65294819D01*
X163697143Y-65294819D02*
X163935238Y-65294819D01*
X163935238Y-65294819D02*
X164030476Y-65342438D01*
X164030476Y-65342438D02*
X164078095Y-65390057D01*
X164078095Y-65390057D02*
X164125714Y-65485295D01*
X164125714Y-65485295D02*
X164125714Y-65580533D01*
X164125714Y-65580533D02*
X164078095Y-65723390D01*
X164078095Y-65723390D02*
X163506667Y-66294819D01*
X163506667Y-66294819D02*
X164125714Y-66294819D01*
X130478839Y-72163643D02*
X130097316Y-72430709D01*
X130478839Y-72621470D02*
X129677642Y-72621470D01*
X129677642Y-72621470D02*
X129677642Y-72316252D01*
X129677642Y-72316252D02*
X129715794Y-72239948D01*
X129715794Y-72239948D02*
X129753946Y-72201796D01*
X129753946Y-72201796D02*
X129830251Y-72163643D01*
X129830251Y-72163643D02*
X129944707Y-72163643D01*
X129944707Y-72163643D02*
X130021012Y-72201796D01*
X130021012Y-72201796D02*
X130059164Y-72239948D01*
X130059164Y-72239948D02*
X130097316Y-72316252D01*
X130097316Y-72316252D02*
X130097316Y-72621470D01*
X130059164Y-71820273D02*
X130059164Y-71553208D01*
X130478839Y-71438751D02*
X130478839Y-71820273D01*
X130478839Y-71820273D02*
X129677642Y-71820273D01*
X129677642Y-71820273D02*
X129677642Y-71438751D01*
X130440687Y-71133533D02*
X130478839Y-71019076D01*
X130478839Y-71019076D02*
X130478839Y-70828315D01*
X130478839Y-70828315D02*
X130440687Y-70752010D01*
X130440687Y-70752010D02*
X130402534Y-70713858D01*
X130402534Y-70713858D02*
X130326230Y-70675706D01*
X130326230Y-70675706D02*
X130249925Y-70675706D01*
X130249925Y-70675706D02*
X130173621Y-70713858D01*
X130173621Y-70713858D02*
X130135469Y-70752010D01*
X130135469Y-70752010D02*
X130097316Y-70828315D01*
X130097316Y-70828315D02*
X130059164Y-70980924D01*
X130059164Y-70980924D02*
X130021012Y-71057228D01*
X130021012Y-71057228D02*
X129982860Y-71095380D01*
X129982860Y-71095380D02*
X129906555Y-71133533D01*
X129906555Y-71133533D02*
X129830251Y-71133533D01*
X129830251Y-71133533D02*
X129753946Y-71095380D01*
X129753946Y-71095380D02*
X129715794Y-71057228D01*
X129715794Y-71057228D02*
X129677642Y-70980924D01*
X129677642Y-70980924D02*
X129677642Y-70790162D01*
X129677642Y-70790162D02*
X129715794Y-70675706D01*
X130059164Y-70332335D02*
X130059164Y-70065270D01*
X130478839Y-69950813D02*
X130478839Y-70332335D01*
X130478839Y-70332335D02*
X129677642Y-70332335D01*
X129677642Y-70332335D02*
X129677642Y-69950813D01*
X129677642Y-69721899D02*
X129677642Y-69264072D01*
X130478839Y-69492986D02*
X129677642Y-69492986D01*
X124855714Y-80954819D02*
X124379524Y-80954819D01*
X124379524Y-80954819D02*
X124331905Y-81431009D01*
X124331905Y-81431009D02*
X124379524Y-81383390D01*
X124379524Y-81383390D02*
X124474762Y-81335771D01*
X124474762Y-81335771D02*
X124712857Y-81335771D01*
X124712857Y-81335771D02*
X124808095Y-81383390D01*
X124808095Y-81383390D02*
X124855714Y-81431009D01*
X124855714Y-81431009D02*
X124903333Y-81526247D01*
X124903333Y-81526247D02*
X124903333Y-81764342D01*
X124903333Y-81764342D02*
X124855714Y-81859580D01*
X124855714Y-81859580D02*
X124808095Y-81907200D01*
X124808095Y-81907200D02*
X124712857Y-81954819D01*
X124712857Y-81954819D02*
X124474762Y-81954819D01*
X124474762Y-81954819D02*
X124379524Y-81907200D01*
X124379524Y-81907200D02*
X124331905Y-81859580D01*
X125808095Y-80954819D02*
X125331905Y-80954819D01*
X125331905Y-80954819D02*
X125284286Y-81431009D01*
X125284286Y-81431009D02*
X125331905Y-81383390D01*
X125331905Y-81383390D02*
X125427143Y-81335771D01*
X125427143Y-81335771D02*
X125665238Y-81335771D01*
X125665238Y-81335771D02*
X125760476Y-81383390D01*
X125760476Y-81383390D02*
X125808095Y-81431009D01*
X125808095Y-81431009D02*
X125855714Y-81526247D01*
X125855714Y-81526247D02*
X125855714Y-81764342D01*
X125855714Y-81764342D02*
X125808095Y-81859580D01*
X125808095Y-81859580D02*
X125760476Y-81907200D01*
X125760476Y-81907200D02*
X125665238Y-81954819D01*
X125665238Y-81954819D02*
X125427143Y-81954819D01*
X125427143Y-81954819D02*
X125331905Y-81907200D01*
X125331905Y-81907200D02*
X125284286Y-81859580D01*
X126760476Y-80954819D02*
X126284286Y-80954819D01*
X126284286Y-80954819D02*
X126236667Y-81431009D01*
X126236667Y-81431009D02*
X126284286Y-81383390D01*
X126284286Y-81383390D02*
X126379524Y-81335771D01*
X126379524Y-81335771D02*
X126617619Y-81335771D01*
X126617619Y-81335771D02*
X126712857Y-81383390D01*
X126712857Y-81383390D02*
X126760476Y-81431009D01*
X126760476Y-81431009D02*
X126808095Y-81526247D01*
X126808095Y-81526247D02*
X126808095Y-81764342D01*
X126808095Y-81764342D02*
X126760476Y-81859580D01*
X126760476Y-81859580D02*
X126712857Y-81907200D01*
X126712857Y-81907200D02*
X126617619Y-81954819D01*
X126617619Y-81954819D02*
X126379524Y-81954819D01*
X126379524Y-81954819D02*
X126284286Y-81907200D01*
X126284286Y-81907200D02*
X126236667Y-81859580D01*
D11*
%TO.C,7S*%
X151245000Y-69160000D02*
X151245000Y-80760000D01*
X155165000Y-68050000D02*
X166595000Y-68050000D01*
X155165000Y-80870000D02*
X166595000Y-80870000D01*
X155880000Y-69460000D02*
X155880000Y-76460000D01*
X155880000Y-76460000D02*
X160880000Y-77460000D01*
X160880000Y-70460000D02*
X155880000Y-69460000D01*
X160880000Y-77460000D02*
X160880000Y-70460000D01*
X165880000Y-71460000D02*
X160880000Y-70460000D01*
X165880000Y-71460000D02*
X165880000Y-78460000D01*
X165880000Y-78460000D02*
X160880000Y-77460000D01*
X170515000Y-80760000D02*
X170515000Y-68160000D01*
X156327214Y-78460000D02*
G75*
G02*
X155432786Y-78460000I-447214J0D01*
G01*
X155432786Y-78460000D02*
G75*
G02*
X156327214Y-78460000I447214J0D01*
G01*
%TO.C,C1*%
X131195225Y-77025000D02*
X131695225Y-77025000D01*
X131445225Y-76775000D02*
X131445225Y-77275000D01*
X134000000Y-75920000D02*
X134000000Y-77460000D01*
X134000000Y-79540000D02*
X134000000Y-81080000D01*
X134040000Y-75920000D02*
X134040000Y-77460000D01*
X134040000Y-79540000D02*
X134040000Y-81080000D01*
X134080000Y-75921000D02*
X134080000Y-77460000D01*
X134080000Y-79540000D02*
X134080000Y-81079000D01*
X134120000Y-75922000D02*
X134120000Y-77460000D01*
X134120000Y-79540000D02*
X134120000Y-81078000D01*
X134160000Y-75924000D02*
X134160000Y-77460000D01*
X134160000Y-79540000D02*
X134160000Y-81076000D01*
X134200000Y-75927000D02*
X134200000Y-77460000D01*
X134200000Y-79540000D02*
X134200000Y-81073000D01*
X134240000Y-75931000D02*
X134240000Y-77460000D01*
X134240000Y-79540000D02*
X134240000Y-81069000D01*
X134280000Y-75935000D02*
X134280000Y-77460000D01*
X134280000Y-79540000D02*
X134280000Y-81065000D01*
X134320000Y-75939000D02*
X134320000Y-77460000D01*
X134320000Y-79540000D02*
X134320000Y-81061000D01*
X134360000Y-75944000D02*
X134360000Y-77460000D01*
X134360000Y-79540000D02*
X134360000Y-81056000D01*
X134400000Y-75950000D02*
X134400000Y-77460000D01*
X134400000Y-79540000D02*
X134400000Y-81050000D01*
X134440000Y-75957000D02*
X134440000Y-77460000D01*
X134440000Y-79540000D02*
X134440000Y-81043000D01*
X134480000Y-75964000D02*
X134480000Y-77460000D01*
X134480000Y-79540000D02*
X134480000Y-81036000D01*
X134520000Y-75972000D02*
X134520000Y-77460000D01*
X134520000Y-79540000D02*
X134520000Y-81028000D01*
X134560000Y-75980000D02*
X134560000Y-77460000D01*
X134560000Y-79540000D02*
X134560000Y-81020000D01*
X134600000Y-75989000D02*
X134600000Y-77460000D01*
X134600000Y-79540000D02*
X134600000Y-81011000D01*
X134640000Y-75999000D02*
X134640000Y-77460000D01*
X134640000Y-79540000D02*
X134640000Y-81001000D01*
X134680000Y-76009000D02*
X134680000Y-77460000D01*
X134680000Y-79540000D02*
X134680000Y-80991000D01*
X134721000Y-76020000D02*
X134721000Y-77460000D01*
X134721000Y-79540000D02*
X134721000Y-80980000D01*
X134761000Y-76032000D02*
X134761000Y-77460000D01*
X134761000Y-79540000D02*
X134761000Y-80968000D01*
X134801000Y-76045000D02*
X134801000Y-77460000D01*
X134801000Y-79540000D02*
X134801000Y-80955000D01*
X134841000Y-76058000D02*
X134841000Y-77460000D01*
X134841000Y-79540000D02*
X134841000Y-80942000D01*
X134881000Y-76072000D02*
X134881000Y-77460000D01*
X134881000Y-79540000D02*
X134881000Y-80928000D01*
X134921000Y-76086000D02*
X134921000Y-77460000D01*
X134921000Y-79540000D02*
X134921000Y-80914000D01*
X134961000Y-76102000D02*
X134961000Y-77460000D01*
X134961000Y-79540000D02*
X134961000Y-80898000D01*
X135001000Y-76118000D02*
X135001000Y-77460000D01*
X135001000Y-79540000D02*
X135001000Y-80882000D01*
X135041000Y-76135000D02*
X135041000Y-77460000D01*
X135041000Y-79540000D02*
X135041000Y-80865000D01*
X135081000Y-76152000D02*
X135081000Y-77460000D01*
X135081000Y-79540000D02*
X135081000Y-80848000D01*
X135121000Y-76171000D02*
X135121000Y-77460000D01*
X135121000Y-79540000D02*
X135121000Y-80829000D01*
X135161000Y-76190000D02*
X135161000Y-77460000D01*
X135161000Y-79540000D02*
X135161000Y-80810000D01*
X135201000Y-76210000D02*
X135201000Y-77460000D01*
X135201000Y-79540000D02*
X135201000Y-80790000D01*
X135241000Y-76232000D02*
X135241000Y-77460000D01*
X135241000Y-79540000D02*
X135241000Y-80768000D01*
X135281000Y-76253000D02*
X135281000Y-77460000D01*
X135281000Y-79540000D02*
X135281000Y-80747000D01*
X135321000Y-76276000D02*
X135321000Y-77460000D01*
X135321000Y-79540000D02*
X135321000Y-80724000D01*
X135361000Y-76300000D02*
X135361000Y-77460000D01*
X135361000Y-79540000D02*
X135361000Y-80700000D01*
X135401000Y-76325000D02*
X135401000Y-77460000D01*
X135401000Y-79540000D02*
X135401000Y-80675000D01*
X135441000Y-76351000D02*
X135441000Y-77460000D01*
X135441000Y-79540000D02*
X135441000Y-80649000D01*
X135481000Y-76378000D02*
X135481000Y-77460000D01*
X135481000Y-79540000D02*
X135481000Y-80622000D01*
X135521000Y-76405000D02*
X135521000Y-77460000D01*
X135521000Y-79540000D02*
X135521000Y-80595000D01*
X135561000Y-76435000D02*
X135561000Y-77460000D01*
X135561000Y-79540000D02*
X135561000Y-80565000D01*
X135601000Y-76465000D02*
X135601000Y-77460000D01*
X135601000Y-79540000D02*
X135601000Y-80535000D01*
X135641000Y-76496000D02*
X135641000Y-77460000D01*
X135641000Y-79540000D02*
X135641000Y-80504000D01*
X135681000Y-76529000D02*
X135681000Y-77460000D01*
X135681000Y-79540000D02*
X135681000Y-80471000D01*
X135721000Y-76563000D02*
X135721000Y-77460000D01*
X135721000Y-79540000D02*
X135721000Y-80437000D01*
X135761000Y-76599000D02*
X135761000Y-77460000D01*
X135761000Y-79540000D02*
X135761000Y-80401000D01*
X135801000Y-76636000D02*
X135801000Y-77460000D01*
X135801000Y-79540000D02*
X135801000Y-80364000D01*
X135841000Y-76674000D02*
X135841000Y-77460000D01*
X135841000Y-79540000D02*
X135841000Y-80326000D01*
X135881000Y-76715000D02*
X135881000Y-77460000D01*
X135881000Y-79540000D02*
X135881000Y-80285000D01*
X135921000Y-76757000D02*
X135921000Y-77460000D01*
X135921000Y-79540000D02*
X135921000Y-80243000D01*
X135961000Y-76801000D02*
X135961000Y-77460000D01*
X135961000Y-79540000D02*
X135961000Y-80199000D01*
X136001000Y-76847000D02*
X136001000Y-77460000D01*
X136001000Y-79540000D02*
X136001000Y-80153000D01*
X136041000Y-76895000D02*
X136041000Y-80105000D01*
X136081000Y-76946000D02*
X136081000Y-80054000D01*
X136121000Y-77000000D02*
X136121000Y-80000000D01*
X136161000Y-77057000D02*
X136161000Y-79943000D01*
X136201000Y-77117000D02*
X136201000Y-79883000D01*
X136241000Y-77181000D02*
X136241000Y-79819000D01*
X136281000Y-77249000D02*
X136281000Y-79751000D01*
X136321000Y-77322000D02*
X136321000Y-79678000D01*
X136361000Y-77402000D02*
X136361000Y-79598000D01*
X136401000Y-77489000D02*
X136401000Y-79511000D01*
X136441000Y-77585000D02*
X136441000Y-79415000D01*
X136481000Y-77695000D02*
X136481000Y-79305000D01*
X136521000Y-77823000D02*
X136521000Y-79177000D01*
X136561000Y-77982000D02*
X136561000Y-79018000D01*
X136601000Y-78216000D02*
X136601000Y-78784000D01*
X136620000Y-78500000D02*
G75*
G02*
X131380000Y-78500000I-2620000J0D01*
G01*
X131380000Y-78500000D02*
G75*
G02*
X136620000Y-78500000I2620000J0D01*
G01*
%TO.C,VCC*%
X155580000Y-91660000D02*
X155580000Y-92400000D01*
X155580000Y-92400000D02*
X156080000Y-92400000D01*
X155820000Y-82239000D02*
X155820000Y-92160000D01*
X155820000Y-82239000D02*
X166100000Y-82239000D01*
X155820000Y-85199000D02*
X166100000Y-85199000D01*
X155820000Y-90100000D02*
X166100000Y-90100000D01*
X155820000Y-91600000D02*
X166100000Y-91600000D01*
X155820000Y-92160000D02*
X166100000Y-92160000D01*
X162273000Y-88523000D02*
X162226000Y-88569000D01*
X162466000Y-88739000D02*
X162431000Y-88774000D01*
X164570000Y-86225000D02*
X164535000Y-86261000D01*
X164775000Y-86431000D02*
X164728000Y-86477000D01*
X166100000Y-82239000D02*
X166100000Y-92160000D01*
X156884573Y-88183042D02*
G75*
G02*
X156885000Y-86816000I1535420J683041D01*
G01*
X157736958Y-85964573D02*
G75*
G02*
X159104000Y-85965000I683041J-1535420D01*
G01*
X158448805Y-89180253D02*
G75*
G02*
X157736000Y-89035000I-28806J1680254D01*
G01*
X159103318Y-89034756D02*
G75*
G02*
X158420000Y-89180000I-683318J1534756D01*
G01*
X159955427Y-86816958D02*
G75*
G02*
X159955000Y-88184000I-1535427J-683042D01*
G01*
X165180000Y-87500000D02*
G75*
G02*
X161820000Y-87500000I-1680000J0D01*
G01*
X161820000Y-87500000D02*
G75*
G02*
X165180000Y-87500000I1680000J0D01*
G01*
%TO.C,R1*%
X136080000Y-86420000D02*
X136080000Y-82580000D01*
X137920000Y-86420000D02*
X137920000Y-82580000D01*
%TO.C,C2*%
X130980199Y-84305000D02*
X131380199Y-84305000D01*
X131180199Y-84105000D02*
X131180199Y-84505000D01*
X133250000Y-83420000D02*
X133250000Y-84660000D01*
X133250000Y-86340000D02*
X133250000Y-87580000D01*
X133290000Y-83420000D02*
X133290000Y-84660000D01*
X133290000Y-86340000D02*
X133290000Y-87580000D01*
X133330000Y-83421000D02*
X133330000Y-84660000D01*
X133330000Y-86340000D02*
X133330000Y-87579000D01*
X133370000Y-83423000D02*
X133370000Y-84660000D01*
X133370000Y-86340000D02*
X133370000Y-87577000D01*
X133410000Y-83426000D02*
X133410000Y-84660000D01*
X133410000Y-86340000D02*
X133410000Y-87574000D01*
X133450000Y-83429000D02*
X133450000Y-84660000D01*
X133450000Y-86340000D02*
X133450000Y-87571000D01*
X133490000Y-83433000D02*
X133490000Y-84660000D01*
X133490000Y-86340000D02*
X133490000Y-87567000D01*
X133530000Y-83438000D02*
X133530000Y-84660000D01*
X133530000Y-86340000D02*
X133530000Y-87562000D01*
X133570000Y-83444000D02*
X133570000Y-84660000D01*
X133570000Y-86340000D02*
X133570000Y-87556000D01*
X133610000Y-83450000D02*
X133610000Y-84660000D01*
X133610000Y-86340000D02*
X133610000Y-87550000D01*
X133650000Y-83458000D02*
X133650000Y-84660000D01*
X133650000Y-86340000D02*
X133650000Y-87542000D01*
X133690000Y-83466000D02*
X133690000Y-84660000D01*
X133690000Y-86340000D02*
X133690000Y-87534000D01*
X133730000Y-83475000D02*
X133730000Y-84660000D01*
X133730000Y-86340000D02*
X133730000Y-87525000D01*
X133770000Y-83484000D02*
X133770000Y-84660000D01*
X133770000Y-86340000D02*
X133770000Y-87516000D01*
X133810000Y-83495000D02*
X133810000Y-84660000D01*
X133810000Y-86340000D02*
X133810000Y-87505000D01*
X133850000Y-83506000D02*
X133850000Y-84660000D01*
X133850000Y-86340000D02*
X133850000Y-87494000D01*
X133890000Y-83518000D02*
X133890000Y-84660000D01*
X133890000Y-86340000D02*
X133890000Y-87482000D01*
X133930000Y-83532000D02*
X133930000Y-84660000D01*
X133930000Y-86340000D02*
X133930000Y-87468000D01*
X133971000Y-83546000D02*
X133971000Y-84660000D01*
X133971000Y-86340000D02*
X133971000Y-87454000D01*
X134011000Y-83560000D02*
X134011000Y-84660000D01*
X134011000Y-86340000D02*
X134011000Y-87440000D01*
X134051000Y-83576000D02*
X134051000Y-84660000D01*
X134051000Y-86340000D02*
X134051000Y-87424000D01*
X134091000Y-83593000D02*
X134091000Y-84660000D01*
X134091000Y-86340000D02*
X134091000Y-87407000D01*
X134131000Y-83611000D02*
X134131000Y-84660000D01*
X134131000Y-86340000D02*
X134131000Y-87389000D01*
X134171000Y-83630000D02*
X134171000Y-84660000D01*
X134171000Y-86340000D02*
X134171000Y-87370000D01*
X134211000Y-83649000D02*
X134211000Y-84660000D01*
X134211000Y-86340000D02*
X134211000Y-87351000D01*
X134251000Y-83670000D02*
X134251000Y-84660000D01*
X134251000Y-86340000D02*
X134251000Y-87330000D01*
X134291000Y-83692000D02*
X134291000Y-84660000D01*
X134291000Y-86340000D02*
X134291000Y-87308000D01*
X134331000Y-83715000D02*
X134331000Y-84660000D01*
X134331000Y-86340000D02*
X134331000Y-87285000D01*
X134371000Y-83740000D02*
X134371000Y-84660000D01*
X134371000Y-86340000D02*
X134371000Y-87260000D01*
X134411000Y-83765000D02*
X134411000Y-84660000D01*
X134411000Y-86340000D02*
X134411000Y-87235000D01*
X134451000Y-83792000D02*
X134451000Y-84660000D01*
X134451000Y-86340000D02*
X134451000Y-87208000D01*
X134491000Y-83820000D02*
X134491000Y-84660000D01*
X134491000Y-86340000D02*
X134491000Y-87180000D01*
X134531000Y-83850000D02*
X134531000Y-84660000D01*
X134531000Y-86340000D02*
X134531000Y-87150000D01*
X134571000Y-83881000D02*
X134571000Y-84660000D01*
X134571000Y-86340000D02*
X134571000Y-87119000D01*
X134611000Y-83913000D02*
X134611000Y-84660000D01*
X134611000Y-86340000D02*
X134611000Y-87087000D01*
X134651000Y-83948000D02*
X134651000Y-84660000D01*
X134651000Y-86340000D02*
X134651000Y-87052000D01*
X134691000Y-83984000D02*
X134691000Y-84660000D01*
X134691000Y-86340000D02*
X134691000Y-87016000D01*
X134731000Y-84022000D02*
X134731000Y-84660000D01*
X134731000Y-86340000D02*
X134731000Y-86978000D01*
X134771000Y-84062000D02*
X134771000Y-84660000D01*
X134771000Y-86340000D02*
X134771000Y-86938000D01*
X134811000Y-84104000D02*
X134811000Y-84660000D01*
X134811000Y-86340000D02*
X134811000Y-86896000D01*
X134851000Y-84149000D02*
X134851000Y-86851000D01*
X134891000Y-84196000D02*
X134891000Y-86804000D01*
X134931000Y-84246000D02*
X134931000Y-86754000D01*
X134971000Y-84300000D02*
X134971000Y-86700000D01*
X135011000Y-84358000D02*
X135011000Y-86642000D01*
X135051000Y-84420000D02*
X135051000Y-86580000D01*
X135091000Y-84487000D02*
X135091000Y-86513000D01*
X135131000Y-84560000D02*
X135131000Y-86440000D01*
X135171000Y-84641000D02*
X135171000Y-86359000D01*
X135211000Y-84732000D02*
X135211000Y-86268000D01*
X135251000Y-84836000D02*
X135251000Y-86164000D01*
X135291000Y-84963000D02*
X135291000Y-86037000D01*
X135331000Y-85130000D02*
X135331000Y-85870000D01*
X135370000Y-85500000D02*
G75*
G02*
X131130000Y-85500000I-2120000J0D01*
G01*
X131130000Y-85500000D02*
G75*
G02*
X135370000Y-85500000I2120000J0D01*
G01*
D12*
%TO.C,COUNT*%
X122630000Y-68590000D02*
X122630000Y-72590000D01*
X126630000Y-67590000D02*
X124630000Y-67590000D01*
X126630000Y-73590000D02*
X124630000Y-73590000D01*
X128630000Y-68590000D02*
X128630000Y-72590000D01*
X127380000Y-70590000D02*
G75*
G02*
X123880000Y-70590000I-1750000J0D01*
G01*
X123880000Y-70590000D02*
G75*
G02*
X127380000Y-70590000I1750000J0D01*
G01*
D13*
X128080000Y-65840000D02*
G75*
G02*
X127680000Y-65840000I-200000J0D01*
G01*
X127680000Y-65840000D02*
G75*
G02*
X128080000Y-65840000I200000J0D01*
G01*
D11*
%TO.C,R3*%
X152960000Y-65000000D02*
X156800000Y-65000000D01*
X152960000Y-66840000D02*
X156800000Y-66840000D01*
%TO.C,CD4033B*%
X141040000Y-66470000D02*
X141040000Y-86910000D01*
X141040000Y-86910000D02*
X146340000Y-86910000D01*
X142690000Y-66470000D02*
X141040000Y-66470000D01*
X146340000Y-66470000D02*
X144690000Y-66470000D01*
X146340000Y-86910000D02*
X146340000Y-66470000D01*
X144690000Y-66470000D02*
G75*
G02*
X142690000Y-66470000I-1000000J0D01*
G01*
%TO.C,R2*%
X165380000Y-65000000D02*
X161540000Y-65000000D01*
X165380000Y-66840000D02*
X161540000Y-66840000D01*
D12*
%TO.C,RESET*%
X131130000Y-72590000D02*
X131130000Y-68590000D01*
X133130000Y-67590000D02*
X135130000Y-67590000D01*
X133130000Y-73590000D02*
X135130000Y-73590000D01*
X137130000Y-72590000D02*
X137130000Y-68590000D01*
D13*
X132080000Y-75340000D02*
G75*
G02*
X131680000Y-75340000I-200000J0D01*
G01*
X131680000Y-75340000D02*
G75*
G02*
X132080000Y-75340000I200000J0D01*
G01*
D12*
X135880000Y-70590000D02*
G75*
G02*
X132380000Y-70590000I-1750000J0D01*
G01*
X132380000Y-70590000D02*
G75*
G02*
X135880000Y-70590000I1750000J0D01*
G01*
D11*
%TO.C,555*%
X122920000Y-76470000D02*
X122920000Y-86750000D01*
X122920000Y-86750000D02*
X128220000Y-86750000D01*
X124570000Y-76470000D02*
X122920000Y-76470000D01*
X128220000Y-76470000D02*
X126570000Y-76470000D01*
X128220000Y-86750000D02*
X128220000Y-76470000D01*
X126570000Y-76470000D02*
G75*
G02*
X124570000Y-76470000I-1000000J0D01*
G01*
%TD*%
M02*
