%TF.GenerationSoftware,KiCad,Pcbnew,8.0.5*%
%TF.CreationDate,2024-12-20T15:16:31+03:00*%
%TF.ProjectId,Rectifier,52656374-6966-4696-9572-2e6b69636164,v01*%
%TF.SameCoordinates,Original*%
%TF.FileFunction,Copper,L1,Top*%
%TF.FilePolarity,Positive*%
%FSLAX46Y46*%
G04 Gerber Fmt 4.6, Leading zero omitted, Abs format (unit mm)*
G04 Created by KiCad (PCBNEW 8.0.5) date 2024-12-20 15:16:31*
%MOMM*%
%LPD*%
G01*
G04 APERTURE LIST*
%TA.AperFunction,ComponentPad*%
%ADD10R,1.905000X2.000000*%
%TD*%
%TA.AperFunction,ComponentPad*%
%ADD11O,1.905000X2.000000*%
%TD*%
%TA.AperFunction,ComponentPad*%
%ADD12C,1.400000*%
%TD*%
%TA.AperFunction,ComponentPad*%
%ADD13O,1.400000X1.400000*%
%TD*%
%TA.AperFunction,ComponentPad*%
%ADD14R,1.800000X1.800000*%
%TD*%
%TA.AperFunction,ComponentPad*%
%ADD15C,1.800000*%
%TD*%
%TA.AperFunction,ComponentPad*%
%ADD16R,2.600000X2.600000*%
%TD*%
%TA.AperFunction,ComponentPad*%
%ADD17C,2.600000*%
%TD*%
%TA.AperFunction,ComponentPad*%
%ADD18O,1.800000X1.800000*%
%TD*%
%TA.AperFunction,ComponentPad*%
%ADD19R,1.600000X1.600000*%
%TD*%
%TA.AperFunction,ComponentPad*%
%ADD20C,1.600000*%
%TD*%
%TA.AperFunction,Conductor*%
%ADD21C,0.254000*%
%TD*%
%TA.AperFunction,Conductor*%
%ADD22C,0.762000*%
%TD*%
G04 APERTURE END LIST*
D10*
%TO.P,U1,1,VI*%
%TO.N,Net-(D3-K)*%
X145420000Y-61580000D03*
D11*
%TO.P,U1,2,GND*%
%TO.N,GND*%
X147960000Y-61580000D03*
%TO.P,U1,3,VO*%
%TO.N,Net-(J2-Pin_1)*%
X150500000Y-61580000D03*
%TD*%
D12*
%TO.P,R1,1*%
%TO.N,Net-(LED1-A)*%
X157000000Y-61000000D03*
D13*
%TO.P,R1,2*%
%TO.N,Net-(J2-Pin_1)*%
X157000000Y-66080000D03*
%TD*%
D14*
%TO.P,LED1,1,K*%
%TO.N,GND*%
X155725000Y-56000000D03*
D15*
%TO.P,LED1,2,A*%
%TO.N,Net-(LED1-A)*%
X158265000Y-56000000D03*
%TD*%
D16*
%TO.P,J2,1,Pin_1*%
%TO.N,Net-(J2-Pin_1)*%
X166000000Y-62580000D03*
D17*
%TO.P,J2,2,Pin_2*%
%TO.N,GND*%
X166000000Y-57500000D03*
%TD*%
D16*
%TO.P,J1,1,Pin_1*%
%TO.N,Net-(D2-K)*%
X124195000Y-57455000D03*
D17*
%TO.P,J1,2,Pin_2*%
%TO.N,Net-(D1-K)*%
X124195000Y-62535000D03*
%TD*%
D14*
%TO.P,D4,1,K*%
%TO.N,Net-(D3-K)*%
X140000000Y-69810000D03*
D18*
%TO.P,D4,2,A*%
%TO.N,Net-(D1-K)*%
X140000000Y-62190000D03*
%TD*%
D14*
%TO.P,D3,1,K*%
%TO.N,Net-(D3-K)*%
X140000000Y-58310000D03*
D18*
%TO.P,D3,2,A*%
%TO.N,Net-(D2-K)*%
X140000000Y-50690000D03*
%TD*%
D14*
%TO.P,D2,1,K*%
%TO.N,Net-(D2-K)*%
X134500000Y-50690000D03*
D18*
%TO.P,D2,2,A*%
%TO.N,GND*%
X134500000Y-58310000D03*
%TD*%
D14*
%TO.P,D1,1,K*%
%TO.N,Net-(D1-K)*%
X134500000Y-62380000D03*
D18*
%TO.P,D1,2,A*%
%TO.N,GND*%
X134500000Y-70000000D03*
%TD*%
D19*
%TO.P,C2,1*%
%TO.N,Net-(D3-K)*%
X145544888Y-68080000D03*
D20*
%TO.P,C2,2*%
%TO.N,GND*%
X147544888Y-68080000D03*
%TD*%
D19*
%TO.P,C1,1*%
%TO.N,Net-(J2-Pin_1)*%
X145500000Y-53080000D03*
D20*
%TO.P,C1,2*%
%TO.N,GND*%
X147500000Y-53080000D03*
%TD*%
D21*
%TO.N,Net-(LED1-A)*%
X158265000Y-59735000D02*
X158265000Y-56000000D01*
X157000000Y-61000000D02*
X158265000Y-59735000D01*
%TO.N,Net-(J2-Pin_1)*%
X162500000Y-66080000D02*
X166000000Y-62580000D01*
X157000000Y-66080000D02*
X162500000Y-66080000D01*
X150500000Y-63500000D02*
X153000000Y-66000000D01*
X153580000Y-66080000D02*
X157000000Y-66080000D01*
X150500000Y-61580000D02*
X150500000Y-63500000D01*
X153000000Y-66000000D02*
X153500000Y-66000000D01*
X153500000Y-66000000D02*
X153580000Y-66080000D01*
X150500000Y-60000000D02*
X145500000Y-55000000D01*
X150500000Y-61580000D02*
X150500000Y-60000000D01*
X145500000Y-55000000D02*
X145500000Y-53080000D01*
D22*
%TO.N,Net-(D3-K)*%
X143270000Y-61580000D02*
X140000000Y-58310000D01*
X145420000Y-61580000D02*
X143270000Y-61580000D01*
X145544888Y-61704888D02*
X145420000Y-61580000D01*
X145544888Y-68080000D02*
X145544888Y-61704888D01*
X140000000Y-69810000D02*
X143814888Y-69810000D01*
X143814888Y-69810000D02*
X145544888Y-68080000D01*
%TO.N,GND*%
X132500000Y-70000000D02*
X134500000Y-70000000D01*
X131500000Y-69000000D02*
X132500000Y-70000000D01*
X131500000Y-59000000D02*
X131500000Y-69000000D01*
X132190000Y-58310000D02*
X131500000Y-59000000D01*
X134500000Y-58310000D02*
X132190000Y-58310000D01*
%TO.N,Net-(D2-K)*%
X134500000Y-50690000D02*
X140000000Y-50690000D01*
%TO.N,Net-(D1-K)*%
X134500000Y-62380000D02*
X139810000Y-62380000D01*
X139810000Y-62380000D02*
X140000000Y-62190000D01*
%TD*%
%TA.AperFunction,Conductor*%
%TO.N,GND*%
G36*
X169002702Y-43500617D02*
G01*
X169386771Y-43517386D01*
X169397506Y-43518326D01*
X169775971Y-43568152D01*
X169786597Y-43570025D01*
X170159284Y-43652648D01*
X170169710Y-43655442D01*
X170533765Y-43770227D01*
X170543911Y-43773920D01*
X170896578Y-43920000D01*
X170906369Y-43924566D01*
X171244942Y-44100816D01*
X171254310Y-44106224D01*
X171576244Y-44311318D01*
X171585105Y-44317523D01*
X171887930Y-44549889D01*
X171896217Y-44556843D01*
X172177635Y-44814715D01*
X172185284Y-44822364D01*
X172443156Y-45103782D01*
X172450110Y-45112069D01*
X172682476Y-45414894D01*
X172688681Y-45423755D01*
X172893775Y-45745689D01*
X172899183Y-45755057D01*
X173075430Y-46093623D01*
X173080002Y-46103427D01*
X173226075Y-46456078D01*
X173229775Y-46466244D01*
X173344554Y-46830278D01*
X173347354Y-46840727D01*
X173429971Y-47213389D01*
X173431849Y-47224042D01*
X173481671Y-47602473D01*
X173482614Y-47613249D01*
X173499382Y-47997297D01*
X173499500Y-48002706D01*
X173499500Y-71997293D01*
X173499382Y-72002702D01*
X173482614Y-72386750D01*
X173481671Y-72397526D01*
X173431849Y-72775957D01*
X173429971Y-72786610D01*
X173347354Y-73159272D01*
X173344554Y-73169721D01*
X173229775Y-73533755D01*
X173226075Y-73543921D01*
X173080002Y-73896572D01*
X173075430Y-73906376D01*
X172899183Y-74244942D01*
X172893775Y-74254310D01*
X172688681Y-74576244D01*
X172682476Y-74585105D01*
X172450110Y-74887930D01*
X172443156Y-74896217D01*
X172185284Y-75177635D01*
X172177635Y-75185284D01*
X171896217Y-75443156D01*
X171887930Y-75450110D01*
X171585105Y-75682476D01*
X171576244Y-75688681D01*
X171254310Y-75893775D01*
X171244942Y-75899183D01*
X170906376Y-76075430D01*
X170896572Y-76080002D01*
X170543921Y-76226075D01*
X170533755Y-76229775D01*
X170169721Y-76344554D01*
X170159272Y-76347354D01*
X169786610Y-76429971D01*
X169775957Y-76431849D01*
X169397526Y-76481671D01*
X169386750Y-76482614D01*
X169002703Y-76499382D01*
X168997294Y-76499500D01*
X120002706Y-76499500D01*
X119997297Y-76499382D01*
X119613249Y-76482614D01*
X119602473Y-76481671D01*
X119224042Y-76431849D01*
X119213389Y-76429971D01*
X118840727Y-76347354D01*
X118830278Y-76344554D01*
X118466244Y-76229775D01*
X118456078Y-76226075D01*
X118103427Y-76080002D01*
X118093623Y-76075430D01*
X117755057Y-75899183D01*
X117745689Y-75893775D01*
X117423755Y-75688681D01*
X117414894Y-75682476D01*
X117112069Y-75450110D01*
X117103782Y-75443156D01*
X116822364Y-75185284D01*
X116814715Y-75177635D01*
X116556843Y-74896217D01*
X116549889Y-74887930D01*
X116317523Y-74585105D01*
X116311318Y-74576244D01*
X116106224Y-74254310D01*
X116100816Y-74244942D01*
X115924569Y-73906376D01*
X115919997Y-73896572D01*
X115773924Y-73543921D01*
X115770224Y-73533755D01*
X115759739Y-73500500D01*
X115655442Y-73169710D01*
X115652648Y-73159284D01*
X115570025Y-72786597D01*
X115568152Y-72775971D01*
X115518326Y-72397506D01*
X115517386Y-72386771D01*
X115500618Y-72002702D01*
X115500500Y-71997293D01*
X115500500Y-71881902D01*
X118499500Y-71881902D01*
X118499500Y-72118097D01*
X118536446Y-72351368D01*
X118609433Y-72575996D01*
X118662912Y-72680953D01*
X118716657Y-72786433D01*
X118855483Y-72977510D01*
X119022490Y-73144517D01*
X119213567Y-73283343D01*
X119312991Y-73334002D01*
X119424003Y-73390566D01*
X119424005Y-73390566D01*
X119424008Y-73390568D01*
X119544412Y-73429689D01*
X119648631Y-73463553D01*
X119881903Y-73500500D01*
X119881908Y-73500500D01*
X120118097Y-73500500D01*
X120351368Y-73463553D01*
X120575992Y-73390568D01*
X120786433Y-73283343D01*
X120977510Y-73144517D01*
X121144517Y-72977510D01*
X121283343Y-72786433D01*
X121390568Y-72575992D01*
X121463553Y-72351368D01*
X121500500Y-72118097D01*
X121500500Y-71881902D01*
X167499500Y-71881902D01*
X167499500Y-72118097D01*
X167536446Y-72351368D01*
X167609433Y-72575996D01*
X167662912Y-72680953D01*
X167716657Y-72786433D01*
X167855483Y-72977510D01*
X168022490Y-73144517D01*
X168213567Y-73283343D01*
X168312991Y-73334002D01*
X168424003Y-73390566D01*
X168424005Y-73390566D01*
X168424008Y-73390568D01*
X168544412Y-73429689D01*
X168648631Y-73463553D01*
X168881903Y-73500500D01*
X168881908Y-73500500D01*
X169118097Y-73500500D01*
X169351368Y-73463553D01*
X169575992Y-73390568D01*
X169786433Y-73283343D01*
X169977510Y-73144517D01*
X170144517Y-72977510D01*
X170283343Y-72786433D01*
X170390568Y-72575992D01*
X170463553Y-72351368D01*
X170500500Y-72118097D01*
X170500500Y-71881902D01*
X170463553Y-71648631D01*
X170390566Y-71424003D01*
X170334002Y-71312991D01*
X170283343Y-71213567D01*
X170144517Y-71022490D01*
X169977510Y-70855483D01*
X169786433Y-70716657D01*
X169575996Y-70609433D01*
X169351368Y-70536446D01*
X169118097Y-70499500D01*
X169118092Y-70499500D01*
X168881908Y-70499500D01*
X168881903Y-70499500D01*
X168648631Y-70536446D01*
X168424003Y-70609433D01*
X168213566Y-70716657D01*
X168156838Y-70757873D01*
X168022490Y-70855483D01*
X168022488Y-70855485D01*
X168022487Y-70855485D01*
X167855485Y-71022487D01*
X167855485Y-71022488D01*
X167855483Y-71022490D01*
X167847449Y-71033548D01*
X167716657Y-71213566D01*
X167609433Y-71424003D01*
X167536446Y-71648631D01*
X167499500Y-71881902D01*
X121500500Y-71881902D01*
X121463553Y-71648631D01*
X121390566Y-71424003D01*
X121334002Y-71312991D01*
X121283343Y-71213567D01*
X121144517Y-71022490D01*
X120977510Y-70855483D01*
X120786433Y-70716657D01*
X120575996Y-70609433D01*
X120351368Y-70536446D01*
X120118097Y-70499500D01*
X120118092Y-70499500D01*
X119881908Y-70499500D01*
X119881903Y-70499500D01*
X119648631Y-70536446D01*
X119424003Y-70609433D01*
X119213566Y-70716657D01*
X119156838Y-70757873D01*
X119022490Y-70855483D01*
X119022488Y-70855485D01*
X119022487Y-70855485D01*
X118855485Y-71022487D01*
X118855485Y-71022488D01*
X118855483Y-71022490D01*
X118847449Y-71033548D01*
X118716657Y-71213566D01*
X118609433Y-71424003D01*
X118536446Y-71648631D01*
X118499500Y-71881902D01*
X115500500Y-71881902D01*
X115500500Y-69750000D01*
X133119117Y-69750000D01*
X134124722Y-69750000D01*
X134080667Y-69826306D01*
X134050000Y-69940756D01*
X134050000Y-70059244D01*
X134080667Y-70173694D01*
X134124722Y-70250000D01*
X133119117Y-70250000D01*
X133171317Y-70456135D01*
X133264516Y-70668609D01*
X133391414Y-70862842D01*
X133548558Y-71033545D01*
X133548562Y-71033548D01*
X133731644Y-71176047D01*
X133731648Y-71176050D01*
X133935697Y-71286476D01*
X133935706Y-71286479D01*
X134155139Y-71361811D01*
X134249999Y-71377640D01*
X134250000Y-71377639D01*
X134250000Y-70375277D01*
X134326306Y-70419333D01*
X134440756Y-70450000D01*
X134559244Y-70450000D01*
X134673694Y-70419333D01*
X134750000Y-70375277D01*
X134750000Y-71377640D01*
X134844860Y-71361811D01*
X135064293Y-71286479D01*
X135064302Y-71286476D01*
X135268351Y-71176050D01*
X135268355Y-71176047D01*
X135451437Y-71033548D01*
X135451441Y-71033545D01*
X135608585Y-70862842D01*
X135735483Y-70668609D01*
X135828682Y-70456135D01*
X135880883Y-70250000D01*
X134875278Y-70250000D01*
X134919333Y-70173694D01*
X134950000Y-70059244D01*
X134950000Y-69940756D01*
X134919333Y-69826306D01*
X134875278Y-69750000D01*
X135880883Y-69750000D01*
X135828682Y-69543864D01*
X135735483Y-69331390D01*
X135608585Y-69137157D01*
X135451441Y-68966454D01*
X135451437Y-68966451D01*
X135268355Y-68823952D01*
X135268351Y-68823949D01*
X135064302Y-68713523D01*
X135064293Y-68713520D01*
X134844861Y-68638188D01*
X134750000Y-68622359D01*
X134750000Y-69624722D01*
X134673694Y-69580667D01*
X134559244Y-69550000D01*
X134440756Y-69550000D01*
X134326306Y-69580667D01*
X134250000Y-69624722D01*
X134250000Y-68622359D01*
X134249999Y-68622359D01*
X134155138Y-68638188D01*
X133935706Y-68713520D01*
X133935697Y-68713523D01*
X133731648Y-68823949D01*
X133731644Y-68823952D01*
X133548562Y-68966451D01*
X133548558Y-68966454D01*
X133391414Y-69137157D01*
X133264516Y-69331390D01*
X133171317Y-69543864D01*
X133119117Y-69750000D01*
X115500500Y-69750000D01*
X115500500Y-62534995D01*
X122389451Y-62534995D01*
X122389451Y-62535004D01*
X122409616Y-62804101D01*
X122469664Y-63067188D01*
X122469666Y-63067195D01*
X122568256Y-63318396D01*
X122568258Y-63318400D01*
X122573727Y-63327872D01*
X122703185Y-63552102D01*
X122807595Y-63683027D01*
X122871442Y-63763089D01*
X123019006Y-63900007D01*
X123069259Y-63946635D01*
X123292226Y-64098651D01*
X123535359Y-64215738D01*
X123793228Y-64295280D01*
X123793229Y-64295280D01*
X123793232Y-64295281D01*
X124060063Y-64335499D01*
X124060068Y-64335499D01*
X124060071Y-64335500D01*
X124060072Y-64335500D01*
X124329928Y-64335500D01*
X124329929Y-64335500D01*
X124407574Y-64323797D01*
X124596767Y-64295281D01*
X124596768Y-64295280D01*
X124596772Y-64295280D01*
X124854641Y-64215738D01*
X125097775Y-64098651D01*
X125320741Y-63946635D01*
X125481758Y-63797233D01*
X125518557Y-63763089D01*
X125518557Y-63763087D01*
X125518561Y-63763085D01*
X125686815Y-63552102D01*
X125821743Y-63318398D01*
X125920334Y-63067195D01*
X125980383Y-62804103D01*
X125989122Y-62687483D01*
X126000549Y-62535004D01*
X126000549Y-62534995D01*
X125980383Y-62265898D01*
X125980111Y-62264705D01*
X125920334Y-62002805D01*
X125821743Y-61751602D01*
X125686815Y-61517898D01*
X125618421Y-61432135D01*
X133099500Y-61432135D01*
X133099500Y-63327870D01*
X133099501Y-63327876D01*
X133105908Y-63387483D01*
X133156202Y-63522328D01*
X133156206Y-63522335D01*
X133242452Y-63637544D01*
X133242455Y-63637547D01*
X133357664Y-63723793D01*
X133357671Y-63723797D01*
X133492517Y-63774091D01*
X133492516Y-63774091D01*
X133499444Y-63774835D01*
X133552127Y-63780500D01*
X135447872Y-63780499D01*
X135507483Y-63774091D01*
X135642331Y-63723796D01*
X135757546Y-63637546D01*
X135843796Y-63522331D01*
X135894091Y-63387483D01*
X135895730Y-63372242D01*
X135922469Y-63307692D01*
X135979862Y-63267845D01*
X136019019Y-63261500D01*
X139053938Y-63261500D01*
X139120977Y-63281185D01*
X139130100Y-63287646D01*
X139169608Y-63318396D01*
X139231374Y-63366470D01*
X139435497Y-63476936D01*
X139549487Y-63516068D01*
X139655015Y-63552297D01*
X139655017Y-63552297D01*
X139655019Y-63552298D01*
X139883951Y-63590500D01*
X139883952Y-63590500D01*
X140116048Y-63590500D01*
X140116049Y-63590500D01*
X140344981Y-63552298D01*
X140564503Y-63476936D01*
X140768626Y-63366470D01*
X140818220Y-63327870D01*
X140869899Y-63287646D01*
X140951784Y-63223913D01*
X141108979Y-63053153D01*
X141235924Y-62858849D01*
X141329157Y-62646300D01*
X141386134Y-62421305D01*
X141388808Y-62389038D01*
X141405300Y-62190006D01*
X141405300Y-62189993D01*
X141386135Y-61958702D01*
X141386133Y-61958691D01*
X141329157Y-61733699D01*
X141235924Y-61521151D01*
X141108983Y-61326852D01*
X141108980Y-61326849D01*
X141108979Y-61326847D01*
X140951784Y-61156087D01*
X140951779Y-61156083D01*
X140951777Y-61156081D01*
X140768634Y-61013535D01*
X140768628Y-61013531D01*
X140564504Y-60903064D01*
X140564495Y-60903061D01*
X140344984Y-60827702D01*
X140173282Y-60799050D01*
X140116049Y-60789500D01*
X139883951Y-60789500D01*
X139838164Y-60797140D01*
X139655015Y-60827702D01*
X139435504Y-60903061D01*
X139435495Y-60903064D01*
X139231371Y-61013531D01*
X139231365Y-61013535D01*
X139048222Y-61156081D01*
X139048219Y-61156084D01*
X138891016Y-61326852D01*
X138815578Y-61442321D01*
X138762432Y-61487678D01*
X138711769Y-61498500D01*
X136019019Y-61498500D01*
X135951980Y-61478815D01*
X135906225Y-61426011D01*
X135895729Y-61387754D01*
X135895611Y-61386658D01*
X135894091Y-61372517D01*
X135843796Y-61237669D01*
X135843795Y-61237668D01*
X135843793Y-61237664D01*
X135757547Y-61122455D01*
X135757544Y-61122452D01*
X135642335Y-61036206D01*
X135642328Y-61036202D01*
X135507482Y-60985908D01*
X135507483Y-60985908D01*
X135447883Y-60979501D01*
X135447881Y-60979500D01*
X135447873Y-60979500D01*
X135447864Y-60979500D01*
X133552129Y-60979500D01*
X133552123Y-60979501D01*
X133492516Y-60985908D01*
X133357671Y-61036202D01*
X133357664Y-61036206D01*
X133242455Y-61122452D01*
X133242452Y-61122455D01*
X133156206Y-61237664D01*
X133156202Y-61237671D01*
X133105908Y-61372517D01*
X133099501Y-61432116D01*
X133099500Y-61432135D01*
X125618421Y-61432135D01*
X125518561Y-61306915D01*
X125518560Y-61306914D01*
X125518557Y-61306910D01*
X125320741Y-61123365D01*
X125319402Y-61122452D01*
X125097775Y-60971349D01*
X125097769Y-60971346D01*
X125097768Y-60971345D01*
X125097767Y-60971344D01*
X124854643Y-60854263D01*
X124854645Y-60854263D01*
X124596773Y-60774720D01*
X124596767Y-60774718D01*
X124329936Y-60734500D01*
X124329929Y-60734500D01*
X124060071Y-60734500D01*
X124060063Y-60734500D01*
X123793232Y-60774718D01*
X123793226Y-60774720D01*
X123535358Y-60854262D01*
X123292230Y-60971346D01*
X123069258Y-61123365D01*
X122871442Y-61306910D01*
X122703185Y-61517898D01*
X122568258Y-61751599D01*
X122568256Y-61751603D01*
X122469666Y-62002804D01*
X122469664Y-62002811D01*
X122409616Y-62265898D01*
X122389451Y-62534995D01*
X115500500Y-62534995D01*
X115500500Y-56107135D01*
X122394500Y-56107135D01*
X122394500Y-58802870D01*
X122394501Y-58802876D01*
X122400908Y-58862483D01*
X122451202Y-58997328D01*
X122451206Y-58997335D01*
X122537452Y-59112544D01*
X122537455Y-59112547D01*
X122652664Y-59198793D01*
X122652671Y-59198797D01*
X122787517Y-59249091D01*
X122787516Y-59249091D01*
X122794444Y-59249835D01*
X122847127Y-59255500D01*
X125542872Y-59255499D01*
X125602483Y-59249091D01*
X125737331Y-59198796D01*
X125852546Y-59112546D01*
X125938796Y-58997331D01*
X125989091Y-58862483D01*
X125995500Y-58802873D01*
X125995500Y-58060000D01*
X133119117Y-58060000D01*
X134124722Y-58060000D01*
X134080667Y-58136306D01*
X134050000Y-58250756D01*
X134050000Y-58369244D01*
X134080667Y-58483694D01*
X134124722Y-58560000D01*
X133119117Y-58560000D01*
X133171317Y-58766135D01*
X133264516Y-58978609D01*
X133391414Y-59172842D01*
X133548558Y-59343545D01*
X133548562Y-59343548D01*
X133731644Y-59486047D01*
X133731648Y-59486050D01*
X133935697Y-59596476D01*
X133935706Y-59596479D01*
X134155139Y-59671811D01*
X134249999Y-59687640D01*
X134250000Y-59687639D01*
X134250000Y-58685277D01*
X134326306Y-58729333D01*
X134440756Y-58760000D01*
X134559244Y-58760000D01*
X134673694Y-58729333D01*
X134750000Y-58685277D01*
X134750000Y-59687640D01*
X134844860Y-59671811D01*
X135064293Y-59596479D01*
X135064302Y-59596476D01*
X135268351Y-59486050D01*
X135268355Y-59486047D01*
X135451437Y-59343548D01*
X135451441Y-59343545D01*
X135608585Y-59172842D01*
X135735483Y-58978609D01*
X135828682Y-58766135D01*
X135880883Y-58560000D01*
X134875278Y-58560000D01*
X134919333Y-58483694D01*
X134950000Y-58369244D01*
X134950000Y-58250756D01*
X134919333Y-58136306D01*
X134875278Y-58060000D01*
X135880883Y-58060000D01*
X135828682Y-57853864D01*
X135735483Y-57641390D01*
X135608585Y-57447157D01*
X135530316Y-57362135D01*
X138599500Y-57362135D01*
X138599500Y-59257870D01*
X138599501Y-59257876D01*
X138605908Y-59317483D01*
X138656202Y-59452328D01*
X138656206Y-59452335D01*
X138742452Y-59567544D01*
X138742455Y-59567547D01*
X138857664Y-59653793D01*
X138857671Y-59653797D01*
X138992517Y-59704091D01*
X138992516Y-59704091D01*
X138999444Y-59704835D01*
X139052127Y-59710500D01*
X140102507Y-59710499D01*
X140169546Y-59730183D01*
X140190188Y-59746818D01*
X142585294Y-62141923D01*
X142708077Y-62264706D01*
X142776749Y-62310591D01*
X142852453Y-62361175D01*
X142852455Y-62361176D01*
X142852459Y-62361178D01*
X143012871Y-62427622D01*
X143012876Y-62427624D01*
X143012880Y-62427624D01*
X143012881Y-62427625D01*
X143183176Y-62461500D01*
X143183179Y-62461500D01*
X143183180Y-62461500D01*
X143843001Y-62461500D01*
X143910040Y-62481185D01*
X143955795Y-62533989D01*
X143967001Y-62585500D01*
X143967001Y-62627876D01*
X143973408Y-62687483D01*
X144023702Y-62822328D01*
X144023706Y-62822335D01*
X144109952Y-62937544D01*
X144109955Y-62937547D01*
X144225164Y-63023793D01*
X144225171Y-63023797D01*
X144270118Y-63040561D01*
X144360017Y-63074091D01*
X144419627Y-63080500D01*
X144539388Y-63080499D01*
X144606427Y-63100183D01*
X144652182Y-63152987D01*
X144663388Y-63204499D01*
X144663388Y-66690122D01*
X144643703Y-66757161D01*
X144590899Y-66802916D01*
X144582721Y-66806304D01*
X144502559Y-66836202D01*
X144502552Y-66836206D01*
X144387343Y-66922452D01*
X144387340Y-66922455D01*
X144301094Y-67037664D01*
X144301090Y-67037671D01*
X144250796Y-67172517D01*
X144244389Y-67232116D01*
X144244388Y-67232135D01*
X144244388Y-68082508D01*
X144224703Y-68149547D01*
X144208069Y-68170189D01*
X143486077Y-68892181D01*
X143424754Y-68925666D01*
X143398396Y-68928500D01*
X141519019Y-68928500D01*
X141451980Y-68908815D01*
X141406225Y-68856011D01*
X141395729Y-68817754D01*
X141395611Y-68816658D01*
X141394091Y-68802517D01*
X141343796Y-68667669D01*
X141343795Y-68667668D01*
X141343793Y-68667664D01*
X141257547Y-68552455D01*
X141257544Y-68552452D01*
X141142335Y-68466206D01*
X141142328Y-68466202D01*
X141007482Y-68415908D01*
X141007483Y-68415908D01*
X140947883Y-68409501D01*
X140947881Y-68409500D01*
X140947873Y-68409500D01*
X140947864Y-68409500D01*
X139052129Y-68409500D01*
X139052123Y-68409501D01*
X138992516Y-68415908D01*
X138857671Y-68466202D01*
X138857664Y-68466206D01*
X138742455Y-68552452D01*
X138742452Y-68552455D01*
X138656206Y-68667664D01*
X138656202Y-68667671D01*
X138605908Y-68802517D01*
X138599501Y-68862116D01*
X138599500Y-68862135D01*
X138599500Y-70757870D01*
X138599501Y-70757876D01*
X138605908Y-70817483D01*
X138656202Y-70952328D01*
X138656206Y-70952335D01*
X138742452Y-71067544D01*
X138742455Y-71067547D01*
X138857664Y-71153793D01*
X138857671Y-71153797D01*
X138992517Y-71204091D01*
X138992516Y-71204091D01*
X138999444Y-71204835D01*
X139052127Y-71210500D01*
X140947872Y-71210499D01*
X141007483Y-71204091D01*
X141142331Y-71153796D01*
X141257546Y-71067546D01*
X141343796Y-70952331D01*
X141394091Y-70817483D01*
X141395730Y-70802242D01*
X141422469Y-70737692D01*
X141479862Y-70697845D01*
X141519019Y-70691500D01*
X143901711Y-70691500D01*
X144016788Y-70668609D01*
X144072012Y-70657624D01*
X144188356Y-70609433D01*
X144232431Y-70591177D01*
X144232432Y-70591176D01*
X144232435Y-70591175D01*
X144376812Y-70494706D01*
X145454698Y-69416817D01*
X145516021Y-69383333D01*
X145542379Y-69380499D01*
X146392759Y-69380499D01*
X146392760Y-69380499D01*
X146452371Y-69374091D01*
X146587219Y-69323796D01*
X146702434Y-69237546D01*
X146709238Y-69228455D01*
X146765168Y-69186584D01*
X146834859Y-69181597D01*
X146879628Y-69201188D01*
X146892400Y-69210130D01*
X146892406Y-69210134D01*
X147098561Y-69306265D01*
X147098570Y-69306269D01*
X147318277Y-69365139D01*
X147318288Y-69365141D01*
X147544886Y-69384966D01*
X147544890Y-69384966D01*
X147771487Y-69365141D01*
X147771498Y-69365139D01*
X147991205Y-69306269D01*
X147991219Y-69306264D01*
X148197366Y-69210136D01*
X148270359Y-69159024D01*
X147591335Y-68480000D01*
X147597549Y-68480000D01*
X147699282Y-68452741D01*
X147790494Y-68400080D01*
X147864968Y-68325606D01*
X147917629Y-68234394D01*
X147944888Y-68132661D01*
X147944888Y-68126447D01*
X148623912Y-68805471D01*
X148675024Y-68732478D01*
X148771152Y-68526331D01*
X148771157Y-68526317D01*
X148830027Y-68306610D01*
X148830029Y-68306599D01*
X148849854Y-68080002D01*
X148849854Y-68079997D01*
X148830029Y-67853400D01*
X148830027Y-67853389D01*
X148771157Y-67633682D01*
X148771152Y-67633668D01*
X148675024Y-67427521D01*
X148675020Y-67427513D01*
X148623913Y-67354526D01*
X147944888Y-68033551D01*
X147944888Y-68027339D01*
X147917629Y-67925606D01*
X147864968Y-67834394D01*
X147790494Y-67759920D01*
X147699282Y-67707259D01*
X147597549Y-67680000D01*
X147591335Y-67680000D01*
X148270360Y-67000974D01*
X148197366Y-66949863D01*
X147991219Y-66853735D01*
X147991205Y-66853730D01*
X147771498Y-66794860D01*
X147771487Y-66794858D01*
X147544890Y-66775034D01*
X147544886Y-66775034D01*
X147318288Y-66794858D01*
X147318277Y-66794860D01*
X147098570Y-66853730D01*
X147098561Y-66853734D01*
X146892400Y-66949868D01*
X146892395Y-66949871D01*
X146879624Y-66958813D01*
X146813417Y-66981138D01*
X146745651Y-66964124D01*
X146709240Y-66931546D01*
X146702434Y-66922454D01*
X146702432Y-66922453D01*
X146702432Y-66922452D01*
X146587223Y-66836206D01*
X146587216Y-66836202D01*
X146507055Y-66806304D01*
X146451121Y-66764433D01*
X146426704Y-66698968D01*
X146426388Y-66690122D01*
X146426388Y-63180176D01*
X146446073Y-63113137D01*
X146498877Y-63067382D01*
X146507055Y-63063994D01*
X146614828Y-63023797D01*
X146614827Y-63023797D01*
X146614831Y-63023796D01*
X146730046Y-62937546D01*
X146816296Y-62822331D01*
X146826872Y-62793974D01*
X146868740Y-62738041D01*
X146934204Y-62713622D01*
X147002477Y-62728472D01*
X147015940Y-62736988D01*
X147198723Y-62869788D01*
X147402429Y-62973582D01*
X147619871Y-63044234D01*
X147710000Y-63058509D01*
X147710000Y-62070747D01*
X147747708Y-62092518D01*
X147887591Y-62130000D01*
X148032409Y-62130000D01*
X148172292Y-62092518D01*
X148210000Y-62070747D01*
X148210000Y-63058508D01*
X148300128Y-63044234D01*
X148517570Y-62973582D01*
X148721276Y-62869788D01*
X148906242Y-62735402D01*
X149067905Y-62573739D01*
X149129371Y-62489137D01*
X149184701Y-62446470D01*
X149254314Y-62440491D01*
X149316109Y-62473096D01*
X149330007Y-62489134D01*
X149391714Y-62574066D01*
X149553434Y-62735786D01*
X149738462Y-62870217D01*
X149804795Y-62904014D01*
X149855590Y-62951988D01*
X149872500Y-63014499D01*
X149872500Y-63561807D01*
X149896612Y-63683027D01*
X149896614Y-63683035D01*
X149916275Y-63730500D01*
X149943915Y-63797229D01*
X149943920Y-63797239D01*
X150012588Y-63900007D01*
X150012591Y-63900011D01*
X152512589Y-66400008D01*
X152592589Y-66480008D01*
X152599994Y-66487413D01*
X152599997Y-66487414D01*
X152702767Y-66556083D01*
X152736215Y-66569937D01*
X152816965Y-66603386D01*
X152938192Y-66627499D01*
X152938196Y-66627500D01*
X152938197Y-66627500D01*
X153237380Y-66627500D01*
X153284832Y-66636939D01*
X153396960Y-66683383D01*
X153396965Y-66683385D01*
X153396969Y-66683385D01*
X153396970Y-66683386D01*
X153518194Y-66707500D01*
X153518197Y-66707500D01*
X153641803Y-66707500D01*
X155907768Y-66707500D01*
X155974807Y-66727185D01*
X156006722Y-66756773D01*
X156109020Y-66892238D01*
X156273437Y-67042123D01*
X156273439Y-67042125D01*
X156462595Y-67159245D01*
X156462596Y-67159245D01*
X156462599Y-67159247D01*
X156670060Y-67239618D01*
X156888757Y-67280500D01*
X156888759Y-67280500D01*
X157111241Y-67280500D01*
X157111243Y-67280500D01*
X157329940Y-67239618D01*
X157537401Y-67159247D01*
X157726562Y-67042124D01*
X157890981Y-66892236D01*
X157993278Y-66756773D01*
X158049387Y-66715137D01*
X158092232Y-66707500D01*
X162561804Y-66707500D01*
X162561805Y-66707499D01*
X162683035Y-66683386D01*
X162763784Y-66649937D01*
X162797233Y-66636083D01*
X162900008Y-66567411D01*
X162987411Y-66480008D01*
X165050600Y-64416817D01*
X165111923Y-64383333D01*
X165138281Y-64380499D01*
X167347871Y-64380499D01*
X167347872Y-64380499D01*
X167407483Y-64374091D01*
X167542331Y-64323796D01*
X167657546Y-64237546D01*
X167743796Y-64122331D01*
X167794091Y-63987483D01*
X167800500Y-63927873D01*
X167800499Y-61232128D01*
X167794091Y-61172517D01*
X167743796Y-61037669D01*
X167743795Y-61037668D01*
X167743793Y-61037664D01*
X167657547Y-60922455D01*
X167657544Y-60922452D01*
X167542335Y-60836206D01*
X167542328Y-60836202D01*
X167407482Y-60785908D01*
X167407483Y-60785908D01*
X167347883Y-60779501D01*
X167347881Y-60779500D01*
X167347873Y-60779500D01*
X167347864Y-60779500D01*
X164652129Y-60779500D01*
X164652123Y-60779501D01*
X164592516Y-60785908D01*
X164457671Y-60836202D01*
X164457664Y-60836206D01*
X164342455Y-60922452D01*
X164342452Y-60922455D01*
X164256206Y-61037664D01*
X164256202Y-61037671D01*
X164205908Y-61172517D01*
X164199501Y-61232116D01*
X164199501Y-61232123D01*
X164199500Y-61232135D01*
X164199500Y-63441718D01*
X164179815Y-63508757D01*
X164163181Y-63529399D01*
X162276400Y-65416181D01*
X162215077Y-65449666D01*
X162188719Y-65452500D01*
X158092232Y-65452500D01*
X158025193Y-65432815D01*
X157993278Y-65403227D01*
X157890979Y-65267761D01*
X157726562Y-65117876D01*
X157726560Y-65117874D01*
X157537404Y-65000754D01*
X157537398Y-65000752D01*
X157329940Y-64920382D01*
X157111243Y-64879500D01*
X156888757Y-64879500D01*
X156670060Y-64920382D01*
X156538864Y-64971207D01*
X156462601Y-65000752D01*
X156462595Y-65000754D01*
X156273439Y-65117874D01*
X156273437Y-65117876D01*
X156109020Y-65267761D01*
X156006722Y-65403227D01*
X155950613Y-65444863D01*
X155907768Y-65452500D01*
X153842620Y-65452500D01*
X153795168Y-65443061D01*
X153737982Y-65419374D01*
X153683035Y-65396614D01*
X153683027Y-65396612D01*
X153561807Y-65372500D01*
X153561803Y-65372500D01*
X153311281Y-65372500D01*
X153244242Y-65352815D01*
X153223600Y-65336181D01*
X151163819Y-63276400D01*
X151130334Y-63215077D01*
X151127500Y-63188719D01*
X151127500Y-63014499D01*
X151147185Y-62947460D01*
X151195204Y-62904015D01*
X151261538Y-62870217D01*
X151446566Y-62735786D01*
X151608286Y-62574066D01*
X151742717Y-62389038D01*
X151846548Y-62185258D01*
X151900208Y-62020110D01*
X151917221Y-61967749D01*
X151917221Y-61967748D01*
X151917222Y-61967745D01*
X151953000Y-61741854D01*
X151953000Y-61418146D01*
X151917222Y-61192255D01*
X151917221Y-61192251D01*
X151917221Y-61192250D01*
X151846549Y-60974744D01*
X151771627Y-60827702D01*
X151742717Y-60770962D01*
X151608286Y-60585934D01*
X151446566Y-60424214D01*
X151261538Y-60289783D01*
X151261537Y-60289782D01*
X151261535Y-60289781D01*
X151195204Y-60255983D01*
X151144409Y-60208008D01*
X151127500Y-60145499D01*
X151127500Y-59938198D01*
X151127500Y-59938197D01*
X151124030Y-59920753D01*
X151103386Y-59816966D01*
X151059286Y-59710500D01*
X151056083Y-59702767D01*
X151045975Y-59687640D01*
X150987414Y-59599996D01*
X150987413Y-59599994D01*
X150954963Y-59567544D01*
X150900008Y-59512589D01*
X146439574Y-55052155D01*
X154325000Y-55052155D01*
X154325000Y-55750000D01*
X155349722Y-55750000D01*
X155305667Y-55826306D01*
X155275000Y-55940756D01*
X155275000Y-56059244D01*
X155305667Y-56173694D01*
X155349722Y-56250000D01*
X154325000Y-56250000D01*
X154325000Y-56947844D01*
X154331401Y-57007372D01*
X154331403Y-57007379D01*
X154381645Y-57142086D01*
X154381649Y-57142093D01*
X154467809Y-57257187D01*
X154467812Y-57257190D01*
X154582906Y-57343350D01*
X154582913Y-57343354D01*
X154717620Y-57393596D01*
X154717627Y-57393598D01*
X154777155Y-57399999D01*
X154777172Y-57400000D01*
X155475000Y-57400000D01*
X155475000Y-56375277D01*
X155551306Y-56419333D01*
X155665756Y-56450000D01*
X155784244Y-56450000D01*
X155898694Y-56419333D01*
X155975000Y-56375277D01*
X155975000Y-57400000D01*
X156672828Y-57400000D01*
X156672844Y-57399999D01*
X156732372Y-57393598D01*
X156732379Y-57393596D01*
X156867086Y-57343354D01*
X156867093Y-57343350D01*
X156982187Y-57257190D01*
X156982190Y-57257187D01*
X157068350Y-57142093D01*
X157068355Y-57142084D01*
X157097075Y-57065081D01*
X157138945Y-57009147D01*
X157204409Y-56984729D01*
X157272682Y-56999580D01*
X157304484Y-57024428D01*
X157313216Y-57033913D01*
X157313219Y-57033915D01*
X157313222Y-57033918D01*
X157496365Y-57176464D01*
X157496375Y-57176471D01*
X157572517Y-57217676D01*
X157622108Y-57266895D01*
X157637500Y-57326731D01*
X157637500Y-59423718D01*
X157617815Y-59490757D01*
X157601181Y-59511399D01*
X157327510Y-59785070D01*
X157266187Y-59818555D01*
X157217044Y-59819277D01*
X157111243Y-59799500D01*
X156888757Y-59799500D01*
X156670060Y-59840382D01*
X156538864Y-59891207D01*
X156462601Y-59920752D01*
X156462595Y-59920754D01*
X156273439Y-60037874D01*
X156273437Y-60037876D01*
X156109020Y-60187761D01*
X155974943Y-60365308D01*
X155974938Y-60365316D01*
X155875775Y-60564461D01*
X155875769Y-60564476D01*
X155814885Y-60778462D01*
X155814884Y-60778464D01*
X155794357Y-60999999D01*
X155794357Y-61000000D01*
X155814884Y-61221535D01*
X155814885Y-61221537D01*
X155875769Y-61435523D01*
X155875775Y-61435538D01*
X155974938Y-61634683D01*
X155974943Y-61634691D01*
X156109020Y-61812238D01*
X156273437Y-61962123D01*
X156273439Y-61962125D01*
X156462595Y-62079245D01*
X156462596Y-62079245D01*
X156462599Y-62079247D01*
X156670060Y-62159618D01*
X156888757Y-62200500D01*
X156888759Y-62200500D01*
X157111241Y-62200500D01*
X157111243Y-62200500D01*
X157329940Y-62159618D01*
X157537401Y-62079247D01*
X157726562Y-61962124D01*
X157890981Y-61812236D01*
X158025058Y-61634689D01*
X158124229Y-61435528D01*
X158185115Y-61221536D01*
X158205643Y-61000000D01*
X158203743Y-60979500D01*
X158184586Y-60772755D01*
X158185730Y-60772648D01*
X158192152Y-60709050D01*
X158219334Y-60668083D01*
X158752411Y-60135008D01*
X158774807Y-60101490D01*
X158785218Y-60085910D01*
X158785218Y-60085909D01*
X158817312Y-60037876D01*
X158821083Y-60032233D01*
X158868385Y-59918035D01*
X158876276Y-59878361D01*
X158892500Y-59796805D01*
X158892500Y-57499995D01*
X164194953Y-57499995D01*
X164194953Y-57500004D01*
X164215113Y-57769026D01*
X164215113Y-57769028D01*
X164275142Y-58032033D01*
X164275148Y-58032052D01*
X164373709Y-58283181D01*
X164373708Y-58283181D01*
X164508602Y-58516822D01*
X164562294Y-58584151D01*
X164562295Y-58584151D01*
X165398958Y-57747488D01*
X165423978Y-57807890D01*
X165495112Y-57914351D01*
X165585649Y-58004888D01*
X165692110Y-58076022D01*
X165752510Y-58101041D01*
X164914848Y-58938702D01*
X165097483Y-59063220D01*
X165097485Y-59063221D01*
X165340539Y-59180269D01*
X165340537Y-59180269D01*
X165598337Y-59259790D01*
X165598343Y-59259792D01*
X165865101Y-59299999D01*
X165865110Y-59300000D01*
X166134890Y-59300000D01*
X166134898Y-59299999D01*
X166401656Y-59259792D01*
X166401662Y-59259790D01*
X166659461Y-59180269D01*
X166902521Y-59063218D01*
X167085150Y-58938702D01*
X166247488Y-58101041D01*
X166307890Y-58076022D01*
X166414351Y-58004888D01*
X166504888Y-57914351D01*
X166576022Y-57807890D01*
X166601041Y-57747488D01*
X167437703Y-58584151D01*
X167437704Y-58584150D01*
X167491393Y-58516828D01*
X167491400Y-58516817D01*
X167626290Y-58283181D01*
X167724851Y-58032052D01*
X167724857Y-58032033D01*
X167784886Y-57769028D01*
X167784886Y-57769026D01*
X167805047Y-57500004D01*
X167805047Y-57499995D01*
X167784886Y-57230973D01*
X167784886Y-57230971D01*
X167724857Y-56967966D01*
X167724851Y-56967947D01*
X167626290Y-56716818D01*
X167626291Y-56716818D01*
X167491397Y-56483177D01*
X167437704Y-56415847D01*
X166601041Y-57252510D01*
X166576022Y-57192110D01*
X166504888Y-57085649D01*
X166414351Y-56995112D01*
X166307890Y-56923978D01*
X166247488Y-56898958D01*
X167085150Y-56061296D01*
X166902517Y-55936779D01*
X166902516Y-55936778D01*
X166659460Y-55819730D01*
X166659462Y-55819730D01*
X166401662Y-55740209D01*
X166401656Y-55740207D01*
X166134898Y-55700000D01*
X165865101Y-55700000D01*
X165598343Y-55740207D01*
X165598337Y-55740209D01*
X165340538Y-55819730D01*
X165097485Y-55936778D01*
X165097476Y-55936783D01*
X164914848Y-56061296D01*
X165752511Y-56898958D01*
X165692110Y-56923978D01*
X165585649Y-56995112D01*
X165495112Y-57085649D01*
X165423978Y-57192110D01*
X165398958Y-57252511D01*
X164562295Y-56415848D01*
X164508600Y-56483180D01*
X164373709Y-56716818D01*
X164275148Y-56967947D01*
X164275142Y-56967966D01*
X164215113Y-57230971D01*
X164215113Y-57230973D01*
X164194953Y-57499995D01*
X158892500Y-57499995D01*
X158892500Y-57326731D01*
X158912185Y-57259692D01*
X158957483Y-57217676D01*
X159004726Y-57192110D01*
X159033626Y-57176470D01*
X159216784Y-57033913D01*
X159373979Y-56863153D01*
X159500924Y-56668849D01*
X159594157Y-56456300D01*
X159651134Y-56231305D01*
X159661423Y-56107135D01*
X159670300Y-56000006D01*
X159670300Y-55999993D01*
X159651135Y-55768702D01*
X159651133Y-55768691D01*
X159594157Y-55543699D01*
X159500924Y-55331151D01*
X159373983Y-55136852D01*
X159373980Y-55136849D01*
X159373979Y-55136847D01*
X159216784Y-54966087D01*
X159216779Y-54966083D01*
X159216777Y-54966081D01*
X159033634Y-54823535D01*
X159033628Y-54823531D01*
X158829504Y-54713064D01*
X158829495Y-54713061D01*
X158609984Y-54637702D01*
X158422404Y-54606401D01*
X158381049Y-54599500D01*
X158148951Y-54599500D01*
X158107596Y-54606401D01*
X157920015Y-54637702D01*
X157700504Y-54713061D01*
X157700495Y-54713064D01*
X157496371Y-54823531D01*
X157496365Y-54823535D01*
X157313222Y-54966081D01*
X157313215Y-54966087D01*
X157304484Y-54975572D01*
X157244595Y-55011561D01*
X157174757Y-55009458D01*
X157117143Y-54969932D01*
X157097075Y-54934918D01*
X157068355Y-54857915D01*
X157068350Y-54857906D01*
X156982190Y-54742812D01*
X156982187Y-54742809D01*
X156867093Y-54656649D01*
X156867086Y-54656645D01*
X156732379Y-54606403D01*
X156732372Y-54606401D01*
X156672844Y-54600000D01*
X155975000Y-54600000D01*
X155975000Y-55624722D01*
X155898694Y-55580667D01*
X155784244Y-55550000D01*
X155665756Y-55550000D01*
X155551306Y-55580667D01*
X155475000Y-55624722D01*
X155475000Y-54600000D01*
X154777155Y-54600000D01*
X154717627Y-54606401D01*
X154717620Y-54606403D01*
X154582913Y-54656645D01*
X154582906Y-54656649D01*
X154467812Y-54742809D01*
X154467809Y-54742812D01*
X154381649Y-54857906D01*
X154381645Y-54857913D01*
X154331403Y-54992620D01*
X154331401Y-54992627D01*
X154325000Y-55052155D01*
X146439574Y-55052155D01*
X146163819Y-54776400D01*
X146130334Y-54715077D01*
X146127500Y-54688719D01*
X146127500Y-54504499D01*
X146147185Y-54437460D01*
X146199989Y-54391705D01*
X146251500Y-54380499D01*
X146347871Y-54380499D01*
X146347872Y-54380499D01*
X146407483Y-54374091D01*
X146542331Y-54323796D01*
X146657546Y-54237546D01*
X146664350Y-54228455D01*
X146720280Y-54186584D01*
X146789971Y-54181597D01*
X146834740Y-54201188D01*
X146847512Y-54210130D01*
X146847518Y-54210134D01*
X147053673Y-54306265D01*
X147053682Y-54306269D01*
X147273389Y-54365139D01*
X147273400Y-54365141D01*
X147499998Y-54384966D01*
X147500002Y-54384966D01*
X147726599Y-54365141D01*
X147726610Y-54365139D01*
X147946317Y-54306269D01*
X147946331Y-54306264D01*
X148152478Y-54210136D01*
X148225471Y-54159024D01*
X147546447Y-53480000D01*
X147552661Y-53480000D01*
X147654394Y-53452741D01*
X147745606Y-53400080D01*
X147820080Y-53325606D01*
X147872741Y-53234394D01*
X147900000Y-53132661D01*
X147900000Y-53126447D01*
X148579024Y-53805471D01*
X148630136Y-53732478D01*
X148726264Y-53526331D01*
X148726269Y-53526317D01*
X148785139Y-53306610D01*
X148785141Y-53306599D01*
X148804966Y-53080002D01*
X148804966Y-53079997D01*
X148785141Y-52853400D01*
X148785139Y-52853389D01*
X148726269Y-52633682D01*
X148726264Y-52633668D01*
X148630136Y-52427521D01*
X148630132Y-52427513D01*
X148579025Y-52354526D01*
X147900000Y-53033551D01*
X147900000Y-53027339D01*
X147872741Y-52925606D01*
X147820080Y-52834394D01*
X147745606Y-52759920D01*
X147654394Y-52707259D01*
X147552661Y-52680000D01*
X147546447Y-52680000D01*
X148225472Y-52000974D01*
X148152478Y-51949863D01*
X147946331Y-51853735D01*
X147946317Y-51853730D01*
X147726610Y-51794860D01*
X147726599Y-51794858D01*
X147500002Y-51775034D01*
X147499998Y-51775034D01*
X147273400Y-51794858D01*
X147273389Y-51794860D01*
X147053682Y-51853730D01*
X147053673Y-51853734D01*
X146847512Y-51949868D01*
X146847507Y-51949871D01*
X146834736Y-51958813D01*
X146768529Y-51981138D01*
X146700763Y-51964124D01*
X146664352Y-51931546D01*
X146657546Y-51922454D01*
X146657544Y-51922453D01*
X146657544Y-51922452D01*
X146542335Y-51836206D01*
X146542328Y-51836202D01*
X146407482Y-51785908D01*
X146407483Y-51785908D01*
X146347883Y-51779501D01*
X146347881Y-51779500D01*
X146347873Y-51779500D01*
X146347864Y-51779500D01*
X144652129Y-51779500D01*
X144652123Y-51779501D01*
X144592516Y-51785908D01*
X144457671Y-51836202D01*
X144457664Y-51836206D01*
X144342455Y-51922452D01*
X144342452Y-51922455D01*
X144256206Y-52037664D01*
X144256202Y-52037671D01*
X144205908Y-52172517D01*
X144199501Y-52232116D01*
X144199500Y-52232135D01*
X144199500Y-53927870D01*
X144199501Y-53927876D01*
X144205908Y-53987483D01*
X144256202Y-54122328D01*
X144256206Y-54122335D01*
X144342452Y-54237544D01*
X144342455Y-54237547D01*
X144457664Y-54323793D01*
X144457671Y-54323797D01*
X144502618Y-54340561D01*
X144592517Y-54374091D01*
X144652127Y-54380500D01*
X144748500Y-54380499D01*
X144815538Y-54400183D01*
X144861294Y-54452986D01*
X144872500Y-54504499D01*
X144872500Y-55061807D01*
X144896612Y-55183027D01*
X144896614Y-55183035D01*
X144929198Y-55261698D01*
X144943917Y-55297233D01*
X144994209Y-55372500D01*
X145012589Y-55400008D01*
X145012590Y-55400009D01*
X145012593Y-55400013D01*
X149730731Y-60118150D01*
X149764216Y-60179473D01*
X149759232Y-60249165D01*
X149717360Y-60305098D01*
X149715936Y-60306149D01*
X149553434Y-60424214D01*
X149553432Y-60424216D01*
X149553431Y-60424216D01*
X149391716Y-60585931D01*
X149391709Y-60585940D01*
X149330007Y-60670864D01*
X149274677Y-60713530D01*
X149205063Y-60719508D01*
X149143269Y-60686901D01*
X149129372Y-60670863D01*
X149067907Y-60586263D01*
X149067902Y-60586257D01*
X148906242Y-60424597D01*
X148721276Y-60290211D01*
X148517568Y-60186417D01*
X148300124Y-60115765D01*
X148210000Y-60101490D01*
X148210000Y-61089252D01*
X148172292Y-61067482D01*
X148032409Y-61030000D01*
X147887591Y-61030000D01*
X147747708Y-61067482D01*
X147710000Y-61089252D01*
X147710000Y-60101490D01*
X147709999Y-60101490D01*
X147619875Y-60115765D01*
X147402431Y-60186417D01*
X147198719Y-60290213D01*
X147015939Y-60423010D01*
X146950132Y-60446490D01*
X146882079Y-60430664D01*
X146833384Y-60380558D01*
X146826875Y-60366033D01*
X146816296Y-60337669D01*
X146816295Y-60337667D01*
X146816293Y-60337664D01*
X146730047Y-60222455D01*
X146730044Y-60222452D01*
X146614835Y-60136206D01*
X146614828Y-60136202D01*
X146479982Y-60085908D01*
X146479983Y-60085908D01*
X146420383Y-60079501D01*
X146420381Y-60079500D01*
X146420373Y-60079500D01*
X146420364Y-60079500D01*
X144419629Y-60079500D01*
X144419623Y-60079501D01*
X144360016Y-60085908D01*
X144225171Y-60136202D01*
X144225164Y-60136206D01*
X144109955Y-60222452D01*
X144109952Y-60222455D01*
X144023706Y-60337664D01*
X144023702Y-60337671D01*
X143973408Y-60472517D01*
X143967001Y-60532116D01*
X143967000Y-60532135D01*
X143967000Y-60574500D01*
X143947315Y-60641539D01*
X143894511Y-60687294D01*
X143843000Y-60698500D01*
X143686491Y-60698500D01*
X143619452Y-60678815D01*
X143598810Y-60662181D01*
X141436818Y-58500188D01*
X141403333Y-58438865D01*
X141400499Y-58412507D01*
X141400499Y-57362129D01*
X141400498Y-57362123D01*
X141400497Y-57362116D01*
X141394091Y-57302517D01*
X141378118Y-57259692D01*
X141343797Y-57167671D01*
X141343793Y-57167664D01*
X141257547Y-57052455D01*
X141257544Y-57052452D01*
X141142335Y-56966206D01*
X141142328Y-56966202D01*
X141007482Y-56915908D01*
X141007483Y-56915908D01*
X140947883Y-56909501D01*
X140947881Y-56909500D01*
X140947873Y-56909500D01*
X140947864Y-56909500D01*
X139052129Y-56909500D01*
X139052123Y-56909501D01*
X138992516Y-56915908D01*
X138857671Y-56966202D01*
X138857664Y-56966206D01*
X138742455Y-57052452D01*
X138742452Y-57052455D01*
X138656206Y-57167664D01*
X138656202Y-57167671D01*
X138605908Y-57302517D01*
X138601518Y-57343354D01*
X138599501Y-57362123D01*
X138599500Y-57362135D01*
X135530316Y-57362135D01*
X135451441Y-57276454D01*
X135451437Y-57276451D01*
X135268355Y-57133952D01*
X135268351Y-57133949D01*
X135064302Y-57023523D01*
X135064293Y-57023520D01*
X134844861Y-56948188D01*
X134750000Y-56932359D01*
X134750000Y-57934722D01*
X134673694Y-57890667D01*
X134559244Y-57860000D01*
X134440756Y-57860000D01*
X134326306Y-57890667D01*
X134250000Y-57934722D01*
X134250000Y-56932359D01*
X134249999Y-56932359D01*
X134155138Y-56948188D01*
X133935706Y-57023520D01*
X133935697Y-57023523D01*
X133731648Y-57133949D01*
X133731644Y-57133952D01*
X133548562Y-57276451D01*
X133548558Y-57276454D01*
X133391414Y-57447157D01*
X133264516Y-57641390D01*
X133171317Y-57853864D01*
X133119117Y-58060000D01*
X125995500Y-58060000D01*
X125995499Y-56107128D01*
X125989091Y-56047517D01*
X125971368Y-56000000D01*
X125938797Y-55912671D01*
X125938793Y-55912664D01*
X125852547Y-55797455D01*
X125852544Y-55797452D01*
X125737335Y-55711206D01*
X125737328Y-55711202D01*
X125602482Y-55660908D01*
X125602483Y-55660908D01*
X125542883Y-55654501D01*
X125542881Y-55654500D01*
X125542873Y-55654500D01*
X125542864Y-55654500D01*
X122847129Y-55654500D01*
X122847123Y-55654501D01*
X122787516Y-55660908D01*
X122652671Y-55711202D01*
X122652664Y-55711206D01*
X122537455Y-55797452D01*
X122537452Y-55797455D01*
X122451206Y-55912664D01*
X122451202Y-55912671D01*
X122400908Y-56047517D01*
X122394501Y-56107116D01*
X122394501Y-56107123D01*
X122394500Y-56107135D01*
X115500500Y-56107135D01*
X115500500Y-49742135D01*
X133099500Y-49742135D01*
X133099500Y-51637870D01*
X133099501Y-51637876D01*
X133105908Y-51697483D01*
X133156202Y-51832328D01*
X133156206Y-51832335D01*
X133242452Y-51947544D01*
X133242455Y-51947547D01*
X133357664Y-52033793D01*
X133357671Y-52033797D01*
X133492517Y-52084091D01*
X133492516Y-52084091D01*
X133499444Y-52084835D01*
X133552127Y-52090500D01*
X135447872Y-52090499D01*
X135507483Y-52084091D01*
X135642331Y-52033796D01*
X135757546Y-51947546D01*
X135843796Y-51832331D01*
X135894091Y-51697483D01*
X135895730Y-51682242D01*
X135922469Y-51617692D01*
X135979862Y-51577845D01*
X136019019Y-51571500D01*
X138853519Y-51571500D01*
X138920558Y-51591185D01*
X138944748Y-51611516D01*
X139048216Y-51723913D01*
X139048219Y-51723915D01*
X139048222Y-51723918D01*
X139231365Y-51866464D01*
X139231371Y-51866468D01*
X139231374Y-51866470D01*
X139334820Y-51922452D01*
X139411822Y-51964124D01*
X139435497Y-51976936D01*
X139549487Y-52016068D01*
X139655015Y-52052297D01*
X139655017Y-52052297D01*
X139655019Y-52052298D01*
X139883951Y-52090500D01*
X139883952Y-52090500D01*
X140116048Y-52090500D01*
X140116049Y-52090500D01*
X140344981Y-52052298D01*
X140564503Y-51976936D01*
X140768626Y-51866470D01*
X140784995Y-51853730D01*
X140880364Y-51779501D01*
X140951784Y-51723913D01*
X141108979Y-51553153D01*
X141235924Y-51358849D01*
X141329157Y-51146300D01*
X141386134Y-50921305D01*
X141405300Y-50690000D01*
X141405300Y-50689993D01*
X141386135Y-50458702D01*
X141386133Y-50458691D01*
X141329157Y-50233699D01*
X141235924Y-50021151D01*
X141108983Y-49826852D01*
X141108980Y-49826849D01*
X141108979Y-49826847D01*
X140951784Y-49656087D01*
X140951779Y-49656083D01*
X140951777Y-49656081D01*
X140768634Y-49513535D01*
X140768628Y-49513531D01*
X140564504Y-49403064D01*
X140564495Y-49403061D01*
X140344984Y-49327702D01*
X140154450Y-49295908D01*
X140116049Y-49289500D01*
X139883951Y-49289500D01*
X139845550Y-49295908D01*
X139655015Y-49327702D01*
X139435504Y-49403061D01*
X139435495Y-49403064D01*
X139231371Y-49513531D01*
X139231365Y-49513535D01*
X139048222Y-49656081D01*
X139048219Y-49656084D01*
X138944749Y-49768483D01*
X138884862Y-49804473D01*
X138853519Y-49808500D01*
X136019019Y-49808500D01*
X135951980Y-49788815D01*
X135906225Y-49736011D01*
X135895729Y-49697754D01*
X135895611Y-49696658D01*
X135894091Y-49682517D01*
X135843796Y-49547669D01*
X135843795Y-49547668D01*
X135843793Y-49547664D01*
X135757547Y-49432455D01*
X135757544Y-49432452D01*
X135642335Y-49346206D01*
X135642328Y-49346202D01*
X135507482Y-49295908D01*
X135507483Y-49295908D01*
X135447883Y-49289501D01*
X135447881Y-49289500D01*
X135447873Y-49289500D01*
X135447864Y-49289500D01*
X133552129Y-49289500D01*
X133552123Y-49289501D01*
X133492516Y-49295908D01*
X133357671Y-49346202D01*
X133357664Y-49346206D01*
X133242455Y-49432452D01*
X133242452Y-49432455D01*
X133156206Y-49547664D01*
X133156202Y-49547671D01*
X133105908Y-49682517D01*
X133099501Y-49742116D01*
X133099500Y-49742135D01*
X115500500Y-49742135D01*
X115500500Y-48002706D01*
X115500618Y-47997297D01*
X115505656Y-47881902D01*
X118499500Y-47881902D01*
X118499500Y-48118097D01*
X118536446Y-48351368D01*
X118609433Y-48575996D01*
X118716657Y-48786433D01*
X118855483Y-48977510D01*
X119022490Y-49144517D01*
X119213567Y-49283343D01*
X119312991Y-49334002D01*
X119424003Y-49390566D01*
X119424005Y-49390566D01*
X119424008Y-49390568D01*
X119462467Y-49403064D01*
X119648631Y-49463553D01*
X119881903Y-49500500D01*
X119881908Y-49500500D01*
X120118097Y-49500500D01*
X120351368Y-49463553D01*
X120447077Y-49432455D01*
X120575992Y-49390568D01*
X120786433Y-49283343D01*
X120977510Y-49144517D01*
X121144517Y-48977510D01*
X121283343Y-48786433D01*
X121390568Y-48575992D01*
X121463553Y-48351368D01*
X121500500Y-48118097D01*
X121500500Y-47881902D01*
X167499500Y-47881902D01*
X167499500Y-48118097D01*
X167536446Y-48351368D01*
X167609433Y-48575996D01*
X167716657Y-48786433D01*
X167855483Y-48977510D01*
X168022490Y-49144517D01*
X168213567Y-49283343D01*
X168312991Y-49334002D01*
X168424003Y-49390566D01*
X168424005Y-49390566D01*
X168424008Y-49390568D01*
X168462467Y-49403064D01*
X168648631Y-49463553D01*
X168881903Y-49500500D01*
X168881908Y-49500500D01*
X169118097Y-49500500D01*
X169351368Y-49463553D01*
X169447077Y-49432455D01*
X169575992Y-49390568D01*
X169786433Y-49283343D01*
X169977510Y-49144517D01*
X170144517Y-48977510D01*
X170283343Y-48786433D01*
X170390568Y-48575992D01*
X170463553Y-48351368D01*
X170500500Y-48118097D01*
X170500500Y-47881902D01*
X170463553Y-47648631D01*
X170390566Y-47424003D01*
X170283342Y-47213566D01*
X170144517Y-47022490D01*
X169977510Y-46855483D01*
X169786433Y-46716657D01*
X169575996Y-46609433D01*
X169351368Y-46536446D01*
X169118097Y-46499500D01*
X169118092Y-46499500D01*
X168881908Y-46499500D01*
X168881903Y-46499500D01*
X168648631Y-46536446D01*
X168424003Y-46609433D01*
X168213566Y-46716657D01*
X168104550Y-46795862D01*
X168022490Y-46855483D01*
X168022488Y-46855485D01*
X168022487Y-46855485D01*
X167855485Y-47022487D01*
X167855485Y-47022488D01*
X167855483Y-47022490D01*
X167795862Y-47104550D01*
X167716657Y-47213566D01*
X167609433Y-47424003D01*
X167536446Y-47648631D01*
X167499500Y-47881902D01*
X121500500Y-47881902D01*
X121463553Y-47648631D01*
X121390566Y-47424003D01*
X121283342Y-47213566D01*
X121144517Y-47022490D01*
X120977510Y-46855483D01*
X120786433Y-46716657D01*
X120575996Y-46609433D01*
X120351368Y-46536446D01*
X120118097Y-46499500D01*
X120118092Y-46499500D01*
X119881908Y-46499500D01*
X119881903Y-46499500D01*
X119648631Y-46536446D01*
X119424003Y-46609433D01*
X119213566Y-46716657D01*
X119104550Y-46795862D01*
X119022490Y-46855483D01*
X119022488Y-46855485D01*
X119022487Y-46855485D01*
X118855485Y-47022487D01*
X118855485Y-47022488D01*
X118855483Y-47022490D01*
X118795862Y-47104550D01*
X118716657Y-47213566D01*
X118609433Y-47424003D01*
X118536446Y-47648631D01*
X118499500Y-47881902D01*
X115505656Y-47881902D01*
X115517386Y-47613226D01*
X115518326Y-47602495D01*
X115568152Y-47224025D01*
X115570025Y-47213405D01*
X115652649Y-46840709D01*
X115655440Y-46830295D01*
X115770230Y-46466227D01*
X115773917Y-46456095D01*
X115920003Y-46103412D01*
X115924561Y-46093638D01*
X116100822Y-45755045D01*
X116106217Y-45745700D01*
X116311325Y-45423744D01*
X116317515Y-45414905D01*
X116549896Y-45112060D01*
X116556834Y-45103791D01*
X116814726Y-44822352D01*
X116822352Y-44814726D01*
X117103791Y-44556834D01*
X117112060Y-44549896D01*
X117414905Y-44317515D01*
X117423744Y-44311325D01*
X117745700Y-44106217D01*
X117755045Y-44100822D01*
X118093638Y-43924561D01*
X118103412Y-43920003D01*
X118456095Y-43773917D01*
X118466227Y-43770230D01*
X118830295Y-43655440D01*
X118840709Y-43652649D01*
X119213405Y-43570025D01*
X119224025Y-43568152D01*
X119602495Y-43518326D01*
X119613226Y-43517386D01*
X119997297Y-43500617D01*
X120002706Y-43500500D01*
X120065892Y-43500500D01*
X168934108Y-43500500D01*
X168997294Y-43500500D01*
X169002702Y-43500617D01*
G37*
%TD.AperFunction*%
%TD*%
M02*
