%TF.GenerationSoftware,KiCad,Pcbnew,8.0.5*%
%TF.CreationDate,2024-12-29T01:36:02+03:00*%
%TF.ProjectId,DC to AC CD4047,44432074-6f20-4414-9320-434434303437,v01*%
%TF.SameCoordinates,Original*%
%TF.FileFunction,Legend,Bot*%
%TF.FilePolarity,Positive*%
%FSLAX46Y46*%
G04 Gerber Fmt 4.6, Leading zero omitted, Abs format (unit mm)*
G04 Created by KiCad (PCBNEW 8.0.5) date 2024-12-29 01:36:02*
%MOMM*%
%LPD*%
G01*
G04 APERTURE LIST*
%ADD10C,0.200000*%
G04 APERTURE END LIST*
D10*
X131296993Y-96472647D02*
X131154136Y-96510742D01*
X131154136Y-96510742D02*
X131106517Y-96548838D01*
X131106517Y-96548838D02*
X131058898Y-96625028D01*
X131058898Y-96625028D02*
X131058898Y-96739314D01*
X131058898Y-96739314D02*
X131106517Y-96815504D01*
X131106517Y-96815504D02*
X131154136Y-96853600D01*
X131154136Y-96853600D02*
X131249374Y-96891695D01*
X131249374Y-96891695D02*
X131630326Y-96891695D01*
X131630326Y-96891695D02*
X131630326Y-96091695D01*
X131630326Y-96091695D02*
X131296993Y-96091695D01*
X131296993Y-96091695D02*
X131201755Y-96129790D01*
X131201755Y-96129790D02*
X131154136Y-96167885D01*
X131154136Y-96167885D02*
X131106517Y-96244076D01*
X131106517Y-96244076D02*
X131106517Y-96320266D01*
X131106517Y-96320266D02*
X131154136Y-96396457D01*
X131154136Y-96396457D02*
X131201755Y-96434552D01*
X131201755Y-96434552D02*
X131296993Y-96472647D01*
X131296993Y-96472647D02*
X131630326Y-96472647D01*
X130725564Y-96358361D02*
X130487469Y-96891695D01*
X130249374Y-96358361D02*
X130487469Y-96891695D01*
X130487469Y-96891695D02*
X130582707Y-97082171D01*
X130582707Y-97082171D02*
X130630326Y-97120266D01*
X130630326Y-97120266D02*
X130725564Y-97158361D01*
X129106516Y-96891695D02*
X129106516Y-96091695D01*
X129106516Y-96091695D02*
X128725564Y-96091695D01*
X128725564Y-96091695D02*
X128630326Y-96129790D01*
X128630326Y-96129790D02*
X128582707Y-96167885D01*
X128582707Y-96167885D02*
X128535088Y-96244076D01*
X128535088Y-96244076D02*
X128535088Y-96358361D01*
X128535088Y-96358361D02*
X128582707Y-96434552D01*
X128582707Y-96434552D02*
X128630326Y-96472647D01*
X128630326Y-96472647D02*
X128725564Y-96510742D01*
X128725564Y-96510742D02*
X129106516Y-96510742D01*
X128106516Y-96091695D02*
X128106516Y-96739314D01*
X128106516Y-96739314D02*
X128058897Y-96815504D01*
X128058897Y-96815504D02*
X128011278Y-96853600D01*
X128011278Y-96853600D02*
X127916040Y-96891695D01*
X127916040Y-96891695D02*
X127725564Y-96891695D01*
X127725564Y-96891695D02*
X127630326Y-96853600D01*
X127630326Y-96853600D02*
X127582707Y-96815504D01*
X127582707Y-96815504D02*
X127535088Y-96739314D01*
X127535088Y-96739314D02*
X127535088Y-96091695D01*
X127201754Y-96091695D02*
X126630326Y-96091695D01*
X126916040Y-96891695D02*
X126916040Y-96091695D01*
X126344611Y-96853600D02*
X126201754Y-96891695D01*
X126201754Y-96891695D02*
X125963659Y-96891695D01*
X125963659Y-96891695D02*
X125868421Y-96853600D01*
X125868421Y-96853600D02*
X125820802Y-96815504D01*
X125820802Y-96815504D02*
X125773183Y-96739314D01*
X125773183Y-96739314D02*
X125773183Y-96663123D01*
X125773183Y-96663123D02*
X125820802Y-96586933D01*
X125820802Y-96586933D02*
X125868421Y-96548838D01*
X125868421Y-96548838D02*
X125963659Y-96510742D01*
X125963659Y-96510742D02*
X126154135Y-96472647D01*
X126154135Y-96472647D02*
X126249373Y-96434552D01*
X126249373Y-96434552D02*
X126296992Y-96396457D01*
X126296992Y-96396457D02*
X126344611Y-96320266D01*
X126344611Y-96320266D02*
X126344611Y-96244076D01*
X126344611Y-96244076D02*
X126296992Y-96167885D01*
X126296992Y-96167885D02*
X126249373Y-96129790D01*
X126249373Y-96129790D02*
X126154135Y-96091695D01*
X126154135Y-96091695D02*
X125916040Y-96091695D01*
X125916040Y-96091695D02*
X125773183Y-96129790D01*
X125344611Y-96891695D02*
X125344611Y-96091695D01*
X125344611Y-96472647D02*
X124773183Y-96472647D01*
X124773183Y-96891695D02*
X124773183Y-96091695D01*
X124296992Y-96091695D02*
X124296992Y-96739314D01*
X124296992Y-96739314D02*
X124249373Y-96815504D01*
X124249373Y-96815504D02*
X124201754Y-96853600D01*
X124201754Y-96853600D02*
X124106516Y-96891695D01*
X124106516Y-96891695D02*
X123916040Y-96891695D01*
X123916040Y-96891695D02*
X123820802Y-96853600D01*
X123820802Y-96853600D02*
X123773183Y-96815504D01*
X123773183Y-96815504D02*
X123725564Y-96739314D01*
X123725564Y-96739314D02*
X123725564Y-96091695D01*
M02*
