M48
; DRILL file {KiCad 8.0.5} date 2024-12-29T01:36:07+0300
; FORMAT={-:-/ absolute / metric / decimal}
; #@! TF.CreationDate,2024-12-29T01:36:07+03:00
; #@! TF.GenerationSoftware,Kicad,Pcbnew,8.0.5
; #@! TF.FileFunction,Plated,1,2,PTH
FMAT,2
METRIC
; #@! TA.AperFunction,Plated,PTH,ComponentDrill
T1C0.600
; #@! TA.AperFunction,Plated,PTH,ComponentDrill
T2C0.700
; #@! TA.AperFunction,Plated,PTH,ComponentDrill
T3C0.800
; #@! TA.AperFunction,Plated,PTH,ComponentDrill
T4C1.100
; #@! TA.AperFunction,Plated,PTH,ComponentDrill
T5C1.300
%
G90
G05
T1
X127.0Y-80.0
X128.5Y-80.0
T2
X145.96Y-80.0
X145.96Y-89.0
X151.04Y-80.0
X151.04Y-89.0
T3
X124.945Y-85.775
X127.485Y-88.315
X130.025Y-85.775
X133.7Y-79.875
X133.7Y-82.415
X133.7Y-84.955
X133.7Y-87.495
X133.7Y-90.035
X133.7Y-92.575
X133.7Y-95.115
X141.32Y-79.875
X141.32Y-82.415
X141.32Y-84.955
X141.32Y-87.495
X141.32Y-90.035
X141.32Y-92.575
X141.32Y-95.115
T4
X145.92Y-85.5
X145.92Y-94.5
X148.46Y-85.5
X148.46Y-94.5
X151.0Y-85.5
X151.0Y-94.5
T5
X126.92Y-71.5
X132.0Y-71.5
X140.34Y-71.5
X145.42Y-71.5
X150.5Y-71.5
M30
