%TF.GenerationSoftware,KiCad,Pcbnew,8.0.5*%
%TF.CreationDate,2025-01-04T17:35:10+03:00*%
%TF.ProjectId,Intruder_Alarm_with_LDR_and_Buzzer,496e7472-7564-4657-925f-416c61726d5f,v01*%
%TF.SameCoordinates,Original*%
%TF.FileFunction,Copper,L1,Top*%
%TF.FilePolarity,Positive*%
%FSLAX46Y46*%
G04 Gerber Fmt 4.6, Leading zero omitted, Abs format (unit mm)*
G04 Created by KiCad (PCBNEW 8.0.5) date 2025-01-04 17:35:10*
%MOMM*%
%LPD*%
G01*
G04 APERTURE LIST*
%TA.AperFunction,ComponentPad*%
%ADD10R,1.050000X1.500000*%
%TD*%
%TA.AperFunction,ComponentPad*%
%ADD11O,1.050000X1.500000*%
%TD*%
%TA.AperFunction,ComponentPad*%
%ADD12R,2.000000X2.000000*%
%TD*%
%TA.AperFunction,ComponentPad*%
%ADD13C,2.000000*%
%TD*%
%TA.AperFunction,ComponentPad*%
%ADD14C,1.400000*%
%TD*%
%TA.AperFunction,ComponentPad*%
%ADD15O,1.400000X1.400000*%
%TD*%
%TA.AperFunction,ComponentPad*%
%ADD16C,1.440000*%
%TD*%
%TA.AperFunction,ComponentPad*%
%ADD17R,2.600000X2.600000*%
%TD*%
%TA.AperFunction,ComponentPad*%
%ADD18C,2.600000*%
%TD*%
%TA.AperFunction,ComponentPad*%
%ADD19R,1.600000X1.600000*%
%TD*%
%TA.AperFunction,ComponentPad*%
%ADD20C,1.600000*%
%TD*%
%TA.AperFunction,ComponentPad*%
%ADD21C,1.500000*%
%TD*%
%TA.AperFunction,ComponentPad*%
%ADD22O,1.600000X1.600000*%
%TD*%
%TA.AperFunction,ComponentPad*%
%ADD23R,1.800000X1.800000*%
%TD*%
%TA.AperFunction,ComponentPad*%
%ADD24C,1.800000*%
%TD*%
%TA.AperFunction,ComponentPad*%
%ADD25R,1.200000X1.200000*%
%TD*%
%TA.AperFunction,ComponentPad*%
%ADD26C,1.200000*%
%TD*%
%TA.AperFunction,Conductor*%
%ADD27C,0.254000*%
%TD*%
G04 APERTURE END LIST*
D10*
%TO.P,Q1,1,C*%
%TO.N,Net-(BZ1--)*%
X159000000Y-74500000D03*
D11*
%TO.P,Q1,2,B*%
%TO.N,Net-(Q1-B)*%
X160270000Y-74500000D03*
%TO.P,Q1,3,E*%
%TO.N,GND*%
X161540000Y-74500000D03*
%TD*%
D12*
%TO.P,Buzzer,1,+*%
%TO.N,VCC*%
X172800000Y-69000000D03*
D13*
%TO.P,Buzzer,2,-*%
%TO.N,Net-(BZ1--)*%
X165200000Y-69000000D03*
%TD*%
D14*
%TO.P,R2,1*%
%TO.N,VCC*%
X132920000Y-72000000D03*
D15*
%TO.P,R2,2*%
%TO.N,Net-(U1--)*%
X138000000Y-72000000D03*
%TD*%
D10*
%TO.P,Q2,1,C*%
%TO.N,Net-(Q2-C)*%
X155770000Y-82000000D03*
D11*
%TO.P,Q2,2,B*%
%TO.N,Net-(Q2-B)*%
X154500000Y-82000000D03*
%TO.P,Q2,3,E*%
%TO.N,GND*%
X153230000Y-82000000D03*
%TD*%
D14*
%TO.P,R4,1*%
%TO.N,VCC*%
X151960000Y-69000000D03*
D15*
%TO.P,R4,2*%
%TO.N,Net-(D2-A)*%
X157040000Y-69000000D03*
%TD*%
D14*
%TO.P,R5,1*%
%TO.N,Net-(D2-K)*%
X151960000Y-78500000D03*
D15*
%TO.P,R5,2*%
%TO.N,Net-(Q2-B)*%
X157040000Y-78500000D03*
%TD*%
D16*
%TO.P,POT,1,1*%
%TO.N,Net-(U1-+)*%
X138525000Y-84275000D03*
%TO.P,POT,2,2*%
%TO.N,GND*%
X135985000Y-86815000D03*
%TO.P,POT,3,3*%
X133445000Y-84275000D03*
%TD*%
D17*
%TO.P,BAT+,1,Pin_1*%
%TO.N,GND*%
X146000000Y-63000000D03*
D18*
%TO.P,BAT+,2,Pin_2*%
%TO.N,VCC*%
X140920000Y-63000000D03*
%TD*%
D14*
%TO.P,R7,1*%
%TO.N,VCC*%
X160000000Y-85540000D03*
D15*
%TO.P,R7,2*%
%TO.N,Net-(Q2-C)*%
X160000000Y-80460000D03*
%TD*%
D19*
%TO.P,C1,1*%
%TO.N,Net-(U2-DIS)*%
X174794888Y-81000000D03*
D20*
%TO.P,C1,2*%
%TO.N,GND*%
X177294888Y-81000000D03*
%TD*%
D21*
%TO.P,LDR,1*%
%TO.N,VCC*%
X133800000Y-79500000D03*
%TO.P,LDR,2*%
%TO.N,Net-(U1-+)*%
X137200000Y-79500000D03*
%TD*%
D14*
%TO.P,R6,1*%
%TO.N,Net-(Q2-B)*%
X151960000Y-86500000D03*
D15*
%TO.P,R6,2*%
%TO.N,GND*%
X157040000Y-86500000D03*
%TD*%
D19*
%TO.P,CA3080,1,NC*%
%TO.N,unconnected-(U1-NC-Pad1)*%
X141700000Y-73200000D03*
D22*
%TO.P,CA3080,2,-*%
%TO.N,Net-(U1--)*%
X141700000Y-75740000D03*
%TO.P,CA3080,3,+*%
%TO.N,Net-(U1-+)*%
X141700000Y-78280000D03*
%TO.P,CA3080,4,V-*%
%TO.N,GND*%
X141700000Y-80820000D03*
%TO.P,CA3080,5,BIAS*%
%TO.N,unconnected-(U1-BIAS-Pad5)*%
X149320000Y-80820000D03*
%TO.P,CA3080,6*%
%TO.N,Net-(D2-K)*%
X149320000Y-78280000D03*
%TO.P,CA3080,7,V+*%
%TO.N,VCC*%
X149320000Y-75740000D03*
%TO.P,CA3080,8,NC*%
%TO.N,unconnected-(U1-NC-Pad8)*%
X149320000Y-73200000D03*
%TD*%
D19*
%TO.P,555,1,GND*%
%TO.N,GND*%
X163700000Y-78700000D03*
D22*
%TO.P,555,2,TR*%
%TO.N,Net-(Q2-C)*%
X163700000Y-81240000D03*
%TO.P,555,3,Q*%
%TO.N,Net-(Q1-B)*%
X163700000Y-83780000D03*
%TO.P,555,4,R*%
%TO.N,VCC*%
X163700000Y-86320000D03*
%TO.P,555,5,CV*%
%TO.N,Net-(U2-CV)*%
X171320000Y-86320000D03*
%TO.P,555,6,THR*%
%TO.N,Net-(U2-DIS)*%
X171320000Y-83780000D03*
%TO.P,555,7,DIS*%
X171320000Y-81240000D03*
%TO.P,555,8,VCC*%
%TO.N,VCC*%
X171320000Y-78700000D03*
%TD*%
D23*
%TO.P,LED,1,K*%
%TO.N,Net-(D2-K)*%
X152500000Y-74000000D03*
D24*
%TO.P,LED,2,A*%
%TO.N,Net-(D2-A)*%
X155040000Y-74000000D03*
%TD*%
D25*
%TO.P,C2,1*%
%TO.N,Net-(U2-CV)*%
X174794888Y-86500000D03*
D26*
%TO.P,C2,2*%
%TO.N,GND*%
X176794888Y-86500000D03*
%TD*%
D14*
%TO.P,R8,1*%
%TO.N,VCC*%
X176500000Y-70500000D03*
D15*
%TO.P,R8,2*%
%TO.N,Net-(U2-DIS)*%
X176500000Y-75580000D03*
%TD*%
D14*
%TO.P,R3,1*%
%TO.N,Net-(U1--)*%
X138000000Y-75500000D03*
D15*
%TO.P,R3,2*%
%TO.N,GND*%
X132920000Y-75500000D03*
%TD*%
D27*
%TO.N,Net-(BZ1--)*%
X159000000Y-70000000D02*
X159000000Y-74500000D01*
X165200000Y-69000000D02*
X160000000Y-69000000D01*
X160000000Y-69000000D02*
X159000000Y-70000000D01*
%TO.N,Net-(U2-DIS)*%
X174794888Y-77285112D02*
X176500000Y-75580000D01*
X171320000Y-83780000D02*
X174220000Y-83780000D01*
X174220000Y-83780000D02*
X174794888Y-83205112D01*
X174794888Y-81000000D02*
X174794888Y-83205112D01*
X171320000Y-81240000D02*
X174554888Y-81240000D01*
X174794888Y-81000000D02*
X174794888Y-77285112D01*
X174554888Y-81240000D02*
X174794888Y-81000000D01*
%TO.N,Net-(U2-CV)*%
X174614888Y-86320000D02*
X174794888Y-86500000D01*
X171320000Y-86320000D02*
X174614888Y-86320000D01*
%TO.N,Net-(D2-K)*%
X152500000Y-77960000D02*
X151960000Y-78500000D01*
X149320000Y-78280000D02*
X151740000Y-78280000D01*
X152500000Y-74000000D02*
X152500000Y-77960000D01*
X151740000Y-78280000D02*
X151960000Y-78500000D01*
%TO.N,Net-(D2-A)*%
X157040000Y-69000000D02*
X157040000Y-72000000D01*
X157040000Y-72000000D02*
X155040000Y-74000000D01*
%TO.N,Net-(Q2-B)*%
X154500000Y-82554000D02*
X151960000Y-85094000D01*
X154500000Y-82000000D02*
X154500000Y-82554000D01*
X151960000Y-85094000D02*
X151960000Y-86500000D01*
X157040000Y-78500000D02*
X154500000Y-81040000D01*
X154500000Y-81040000D02*
X154500000Y-82000000D01*
%TO.N,Net-(Q2-C)*%
X157310000Y-80460000D02*
X155770000Y-82000000D01*
X162920000Y-80460000D02*
X163700000Y-81240000D01*
X160000000Y-80460000D02*
X162920000Y-80460000D01*
X160000000Y-80460000D02*
X157310000Y-80460000D01*
%TO.N,Net-(U1-+)*%
X137200000Y-79500000D02*
X137200000Y-82950000D01*
X140480000Y-79500000D02*
X141700000Y-78280000D01*
X137200000Y-82950000D02*
X138525000Y-84275000D01*
X137200000Y-79500000D02*
X140480000Y-79500000D01*
%TO.N,Net-(U1--)*%
X138000000Y-75500000D02*
X141460000Y-75500000D01*
X138000000Y-72000000D02*
X138000000Y-75500000D01*
X141460000Y-75500000D02*
X141700000Y-75740000D01*
%TD*%
%TA.AperFunction,Conductor*%
%TO.N,VCC*%
G36*
X182942539Y-54520185D02*
G01*
X182988294Y-54572989D01*
X182999500Y-54624500D01*
X182999500Y-95375500D01*
X182979815Y-95442539D01*
X182927011Y-95488294D01*
X182875500Y-95499500D01*
X126124500Y-95499500D01*
X126057461Y-95479815D01*
X126011706Y-95427011D01*
X126000500Y-95375500D01*
X126000500Y-91881902D01*
X127499500Y-91881902D01*
X127499500Y-92118097D01*
X127536446Y-92351368D01*
X127609433Y-92575996D01*
X127716657Y-92786433D01*
X127855483Y-92977510D01*
X128022490Y-93144517D01*
X128213567Y-93283343D01*
X128312991Y-93334002D01*
X128424003Y-93390566D01*
X128424005Y-93390566D01*
X128424008Y-93390568D01*
X128544412Y-93429689D01*
X128648631Y-93463553D01*
X128881903Y-93500500D01*
X128881908Y-93500500D01*
X129118097Y-93500500D01*
X129351368Y-93463553D01*
X129575992Y-93390568D01*
X129786433Y-93283343D01*
X129977510Y-93144517D01*
X130144517Y-92977510D01*
X130283343Y-92786433D01*
X130390568Y-92575992D01*
X130463553Y-92351368D01*
X130500500Y-92118097D01*
X130500500Y-91881902D01*
X178499500Y-91881902D01*
X178499500Y-92118097D01*
X178536446Y-92351368D01*
X178609433Y-92575996D01*
X178716657Y-92786433D01*
X178855483Y-92977510D01*
X179022490Y-93144517D01*
X179213567Y-93283343D01*
X179312991Y-93334002D01*
X179424003Y-93390566D01*
X179424005Y-93390566D01*
X179424008Y-93390568D01*
X179544412Y-93429689D01*
X179648631Y-93463553D01*
X179881903Y-93500500D01*
X179881908Y-93500500D01*
X180118097Y-93500500D01*
X180351368Y-93463553D01*
X180575992Y-93390568D01*
X180786433Y-93283343D01*
X180977510Y-93144517D01*
X181144517Y-92977510D01*
X181283343Y-92786433D01*
X181390568Y-92575992D01*
X181463553Y-92351368D01*
X181500500Y-92118097D01*
X181500500Y-91881902D01*
X181463553Y-91648631D01*
X181390566Y-91424003D01*
X181283342Y-91213566D01*
X181144517Y-91022490D01*
X180977510Y-90855483D01*
X180786433Y-90716657D01*
X180575996Y-90609433D01*
X180351368Y-90536446D01*
X180118097Y-90499500D01*
X180118092Y-90499500D01*
X179881908Y-90499500D01*
X179881903Y-90499500D01*
X179648631Y-90536446D01*
X179424003Y-90609433D01*
X179213566Y-90716657D01*
X179104550Y-90795862D01*
X179022490Y-90855483D01*
X179022488Y-90855485D01*
X179022487Y-90855485D01*
X178855485Y-91022487D01*
X178855485Y-91022488D01*
X178855483Y-91022490D01*
X178795862Y-91104550D01*
X178716657Y-91213566D01*
X178609433Y-91424003D01*
X178536446Y-91648631D01*
X178499500Y-91881902D01*
X130500500Y-91881902D01*
X130463553Y-91648631D01*
X130390566Y-91424003D01*
X130283342Y-91213566D01*
X130144517Y-91022490D01*
X129977510Y-90855483D01*
X129786433Y-90716657D01*
X129575996Y-90609433D01*
X129351368Y-90536446D01*
X129118097Y-90499500D01*
X129118092Y-90499500D01*
X128881908Y-90499500D01*
X128881903Y-90499500D01*
X128648631Y-90536446D01*
X128424003Y-90609433D01*
X128213566Y-90716657D01*
X128104550Y-90795862D01*
X128022490Y-90855483D01*
X128022488Y-90855485D01*
X128022487Y-90855485D01*
X127855485Y-91022487D01*
X127855485Y-91022488D01*
X127855483Y-91022490D01*
X127795862Y-91104550D01*
X127716657Y-91213566D01*
X127609433Y-91424003D01*
X127536446Y-91648631D01*
X127499500Y-91881902D01*
X126000500Y-91881902D01*
X126000500Y-86814998D01*
X134759838Y-86814998D01*
X134759838Y-86815001D01*
X134778450Y-87027741D01*
X134778452Y-87027752D01*
X134833721Y-87234022D01*
X134833723Y-87234026D01*
X134833724Y-87234030D01*
X134860061Y-87290509D01*
X134923977Y-87427578D01*
X135046472Y-87602521D01*
X135197478Y-87753527D01*
X135197481Y-87753529D01*
X135372419Y-87876021D01*
X135372421Y-87876022D01*
X135372420Y-87876022D01*
X135436936Y-87906106D01*
X135565970Y-87966276D01*
X135772253Y-88021549D01*
X135924215Y-88034844D01*
X135984998Y-88040162D01*
X135985000Y-88040162D01*
X135985002Y-88040162D01*
X136038186Y-88035508D01*
X136197747Y-88021549D01*
X136404030Y-87966276D01*
X136597581Y-87876021D01*
X136772519Y-87753529D01*
X136923529Y-87602519D01*
X137046021Y-87427581D01*
X137136276Y-87234030D01*
X137191549Y-87027747D01*
X137210162Y-86815000D01*
X137191549Y-86602253D01*
X137164150Y-86499999D01*
X150754357Y-86499999D01*
X150754357Y-86500000D01*
X150774884Y-86721535D01*
X150774885Y-86721537D01*
X150835769Y-86935523D01*
X150835775Y-86935538D01*
X150934938Y-87134683D01*
X150934943Y-87134691D01*
X151069020Y-87312238D01*
X151233437Y-87462123D01*
X151233439Y-87462125D01*
X151422595Y-87579245D01*
X151422596Y-87579245D01*
X151422599Y-87579247D01*
X151630060Y-87659618D01*
X151848757Y-87700500D01*
X151848759Y-87700500D01*
X152071241Y-87700500D01*
X152071243Y-87700500D01*
X152289940Y-87659618D01*
X152497401Y-87579247D01*
X152686562Y-87462124D01*
X152850981Y-87312236D01*
X152985058Y-87134689D01*
X153084229Y-86935528D01*
X153145115Y-86721536D01*
X153165643Y-86500000D01*
X153165643Y-86499999D01*
X155834357Y-86499999D01*
X155834357Y-86500000D01*
X155854884Y-86721535D01*
X155854885Y-86721537D01*
X155915769Y-86935523D01*
X155915775Y-86935538D01*
X156014938Y-87134683D01*
X156014943Y-87134691D01*
X156149020Y-87312238D01*
X156313437Y-87462123D01*
X156313439Y-87462125D01*
X156502595Y-87579245D01*
X156502596Y-87579245D01*
X156502599Y-87579247D01*
X156710060Y-87659618D01*
X156928757Y-87700500D01*
X156928759Y-87700500D01*
X157151241Y-87700500D01*
X157151243Y-87700500D01*
X157369940Y-87659618D01*
X157577401Y-87579247D01*
X157766562Y-87462124D01*
X157930981Y-87312236D01*
X158065058Y-87134689D01*
X158164229Y-86935528D01*
X158225115Y-86721536D01*
X158241299Y-86546879D01*
X159346672Y-86546879D01*
X159346672Y-86546880D01*
X159462821Y-86618797D01*
X159462822Y-86618798D01*
X159670195Y-86699134D01*
X159888807Y-86740000D01*
X160111193Y-86740000D01*
X160329809Y-86699133D01*
X160537168Y-86618801D01*
X160537181Y-86618795D01*
X160653326Y-86546879D01*
X160000001Y-85893553D01*
X160000000Y-85893553D01*
X159346672Y-86546879D01*
X158241299Y-86546879D01*
X158245643Y-86500000D01*
X158233843Y-86372661D01*
X158225115Y-86278464D01*
X158225114Y-86278462D01*
X158221949Y-86267339D01*
X158164229Y-86064472D01*
X158145810Y-86027481D01*
X158065061Y-85865316D01*
X158065056Y-85865308D01*
X157930979Y-85687761D01*
X157768891Y-85539999D01*
X158794859Y-85539999D01*
X158794859Y-85540000D01*
X158815378Y-85761439D01*
X158876240Y-85975350D01*
X158975369Y-86174428D01*
X158991137Y-86195308D01*
X158991138Y-86195308D01*
X159646447Y-85540000D01*
X159600369Y-85493922D01*
X159650000Y-85493922D01*
X159650000Y-85586078D01*
X159673852Y-85675095D01*
X159719930Y-85754905D01*
X159785095Y-85820070D01*
X159864905Y-85866148D01*
X159953922Y-85890000D01*
X160046078Y-85890000D01*
X160135095Y-85866148D01*
X160214905Y-85820070D01*
X160280070Y-85754905D01*
X160326148Y-85675095D01*
X160350000Y-85586078D01*
X160350000Y-85539999D01*
X160353553Y-85539999D01*
X160353553Y-85540000D01*
X161008861Y-86195308D01*
X161024631Y-86174425D01*
X161024633Y-86174422D01*
X161123759Y-85975350D01*
X161184621Y-85761439D01*
X161205141Y-85540000D01*
X161205141Y-85539999D01*
X161184621Y-85318560D01*
X161123759Y-85104649D01*
X161024635Y-84905580D01*
X161024630Y-84905572D01*
X161008860Y-84884690D01*
X160353553Y-85539999D01*
X160350000Y-85539999D01*
X160350000Y-85493922D01*
X160326148Y-85404905D01*
X160280070Y-85325095D01*
X160214905Y-85259930D01*
X160135095Y-85213852D01*
X160046078Y-85190000D01*
X159953922Y-85190000D01*
X159864905Y-85213852D01*
X159785095Y-85259930D01*
X159719930Y-85325095D01*
X159673852Y-85404905D01*
X159650000Y-85493922D01*
X159600369Y-85493922D01*
X158991138Y-84884691D01*
X158991137Y-84884691D01*
X158975368Y-84905574D01*
X158876240Y-85104649D01*
X158815378Y-85318560D01*
X158794859Y-85539999D01*
X157768891Y-85539999D01*
X157766562Y-85537876D01*
X157766560Y-85537874D01*
X157577404Y-85420754D01*
X157577398Y-85420752D01*
X157369940Y-85340382D01*
X157151243Y-85299500D01*
X156928757Y-85299500D01*
X156710060Y-85340382D01*
X156578864Y-85391207D01*
X156502601Y-85420752D01*
X156502595Y-85420754D01*
X156313439Y-85537874D01*
X156313437Y-85537876D01*
X156149020Y-85687761D01*
X156014943Y-85865308D01*
X156014938Y-85865316D01*
X155915775Y-86064461D01*
X155915769Y-86064476D01*
X155854885Y-86278462D01*
X155854884Y-86278464D01*
X155834357Y-86499999D01*
X153165643Y-86499999D01*
X153153843Y-86372661D01*
X153145115Y-86278464D01*
X153145114Y-86278462D01*
X153141949Y-86267339D01*
X153084229Y-86064472D01*
X153065810Y-86027481D01*
X152985061Y-85865316D01*
X152985056Y-85865308D01*
X152850979Y-85687761D01*
X152686562Y-85537876D01*
X152686561Y-85537875D01*
X152646221Y-85512897D01*
X152599586Y-85460869D01*
X152587500Y-85407471D01*
X152587500Y-85405281D01*
X152607185Y-85338242D01*
X152623819Y-85317600D01*
X153408300Y-84533119D01*
X159346671Y-84533119D01*
X160000000Y-85186447D01*
X160000001Y-85186447D01*
X160653327Y-84533119D01*
X160537178Y-84461202D01*
X160537177Y-84461201D01*
X160329804Y-84380865D01*
X160111193Y-84340000D01*
X159888807Y-84340000D01*
X159670195Y-84380865D01*
X159462824Y-84461200D01*
X159462823Y-84461201D01*
X159346671Y-84533119D01*
X153408300Y-84533119D01*
X153605340Y-84336079D01*
X154686649Y-83254769D01*
X154747970Y-83221286D01*
X154750047Y-83220853D01*
X154799127Y-83211091D01*
X154879798Y-83177674D01*
X154949267Y-83170205D01*
X154994658Y-83189962D01*
X154994886Y-83189546D01*
X154999540Y-83192087D01*
X155001562Y-83192967D01*
X155002669Y-83193796D01*
X155002670Y-83193796D01*
X155002671Y-83193797D01*
X155137517Y-83244091D01*
X155137516Y-83244091D01*
X155144444Y-83244835D01*
X155197127Y-83250500D01*
X156342872Y-83250499D01*
X156402483Y-83244091D01*
X156537331Y-83193796D01*
X156652546Y-83107546D01*
X156738796Y-82992331D01*
X156789091Y-82857483D01*
X156795500Y-82797873D01*
X156795499Y-81913279D01*
X156815183Y-81846241D01*
X156831813Y-81825604D01*
X157533600Y-81123819D01*
X157594923Y-81090334D01*
X157621281Y-81087500D01*
X158907768Y-81087500D01*
X158974807Y-81107185D01*
X159006722Y-81136773D01*
X159109020Y-81272238D01*
X159273437Y-81422123D01*
X159273439Y-81422125D01*
X159462595Y-81539245D01*
X159462596Y-81539245D01*
X159462599Y-81539247D01*
X159670060Y-81619618D01*
X159888757Y-81660500D01*
X159888759Y-81660500D01*
X160111241Y-81660500D01*
X160111243Y-81660500D01*
X160329940Y-81619618D01*
X160537401Y-81539247D01*
X160726562Y-81422124D01*
X160890981Y-81272236D01*
X160993278Y-81136773D01*
X161049387Y-81095137D01*
X161092232Y-81087500D01*
X162272552Y-81087500D01*
X162339591Y-81107185D01*
X162385346Y-81159989D01*
X162396080Y-81222309D01*
X162394532Y-81240000D01*
X162394532Y-81240001D01*
X162414364Y-81466686D01*
X162414366Y-81466697D01*
X162473258Y-81686488D01*
X162473261Y-81686497D01*
X162569431Y-81892732D01*
X162569432Y-81892734D01*
X162699954Y-82079141D01*
X162860858Y-82240045D01*
X162907693Y-82272839D01*
X163047266Y-82370568D01*
X163105275Y-82397618D01*
X163157714Y-82443791D01*
X163176866Y-82510984D01*
X163156650Y-82577865D01*
X163105275Y-82622382D01*
X163047267Y-82649431D01*
X163047265Y-82649432D01*
X162860858Y-82779954D01*
X162699954Y-82940858D01*
X162569432Y-83127265D01*
X162569431Y-83127267D01*
X162473261Y-83333502D01*
X162473258Y-83333511D01*
X162414366Y-83553302D01*
X162414364Y-83553313D01*
X162394532Y-83779998D01*
X162394532Y-83780001D01*
X162414364Y-84006686D01*
X162414366Y-84006697D01*
X162473258Y-84226488D01*
X162473261Y-84226497D01*
X162569431Y-84432732D01*
X162569432Y-84432734D01*
X162699954Y-84619141D01*
X162860858Y-84780045D01*
X162860861Y-84780047D01*
X163047266Y-84910568D01*
X163105865Y-84937893D01*
X163158305Y-84984065D01*
X163177457Y-85051258D01*
X163157242Y-85118139D01*
X163105867Y-85162657D01*
X163047515Y-85189867D01*
X162861179Y-85320342D01*
X162700342Y-85481179D01*
X162569865Y-85667517D01*
X162473734Y-85873673D01*
X162473730Y-85873682D01*
X162421127Y-86069999D01*
X162421128Y-86070000D01*
X163384314Y-86070000D01*
X163379920Y-86074394D01*
X163327259Y-86165606D01*
X163300000Y-86267339D01*
X163300000Y-86372661D01*
X163327259Y-86474394D01*
X163379920Y-86565606D01*
X163384314Y-86570000D01*
X162421128Y-86570000D01*
X162473730Y-86766317D01*
X162473734Y-86766326D01*
X162569865Y-86972482D01*
X162700342Y-87158820D01*
X162861179Y-87319657D01*
X163047517Y-87450134D01*
X163253673Y-87546265D01*
X163253682Y-87546269D01*
X163449999Y-87598872D01*
X163450000Y-87598871D01*
X163450000Y-86635686D01*
X163454394Y-86640080D01*
X163545606Y-86692741D01*
X163647339Y-86720000D01*
X163752661Y-86720000D01*
X163854394Y-86692741D01*
X163945606Y-86640080D01*
X163950000Y-86635686D01*
X163950000Y-87598872D01*
X164146317Y-87546269D01*
X164146326Y-87546265D01*
X164352482Y-87450134D01*
X164538820Y-87319657D01*
X164699657Y-87158820D01*
X164830134Y-86972482D01*
X164926265Y-86766326D01*
X164926269Y-86766317D01*
X164978872Y-86570000D01*
X164015686Y-86570000D01*
X164020080Y-86565606D01*
X164072741Y-86474394D01*
X164100000Y-86372661D01*
X164100000Y-86267339D01*
X164072741Y-86165606D01*
X164020080Y-86074394D01*
X164015686Y-86070000D01*
X164978872Y-86070000D01*
X164978872Y-86069999D01*
X164926269Y-85873682D01*
X164926265Y-85873673D01*
X164830134Y-85667517D01*
X164699657Y-85481179D01*
X164538820Y-85320342D01*
X164352482Y-85189865D01*
X164294133Y-85162657D01*
X164241694Y-85116484D01*
X164222542Y-85049291D01*
X164242758Y-84982410D01*
X164294129Y-84937895D01*
X164352734Y-84910568D01*
X164539139Y-84780047D01*
X164700047Y-84619139D01*
X164830568Y-84432734D01*
X164926739Y-84226496D01*
X164985635Y-84006692D01*
X165005468Y-83780000D01*
X164985635Y-83553308D01*
X164926739Y-83333504D01*
X164830568Y-83127266D01*
X164700047Y-82940861D01*
X164700045Y-82940858D01*
X164539141Y-82779954D01*
X164352734Y-82649432D01*
X164352728Y-82649429D01*
X164294725Y-82622382D01*
X164242285Y-82576210D01*
X164223133Y-82509017D01*
X164243348Y-82442135D01*
X164294725Y-82397618D01*
X164352734Y-82370568D01*
X164539139Y-82240047D01*
X164700047Y-82079139D01*
X164830568Y-81892734D01*
X164926739Y-81686496D01*
X164985635Y-81466692D01*
X165005468Y-81240000D01*
X165005468Y-81239998D01*
X170014532Y-81239998D01*
X170014532Y-81240001D01*
X170034364Y-81466686D01*
X170034366Y-81466697D01*
X170093258Y-81686488D01*
X170093261Y-81686497D01*
X170189431Y-81892732D01*
X170189432Y-81892734D01*
X170319954Y-82079141D01*
X170480858Y-82240045D01*
X170527693Y-82272839D01*
X170667266Y-82370568D01*
X170725275Y-82397618D01*
X170777714Y-82443791D01*
X170796866Y-82510984D01*
X170776650Y-82577865D01*
X170725275Y-82622382D01*
X170667267Y-82649431D01*
X170667265Y-82649432D01*
X170480858Y-82779954D01*
X170319954Y-82940858D01*
X170189432Y-83127265D01*
X170189431Y-83127267D01*
X170093261Y-83333502D01*
X170093258Y-83333511D01*
X170034366Y-83553302D01*
X170034364Y-83553313D01*
X170014532Y-83779998D01*
X170014532Y-83780001D01*
X170034364Y-84006686D01*
X170034366Y-84006697D01*
X170093258Y-84226488D01*
X170093261Y-84226497D01*
X170189431Y-84432732D01*
X170189432Y-84432734D01*
X170319954Y-84619141D01*
X170480858Y-84780045D01*
X170480861Y-84780047D01*
X170667266Y-84910568D01*
X170725275Y-84937618D01*
X170777714Y-84983791D01*
X170796866Y-85050984D01*
X170776650Y-85117865D01*
X170725275Y-85162382D01*
X170667267Y-85189431D01*
X170667265Y-85189432D01*
X170480858Y-85319954D01*
X170319954Y-85480858D01*
X170189432Y-85667265D01*
X170189431Y-85667267D01*
X170093261Y-85873502D01*
X170093258Y-85873511D01*
X170034366Y-86093302D01*
X170034364Y-86093313D01*
X170014532Y-86319998D01*
X170014532Y-86320001D01*
X170034364Y-86546686D01*
X170034366Y-86546697D01*
X170093258Y-86766488D01*
X170093261Y-86766497D01*
X170189431Y-86972732D01*
X170189432Y-86972734D01*
X170319954Y-87159141D01*
X170480858Y-87320045D01*
X170512682Y-87342328D01*
X170667266Y-87450568D01*
X170873504Y-87546739D01*
X171093308Y-87605635D01*
X171255230Y-87619801D01*
X171319998Y-87625468D01*
X171320000Y-87625468D01*
X171320002Y-87625468D01*
X171376673Y-87620509D01*
X171546692Y-87605635D01*
X171766496Y-87546739D01*
X171972734Y-87450568D01*
X172159139Y-87320047D01*
X172320047Y-87159139D01*
X172431212Y-87000376D01*
X172485788Y-86956752D01*
X172532787Y-86947500D01*
X173570389Y-86947500D01*
X173637428Y-86967185D01*
X173683183Y-87019989D01*
X173694389Y-87071500D01*
X173694389Y-87147876D01*
X173700796Y-87207483D01*
X173751090Y-87342328D01*
X173751094Y-87342335D01*
X173837340Y-87457544D01*
X173837343Y-87457547D01*
X173952552Y-87543793D01*
X173952559Y-87543797D01*
X174087405Y-87594091D01*
X174087404Y-87594091D01*
X174094332Y-87594835D01*
X174147015Y-87600500D01*
X175442760Y-87600499D01*
X175502371Y-87594091D01*
X175637219Y-87543796D01*
X175752434Y-87457546D01*
X175838684Y-87342331D01*
X175838685Y-87342326D01*
X175842935Y-87334546D01*
X175845150Y-87335755D01*
X175879018Y-87290509D01*
X175944481Y-87266088D01*
X176012755Y-87280937D01*
X176036872Y-87298135D01*
X176128846Y-87381980D01*
X176128848Y-87381982D01*
X176202489Y-87427578D01*
X176302251Y-87489348D01*
X176492432Y-87563024D01*
X176692912Y-87600500D01*
X176692914Y-87600500D01*
X176896862Y-87600500D01*
X176896864Y-87600500D01*
X177097344Y-87563024D01*
X177287525Y-87489348D01*
X177460929Y-87381981D01*
X177611652Y-87244579D01*
X177734561Y-87081821D01*
X177825470Y-86899250D01*
X177881285Y-86703083D01*
X177900103Y-86500000D01*
X177881285Y-86296917D01*
X177825470Y-86100750D01*
X177821764Y-86093308D01*
X177775263Y-85999920D01*
X177734561Y-85918179D01*
X177611652Y-85755421D01*
X177611650Y-85755418D01*
X177460929Y-85618019D01*
X177460927Y-85618017D01*
X177287530Y-85510655D01*
X177287523Y-85510651D01*
X177159019Y-85460869D01*
X177097344Y-85436976D01*
X176896864Y-85399500D01*
X176692912Y-85399500D01*
X176492432Y-85436976D01*
X176492429Y-85436976D01*
X176492429Y-85436977D01*
X176302252Y-85510651D01*
X176302245Y-85510655D01*
X176128850Y-85618016D01*
X176036872Y-85701865D01*
X175974067Y-85732481D01*
X175904680Y-85724283D01*
X175850741Y-85679873D01*
X175843215Y-85665301D01*
X175842935Y-85665454D01*
X175838681Y-85657664D01*
X175752435Y-85542455D01*
X175752432Y-85542452D01*
X175637223Y-85456206D01*
X175637216Y-85456202D01*
X175502370Y-85405908D01*
X175502371Y-85405908D01*
X175442771Y-85399501D01*
X175442769Y-85399500D01*
X175442761Y-85399500D01*
X175442752Y-85399500D01*
X174147017Y-85399500D01*
X174147011Y-85399501D01*
X174087404Y-85405908D01*
X173952559Y-85456202D01*
X173952552Y-85456206D01*
X173837343Y-85542452D01*
X173837340Y-85542455D01*
X173762214Y-85642811D01*
X173706281Y-85684682D01*
X173662948Y-85692500D01*
X172532787Y-85692500D01*
X172465748Y-85672815D01*
X172431212Y-85639623D01*
X172409385Y-85608451D01*
X172320047Y-85480861D01*
X172320045Y-85480858D01*
X172159141Y-85319954D01*
X171972734Y-85189432D01*
X171972728Y-85189429D01*
X171914725Y-85162382D01*
X171862285Y-85116210D01*
X171843133Y-85049017D01*
X171863348Y-84982135D01*
X171914725Y-84937618D01*
X171972734Y-84910568D01*
X172159139Y-84780047D01*
X172320047Y-84619139D01*
X172431212Y-84460376D01*
X172485788Y-84416752D01*
X172532787Y-84407500D01*
X174281804Y-84407500D01*
X174281805Y-84407499D01*
X174403035Y-84383386D01*
X174483784Y-84349937D01*
X174517233Y-84336083D01*
X174620008Y-84267411D01*
X174707411Y-84180008D01*
X175282299Y-83605120D01*
X175350971Y-83502345D01*
X175398273Y-83388147D01*
X175422388Y-83266916D01*
X175422388Y-83143309D01*
X175422388Y-82424499D01*
X175442073Y-82357460D01*
X175494877Y-82311705D01*
X175546388Y-82300499D01*
X175642759Y-82300499D01*
X175642760Y-82300499D01*
X175702371Y-82294091D01*
X175837219Y-82243796D01*
X175952434Y-82157546D01*
X176038684Y-82042331D01*
X176088979Y-81907483D01*
X176088980Y-81907472D01*
X176090253Y-81902088D01*
X176124821Y-81841369D01*
X176186729Y-81808978D01*
X176256321Y-81815199D01*
X176298613Y-81842912D01*
X176455746Y-82000045D01*
X176455749Y-82000047D01*
X176642154Y-82130568D01*
X176848392Y-82226739D01*
X177068196Y-82285635D01*
X177230118Y-82299801D01*
X177294886Y-82305468D01*
X177294888Y-82305468D01*
X177294890Y-82305468D01*
X177351695Y-82300498D01*
X177521580Y-82285635D01*
X177741384Y-82226739D01*
X177947622Y-82130568D01*
X178134027Y-82000047D01*
X178294935Y-81839139D01*
X178425456Y-81652734D01*
X178521627Y-81446496D01*
X178580523Y-81226692D01*
X178600356Y-81000000D01*
X178580523Y-80773308D01*
X178530630Y-80587102D01*
X178521629Y-80553511D01*
X178521626Y-80553502D01*
X178450448Y-80400861D01*
X178425456Y-80347266D01*
X178300038Y-80168149D01*
X178294933Y-80160858D01*
X178134029Y-79999954D01*
X177947622Y-79869432D01*
X177947620Y-79869431D01*
X177741385Y-79773261D01*
X177741376Y-79773258D01*
X177521585Y-79714366D01*
X177521581Y-79714365D01*
X177521580Y-79714365D01*
X177521579Y-79714364D01*
X177521574Y-79714364D01*
X177294890Y-79694532D01*
X177294886Y-79694532D01*
X177068201Y-79714364D01*
X177068190Y-79714366D01*
X176848399Y-79773258D01*
X176848390Y-79773261D01*
X176642155Y-79869431D01*
X176642153Y-79869432D01*
X176455750Y-79999951D01*
X176298614Y-80157087D01*
X176237291Y-80190571D01*
X176167599Y-80185587D01*
X176111666Y-80143715D01*
X176090257Y-80097923D01*
X176088979Y-80092518D01*
X176038685Y-79957671D01*
X176038681Y-79957664D01*
X175952435Y-79842455D01*
X175952432Y-79842452D01*
X175837223Y-79756206D01*
X175837216Y-79756202D01*
X175702370Y-79705908D01*
X175702371Y-79705908D01*
X175642771Y-79699501D01*
X175642769Y-79699500D01*
X175642761Y-79699500D01*
X175642753Y-79699500D01*
X175546388Y-79699500D01*
X175479349Y-79679815D01*
X175433594Y-79627011D01*
X175422388Y-79575500D01*
X175422388Y-77596392D01*
X175442073Y-77529353D01*
X175458703Y-77508715D01*
X176172490Y-76794927D01*
X176233811Y-76761444D01*
X176282952Y-76760721D01*
X176388757Y-76780500D01*
X176388760Y-76780500D01*
X176611241Y-76780500D01*
X176611243Y-76780500D01*
X176829940Y-76739618D01*
X177037401Y-76659247D01*
X177226562Y-76542124D01*
X177390981Y-76392236D01*
X177525058Y-76214689D01*
X177624229Y-76015528D01*
X177685115Y-75801536D01*
X177705643Y-75580000D01*
X177701386Y-75534064D01*
X177685115Y-75358464D01*
X177685114Y-75358462D01*
X177684835Y-75357483D01*
X177624229Y-75144472D01*
X177623163Y-75142331D01*
X177525061Y-74945316D01*
X177525056Y-74945308D01*
X177390979Y-74767761D01*
X177226562Y-74617876D01*
X177226560Y-74617874D01*
X177037404Y-74500754D01*
X177037398Y-74500752D01*
X177036745Y-74500499D01*
X176829940Y-74420382D01*
X176611243Y-74379500D01*
X176388757Y-74379500D01*
X176170060Y-74420382D01*
X176077345Y-74456300D01*
X175962601Y-74500752D01*
X175962595Y-74500754D01*
X175773439Y-74617874D01*
X175773437Y-74617876D01*
X175609020Y-74767761D01*
X175474943Y-74945308D01*
X175474938Y-74945316D01*
X175375775Y-75144461D01*
X175375769Y-75144476D01*
X175314885Y-75358462D01*
X175314884Y-75358464D01*
X175294357Y-75579999D01*
X175294357Y-75580000D01*
X175315414Y-75807244D01*
X175314276Y-75807349D01*
X175307831Y-75870984D01*
X175280661Y-75911918D01*
X174613761Y-76578820D01*
X174394880Y-76797701D01*
X174307477Y-76885104D01*
X174252931Y-76966739D01*
X174238804Y-76987881D01*
X174224949Y-77021326D01*
X174224950Y-77021327D01*
X174191503Y-77102074D01*
X174191500Y-77102084D01*
X174182082Y-77149433D01*
X174167388Y-77223304D01*
X174167388Y-79575500D01*
X174147703Y-79642539D01*
X174094899Y-79688294D01*
X174043389Y-79699500D01*
X173947018Y-79699500D01*
X173947011Y-79699501D01*
X173887404Y-79705908D01*
X173752559Y-79756202D01*
X173752552Y-79756206D01*
X173637343Y-79842452D01*
X173637340Y-79842455D01*
X173551094Y-79957664D01*
X173551090Y-79957671D01*
X173500796Y-80092517D01*
X173494389Y-80152116D01*
X173494388Y-80152135D01*
X173494388Y-80488500D01*
X173474703Y-80555539D01*
X173421899Y-80601294D01*
X173370388Y-80612500D01*
X172532787Y-80612500D01*
X172465748Y-80592815D01*
X172431212Y-80559623D01*
X172428352Y-80555539D01*
X172320047Y-80400861D01*
X172320045Y-80400858D01*
X172159141Y-80239954D01*
X171972734Y-80109432D01*
X171972732Y-80109431D01*
X171936460Y-80092517D01*
X171914132Y-80082105D01*
X171861694Y-80035934D01*
X171842542Y-79968740D01*
X171862758Y-79901859D01*
X171914134Y-79857341D01*
X171972484Y-79830132D01*
X172158820Y-79699657D01*
X172319657Y-79538820D01*
X172450134Y-79352482D01*
X172546265Y-79146326D01*
X172546269Y-79146317D01*
X172598872Y-78950000D01*
X171635686Y-78950000D01*
X171640080Y-78945606D01*
X171692741Y-78854394D01*
X171720000Y-78752661D01*
X171720000Y-78647339D01*
X171692741Y-78545606D01*
X171640080Y-78454394D01*
X171635686Y-78450000D01*
X172598872Y-78450000D01*
X172598872Y-78449999D01*
X172546269Y-78253682D01*
X172546265Y-78253673D01*
X172450134Y-78047517D01*
X172319657Y-77861179D01*
X172158820Y-77700342D01*
X171972482Y-77569865D01*
X171766328Y-77473734D01*
X171570000Y-77421127D01*
X171570000Y-78384314D01*
X171565606Y-78379920D01*
X171474394Y-78327259D01*
X171372661Y-78300000D01*
X171267339Y-78300000D01*
X171165606Y-78327259D01*
X171074394Y-78379920D01*
X171070000Y-78384314D01*
X171070000Y-77421127D01*
X170873671Y-77473734D01*
X170667517Y-77569865D01*
X170481179Y-77700342D01*
X170320342Y-77861179D01*
X170189865Y-78047517D01*
X170093734Y-78253673D01*
X170093730Y-78253682D01*
X170041127Y-78449999D01*
X170041128Y-78450000D01*
X171004314Y-78450000D01*
X170999920Y-78454394D01*
X170947259Y-78545606D01*
X170920000Y-78647339D01*
X170920000Y-78752661D01*
X170947259Y-78854394D01*
X170999920Y-78945606D01*
X171004314Y-78950000D01*
X170041128Y-78950000D01*
X170093730Y-79146317D01*
X170093734Y-79146326D01*
X170189865Y-79352482D01*
X170320342Y-79538820D01*
X170481179Y-79699657D01*
X170667518Y-79830134D01*
X170667520Y-79830135D01*
X170725865Y-79857342D01*
X170778305Y-79903514D01*
X170797457Y-79970707D01*
X170777242Y-80037589D01*
X170725867Y-80082105D01*
X170703538Y-80092518D01*
X170667264Y-80109433D01*
X170480858Y-80239954D01*
X170319954Y-80400858D01*
X170189432Y-80587265D01*
X170189431Y-80587267D01*
X170093261Y-80793502D01*
X170093258Y-80793511D01*
X170034366Y-81013302D01*
X170034364Y-81013313D01*
X170014532Y-81239998D01*
X165005468Y-81239998D01*
X164985635Y-81013308D01*
X164926739Y-80793504D01*
X164830568Y-80587266D01*
X164700047Y-80400861D01*
X164700045Y-80400858D01*
X164539143Y-80239956D01*
X164514536Y-80222726D01*
X164470912Y-80168149D01*
X164463719Y-80098650D01*
X164495241Y-80036296D01*
X164555471Y-80000882D01*
X164572404Y-79997861D01*
X164607483Y-79994091D01*
X164742331Y-79943796D01*
X164857546Y-79857546D01*
X164943796Y-79742331D01*
X164994091Y-79607483D01*
X165000500Y-79547873D01*
X165000499Y-77852128D01*
X164994091Y-77792517D01*
X164943796Y-77657669D01*
X164943795Y-77657668D01*
X164943793Y-77657664D01*
X164857547Y-77542455D01*
X164857544Y-77542452D01*
X164742335Y-77456206D01*
X164742328Y-77456202D01*
X164607482Y-77405908D01*
X164607483Y-77405908D01*
X164547883Y-77399501D01*
X164547881Y-77399500D01*
X164547873Y-77399500D01*
X164547864Y-77399500D01*
X162852129Y-77399500D01*
X162852123Y-77399501D01*
X162792516Y-77405908D01*
X162657671Y-77456202D01*
X162657664Y-77456206D01*
X162542455Y-77542452D01*
X162542452Y-77542455D01*
X162456206Y-77657664D01*
X162456202Y-77657671D01*
X162405908Y-77792517D01*
X162399501Y-77852116D01*
X162399501Y-77852123D01*
X162399500Y-77852135D01*
X162399500Y-79547870D01*
X162399501Y-79547876D01*
X162405909Y-79607484D01*
X162427423Y-79665168D01*
X162432407Y-79734859D01*
X162398921Y-79796182D01*
X162337598Y-79829667D01*
X162311241Y-79832500D01*
X161092232Y-79832500D01*
X161025193Y-79812815D01*
X160993278Y-79783227D01*
X160890979Y-79647761D01*
X160726562Y-79497876D01*
X160726560Y-79497874D01*
X160537404Y-79380754D01*
X160537398Y-79380752D01*
X160329940Y-79300382D01*
X160111243Y-79259500D01*
X159888757Y-79259500D01*
X159670060Y-79300382D01*
X159553324Y-79345606D01*
X159462601Y-79380752D01*
X159462595Y-79380754D01*
X159273439Y-79497874D01*
X159273437Y-79497876D01*
X159109020Y-79647761D01*
X159006722Y-79783227D01*
X158950613Y-79824863D01*
X158907768Y-79832500D01*
X157587022Y-79832500D01*
X157519983Y-79812815D01*
X157474228Y-79760011D01*
X157464284Y-79690853D01*
X157493309Y-79627297D01*
X157542228Y-79592873D01*
X157577401Y-79579247D01*
X157766562Y-79462124D01*
X157930981Y-79312236D01*
X158065058Y-79134689D01*
X158164229Y-78935528D01*
X158225115Y-78721536D01*
X158245643Y-78500000D01*
X158225115Y-78278464D01*
X158164229Y-78064472D01*
X158164224Y-78064461D01*
X158065061Y-77865316D01*
X158065056Y-77865308D01*
X157930979Y-77687761D01*
X157766562Y-77537876D01*
X157766560Y-77537874D01*
X157577404Y-77420754D01*
X157577398Y-77420752D01*
X157369940Y-77340382D01*
X157151243Y-77299500D01*
X156928757Y-77299500D01*
X156710060Y-77340382D01*
X156578864Y-77391207D01*
X156502601Y-77420752D01*
X156502595Y-77420754D01*
X156313439Y-77537874D01*
X156313437Y-77537876D01*
X156149020Y-77687761D01*
X156014943Y-77865308D01*
X156014938Y-77865316D01*
X155915775Y-78064461D01*
X155915769Y-78064476D01*
X155854885Y-78278462D01*
X155854884Y-78278464D01*
X155834357Y-78499999D01*
X155834357Y-78500000D01*
X155855414Y-78727244D01*
X155854275Y-78727349D01*
X155847832Y-78790979D01*
X155820661Y-78831917D01*
X154383434Y-80269147D01*
X154099992Y-80552589D01*
X154067871Y-80584710D01*
X154012587Y-80639993D01*
X153943920Y-80742760D01*
X153943913Y-80742772D01*
X153937925Y-80757232D01*
X153937924Y-80757235D01*
X153912228Y-80819267D01*
X153868386Y-80873670D01*
X153802091Y-80895733D01*
X153734392Y-80878452D01*
X153728779Y-80874915D01*
X153715756Y-80866214D01*
X153529127Y-80788909D01*
X153529119Y-80788907D01*
X153331007Y-80749500D01*
X153331003Y-80749500D01*
X153128997Y-80749500D01*
X153128992Y-80749500D01*
X152930880Y-80788907D01*
X152930872Y-80788909D01*
X152744247Y-80866212D01*
X152744237Y-80866217D01*
X152576281Y-80978441D01*
X152433441Y-81121281D01*
X152321217Y-81289237D01*
X152321212Y-81289247D01*
X152243909Y-81475872D01*
X152243907Y-81475880D01*
X152204500Y-81673992D01*
X152204500Y-82326007D01*
X152243907Y-82524119D01*
X152243909Y-82524127D01*
X152321212Y-82710752D01*
X152321217Y-82710762D01*
X152433441Y-82878718D01*
X152576281Y-83021558D01*
X152744237Y-83133782D01*
X152744244Y-83133786D01*
X152776826Y-83147282D01*
X152831229Y-83191122D01*
X152853295Y-83257416D01*
X152836016Y-83325115D01*
X152817055Y-83349524D01*
X151830502Y-84336079D01*
X151559992Y-84606589D01*
X151516289Y-84650292D01*
X151472586Y-84693994D01*
X151472585Y-84693996D01*
X151403233Y-84797789D01*
X151401586Y-84802393D01*
X151356615Y-84910962D01*
X151356612Y-84910972D01*
X151343983Y-84974465D01*
X151332500Y-85032192D01*
X151332500Y-85407471D01*
X151312815Y-85474510D01*
X151273779Y-85512897D01*
X151233438Y-85537875D01*
X151233437Y-85537876D01*
X151069020Y-85687761D01*
X150934943Y-85865308D01*
X150934938Y-85865316D01*
X150835775Y-86064461D01*
X150835769Y-86064476D01*
X150774885Y-86278462D01*
X150774884Y-86278464D01*
X150754357Y-86499999D01*
X137164150Y-86499999D01*
X137136276Y-86395970D01*
X137046021Y-86202419D01*
X136923529Y-86027481D01*
X136923527Y-86027478D01*
X136772521Y-85876472D01*
X136597578Y-85753977D01*
X136597579Y-85753977D01*
X136465740Y-85692500D01*
X136404030Y-85663724D01*
X136404026Y-85663723D01*
X136404022Y-85663721D01*
X136197752Y-85608452D01*
X136197748Y-85608451D01*
X136197747Y-85608451D01*
X136197746Y-85608450D01*
X136197741Y-85608450D01*
X135985002Y-85589838D01*
X135984998Y-85589838D01*
X135772258Y-85608450D01*
X135772247Y-85608452D01*
X135565977Y-85663721D01*
X135565968Y-85663725D01*
X135372421Y-85753977D01*
X135197478Y-85876472D01*
X135046472Y-86027478D01*
X134923977Y-86202421D01*
X134833725Y-86395968D01*
X134833721Y-86395977D01*
X134778452Y-86602247D01*
X134778450Y-86602258D01*
X134759838Y-86814998D01*
X126000500Y-86814998D01*
X126000500Y-84274998D01*
X132219838Y-84274998D01*
X132219838Y-84275001D01*
X132238450Y-84487741D01*
X132238452Y-84487752D01*
X132293721Y-84694022D01*
X132293723Y-84694026D01*
X132293724Y-84694030D01*
X132333834Y-84780045D01*
X132383977Y-84887578D01*
X132506472Y-85062521D01*
X132657478Y-85213527D01*
X132657481Y-85213529D01*
X132832419Y-85336021D01*
X132832421Y-85336022D01*
X132832420Y-85336022D01*
X132870801Y-85353919D01*
X133025970Y-85426276D01*
X133232253Y-85481549D01*
X133373677Y-85493922D01*
X133444998Y-85500162D01*
X133445000Y-85500162D01*
X133445002Y-85500162D01*
X133516323Y-85493922D01*
X133657747Y-85481549D01*
X133864030Y-85426276D01*
X134057581Y-85336021D01*
X134232519Y-85213529D01*
X134383529Y-85062519D01*
X134506021Y-84887581D01*
X134596276Y-84694030D01*
X134651549Y-84487747D01*
X134670162Y-84275000D01*
X134651549Y-84062253D01*
X134596276Y-83855970D01*
X134506021Y-83662419D01*
X134383529Y-83487481D01*
X134383527Y-83487478D01*
X134232521Y-83336472D01*
X134077852Y-83228173D01*
X134057581Y-83213979D01*
X134057580Y-83213978D01*
X134057578Y-83213977D01*
X134057579Y-83213977D01*
X133914548Y-83147281D01*
X133864030Y-83123724D01*
X133864026Y-83123723D01*
X133864022Y-83123721D01*
X133657752Y-83068452D01*
X133657748Y-83068451D01*
X133657747Y-83068451D01*
X133657746Y-83068450D01*
X133657741Y-83068450D01*
X133445002Y-83049838D01*
X133444998Y-83049838D01*
X133232258Y-83068450D01*
X133232247Y-83068452D01*
X133025977Y-83123721D01*
X133025968Y-83123725D01*
X132832421Y-83213977D01*
X132657478Y-83336472D01*
X132506472Y-83487478D01*
X132383977Y-83662421D01*
X132293725Y-83855968D01*
X132293721Y-83855977D01*
X132238452Y-84062247D01*
X132238450Y-84062258D01*
X132219838Y-84274998D01*
X126000500Y-84274998D01*
X126000500Y-79499999D01*
X132545225Y-79499999D01*
X132545225Y-79500000D01*
X132564287Y-79717884D01*
X132564289Y-79717894D01*
X132620894Y-79929150D01*
X132620898Y-79929159D01*
X132713333Y-80127387D01*
X132756874Y-80189571D01*
X133400000Y-79546445D01*
X133400000Y-79552661D01*
X133427259Y-79654394D01*
X133479920Y-79745606D01*
X133554394Y-79820080D01*
X133645606Y-79872741D01*
X133747339Y-79900000D01*
X133753553Y-79900000D01*
X133110427Y-80543124D01*
X133172612Y-80586666D01*
X133370840Y-80679101D01*
X133370849Y-80679105D01*
X133582105Y-80735710D01*
X133582115Y-80735712D01*
X133799999Y-80754775D01*
X133800001Y-80754775D01*
X134017884Y-80735712D01*
X134017894Y-80735710D01*
X134229150Y-80679105D01*
X134229164Y-80679100D01*
X134427383Y-80586669D01*
X134427385Y-80586668D01*
X134489571Y-80543124D01*
X133846448Y-79900000D01*
X133852661Y-79900000D01*
X133954394Y-79872741D01*
X134045606Y-79820080D01*
X134120080Y-79745606D01*
X134172741Y-79654394D01*
X134200000Y-79552661D01*
X134200000Y-79546446D01*
X134843124Y-80189570D01*
X134886668Y-80127385D01*
X134886669Y-80127383D01*
X134979100Y-79929164D01*
X134979105Y-79929150D01*
X135035710Y-79717894D01*
X135035712Y-79717884D01*
X135054775Y-79500000D01*
X135054775Y-79499999D01*
X135054775Y-79499997D01*
X135944723Y-79499997D01*
X135944723Y-79500002D01*
X135947294Y-79529387D01*
X135963526Y-79714929D01*
X135963793Y-79717975D01*
X135963793Y-79717979D01*
X136020422Y-79929322D01*
X136020424Y-79929326D01*
X136020425Y-79929330D01*
X136050624Y-79994091D01*
X136112897Y-80127638D01*
X136126584Y-80147185D01*
X136238402Y-80306877D01*
X136393123Y-80461598D01*
X136519625Y-80550176D01*
X136563248Y-80604751D01*
X136572500Y-80651749D01*
X136572500Y-83011807D01*
X136596612Y-83133028D01*
X136596614Y-83133035D01*
X136621783Y-83193796D01*
X136632982Y-83220834D01*
X136642615Y-83244091D01*
X136643917Y-83247233D01*
X136646100Y-83250500D01*
X136657068Y-83266915D01*
X136657070Y-83266917D01*
X136712590Y-83350010D01*
X136712591Y-83350011D01*
X137290309Y-83927728D01*
X137323794Y-83989051D01*
X137322404Y-84047499D01*
X137318452Y-84062248D01*
X137318450Y-84062258D01*
X137299838Y-84274998D01*
X137299838Y-84275001D01*
X137318450Y-84487741D01*
X137318452Y-84487752D01*
X137373721Y-84694022D01*
X137373723Y-84694026D01*
X137373724Y-84694030D01*
X137413834Y-84780045D01*
X137463977Y-84887578D01*
X137586472Y-85062521D01*
X137737478Y-85213527D01*
X137737481Y-85213529D01*
X137912419Y-85336021D01*
X137912421Y-85336022D01*
X137912420Y-85336022D01*
X137950801Y-85353919D01*
X138105970Y-85426276D01*
X138312253Y-85481549D01*
X138453677Y-85493922D01*
X138524998Y-85500162D01*
X138525000Y-85500162D01*
X138525002Y-85500162D01*
X138596323Y-85493922D01*
X138737747Y-85481549D01*
X138944030Y-85426276D01*
X139137581Y-85336021D01*
X139312519Y-85213529D01*
X139463529Y-85062519D01*
X139586021Y-84887581D01*
X139676276Y-84694030D01*
X139731549Y-84487747D01*
X139750162Y-84275000D01*
X139731549Y-84062253D01*
X139676276Y-83855970D01*
X139586021Y-83662419D01*
X139463529Y-83487481D01*
X139463527Y-83487478D01*
X139312521Y-83336472D01*
X139157852Y-83228173D01*
X139137581Y-83213979D01*
X139137580Y-83213978D01*
X139137578Y-83213977D01*
X139137579Y-83213977D01*
X138994548Y-83147281D01*
X138944030Y-83123724D01*
X138944026Y-83123723D01*
X138944022Y-83123721D01*
X138737752Y-83068452D01*
X138737748Y-83068451D01*
X138737747Y-83068451D01*
X138737746Y-83068450D01*
X138737741Y-83068450D01*
X138525002Y-83049838D01*
X138524998Y-83049838D01*
X138312258Y-83068450D01*
X138312248Y-83068452D01*
X138297499Y-83072404D01*
X138227649Y-83070739D01*
X138177728Y-83040309D01*
X137863819Y-82726400D01*
X137830334Y-82665077D01*
X137827500Y-82638719D01*
X137827500Y-80651749D01*
X137847185Y-80584710D01*
X137880372Y-80550177D01*
X138006877Y-80461598D01*
X138161598Y-80306877D01*
X138250176Y-80180374D01*
X138304751Y-80136752D01*
X138351749Y-80127500D01*
X140393334Y-80127500D01*
X140460373Y-80147185D01*
X140506128Y-80199989D01*
X140516072Y-80269147D01*
X140505716Y-80303905D01*
X140473261Y-80373502D01*
X140473258Y-80373511D01*
X140414366Y-80593302D01*
X140414364Y-80593313D01*
X140394532Y-80819998D01*
X140394532Y-80820001D01*
X140414364Y-81046686D01*
X140414366Y-81046697D01*
X140473258Y-81266488D01*
X140473261Y-81266497D01*
X140569431Y-81472732D01*
X140569432Y-81472734D01*
X140699954Y-81659141D01*
X140860858Y-81820045D01*
X140860861Y-81820047D01*
X141047266Y-81950568D01*
X141253504Y-82046739D01*
X141473308Y-82105635D01*
X141635230Y-82119801D01*
X141699998Y-82125468D01*
X141700000Y-82125468D01*
X141700002Y-82125468D01*
X141756673Y-82120509D01*
X141926692Y-82105635D01*
X142146496Y-82046739D01*
X142352734Y-81950568D01*
X142539139Y-81820047D01*
X142700047Y-81659139D01*
X142830568Y-81472734D01*
X142926739Y-81266496D01*
X142985635Y-81046692D01*
X143005468Y-80820000D01*
X142985635Y-80593308D01*
X142934069Y-80400861D01*
X142926741Y-80373511D01*
X142926738Y-80373502D01*
X142864463Y-80239954D01*
X142830568Y-80167266D01*
X142700047Y-79980861D01*
X142700045Y-79980858D01*
X142539141Y-79819954D01*
X142352734Y-79689432D01*
X142352728Y-79689429D01*
X142294725Y-79662382D01*
X142242285Y-79616210D01*
X142223133Y-79549017D01*
X142243348Y-79482135D01*
X142294725Y-79437618D01*
X142352734Y-79410568D01*
X142539139Y-79280047D01*
X142700047Y-79119139D01*
X142830568Y-78932734D01*
X142926739Y-78726496D01*
X142985635Y-78506692D01*
X143005468Y-78280000D01*
X143005333Y-78278462D01*
X142992906Y-78136421D01*
X142985635Y-78053308D01*
X142935261Y-77865308D01*
X142926741Y-77833511D01*
X142926738Y-77833502D01*
X142844743Y-77657664D01*
X142830568Y-77627266D01*
X142700047Y-77440861D01*
X142700045Y-77440858D01*
X142539141Y-77279954D01*
X142352734Y-77149432D01*
X142352728Y-77149429D01*
X142294725Y-77122382D01*
X142242285Y-77076210D01*
X142223133Y-77009017D01*
X142243348Y-76942135D01*
X142294725Y-76897618D01*
X142295319Y-76897341D01*
X142352734Y-76870568D01*
X142539139Y-76740047D01*
X142700047Y-76579139D01*
X142830568Y-76392734D01*
X142926739Y-76186496D01*
X142985635Y-75966692D01*
X143004549Y-75750500D01*
X143005468Y-75740001D01*
X143005468Y-75739998D01*
X142997651Y-75650652D01*
X142985635Y-75513308D01*
X142939198Y-75340000D01*
X142926741Y-75293511D01*
X142926738Y-75293502D01*
X142909970Y-75257544D01*
X142830568Y-75087266D01*
X142700047Y-74900861D01*
X142700045Y-74900858D01*
X142539143Y-74739956D01*
X142539137Y-74739952D01*
X142514535Y-74722725D01*
X142470912Y-74668149D01*
X142463719Y-74598650D01*
X142495241Y-74536296D01*
X142555471Y-74500882D01*
X142572404Y-74497861D01*
X142607483Y-74494091D01*
X142742331Y-74443796D01*
X142857546Y-74357546D01*
X142943796Y-74242331D01*
X142994091Y-74107483D01*
X143000500Y-74047873D01*
X143000499Y-73199998D01*
X148014532Y-73199998D01*
X148014532Y-73200000D01*
X148034364Y-73426686D01*
X148034366Y-73426697D01*
X148093258Y-73646488D01*
X148093261Y-73646497D01*
X148189431Y-73852732D01*
X148189432Y-73852734D01*
X148319954Y-74039141D01*
X148480858Y-74200045D01*
X148480861Y-74200047D01*
X148667266Y-74330568D01*
X148725865Y-74357893D01*
X148778305Y-74404065D01*
X148797457Y-74471258D01*
X148777242Y-74538139D01*
X148725867Y-74582657D01*
X148667515Y-74609867D01*
X148481179Y-74740342D01*
X148320342Y-74901179D01*
X148189865Y-75087517D01*
X148093734Y-75293673D01*
X148093730Y-75293682D01*
X148041127Y-75489999D01*
X148041128Y-75490000D01*
X149004314Y-75490000D01*
X148999920Y-75494394D01*
X148947259Y-75585606D01*
X148920000Y-75687339D01*
X148920000Y-75792661D01*
X148947259Y-75894394D01*
X148999920Y-75985606D01*
X149004314Y-75990000D01*
X148041128Y-75990000D01*
X148093730Y-76186317D01*
X148093734Y-76186326D01*
X148189865Y-76392482D01*
X148320342Y-76578820D01*
X148481179Y-76739657D01*
X148667518Y-76870134D01*
X148667520Y-76870135D01*
X148725865Y-76897342D01*
X148778305Y-76943514D01*
X148797457Y-77010707D01*
X148777242Y-77077589D01*
X148725867Y-77122105D01*
X148667268Y-77149431D01*
X148667264Y-77149433D01*
X148480858Y-77279954D01*
X148319954Y-77440858D01*
X148189432Y-77627265D01*
X148189431Y-77627267D01*
X148093261Y-77833502D01*
X148093258Y-77833511D01*
X148034366Y-78053302D01*
X148034364Y-78053313D01*
X148014532Y-78279998D01*
X148014532Y-78280001D01*
X148034364Y-78506686D01*
X148034366Y-78506697D01*
X148093258Y-78726488D01*
X148093261Y-78726497D01*
X148189431Y-78932732D01*
X148189432Y-78932734D01*
X148319954Y-79119141D01*
X148480858Y-79280045D01*
X148480861Y-79280047D01*
X148667266Y-79410568D01*
X148725275Y-79437618D01*
X148777714Y-79483791D01*
X148796866Y-79550984D01*
X148776650Y-79617865D01*
X148725275Y-79662382D01*
X148667267Y-79689431D01*
X148667265Y-79689432D01*
X148480858Y-79819954D01*
X148319954Y-79980858D01*
X148189432Y-80167265D01*
X148189431Y-80167267D01*
X148093261Y-80373502D01*
X148093258Y-80373511D01*
X148034366Y-80593302D01*
X148034364Y-80593313D01*
X148014532Y-80819998D01*
X148014532Y-80820001D01*
X148034364Y-81046686D01*
X148034366Y-81046697D01*
X148093258Y-81266488D01*
X148093261Y-81266497D01*
X148189431Y-81472732D01*
X148189432Y-81472734D01*
X148319954Y-81659141D01*
X148480858Y-81820045D01*
X148480861Y-81820047D01*
X148667266Y-81950568D01*
X148873504Y-82046739D01*
X149093308Y-82105635D01*
X149255230Y-82119801D01*
X149319998Y-82125468D01*
X149320000Y-82125468D01*
X149320002Y-82125468D01*
X149376673Y-82120509D01*
X149546692Y-82105635D01*
X149766496Y-82046739D01*
X149972734Y-81950568D01*
X150159139Y-81820047D01*
X150320047Y-81659139D01*
X150450568Y-81472734D01*
X150546739Y-81266496D01*
X150605635Y-81046692D01*
X150625468Y-80820000D01*
X150605635Y-80593308D01*
X150554069Y-80400861D01*
X150546741Y-80373511D01*
X150546738Y-80373502D01*
X150484463Y-80239954D01*
X150450568Y-80167266D01*
X150320047Y-79980861D01*
X150320045Y-79980858D01*
X150159141Y-79819954D01*
X149972734Y-79689432D01*
X149972728Y-79689429D01*
X149914725Y-79662382D01*
X149862285Y-79616210D01*
X149843133Y-79549017D01*
X149863348Y-79482135D01*
X149914725Y-79437618D01*
X149972734Y-79410568D01*
X150159139Y-79280047D01*
X150320047Y-79119139D01*
X150431212Y-78960376D01*
X150485788Y-78916752D01*
X150532787Y-78907500D01*
X150745038Y-78907500D01*
X150812077Y-78927185D01*
X150856038Y-78976229D01*
X150934936Y-79134679D01*
X150934943Y-79134691D01*
X151069020Y-79312238D01*
X151233437Y-79462123D01*
X151233439Y-79462125D01*
X151422595Y-79579245D01*
X151422596Y-79579245D01*
X151422599Y-79579247D01*
X151630060Y-79659618D01*
X151848757Y-79700500D01*
X151848759Y-79700500D01*
X152071241Y-79700500D01*
X152071243Y-79700500D01*
X152289940Y-79659618D01*
X152497401Y-79579247D01*
X152686562Y-79462124D01*
X152850981Y-79312236D01*
X152985058Y-79134689D01*
X153084229Y-78935528D01*
X153145115Y-78721536D01*
X153165643Y-78500000D01*
X153145115Y-78278464D01*
X153112887Y-78165198D01*
X153110537Y-78107076D01*
X153127500Y-78021803D01*
X153127500Y-77898197D01*
X153127500Y-75524499D01*
X153147185Y-75457460D01*
X153199989Y-75411705D01*
X153251500Y-75400499D01*
X153447871Y-75400499D01*
X153447872Y-75400499D01*
X153507483Y-75394091D01*
X153642331Y-75343796D01*
X153757546Y-75257546D01*
X153843796Y-75142331D01*
X153843798Y-75142326D01*
X153872455Y-75065493D01*
X153914326Y-75009559D01*
X153979790Y-74985141D01*
X154048063Y-74999992D01*
X154079866Y-75024843D01*
X154087302Y-75032920D01*
X154088215Y-75033912D01*
X154088222Y-75033918D01*
X154271365Y-75176464D01*
X154271371Y-75176468D01*
X154271374Y-75176470D01*
X154475497Y-75286936D01*
X154589487Y-75326068D01*
X154695015Y-75362297D01*
X154695017Y-75362297D01*
X154695019Y-75362298D01*
X154923951Y-75400500D01*
X154923952Y-75400500D01*
X155156048Y-75400500D01*
X155156049Y-75400500D01*
X155384981Y-75362298D01*
X155604503Y-75286936D01*
X155808626Y-75176470D01*
X155991784Y-75033913D01*
X156148979Y-74863153D01*
X156275924Y-74668849D01*
X156369157Y-74456300D01*
X156426134Y-74231305D01*
X156428724Y-74200047D01*
X156445300Y-74000006D01*
X156445300Y-73999993D01*
X156426135Y-73768702D01*
X156426134Y-73768699D01*
X156426134Y-73768695D01*
X156409278Y-73702135D01*
X157974500Y-73702135D01*
X157974500Y-75297870D01*
X157974501Y-75297876D01*
X157980908Y-75357483D01*
X158031202Y-75492328D01*
X158031206Y-75492335D01*
X158117452Y-75607544D01*
X158117455Y-75607547D01*
X158232664Y-75693793D01*
X158232671Y-75693797D01*
X158367517Y-75744091D01*
X158367516Y-75744091D01*
X158374444Y-75744835D01*
X158427127Y-75750500D01*
X159572872Y-75750499D01*
X159632483Y-75744091D01*
X159767331Y-75693796D01*
X159768430Y-75692972D01*
X159769717Y-75692492D01*
X159775112Y-75689547D01*
X159775535Y-75690322D01*
X159833887Y-75668552D01*
X159890198Y-75677673D01*
X159970873Y-75711091D01*
X160116210Y-75740000D01*
X160168992Y-75750499D01*
X160168996Y-75750500D01*
X160168997Y-75750500D01*
X160371004Y-75750500D01*
X160371005Y-75750499D01*
X160569127Y-75711091D01*
X160755756Y-75633786D01*
X160836110Y-75580094D01*
X160902786Y-75559217D01*
X160970166Y-75577701D01*
X160973865Y-75580078D01*
X161054244Y-75633786D01*
X161240873Y-75711091D01*
X161386210Y-75740000D01*
X161438992Y-75750499D01*
X161438996Y-75750500D01*
X161438997Y-75750500D01*
X161641004Y-75750500D01*
X161641005Y-75750499D01*
X161839127Y-75711091D01*
X162025756Y-75633786D01*
X162193718Y-75521558D01*
X162336558Y-75378718D01*
X162448786Y-75210756D01*
X162526091Y-75024127D01*
X162565500Y-74826003D01*
X162565500Y-74173997D01*
X162526091Y-73975873D01*
X162448786Y-73789244D01*
X162448784Y-73789241D01*
X162448782Y-73789237D01*
X162336558Y-73621281D01*
X162193718Y-73478441D01*
X162025762Y-73366217D01*
X162025752Y-73366212D01*
X161839127Y-73288909D01*
X161839119Y-73288907D01*
X161641007Y-73249500D01*
X161641003Y-73249500D01*
X161438997Y-73249500D01*
X161438992Y-73249500D01*
X161240880Y-73288907D01*
X161240872Y-73288909D01*
X161054244Y-73366213D01*
X160973891Y-73419904D01*
X160907213Y-73440782D01*
X160839833Y-73422297D01*
X160836109Y-73419904D01*
X160755755Y-73366213D01*
X160569127Y-73288909D01*
X160569119Y-73288907D01*
X160371007Y-73249500D01*
X160371003Y-73249500D01*
X160168997Y-73249500D01*
X160168992Y-73249500D01*
X159970880Y-73288907D01*
X159970868Y-73288910D01*
X159890198Y-73322325D01*
X159820729Y-73329794D01*
X159775342Y-73310036D01*
X159775114Y-73310454D01*
X159770447Y-73307905D01*
X159768432Y-73307028D01*
X159767331Y-73306204D01*
X159767330Y-73306203D01*
X159767328Y-73306202D01*
X159708167Y-73284137D01*
X159652233Y-73242266D01*
X159627816Y-73176802D01*
X159627500Y-73167955D01*
X159627500Y-71506879D01*
X175846672Y-71506879D01*
X175846672Y-71506880D01*
X175962821Y-71578797D01*
X175962822Y-71578798D01*
X176170195Y-71659134D01*
X176388807Y-71700000D01*
X176611193Y-71700000D01*
X176829809Y-71659133D01*
X177037168Y-71578801D01*
X177037181Y-71578795D01*
X177153326Y-71506879D01*
X176500001Y-70853553D01*
X176500000Y-70853553D01*
X175846672Y-71506879D01*
X159627500Y-71506879D01*
X159627500Y-70311281D01*
X159647185Y-70244242D01*
X159663819Y-70223600D01*
X160223600Y-69663819D01*
X160284923Y-69630334D01*
X160311281Y-69627500D01*
X163755728Y-69627500D01*
X163822767Y-69647185D01*
X163868522Y-69699989D01*
X163869269Y-69701656D01*
X163869757Y-69702769D01*
X163875827Y-69716607D01*
X164011833Y-69924782D01*
X164044245Y-69959991D01*
X164180256Y-70107738D01*
X164376491Y-70260474D01*
X164376493Y-70260475D01*
X164569462Y-70364905D01*
X164595190Y-70378828D01*
X164830386Y-70459571D01*
X165075665Y-70500500D01*
X165324335Y-70500500D01*
X165569614Y-70459571D01*
X165804810Y-70378828D01*
X166023509Y-70260474D01*
X166219744Y-70107738D01*
X166388164Y-69924785D01*
X166524173Y-69716607D01*
X166624063Y-69488881D01*
X166685108Y-69247821D01*
X166687294Y-69221439D01*
X166705643Y-69000005D01*
X166705643Y-68999994D01*
X166685109Y-68752187D01*
X166685107Y-68752175D01*
X166624063Y-68511118D01*
X166524173Y-68283393D01*
X166388166Y-68075217D01*
X166312589Y-67993119D01*
X166274879Y-67952155D01*
X171300000Y-67952155D01*
X171300000Y-68750000D01*
X172366988Y-68750000D01*
X172334075Y-68807007D01*
X172300000Y-68934174D01*
X172300000Y-69065826D01*
X172334075Y-69192993D01*
X172366988Y-69250000D01*
X171300000Y-69250000D01*
X171300000Y-70047844D01*
X171306401Y-70107372D01*
X171306403Y-70107379D01*
X171356645Y-70242086D01*
X171356649Y-70242093D01*
X171442809Y-70357187D01*
X171442812Y-70357190D01*
X171557906Y-70443350D01*
X171557913Y-70443354D01*
X171692620Y-70493596D01*
X171692627Y-70493598D01*
X171752155Y-70499999D01*
X171752172Y-70500000D01*
X172550000Y-70500000D01*
X172550000Y-69433012D01*
X172607007Y-69465925D01*
X172734174Y-69500000D01*
X172865826Y-69500000D01*
X172992993Y-69465925D01*
X173050000Y-69433012D01*
X173050000Y-70500000D01*
X173847828Y-70500000D01*
X173847844Y-70499999D01*
X175294859Y-70499999D01*
X175294859Y-70500000D01*
X175315378Y-70721439D01*
X175376240Y-70935350D01*
X175475369Y-71134428D01*
X175491137Y-71155308D01*
X175491138Y-71155308D01*
X176146447Y-70500000D01*
X176100369Y-70453922D01*
X176150000Y-70453922D01*
X176150000Y-70546078D01*
X176173852Y-70635095D01*
X176219930Y-70714905D01*
X176285095Y-70780070D01*
X176364905Y-70826148D01*
X176453922Y-70850000D01*
X176546078Y-70850000D01*
X176635095Y-70826148D01*
X176714905Y-70780070D01*
X176780070Y-70714905D01*
X176826148Y-70635095D01*
X176850000Y-70546078D01*
X176850000Y-70499999D01*
X176853553Y-70499999D01*
X176853553Y-70500000D01*
X177508861Y-71155308D01*
X177524631Y-71134425D01*
X177524633Y-71134422D01*
X177623759Y-70935350D01*
X177684621Y-70721439D01*
X177705141Y-70500000D01*
X177705141Y-70499999D01*
X177684621Y-70278560D01*
X177623759Y-70064649D01*
X177524635Y-69865580D01*
X177524630Y-69865572D01*
X177508860Y-69844690D01*
X176853553Y-70499999D01*
X176850000Y-70499999D01*
X176850000Y-70453922D01*
X176826148Y-70364905D01*
X176780070Y-70285095D01*
X176714905Y-70219930D01*
X176635095Y-70173852D01*
X176546078Y-70150000D01*
X176453922Y-70150000D01*
X176364905Y-70173852D01*
X176285095Y-70219930D01*
X176219930Y-70285095D01*
X176173852Y-70364905D01*
X176150000Y-70453922D01*
X176100369Y-70453922D01*
X175491138Y-69844691D01*
X175491137Y-69844691D01*
X175475368Y-69865574D01*
X175376240Y-70064649D01*
X175315378Y-70278560D01*
X175294859Y-70499999D01*
X173847844Y-70499999D01*
X173907372Y-70493598D01*
X173907379Y-70493596D01*
X174042086Y-70443354D01*
X174042093Y-70443350D01*
X174157187Y-70357190D01*
X174157190Y-70357187D01*
X174243350Y-70242093D01*
X174243354Y-70242086D01*
X174293596Y-70107379D01*
X174293598Y-70107372D01*
X174299999Y-70047844D01*
X174300000Y-70047827D01*
X174300000Y-69493119D01*
X175846671Y-69493119D01*
X176500000Y-70146447D01*
X176500001Y-70146447D01*
X177153327Y-69493119D01*
X177037178Y-69421202D01*
X177037177Y-69421201D01*
X176829804Y-69340865D01*
X176611193Y-69300000D01*
X176388807Y-69300000D01*
X176170195Y-69340865D01*
X175962824Y-69421200D01*
X175962823Y-69421201D01*
X175846671Y-69493119D01*
X174300000Y-69493119D01*
X174300000Y-69250000D01*
X173233012Y-69250000D01*
X173265925Y-69192993D01*
X173300000Y-69065826D01*
X173300000Y-68934174D01*
X173265925Y-68807007D01*
X173233012Y-68750000D01*
X174300000Y-68750000D01*
X174300000Y-67952172D01*
X174299999Y-67952155D01*
X174293598Y-67892627D01*
X174293596Y-67892620D01*
X174243354Y-67757913D01*
X174243350Y-67757906D01*
X174157190Y-67642812D01*
X174157187Y-67642809D01*
X174042093Y-67556649D01*
X174042086Y-67556645D01*
X173907379Y-67506403D01*
X173907372Y-67506401D01*
X173847844Y-67500000D01*
X173050000Y-67500000D01*
X173050000Y-68566988D01*
X172992993Y-68534075D01*
X172865826Y-68500000D01*
X172734174Y-68500000D01*
X172607007Y-68534075D01*
X172550000Y-68566988D01*
X172550000Y-67500000D01*
X171752155Y-67500000D01*
X171692627Y-67506401D01*
X171692620Y-67506403D01*
X171557913Y-67556645D01*
X171557906Y-67556649D01*
X171442812Y-67642809D01*
X171442809Y-67642812D01*
X171356649Y-67757906D01*
X171356645Y-67757913D01*
X171306403Y-67892620D01*
X171306401Y-67892627D01*
X171300000Y-67952155D01*
X166274879Y-67952155D01*
X166219744Y-67892262D01*
X166023509Y-67739526D01*
X166023507Y-67739525D01*
X166023506Y-67739524D01*
X165804811Y-67621172D01*
X165804802Y-67621169D01*
X165569616Y-67540429D01*
X165324335Y-67499500D01*
X165075665Y-67499500D01*
X164830383Y-67540429D01*
X164595197Y-67621169D01*
X164595188Y-67621172D01*
X164376493Y-67739524D01*
X164180257Y-67892261D01*
X164180256Y-67892262D01*
X164179920Y-67892627D01*
X164011833Y-68075217D01*
X163875827Y-68283392D01*
X163869285Y-68298308D01*
X163824330Y-68351795D01*
X163757594Y-68372486D01*
X163755728Y-68372500D01*
X159938192Y-68372500D01*
X159816973Y-68396611D01*
X159816973Y-68396612D01*
X159816970Y-68396613D01*
X159816966Y-68396614D01*
X159750070Y-68424323D01*
X159750068Y-68424323D01*
X159702768Y-68443916D01*
X159702764Y-68443918D01*
X159602191Y-68511119D01*
X159602189Y-68511121D01*
X159599990Y-68512589D01*
X159599988Y-68512591D01*
X158832511Y-69280070D01*
X158599992Y-69512589D01*
X158512589Y-69599992D01*
X158444636Y-69701692D01*
X158443916Y-69702769D01*
X158430061Y-69736214D01*
X158430062Y-69736215D01*
X158396614Y-69816965D01*
X158389944Y-69850500D01*
X158389944Y-69850502D01*
X158389943Y-69850502D01*
X158372500Y-69938192D01*
X158372500Y-73167955D01*
X158352815Y-73234994D01*
X158300011Y-73280749D01*
X158291833Y-73284137D01*
X158232671Y-73306202D01*
X158232664Y-73306206D01*
X158117455Y-73392452D01*
X158117452Y-73392455D01*
X158031206Y-73507664D01*
X158031202Y-73507671D01*
X157980908Y-73642517D01*
X157974501Y-73702116D01*
X157974500Y-73702135D01*
X156409278Y-73702135D01*
X156389395Y-73623618D01*
X156392020Y-73553798D01*
X156421918Y-73505499D01*
X157527411Y-72400008D01*
X157594568Y-72299500D01*
X157596083Y-72297233D01*
X157643385Y-72183035D01*
X157652921Y-72135095D01*
X157667500Y-72061805D01*
X157667500Y-70092527D01*
X157687185Y-70025488D01*
X157726221Y-69987101D01*
X157766562Y-69962124D01*
X157889005Y-69850502D01*
X157930979Y-69812238D01*
X158003197Y-69716607D01*
X158065058Y-69634689D01*
X158164229Y-69435528D01*
X158225115Y-69221536D01*
X158245643Y-69000000D01*
X158245642Y-68999994D01*
X158225115Y-68778464D01*
X158225114Y-68778462D01*
X158217638Y-68752187D01*
X158164229Y-68564472D01*
X158149093Y-68534075D01*
X158065061Y-68365316D01*
X158065056Y-68365308D01*
X157930979Y-68187761D01*
X157766562Y-68037876D01*
X157766560Y-68037874D01*
X157577404Y-67920754D01*
X157577398Y-67920752D01*
X157369940Y-67840382D01*
X157151243Y-67799500D01*
X156928757Y-67799500D01*
X156710060Y-67840382D01*
X156578864Y-67891207D01*
X156502601Y-67920752D01*
X156502595Y-67920754D01*
X156313439Y-68037874D01*
X156313437Y-68037876D01*
X156149020Y-68187761D01*
X156014943Y-68365308D01*
X156014938Y-68365316D01*
X155915775Y-68564461D01*
X155915769Y-68564476D01*
X155854885Y-68778462D01*
X155854884Y-68778464D01*
X155834357Y-68999999D01*
X155834357Y-69000000D01*
X155854884Y-69221535D01*
X155854885Y-69221537D01*
X155915769Y-69435523D01*
X155915775Y-69435538D01*
X156014938Y-69634683D01*
X156014943Y-69634691D01*
X156149020Y-69812238D01*
X156313433Y-69962120D01*
X156313435Y-69962121D01*
X156313438Y-69962124D01*
X156353777Y-69987101D01*
X156400412Y-70039127D01*
X156412500Y-70092527D01*
X156412500Y-71688718D01*
X156392815Y-71755757D01*
X156376181Y-71776399D01*
X155536414Y-72616165D01*
X155475091Y-72649650D01*
X155408471Y-72645766D01*
X155384980Y-72637701D01*
X155194250Y-72605874D01*
X155156049Y-72599500D01*
X154923951Y-72599500D01*
X154885550Y-72605908D01*
X154695015Y-72637702D01*
X154475504Y-72713061D01*
X154475495Y-72713064D01*
X154271371Y-72823531D01*
X154271365Y-72823535D01*
X154088222Y-72966081D01*
X154088218Y-72966085D01*
X154088216Y-72966086D01*
X154088216Y-72966087D01*
X154081575Y-72973302D01*
X154079866Y-72975158D01*
X154019979Y-73011148D01*
X153950141Y-73009047D01*
X153892525Y-72969522D01*
X153872455Y-72934507D01*
X153843797Y-72857671D01*
X153843793Y-72857664D01*
X153757547Y-72742455D01*
X153757544Y-72742452D01*
X153642335Y-72656206D01*
X153642328Y-72656202D01*
X153507482Y-72605908D01*
X153507483Y-72605908D01*
X153447883Y-72599501D01*
X153447881Y-72599500D01*
X153447873Y-72599500D01*
X153447864Y-72599500D01*
X151552129Y-72599500D01*
X151552123Y-72599501D01*
X151492516Y-72605908D01*
X151357671Y-72656202D01*
X151357664Y-72656206D01*
X151242455Y-72742452D01*
X151242452Y-72742455D01*
X151156206Y-72857664D01*
X151156202Y-72857671D01*
X151105908Y-72992517D01*
X151099501Y-73052116D01*
X151099500Y-73052135D01*
X151099500Y-74947870D01*
X151099501Y-74947876D01*
X151105908Y-75007483D01*
X151156202Y-75142328D01*
X151156206Y-75142335D01*
X151242452Y-75257544D01*
X151242455Y-75257547D01*
X151357664Y-75343793D01*
X151357671Y-75343797D01*
X151394366Y-75357483D01*
X151492517Y-75394091D01*
X151552127Y-75400500D01*
X151748500Y-75400499D01*
X151815539Y-75420183D01*
X151861294Y-75472987D01*
X151872500Y-75524499D01*
X151872500Y-77192093D01*
X151852815Y-77259132D01*
X151800011Y-77304887D01*
X151771286Y-77313981D01*
X151630070Y-77340379D01*
X151630062Y-77340381D01*
X151630060Y-77340382D01*
X151498864Y-77391207D01*
X151422601Y-77420752D01*
X151422595Y-77420754D01*
X151233439Y-77537874D01*
X151233437Y-77537876D01*
X151143202Y-77620137D01*
X151080398Y-77650754D01*
X151059664Y-77652500D01*
X150532787Y-77652500D01*
X150465748Y-77632815D01*
X150431212Y-77599623D01*
X150410375Y-77569865D01*
X150320047Y-77440861D01*
X150320045Y-77440858D01*
X150159141Y-77279954D01*
X149972734Y-77149432D01*
X149972732Y-77149431D01*
X149914725Y-77122382D01*
X149914132Y-77122105D01*
X149861694Y-77075934D01*
X149842542Y-77008740D01*
X149862758Y-76941859D01*
X149914134Y-76897341D01*
X149972484Y-76870132D01*
X150158820Y-76739657D01*
X150319657Y-76578820D01*
X150450134Y-76392482D01*
X150546265Y-76186326D01*
X150546269Y-76186317D01*
X150598872Y-75990000D01*
X149635686Y-75990000D01*
X149640080Y-75985606D01*
X149692741Y-75894394D01*
X149720000Y-75792661D01*
X149720000Y-75687339D01*
X149692741Y-75585606D01*
X149640080Y-75494394D01*
X149635686Y-75490000D01*
X150598872Y-75490000D01*
X150598872Y-75489999D01*
X150546269Y-75293682D01*
X150546265Y-75293673D01*
X150450134Y-75087517D01*
X150319657Y-74901179D01*
X150158820Y-74740342D01*
X149972482Y-74609865D01*
X149914133Y-74582657D01*
X149861694Y-74536484D01*
X149842542Y-74469291D01*
X149862758Y-74402410D01*
X149914129Y-74357895D01*
X149972734Y-74330568D01*
X150159139Y-74200047D01*
X150320047Y-74039139D01*
X150450568Y-73852734D01*
X150546739Y-73646496D01*
X150605635Y-73426692D01*
X150625468Y-73200000D01*
X150623438Y-73176802D01*
X150610200Y-73025488D01*
X150605635Y-72973308D01*
X150546739Y-72753504D01*
X150450568Y-72547266D01*
X150320047Y-72360861D01*
X150320045Y-72360858D01*
X150159141Y-72199954D01*
X149972734Y-72069432D01*
X149972732Y-72069431D01*
X149766497Y-71973261D01*
X149766488Y-71973258D01*
X149546697Y-71914366D01*
X149546693Y-71914365D01*
X149546692Y-71914365D01*
X149546691Y-71914364D01*
X149546686Y-71914364D01*
X149320002Y-71894532D01*
X149319998Y-71894532D01*
X149093313Y-71914364D01*
X149093302Y-71914366D01*
X148873511Y-71973258D01*
X148873502Y-71973261D01*
X148667267Y-72069431D01*
X148667265Y-72069432D01*
X148480858Y-72199954D01*
X148319954Y-72360858D01*
X148189432Y-72547265D01*
X148189431Y-72547267D01*
X148093261Y-72753502D01*
X148093258Y-72753511D01*
X148034366Y-72973302D01*
X148034364Y-72973313D01*
X148014532Y-73199998D01*
X143000499Y-73199998D01*
X143000499Y-72352128D01*
X142994091Y-72292517D01*
X142967617Y-72221537D01*
X142943797Y-72157671D01*
X142943793Y-72157664D01*
X142857547Y-72042455D01*
X142857544Y-72042452D01*
X142742335Y-71956206D01*
X142742328Y-71956202D01*
X142607482Y-71905908D01*
X142607483Y-71905908D01*
X142547883Y-71899501D01*
X142547881Y-71899500D01*
X142547873Y-71899500D01*
X142547864Y-71899500D01*
X140852129Y-71899500D01*
X140852123Y-71899501D01*
X140792516Y-71905908D01*
X140657671Y-71956202D01*
X140657664Y-71956206D01*
X140542455Y-72042452D01*
X140542452Y-72042455D01*
X140456206Y-72157664D01*
X140456202Y-72157671D01*
X140405908Y-72292517D01*
X140399501Y-72352116D01*
X140399501Y-72352123D01*
X140399500Y-72352135D01*
X140399500Y-74047870D01*
X140399501Y-74047876D01*
X140405908Y-74107483D01*
X140456202Y-74242328D01*
X140456206Y-74242335D01*
X140542452Y-74357544D01*
X140542455Y-74357547D01*
X140657664Y-74443793D01*
X140657671Y-74443797D01*
X140691194Y-74456300D01*
X140792517Y-74494091D01*
X140827596Y-74497862D01*
X140892144Y-74524599D01*
X140931993Y-74581991D01*
X140934488Y-74651816D01*
X140898836Y-74711905D01*
X140885464Y-74722725D01*
X140860861Y-74739952D01*
X140833053Y-74767761D01*
X140764631Y-74836182D01*
X140703311Y-74869666D01*
X140676952Y-74872500D01*
X139092232Y-74872500D01*
X139025193Y-74852815D01*
X138993278Y-74823227D01*
X138890979Y-74687761D01*
X138726562Y-74537876D01*
X138726561Y-74537875D01*
X138686221Y-74512897D01*
X138639586Y-74460869D01*
X138627500Y-74407471D01*
X138627500Y-73092527D01*
X138647185Y-73025488D01*
X138686221Y-72987101D01*
X138726562Y-72962124D01*
X138890981Y-72812236D01*
X139025058Y-72634689D01*
X139124229Y-72435528D01*
X139185115Y-72221536D01*
X139205643Y-72000000D01*
X139196330Y-71899500D01*
X139185115Y-71778464D01*
X139185114Y-71778462D01*
X139168460Y-71719930D01*
X139124229Y-71564472D01*
X139124224Y-71564461D01*
X139025061Y-71365316D01*
X139025056Y-71365308D01*
X138890979Y-71187761D01*
X138726562Y-71037876D01*
X138726560Y-71037874D01*
X138537404Y-70920754D01*
X138537398Y-70920752D01*
X138329940Y-70840382D01*
X138111243Y-70799500D01*
X137888757Y-70799500D01*
X137670060Y-70840382D01*
X137538864Y-70891207D01*
X137462601Y-70920752D01*
X137462595Y-70920754D01*
X137273439Y-71037874D01*
X137273437Y-71037876D01*
X137109020Y-71187761D01*
X136974943Y-71365308D01*
X136974938Y-71365316D01*
X136875775Y-71564461D01*
X136875769Y-71564476D01*
X136814885Y-71778462D01*
X136814884Y-71778464D01*
X136794357Y-71999999D01*
X136794357Y-72000000D01*
X136814884Y-72221535D01*
X136814885Y-72221537D01*
X136875769Y-72435523D01*
X136875775Y-72435538D01*
X136974938Y-72634683D01*
X136974943Y-72634691D01*
X137109020Y-72812238D01*
X137273433Y-72962120D01*
X137273435Y-72962121D01*
X137273438Y-72962124D01*
X137313777Y-72987101D01*
X137360412Y-73039127D01*
X137372500Y-73092527D01*
X137372500Y-74407471D01*
X137352815Y-74474510D01*
X137313779Y-74512897D01*
X137273438Y-74537875D01*
X137273437Y-74537876D01*
X137109020Y-74687761D01*
X136974943Y-74865308D01*
X136974938Y-74865316D01*
X136875775Y-75064461D01*
X136875769Y-75064476D01*
X136814885Y-75278462D01*
X136814884Y-75278464D01*
X136794357Y-75499999D01*
X136794357Y-75500000D01*
X136814884Y-75721535D01*
X136814885Y-75721537D01*
X136875769Y-75935523D01*
X136875775Y-75935538D01*
X136974938Y-76134683D01*
X136974943Y-76134691D01*
X137109020Y-76312238D01*
X137273437Y-76462123D01*
X137273439Y-76462125D01*
X137462595Y-76579245D01*
X137462596Y-76579245D01*
X137462599Y-76579247D01*
X137670060Y-76659618D01*
X137888757Y-76700500D01*
X137888759Y-76700500D01*
X138111241Y-76700500D01*
X138111243Y-76700500D01*
X138329940Y-76659618D01*
X138537401Y-76579247D01*
X138726562Y-76462124D01*
X138890981Y-76312236D01*
X138964645Y-76214689D01*
X138993278Y-76176773D01*
X139049387Y-76135137D01*
X139092232Y-76127500D01*
X140366754Y-76127500D01*
X140433793Y-76147185D01*
X140479136Y-76199095D01*
X140569431Y-76392732D01*
X140569432Y-76392734D01*
X140699954Y-76579141D01*
X140860858Y-76740045D01*
X140890387Y-76760721D01*
X141047266Y-76870568D01*
X141104681Y-76897341D01*
X141105275Y-76897618D01*
X141157714Y-76943791D01*
X141176866Y-77010984D01*
X141156650Y-77077865D01*
X141105275Y-77122382D01*
X141047267Y-77149431D01*
X141047265Y-77149432D01*
X140860858Y-77279954D01*
X140699954Y-77440858D01*
X140569432Y-77627265D01*
X140569431Y-77627267D01*
X140473261Y-77833502D01*
X140473258Y-77833511D01*
X140414366Y-78053302D01*
X140414364Y-78053313D01*
X140394532Y-78279998D01*
X140394532Y-78280001D01*
X140414364Y-78506686D01*
X140414366Y-78506697D01*
X140432083Y-78572817D01*
X140430420Y-78642667D01*
X140399991Y-78692589D01*
X140256398Y-78836182D01*
X140195078Y-78869666D01*
X140168719Y-78872500D01*
X138351749Y-78872500D01*
X138284710Y-78852815D01*
X138250174Y-78819623D01*
X138161599Y-78693124D01*
X138110443Y-78641968D01*
X138006877Y-78538402D01*
X137868978Y-78441844D01*
X137827638Y-78412897D01*
X137728484Y-78366661D01*
X137629330Y-78320425D01*
X137629326Y-78320424D01*
X137629322Y-78320422D01*
X137417977Y-78263793D01*
X137200002Y-78244723D01*
X137199998Y-78244723D01*
X137097698Y-78253673D01*
X136982023Y-78263793D01*
X136982020Y-78263793D01*
X136770677Y-78320422D01*
X136770668Y-78320426D01*
X136572361Y-78412898D01*
X136572357Y-78412900D01*
X136393121Y-78538402D01*
X136238402Y-78693121D01*
X136112900Y-78872357D01*
X136112898Y-78872361D01*
X136020426Y-79070668D01*
X136020422Y-79070677D01*
X135963793Y-79282020D01*
X135963793Y-79282024D01*
X135944723Y-79499997D01*
X135054775Y-79499997D01*
X135035712Y-79282115D01*
X135035710Y-79282105D01*
X134979105Y-79070849D01*
X134979101Y-79070840D01*
X134886667Y-78872614D01*
X134886666Y-78872612D01*
X134843124Y-78810428D01*
X134843124Y-78810427D01*
X134200000Y-79453551D01*
X134200000Y-79447339D01*
X134172741Y-79345606D01*
X134120080Y-79254394D01*
X134045606Y-79179920D01*
X133954394Y-79127259D01*
X133852661Y-79100000D01*
X133846447Y-79100000D01*
X134489571Y-78456874D01*
X134427387Y-78413333D01*
X134229159Y-78320898D01*
X134229150Y-78320894D01*
X134017894Y-78264289D01*
X134017884Y-78264287D01*
X133800001Y-78245225D01*
X133799999Y-78245225D01*
X133582115Y-78264287D01*
X133582105Y-78264289D01*
X133370849Y-78320894D01*
X133370840Y-78320898D01*
X133172613Y-78413333D01*
X133110428Y-78456874D01*
X133753554Y-79100000D01*
X133747339Y-79100000D01*
X133645606Y-79127259D01*
X133554394Y-79179920D01*
X133479920Y-79254394D01*
X133427259Y-79345606D01*
X133400000Y-79447339D01*
X133400000Y-79453554D01*
X132756874Y-78810428D01*
X132713333Y-78872613D01*
X132620898Y-79070840D01*
X132620894Y-79070849D01*
X132564289Y-79282105D01*
X132564287Y-79282115D01*
X132545225Y-79499999D01*
X126000500Y-79499999D01*
X126000500Y-75499999D01*
X131714357Y-75499999D01*
X131714357Y-75500000D01*
X131734884Y-75721535D01*
X131734885Y-75721537D01*
X131795769Y-75935523D01*
X131795775Y-75935538D01*
X131894938Y-76134683D01*
X131894943Y-76134691D01*
X132029020Y-76312238D01*
X132193437Y-76462123D01*
X132193439Y-76462125D01*
X132382595Y-76579245D01*
X132382596Y-76579245D01*
X132382599Y-76579247D01*
X132590060Y-76659618D01*
X132808757Y-76700500D01*
X132808759Y-76700500D01*
X133031241Y-76700500D01*
X133031243Y-76700500D01*
X133249940Y-76659618D01*
X133457401Y-76579247D01*
X133646562Y-76462124D01*
X133810981Y-76312236D01*
X133945058Y-76134689D01*
X134044229Y-75935528D01*
X134105115Y-75721536D01*
X134125643Y-75500000D01*
X134105115Y-75278464D01*
X134044229Y-75064472D01*
X134029015Y-75033918D01*
X133945061Y-74865316D01*
X133945056Y-74865308D01*
X133810979Y-74687761D01*
X133646562Y-74537876D01*
X133646560Y-74537874D01*
X133457404Y-74420754D01*
X133457398Y-74420752D01*
X133456443Y-74420382D01*
X133249940Y-74340382D01*
X133031243Y-74299500D01*
X132808757Y-74299500D01*
X132590060Y-74340382D01*
X132489085Y-74379500D01*
X132382601Y-74420752D01*
X132382595Y-74420754D01*
X132193439Y-74537874D01*
X132193437Y-74537876D01*
X132029020Y-74687761D01*
X131894943Y-74865308D01*
X131894938Y-74865316D01*
X131795775Y-75064461D01*
X131795769Y-75064476D01*
X131734885Y-75278462D01*
X131734884Y-75278464D01*
X131714357Y-75499999D01*
X126000500Y-75499999D01*
X126000500Y-73006879D01*
X132266672Y-73006879D01*
X132266672Y-73006880D01*
X132382821Y-73078797D01*
X132382822Y-73078798D01*
X132590195Y-73159134D01*
X132808807Y-73200000D01*
X133031193Y-73200000D01*
X133249809Y-73159133D01*
X133457168Y-73078801D01*
X133457181Y-73078795D01*
X133573326Y-73006879D01*
X132920001Y-72353553D01*
X132920000Y-72353553D01*
X132266672Y-73006879D01*
X126000500Y-73006879D01*
X126000500Y-71999999D01*
X131714859Y-71999999D01*
X131714859Y-72000000D01*
X131735378Y-72221439D01*
X131796240Y-72435350D01*
X131895369Y-72634428D01*
X131911137Y-72655308D01*
X131911138Y-72655308D01*
X132566447Y-72000000D01*
X132520369Y-71953922D01*
X132570000Y-71953922D01*
X132570000Y-72046078D01*
X132593852Y-72135095D01*
X132639930Y-72214905D01*
X132705095Y-72280070D01*
X132784905Y-72326148D01*
X132873922Y-72350000D01*
X132966078Y-72350000D01*
X133055095Y-72326148D01*
X133134905Y-72280070D01*
X133200070Y-72214905D01*
X133246148Y-72135095D01*
X133270000Y-72046078D01*
X133270000Y-71999999D01*
X133273553Y-71999999D01*
X133273553Y-72000000D01*
X133928861Y-72655308D01*
X133944631Y-72634425D01*
X133944633Y-72634422D01*
X134043759Y-72435350D01*
X134104621Y-72221439D01*
X134125141Y-72000000D01*
X134125141Y-71999999D01*
X134104621Y-71778560D01*
X134043759Y-71564649D01*
X133944635Y-71365580D01*
X133944630Y-71365572D01*
X133928860Y-71344690D01*
X133273553Y-71999999D01*
X133270000Y-71999999D01*
X133270000Y-71953922D01*
X133246148Y-71864905D01*
X133200070Y-71785095D01*
X133134905Y-71719930D01*
X133055095Y-71673852D01*
X132966078Y-71650000D01*
X132873922Y-71650000D01*
X132784905Y-71673852D01*
X132705095Y-71719930D01*
X132639930Y-71785095D01*
X132593852Y-71864905D01*
X132570000Y-71953922D01*
X132520369Y-71953922D01*
X131911138Y-71344691D01*
X131911137Y-71344691D01*
X131895368Y-71365574D01*
X131796240Y-71564649D01*
X131735378Y-71778560D01*
X131714859Y-71999999D01*
X126000500Y-71999999D01*
X126000500Y-70993119D01*
X132266671Y-70993119D01*
X132920000Y-71646447D01*
X132920001Y-71646447D01*
X133573327Y-70993119D01*
X133457178Y-70921202D01*
X133457177Y-70921201D01*
X133249804Y-70840865D01*
X133031193Y-70800000D01*
X132808807Y-70800000D01*
X132590195Y-70840865D01*
X132382824Y-70921200D01*
X132382823Y-70921201D01*
X132266671Y-70993119D01*
X126000500Y-70993119D01*
X126000500Y-70006879D01*
X151306672Y-70006879D01*
X151306672Y-70006880D01*
X151422821Y-70078797D01*
X151422822Y-70078798D01*
X151630195Y-70159134D01*
X151848807Y-70200000D01*
X152071193Y-70200000D01*
X152289809Y-70159133D01*
X152497168Y-70078801D01*
X152497181Y-70078795D01*
X152613326Y-70006879D01*
X151960001Y-69353553D01*
X151960000Y-69353553D01*
X151306672Y-70006879D01*
X126000500Y-70006879D01*
X126000500Y-68999999D01*
X150754859Y-68999999D01*
X150754859Y-69000000D01*
X150775378Y-69221439D01*
X150836240Y-69435350D01*
X150935369Y-69634428D01*
X150951137Y-69655308D01*
X150951138Y-69655308D01*
X151606447Y-69000000D01*
X151560369Y-68953922D01*
X151610000Y-68953922D01*
X151610000Y-69046078D01*
X151633852Y-69135095D01*
X151679930Y-69214905D01*
X151745095Y-69280070D01*
X151824905Y-69326148D01*
X151913922Y-69350000D01*
X152006078Y-69350000D01*
X152095095Y-69326148D01*
X152174905Y-69280070D01*
X152240070Y-69214905D01*
X152286148Y-69135095D01*
X152310000Y-69046078D01*
X152310000Y-68999999D01*
X152313553Y-68999999D01*
X152313553Y-69000000D01*
X152968861Y-69655308D01*
X152984631Y-69634425D01*
X152984633Y-69634422D01*
X153083759Y-69435350D01*
X153144621Y-69221439D01*
X153165141Y-69000000D01*
X153165141Y-68999999D01*
X153144621Y-68778560D01*
X153083759Y-68564649D01*
X152984635Y-68365580D01*
X152984630Y-68365572D01*
X152968860Y-68344690D01*
X152313553Y-68999999D01*
X152310000Y-68999999D01*
X152310000Y-68953922D01*
X152286148Y-68864905D01*
X152240070Y-68785095D01*
X152174905Y-68719930D01*
X152095095Y-68673852D01*
X152006078Y-68650000D01*
X151913922Y-68650000D01*
X151824905Y-68673852D01*
X151745095Y-68719930D01*
X151679930Y-68785095D01*
X151633852Y-68864905D01*
X151610000Y-68953922D01*
X151560369Y-68953922D01*
X150951138Y-68344691D01*
X150951137Y-68344691D01*
X150935368Y-68365574D01*
X150836240Y-68564649D01*
X150775378Y-68778560D01*
X150754859Y-68999999D01*
X126000500Y-68999999D01*
X126000500Y-67993119D01*
X151306671Y-67993119D01*
X151960000Y-68646447D01*
X151960001Y-68646447D01*
X152613327Y-67993119D01*
X152497178Y-67921202D01*
X152497177Y-67921201D01*
X152289804Y-67840865D01*
X152071193Y-67800000D01*
X151848807Y-67800000D01*
X151630195Y-67840865D01*
X151422824Y-67921200D01*
X151422823Y-67921201D01*
X151306671Y-67993119D01*
X126000500Y-67993119D01*
X126000500Y-62999995D01*
X139114953Y-62999995D01*
X139114953Y-63000004D01*
X139135113Y-63269026D01*
X139135113Y-63269028D01*
X139195142Y-63532033D01*
X139195148Y-63532052D01*
X139293709Y-63783181D01*
X139293708Y-63783181D01*
X139428602Y-64016822D01*
X139482294Y-64084151D01*
X139482295Y-64084151D01*
X140318958Y-63247488D01*
X140343978Y-63307890D01*
X140415112Y-63414351D01*
X140505649Y-63504888D01*
X140612110Y-63576022D01*
X140672510Y-63601041D01*
X139834848Y-64438702D01*
X140017483Y-64563220D01*
X140017485Y-64563221D01*
X140260539Y-64680269D01*
X140260537Y-64680269D01*
X140518337Y-64759790D01*
X140518343Y-64759792D01*
X140785101Y-64799999D01*
X140785110Y-64800000D01*
X141054890Y-64800000D01*
X141054898Y-64799999D01*
X141321656Y-64759792D01*
X141321662Y-64759790D01*
X141579461Y-64680269D01*
X141822521Y-64563218D01*
X142005150Y-64438702D01*
X141167488Y-63601041D01*
X141227890Y-63576022D01*
X141334351Y-63504888D01*
X141424888Y-63414351D01*
X141496022Y-63307890D01*
X141521041Y-63247488D01*
X142357703Y-64084151D01*
X142357704Y-64084150D01*
X142411393Y-64016828D01*
X142411400Y-64016817D01*
X142546290Y-63783181D01*
X142644851Y-63532052D01*
X142644857Y-63532033D01*
X142704886Y-63269028D01*
X142704886Y-63269026D01*
X142725047Y-63000004D01*
X142725047Y-62999995D01*
X142704886Y-62730973D01*
X142704886Y-62730971D01*
X142644857Y-62467966D01*
X142644851Y-62467947D01*
X142546290Y-62216818D01*
X142546291Y-62216818D01*
X142411397Y-61983177D01*
X142357704Y-61915847D01*
X141521041Y-62752510D01*
X141496022Y-62692110D01*
X141424888Y-62585649D01*
X141334351Y-62495112D01*
X141227890Y-62423978D01*
X141167488Y-62398958D01*
X141914311Y-61652135D01*
X144199500Y-61652135D01*
X144199500Y-64347870D01*
X144199501Y-64347876D01*
X144205908Y-64407483D01*
X144256202Y-64542328D01*
X144256206Y-64542335D01*
X144342452Y-64657544D01*
X144342455Y-64657547D01*
X144457664Y-64743793D01*
X144457671Y-64743797D01*
X144592517Y-64794091D01*
X144592516Y-64794091D01*
X144599444Y-64794835D01*
X144652127Y-64800500D01*
X147347872Y-64800499D01*
X147407483Y-64794091D01*
X147542331Y-64743796D01*
X147657546Y-64657546D01*
X147743796Y-64542331D01*
X147794091Y-64407483D01*
X147800500Y-64347873D01*
X147800499Y-61652128D01*
X147794091Y-61592517D01*
X147782446Y-61561296D01*
X147743797Y-61457671D01*
X147743793Y-61457664D01*
X147657547Y-61342455D01*
X147657544Y-61342452D01*
X147542335Y-61256206D01*
X147542328Y-61256202D01*
X147407482Y-61205908D01*
X147407483Y-61205908D01*
X147347883Y-61199501D01*
X147347881Y-61199500D01*
X147347873Y-61199500D01*
X147347864Y-61199500D01*
X144652129Y-61199500D01*
X144652123Y-61199501D01*
X144592516Y-61205908D01*
X144457671Y-61256202D01*
X144457664Y-61256206D01*
X144342455Y-61342452D01*
X144342452Y-61342455D01*
X144256206Y-61457664D01*
X144256202Y-61457671D01*
X144205908Y-61592517D01*
X144199501Y-61652116D01*
X144199501Y-61652123D01*
X144199500Y-61652135D01*
X141914311Y-61652135D01*
X142005150Y-61561296D01*
X141822517Y-61436779D01*
X141822516Y-61436778D01*
X141579460Y-61319730D01*
X141579462Y-61319730D01*
X141321662Y-61240209D01*
X141321656Y-61240207D01*
X141054898Y-61200000D01*
X140785101Y-61200000D01*
X140518343Y-61240207D01*
X140518337Y-61240209D01*
X140260538Y-61319730D01*
X140017485Y-61436778D01*
X140017476Y-61436783D01*
X139834848Y-61561296D01*
X140672511Y-62398958D01*
X140612110Y-62423978D01*
X140505649Y-62495112D01*
X140415112Y-62585649D01*
X140343978Y-62692110D01*
X140318958Y-62752511D01*
X139482295Y-61915848D01*
X139428600Y-61983180D01*
X139293709Y-62216818D01*
X139195148Y-62467947D01*
X139195142Y-62467966D01*
X139135113Y-62730971D01*
X139135113Y-62730973D01*
X139114953Y-62999995D01*
X126000500Y-62999995D01*
X126000500Y-57381902D01*
X127499500Y-57381902D01*
X127499500Y-57618097D01*
X127536446Y-57851368D01*
X127609433Y-58075996D01*
X127716657Y-58286433D01*
X127855483Y-58477510D01*
X128022490Y-58644517D01*
X128213567Y-58783343D01*
X128312991Y-58834002D01*
X128424003Y-58890566D01*
X128424005Y-58890566D01*
X128424008Y-58890568D01*
X128544412Y-58929689D01*
X128648631Y-58963553D01*
X128881903Y-59000500D01*
X128881908Y-59000500D01*
X129118097Y-59000500D01*
X129351368Y-58963553D01*
X129575992Y-58890568D01*
X129786433Y-58783343D01*
X129977510Y-58644517D01*
X130144517Y-58477510D01*
X130283343Y-58286433D01*
X130390568Y-58075992D01*
X130463553Y-57851368D01*
X130500500Y-57618097D01*
X130500500Y-57381902D01*
X178499500Y-57381902D01*
X178499500Y-57618097D01*
X178536446Y-57851368D01*
X178609433Y-58075996D01*
X178716657Y-58286433D01*
X178855483Y-58477510D01*
X179022490Y-58644517D01*
X179213567Y-58783343D01*
X179312991Y-58834002D01*
X179424003Y-58890566D01*
X179424005Y-58890566D01*
X179424008Y-58890568D01*
X179544412Y-58929689D01*
X179648631Y-58963553D01*
X179881903Y-59000500D01*
X179881908Y-59000500D01*
X180118097Y-59000500D01*
X180351368Y-58963553D01*
X180575992Y-58890568D01*
X180786433Y-58783343D01*
X180977510Y-58644517D01*
X181144517Y-58477510D01*
X181283343Y-58286433D01*
X181390568Y-58075992D01*
X181463553Y-57851368D01*
X181500500Y-57618097D01*
X181500500Y-57381902D01*
X181463553Y-57148631D01*
X181390566Y-56924003D01*
X181283342Y-56713566D01*
X181144517Y-56522490D01*
X180977510Y-56355483D01*
X180786433Y-56216657D01*
X180575996Y-56109433D01*
X180351368Y-56036446D01*
X180118097Y-55999500D01*
X180118092Y-55999500D01*
X179881908Y-55999500D01*
X179881903Y-55999500D01*
X179648631Y-56036446D01*
X179424003Y-56109433D01*
X179213566Y-56216657D01*
X179104550Y-56295862D01*
X179022490Y-56355483D01*
X179022488Y-56355485D01*
X179022487Y-56355485D01*
X178855485Y-56522487D01*
X178855485Y-56522488D01*
X178855483Y-56522490D01*
X178795862Y-56604550D01*
X178716657Y-56713566D01*
X178609433Y-56924003D01*
X178536446Y-57148631D01*
X178499500Y-57381902D01*
X130500500Y-57381902D01*
X130463553Y-57148631D01*
X130390566Y-56924003D01*
X130283342Y-56713566D01*
X130144517Y-56522490D01*
X129977510Y-56355483D01*
X129786433Y-56216657D01*
X129575996Y-56109433D01*
X129351368Y-56036446D01*
X129118097Y-55999500D01*
X129118092Y-55999500D01*
X128881908Y-55999500D01*
X128881903Y-55999500D01*
X128648631Y-56036446D01*
X128424003Y-56109433D01*
X128213566Y-56216657D01*
X128104550Y-56295862D01*
X128022490Y-56355483D01*
X128022488Y-56355485D01*
X128022487Y-56355485D01*
X127855485Y-56522487D01*
X127855485Y-56522488D01*
X127855483Y-56522490D01*
X127795862Y-56604550D01*
X127716657Y-56713566D01*
X127609433Y-56924003D01*
X127536446Y-57148631D01*
X127499500Y-57381902D01*
X126000500Y-57381902D01*
X126000500Y-54624500D01*
X126020185Y-54557461D01*
X126072989Y-54511706D01*
X126124500Y-54500500D01*
X182875500Y-54500500D01*
X182942539Y-54520185D01*
G37*
%TD.AperFunction*%
%TD*%
M02*
