%TF.GenerationSoftware,KiCad,Pcbnew,8.0.5*%
%TF.CreationDate,2025-01-04T17:35:11+03:00*%
%TF.ProjectId,Intruder_Alarm_with_LDR_and_Buzzer,496e7472-7564-4657-925f-416c61726d5f,v01*%
%TF.SameCoordinates,Original*%
%TF.FileFunction,Soldermask,Top*%
%TF.FilePolarity,Negative*%
%FSLAX46Y46*%
G04 Gerber Fmt 4.6, Leading zero omitted, Abs format (unit mm)*
G04 Created by KiCad (PCBNEW 8.0.5) date 2025-01-04 17:35:11*
%MOMM*%
%LPD*%
G01*
G04 APERTURE LIST*
%ADD10R,1.050000X1.500000*%
%ADD11O,1.050000X1.500000*%
%ADD12R,2.000000X2.000000*%
%ADD13C,2.000000*%
%ADD14C,1.400000*%
%ADD15O,1.400000X1.400000*%
%ADD16C,2.500000*%
%ADD17C,1.440000*%
%ADD18R,2.600000X2.600000*%
%ADD19C,2.600000*%
%ADD20R,1.600000X1.600000*%
%ADD21C,1.600000*%
%ADD22C,1.500000*%
%ADD23O,1.600000X1.600000*%
%ADD24R,1.800000X1.800000*%
%ADD25C,1.800000*%
%ADD26R,1.200000X1.200000*%
%ADD27C,1.200000*%
G04 APERTURE END LIST*
D10*
%TO.C,Q1*%
X159000000Y-74500000D03*
D11*
X160270000Y-74500000D03*
X161540000Y-74500000D03*
%TD*%
D12*
%TO.C,Buzzer*%
X172800000Y-69000000D03*
D13*
X165200000Y-69000000D03*
%TD*%
D14*
%TO.C,R2*%
X132920000Y-72000000D03*
D15*
X138000000Y-72000000D03*
%TD*%
D16*
%TO.C,H2*%
X180000000Y-57500000D03*
%TD*%
D10*
%TO.C,Q2*%
X155770000Y-82000000D03*
D11*
X154500000Y-82000000D03*
X153230000Y-82000000D03*
%TD*%
D14*
%TO.C,R4*%
X151960000Y-69000000D03*
D15*
X157040000Y-69000000D03*
%TD*%
D14*
%TO.C,R5*%
X151960000Y-78500000D03*
D15*
X157040000Y-78500000D03*
%TD*%
D17*
%TO.C,POT*%
X138525000Y-84275000D03*
X135985000Y-86815000D03*
X133445000Y-84275000D03*
%TD*%
D18*
%TO.C,BAT+*%
X146000000Y-63000000D03*
D19*
X140920000Y-63000000D03*
%TD*%
D14*
%TO.C,R7*%
X160000000Y-85540000D03*
D15*
X160000000Y-80460000D03*
%TD*%
D20*
%TO.C,C1*%
X174794888Y-81000000D03*
D21*
X177294888Y-81000000D03*
%TD*%
D22*
%TO.C,LDR*%
X133800000Y-79500000D03*
X137200000Y-79500000D03*
%TD*%
D16*
%TO.C,H4*%
X129000000Y-92000000D03*
%TD*%
D14*
%TO.C,R6*%
X151960000Y-86500000D03*
D15*
X157040000Y-86500000D03*
%TD*%
D16*
%TO.C,H3*%
X180000000Y-92000000D03*
%TD*%
D20*
%TO.C,CA3080*%
X141700000Y-73200000D03*
D23*
X141700000Y-75740000D03*
X141700000Y-78280000D03*
X141700000Y-80820000D03*
X149320000Y-80820000D03*
X149320000Y-78280000D03*
X149320000Y-75740000D03*
X149320000Y-73200000D03*
%TD*%
D20*
%TO.C,555*%
X163700000Y-78700000D03*
D23*
X163700000Y-81240000D03*
X163700000Y-83780000D03*
X163700000Y-86320000D03*
X171320000Y-86320000D03*
X171320000Y-83780000D03*
X171320000Y-81240000D03*
X171320000Y-78700000D03*
%TD*%
D24*
%TO.C,LED*%
X152500000Y-74000000D03*
D25*
X155040000Y-74000000D03*
%TD*%
D16*
%TO.C,H1*%
X129000000Y-57500000D03*
%TD*%
D26*
%TO.C,C2*%
X174794888Y-86500000D03*
D27*
X176794888Y-86500000D03*
%TD*%
D14*
%TO.C,R8*%
X176500000Y-70500000D03*
D15*
X176500000Y-75580000D03*
%TD*%
D14*
%TO.C,R3*%
X138000000Y-75500000D03*
D15*
X132920000Y-75500000D03*
%TD*%
M02*
