M48
; DRILL file {KiCad 8.0.5} date 2025-01-04T17:35:15+0300
; FORMAT={-:-/ absolute / metric / decimal}
; #@! TF.CreationDate,2025-01-04T17:35:15+03:00
; #@! TF.GenerationSoftware,Kicad,Pcbnew,8.0.5
; #@! TF.FileFunction,Plated,1,2,PTH
FMAT,2
METRIC
; #@! TA.AperFunction,Plated,PTH,ComponentDrill
T1C0.600
; #@! TA.AperFunction,Plated,PTH,ComponentDrill
T2C0.700
; #@! TA.AperFunction,Plated,PTH,ComponentDrill
T3C0.750
; #@! TA.AperFunction,Plated,PTH,ComponentDrill
T4C0.800
; #@! TA.AperFunction,Plated,PTH,ComponentDrill
T5C0.900
; #@! TA.AperFunction,Plated,PTH,ComponentDrill
T6C1.000
; #@! TA.AperFunction,Plated,PTH,ComponentDrill
T7C1.300
%
G90
G05
T1
X174.795Y-86.5
X176.795Y-86.5
T2
X132.92Y-72.0
X132.92Y-75.5
X138.0Y-72.0
X138.0Y-75.5
X151.96Y-69.0
X151.96Y-78.5
X151.96Y-86.5
X157.04Y-69.0
X157.04Y-78.5
X157.04Y-86.5
X160.0Y-80.46
X160.0Y-85.54
X176.5Y-70.5
X176.5Y-75.58
T3
X153.23Y-82.0
X154.5Y-82.0
X155.77Y-82.0
X159.0Y-74.5
X160.27Y-74.5
X161.54Y-74.5
T4
X133.445Y-84.275
X133.8Y-79.5
X135.985Y-86.815
X137.2Y-79.5
X138.525Y-84.275
X141.7Y-73.2
X141.7Y-75.74
X141.7Y-78.28
X141.7Y-80.82
X149.32Y-73.2
X149.32Y-75.74
X149.32Y-78.28
X149.32Y-80.82
X163.7Y-78.7
X163.7Y-81.24
X163.7Y-83.78
X163.7Y-86.32
X171.32Y-78.7
X171.32Y-81.24
X171.32Y-83.78
X171.32Y-86.32
X174.795Y-81.0
X177.295Y-81.0
T5
X152.5Y-74.0
X155.04Y-74.0
T6
X165.2Y-69.0
X172.8Y-69.0
T7
X140.92Y-63.0
X146.0Y-63.0
M30
